<?xml version="1.0" encoding="UTF-8"?>
<svg width="50px" height="50px" viewBox="0 0 50 50" version="1.1" xmlns="http://www.w3.org/2000/svg" xmlns:xlink="http://www.w3.org/1999/xlink">
    <!-- Generator: Sketch 52.2 (67145) - http://www.bohemiancoding.com/sketch -->
    <title>006-linkedin</title>
    <desc>Created with Sketch.</desc>
    <g id="006-linkedin" stroke="none" stroke-width="1" fill="none" fill-rule="evenodd">
        <g id="Group" transform="translate(3.995000, 3.995000)" fill="#000201" fill-rule="nonzero">
            <g id="176-linkedin">
                <g id="ICONSET-01">
                    <g id="176-linkedin">
                        <rect id="Rectangle-path" x="0.725887075" y="14.0176224" width="8.68778231" height="27.9466524"></rect>
                        <path d="M5.06977823,10.1995707 C3.03143937,10.2007266 1.19321939,8.97359778 0.412646857,7.09063916 C-0.367925681,5.20768054 0.0629518398,3.03990693 1.5042753,1.59858346 C2.94559877,0.157260003 5.11337238,-0.273617517 6.996331,0.506955021 C8.87928961,1.28752756 10.1064184,3.12574753 10.1052626,5.16408639 C10.1060213,6.49981232 9.57574222,7.78104836 8.63124123,8.72554939 C7.6867402,9.67005039 6.40550416,10.2003295 5.06977823,10.1995707 Z" id="Shape"></path>
                        <path d="M41.9499857,41.9642748 L33.267919,41.9642748 L33.267919,28.372468 C33.267919,25.1316966 33.2107626,20.9621327 28.7554163,20.9621327 C24.2343401,20.9621327 23.5456048,24.4972599 23.5456048,28.1409844 L23.5456048,41.9642748 L14.8606803,41.9642748 L14.8606803,14.0176224 L23.1912347,14.0176224 L23.1912347,17.838532 L23.3112633,17.838532 C24.4543925,15.640866 27.3122156,13.3260293 31.5275048,13.3260293 C40.3238844,13.3260293 41.9471279,19.1102633 41.9471279,26.6349116 L41.9499857,41.9642748 Z" id="Shape"></path>
                    </g>
                </g>
            </g>
        </g>
    </g>
</svg>