<svg viewBox="0 0 50 50" xmlns="http://www.w3.org/2000/svg"><path d="m21.2586453 39.3969252c-.1188962 0-.2325082 0-.3196988 0-.0871905 0-.1373912 0-.2087289 0-2.4968207 0-4.1666522-1.1810359-5.6409654-2.2220384-1.0568553-.745083-2.0529415-1.450534-3.2207667-1.6460522-.5596807-.0938292-1.1261204-.1415481-1.6936107-.1426755-.78996805.0068688-1.5771082.0954111-2.34886096.2642139-.29347933.0678805-.59226834.1103119-.89304277.1268226-.31284863.0369957-.60245289-.1701915-.66846101-.478227-.09775912-.3355516-.16909685-.6605346-.23779245-.9749491-.17173899-.7926415-.2959195-1.2603-.58655472-1.3052164-3.1335761-.4835113-4.98307295-1.1942465-5.35297232-2.0555836-.03709654-.0836007-.05944416-.1729914-.06605346-.2642138-.01556133-.2585246.1671072-.4868603.42274214-.5284277 2.4862522-.4095315 4.69772201-1.7253164 6.57364025-3.9077227.90824185-1.0510981 1.6634297-2.2252418 2.24317547-3.4876226-.00099471-.0078952-.00099471-.015884 0-.0237792.36197295-.7318724.43331069-1.3659856.21401321-1.8838447-.40424717-.9511698-1.74116919-1.3739119-2.6236434-1.6566207-.22193962-.0686956-.42802642-.1347491-.59448113-.2008026-.79264151-.3091302-2.07407862-.9643805-1.90233962-1.8653497.1241805-.6605345.99608616-1.1176245 1.7015371-1.1176245.17891732-.0097697.35773439.0209363.5231434.0898327.66347487.3433759 1.3937779.5381234 2.14013207.5707019.44060485.0312117.87720719-.1014627 1.22595221-.3725415-.02377925-.4095314-.05020063-.8402-.07662202-1.2497314-.17966541-2.8561516-.40424717-6.41511199.50464841-8.45484281 2.710834-6.1086239 8.4865484-6.58420881 10.1907277-6.58420881h.7424409.095117c1.7094635 0 7.4957465.47558491 10.2197911 6.58420881.9115378 2.03973082.686956 5.60133331.5072906 8.45484281v.134749c-.0237792.3883944-.0475585.7582937-.0660534 1.1123403.3145317.2509024.7074835.3828219 1.1096981.3725415.6975052-.056334 1.3771115-.249353 2.0000987-.5680598.2067439-.0891994.4301179-.1333338.6552503-.1294648.2561139-.0011434.5100271.0473064.7477252.1426755.6314711.2219396 1.0436446.668461 1.0568553 1.1387617.0132107.4703006-.3170566 1.0912031-1.9155503 1.7226742-.1638126.0660534-.3725415.1321069-.5944811.2034446-.8851164.2800667-2.2220384.7028088-2.6236434 1.6539786-.2192975.5284277-.1479598 1.1493302.2140132 1.8838447v.0237792c.1109698.2642139 2.8059509 6.4045434 8.8168157 7.3979875.2559173.0404825.4383619.2699726.4201.5284276-.0066093.0912225-.028957.1806132-.0660534.2642139-.3646151.8586949-2.2167541 1.5694302-5.3503302 2.0529415-.2932774.0449163-.4174579.5284276-.5865547 1.2999321-.0713378.3196987-.1426755.6341132-.2377925.9670226-.0614321.2882145-.3271707.4861051-.6209025.4623742h-.0502006c-.2995335-.0101381-.5975416-.0472787-.8904007-.1109698-.7724632-.1628067-1.5594381-.2469041-2.348861-.2510031-.568432.0021522-1.1357377.0507531-1.6962528.1453176-1.165183.1928761-2.1612692.8956849-3.2154824 1.6407679-1.4769553 1.0436446-3.1467868 2.2246805-5.6436075 2.2246805" fill="#000100" transform="translate(3.995 5.183962)"/></svg>