<svg viewBox="0 0 50 50" xmlns="http://www.w3.org/2000/svg"><path d="m41.916924 8.49507605c-.1861521 4.08528385-3.0371301 9.67823195-8.5529342 16.77884435-5.6918939 7.419251-10.5100467 11.1280382-14.4544587 11.126361-2.4401018 0-4.5045453-2.2589808-6.1933305-6.7769425-1.1286519-4.1372723-2.2564653-8.27706-3.38344012-12.4193635-1.25275329-4.5146075-2.59439001-6.7735884-4.02491018-6.7769425-.31193054 0-1.40704151.6590791-3.28533293 1.9772372l-1.97220599-2.54324016c2.0677976-1.81791777 4.10540838-3.63835109 6.11283233-5.4613 2.75706348-2.38811337 4.82569959-3.6458978 6.20590839-3.77335329 3.2601772-.31025349 5.2667627 1.92357166 6.0197563 6.70147545.8217525 5.1569162 1.3869169 8.3634279 1.6954934 9.6195353.9374687 4.2781441 1.9713675 6.4163777 3.1016964 6.4147006.8787721 0 2.1952532-1.3877555 3.9494431-4.1632664 1.75419-2.775511 2.6941743-4.8877503 2.8199527-6.336718.2515569-2.3948216-.6884274-3.59307086-2.8199527-3.59474791-1.0690279.01564759-2.1236129.249334-3.0991808.6867503 2.0577353-6.75346388 5.9895694-10.03628124 11.7955024-9.8484521 4.3049767.12577845 6.3333639 2.92225251 6.0851611 8.38942216z" transform="translate(3.995 6.762126)"/></svg>