<svg viewBox="0 0 50 50" xmlns="http://www.w3.org/2000/svg"><g transform="translate(3.995 15.856647)"><path d="m18.0964253 9.14335294c0 4.93236216-3.9984696 8.93083176-8.93083177 8.93083176-4.9323622 0-8.93083176-3.9984696-8.93083176-8.93083176 0-4.9323622 3.99846956-8.93083176 8.93083176-8.93083176 2.36860387 0 4.64019587.94092421 6.31505167 2.61578005 1.6748559 1.67485584 2.6157801 3.94644787 2.6157801 6.31505171z"/><path d="m41.7752382 9.14335294c0 4.93236216-3.9984695 8.93083176-8.9308317 8.93083176-4.9323623 0-8.9308318-3.9984696-8.9308318-8.93083176 0-4.9323622 3.9984695-8.93083176 8.9308318-8.93083176 4.9323622 0 8.9308317 3.99846956 8.9308317 8.93083176z"/></g></svg>