<svg viewBox="0 0 50 50" xmlns="http://www.w3.org/2000/svg"><g transform="translate(3.995 3.995)"><path d="m41.7569277 12.3853578c-.0391136-1.7293379-.3667068-3.4400078-.9692669-5.06144575-.5247307-1.39417289-1.3488634-2.65628833-2.4143096-3.69738615-1.0441084-1.06661699-2.3073562-1.89381547-3.7024476-2.42443253-1.3286295-.50614457-2.8445325-.87056867-5.0740994-.97179759-2.2295669-.10122891-2.9356385-.11641325-8.6044578-.11641325s-6.3850139.02530723-8.6044578.12653615c-2.219444.10122891-3.74040848.45553012-5.06144583.96926686-1.39797502.52186167-2.66381171 1.34530357-3.70750904 2.41177892-1.06141595 1.04538544-1.88490479 2.30737779-2.41430963 3.69991687-.50614458 1.32609879-.87056868 2.84200177-.96926687 5.07409937s-.12400542 2.9356386-.12400542 8.6044579c0 5.6688192.02530723 6.3850138.12400542 8.6044578s.45553012 3.7404084.96926687 5.0614458c.524698 1.3949291 1.34881051 2.6578773 2.41430963 3.6999168 1.0447966 1.0603233 2.30590787 1.8829373 3.69738615 2.411779 1.32609879.5061445 2.84453252.8705686 5.06144582.9692668 2.2169132.0986982 2.9356385.1265362 8.6044578.1265362s6.3850138-.0253073 8.6044578-.1265362 3.7404085-.4555301 5.0740994-.9692668c1.3943524-.5231772 2.6566155-1.3465423 3.6973862-2.411779 1.061416-1.0453854 1.8849046-2.3073777 2.4143096-3.6999168.5061446-1.3260988.8705687-2.8420018.9692669-5.0614458s.1240054-2.9331078.1240054-8.6044578-.0075922-6.3824832-.1088211-8.6145808zm-3.7555928 17.0570723c-.091106 2.0397627-.4327536 3.1431579-.721256 3.8795982-.3345309.9072821-.8670851 1.7285913-1.5589253 2.4041868-.6731584.6960138-1.496302 1.2291961-2.4067175 1.5589253-.7364403.2809102-1.8398355.63015-3.8795981.721256-2.2067904.1012289-2.8597169.1265361-8.4399609.1265361s-6.2357012-.0253072-8.4399608-.1265361c-2.0397627-.091106-3.14315787-.4302229-3.88212895-.721256-.90774312-.3336098-1.72924432-.8662885-2.40418675-1.5589253-.69569235-.6724318-1.22885432-1.4946784-1.5589253-2.4041868-.28091024-.7364403-.63015-1.8398355-.72125602-3.8795982-.0986982-2.2067903-.12400542-2.8597168-.12400542-8.4424915s.02530722-6.2331705.12400542-8.4399609c.09110602-2.0397626.43022289-3.14315782.72125602-3.87959818.33453102-.9072821.86708524-1.72859134 1.5589253-2.40418675.67163012-.69666537 1.49411708-1.22998325 2.40418675-1.5589253.73897108-.28091024 1.84236625-.63015 3.88212895-.72125602 2.2042596-.10122892 2.8597168-.12653615 8.4399608-.12653615s6.2331705.02530723 8.4399609.12653615c2.0397626.09110602 3.1431578.43022289 3.8795981.72125602.908998.33257601 1.7315406.8653692 2.4067175 1.5589253.6956924.6724318 1.2288543 1.49467835 1.5589253 2.40418675.2809103.73644036.63015 1.83983558.721256 3.87959818.0986982 2.2042596.1240055 2.8597169.1240055 8.4399609 0 5.5802439-.0227765 6.2357012-.1214747 8.4424915z"/><path d="m21.005 10.2722042c-4.3391924-.0030704-8.2529221 2.6081629-9.9160599 6.6159768-1.66313772 4.007814-.7481205 8.6228506 2.3183423 11.692933 3.0664628 3.0700822 7.6804169 3.9905431 11.69019 2.3321343s6.6256214-5.5690554 6.6276698-9.9082483c.0013997-5.9231989-4.7969458-10.727208-10.7201422-10.7327958zm0 17.6922838c-2.8180466.0030712-5.3602234-1.6923861-6.440299-4.2952369s-.4851656-5.6000695 1.5071331-7.5930929c1.9922986-1.9930234 4.9893007-2.5890235 7.5925443-1.5098946 2.6032434 1.0791289 4.2996252 3.6206889 4.2975788 6.4387364-.0013957 3.8420528-3.1149052 6.956695-6.9569572 6.959488z"/><path d="m34.6531886 9.84957349c-.0041975 1.37998911-1.1245751 2.49620731-2.5045704 2.49527171-1.3799951-.0009357-2.4988584-1.1186721-2.5011843-2.49866563-.0023263-1.37999355 1.1127626-2.50149542 2.4927468-2.50708318.6642452-.00000033 1.3012474.26404307 1.7707023.73397255.4694547.46992945.7328543 1.10719837.7321827 1.77144311z"/></g></svg>