<svg viewBox="0 0 50 50" xmlns="http://www.w3.org/2000/svg"><path d="m15.2555553 17.3868627c0-1.3410457 1.0871323-2.428178 2.428178-2.428178s2.428178 1.0871323 2.428178 2.428178-1.0871323 2.428178-2.428178 2.428178c-1.3388577-.0030885-2.4225802-1.0893168-2.4225766-2.428178zm11.0038194 0c0-1.3410457 1.0871323-2.428178 2.428178-2.428178s2.428178 1.0871323 2.428178 2.428178-1.0871323 2.428178-2.428178 2.428178c-1.3388577-.0030885-2.4225803-1.0893168-2.4225767-2.428178zm5.7357653 9.939566c-1.503958 3.478428-5.024396 5.7245626-8.9621333 5.7245626-4.0301594 0-7.5618-2.260138-9.023748-5.7525693-.2490292-.5985982.0343524-1.285736.6329507-1.5347653.5985982-.2490292 1.285736.0343524 1.5347653.6329506 1.0866586 2.6158227 3.7780993 4.3074254 6.856032 4.3074254 3.0107166 0 5.6853533-1.6804 6.8196233-4.310226.2575364-.5947314.948436-.8680818 1.5431673-.6105454.5947314.2575365.8680818.948436.6105454 1.5431674zm7.1052445-20.41386003c8.8764481 8.89415973 8.8764481 23.29350363 0 32.18766333-6.5095053 6.5102072-16.2997568 8.4580207-24.8053886 4.935141-8.50563177-3.5228794-14.05152029-11.822646-14.05152029-21.0289727 0-9.2063268 5.54588847-17.50609325 14.05152029-21.02897274 8.5056318-3.52287948 18.2958833-1.5750659 24.8053886 4.93514111zm-23.2747544-1.23958172c-7.0108814 2.90378076-11.58215449 9.74497485-11.58215449 17.33341335s4.57127314 14.4296326 11.58215449 17.3334133c7.0108813 2.903781 15.0806276 1.2982695 20.4448421-4.0665222 7.3165533-7.3311534 7.3167753-19.2016858.000666-26.53311478-5.3655489-5.36559189-13.4349172-6.97085016-20.4455081-4.06718967z" transform="translate(1.995 1.995)"/></svg>