<?xml version="1.0" encoding="UTF-8"?>
<svg width="50px" height="50px" viewBox="0 0 50 50" version="1.1" xmlns="http://www.w3.org/2000/svg" xmlns:xlink="http://www.w3.org/1999/xlink">
    <!-- Generator: Sketch 52.4 (67378) - http://www.bohemiancoding.com/sketch -->
    <title>012-smiley-bien</title>
    <desc>Created with Sketch.</desc>
    <g id="012-smiley-bien" stroke="none" stroke-width="1" fill="none" fill-rule="evenodd">
        <g id="Group" transform="translate(1.995000, 1.995000)" fill="#000000" fill-rule="nonzero">
            <g id="006-smiley-bien">
                <g id="ICONSET-01">
                    <g id="006-smiley-bien">
                        <path d="M15.2555553,17.3868627 C15.2555553,16.045817 16.3426876,14.9586847 17.6837333,14.9586847 C19.024779,14.9586847 20.1119113,16.045817 20.1119113,17.3868627 C20.1119113,18.7279084 19.024779,19.8150407 17.6837333,19.8150407 C16.3448756,19.8119522 15.2611531,18.7257239 15.2611567,17.3868627 L15.2555553,17.3868627 Z M26.2593747,17.3868627 C26.2593747,16.045817 27.346507,14.9586847 28.6875527,14.9586847 C30.0285984,14.9586847 31.1157307,16.045817 31.1157307,17.3868627 C31.1157307,18.7279084 30.0285984,19.8150407 28.6875527,19.8150407 C27.348695,19.8119522 26.2649724,18.7257239 26.264976,17.3868627 L26.2593747,17.3868627 Z M31.99514,27.3264287 C30.491182,30.8048567 26.970744,33.0509913 23.0330067,33.0509913 C19.0028473,33.0509913 15.4712067,30.7908533 14.0092587,27.298422 C13.7602295,26.6998238 14.0436111,26.012686 14.6422094,25.7636567 C15.2408076,25.5146275 15.9279454,25.7980091 16.1769747,26.3966073 C17.2636333,29.01243 19.955074,30.7040327 23.0330067,30.7040327 C26.0437233,30.7040327 28.71836,29.0236327 29.85263,26.3938067 C30.1101664,25.7990753 30.801066,25.5257249 31.3957973,25.7832613 C31.9905287,26.0407978 32.2638791,26.7316973 32.0063427,27.3264287 L31.99514,27.3264287 Z M39.1003845,6.91256867 C47.9768326,15.8067284 47.9768326,30.2060723 39.1003845,39.100232 C32.5908792,45.6104392 22.8006277,47.5582527 14.2949959,44.035373 C5.78936413,40.5124936 0.243475613,32.212727 0.243475613,23.0064003 C0.243475613,13.8000735 5.78936408,5.50030705 14.2949959,1.97742756 C22.8006277,-1.54545192 32.5908792,0.402361657 39.1003845,6.91256867 Z M15.8256301,5.67298695 C8.8147487,8.57676771 4.24347561,15.4179618 4.24347561,23.0064003 C4.24347561,30.5948388 8.81474875,37.4360329 15.8256301,40.3398136 C22.8365114,43.2435946 30.9062577,41.6380831 36.2704722,36.2732914 C43.5870255,28.942138 43.5872475,17.0716056 36.2711382,9.74017662 C30.9055893,4.37458473 22.836221,2.76932646 15.8256301,5.67298695 Z" id="Combined-Shape"></path>
                    </g>
                </g>
            </g>
        </g>
    </g>
</svg>