<svg viewBox="0 0 50 50" xmlns="http://www.w3.org/2000/svg"><path d="m39.1194133 6.89238832.0017125.00171341c8.8900982 8.90536727 8.8900982 23.32763197-.0017125 32.23471267-8.900361 8.8940753-23.3250787 8.8906785-32.22124987-.0075876-8.89617115-8.8982664-8.89617115-23.3229845.00000001-32.22125083 8.89617116-8.89826632 23.32088886-8.90166314 32.22124986-.00758765zm-29.39248973 2.83568173c-7.334518 7.33624535-7.334518 19.22881715-.00000001 26.56506265 7.33451804 7.3362452 19.22708954 7.3390457 26.56334934.007969 7.3309501-7.3435413 7.3312354-19.2362481.0008557-26.58014351-7.3380413-7.33193382-19.2299725-7.32884798-26.56420503.00711186zm23.27645643 16.42487925c.1048872.157893.1228025.3581214.0476113.5321267-1.6804 3.881724-5.6013333 6.3883207-10.0179846 6.3883207-4.4978707 0-8.4552127-2.5206-10.0824-6.419128-.0725291-.1741454-.0525282-.373102.0532126-.529326.1036981-.1554264.2780671-.2489134.4649107-.2492594l19.0445333.0224054c.1898995-.0002969.3670168.0956417.470512.2548606zm-17.467758-7.3489493c-.7303531-1.0007936-.5912111-2.3907417.3230318-3.2269015.914243-.8361598 2.3110594-.8509881 3.2428472-.0344251.9317878.8165629 1.1004056 2.2032439.391463 3.2193166-.4615298-.6367557-1.2031467-1.0102095-1.9895295-1.0018615-.7863827.008348-1.5199044.3974615-1.9678125 1.0438715zm11.015022 0c-.6169046-.8511442-.6160701-2.0025929.0020676-2.8528421.6181378-.8502491 1.7131896-1.2061933 2.7131126-.8818912.9999232.324302 1.6776184 1.255196 1.6790658 2.3063933.0046345.5010179-.14819.9908402-.436904 1.4003333-.4609166-.6367458-1.2021225-1.0102793-1.9881375-1.0019293-.7860151.0083501-1.5191184.3975455-1.9664038 1.0439393z" transform="translate(1.995 1.995)"/></svg>