<?xml version="1.0" encoding="UTF-8"?>
<svg width="50px" height="50px" viewBox="0 0 50 50" version="1.1" xmlns="http://www.w3.org/2000/svg" xmlns:xlink="http://www.w3.org/1999/xlink">
    <!-- Generator: Sketch 52.2 (67145) - http://www.bohemiancoding.com/sketch -->
    <title>013-smiley-excellent</title>
    <desc>Created with Sketch.</desc>
    <g id="013-smiley-excellent" stroke="none" stroke-width="1" fill="none" fill-rule="evenodd">
        <g id="Group" transform="translate(1.995000, 1.995000)" fill="#000000" fill-rule="nonzero">
            <g id="007-smiley-excellent">
                <g id="ICONSET-01">
                    <g id="007-smiley-excellent">
                        <path d="M39.1194133,6.89238832 L39.1211258,6.89410173 C48.011224,15.799469 48.011224,30.2217337 39.1194133,39.1288144 C30.2190523,48.0228897 15.7943346,48.0194929 6.89816343,39.1212268 C-1.99800772,30.2229604 -1.99800772,15.7982423 6.89816344,6.89997597 C15.7943346,-1.99829035 30.2190523,-2.00168717 39.1194133,6.89238832 Z M9.72692357,9.72807005 C2.39240557,17.0643154 2.39240557,28.9568872 9.72692356,36.2931327 C17.0614416,43.6293779 28.9540131,43.6321784 36.2902729,36.3011017 C43.621223,28.9575604 43.6215083,17.0648536 36.2911286,9.72095819 C28.9530873,2.38902437 17.0611561,2.39211021 9.72692357,9.72807005 Z M33.00338,26.1529493 C33.1082672,26.3108423 33.1261825,26.5110707 33.0509913,26.685076 C31.3705913,30.5668 27.449658,33.0733967 23.0330067,33.0733967 C18.535136,33.0733967 14.577794,30.5527967 12.9506067,26.6542687 C12.8780776,26.4801233 12.8980785,26.2811667 13.0038193,26.1249427 C13.1075174,25.9695163 13.2818864,25.8760293 13.46873,25.8756833 L32.5132633,25.8980887 C32.7031628,25.8977918 32.8802801,25.9937304 32.9837753,26.1529493 L33.00338,26.1529493 Z M15.535622,18.804 C14.8052689,17.8032064 14.9444109,16.4132583 15.8586538,15.5770985 C16.7728968,14.7409387 18.1697132,14.7261104 19.101501,15.5426734 C20.0332888,16.3592363 20.2019066,17.7459173 19.492964,18.76199 C19.0314342,18.1252343 18.2898173,17.7517805 17.5034345,17.7601285 C16.7170518,17.7684765 15.9835301,18.15759 15.535622,18.804 Z M26.550644,18.804 C25.9337394,17.9528558 25.9345739,16.8014071 26.5527116,15.9511579 C27.1708494,15.1009088 28.2659012,14.7449646 29.2658242,15.0692667 C30.2657474,15.3935687 30.9434426,16.3244627 30.94489,17.37566 C30.9495245,17.8766779 30.7967,18.3665002 30.507986,18.7759933 C30.0470694,18.1392475 29.3058635,17.765714 28.5198485,17.774064 C27.7338334,17.7824141 27.0007301,18.1716095 26.5534447,18.8180033 L26.550644,18.804 Z" id="Combined-Shape"></path>
                    </g>
                </g>
            </g>
        </g>
    </g>
</svg>