<?xml version="1.0" encoding="UTF-8"?>
<svg width="50px" height="50px" viewBox="0 0 50 50" version="1.1" xmlns="http://www.w3.org/2000/svg" xmlns:xlink="http://www.w3.org/1999/xlink">
    <!-- Generator: Sketch 52.2 (67145) - http://www.bohemiancoding.com/sketch -->
    <title>014-livre</title>
    <desc>Created with Sketch.</desc>
    <g id="014-livre" stroke="none" stroke-width="1" fill="none" fill-rule="evenodd">
        <path d="M10.3199999,8.86542629 L11.7659603,8.66200695 C18.113479,7.76903085 22.9139488,8.61406918 26.0931544,11.3383454 L26.6800001,11.8412162 L26.6800001,38.9999317 L23.3199999,38.9999317 L23.3199999,38.6188363 C23.3199999,38.4988642 23.2706847,38.3986371 23.0775299,38.2286296 C22.7402338,37.9317543 22.1340089,37.6310114 21.2612778,37.3656523 C19.2739529,36.7613942 16.1634214,36.4129505 11.9731185,36.3458933 L10.3199999,36.3194385 L10.3199999,8.86542629 Z M13.6800001,11.8156878 L13.6800001,33.0278565 C17.918903,33.1759317 21.1429356,33.6325961 23.3199999,34.5065633 L23.3199999,13.4374393 C21.1868312,11.9597902 17.9876306,11.3923134 13.6800001,11.8156878 Z" id="Path" fill="#000000" fill-rule="nonzero"></path>
        <polygon id="Path-2" fill="#000000" fill-rule="nonzero" points="7.50097656 38 25 38 25 42 3.50097656 42 3.50097656 12 11.25 12 11.25 16 7.50097656 16"></polygon>
        <path d="M23.3199999,8.86542629 L24.7659603,8.66200695 C31.113479,7.76903085 35.9139488,8.61406918 39.0931544,11.3383454 L39.6800001,11.8412162 L39.6800001,38.9999317 L36.3199999,38.9999317 L36.3199999,38.6188363 C36.3199999,38.4988642 36.2706847,38.3986371 36.0775299,38.2286296 C35.7402338,37.9317543 35.1340089,37.6310114 34.2612778,37.3656523 C32.2739529,36.7613942 29.1634214,36.4129505 24.9731185,36.3458933 L23.3199999,36.3194385 L23.3199999,8.86542629 Z M26.6800001,11.8156878 L26.6800001,33.0278565 C30.918903,33.1759317 34.1429356,33.6325961 36.3199999,34.5065633 L36.3199999,13.4374393 C34.1868312,11.9597902 30.9876306,11.3923134 26.6800001,11.8156878 Z" id="Path" fill="#000000" fill-rule="nonzero" transform="translate(31.500000, 23.660097) scale(-1, 1) translate(-31.500000, -23.660097) "></path>
        <polygon id="Path-2" fill="#000000" fill-rule="nonzero" points="42.75 16 39.0009766 16 39.0009766 12 46.75 12 46.75 42 25 42 25 38 42.75 38"></polygon>
    </g>
</svg>