<svg viewBox="0 0 50 50" xmlns="http://www.w3.org/2000/svg"><path d="m39.6800001 12h7.0699999v30h-21.75-21.49902344v-30h6.81902334v-3.13457371l1.4459604-.20341934c5.6581177-.79599039 10.0869859-.21099453 13.2340397 1.85501315 3.1470538-2.06600768 7.575922-2.65100354 13.2340397-1.85501315l1.4459604.20341934zm0 4v20.3194385l-1.6531186.0264548c-4.1903029.0670572-7.3008344.4155009-9.2881593 1.019759-.648794.1972697-1.1503025.4140944-1.5035301.6343477h15.5148079v-22zm-16.9151922 22c-.3532276-.2202533-.8547361-.437078-1.5035301-.6343477-1.9873249-.6042581-5.0978564-.9527018-9.2881593-1.019759l-1.6531186-.0264548v-20.3194385h-2.81902334v22zm3.9151922-24.5625607v21.069124c2.1770643-.8739672 5.4010969-1.3306316 9.6399998-1.4787068v-21.2121687c-4.3076305-.4233744-7.5068311.1441024-9.6399998 1.6217515zm-3.3600002 0c-2.1331687-1.4776491-5.3323693-2.0451259-9.6399998-1.6217515v21.2121687c4.2389029.1480752 7.4629355.6047396 9.6399998 1.4787068z"/></svg>