<?xml version="1.0" encoding="UTF-8"?>
<svg width="50px" height="50px" viewBox="0 0 50 50" version="1.1" xmlns="http://www.w3.org/2000/svg" xmlns:xlink="http://www.w3.org/1999/xlink">
    <!-- Generator: Sketch 52.2 (67145) - http://www.bohemiancoding.com/sketch -->
    <title>015-horloge</title>
    <desc>Created with Sketch.</desc>
    <g id="015-horloge" stroke="none" stroke-width="1" fill="none" fill-rule="evenodd">
        <g id="Group" transform="translate(3.995000, 3.995000)" fill="#000000" fill-rule="nonzero">
            <g id="013-horloge">
                <g id="ICONSET-01">
                    <g id="013-horloge">
                        <polygon id="Shape" points="22.105662 20.9265813 30.9221607 30.37323 29.2417607 32.1012413 18.576822 22.618184 18.383576 21.1254287 19.1425567 6.87563667 21.357884 6.87563667"></polygon>
                        <path d="M39.8615647,21.005 C39.8615647,16.0039281 37.8748966,11.2076871 34.3386047,7.67139525 C30.8023129,4.13510341 26.0060719,2.14843533 21.005,2.14843533 C10.5908069,2.14843533 2.14843533,10.5908069 2.14843533,21.005 C2.14843533,31.419193 10.5908069,39.8615647 21.005,39.8615647 C31.419193,39.8615647 39.8615647,31.419193 39.8615647,21.005 Z M43.8615647,21.005 C43.8615647,33.628332 33.628332,43.8615647 21.005,43.8615647 C8.38166793,43.8615647 -1.85156467,33.628332 -1.85156467,21.005 C-1.85156467,8.38166791 8.38166791,-1.85156467 21.005,-1.85156467 C27.0669379,-1.85156467 32.8805946,0.556530776 37.1670319,4.84296813 C41.4534692,9.12940551 43.8615647,14.9430622 43.8615647,21.005 Z" id="Shape-path"></path>
                    </g>
                </g>
            </g>
        </g>
    </g>
</svg>