<svg viewBox="0 0 50 50" xmlns="http://www.w3.org/2000/svg"><path d="m24.105662 22.9265813 8.8164987 9.4466487-1.6804 1.7280113-10.6649387-9.4830573-.193246-1.4927553.7589807-14.24979203h2.2153273zm17.7559027.0784187c0-5.0010719-1.9866681-9.7973129-5.52296-13.33360475-3.5362918-3.53629184-8.3325328-5.52295992-13.3336047-5.52295992-10.4141931 0-18.85656467 8.44237157-18.85656467 18.85656467 0 10.414193 8.44237157 18.8565647 18.85656467 18.8565647 10.414193 0 18.8565647-8.4423717 18.8565647-18.8565647zm4 0c0 12.623332-10.2332327 22.8565647-22.8565647 22.8565647-12.6233321 0-22.85656467-10.2332327-22.85656467-22.8565647 0-12.6233321 10.23323257-22.85656467 22.85656467-22.85656467 6.0619379 0 11.8755946 2.40809545 16.1620319 6.6945328 4.2864373 4.28643737 6.6945328 10.10009407 6.6945328 16.16203187z" transform="translate(1.995 1.995)"/></svg>