<svg viewBox="0 0 50 50" xmlns="http://www.w3.org/2000/svg"><path d="m45.4706771 35.0227275c.8339797 2.2778849.4763401 4.2720587-.573074 5.7581748-1.0690593 1.5059678-2.8144022 2.3849288-4.646776 2.3474637-.8831693-.0118116-1.7563351-.1887359-2.5500301-.511896l-3.9719634-1.5557581c-8.8786843 5.4107892-20.4083486 3.8948908-27.58305861-3.7641664-7.41975216-7.9206418-7.97972465-20.0602894-1.32064874-28.6303532 6.65907595-8.57006383 18.56070735-11.02684699 28.06901155-5.79411952 9.2912206 5.11325928 13.6023675 16.08589342 10.3636224 26.11196392l1.7298735 4.7262954zm-6.4617684-6.0095725.2459895-.6831483c3.0105032-8.3605985-.504282-17.6691987-8.2893295-21.95356221-7.7850476-4.28436357-17.5296629-2.27284046-22.98186774 4.74401061-5.45220489 7.016851-4.99372013 16.9563452 1.08129831 23.4414734 6.07501843 6.4851282 15.96343283 7.5910272 23.32100603 2.6081713l.8711952-.5900098.9797127.3837387 4.9471229 1.9378989c.3560041.1448666.7359669.2218562 1.1343667.2272341.5219387.0106575 1.0152952-.2377986 1.3146062-.6594229.3078292-.4359319.4263815-1.031347.1327301-1.9242751zm-6.7590158-6.7675665c.0054535.8976135-.5310586 1.709879-1.3587854 2.0571662-.8277265.3472871-1.7831952.1610082-2.4198467-.4717753-.6366513-.6327835-.8287492-1.5870993-.4865125-2.4169269.3422367-.8298277 1.1512178-1.3712795 2.0488479-1.3712961 1.2187879-.0000225 2.2088922.9840667 2.2162967 2.2028321zm-8.1677134 0c.0074136 1.2239938-.9788116 2.2222509-2.2028053 2.2296795-1.2239937.0074287-2.222263-.9787842-2.2297067-2.2027778-.0074437-1.2239937.9787569-2.222275 2.2027504-2.2297338.5878018-.0035819 1.1529504.2264918 1.5711142.6396052.4181638.4131135.6550871.975425.6586474 1.5632269zm-8.1973359 0c.0054542.8978585-.531349 1.7102955-1.3594073 2.0574254-.8280583.34713-1.7837399.160357-2.4201801-.4729861-.6364402-.6333432-.8278728-1.5881024-.4847862-2.4178441.3430865-.8297417 1.1528953-1.3705017 2.0507697-1.3694273 1.2183454-.0000144 2.2076752.9845012 2.2136039 2.2028321z" transform="translate(1.995 2.802885)"/></svg>