<?xml version="1.0" encoding="UTF-8"?>
<svg width="50px" height="50px" viewBox="0 0 50 50" version="1.1" xmlns="http://www.w3.org/2000/svg" xmlns:xlink="http://www.w3.org/1999/xlink">
    <!-- Generator: Sketch 52.2 (67145) - http://www.bohemiancoding.com/sketch -->
    <title>016-bulle</title>
    <desc>Created with Sketch.</desc>
    <g id="016-bulle" stroke="none" stroke-width="1" fill="none" fill-rule="evenodd">
        <g id="Group" transform="translate(3.995000, 4.802885)" fill="#000000" fill-rule="nonzero">
            <g id="015-bulle-02">
                <g id="ICONSET-01">
                    <g id="015-bulle-02">
                        <path d="M43.4706771,33.0227275 C44.3046568,35.3006124 43.9470172,37.2947862 42.8976031,38.7809023 C41.8285438,40.2868701 40.0832009,41.1658311 38.2508271,41.128366 C37.3676578,41.1165544 36.494492,40.9396301 35.700797,40.61647 L31.7288336,39.0607119 C22.8501493,44.4715011 11.320485,42.9556027 4.14577499,35.2965455 C-3.27397717,27.3759037 -3.83394966,15.2362561 2.82512625,6.6661923 C9.48420218,-1.90387153 21.3858336,-4.36065469 30.8941378,0.872072776 C40.1853584,5.98533206 44.4965053,16.9579662 41.2577602,26.9840367 L42.9876337,31.7103321 L43.4706771,33.0227275 Z M37.0089087,27.013155 L37.2548982,26.3300067 C40.2654014,17.9694082 36.7506162,8.66080804 28.9655687,4.37644449 C21.1805211,0.0920809204 11.4359058,2.10360403 5.98370096,9.12045509 C0.531496073,16.1373061 0.989980829,26.0768003 7.06499927,32.5619285 C13.1400177,39.0470567 23.0284321,40.1529557 30.3860053,35.1700998 L31.2572005,34.58009 L32.2369132,34.9638287 L37.1840361,36.9017276 C37.5400402,37.0465942 37.920003,37.1235838 38.3184028,37.1289617 C38.8403415,37.1396192 39.333698,36.8911631 39.633009,36.4695388 C39.9408382,36.0336069 40.0593905,35.4381918 39.7657391,34.5452637 L37.0089087,27.013155 Z" id="Shape"></path>
                        <path d="M30.2498929,20.2455885 C30.2553464,21.143202 29.7188343,21.9554675 28.8911075,22.3027547 C28.063381,22.6500418 27.1079123,22.4637629 26.4712608,21.8309794 C25.8346095,21.1981959 25.6425116,20.2438801 25.9847483,19.4140525 C26.326985,18.5842248 27.1359661,18.042773 28.0335962,18.0427564 C29.2523841,18.0427339 30.2424884,19.0268231 30.2498929,20.2455885 Z" id="Shape"></path>
                        <path d="M22.0821795,20.2455885 C22.0895931,21.4695823 21.1033679,22.4678394 19.8793742,22.475268 C18.6553805,22.4826967 17.6571112,21.4964838 17.6496675,20.2724902 C17.6422238,19.0484965 18.6284244,18.0502152 19.8524179,18.0427564 C20.4402197,18.0391745 21.0053683,18.2692482 21.4235321,18.6823616 C21.8416959,19.0954751 22.0786192,19.6577866 22.0821795,20.2455885 Z" id="Shape"></path>
                        <path d="M13.8848436,20.2455885 C13.8902978,21.143447 13.3534946,21.955884 12.5254363,22.3030139 C11.697378,22.6501439 10.7416964,22.4633709 10.1052562,21.8300278 C9.468816,21.1966846 9.27738343,20.2419254 9.62046997,19.4121837 C9.96355651,18.582442 10.7733653,18.041682 11.6712397,18.0427564 C12.8895851,18.042742 13.8789149,19.0272576 13.8848436,20.2455885 Z" id="Shape"></path>
                    </g>
                </g>
            </g>
        </g>
    </g>
</svg>