<svg viewBox="0 0 50 50" xmlns="http://www.w3.org/2000/svg"><path d="m31.4121002 6.59067295c1.0048449 1.55941928 1.5878998 3.41628325 1.5878998 5.40932705 0 5.5228475-4.4771525 10-10 10s-10-4.4771525-10-10c0-1.9902086.5813972-3.8446245 1.583614-5.40267015-3.8504359 1.79606947-7.10586575 4.80379505-9.25563284 8.65582495 3.59567322 6.4428563 10.28449144 10.5237306 17.67701884 10.5237306s14.0813456-4.0808743 17.6770188-10.5237306c-2.1524252-3.8567929-5.4132492-6.86719223-9.2699186-8.66248185zm-8.4071002-5.86124887c9.2700394 0 17.6019272 5.33929342 21.7281148 13.63286292l.4432214.8908678-.4432214.8908678c-4.1261876 8.2935694-12.4580754 13.6328628-21.7281148 13.6328628s-17.60192718-5.3392934-21.72811478-13.6328628l-.44322142-.8908678.44322142-.8908678c4.1261876-8.2935695 12.45807538-13.63286292 21.72811478-13.63286292zm-4.005 14.27057592c2.209139 0 4-1.790861 4-4s-1.790861-4-4-4-4 1.790861-4 4 1.790861 4 4 4z" transform="translate(1.995 9.746845)"/></svg>