<?xml version="1.0" encoding="UTF-8"?>
<svg width="50px" height="50px" viewBox="0 0 50 50" version="1.1" xmlns="http://www.w3.org/2000/svg" xmlns:xlink="http://www.w3.org/1999/xlink">
    <!-- Generator: Sketch 52.2 (67145) - http://www.bohemiancoding.com/sketch -->
    <title>019-oeuil</title>
    <desc>Created with Sketch.</desc>
    <g id="019-oeuil" stroke="none" stroke-width="1" fill="none" fill-rule="evenodd">
        <g id="Group" transform="translate(4.995000, 11.746845)" fill="#000000" fill-rule="nonzero">
            <g id="028-oeuil">
                <g id="ICONSET-01">
                    <g id="028-oeuil">
                        <path d="M20.005,-1.27057592 C29.2750394,-1.27057592 37.6069272,4.0687175 41.7331148,12.362287 L42.1763362,13.2531548 L41.7331148,14.1440226 C37.6069272,22.437592 29.2750394,27.7768854 20.005,27.7768854 C10.7349606,27.7768854 2.40307282,22.437592 -1.72311478,14.1440226 L-2.1663362,13.2531548 L-1.72311478,12.362287 C2.40307282,4.0687175 10.7349606,-1.27057592 20.005,-1.27057592 Z M20.005,2.72942408 C12.6124726,2.72942408 5.92365438,6.81029841 2.32798116,13.2531548 C5.92365438,19.6960111 12.6124726,23.7768854 20.005,23.7768854 C27.3975274,23.7768854 34.0863456,19.6960111 37.6820188,13.2531548 C34.0863456,6.81029841 27.3975274,2.72942408 20.005,2.72942408 Z" id="Shape-path"></path>
                        <path d="M20,20 C14.4771525,20 10,15.5228475 10,10 C10,4.4771525 14.4771525,0 20,0 C25.5228475,0 30,4.4771525 30,10 C30,15.5228475 25.5228475,20 20,20 Z M16,13 C18.209139,13 20,11.209139 20,9 C20,6.790861 18.209139,5 16,5 C13.790861,5 12,6.790861 12,9 C12,11.209139 13.790861,13 16,13 Z" id="Combined-Shape"></path>
                    </g>
                </g>
            </g>
        </g>
    </g>
</svg>