<?xml version="1.0" encoding="UTF-8"?>
<svg width="50px" height="50px" viewBox="0 0 50 50" version="1.1" xmlns="http://www.w3.org/2000/svg" xmlns:xlink="http://www.w3.org/1999/xlink">
    <!-- Generator: Sketch 52.2 (67145) - http://www.bohemiancoding.com/sketch -->
    <title>020-photos</title>
    <desc>Created with Sketch.</desc>
    <defs>
        <polygon id="path-1" points="35.125 9 13.25 9 13.25 42.125 0 42.125 0 0 35.125 0"></polygon>
    </defs>
    <g id="020-photos" stroke="none" stroke-width="1" fill="none" fill-rule="evenodd">
        <g id="Group" transform="translate(1.995000, 1.995238)">
            <g id="042-photos-02">
                <g id="ICONSET-01">
                    <g id="042-photos-02">
                        <path d="M12.5025,8.7238625 L12.5025,42.8744917 L44.01,42.8744917 L44.01,8.7238625 L12.5025,8.7238625 Z M42.2960083,35.8066783 L14.2314953,35.8066783 L14.2314953,10.5379253 L42.2960083,10.5379253 L42.2960083,35.8066783 Z" id="Shape" fill="#000000" fill-rule="nonzero"></path>
                        <g id="Shape">
                            <mask id="mask-2" fill="white">
                                <use xlink:href="#path-1"></use>
                            </mask>
                            <g id="Mask" fill-rule="nonzero"></g>
                            <path d="M4.4772129,5.27304107 L4.4772129,39.4236702 L35.9847129,39.4236702 L35.9847129,5.27304107 L4.4772129,5.27304107 Z M34.2707212,32.3558568 L6.20620817,32.3558568 L6.20620817,7.08710387 L34.2707212,7.08710387 L34.2707212,32.3558568 Z" fill="#000000" fill-rule="nonzero" mask="url(#mask-2)" transform="translate(20.230963, 22.348356) rotate(-9.000000) translate(-20.230963, -22.348356) "></path>
                        </g>
                        <path d="M39.5075,32.845682 L39.5075,12 L16,12 L16,32.845682 L39.5075,32.845682 Z M12,36.845682 L12,8 L43.5075,8 L43.5075,36.845682 L12,36.845682 Z" id="Path-2" fill="#0C0C0C" fill-rule="nonzero"></path>
                        <path d="M8.27016519,30.3291874 L8.27016519,34.3291874 L4.27016519,30.3291874 L8.27016519,30.3291874 Z M8.27016519,30.3291874 L8.27016519,9.48350538 L31.7776652,9.48350538 L31.7776652,12.5829791 L35.7776652,12.5829791 L35.7776652,5.48350538 L4.27016519,5.48350538 L4.27016519,34.3291874 L11.591556,34.3291874 L11.591556,30.3291874 L8.27016519,30.3291874 Z M4.27016519,9.48350538 L8.27016519,5.48350538 L8.27016519,9.48350538 L4.27016519,9.48350538 Z M31.7776652,5.48350538 L35.7776652,9.48350538 L31.7776652,9.48350538 L31.7776652,5.48350538 Z M31.7776652,5.48350538 L35.7776652,9.48350538 L31.7776652,9.48350538 L31.7776652,5.48350538 Z M31.7776652,9.48350538 L31.7776652,12.5829791 L35.7776652,12.5829791 L31.6322529,10.3081797 L4.27016519,5.48350538 L8.27016519,30.3291874 L11.591556,34.3291874 L11.591556,30.3291874 L8.27016519,30.3291874 L8.27016519,9.48350538 L31.7776652,9.48350538 Z M8.27016519,30.3291874 L8.27016519,34.3291874 L4.27016519,30.3291874 L8.27016519,30.3291874 Z" id="Path-2-Copy" fill="#0C0C0C" fill-rule="nonzero" transform="translate(20.023915, 19.906346) rotate(-10.000000) translate(-20.023915, -19.906346) "></path>
                    </g>
                </g>
            </g>
        </g>
    </g>
</svg>