<svg height="50" viewBox="0 0 50 50" width="50" xmlns="http://www.w3.org/2000/svg" xmlns:xlink="http://www.w3.org/1999/xlink"><mask id="a" fill="#fff"><path d="m35.125 9h-21.875v33.125h-13.25v-42.125h35.125z" fill="#fff" fill-rule="evenodd"/></mask><g fill="none" transform="translate(1.995 1.995238)"><path d="m12.5025 8.7238625v34.1506292h31.5075v-34.1506292zm29.7935083 27.0828158h-28.064513v-25.268753h28.064513z" fill="#000"/><path d="m4.4772129 5.27304107v34.15062913h31.5075v-34.15062913zm29.7935083 27.08281573h-28.06451303v-25.26875293h28.06451303z" fill="#000" mask="url(#a)" transform="matrix(.98768834 -.15643447 .15643447 .98768834 -3.246976 3.439965)"/><g fill="#0c0c0c"><path d="m39.5075 32.845682v-20.845682h-23.5075v20.845682zm-27.5075 4v-28.845682h31.5075v28.845682z"/><path d="m8.27016519 30.3291874v4l-4-4zm0 0v-20.84568202h23.50750001v3.09947372h4v-7.09947372h-31.50750001v28.84568202h7.32139081v-4zm-4-20.84568202 4-4v4zm27.50750001-4 4 4h-4zm0 0 4 4h-4zm0 4v3.09947372h4l-4.1454123-2.2747994-27.36208771-4.82467432 4 24.84568202 3.32139081 4v-4h-3.32139081v-20.84568202zm-23.50750001 20.84568202v4l-4-4z" transform="matrix(.98480775 -.17364818 .17364818 .98480775 -3.152492 3.779538)"/></g></g></svg>