<?xml version="1.0" encoding="UTF-8"?>
<svg width="50px" height="50px" viewBox="0 0 50 50" version="1.1" xmlns="http://www.w3.org/2000/svg" xmlns:xlink="http://www.w3.org/1999/xlink">
    <!-- Generator: Sketch 52.2 (67145) - http://www.bohemiancoding.com/sketch -->
    <title>021-info</title>
    <desc>Created with Sketch.</desc>
    <g id="021-info" stroke="none" stroke-width="1" fill="none" fill-rule="evenodd">
        <g id="Group" transform="translate(19.000000, 12.000000)" fill="#000000" fill-rule="nonzero">
            <g id="044-info">
                <g id="ICONSET-01">
                    <g id="044-info">
                        <path d="M9.87122674,21.8228417 C9.35495669,21.9935122 8.81799802,22.0924861 8.27518372,22.1170294 C7.86923682,22.1170294 7.70422963,22.031715 7.6531212,21.9949415 C7.39465861,21.8140161 6.92300088,21.4757003 7.73489468,19.8282493 L9.27106783,16.7392787 C10.182258,14.9079604 10.3166001,13.1369506 9.64780992,11.7498557 C9.10021968,10.6172332 8.0517669,9.83763585 6.69812382,9.5596285 C6.21405291,9.46157088 5.72142168,9.41278461 5.2276615,9.4140056 C3.46913965,9.4291198 1.76695118,10.0405726 0.395725214,11.1497129 C0.120557746,11.3939324 0.055170991,11.8000383 0.239605424,12.1193461 C0.424039857,12.4386539 0.806838813,12.5820777 1.15359011,12.4617899 C1.66925169,12.2906961 2.20578652,12.1917097 2.74817289,12.1676022 C3.15265955,12.1676022 3.31474626,12.2529167 3.36585468,12.2882192 C3.62431727,12.4706155 4.10619668,12.8133442 3.28700168,14.4563824 L1.75228877,17.5482948 C0.839638369,19.382555 0.706756471,21.1535648 1.37554668,22.5377178 C1.92167668,23.6718113 2.96866922,24.4499377 4.32523278,24.727945 C4.80604254,24.824898 5.29512567,24.8741647 5.78547342,24.8750389 C7.5457177,24.8590292 9.24914959,24.2454263 10.6203302,23.1334478 C10.8957093,22.8897701 10.9617889,22.4840418 10.7781389,22.1645041 C10.5944888,21.8449664 10.2122892,21.7006694 9.86538578,21.8198999 L9.87122674,21.8228417 Z" id="Shape"></path>
                        <path d="M12.4222671,3.99506863 C12.4222671,6.13080732 10.7035005,7.86216562 8.58329449,7.86216562 C6.46308844,7.86216562 4.74432184,6.13080732 4.74432184,3.99506863 C4.74432184,1.85932993 6.46308844,0.127971639 8.58329449,0.127971639 C10.7035005,0.127971639 12.4222671,1.85932993 12.4222671,3.99506863 Z" id="Shape"></path>
                    </g>
                </g>
            </g>
        </g>
        <path d="M43.8565647,25 C43.8565647,19.9989281 41.8698966,15.2026871 38.3336047,11.6663952 C34.7973129,8.13010341 30.0010719,6.14343533 25,6.14343533 C14.5858069,6.14343533 6.14343533,14.5858069 6.14343533,25 C6.14343533,35.414193 14.5858069,43.8565647 25,43.8565647 C35.414193,43.8565647 43.8565647,35.414193 43.8565647,25 Z M47.8565647,25 C47.8565647,37.623332 37.623332,47.8565647 25,47.8565647 C12.3766679,47.8565647 2.14343533,37.623332 2.14343533,25 C2.14343533,12.3766679 12.3766679,2.14343533 25,2.14343533 C31.0619379,2.14343533 36.8755946,4.55153078 41.1620319,8.83796813 C45.4484692,13.1244055 47.8565647,18.9380622 47.8565647,25 Z" id="Shape-path" fill="#000000" fill-rule="nonzero"></path>
    </g>
</svg>