<svg viewBox="0 0 50 50" xmlns="http://www.w3.org/2000/svg"><path d="m26.8712267 31.8228417-.0058409-.0029418c.3469034-.1192305.729103.0250665.9127531.3446042.18365.3195377.1175704.725266-.1578087.9689437-1.3711806 1.1119785-3.0746125 1.7255814-4.8348568 1.7415911-.4903477-.0008742-.9794309-.0501409-1.4602406-.1470939-1.3565636-.2780073-2.4035561-1.0561337-2.9496861-2.1902272-.6687902-1.384153-.5359083-3.1551628.3767421-4.989423l1.5347129-3.0919124c.819195-1.6430382.3373156-1.9857669.078853-2.1681632-.0511084-.0353025-.2131952-.120617-.6176818-.120617-.5423864.0241075-1.0789212.1230939-1.5945828.2941877-.3467513.1202878-.7295502-.023136-.9139847-.3424438-.1844344-.3193078-.1190477-.7254137.1561198-.9696332 1.371226-1.1091403 3.0734144-1.7205931 4.8319363-1.7357073.4937602-.001221.9863914.0475653 1.4704623.1456229 1.3536431.2780074 2.4020959 1.0576047 2.9496861 2.1902272.6687902 1.3870949.5344481 3.1581047-.3767421 4.989423l-1.5361731 3.0889706c-.8118938 1.647451-.3402361 1.9857668-.0817735 2.1666922.0511084.0367735.2161156.1220879.6220625.1220879.5428143-.0245433 1.079773-.1235172 1.596043-.2941877zm2.5510404-17.8277731c0 2.1357387-1.7187666 3.867097-3.8389726 3.867097-2.1202061 0-3.8389727-1.7313583-3.8389727-3.867097s1.7187666-3.867097 3.8389727-3.867097c2.120206 0 3.8389726 1.7313583 3.8389726 3.867097zm12.4342976 9.0049314c0-5.0010719-1.9866681-9.7973129-5.52296-13.33360475-3.5362918-3.53629184-8.3325328-5.52295992-13.3336047-5.52295992-10.4141931 0-18.85656467 8.44237157-18.85656467 18.85656467 0 10.414193 8.44237157 18.8565647 18.85656467 18.8565647 10.414193 0 18.8565647-8.4423717 18.8565647-18.8565647zm4 0c0 12.623332-10.2332327 22.8565647-22.8565647 22.8565647-12.6233321 0-22.85656467-10.2332327-22.85656467-22.8565647 0-12.6233321 10.23323257-22.85656467 22.85656467-22.85656467 6.0619379 0 11.8755946 2.40809545 16.1620319 6.6945328 4.2864373 4.28643737 6.6945328 10.10009407 6.6945328 16.16203187z" transform="translate(2 2)"/></svg>