<svg viewBox="0 0 50 50" xmlns="http://www.w3.org/2000/svg"><path d="m36.005 2.00000118v-2.00000118l5.9914286 4.18430677-5.9914286 4.31650956v-2.50081064c-.2963904.00096507-.8957917.12175931-1.4681874.46518034-.9551793.57308029-1.5296697 1.60711395-1.5296697 3.53624257v9.3266249l-.1025883.307838c-.1972413.5918648-.5844452 1.3663955-1.2359985 2.1483339-1.1369295 1.3644453-2.7054891 2.2200603-4.6621275 2.2200603s-3.5251981-.855615-4.6621275-2.2200603c-.6515534-.7819384-1.0387573-1.5564691-1.2359986-2.1483339l-.1025882-.307838v-9.49211112l.0271994-.16323563c.0003718-.00223124.0059331-.04395123.0130438-.11863284.0578795-.60789543.0151831-1.31206203-.1877658-1.92083635-.357675-1.0728974-1.1048175-1.63323756-2.853906-1.63323756s-2.4962309.56034016-2.853906 1.63323756c-.2029489.60877432-.2456453 1.31294092-.1877657 1.92083635.0071106.07468161.0126719.1164016.0130437.11863284l.0271994.16323563v9.49211112l-.1025882.307838c-.1972413.5918648-.5844452 1.3663955-1.2359985 2.1483339-1.1369295 1.3644453-2.7054891 2.2200603-4.66212754 2.2200603-1.9566384 0-3.52519805-.855615-4.66212752-2.2200603-.65155332-.7819384-1.03875721-1.5564691-1.23599853-2.1483339l-.10258824-.307838v-9.49211112l.02719946-.16323563c.00037179-.00223124.00593306-.04395123.01304372-.11863284.05787955-.60789543.01518316-1.31206203-.18776576-1.92083635-.35767504-1.0728974-1.10481748-1.63323756-2.85390599-1.63323756v-4c3.50216149 0 5.75582262 1.69019556 6.64859401 4.36819101.40667162 1.21986966.48124923 2.44983462.37506906 3.56502023-.00722829.07591706-.01476059.14450656-.0222345.20531746v8.4662772c.089223.1738292.22747258.3978617.4115918.6188258.42579375.5110012.92013589.780654 1.58912249.780654s1.16332874-.2696528 1.58912244-.780654c.1841193-.2209641.3223688-.4449966.4115918-.6188258v-8.4662772c-.0074739-.0608109-.0150062-.1294004-.0222345-.20531746-.1061801-1.11518561-.0316025-2.34515057.3750691-3.56502023.8927714-2.67799545 3.1464325-4.36819101 6.648594-4.36819101s5.7558226 1.69019556 6.648594 4.36819101c.4066716 1.21986966.4812493 2.44983462.3750691 3.56502023-.0072283.07591706-.0147606.14450656-.0222345.20531746v8.4662772c.089223.1738292.2274726.3978617.4115918.6188258.4257937.5110012.9201359.780654 1.5891225.780654s1.1633287-.2696528 1.5891225-.780654c.1841192-.2209641.3223688-.4449966.4115918-.6188258v-8.6033773c0-3.32212143 1.3010452-5.66389135 3.4717588-6.96625749 1.2992109-.77948947 2.5712657-1.03453568 3.5260983-1.03516992z" transform="translate(3.995 12.997143)"/></svg>