<svg viewBox="0 0 50 50" xmlns="http://www.w3.org/2000/svg"><path d="m20.5107647 10.3468159-.0222406-.0049424c5.6491094 0 10.2257283 4.3863383 10.2257283 9.7957436 0 6.4250588-4.4481177 8.0634488-4.4481177 11.8023388 0 .9143353-.6869871 1.7668912-1.7298235 2.3970412.2116595.1382885.3482616.3659587.3706764.6177941 0 .2767717-.2075788.5337741-.5708417.75618.3830323.2298194.6103806.5065912.6103806.7808917 0 .2743006-.2199347.5411877-.5955536.7685359.3682053.2248771.5831977.4843506.5831977.7635936 0 .3459647-.3336088.6746311-.8846812.9217488.1907648.1492192.3078592.3735003.321253.6153229 0 .657333-1.0230671 1.2158188-2.4711765 1.4357535-.2782343.4883621-.7970868.7899086-1.3591471.7899086s-1.0809128-.3015465-1.359147-.7899086c-1.4332824-.2224058-2.4514071-.7784205-2.4514071-1.4332823.0153437-.2450611.1350049-.4717876.3286665-.6227365-.5411877-.2545312-.8649118-.5708417-.8649118-.9118641 0-.2767718.2174635-.54613.5955535-.7710071-.3682053-.224877-.5831976-.4868217-.5831976-.7635935 0-.2767717.21005-.5337741.5708418-.75618-.3830324-.2298194-.6079095-.4967065-.6079095-.7808917.0199962-.2410769.1469443-.4605156.3459648-.5980248-1.0626059-.63015-1.7668912-1.4901194-1.7668912-2.4143394 0-3.73889-4.4629447-5.37728-4.4629447-11.8023388 0-5.4094053 4.57909-9.7957435 10.2257282-9.7957435zm2.6565441 19.0875636c.0615247-2.0577153 1.0501633-2.7637713 1.9157525-4.0889312.9759094-1.4760445 1.8966586-2.8711798 1.8966586-5.3662417 0-3.4725312-2.9065126-6.2999764-6.4813111-6.2999764-3.5747984 0-6.4813111 2.8274452-6.4813111 6.2999764 0 2.4950619.931357 3.8901972 1.9093879 5.364055.8677107 1.3251599 1.866957 2.0334026 1.9284818 4.0911179.2991374.3455038 1.3726377.907494 2.6561707.907494 1.2835329 0 2.3570333-.5619902 2.6561707-.907494zm-2.6565441-22.51508538c-.7413529 0-1.3369065-.80066118-1.3369065-1.77677588v-3.15075c0-.97364353.6029671-1.76936236 1.3369065-1.76936236s1.3369065.79571883 1.3369065 1.76936236v3.15816352c0 .97364353-.5955536 1.76936236-1.3369065 1.76936236zm-6.8575147 1.83114176.0024712-.0098847c-.6375636.37067647-1.5494277-.01976942-2.043663-.86491177l-1.5766106-2.71829412c-.48435054-.84267117-.35832054-1.83114176.2767718-2.20181823.6350924-.37067647 1.5494277.02224059 2.043663.86491176l1.5716682 2.73065c.4868218.8402.3632629 1.83114177-.2743006 2.19934706zm-5.8814 2.97529652c.84267118.4868217 1.21829 1.4036282.85255588 2.0411917s-1.35667588.7685359-2.19934706.2743006l-2.71829411-1.5741394c-.84514236-.4868218-1.23558824-1.4060994-.86491177-2.0436629.37067647-.63756358 1.35914706-.75865122 2.21170294-.2743006zm29.5429147 17.0585311c.8451424.4868218 1.2331171 1.4036283.8649118 2.0411918s-1.3591471.7685359-2.2018183.2743006l-2.7182941-1.5741394c-.8426712-.4868218-1.2281747-1.4060994-.8624406-2.043663.3657341-.6375635 1.3566759-.7685359 2.1993471-.2743006zm-30.51655823-8.1598247c0 .7364106-.79571882 1.3393777-1.76936235 1.3393777h-3.15322118c-.97117235 0-1.76689117-.6054383-1.76689117-1.3393777s.79571882-1.3369064 1.76689117-1.3369064h3.15322118c.97364353 0 1.76936235.5955535 1.76936235 1.3369064zm32.34770003-1.3369064c.9711723 0 1.7668911.602967 1.7668911 1.3369064s-.7957188 1.3369065-1.7668911 1.3369065h-3.1532212c-.9736435 0-1.7693624-.6004959-1.7693624-1.3369065s.7957189-1.3369064 1.7693624-1.3369064zm-32.72084768 7.9201205c.85008471-.4868217 1.82619942-.3607917 2.19934706.2743006.37314765.6350924-.01976941 1.5469565-.86244059 2.0411918l-2.71829411 1.5766106c-.84267118.4843506-1.83114177.3632629-2.20181824-.2743006s.02224059-1.5494277.86491177-2.0436629zm28.17141178-13.163957c-.8500847.4843506-1.8261994.3632629-2.1993471-.2743006-.3731476-.6375635.0197694-1.5494277.8624406-2.0436629l2.7182941-1.5741395c.8426712-.48682172 1.8311418-.36079172 2.2018183.2743006.3706764.6350924-.0222406 1.5469565-.8649118 2.0411918zm-3.8846894-11.07828414-.0024712-.00247117c.6375635.36820529.7710071 1.35914706.2767718 2.20181823l-1.5766106 2.71829412c-.4868218.84514235-1.4060994 1.23311706-2.043663.86491177-.6375635-.3682053-.7685358-1.35667589-.2743006-2.19934706l1.5766106-2.71829412c.4868218-.84267118 1.4060994-1.23064588 2.043663-.86491177z" transform="translate(4.489235 3.995)"/></svg>