<?xml version="1.0" encoding="UTF-8"?>
<svg width="50px" height="50px" viewBox="0 0 50 50" version="1.1" xmlns="http://www.w3.org/2000/svg" xmlns:xlink="http://www.w3.org/1999/xlink">
    <!-- Generator: Sketch 52.4 (67378) - http://www.bohemiancoding.com/sketch -->
    <title>024-loupe</title>
    <desc>Created with Sketch.</desc>
    <g id="024-loupe" stroke="none" stroke-width="1" fill="none" fill-rule="evenodd">
        <path d="M18.4763768,34.3520504 L7.45463898,45.3737881 L4.62621186,42.545361 L15.6479496,31.5236232 C13.3634073,28.6290379 12,24.9737394 12,21 C12,11.6111593 19.6111593,4 29,4 C38.3888407,4 46,11.6111593 46,21 C46,30.3888407 38.3888407,38 29,38 C25.0262606,38 21.3709621,36.6365927 18.4763768,34.3520504 Z M29,34 C36.1797017,34 42,28.1797017 42,21 C42,13.8202983 36.1797017,8 29,8 C21.8202983,8 16,13.8202983 16,21 C16,28.1797017 21.8202983,34 29,34 Z" id="Combined-Shape" fill="#000000" fill-rule="nonzero"></path>
    </g>
</svg>