<svg viewBox="0 0 50 50" xmlns="http://www.w3.org/2000/svg"><path d="m29.4089234 26.896137 7.7937643 9.9993623c.2083027.2672514.3452908.5830442.3981089.9177434.4148051 2.6285491-.2734511 4.8180664-2.1181801 6.2617673-1.7978013 1.4069749-3.9994539 1.6550485-6.3496582.8060065-.4246937-.1534261-.784969-.4460557-1.0222045-.8302739l-4.9097595-7.9516757c-2.3735974 3.6050285-3.7127605 5.5766524-4.1645517 6.1188019-1.4402189 1.7282626-3.7105321 2.4192666-5.823818.9094959-2.1209435-1.5152415-2.4356156-4.3436074-1.0900915-6.2273411.4342045-.6078864 2.4067835-3.2240415 5.9720915-7.9216431.1287503-.1696398.2793151-.3129632.4448023-.429026l-1.2429886-2.0131012c-2.0856754.1616681-3.8099932-.354584-5.0533925-1.6529413-1.0867159-1.1347486-3.59733592-4.6705384-7.71818504-10.8342227-.61391381-.9182503-.36720035-2.1603147.55104995-2.7742285.91825029-.6139139 2.16031471-.3672004 2.77422853.5510499 3.94355566 5.8985008 6.43293566 9.4043777 7.28181496 10.2907773.4215676.4402009 1.2778267.6021958 2.784631.2978908.8207021-.1657441 1.6577827.197267 2.097661.9096786l11.0999361 17.9770705c.7884738.1699966 1.3789746.0339264 1.9032012-.3763379.5265366-.4120722.7682721-1.0141863.6902953-2.006864l-12.9101223-16.5636253c-.3455175-.4432973-.4885621-1.0115197-.3941182-1.5655731.1879312-1.1024943.2524678-1.9840087.2047309-2.6246968-.032615-.4377322-.1039366-.6566722-.1263685-.6831219-.7321746-.863317-3.06023-4.1026425-7.1199402-9.89611673-.6338773-.90458466-.4144256-2.15175446.4901591-2.78563172.9045846-.63387726 2.1517544-.41442555 2.7856317.4901591 3.9406153 5.62351795 6.2841309 8.88435525 6.894773 9.60437155.3929182.4632953.6721378 1.0116632.8502607 1.6504465.4746586-1.9459119 1.432012-3.9344953 2.7917883-5.7389794 3.7824262-5.0194491 9.6619121-7.286415 13.390524-4.47670441s3.1700704 9.08629571-.6123559 14.10574481c-2.0111391 2.6688718-4.653183 4.6045288-7.2956719 5.3509999-.9546586.2696794-2.5827805.5300644-2.338966.4726644-.0024436.0005753.04661-.0295429-.102968.1263839-.2316731.2415064-.5093729.4122567-.8061121.5116902zm-8.6702612 5.2150225c-3.1805768 4.1923973-4.9830501 6.5844136-5.3611953 7.1138169-.1145565.1603792-.079404.4763408.1603968.6476589.1298235.0927483.1820679.076847.4256937-.2155041.3413372-.4096045 1.9220072-2.7489963 4.5520889-6.7548129.1191971-.1815464.2628938-.3373353.4238661-.4658689zm-11.89434278-21.6142318c-.61962357-.91440711-.38065428-2.1579847.53375285-2.77760828.91440713-.61962357 2.15798473-.38065428 2.77760833.53375285l6.4372558 9.49975583c.6196236.9144072.3806543 2.1579848-.5337528 2.7776083-.9144071.6196236-2.1579847.3806543-2.7776083-.5337528zm20.55704468 11.86758c-.0179316.0042216 1.4904768-.2370177 2.1682081-.4284686 1.7541792-.4955343 3.6790629-1.9057738 5.1885272-3.9089006 2.6216578-3.4790573 2.9639165-7.3251741 1.3996378-8.50394267-1.5642787-1.17876852-5.1670641.21036515-7.7887219 3.68942247-1.5134402 2.008403-2.3356811 4.2508145-2.3274224 6.0641625.4060944 1.4402201.4910915 2.6447956.1080457 3.6304047.3842062-.2600055.7865174-.4331563 1.2517255-.5426778z"/></svg>