<svg viewBox="0 0 50 50" xmlns="http://www.w3.org/2000/svg"><path d="m44.9493073 15.3222073c.5988617.6200406.9354769 1.4497393.9354769 2.315265 0 .9106501-.3726291 1.78164-.9981986 2.378193l-8.1579824 8.1573153c-.0765206.0732667-.1511185.1484536-.2237249.225482l1.8804087 11.2801759c.2889403.8398895.0984365 1.6359898-.3136699 2.4517161-.4337942.8107611-1.1778752 1.410912-2.0620993 1.6632198-.8842243.2523079-1.8329726.1351951-2.5557663-.2841373l-6.076939-3.1764405-4.1651118-2.2241748c-.0783126-.0437887-.1581153-.0846955-.2392455-.1226553l-10.5632631 5.5396468c-.8094014.4047007-1.6294938.5894436-2.50500928.2473187-1.66615112-.4837728-2.61255982-2.290893-2.28883686-3.8732163l1.10474012-6.7779752.82769702-4.6836149.03056093-.1424427c.00789485-.0312083.01522339-.0625376.02198409-.0939725l-8.51289147-8.2591196c-.53773173-.4668355-.87043989-1.126488-.92656437-1.8358375-.20756479-1.6135119.72704694-3.1657767 2.26448969-3.7308013.14486786-.0532403.29541164-.0895325.44862567-.1081521l6.69985264-.8135876 4.62822322-.6795309c.1192274-.0250909.2349347-.05452.3519029-.0887623.097081-.0284204.1027969-.0291744.2408917-.076311l5.1124675-10.70878561.0775781-.14654432c.5619893-.96281945 1.5602475-1.58899959 2.6716904-1.67587857l.1558601-.00608234h.2138394c1.2844155-.06283663 2.473974.67844683 2.9839284 1.85788637l3.0112867 6.0204841 2.05449 4.24862487c.0640605.128354.1759615.3193024.2928785.5110379l11.7523104 1.6958696c.7054291.0545359 1.3619669.3833807 1.8281197.9157872zm-3.0595095 2.5741751c.0614465.0795168.1287742.154266.2014322.2236396-.0251746-.0240366-.0482619-.0498402-.0691413-.0771286-.047426-.0450659-.0916905-.0939867-.1322909-.146511zm-.7986519.2585317-11.8152285-1.7049488c-1.3317937-.1921791-1.8462805-1.2959208-1.6896399-2.2931111-.0355192-.0663416-.0692615-.1312789-.1002874-.1934776l-2.0536932-4.24703032-2.4680498-4.93406318-5.2335656 10.9624426c-.5727503 1.1997067-1.772046 1.3734777-2.6766297.9384271-.0379196.008113-.0760818.0160061-.1145172.0236793l-.1010159.0174871-4.7328688.6942713-5.22150543.6345513 8.16330993 7.9199592c.3639856.353135.5802266.8313583.6049632 1.3378936.0310095.6349856-.0287088 1.2710118-.1772388 1.8888823l-.8116498 4.5917966-.9074046 5.5603288 10.1249069-5.3101405c.4376356-.2295237.9447507-.2888993 1.4235704-.1666786.649334.1657451 1.2743363.4152923 1.8251323.7237047l4.1154871 2.1973387 5.0441519 2.6381597-1.8794418-11.274375c-.0881403-.5287356.039652-1.0707231.3547121-1.5043903.3574969-.4920795.7583043-.9511862 1.1665806-1.3414483zm-30.1463007 21.7585318c.135578.027157.2678704.0682798.3947763.1226474-.06868-.0288289-.1388253-.05246-.2056197-.0696942-.0568328-.0212203-.119795-.039052-.1891566-.0529532zm.5016177.1721914c-.0346902-.0173451-.0686753-.0330259-.1019611-.0471529.0311846.0130594.0668145.0295796.1019611.0471529zm-7.78845819-23.2059599.10434555.0908657c-.03294674-.0319679-.06775758-.0623144-.10434555-.0908657zm.49416526.9883305c-.0018463-.0964491-.01066826-.1926382-.02639681-.2878141.00481649.0291453.00699856.0582057.00670149.0869145.01173994.065866.01839581.1330141.01969532.2008996zm18.66028423-14.58005174v.11693872l.109128.06369707-.010437-.13351982zm.1541461.75655305c.0220853.00522095.0444284.00963007.0669885.0132019.1693483-.03217982.3179253-.13611854.4058921-.28682618l-.5178987-.30229298zm.0017139.02192571-.0017139-.02192571c-.0530578-.01254282-.104628-.02977112-.1541461-.05133169v.07933974h.2750654l.088347-.00361427c-.0481133-.00000542-.095659-.00381097-.1422778-.01119188-.0214519.00407632-.0432371.00700119-.0652746.00872381z" transform="translate(1.995 2.995238)"/></svg>