<svg viewBox="0 0 50 50" xmlns="http://www.w3.org/2000/svg"><path d="m40.9222411 14.3984274-13.3606804-1.9279589c.9627292.1375327.4125982 0-.2750655-1.377828l-2.0654916-4.27101669-3.0307215-6.05894226c-.1743592-.44873804-.6229494-.72948837-1.1027625-.69016429h-.2750654c-.4577171.03577871-.8688221.2936537-1.1002619.69016429l-5.7863774 12.12038515c.4125982-.9627292 0-.4125982-1.377828-.1375328l-4.68361488.6876637-6.74910654.8201953c-.6760546.2484563-1.08016553.9422676-.96272917 1.6528934.00412434.2154527.10517792.4175599.27506548.550131l9.22719642 8.9521309c.02263757.4635526-.02371254.9278964-.13753273 1.377828l-.82769703 4.6836149-1.1002619 6.7516071c-.14003334.6876637.27506547 1.5153607.96272916 1.6528935.27506548.1375327.68766369 0 .96272917-.1375328l11.29518872-5.9239101c.481197.1228275.9443626.3077575 1.3778279.550131l4.1309834 2.205525 6.0614428 3.1682541c.3272557.1889388.7171495.237067 1.0805267.1333795.3633773-.1036874.6691618-.3503231.8474323-.6835104.1400333-.2775661.277566-.6901643.1400333-.9652298l-2.0654917-12.3904494c.2873784-.3955644.6095726-.7646233.9627292-1.1027625l8.1269345-8.1269345c.2633952-.251489.4124122-.599804.4124122-.9639795 0-.3641754-.149017-.7124904-.4124122-.9639794-.1318621-.1707517-.3344123-.2720269-.5501309-.2750655z" transform="translate(3.995 4.995238)"/></svg>