<?xml version="1.0" encoding="UTF-8"?>
<svg width="50px" height="50px" viewBox="0 0 50 50" version="1.1" xmlns="http://www.w3.org/2000/svg" xmlns:xlink="http://www.w3.org/1999/xlink">
    <!-- Generator: Sketch 52.2 (67145) - http://www.bohemiancoding.com/sketch -->
    <title>032-coeur-contour</title>
    <desc>Created with Sketch.</desc>
    <g id="032-coeur-contour" stroke="none" stroke-width="1" fill="none" fill-rule="evenodd">
        <g id="Group" transform="translate(3.995000, 6.480799)" fill="#000000" fill-rule="nonzero">
            <g id="133-coeur-contour">
                <g id="ICONSET-01">
                    <g id="133-coeur-contour">
                        <path d="M20.9887182,34.9016935 L21.00853,34.9017288 C21.3241634,34.9038552 21.6274211,34.7791014 21.8528634,34.5528095 L36.3699284,20.0357444 L36.4593626,19.9516391 C39.2453471,17.4883351 40.4590739,13.6974226 39.6218352,10.0740806 C38.7845965,6.45073847 36.0307885,3.57659674 32.4465442,2.58524932 C28.8622999,1.59390189 25.0229734,2.64448291 22.4428382,5.3226314 L20.9978232,6.82253921 L19.5576892,5.31794422 C16.9805758,2.62547816 13.1339441,1.56414095 9.54078742,2.55414684 C5.94763071,3.54415274 3.1874043,6.42584711 2.35296209,10.0582833 C1.51851989,13.6907196 2.74442934,17.4881079 5.54531724,19.9469519 L5.64043484,20.0361078 L20.1527763,34.5559134 C20.3740689,34.7781784 20.6750763,34.9026875 20.9887182,34.9016935 Z M17.3208888,37.3808733 L2.85563659,22.9081864 C-1.01437093,19.4779959 -2.70411445,14.206343 -1.54549721,9.16273039 C-0.381826593,4.09711977 3.46744461,0.0784555424 8.478278,-1.30215627 C12.8569648,-2.50859564 17.5055726,-1.53059591 21.0068936,1.24081629 C24.508502,-1.51235237 29.1464059,-2.47769777 33.5128492,-1.27000602 C38.5112538,0.112476615 42.3515741,4.12060835 43.5191446,9.17353679 C44.6819301,14.2057573 43.0079387,19.4697515 39.1565775,22.9059496 L24.6839639,37.3785581 C23.7063564,38.3598724 22.3763682,38.9083785 20.9914903,38.9016953 C19.6131221,38.9034286 18.2908681,38.3551202 17.3208888,37.3808733 Z" id="Shape"></path>
                    </g>
                </g>
            </g>
        </g>
    </g>
</svg>