<svg viewBox="0 0 50 50" xmlns="http://www.w3.org/2000/svg"><path d="m22.9887182 36.9016935.0198118.0000353c.3156334.0021264.6188911-.1226274.8443334-.3489193l14.517065-14.5170651.0894342-.0841053c2.7859845-2.463304 3.9997113-6.2542165 3.1624726-9.8775585-.8372387-3.62334213-3.5910467-6.49748386-7.175291-7.48883128-3.5842443-.99134743-7.4235708.05923359-10.003706 2.73738208l-1.445015 1.49990781-1.440134-1.50459499c-2.5771134-2.69246606-6.4237451-3.75380327-10.0169018-2.76379738-3.59315669.9900059-6.3533831 3.87170027-7.18782531 7.50413646-.8344422 3.6324363.39146725 7.4298246 3.19235515 9.8886686l.0951176.0891559 14.51234146 14.5198056c.2212926.222265.5223.3467741.8359419.3457801zm-3.6678294 2.4791798-14.46525221-14.4726869c-3.87000752-3.4301905-5.55975104-8.7018434-4.4011338-13.745456 1.16367062-5.06561063 5.01294182-9.08427486 10.02377521-10.46488667 4.3786868-1.20643937 9.0272946-.22843964 12.5286156 2.54297256 3.5016084-2.75316866 8.1395123-3.71851406 12.5059556-2.51082231 4.9984046 1.38248264 8.8387249 5.39061437 10.0062954 10.44354282 1.1627855 5.0322205-.5112059 10.2962147-4.3625671 13.7324128l-14.4726136 14.4726085c-.9776075.9813143-2.3075957 1.5298204-3.6924736 1.5231372-1.3783682.0017333-2.7006222-.5465751-3.6706015-1.520822z" transform="translate(1.995 4.480799)"/></svg>