<svg viewBox="0 0 50 50" xmlns="http://www.w3.org/2000/svg"><path d="m22.370325 9.93986607c.0050569-5.23607929 4.1529456-9.52917958 9.3857527-9.71433423 5.2328068-.18515465 9.6737517 3.80404328 10.0488735 9.02667054h.0350083s2.4505834 18.50440472-13.4156934 27.83412562c-1.1852822-1.0002381-3.1932601-3.6508691-3.1932601-3.6508691 2.3755654-6.4765416 7.6943315-9.3172178 2.0004761-15.0660863-3.0072383-1.7362297-4.8601685-4.944544-4.8611571-8.41700355zm-17.47415952 9.64729643c5.69135472 5.751369.37258869 8.5895446-2.00047619 15.0660863 0 0 2.00047619 2.6456298 3.19576071 3.6508691 15.8612756-9.3322215 13.4131929-27.8341256 13.4131929-27.8341256h-.0350084c-.3301966-4.62101222-3.8735555-8.36793173-8.4689425-8.95547046-4.59538694-.58753872-8.96747232 2.14735938-10.44967231 6.53664935-1.48219999 4.38929001.33683132 9.21483901 4.34764638 11.53349071z" transform="translate(3.995 5.745417)"/></svg>