<?xml version="1.0" encoding="UTF-8"?>
<svg width="50px" height="50px" viewBox="0 0 50 50" version="1.1" xmlns="http://www.w3.org/2000/svg" xmlns:xlink="http://www.w3.org/1999/xlink">
    <!-- Generator: Sketch 52.2 (67145) - http://www.bohemiancoding.com/sketch -->
    <title>038-pin-contour</title>
    <desc>Created with Sketch.</desc>
    <g id="038-pin-contour" stroke="none" stroke-width="1" fill="none" fill-rule="evenodd">
        <g id="Group" transform="translate(10.496548, 3.995000)" fill="#000000" fill-rule="nonzero">
            <g id="050-pin">
                <g id="ICONSET-01">
                    <g id="050-pin">
                        <path d="M21.6326383,29.5140016 C25.2766549,23.4348344 26.5397078,20.5163507 26.8546664,16.1683889 C27.3992622,8.70208729 22.5476424,2.74963051 15.8782309,2.16231756 C11.7863249,1.801675 8.29084489,3.17760282 5.75116007,5.74420163 C3.20627461,8.33807678 1.84902001,11.7008836 2.13303903,15.9298289 C2.43940614,20.4923719 3.9912586,24.1715793 7.34094312,29.6021285 C9.75558255,33.5157501 12.1277105,36.6926074 14.6317665,39.2528766 C16.8272881,37.0112424 19.053848,33.8260296 21.6326383,29.5140016 Z M14.7385083,39.904975 L14.4884488,39.904975 L14.4884488,41.904975 L14.7385083,41.6353108 L14.7385083,39.904975 Z M14.7385083,43.904975 L14.4884488,43.904975 C13.9840979,43.904975 13.4983679,43.7144251 13.1285484,43.3714916 C9.86902981,40.348941 6.91331684,36.5268657 3.93661899,31.7022659 C0.273314856,25.7632729 -1.49759569,21.5647119 -1.8579719,16.1978433 C-2.22146166,10.7856062 -0.420266141,6.32286764 2.90187431,2.93680102 C6.26193711,-0.458903717 10.915278,-2.29060095 16.2292639,-1.82224965 C25.1143375,-1.03982397 31.5449851,6.84994331 30.8441405,16.458381 C30.4707883,21.6124638 29.011765,24.983768 25.0645218,31.568794 C21.8557456,36.9342313 19.1390418,40.6912814 16.1801094,43.29659 C15.830437,43.6642123 15.3341766,43.904975 14.7385083,43.904975 Z" id="Shape"></path>
                        <path d="M5.04392667,15.092879 L5.17028333,13.730951 C5.59995697,9.09973805 9.44837395,5.52074811 14.2306748,5.34390261 C19.0792541,5.16460619 23.2946125,8.75980791 23.815519,13.504452 C24.6759927,21.2073931 17.2726184,26.5547723 10.5108222,23.4482782 C7.40211614,22.0141003 5.26471913,18.927886 5.13247122,15.1371513 L5.04392667,15.092879 Z M9.15707601,14.1033914 C8.90631976,16.7925827 10.2021408,18.9007155 12.1835833,19.8148417 C16.115133,21.6210667 20.355213,18.5585017 19.8398277,13.9447519 C19.5485104,11.2913251 17.1421366,9.23897316 14.3784904,9.34117049 C11.6644299,9.44153419 9.51348859,11.3771525 9.17677452,13.8921381 L9.15707601,14.1033914 Z" id="Shape-path"></path>
                    </g>
                </g>
            </g>
        </g>
    </g>
</svg>