<svg viewBox="0 0 50 50" xmlns="http://www.w3.org/2000/svg"><path d="m23.6326383 31.5140016c3.6440166-6.0791672 4.9070695-8.9976509 5.2220281-13.3456127.5445958-7.4663016-4.307024-13.41875839-10.9764355-14.00607134-4.091906-.36064256-7.587386 1.01528526-10.12707083 3.58188407-2.54488546 2.59387517-3.90214006 5.95668197-3.61812104 10.18562727.30636711 4.562543 1.85821957 8.2417504 5.20790409 13.6722996 2.41463938 3.9136216 4.78676738 7.0904789 7.29082338 9.6507481 2.1955216-2.2416342 4.4220815-5.426847 7.0008718-9.738875zm-6.89413 10.3909734h-.2500595v2l.2500595-.2696642zm0 4h-.2500595c-.5043509 0-.9900809-.1905499-1.3599004-.5334834-3.2595186-3.0225506-6.21523156-6.8446259-9.19192941-11.6692257-3.66330413-5.938993-5.43421468-10.137554-5.79459089-15.5044226-.36348976-5.4122371 1.43770576-9.87497566 4.75984621-13.26104228 3.3600628-3.39570474 8.01340369-5.22740197 13.32738959-4.75905067 8.8850736.78242568 15.3157212 8.67219296 14.6148766 18.28063065-.3733522 5.1540828-1.8323755 8.525387-5.7796187 15.110413-3.2087762 5.3654373-5.92548 9.1224874-8.8844124 11.727796-.3496724.3676223-.8459328.608385-1.4416011.608385zm-9.69458163-28.812096.12635666-1.361928c.42967364-4.6312129 4.27809057-8.21020289 9.06039147-8.38704839 4.8485793-.17929642 9.0639377 3.41590529 9.5848442 8.16054939.8604737 7.7029411-6.5429006 13.0503203-13.3046968 9.9438262-3.10870606-1.4341779-5.24610307-4.5203922-5.37835098-8.3111269zm4.11314933-.9894876c-.2507562 2.6891913 1.0450648 4.7973241 3.0265073 5.7114503 3.9315497 1.806225 8.1716297-1.25634 7.6562444-5.8700898-.2913173-2.6534268-2.6976911-4.7057787-5.4613373-4.6035814-2.7140605.1003637-4.8650018 2.035982-5.2017159 4.5509676z" transform="translate(8.496548 1.995)"/></svg>