<?xml version="1.0" encoding="UTF-8"?>
<svg width="50px" height="50px" viewBox="0 0 50 50" version="1.1" xmlns="http://www.w3.org/2000/svg" xmlns:xlink="http://www.w3.org/1999/xlink">
    <!-- Generator: Sketch 52.2 (67145) - http://www.bohemiancoding.com/sketch -->
    <title>041-lit</title>
    <desc>Created with Sketch.</desc>
    <g id="041-lit" stroke="none" stroke-width="1" fill="none" fill-rule="evenodd">
        <g id="Group" transform="translate(8.995000, 19.495595)" fill="#000000" fill-rule="nonzero">
            <g id="000-lit">
                <g id="ICONSET-01">
                    <g id="000-lit">
                        <path d="M5.52500536,0.265657738 L2.90688214,0.265657738 C0.286258333,0.265657738 0.286258333,2.88378095 0.286258333,2.88378095 L0.286258333,5.50440476 L8.14562917,5.50440476 L8.14562917,2.88378095 C8.14562917,0.265657738 5.52500536,0.265657738 5.52500536,0.265657738 Z" id="Shape"></path>
                        <path d="M27.7237417,4.26565774 L14.766253,4.26565774 L14.766253,14.6050232 L27.7237417,14.6050232 L27.7237417,4.26565774 Z M29.1031179,0.265657738 C29.1031179,0.265657738 31.7237417,0.265657738 31.7237417,2.88378095 L31.7237417,15.9843994 C31.7237417,15.9843994 31.7237417,18.6050232 29.1031179,18.6050232 L10.766253,18.6050232 L10.766253,2.88378095 C10.766253,2.88378095 10.766253,0.265657738 13.3843762,0.265657738 L29.1031179,0.265657738 Z" id="Shape-path"></path>
                    </g>
                </g>
            </g>
        </g>
        <polygon id="Path-6" fill="#000000" fill-rule="nonzero" points="4 7 8 7 8 43.125 4 43.125"></polygon>
        <polygon id="Path-6-Copy" fill="#000000" fill-rule="nonzero" points="42.25 20 46.25 20 46.25 43.125 42.25 43.125"></polygon>
        <polygon id="Path-7" fill="#000000" fill-rule="nonzero" points="17.0009766 27 17.0009766 31 6 31 6 27"></polygon>
        <polygon id="Path-7-Copy" fill="#000000" fill-rule="nonzero" points="17.0009766 34.25 17.0009766 38.25 6 38.25 6 34.25"></polygon>
    </g>
</svg>