<?xml version="1.0" encoding="UTF-8"?>
<svg width="50px" height="50px" viewBox="0 0 50 50" version="1.1" xmlns="http://www.w3.org/2000/svg" xmlns:xlink="http://www.w3.org/1999/xlink">
    <!-- Generator: Sketch 52.2 (67145) - http://www.bohemiancoding.com/sketch -->
    <title>041-lit</title>
    <desc>Created with Sketch.</desc>
    <g id="041-lit" stroke="none" stroke-width="1" fill="none" fill-rule="evenodd">
        <g id="Group" transform="translate(3.995000, 6.495595)" fill="#000000" fill-rule="nonzero">
            <g id="000-lit">
                <g id="ICONSET-01">
                    <g id="000-lit">
                        <path d="M4.005,31.7544048 L4.005,36.6294048 L0.005,36.6294048 L0.005,0.504404762 L4.005,0.504404762 L4.005,20.5044048 L13.0059766,20.5044048 L13.0059766,24.5044048 L4.005,24.5044048 L4.005,27.7544048 L13.0059766,27.7544048 L13.0059766,31.7544048 L4.005,31.7544048 Z M10.5250054,13.2656577 C10.5250054,13.2656577 13.1456292,13.2656577 13.1456292,15.883781 L13.1456292,18.5044048 L5.28625833,18.5044048 L5.28625833,15.883781 C5.28625833,15.883781 5.28625833,13.2656577 7.90688214,13.2656577 L10.5250054,13.2656577 Z M32.7237417,17.2656577 L19.766253,17.2656577 L19.766253,27.6050232 L32.7237417,27.6050232 L32.7237417,17.2656577 Z M34.1031179,13.2656577 C34.1031179,13.2656577 36.7237417,13.2656577 36.7237417,15.883781 L36.7237417,28.9843994 C36.7237417,28.9843994 36.7237417,31.6050232 34.1031179,31.6050232 L15.766253,31.6050232 L15.766253,15.883781 C15.766253,15.883781 15.766253,13.2656577 18.3843762,13.2656577 L34.1031179,13.2656577 Z M38.255,13.5044048 L42.255,13.5044048 L42.255,36.6294048 L38.255,36.6294048 L38.255,13.5044048 Z" id="Combined-Shape"></path>
                    </g>
                </g>
            </g>
        </g>
    </g>
</svg>