<svg viewBox="0 0 50 50" xmlns="http://www.w3.org/2000/svg"><path d="m41.0136819 36.3209963-.8616534.8405083.8625504.8414648c-.4663154-.4547801-.4665831-1.226999-.000897-1.6819731zm-6.4288707-4.5906149-4.0790925 3.9792491-.1706293.1201095c-2.1066939 1.7059334-5.4732852 1.3041113-8.1560621-1.3134228l-.019291-.0182c-.0091526-.0086365-.0091526-.0086365-.0677159-.0646958-1.2954039-1.2648516-2.1740583-2.1215439-2.7095933-2.6423735-.1899191-.184704-.2778235-.2700105-.4067339-.3948251-.0900071-.0858541-.0900071-.0858541.0516774.0439539l-.1185551-.1083895c-.1183733-.1126693-1.0414733-1.0108936-3.271873-3.1868938-2.6003594-2.5350953-3.1163708-5.5399081-1.7156007-7.8188995l.2594635-.4221357.3546243-.3460657 3.7843757-3.6930413-5.566295-5.4314603-3.99229222 3.8952319c-1.47270817 2.6966036-.76372589 6.2981855 1.91787912 10.5920012 1.1067433 1.7721296 2.4650504 3.514218 3.9492895 5.1503591.552401.6089355 1.0921846 1.169619 1.6034426 1.6739408.34777.3430519.637117.6158105.8505443.8090315l.1464615.1325952.1326823.1463825c.4174838.4605914 1.0382505 1.099265 1.8274935 1.8442985 1.1997792 1.1325734 2.5031044 2.2355296 3.870595 3.2372364 3.5455282 2.5971509 6.9441767 4.085977 9.7543626 4.0855924 1.141325 0 2.1795894-.2443115 3.1562217-.7592399l4.1817094-4.0790902-.3441065-.3355943zm5.2229819 3.4089849 4 .0003961c1.1419109 1.1136633 1.1427227 2.9271287.0012178 4.0423762l-5.2995545 5.169505c-.1420792.1386138-.3077029.2487128-.4879406.3271287-1.6850594.930693-3.443594 1.3211881-5.207 1.3211881-8.6822574.0011881-17.4952277-9.4641584-18.4167128-10.4807921-1.2283763-1.1120792-14.74619805-13.6930693-8.96763369-23.4229703.07509901-.1425742.17374257-.2760396.29633663-.3952475l4.95450496-4.83405941c1.141099-1.11405941 2.999901-1.11445545 4.1438416-.00118812l7.1518614 6.97861383c.5528911.539802.8577524 1.2574258.8577524 2.0205941s-.3048613 1.4807921-.8581584 2.0205941l-4.6472079 4.5350495c-.1404554.2285148-.5784653 1.2237623 1.100099 2.860198 2.8967921 2.8261386 3.2207327 3.1378218 3.2373762 3.1536633.0040595.0035644.2683268.2550495 3.2199208 3.1370297.0121783.0114852.0247624.0233664.0369406.0348515 1.8628614 1.8170297 2.9150594 1.0974258 2.9243961 1.0887129.0304455-.0253465.0617029-.0495049.0937723-.0720792l4.571297-4.4594059c.5516732-.539406 1.2880495-.8372278 2.0715148-.8372278.7822476 0 1.5186238.2970297 2.0719208.8368317l7.1510495 6.9762376z"/><path d="m41 21h-4c0-4.418278-3.581722-8-8-8v-4c6.627417 0 12 5.372583 12 12z"/><path d="m46 21h-4c0-7.1797017-5.8202983-13-13-13v-4c9.3888407 0 17 7.6111593 17 17z"/></svg>