<svg viewBox="0 0 50 50" xmlns="http://www.w3.org/2000/svg"><path d="m45.7682745 39.0691396c-.0208403.018997-.029816.0271746-.0562649.0487388-.6288295.5562947-1.4425845.8569622-2.3372749.8569622h-35.85094899c-1.89013671 0-3.52378571-1.488248-3.52378571-3.3868069v-22.2012269c0-1.9003681 1.63458732-3.3868068 3.52378571-3.3868068h35.85094899c1.8899377 0 3.5233877 1.488067 3.5233877 3.3868068v22.2012269c0 .9645597-.3950085 1.8228328-1.0087235 2.3684641-.0350398.0339228-.0377347.0365318-.0534266.0510374.0076401-.0073054.0202829-.0198542.0547527-.0540679l-.1351168.1247519c-.0076998.0074634-.0156332.0146636-.0235969.0218223.0298501-.0253824.0355702-.0302468.0362632-.0309019zm-2.8701521-24.0691396h-34.8981224v20.9748406h34.8981224zm.2468193 21.0479247c-.0358583.0330872-.0352894.0325633-.0258922.0239106l-.0023814.0021864c-.0025484.0023257-.0048495.0044256-.0069897.0063838.0028542-.0029284.0156065-.013181.0733653-.059363l-.0017906-.0021637c-.0502626.0427143-.0570996.0485246-.0705935.0606382-.0070756.0064645-.0118659.0108912-.0173503.0161083.0324046-.0252846.0658694-.0466055.0985281-.0639571l-.0084932-.0102627-.0946594.078648c-.0119898.0115511-.0288959.0283394-.0666343.0658152l.0120448.0117044c.0324167-.0477978.0697075-.0917902.1108464-.1296484zm-18.1165597-9.7589589 11.2935777-8.862358 2.4693618 3.1467844-13.8197035 10.8446733-13.2408179-10.8723839 2.5383998-3.0913632z"/></svg>