<svg viewBox="0 0 50 50" xmlns="http://www.w3.org/2000/svg"><path d="m33.1211 29.2548c.026-7.7445.0455-15.48875.05575-23.23325.00325-2.5905-1.50025-4.07075-4.12225-4.0765-3.8715-.00825-7.74325-.002-11.615.0015-3.83 0-7.66.00125-11.49-.0005-2.76275-.0015-4.20225 1.425-4.202 4.22175.0005 7.661.0125 15.322.02875 22.983.005 2.37475 1.589 4.01075 3.94725 4.016 7.8285.0175 15.657.016 23.4855.0015 2.32325-.0045 3.90425-1.60325 3.912-3.9135zm1.826-23.53375c.018 7.8705.0145 15.7415.00425 23.612-.00375 3.17975-2.5215 5.66175-5.709 5.66475-3.91425.00325-7.829.00075-11.7435.00075-3.956.00025-7.9125.00375-11.8685-.001-3.194-.00375-5.6055-2.3585-5.6145-5.56825-.023-7.91225-.01925-15.82475-.00025-23.737.00775-3.2445 2.4355-5.6165 5.71525-5.613 7.8695.008 15.73925.02975 23.60875.057 3.1095.01075 5.60025 2.47425 5.6075 5.58475zm-13.3910448 16.6298192c.4458443-.1089284.547976-.4148927.4006706-.853907-.2467365-.7355838-.2720239-1.5592752-.8730298-2.4350185-.179467.3019016-.328982.4626281-.3780838.6512849-.235443.9026581.1011497 1.7167008.4365149 2.5170322.0375629.0893772.287.1515857.4139281.1206084zm-10.4500881-.8447661c.1792216-.2239506-.0432095-.4854803-.1632634-.6820084-1.27394592-2.0825883-1.15585612-4.2058026-.1968982-6.3569473.0640778-.1437143.1833952-.2610218.2533652-.3577624-.1085149-.616245-.413928-.4605968-.7271974-.2978391-1.40136509.7282204-2.59822118 1.7309199-3.61241861 2.9565544-.45075442.5443879-.55313165 1.0715097.05082035 1.6963878 1.10233515 1.1405739 2.2898619 2.1437812 3.63647846 2.9479213.232988.139144.5138502.4004197.7591136.0936937zm16.4962368-6.8172903c1.9684907.4044822 2.9303947 2.838993 1.7092333 4.4043621-5.3818015 6.8982882-15.6700992 7.9096208-22.28190054 2.2133531-.9142753-.7876358-1.7271554-1.6534766-2.45287983-2.6198667-.60861667-.8104879-.61941906-1.6098037.01202994-2.4093734 2.09689186-2.6561762 4.75452616-4.4609845 7.89188493-5.521576.3535329-.1195927.975898-.3928023 1.0183711.1944968.0522934.720603.905928 1.3787435.1144071 2.2011654-1.6454009 1.7098451-2.3475565 3.7325102-1.5670835 6.1192854.976389 2.9855004 4.0783945 4.3713535 6.7981426 3.7518076.6908621-.1574256.864928-.5182349.7090298-1.1687581-.1735748-.7246656-.5958502-.6119286-1.1293411-.4412996-2.1103949.6746449-4.3312688-.5905999-5.0152567-2.8202034-.6383233-2.0818266.5725268-4.5574712 2.6807121-5.0805304 1.139407-.2826044 1.4315627-.6733754.919431-1.7344747-.1053233-.2181106-.1261916-.4895428-.1460778-.7399003-.027988-.3536998-.5072215-.8483209.2013173-1.007016.5872574-.13178051.8757304.1724064 1.0002035.7975384.1551616.7777332.4225208 1.5326144.66091 2.2907964.1347844.4286039.4063173.8495904.8725388.6837857.5558322-.1970359.0778263-.6035494.0476287-.9308424-.0778263-.8462895-.3076227-1.6410349-.7372633-2.5073835 1.0910417-.3199295 1.5300117.1005492 1.7669278 1.0689706.7527305 3.0779244 1.5626645 6.1411219 2.3664607 9.2053351.0913294.3483676.2256227.8851381.6451975.7675767.5263712-.1472691.4900359-.7081613.3631077-1.180692-.8001136-2.9811838-1.607838-5.9603364-2.4074606-8.9415202-.0299521-.1112136-.0039282-.2386775-.0039282-.4682142.8990538.1467613 1.4647064.5210279 1.700395 1.4800545.5781735 2.3532589 1.2172333 4.6907751 1.8585026 7.0267679.0736527.2676236-.0650598.8351175.4401976.7256813.4829161-.1046119.7127124-.5215358.563934-1.0821741-.3228442-1.2149701-.6336586-2.4334951-.9457004-3.6515122-.2661317-1.039009-.5268622-2.0792875-.8241735-3.2538856 1.0527423.3199294 1.5800955.9189085 1.799826 1.8464499.2516467 1.0616072.5067305 2.1227065.7888202 3.1756807.0903473.3366876.1301198.8683799.6351317.7360916.4009161-.1051196.4777604-.5611461.4058262-.9569953-.1335568-.7327908-.3059041-1.4582181-.4591017-2.1729811zm-18.09669844 9.427749c.90640534-.4930553 1.95941724.720779 3.00833004.9907793.5717177.1470607 1.1434354.2943807 1.8979292.4883867-1.4564214 2.0780428-2.8031289 4.082685-4.2419478 6.0077016-.51119429.683949-1.36310434.2720753-2.05345772.2884154-1.92565913.0451297-1.89286554.013487-1.93843899-2.0938642-.01880809-.8704333.14130181-1.599512.72121794-2.2173225.16806717-.1789627.27971007-.4178391.42631672-.621701.70843808-.9837764 1.2463977-2.3345561 2.18005061-2.8423953zm16.52383474-14.2150892c-.6311868.3921202-1.2014281-.50453277-1.9025368-.62705528-.8584329-.15044513-1.6748181-.55147166-2.5091563-.84417769.3496094-.80999656.9569377-1.44018111 1.44332-2.15485563.3552788-.52234548.7729203-1.01171339 1.0570961-1.57112854.6649666-1.30875225 1.6164712-1.8267649 3.1004215-1.68017117 1.5392265.15213011 1.5505651.03369971 1.5531636 1.85035469.2889002 1.29792019-.6914235 2.22201434-1.3915873 3.2570768-.4200038.6212782-.7646525 1.40551855-1.3507208 1.76995682z" fill-rule="evenodd" transform="translate(8 8)"/></svg>