<svg viewBox="0 0 50 50" xmlns="http://www.w3.org/2000/svg"><path d="m41.142875 36.2279861c.0015-3.7260417.00025-7.4523264.00025-11.178368h-.0055c0-3.766632-.00025-7.5332639 0-11.2998959 0-2.4023611-1.47025-3.82374998-3.95125-3.82326387-7.70675.00145834-15.414.04861111-23.12025-.02090277-2.81275-.02552084-4.29275 1.70965274-4.30575 4.09451384-.04025 7.3305556-.0335 14.6615973-.00225 21.9923959.01175 2.7615972 1.607 4.2517708 4.438 4.2542014 7.6235.0065625 15.24725.0080208 22.87075-.0075348 2.5945-.0051041 4.07475-1.487743 4.076-4.0111458zm-4.133-28.19128471c3.21725-.03913195 6.117 2.53920141 5.95925 5.77986111-.18275 3.7566667-.0425 7.5281597-.042 11.2933333.0005 3.8461111-.07525 7.6941667.02575 11.5376042.073 2.7674306-2.4965 5.3882986-5.53275 5.3802778-7.95325-.0209028-15.907-.0034028-23.8605-.00875-2.90825-.0019445-5.37925-2.17875-5.4605-5.04-.11475-4.0451736-.053-8.0952084-.059-12.1432986-.0055-3.5221181.12525-7.0495834-.0325-10.5651389-.18875-4.2024306 3.19375-6.32138891 6.3925-6.25211808 7.53325.16284722 15.07375.11034722 22.60975.01822917zm-15.0922338 7.33512181c4.7410614-1.7796899 10.1716993.7536031 10.7173067 5.9426643.2963323 2.8176445-.3197335 5.3167583-2.1513974 7.5476606-.8978994 1.0934958-1.1601471 2.4188877-1.6846424 3.6512363-.9246074 2.1718009-2.6557981 3.3832622-5.1503305 3.6270261-.3937531.0384516-.9185027.2233513-.9352907-.4203562-.0124637-.4730491-.256906-1.1205543.5875772-1.2107493 2.6151002-.2788925 3.7284446-1.9263755 4.3101715-4.0649466.3520376-1.2938236 1.1667604-2.353615 1.9723263-3.4119822 1.9130598-2.5140671 1.649286-7.1064172-.2492752-8.7313514-1.2771538-1.0930211-2.5878834-1.891959-4.3437473-1.7927445-2.9470431-.2155186-5.2876862 2.0531232-5.7600372 4.9654725-.0633363.3895001-.1345578.7932414-.0902987 1.1791811.1027624.9017127-.6069088.6204467-1.0853645.7137273-.708145.1381408-.7546933-.2637017-.7801296-.7490932-.159994-3.0720895 1.6490317-6.1218675 4.6431318-7.2457448zm1.1320838 16.2931969c.5244717.3405072.471525.6023111.1373617 1.0219843-1.5716668 1.9729043-3.1350918 3.9522899-4.6665491 5.9522773-.6406047.8368003-1.5401985.2643502-2.1835504.4569416-2.1460881.0006944-2.120364.0002315-2.1595745-1.8867937-.0159839-.7675877.169829-1.4210558.6785665-2.0347094 1.4845045-1.7902664 2.9425357-3.5995143 4.3983192-5.4099196.2405077-.2990721.3773699-.5620335.8436502-.2006931.9510419.7374953 1.9365491 1.4414261 2.9517764 2.1009126zm11.3314241-20.7178654c2.4974922-.0267352 2.4948847-.0142588 2.4228234 2.671743-.0116151.4280187-.0305786.8420332-.2652519 1.2158175-.9673752 1.5394414-1.9281132 3.0837205-3.0196993 4.8319515-.5888165-1.770383-1.438144-3.1308255-2.6288144-4.2254432-.363862-.3345726-.2816079-.5255387-.0011852-.9061978.7298575-.9920052 1.4241584-2.0239859 2.0326495-3.1051087.3956259-.7035191.9510192-.4774152 1.4594779-.4827623zm-5.3920569 12.6032415c-.4745182-.0508038-.5217531-.3777248-.5075344-.8342753.0951928-3.1097372-2.5680375-4.9190802-5.2582591-3.5865635-1.1815961.5852685-1.5515227 1.6655889-1.6903355 2.8327086-.0397641.3319331.0619356.7071519-.3851092.8632083-.3860732.1346414-.7131028.3137076-.7762433-.3679286-.2371386-2.5677544 1.8122787-4.7176877 4.5829925-4.7322682 3.4300748-.104797 4.5711838 2.5044206 4.6617977 5.0400525.0122907.3483361-.0571157.8463497-.6273087.7850662z" fill-rule="evenodd"/></svg>