<?xml version="1.0" encoding="iso-8859-1"?>
<!-- Generator: Adobe Illustrator 17.1.0, SVG Export Plug-In . SVG Version: 6.00 Build 0)  -->
<!DOCTYPE svg PUBLIC "-//W3C//DTD SVG 1.1//EN" "http://www.w3.org/Graphics/SVG/1.1/DTD/svg11.dtd">
<svg version="1.1" id="Capa_1" xmlns="http://www.w3.org/2000/svg" xmlns:xlink="http://www.w3.org/1999/xlink" x="0px" y="0px"
	 viewBox="0 0 288.136 288.136" style="enable-background:new 0 0 288.136 288.136;" xml:space="preserve">
<path d="M253.094,35.437c-22.634-22.634-52.727-35.099-84.735-35.099s-62.102,12.465-84.735,35.099
	c-38.632,38.632-45.319,97.294-20.067,142.865L9.496,232.364c-12.661,12.661-12.661,33.262,0,45.923
	c6.133,6.134,14.287,9.511,22.961,9.511s16.828-3.377,22.961-9.511l53.821-53.821c17.824,10.141,38.057,15.539,59.12,15.539
	c32.009,0,62.102-12.464,84.735-35.098C299.817,158.183,299.817,82.16,253.094,35.437z M231.882,183.694
	c-16.968,16.967-39.527,26.311-63.522,26.311s-46.555-9.344-63.522-26.311c-35.025-35.026-35.025-92.019,0-127.044
	c16.968-16.968,39.527-26.312,63.522-26.312s46.555,9.344,63.522,26.312C266.907,91.676,266.907,148.668,231.882,183.694z"/>
<g>
</g>
<g>
</g>
<g>
</g>
<g>
</g>
<g>
</g>
<g>
</g>
<g>
</g>
<g>
</g>
<g>
</g>
<g>
</g>
<g>
</g>
<g>
</g>
<g>
</g>
<g>
</g>
<g>
</g>
</svg>
