<svg enable-background="new 0 0 288.136 288.136" viewBox="0 0 288.136 288.136" xmlns="http://www.w3.org/2000/svg"><path d="m253.094 35.437c-22.634-22.634-52.727-35.099-84.735-35.099s-62.102 12.465-84.735 35.099c-38.632 38.632-45.319 97.294-20.067 142.865l-54.061 54.062c-12.661 12.661-12.661 33.262 0 45.923 6.133 6.134 14.287 9.511 22.961 9.511s16.828-3.377 22.961-9.511l53.821-53.821c17.824 10.141 38.057 15.539 59.12 15.539 32.009 0 62.102-12.464 84.735-35.098 46.723-46.724 46.723-122.747 0-169.47zm-21.212 148.257c-16.968 16.967-39.527 26.311-63.522 26.311s-46.555-9.344-63.522-26.311c-35.025-35.026-35.025-92.019 0-127.044 16.968-16.968 39.527-26.312 63.522-26.312s46.555 9.344 63.522 26.312c35.025 35.026 35.025 92.018 0 127.044z"/></svg>