<svg viewBox="0 0 50 50" xmlns="http://www.w3.org/2000/svg"><path d="m32.540027 22.0480895c-.3887842-.3397229-.6466555-.8288926-.680398-1.3849587-.2088043-3.4410341-.9291281-4.6631308-1.859629-4.6631308-1.1045695 0-2-.8954305-2-2s.8954305-2 2-2c3.6814782 0 5.5317925 3.1392314 5.852285 8.4208536.0418256.6892728-.2706219 1.3181541-.7801207 1.7091091 4.4938392.7509614 7.9278357 4.6656918 7.9278357 9.3700373 0 5.2397968-4.2602032 9.5-9.5 9.5s-9.5-4.2602032-9.5-9.5c0-4.9158019 3.7496452-8.9694082 8.540027-9.4519105zm-23.040027 18.9519105c-5.23979677 0-9.5-4.2602032-9.5-9.5s4.26020323-9.5 9.5-9.5c5.2397968 0 9.5 4.2602032 9.5 9.5s-4.2602032 9.5-9.5 9.5zm0-4c3.0306578 0 5.5-2.4693422 5.5-5.5s-2.4693422-5.5-5.5-5.5c-3.03065777 0-5.5 2.4693422-5.5 5.5s2.46934223 5.5 5.5 5.5zm24 0c3.0306578 0 5.5-2.4693422 5.5-5.5s-2.4693422-5.5-5.5-5.5-5.5 2.4693422-5.5 5.5 2.4693422 5.5 5.5 5.5zm-13.59988-37c1.905 0 3.45 1.53671642 3.45 3.43283582s-1.545 3.43283582-3.45 3.43283582c-1.9056 0-3.45-1.53671642-3.45-3.43283582s1.5444-3.43283582 3.45-3.43283582zm-11.4076196 17.2520162c.2756769-.3613038.70088316-.9418862 1.27056335-1.7353464 1.15368025-1.6068656 2.88934785-4.0718966 5.20486015-7.39216195.6597848-.9460804 1.980907-1.13947893 2.8841881-.42221513l9.2470703 7.34277348c.8650226.686884 1.0094325 1.9449529.3225484 2.8099755-.686884.8650226-1.9449529 1.0094324-2.8099755.3225484l-7.5814042-6.0201265c-1.5244464 2.1796195-2.7469649 3.9138372-3.6683601 5.2037542 4.9156568 1.1162563 8.4776533 4.5705368 10.5178445 10.1874253.3771012 1.0382045-.1588288 2.1855364-1.1970332 2.5626376-1.0382045.3771013-2.1855364-.1588288-2.5626376-1.1970332-1.965345-5.4108279-5.3502552-7.9503803-10.47270366-7.9503803v-.0016982c-.53486479.015429-.66077868-.0747164-1.51073225-.6832224-.48184724-.8482188-.48184724-.8482188-.48926775-1.3150794 0-.6028301.26670777-1.1433673.68856184-1.5100501.04169967-.0526159.09449565-.120567.15647762-.2018009z" transform="translate(3 5)"/></svg>