<svg viewBox="0 0 50 50" xmlns="http://www.w3.org/2000/svg"><path d="m9.5 33v2c-5.23979677 0-9.5-4.2602032-9.5-9.5s4.26020323-9.5 9.5-9.5c5.2397968 0 9.5 4.2602032 9.5 9.5s-4.2602032 9.5-9.5 9.5zm0 0v-2c3.0306578 0 5.5-2.4693422 5.5-5.5s-2.4693422-5.5-5.5-5.5c-3.03065777 0-5.5 2.4693422-5.5 5.5s2.46934223 5.5 5.5 5.5zm24 0v2c-5.2397968 0-9.5-4.2602032-9.5-9.5s4.2602032-9.5 9.5-9.5 9.5 4.2602032 9.5 9.5-4.2602032 9.5-9.5 9.5zm0 0v-2c3.0306578 0 5.5-2.4693422 5.5-5.5s-2.4693422-5.5-5.5-5.5-5.5 2.4693422-5.5 5.5 2.4693422 5.5 5.5 5.5zm-6.0718169-27.05712c-1.5844068 0-2.8602712-1.2852-2.8602712-2.8812 0-1.5876 1.2758644-2.8728 2.8602712-2.8728 1.5760677 0 2.8602711 1.2852 2.8602711 2.8728 0 1.596-1.2842034 2.8812-2.8602711 2.8812zm-11.1196188 6.9449494 7.4934092 3.2800029c.8809575.3856113 1.3627631 1.3436007 1.1470697 2.2807552l-1.8945313 8.2314453c-.247748 1.0764268-1.3212038 1.7482037-2.3976306 1.5004557s-1.7482037-1.3212038-1.5004557-2.3976307l1.5226257-6.6155734-9.6607123-4.2286714c-1.51381613-.6626251-1.61651727-2.7711106-.1742654-3.5777214l10.438379-5.83789059c.8941448-.50006991 2.02159-.24361849 2.6114589.59400877l4.3139304 6.12587932 3.373044-.722896c1.0800441-.2314703 2.1432366.4564347 2.3747069 1.5364788.2314704 1.0800441-.4564346 2.1432366-1.5364787 2.3747069l-4.6660156 1c-.784044.1680329-1.5926522-.1484491-2.0543341-.804048l-4.0372846-5.73303593z" transform="translate(3 9)"/></svg>