<svg viewBox="0 0 50 50" xmlns="http://www.w3.org/2000/svg"><path d="m35.4776039 26.9246064.1821805-.1865787c-.5328004 3.5860209-.0240156 5.8151122 1.5263544 6.6872741v4.0440625c.3684048 1.9593469.8515647 2.9390204 1.4494797 2.9390204 0 0-1.5901205.2098508-1.5901205 1.5916153 0 0-1.04286 0-3.1285801 0 .7162171-1.5849651 1.2971726-2.5789242 1.7428665-2.9818773 0 0-1.0628774-7.3059872-4.8568523-7.3059872l1.1445274-1.1721589c-.2431898.1297723-.465524.2621129-.6531973.4103412-1.3083568 1.0333677-1.6128849 3.7832267-1.6128849 4.970288 0 .7913742-1.0963013 2.0350854-3.2889038 3.7311335v2.0892722c-2.1034724 0-3.1552086 0-3.1552086 0 0-2.8850798 3.715986-6.1599355 3.1552086-7.007467-.3738517-.5650209-.7821174-2.1705524-1.2247973-4.8165944-1.4193982.6889118-2.6549654 1.0333677-3.7067016 1.0333677-1.5776043 0-4.0632606-2.2074981-4.0632606-1.0333677 0 .7827535.2347371 4.0276833.7042113 9.7347892l-1.3934464 2.0892722h-1.8594785c-.6214355-.5499964-.6214355-.9942054 0-1.3326268.6214354-.3384215 1.0274729-1.3180949 1.2181125-2.9390204-2.8841042-7.1542244-4.5051595-11.5094918-4.8631657-13.0658022-.5370094-2.3344656 0-5.8761935 0-7.8073387 0-1.9311451-1.60829902-.5017209-2.15955011 0s.12946561 1.7822545-1.18691696 2.9619267c-.87758838.7864481-1.96349114.6183457-3.25770826-.5043071.88734051-5.5359248 1.33101076-8.6001907 1.33101076-9.1927977 0-.88891051-1.70491639-1.62316768-1.33101076-1.80442183.39296208-.19049193 1.47886483.09965397 3.25770826.87043772h2.06633478c2.87602679 0 3.33606859 1.84506201 4.92518549 4.96289891 1.0594113 2.078558 3.2634027 3.9679547 6.6119742 5.66819h7.6243446c3.1963195 0 5.2815032.8923604 6.2555509 2.6770812 2.5571596-.9525636 4.5427496-.4435784 5.9567699 1.5269556 1.4236071 1.9838939 2.047766 4.3799375 1.8724766 7.1881309.39861.8450684 1.3419045 1.2676026 2.8298834 1.2676026 0 0-2.1855464 3.0114337-4.3220712 3.0114337s-3.0423103-2.1062671-3.0423103-3.7093356c0-1.6030684 0-2.3597138 0-4.7819908-.6065659-1.6791851-1.6862007-3.1448912-3.2389043-4.3971183.073137.1430034.139411.2915183.1988222.4455449 0-.756399 0 .199383 0 2.867346 0 .4734712-.0418928.8945821-.1179325 1.2708061zm-24.3237924-2.5949355 1.2541359 4.2998913h-6.47716477v2.3207556c0 1.193342.82074045 2.4544176 2.46222136 3.7832267-.89681059 1.4270844-1.34521589 2.1406266-1.34521589 2.1406266-1.33107265-.3967955-2.34700202-2.1240011-3.0477881-5.1816168 0-3.3030177 0-4.9545266 0-4.9545266 1.24083201-1.6148514 3.62543583-2.4176369 7.1538115-2.4083568z"/></svg>