<svg viewBox="0 0 50 50" xmlns="http://www.w3.org/2000/svg"><path d="m12.5744947 17.1630928-.5234569 6.2487672 8.704883 13.1330843c.6102515.9206883.3585927 2.1617602-.5620956 2.7720117-.9206883.6102514-2.1617602.3585927-2.7720116-.5620956l-9.08886722-13.7124024c-.24869506-.375207-.36354252-.8233397-.32596575-1.2719125l.73178085-8.7356339-2.73876148 1.9435382v5.9590502c0 1.1045695-.8954305 2-2 2s-2-.8954305-2-2v-6.9921875c0-.6480779.31402402-1.2559817.84254522-1.6310421l6.96875-4.94531253c.92822138-.65870415 2.21826038-.41105909 2.83659018.54453199l4.0233644 6.21786534 6.109664 3.0123264c.9906986.4884569 1.3978459 1.6875493.909389 2.6782478-.4884569.9906986-1.6875493 1.3978459-2.6782479.909389l-6.604593-3.2563476c-.3239014-.1596973-.5985199-.4041146-.7947059-.7073083zm4.4255053-13.66327451c0 1.93271377-1.5673866 3.50018171-3.5 3.50018171-1.93225 0-3.5-1.56746794-3.5-3.50018171 0-1.93235035 1.56775-3.49981829 3.5-3.49981829 1.9326134 0 3.5 1.56746794 3.5 3.49981829zm-11.08925821 24.61555161c.61523651-.9173646 1.85765519-1.1622878 2.77501979-.5470513.91736461.6152365 1.16228783 1.8576552.54705132 2.7750198l-5.01855469 7.4830482c-.61523651.9173646-1.85765519 1.1622878-2.77501979.5470513-.91736461-.6152365-1.16228783-1.8576552-.54705132-2.7750198z" fill="#1d1d1b" fill-rule="evenodd" transform="translate(14 6)"/></svg>