<?xml version="1.0" encoding="UTF-8"?>
<svg width="140px" height="140px" viewBox="0 0 140 140" version="1.1" xmlns="http://www.w3.org/2000/svg" xmlns:xlink="http://www.w3.org/1999/xlink">
    <!-- Generator: Sketch 55 (78076) - https://sketchapp.com -->
    <title>058-coeur-inactif</title>
    <desc>Created with Sketch.</desc>
    <g id="058-coeur-inactif" stroke="none" stroke-width="1" fill="none" fill-rule="evenodd">
        <g transform="translate(18.000000, 23.000000)" fill="#000000" fill-rule="nonzero">
            <path d="M91.6161473,62.3838527 C92.9327128,62.3838527 94,61.3165655 94,60 C94,58.6834345 92.9327128,57.6161473 91.6161473,57.6161473 L74.3838527,57.6161473 C73.0672872,57.6161473 72,58.6834345 72,60 C72,61.3165655 73.0672872,62.3838527 74.3838527,62.3838527 L91.6161473,62.3838527 Z" id="Path"></path>
            <path d="M100.292184,46.1483778 C102.893143,41.1902026 104.492862,35.7678302 105,30.1908692 L105,28.4631862 C104.948102,12.7500149 92.2017786,0.0419103215 76.5020176,0.0506536146 C66.7758459,0.0822399273 57.734304,5.06557647 52.5078464,13.2752818 C45.7444998,2.55429096 32.7135178,-2.3995495 20.5442638,1.12404956 C8.37500984,4.64764862 -0.000519765676,15.7997297 0,28.4788924 L0,30.175163 C1.69481393,58.7447576 45.5088925,93 52.4764609,93 C56.6507249,93 67.4473173,84.4558222 73.4733224,79.1471234 C82.5901505,83.673962 93.6237927,81.2788377 100.04763,73.3785143 C106.471467,65.4781909 106.573006,54.17877 100.292184,46.164084 L100.292184,46.1483778 Z M96.6985503,42.5673621 C87.442025,35.1280897 73.9353079,36.4917392 66.3497325,45.6314042 C58.7641572,54.7710692 59.9021515,68.3101762 68.9067404,76.0530002 L69.3304439,76.414243 C59.9148109,84.5814718 53.543566,88.1467813 52.4764609,88.2253124 C47.5489463,87.9897192 6.37124496,56.1846455 4.8019728,29.8924512 L4.8019728,28.4317737 C4.78453909,15.3901656 15.3107753,4.7916705 28.3410551,4.73110397 C37.8933416,4.70980279 46.5113476,10.4683519 50.1539381,19.3064662 C50.3970232,19.8962126 50.8644371,20.3650119 51.4531652,20.6095441 C52.0418934,20.8540762 52.7036117,20.8542696 53.2924824,20.6100815 C53.8759774,20.3563843 54.3414989,19.8904627 54.5949783,19.3064662 C58.8843029,8.80225251 70.0225308,2.82678914 81.1372729,5.06699201 C92.252015,7.30719487 100.211172,17.1317819 100.103871,28.4788924 L100.103871,29.8610388 C99.7391785,34.2665798 98.5857067,38.5705463 96.6985503,42.5673621 L96.6985503,42.5673621 Z M83.1714243,42.5673621 C92.5407716,42.5674262 100.139317,50.1632232 100.15082,59.5406163 C100.162323,68.9180093 92.5824358,76.5324574 83.2131169,76.5555474 C73.843798,76.5786373 66.2265367,69.0016414 66.1918996,59.6243053 C66.2005511,50.2423019 73.7974777,42.6388459 83.1714243,42.6301869 L83.1714243,42.5673621 Z" id="Shape"></path>
        </g>
    </g>
</svg>