<svg viewBox="0 0 140 140" xmlns="http://www.w3.org/2000/svg"><path d="m118.247347 69.6445969c2.625731-5.0114889 4.240685-10.4921664 4.752653-16.1290947v-1.7462603c-.052392-15.8821301-12.920109-28.7268809-28.7693917-28.7180436-9.818802.0319259-18.9464538 5.0688467-24.2226872 13.3668285-6.8277594-10.8362703-19.982846-15.8433779-32.2679976-12.2818907-12.2851517 3.5614872-20.7404482 14.8334832-20.7399235 27.6489809v1.7145101c1.710955 28.8767946 45.9423106 63.5003729 52.9762367 63.5003729 4.2140189 0 15.113436-8.636051 21.1968316-14.001832 9.2036547 4.575514 20.3423797 2.154636 26.8273967-5.8306374 6.485016-7.9852731 6.587522-19.4061932.246882-27.5070586zm-8.633986 16.0497193h-6.33687v6.3500372c0 1.3414385-1.085196 2.4288893-2.423853 2.4288893-1.3386571 0-2.4238531-1.0874508-2.4238531-2.4288893v-6.3500372h-6.3368704c-1.338657 0-2.4238529-1.0874508-2.4238529-2.4288893s1.0851959-2.4288893 2.4238529-2.4288893h6.3368704v-6.3500373c0-1.3414385 1.085196-2.4288892 2.4238531-2.4288892 1.338657 0 2.423853 1.0874507 2.423853 2.4288892v6.3500373h6.33687c1.338657 0 2.423853 1.0874508 2.423853 2.4288893s-1.085196 2.4288893-2.423853 2.4288893zm4.958601-19.6692406c-9.365507-7.1583807-22.699245-5.6363209-30.2181496 3.4494328-7.5189045 9.0857537-6.5441042 22.4980853 2.2091827 30.396266l.4277387.3651276c-9.5053056 8.255048-15.9372291 11.858694-17.0144971 11.93807-4.9744432-.238127-46.5443132-32.3851905-48.1285308-58.9600966v-1.4763837c-.0175998-13.1818405 10.6088863-23.8942979 23.7632641-23.9555156 9.6432605-.0215303 18.3433428 5.7989388 22.0206247 14.7320865.2454001.5960878.7172656 1.0699279 1.3116007 1.3170895.5943351.2471615 1.2623555.247357 1.8568345.0005432.5890521-.2564252 1.0590071-.7273567 1.3149006-1.3176327 4.3301753-10.6171622 15.5744816-16.6568779 26.7950783-14.3925868 11.2205972 2.2642911 19.2555552 12.1945188 19.1472322 23.6636412v1.3970082c-.368166 4.4529124-1.532623 8.8031581-3.437752 12.8429504z"/></svg>