<?xml version="1.0" encoding="UTF-8"?>
<svg width="140px" height="140px" viewBox="0 0 140 140" version="1.1" xmlns="http://www.w3.org/2000/svg" xmlns:xlink="http://www.w3.org/1999/xlink">
    <!-- Generator: Sketch 55 (78076) - https://sketchapp.com -->
    <title>058-coeur-actif</title>
    <desc>Created with Sketch.</desc>
    <g id="058-coeur-actif" stroke="none" stroke-width="1" fill="none" fill-rule="evenodd">
        <g id="059-coeur-actif" transform="translate(17.000000, 23.000000)" fill="#000000" fill-rule="nonzero">
            <path d="M101.247347,46.6445969 C103.873078,41.633108 105.488032,36.1524305 106,30.5155022 L106,28.7692419 C105.947608,12.8871118 93.0798908,0.0423609701 77.2306083,0.0511982771 C67.4118063,0.0831242276 58.2841545,5.12004503 53.0079211,13.4180268 C46.1801617,2.58175645 33.0250751,-2.42535111 20.7399235,1.13613611 C8.45477183,4.69762334 -0.000524715825,15.9696193 0,28.785117 L0,30.4996271 C1.71095501,59.3764217 45.9423106,94 52.9762367,94 C57.1902556,94 68.0896727,85.3639493 74.1730683,79.9981678 C83.3767234,84.573682 94.5154479,82.1528037 101.000465,74.1675306 C107.485481,66.1822575 107.587987,54.7613374 101.247347,46.660472 L101.247347,46.6445969 Z M92.6133612,62.6943162 L86.2764908,62.6943162 L86.2764908,69.0443534 C86.2764908,70.3857919 85.1912949,71.4732427 83.8526379,71.4732427 C82.5139809,71.4732427 81.4287849,70.3857919 81.4287849,69.0443534 L81.4287849,62.6943162 L75.0919145,62.6943162 C73.7532575,62.6943162 72.6680616,61.6068654 72.6680616,60.2654269 C72.6680616,58.9239884 73.7532575,57.8365376 75.0919145,57.8365376 L81.4287849,57.8365376 L81.4287849,51.4865003 C81.4287849,50.1450618 82.5139809,49.0576111 83.8526379,49.0576111 C85.1912949,49.0576111 86.2764908,50.1450618 86.2764908,51.4865003 L86.2764908,57.8365376 L92.6133612,57.8365376 C93.9520182,57.8365376 95.0372142,58.9239884 95.0372142,60.2654269 C95.0372142,61.6068654 93.9520182,62.6943162 92.6133612,62.6943162 L92.6133612,62.6943162 Z M97.5719623,43.0250756 C88.206455,35.8666949 74.872717,37.3887547 67.3538124,46.4745084 C59.8349079,55.5602621 60.8097082,68.9725937 69.5629951,76.8707744 L69.9907338,77.2359016 C60.4854282,85.49095 54.0535047,89.0945962 52.9762367,89.1739717 C48.0017935,88.9358453 6.43192348,56.7887815 4.84770587,30.2138754 L4.84770587,28.7374917 C4.83010613,15.5556512 15.4565922,4.84319383 28.61097,4.78197606 C38.2542305,4.76044583 46.9543128,10.5809149 50.6315947,19.5140626 C50.8769948,20.1101504 51.3488603,20.5839905 51.9431954,20.8311521 C52.5375305,21.0783136 53.2055509,21.0785091 53.8000299,20.8316953 C54.389082,20.5752701 54.859037,20.1043386 55.1149305,19.5140626 C59.4451058,8.89690039 70.6894121,2.85718472 81.9100088,5.12147579 C93.1306056,7.38576686 101.165564,17.3159946 101.057241,28.785117 L101.057241,30.1821252 C100.689075,34.6350376 99.5246182,38.9852833 97.6194889,43.0250756 L97.5719623,43.0250756 Z" id="Shape"></path>
        </g>
    </g>
</svg>