<svg viewBox="0 0 140 140" xmlns="http://www.w3.org/2000/svg"><path d="m109.616147 85.3838527h-17.2322943c-1.3165655 0-2.3838527-1.0672872-2.3838527-2.3838527s1.0672872-2.3838527 2.3838527-2.3838527h17.2322943c1.316566 0 2.383853 1.0672872 2.383853 2.3838527s-1.067287 2.3838527-2.383853 2.3838527zm8.676037-16.2354749v.0157062c6.280822 8.014686 6.179283 19.3141069-.244554 27.2144303-6.423837 7.9003237-17.457479 10.2954477-26.5743076 5.7686087-6.0260051 5.308699-16.8225975 13.852877-20.9968615 13.852877-6.9675684 0-50.781647-34.2552424-52.4764609-62.824837v-1.6962706c-.0005198-12.6791627 8.3750098-23.8312438 20.5442638-27.3548428 12.169254-3.5235991 25.200236 1.4302414 31.9635826 12.1512322 5.2264576-8.2097053 14.2679995-13.1930419 23.9941712-13.2246282 15.6997614-.0087433 28.4460844 12.6993613 28.4979824 28.4125326v1.727683c-.507138 5.576961-2.106857 10.9993334-4.707816 15.9575086zm-17.12076-3.5810157v.0628248c-9.3739463.008659-16.9708729 7.612115-16.9795244 16.9941184.0346371 9.3773361 7.6518984 16.954332 17.0212174 16.9312421 9.369319-.02309 16.949206-7.6375381 16.937703-17.0149311-.011503-9.3773931-7.610048-16.9731901-16.979396-16.9732542z"/></svg>