<svg viewBox="0 0 140 140" xmlns="http://www.w3.org/2000/svg"><path d="m76.1712173 29.0926244c4.6471269-3.9893674 10.3482734-6.2136877 17.2768971-6.2136877 8.6010126 0 18.4900996 4.6966244 24.1985946 12.2130584 7.055767 9.2904014 7.345521 21.6309945-.588806 35.557736-11.066078 19.4237557-26.20285 34.5534869-45.3776799 45.3523419-.374476.210897-.7969972.321693-1.2267759.321693h-.2267237c-.4297793 0-.8523009-.110797-1.2267772-.321694-19.3030959-10.871107-34.6103634-26.0550318-45.6044027-45.3523409-7.9343262-13.9267415-7.6445724-26.2673346-.5888053-35.557736 5.7084947-7.516434 15.5975812-12.2130584 24.1985943-12.2130584 6.9286237 0 12.6297702 2.2243203 17.2768971 6.2136877 2.34957 2.0170093 4.1952785 4.2031899 5.9444938 6.86779 1.7492153-2.6646001 3.5949238-4.8507807 5.9444938-6.86779zm36.5422747 39.0820137c6.981253-12.2538591 6.742233-22.4337005.951386-30.0585684-4.743116-6.2453098-13.148192-10.237133-20.2167636-10.237133-5.7017056 0-10.2574159 1.7774247-14.0200629 5.0075026-2.7956257 2.3999297-4.8091222 5.1813509-7.0177408 9.1429903-.9534367 1.7101968-3.4137377 1.7101968-4.3671744 0-2.2086186-3.9616394-4.2221151-6.7430606-7.0177408-9.1429903-3.762647-3.2300779-8.3183573-5.0075026-14.0200629-5.0075026-7.068572 0-15.473648 3.9918232-20.216764 10.237133-5.7908468 7.6248679-6.0298668 17.8047093.9513868 30.0585684 10.3321486 18.1355241 24.6088611 32.4559629 42.5999919 42.8360529 17.8548607-10.306578 31.9691447-24.5737108 42.3735447-42.8360529z"/></svg>