<?xml version="1.0" encoding="UTF-8"?>
<svg width="124px" height="124px" viewBox="0 0 124 124" version="1.1" xmlns="http://www.w3.org/2000/svg" xmlns:xlink="http://www.w3.org/1999/xlink">
    <!-- Generator: Sketch 55 (78076) - https://sketchapp.com -->
    <title>Artboard Copy</title>
    <desc>Created with Sketch.</desc>
    <g id="Artboard-Copy" stroke="none" stroke-width="1" fill="none" fill-rule="evenodd">
        <g id="060-corbeille" transform="translate(24.000000, 11.000000)" fill="#000000" fill-rule="nonzero">
            <path d="M66.8982651,12.6478959 L56.8208647,12.6478959 L56.8208647,11.0644531 C56.8208647,4.96328735 51.8311452,0 45.6974876,0 L30.3017225,0 C24.1680648,0 19.1783454,4.96328735 19.1783454,11.0644531 L19.1783454,12.6478959 L9.1009449,12.6478959 C4.082785,12.6478959 0,16.7090531 0,21.7006302 L0,28.3125839 C0,29.9793244 1.35803167,31.330162 3.0336483,31.330162 L5.47083705,31.330162 L9.54177202,100.160019 C9.63578337,101.754463 10.9637947,103 12.5698902,103 L63.4301098,103 C65.0362055,103 66.3642166,101.754463 66.4582282,100.160019 L70.528373,31.330162 L72.9663517,31.330162 C74.6411784,31.330162 76,29.9793244 76,28.3125839 L76,21.7006302 C75.99921,16.7090531 71.916425,12.6478959 66.8982651,12.6478959 Z M25.245642,11.0644531 C25.245642,8.29126745 27.5137681,6.03515625 30.3017225,6.03515625 L45.6974876,6.03515625 C48.4854419,6.03515625 50.7535681,8.29126745 50.7535681,11.0644531 L50.7535681,12.6478959 L25.245642,12.6478959 L25.245642,11.0644531 Z M6.0672966,21.7006302 C6.0672966,20.0362472 7.42848832,18.6830521 9.1009449,18.6830521 L66.8982651,18.6830521 C68.5715119,18.6830521 69.9319134,20.0362472 69.9319134,21.7006302 L69.9319134,25.2950057 L6.0672966,25.2950057 L6.0672966,21.7006302 Z M60.5694743,96.9648438 L15.4305257,96.9648438 L11.5484038,31.330162 L64.4508063,31.330162 L60.5694743,96.9648438 Z" id="Shape"></path>
            <path d="M38,91 C39.6570312,91 41,89.6570312 41,88 L41,41 C41,39.3429688 39.6570312,38 38,38 C36.34375,38 35,39.3429688 35,41 L35,88 C35,89.6570312 36.34375,91 38,91 Z" id="Path"></path>
            <path d="M49.8723093,90.996875 C49.9152776,90.9992188 49.9590271,91 50.0019954,91 C51.5996322,91 52.9285222,89.7390694 52.9972714,88.1273597 L54.9972471,41.1276203 C55.0675588,39.4721607 53.7824182,38.0729496 52.1269696,38.0026376 C50.4738646,37.933888 49.0731002,39.2174747 49.0027887,40.8729341 L47.002813,87.8726735 C46.9317201,89.5281332 48.2168606,90.9265628 49.8723093,90.996875 L49.8723093,90.996875 Z" id="Path"></path>
            <path d="M25.9972616,91 C26.0402301,91 26.0839799,90.9992188 26.1277297,90.996875 C27.7824093,90.9265629 29.0675593,89.5281348 28.9972471,87.8726769 L26.9972567,40.8729884 C26.9269447,39.2175308 25.5285138,37.9331641 23.8722718,38.002695 C22.216811,38.0730069 20.9324424,39.4722165 21.0027545,41.1276743 L23.0027448,88.1273628 C23.0707133,89.7398522 24.3996131,91 25.9972616,91 Z" id="Path"></path>
        </g>
    </g>
</svg>