<svg viewBox="0 0 124 124" xmlns="http://www.w3.org/2000/svg"><g transform="translate(24 11)"><path d="m53.732132 90.9929656c.0549979.0043965.1091873.0070344.162568.0070344.9721731 0 1.8003805-.8115914 1.8836866-1.8834548l4.2146376-53.8833352c.0889675-1.1325349-.6834328-2.129658-1.7243537-2.2255014-1.0708463-.0976018-1.9597135.7430061-2.0462548 1.875541l-4.2154464 53.8833352c-.0889675 1.1325348.6842418 2.129658 1.7251627 2.2263808z"/><path d="m38 91c1.1055106 0 2-.9215142 2-2.0584589v-53.8839616c0-1.1360653-.8944894-2.0575795-2-2.0575795s-2 .9215142-2 2.0575795v53.8839616c0 1.1369447.8944894 2.0584589 2 2.0584589z"/><path d="m23.1056831 91c.0541785 0 .1075481-.002638.1633437-.0070344 1.0399019-.096723 1.8129549-1.0938482 1.7240052-2.2263854l-4.2162114-53.8834448c-.0865238-1.1334164-.9962356-1.9722676-2.0458411-1.8755448-1.0407105.0958436-1.8129547 1.0929688-1.7240052 2.2255059l4.2154028 53.8834449c.0832893 1.073624.9113293 1.8834586 1.883306 1.8834586z"/><path d="m68.9783492 9.84770436h-17.2849135v-7.78733476c0-1.13799993-.9128988-2.0603696-2.0402895-2.0603696h-22.3054205c-1.1282627 0-2.0411615.92236967-2.0411615 2.0603696v7.78733476h-17.30671146c-4.41016397 0-7.99985274 3.62170924-7.99985274 8.07425524v5.8088166c0 1.1379999.91289868 2.0603696 2.04116141 2.0603696h1.61740898l7.22907661 75.3465122c.1020147 1.056149.9809086 1.862342 2.0306983 1.862342h51.1633093c1.050662 0 1.9312997-.806193 2.0306983-1.862342l7.2098947-75.3465122h1.637463c1.1273906 0 2.0402894-.9223697 2.0402894-2.0603696v-5.8088166c0-4.452546-3.5992798-8.07425524-8.0216508-8.07425524zm-39.590334-5.72784523h18.2239698v5.72784523h-18.2239698zm-25.30656436 13.80210047c0-2.1800664 1.75778782-3.9543959 3.9184019-3.9543959h60.97849646c2.1728211 0 3.9402001 1.7743295 3.9402001 3.9543959v3.7493271h-68.83709846zm58.14650496 80.9573012h-47.4559115l-7.01371294-73.088115h61.46415504z"/></g></svg>