<?xml version="1.0" encoding="iso-8859-1"?><!--Generator: Adobe Illustrator 19.0.0, SVG Export Plug-In . SVG Version: 6.00 Build 0)--><svg version="1.1" id="Capa_1" xmlns="http://www.w3.org/2000/svg" xmlns:xlink="http://www.w3.org/1999/xlink" x="0px" y="0px" viewBox="0 0 512 512" style="enable-background:new 0 0 512 512" xml:space="preserve"><g><g><g><path d="M432,125.656h-16v32h16c26.51,0,48,21.49,48,48v160c0,26.51-21.49,48-48,48H80c-26.51,0-48-21.49-48-48v-160
				c0-26.51,21.49-48,48-48h105.376l-36.688,36.688l22.624,22.624l75.312-75.312l-75.312-75.312l-22.624,22.624l36.688,36.688H80
				c-44.161,0.053-79.947,35.839-80,80v160c0.053,44.161,35.839,79.947,80,80h352c44.161-0.053,79.947-35.839,80-80v-160
				C511.947,161.495,476.161,125.709,432,125.656z"/><rect x="352" y="125.656" width="32" height="32"/><rect x="288" y="125.656" width="32" height="32"/></g></g></g><g/><g/><g/><g/><g/><g/><g/><g/><g/><g/><g/><g/><g/><g/><g/></svg>