<svg id="Layer_1" enable-background="new 0 0 512.119 512.119" viewBox="0 0 512.119 512.119" xmlns="http://www.w3.org/2000/svg"><path d="m507.373 484.706-32.686-32.686 8.686-8.686c6.249-6.249 6.249-16.379 0-22.628-6.248-6.248-16.379-6.248-22.627 0l-8.687 8.687-173.372-173.373 56.993-56.993c13.786 13.786 13.601 13.858 16.053 15.293l5.013 5.013c6.247 6.248 16.379 6.249 22.627 0 5.064-5.064 6.022-12.677 2.878-18.707l72.053-72.63c-43.038 137.711-42.064 131.73-42.064 142.184 0 27.482 22.394 49.84 49.92 49.84 27.516 0 49.9-22.385 49.9-49.9 0-237.282.389-223.457-.82-227.115-5.526-40.517-55.431-57.362-84.468-28.324l-114.634 115.547c-6.13-3.595-14.133-2.781-19.392 2.479-6.249 6.248-6.249 16.379 0 22.627l20.686 20.686-57.373 57.373-57.373-57.373 20.687-20.687c6.249-6.248 6.249-16.379 0-22.627-5.259-5.26-13.262-6.074-19.392-2.479l-114.678-115.59c-28.944-28.944-78.885-12.188-84.422 28.365-1.21 3.659-.821-10.697-.821 227.118 0 27.515 22.385 49.9 49.9 49.9 27.526 0 49.92-22.358 49.92-49.84 0-10.445.951-4.546-42.063-142.181l72.051 72.63c-3.143 6.03-2.185 13.642 2.879 18.705 6.247 6.248 16.379 6.249 22.627 0l5.013-5.013c2.619-1.534 2.521-1.761 16.053-15.293l56.993 56.993-173.373 173.371-8.686-8.686c-6.249-6.248-16.379-6.248-22.628 0-6.248 6.249-6.248 16.379 0 22.628l8.686 8.686-32.686 32.686c-10.111 10.112-2.811 27.314 11.314 27.314 4.095 0 8.189-1.562 11.314-4.686l32.686-32.686c8.129 8.129 11.705 13.372 20 13.372 14.119 0 21.431-17.196 11.314-27.314l-8.686-8.686 173.372-173.373 173.372 173.373-8.686 8.686c-10.11 10.109-2.813 27.314 11.313 27.314 8.274 0 11.746-5.118 20-13.373l32.687 32.687c3.124 3.124 7.219 4.686 11.313 4.686 14.128 0 21.423-17.206 11.314-27.314zm-27.313-214.586c0 9.87-8.03 17.9-17.9 17.9-9.881 0-17.92-8.003-17.92-17.84 0-3.873-2.437 5.095 35.82-117.321zm-30.617-232.856c10.908-10.908 30.02-3.446 30.258 12.14.085 4.975-1.949 9.57-5.099 12.695-.111.109-45.364 45.727-114.459 115.378-.959-.959-23.359-23.359-25.002-25.002zm-399.392-5.164c5.007 0 9.365 1.904 12.581 5.119l114.346 115.257c-1.82 1.82-23.49 23.49-25.002 25.002-117.681-118.626-114.357-115.277-114.457-115.376-10.917-10.841-3.224-30.002 12.532-30.002zm17.828 238.08c0 9.837-8.039 17.84-17.92 17.84-9.87 0-17.9-8.03-17.9-17.9v-117.261c38.118 121.967 35.82 113.459 35.82 117.321z"/></svg>