<svg id="Capa_1" enable-background="new 0 0 512 512" viewBox="0 0 512 512" xmlns="http://www.w3.org/2000/svg"><g><path d="m508.946 145.347-30.272-68.115 20.975-33.224c6.305-9.988-.872-23.008-12.684-23.008h-65c-57.99 0-105 47.01-105 105v40c0 8.284-6.716 15-15 15l-192.991.005c-49.037.007-88.932 39.905-88.932 88.939v1.336c0 27.081-6.305 53.79-18.417 78.011-5.837 11.673 4.987 24.716 17.536 21.131l2.012-.575c23.214-6.633 43.45-19.744 58.827-37.139v9.75l-18.417 36.833c-1.041 2.084-1.583 4.38-1.583 6.709v70c0 19.299 15.701 35 35 35h50c8.284 0 15-6.716 15-15v-7.64c0-15.463-6.809-29.688-18.321-39.269l6.448-32.238c17.21-8.198 30.417-22.748 36.911-40.725 15.153 5.14 31.003 8.113 46.962 8.925v.947c0 8.284 6.716 15 15 15s15-6.716 15-15v-1.966c10.157-1.216 20.208-3.317 30-6.306v98.272c0 19.299 15.701 35 35 35h50c8.284 0 15-6.716 15-15v-7.64c0-15.797-7.104-30.301-19.072-39.882l8.195-73.751c31.561-21.873 50.877-58.382 50.877-97.037v-70.189l6.839 6.839c12.237 12.238 31.906 13.636 45.748 3.252l13.376-10.03c13.136-9.852 17.652-27.211 10.983-42.215zm-306.946 95.653v-30h80v30zm-159.625 85.645c5.055-17.998 7.667-36.69 7.667-55.366v-1.334c0-29.308 21.509-53.681 49.57-58.186-12.028 14.475-19.336 32.993-19.585 53.183-3.887 25.146-17.729 47.203-37.652 61.703zm147.625-.616v-20.029c0-8.284-6.716-15-15-15s-15 6.716-15 15v28.153l-1.882 7.529c-3.552 14.208-13.968 25.456-27.861 30.087-5.106 1.702-8.91 6.011-9.965 11.289l-10 50c-1.326 6.633 1.951 13.333 8 16.357 4.927 2.464 8.581 6.625 10.405 11.584h-33.697c-2.757 0-5-2.243-5-5v-66.459l18.417-36.833c1.042-2.083 1.583-4.379 1.583-6.708 0 0 .045-80.182.019-80.73.394-29.985 24.891-54.261 54.966-54.269h7.015v45c0 8.284 6.716 15 15 15h45v64.034c-14.339-.885-28.544-3.887-42-9.005zm289.964-162.467-13.376 10.03c-1.991 1.493-4.776 1.295-6.536-.465l-34.609-34.609-27.786-11.396c-7.888-3.24-16.941.743-19.831 8.869-2.706 7.608 1.37 15.984 8.841 19.048l15.333 6.289v96.363c0 30.728-16.368 59.638-42.718 75.447-4.014 2.408-6.674 6.553-7.19 11.206l-10 90c-.694 6.246 2.579 12.262 8.2 15.072 4.927 2.464 8.58 6.625 10.404 11.584h-33.696c-2.757 0-5-2.243-5-5v-150c0-8.284-6.716-15-15-15s-15 6.716-15 15v20.029c-9.688 3.685-19.763 6.273-30 7.763v-62.792h35c8.284 0 15-6.716 15-15v-46.137c20.02-4.562 34.965-22.461 34.965-43.863v-40c0-41.421 33.579-75 75-75h37.791l-10.728 16.992c-2.673 4.234-3.057 9.523-1.023 14.1l33.528 75.441c.946 2.129.295 4.63-1.569 6.029z"/></g></svg>