<svg id="Capa_1" enable-background="new 0 0 512 512" viewBox="0 0 512 512" xmlns="http://www.w3.org/2000/svg"><g><path d="m512 329.879c0-35.411-28.521-65.104-64.931-67.602-117.973-8.089-205.069-75.464-205.069-186.277 0-8.284-6.716-15-15-15h-182c-8.284 0-15 6.716-15 15 0 148.158-30 147.588-30 270v90c0 8.284 6.716 15 15 15h180c8.284 0 15-6.716 15-15v-13.031c16.87 4.521 28.17 15.67 33.67 21.096 3.964 3.913 7.216 6.935 13.33 6.935 2.476 0 62.677-.171 241.246-15.052 7.842-.654 13.754-7.3 13.754-14.948zm-30 0v3.286c-89.994 13.21-207.864 12.539-302.484 8.641.321-3.586.484-7.193.484-10.806 0-66.168-53.832-120-120-120-4.142 0-8.262.23-12.353.649 3.6-17.209 6.944-36.165 9.244-60.649h168.8c2.03 5.353 4.283 10.6 6.733 15.739l-37.574 22.524c-7.105 4.259-9.413 13.473-5.153 20.578 4.259 7.105 13.472 9.413 20.577 5.153l37.011-22.186c2.952 4.391 6.072 8.657 9.354 12.791l-31.296 29.33c-6.045 5.665-6.353 15.157-.688 21.202 5.671 6.051 15.164 6.346 21.202.688l31.171-29.213c3.973 3.676 8.091 7.2 12.372 10.533l-24.65 35.023c-4.768 6.774-3.142 16.132 3.634 20.9 6.789 4.779 16.142 3.126 20.899-3.633l25.178-35.774c4.795 2.689 9.7 5.247 14.708 7.667l-18.15 40.409c-3.395 7.557-.021 16.435 7.536 19.829 7.556 3.393 16.435.022 19.829-7.537l18.45-41.076c27.518 9.934 57.316 16.144 88.185 18.261 20.736 1.422 36.981 17.969 36.981 37.671zm-451.855 2.442c.845-39.772 5.359-65.089 10.598-89.242 6.293-1.371 12.739-2.079 19.257-2.079 49.626 0 90 40.374 90 90 0 3.158-.174 6.307-.499 9.432-54.573-2.745-98.292-6.268-119.356-8.111zm182.382-241.321c.717 10.174 2.168 20.196 4.292 30h-157.828c.446-9.26.758-19.213.907-30zm-17.527 300c-8.284 0-15 6.716-15 15v15h-30v-15c0-8.284-6.716-15-15-15s-15 6.716-15 15v15h-30v-15c0-8.284-6.716-15-15-15s-15 6.716-15 15v15h-30v-58.571c130.825 11.371 321.768 19.438 452 1.045v43.713c-10.299.842-19.724 1.601-30 2.404v-3.591c0-8.284-6.716-15-15-15s-15 6.716-15 15v5.884c-8.237.606-15.054 1.119-30 2.163v-8.047c0-8.284-6.716-15-15-15s-15 6.716-15 15v10.058c-8.495.549-19.448 1.22-30 1.823v-11.881c0-8.284-6.716-15-15-15s-15 6.716-15 15v13.458c-11.787.563-27.571 1.211-39.097 1.452-9.448-9.164-32.848-29.91-67.903-29.91z"/></g></svg>