<svg id="Capa_1" enable-background="new 0 0 511.637 511.637" viewBox="0 0 511.637 511.637" xmlns="http://www.w3.org/2000/svg"><g><path d="m507.476 401.862-34.56-42.667c-3.857-4.762-10.224-6.699-16.08-4.891-86.523 26.704-51.515 16.961-154.692 42.437-5.133 1.268-9.22 5.144-10.757 10.203l-25.92 85.333c-2.924 9.625 4.289 19.36 14.353 19.36h216c8.284 0 15-6.716 15-15v-85.333c0-3.438-1.18-6.771-3.344-9.442zm-26.656 79.775h-180.767l17.561-57.815c96.212-23.756 63.129-14.636 138.375-37.861l24.831 30.655z"/><path d="m285.535 285.822c5.858-5.858 5.858-15.355 0-21.213l-40.861-40.861c0-90.888.899-86.904-2.132-91.975-1.358-2.273-.553-1.219-19.939-20.605l24.175-24.175 75.973 75.645c-26.596 36.722-23.891 88.959 9.895 122.745 37.125 37.125 97.219 37.131 134.35 0 37.126-37.126 37.131-97.22 0-134.35-34.063-34.064-86.543-36.356-123.078-9.654l-137.601-137.008c-3.702-3.686-9.055-5.18-14.131-3.945l-68.82 16.75c-8.049 1.959-12.986 10.073-11.027 18.122 1.96 8.05 10.074 12.987 18.122 11.027l60.649-14.761 34.41 34.261-24.13 24.129-17.678-17.678c-6.902-6.902-18.456-5.466-23.469 2.889l-50.912 84.853c-3.542 5.902-2.611 13.457 2.256 18.324l28.991 28.991-58.044 58.044-71.672 25.103c-7.818 2.738-11.937 11.296-9.198 19.115 2.164 6.178 7.961 10.046 14.156 10.046 3.609 0-.585 1.094 70.708-23.876 1.93.221-6.504.617 92.048-5.18l29.885 29.885-19.23 19.23c-37.119-26.916-89.467-23.669-122.898 9.761-59.895 59.895-16.895 162.131 67.175 162.131 77.424 0 122.382-88.008 76.937-150.679 35.754-35.755 39.443-39.444 75.09-75.091zm58.876-101.618 44.826 44.632c2.927 2.915 6.755 4.371 10.583 4.371 13.325 0 20.024-16.23 10.583-25.63l-44.823-44.63c10.183-6.336 21.947-9.741 34.24-9.741 57.653 0 86.78 70.143 45.962 110.962-25.402 25.402-66.519 25.405-91.924 0-22.023-22.023-24.631-55.324-9.447-79.964zm-164.941 278.395c-25.343 25.343-66.58 25.344-91.924 0-25.343-25.344-25.343-66.581 0-91.924 21.559-21.559 54.825-24.921 80.068-9.358l-44.713 44.713c-5.858 5.858-5.858 15.355 0 21.213 5.857 5.857 15.355 5.858 21.213 0l44.713-44.713c15.442 25.048 12.335 58.376-9.357 80.069zm-3.386-355.525 32.377 32.377-46.668 46.669-20.71-20.71zm1.762 153.502-51.089 3.005 87.917-87.917v48.083zm27.786 14.64 24.042-24.042 24.042 24.042-24.042 24.042z"/></g></svg>