<svg viewBox="0 0 100 100" fill="none" xmlns="http://www.w3.org/2000/svg"><path d="M73.0012 67.7764C69.9323 67.7764 67.1605 69.0468 65.1667 71.0923C57.583 66.1156 46.8091 59.0418 39.2292 54.0644C39.7188 52.8055 39.998 51.4361 39.998 50C39.998 48.5639 39.7188 47.1944 39.2278 45.9334L65.1653 28.9055C67.1606 30.951 69.9317 32.2214 72.9998 32.2214C79.0744 32.2214 84 27.2476 84 21.111C84 14.9746 79.0737 10 72.9998 10C66.9224 10 61.9976 14.9737 61.9976 21.111C61.9976 22.5472 62.2769 23.9167 62.7686 25.1777L36.8347 42.2063C34.8402 40.16 32.0676 38.8889 29.0002 38.8889C22.925 38.8889 18 43.8634 18 50C18 56.1366 22.9241 61.1103 29.0002 61.1103C32.0676 61.1103 34.8389 59.8407 36.8347 57.793L62.7686 74.8231C62.2776 76.0834 61.9976 77.4521 61.9976 78.8897C61.9976 85.0255 66.9224 90 72.9998 90C79.0744 90 84 85.0255 84 78.8897C84.0007 72.7503 79.0752 67.7766 73.0013 67.7766L73.0012 67.7764Z" fill="black"/></svg>