<svg viewBox="0 0 50 50" fill="none" xmlns="http://www.w3.org/2000/svg"><path d="M25.5 44C14.7483 44 6 35.2517 6 24.5C6 13.7483 14.7483 5 25.5 5C36.2517 5 45 13.7483 45 24.5C45 35.2517 36.2517 44 25.5 44ZM25.5 6.65853C15.6638 6.65853 7.65853 14.6638 7.65853 24.5C7.65853 34.3362 15.6638 42.3415 25.5 42.3415C35.3362 42.3415 43.3415 34.3362 43.3415 24.5C43.3415 14.6638 35.3362 6.65853 25.5 6.65853Z" fill="black"/><path d="M25.5 44C19.8019 44 15.3354 35.4364 15.3354 24.5C15.3354 13.5636 19.8019 5 25.5 5C31.1981 5 35.6646 13.5636 35.6646 24.5C35.6646 35.4364 31.1981 44 25.5 44ZM25.5 6.65853C20.8898 6.65853 16.9939 14.828 16.9939 24.5C16.9939 34.172 20.8898 42.3415 25.5 42.3415C30.1102 42.3415 34.0061 34.172 34.0061 24.5C34.0061 14.828 30.1102 6.65853 25.5 6.65853Z" fill="black"/><path d="M44.1584 25.3293H6.82926C6.36947 25.3293 6 24.9557 6 24.5C6 24.0443 6.37358 23.6707 6.82926 23.6707H44.1584C44.6182 23.6707 44.9877 24.0443 44.9877 24.5C44.9877 24.9557 44.6182 25.3293 44.1584 25.3293Z" fill="black"/><path d="M25.5 44C25.0402 44 24.6708 43.6264 24.6708 43.1707V5.82926C24.6708 5.36947 25.0443 5 25.5 5C25.9557 5 26.3293 5.37358 26.3293 5.82926V43.1707C26.3293 43.6264 25.9598 44 25.5 44Z" fill="black"/><path d="M41.6747 34.6646H9.32527C8.86548 34.6646 8.49601 34.2911 8.49601 33.8354C8.49601 33.3797 8.86959 33.0061 9.32527 33.0061H41.6747C42.1345 33.0061 42.504 33.3797 42.504 33.8354C42.504 34.2911 42.1304 34.6646 41.6747 34.6646Z" fill="black"/><path d="M41.6747 15.9939H9.32527C8.86548 15.9939 8.49601 15.6203 8.49601 15.1646C8.49601 14.7049 8.86959 14.3354 9.32527 14.3354H41.6747C42.1345 14.3354 42.504 14.709 42.504 15.1646C42.504 15.6244 42.1304 15.9939 41.6747 15.9939Z" fill="black"/></svg>