<svg viewBox="0 0 50 50" xmlns="http://www.w3.org/2000/svg" xmlns:svg="http://www.w3.org/2000/svg"><g class="layer"><g id="svg" transform="matrix(1 0 0 1 0 0)"><path d="m37.6,10.8a14.74,14.74 0 0 0 -12.26,-6.56l-21.78,0l0,5.36l14.74,0l0,4.02a8.04,8.04 0 0 0 8.04,8.04l12.06,0l2.01,2.98a4.11,4.11 0 0 1 -3.44,6.4l-33.4,0l0,5.36l33.4,0a9.47,9.47 0 0 0 7.88,-14.74l-7.25,-10.85zm-11.26,5.49a2.68,2.68 0 0 1 -2.68,-2.68l0,-4.02l1.68,0a9.38,9.38 0 0 1 7.8,4.17l1.68,2.53l-8.49,0z" id="svg_1"/><path d="m8.25,22.32l-4.69,0l0,5.36l4.69,0a7.37,7.37 0 0 0 0,-14.74l-4.69,0l0,5.36l4.69,0a2.01,2.01 0 0 1 0,4.02z" id="svg_2"/><rect height="5.36" id="svg_5" width="42.87" x="3.56" y="40.41"/></g></g></svg>