<svg height="50" viewBox="0 0 50 50" width="50" xmlns="http://www.w3.org/2000/svg"><path d="m41.9136713 4.05383121c-1.5660193.69465288-3.2274902 1.15015928-4.9288165 1.35127707 1.791392-1.07146973 3.1322626-2.75754334 3.7728726-4.74418662-1.6866541.9985065-3.5306242 1.70334102-5.4532726 2.08444522-2.6599129-2.82679337-6.8850794-3.51844567-10.3074859-1.68731728-3.4224065 1.83112837-5.191482 5.72994691-4.3157402 9.5113453-6.9013937-.345282-13.33197907-3.60336745-17.69236437-8.96391719-2.27519383 3.9213691-1.11208663 8.93573149 2.65706561 11.45508339-1.36242757-.0439995-2.6949434-.4108312-3.88793185-1.0703184v.1070318c.0052931 4.0825136 2.88349667 7.5972107 6.88482357 8.4073516-.73695644.2005246-1.49729722.3022034-2.26104777.302365-.53897097-.0012703-1.0765826-.0541354-1.60547771-.157872 1.12484509 3.4999164 4.35173442 5.8964196 8.02738852 5.9616739-3.04106078 2.3848638-6.79571398 3.6778818-10.66037196 3.6711924-.68398324-.0012595-1.36736691-.0405654-2.04698408-.1177351 3.92373743 2.523732 8.49160153 3.8633416 13.15688984 3.8584981 15.7871974 0 24.4193159-13.0766159 24.4193159-24.41931592l-.026758-1.11313121c1.6777368-1.21026405 3.1234987-2.71313118 4.2678949-4.43647006z" transform="translate(3.995 7.874904)"/></svg>