<svg height="50" viewBox="0 0 50 50" width="50" xmlns="http://www.w3.org/2000/svg"><path d="m35.6860947 6.326706c8.0959454 8.1121008 8.0959454 21.2472879 0 29.3593887-5.9375262 5.9381664-14.8675251 7.714829-22.6257817 4.5014986-7.75825661-3.21333-12.81683739-10.7838104-12.81683739-19.181193s5.05858078-15.96786292 12.81683739-19.18119304c7.7582566-3.21333012 16.6882555-1.43666757 22.6257817 4.50149874zm-22.4305394 9.0601567h.0056014c-.0000036 1.3388612 1.0837189 2.4250895 2.4225766 2.428178 1.3410457 0 2.428178-1.0871323 2.428178-2.428178s-1.0871323-2.428178-2.428178-2.428178-2.428178 1.0871323-2.428178 2.428178zm11.0038194 0h.0056013c-.0000036 1.3388612 1.083719 2.4250895 2.4225767 2.428178 1.3410457 0 2.428178-1.0871323 2.428178-2.428178s-1.0871323-2.428178-2.428178-2.428178-2.428178 1.0871323-2.428178 2.428178zm5.7357653 9.939566h.0112027c.2575364-.5947314-.015814-1.2856309-.6105454-1.5431674-.5947313-.2575364-1.2856309.015814-1.5431673.6105454-1.13427 2.629826-3.8089067 4.310226-6.8196233 4.310226-3.0779327 0-5.7693734-1.6916027-6.856032-4.3074254-.2490293-.5985982-.9361671-.8819798-1.5347653-.6329506-.5985983.2490293-.8819799.9361671-.6329507 1.5347653 1.461948 3.4924313 4.9935886 5.7525693 9.023748 5.7525693 3.9377373 0 7.4581753-2.2461346 8.9621333-5.7245626z" transform="translate(3.995 3.995)"/></svg>