<?xml version="1.0" encoding="UTF-8"?>
<svg width="50px" height="50px" viewBox="0 0 50 50" version="1.1" xmlns="http://www.w3.org/2000/svg" xmlns:xlink="http://www.w3.org/1999/xlink">
    <!-- Generator: Sketch 52.2 (67145) - http://www.bohemiancoding.com/sketch -->
    <title>012-smiley-bien</title>
    <desc>Created with Sketch.</desc>
    <g id="012-smiley-bien" stroke="none" stroke-width="1" fill="none" fill-rule="evenodd">
        <g id="Group" transform="translate(3.995000, 3.995000)" fill="#000000" fill-rule="nonzero">
            <g id="006-smiley-bien">
                <g id="ICONSET-01">
                    <g id="006-smiley-bien">
                        <path d="M35.6860947,6.326706 C43.7820401,14.4388068 43.7820401,27.5739939 35.6860947,35.6860947 C29.7485685,41.6242611 20.8185696,43.4009237 13.060313,40.1875933 C5.30205639,36.9742633 0.243475613,29.4037829 0.243475613,21.0064003 C0.243475613,12.6090177 5.30205639,5.03853738 13.060313,1.82520726 C20.8185696,-1.38812286 29.7485685,0.388539688 35.6860947,6.326706 Z M13.2555553,15.3868627 L13.2611567,15.3868627 C13.2611531,16.7257239 14.3448756,17.8119522 15.6837333,17.8150407 C17.024779,17.8150407 18.1119113,16.7279084 18.1119113,15.3868627 C18.1119113,14.045817 17.024779,12.9586847 15.6837333,12.9586847 C14.3426876,12.9586847 13.2555553,14.045817 13.2555553,15.3868627 Z M24.2593747,15.3868627 L24.264976,15.3868627 C24.2649724,16.7257239 25.348695,17.8119522 26.6875527,17.8150407 C28.0285984,17.8150407 29.1157307,16.7279084 29.1157307,15.3868627 C29.1157307,14.045817 28.0285984,12.9586847 26.6875527,12.9586847 C25.346507,12.9586847 24.2593747,14.045817 24.2593747,15.3868627 Z M29.99514,25.3264287 L30.0063427,25.3264287 C30.2638791,24.7316973 29.9905287,24.0407978 29.3957973,23.7832613 C28.801066,23.5257249 28.1101664,23.7990753 27.85263,24.3938067 C26.71836,27.0236327 24.0437233,28.7040327 21.0330067,28.7040327 C17.955074,28.7040327 15.2636333,27.01243 14.1769747,24.3966073 C13.9279454,23.7980091 13.2408076,23.5146275 12.6422094,23.7636567 C12.0436111,24.012686 11.7602295,24.6998238 12.0092587,25.298422 C13.4712067,28.7908533 17.0028473,31.0509913 21.0330067,31.0509913 C24.970744,31.0509913 28.491182,28.8048567 29.99514,25.3264287 Z" id="Combined-Shape"></path>
                    </g>
                </g>
            </g>
        </g>
    </g>
</svg>