<svg height="50" viewBox="0 0 50 50" width="50" xmlns="http://www.w3.org/2000/svg"><path d="m35.7056993 6.30710133c8.1106668 8.12459717 8.1106668 21.28240277 0 29.40699997-8.1191666 8.1134328-21.2778112 8.1103341-29.3931558-.0069215-8.11534457-8.117256-8.11534457-21.2759009 0-29.39315679 8.1153446-8.11725585 21.2739892-8.12035452 29.3931558-.00692168zm-4.7023193 17.84584797h-.0196047c-.1034952-.1592189-.2806125-.2551575-.470512-.2548606l-19.0445333-.0224054c-.1868436.000346-.3612126.093833-.4649107.2492594-.1057408.156224-.1257417.3551806-.0532126.529326 1.6271873 3.898528 5.5845293 6.419128 10.0824 6.419128 4.4166513 0 8.3375846-2.5065967 10.0179846-6.3883207.0751912-.1740053.0572759-.3742337-.0476113-.5321267zm-17.467758-7.3489493c.4479081-.64641 1.1814298-1.0355235 1.9678125-1.0438715.7863828-.008348 1.5279997.3651058 1.9895295 1.0018615.7089426-1.0160727.5403248-2.4027537-.391463-3.2193166-.9317878-.816563-2.3286042-.8017347-3.2428472.0344251-.9142429.8361598-1.0533849 2.2261079-.3230318 3.2269015zm11.015022 0 .0028007.0140033c.4472854-.6463938 1.1803887-1.0355892 1.9664038-1.0439393.786015-.00835 1.5272209.3651835 1.9881375 1.0019293.288714-.4094931.4415385-.8993154.436904-1.4003333-.0014474-1.0511973-.6791426-1.9820913-1.6790658-2.3063933-.999923-.3243021-2.0949748.0316421-2.7131126.8818912-.6181377.8502492-.6189722 2.0016979-.0020676 2.8528421z" transform="translate(3.995 3.995)"/></svg>