<?xml version="1.0" encoding="UTF-8"?>
<svg width="50px" height="50px" viewBox="0 0 50 50" version="1.1" xmlns="http://www.w3.org/2000/svg" xmlns:xlink="http://www.w3.org/1999/xlink">
    <!-- Generator: Sketch 52.4 (67378) - http://www.bohemiancoding.com/sketch -->
    <title>014-livre</title>
    <desc>Created with Sketch.</desc>
    <g id="014-livre" stroke="none" stroke-width="1" fill="none" fill-rule="evenodd">
        <path d="M39.6800001,14 L44.75,14 L44.75,40 L25,40 L5.50097656,40 L5.50097656,14 L10.3199999,14 L10.3199999,34.6661083 C10.3199999,35.5834657 11.0558785,36.3312148 11.9731185,36.3458933 C16.1634214,36.4129505 19.2739529,36.7613942 21.2612778,37.3656523 C22.1340089,37.6310114 22.7402338,37.9317543 23.0775299,38.2286296 C23.2706847,38.3986371 23.3199999,38.4988642 23.3199999,38.6188363 L23.3199999,38.9999317 L25,38.9999317 L26.6800001,38.9999317 L26.6800001,38.6188363 C26.6800001,38.4988642 26.7293153,38.3986371 26.9224701,38.2286296 C27.2597662,37.9317543 27.8659911,37.6310114 28.7387222,37.3656523 C30.7260471,36.7613942 33.8365786,36.4129505 38.0268815,36.3458933 C38.9441215,36.3312148 39.6800001,35.5834657 39.6800001,34.6661083 L39.6800001,14 Z M25,34.0000071 L25.4973229,34.0026628 L25.6141053,12.1330176 C28.378898,10.1554024 32.5075296,9.55293824 38,10.3256252 L38,34.6661083 C29.3333333,34.8048005 25,36.1223765 25,38.6188363 L25,34.0000071 L25,38.6188363 C25,36.1223765 20.6666667,34.8048005 12,34.6661083 L12,10.3256252 C17.6450776,9.53146929 21.8494755,10.1899427 24.6131937,12.3010454 L25,34.0000071 Z" id="Combined-Shape" fill="#000000" fill-rule="nonzero"></path>
    </g>
</svg>