<svg height="50" viewBox="0 0 50 50" width="50" xmlns="http://www.w3.org/2000/svg"><path d="m39.6800001 14h5.0699999v26h-19.75-19.49902344v-26h4.81902334v20.6661083c0 .9173574.7358786 1.6651065 1.6531186 1.679785 4.1903029.0670572 7.3008344.4155009 9.2881593 1.019759.8727311.2653591 1.478956.566102 1.8162521.8629773.1931548.1700075.24247.2702346.24247.3902067v.3810954h1.6800001 1.6800001v-.3810954c0-.1199721.0493152-.2201992.24247-.3902067.3372961-.2968753.943521-.5976182 1.8162521-.8629773 1.9873249-.6042581 5.0978564-.9527018 9.2881593-1.019759.91724-.0146785 1.6531186-.7624276 1.6531186-1.679785zm-14.6800001 20.0000071.4973229.0026557.1167824-21.8696452c2.7647927-1.9776152 6.8934243-2.58007936 12.3858947-1.8073924v24.3404831c-8.6666667.1386922-13 1.4562682-13 3.952728v-4.6188292 4.6188292c0-2.4964598-4.3333333-3.8140358-13-3.952728v-24.3404831c5.6450776-.79415591 9.8494755-.1356825 12.6131937 1.9754202z"/></svg>