<svg height="50" viewBox="0 0 50 50" width="50" xmlns="http://www.w3.org/2000/svg"><path d="m41.5899 33.7103321h.0026929c.7217103 1.9712384.107718 3.2988621-.3258467 3.9128544-.6856253.9658301-1.804975 1.5295386-2.9891731 1.5053584-.6337427-.0084758-1.260307-.1354327-1.8473628-.3743199l-4.9227103-1.9281513c-8.1718898 5.5343452-19.1547276 4.3060482-25.90211286-2.8968367-6.74738531-7.202885-7.25661393-18.2424559-1.20097354-26.03591331 6.0556404-7.79345744 16.8787637-10.02761057 25.5254396-5.26906506 8.646676 4.75854551 12.5504681 15.09739677 9.2067705 24.38332407zm-11.3400071-13.4647436c-.0074045-1.2187654-.9975088-2.2028546-2.2162967-2.2028321-.8976301.0000166-1.7066112.5414684-2.0488479 1.3712961-.3422367.8298276-.1501388 1.7841434.4865125 2.4169269.6366515.6327835 1.5921202.8190624 2.4198467.4717753.8277268-.3472872 1.3642389-1.1595527 1.3587854-2.0571662zm-8.1677134 0c-.0035603-.5878019-.2404836-1.1501134-.6586474-1.5632269-.4181638-.4131134-.9833124-.6431871-1.5711142-.6396052-1.2239935.0074588-2.2101941 1.0057401-2.2027504 2.2297338.0074437 1.2239936 1.005713 2.2102065 2.2297067 2.2027778 1.2239937-.0074286 2.2102189-1.0056857 2.2028053-2.2296795zm-8.1973359 0c-.0059287-1.2183309-.9952585-2.2028465-2.2136039-2.2028321-.8978744-.0010744-1.70768319.5396856-2.05076973 1.3694273s-.15165397 1.7845009.48478623 2.4178441c.6364402.6333431 1.5921218.8201161 2.4201801.4729861.8280583-.3471299 1.3648615-1.1595669 1.3594073-2.0574254z" transform="translate(3.995 4.802885)"/></svg>