<?xml version="1.0" encoding="UTF-8"?>
<svg width="50px" height="50px" viewBox="0 0 50 50" version="1.1" xmlns="http://www.w3.org/2000/svg" xmlns:xlink="http://www.w3.org/1999/xlink">
    <!-- Generator: Sketch 52.4 (67378) - http://www.bohemiancoding.com/sketch -->
    <title>017-telechargement</title>
    <desc>Created with Sketch.</desc>
    <g id="017-telechargement" stroke="none" stroke-width="1" fill="none" fill-rule="evenodd">
        <g id="Group" transform="translate(10.000000, 0.000000)" fill="#000000" fill-rule="nonzero">
            <g id="023-telechargement">
                <g id="ICONSET-01">
                    <g id="023-telechargement">
                        <g id="Group-2-Copy">
                            <path d="M10.5,4 C10.5,1.790861 12.290861,0 14.5,0 C16.709139,0 18.5,1.790861 18.5,4 L18.5,34 C18.5,36.209139 16.709139,38 14.5,38 C12.290861,38 10.5,36.209139 10.5,34 L10.5,4 Z" id="Path-3"></path>
                            <path d="M14.6164745,28.9254506 L21.969346,20.3894183 C23.4111305,18.7156344 25.9367977,18.5275616 27.6105817,19.969346 C29.2843656,21.4111305 29.4724384,23.9367977 28.030654,25.6105817 L17.6939476,37.6105817 C16.1143732,39.4443276 13.2808911,39.4661664 11.6732391,37.6569858 L1.00994543,25.6569858 C-0.457467321,24.0056243 -0.308347364,21.4773582 1.34301418,20.0099454 C2.99437572,18.5425327 5.52264182,18.6916526 6.99005457,20.3430142 L14.6164745,28.9254506 Z" id="Path-4"></path>
                        </g>
                    </g>
                </g>
            </g>
        </g>
        <path d="M40,32.7084905 C40,30.4993515 41.790861,28.7084905 44,28.7084905 C46.209139,28.7084905 48,30.4993515 48,32.7084905 L48,44 C48,46.209139 46.209139,48 44,48 L5.84375,48 C3.634611,48 1.84375,46.209139 1.84375,44 L1.84375,32.7084905 C1.84375,30.4993515 3.634611,28.7084905 5.84375,28.7084905 C8.052889,28.7084905 9.84375,30.4993515 9.84375,32.7084905 L9.84375,40 L40,40 L40,32.7084905 Z" id="Path-2" fill="#000000" fill-rule="nonzero"></path>
    </g>
</svg>