<svg height="50" viewBox="0 0 50 50" width="50" xmlns="http://www.w3.org/2000/svg"><g transform="translate(10)"><path d="m10.5 4c0-2.209139 1.790861-4 4-4s4 1.790861 4 4v30c0 2.209139-1.790861 4-4 4s-4-1.790861-4-4z"/><path d="m14.6164745 28.9254506 7.3528715-8.5360323c1.4417845-1.6737839 3.9674517-1.8618567 5.6412357-.4200723 1.6737839 1.4417845 1.8618567 3.9674517.4200723 5.6412357l-10.3367064 12c-1.5795744 1.8337459-4.4130565 1.8555847-6.0207085.0464041l-10.66329367-12c-1.46741275-1.6513615-1.31829279-4.1796276.33306875-5.6470404 1.65136154-1.4674127 4.17962764-1.3182928 5.64704039.3330688z"/></g><path d="m40 32.7084905c0-2.209139 1.790861-4 4-4s4 1.790861 4 4v11.2915095c0 2.209139-1.790861 4-4 4h-38.15625c-2.209139 0-4-1.790861-4-4v-11.2915095c0-2.209139 1.790861-4 4-4s4 1.790861 4 4v7.2915095h30.15625z"/></svg>