<svg height="50" viewBox="0 0 50 50" width="50" xmlns="http://www.w3.org/2000/svg"><path d="m32.25 8v5.5c0 1.6568542 1.3431458 3 3 3s3-1.3431458 3-3v-5.5h1.75c2.209139 0 4 1.790861 4 4v9h-38v-9c0-2.209139 1.790861-4 4-4h2.5v5.5c0 1.6568542 1.3431458 3 3 3s3-1.3431458 3-3v-5.5h3.7v5.5c0 1.6568542 1.3431458 3 3 3s3-1.3431458 3-3v-5.5zm11.75 15v19c0 2.209139-1.790861 4-4 4h-30c-2.209139 0-4-1.790861-4-4v-19z"/><path d="m14 4.5c0-.82842712.6715729-1.5 1.5-1.5s1.5.67157288 1.5 1.5v9c0 .8284271-.6715729 1.5-1.5 1.5s-1.5-.6715729-1.5-1.5z"/><path d="m23.7 4.5c0-.82842712.6715729-1.5 1.5-1.5s1.5.67157288 1.5 1.5v9c0 .8284271-.6715729 1.5-1.5 1.5s-1.5-.6715729-1.5-1.5z"/><path d="m33.75 4.5c0-.82842712.6715729-1.5 1.5-1.5s1.5.67157288 1.5 1.5v9c0 .8284271-.6715729 1.5-1.5 1.5s-1.5-.6715729-1.5-1.5z"/></svg>