<svg height="50" viewBox="0 0 50 50" width="50" xmlns="http://www.w3.org/2000/svg"><path d="m13.583614 6.59732985c-1.0022168 1.55804565-1.583614 3.41246155-1.583614 5.40267015 0 5.5228475 4.4771525 10 10 10s10-4.4771525 10-10c0-1.9930438-.5830549-3.84990777-1.5878998-5.40932705-2.5859808-1.20378076-5.4398533-1.86124887-8.4071002-1.86124887-2.9727119 0-5.8316315.65989218-8.421386 1.86790577zm4.416386 8.40267015c-2.209139 0-4-1.790861-4-4s1.790861-4 4-4 4 1.790861 4 4-1.790861 4-4 4zm4.005-14.27057592c9.2700394 0 17.6019272 5.33929342 21.7281148 13.63286292.2791604.5611079.2791604 1.2206276 0 1.7817356-4.1261876 8.2935694-12.4580754 13.6328628-21.7281148 13.6328628s-17.60192718-5.3392934-21.72811478-13.6328628c-.27916045-.561108-.27916045-1.2206277 0-1.7817356 4.1261876-8.2935695 12.45807538-13.63286292 21.72811478-13.63286292z" transform="translate(2.995 9.746845)"/></svg>