<?xml version="1.0" encoding="UTF-8"?>
<svg width="50px" height="50px" viewBox="0 0 50 50" version="1.1" xmlns="http://www.w3.org/2000/svg" xmlns:xlink="http://www.w3.org/1999/xlink">
    <!-- Generator: Sketch 52.4 (67378) - http://www.bohemiancoding.com/sketch -->
    <title>019-oeuil</title>
    <desc>Created with Sketch.</desc>
    <g id="019-oeuil" stroke="none" stroke-width="1" fill="none" fill-rule="evenodd">
        <g id="Group" transform="translate(2.995000, 9.746845)" fill="#000000" fill-rule="nonzero">
            <g id="028-oeuil">
                <g id="ICONSET-01">
                    <g id="028-oeuil">
                        <path d="M13.583614,6.59732985 C12.5813972,8.1553755 12,10.0097914 12,12 C12,17.5228475 16.4771525,22 22,22 C27.5228475,22 32,17.5228475 32,12 C32,10.0069562 31.4169451,8.15009223 30.4121002,6.59067295 C27.8261194,5.38689219 24.9722469,4.72942408 22.005,4.72942408 C19.0322881,4.72942408 16.1733685,5.38931626 13.583614,6.59732985 Z M18,15 C15.790861,15 14,13.209139 14,11 C14,8.790861 15.790861,7 18,7 C20.209139,7 22,8.790861 22,11 C22,13.209139 20.209139,15 18,15 Z M22.005,0.729424077 C31.2750394,0.729424077 39.6069272,6.0687175 43.7331148,14.362287 C44.0122752,14.9233949 44.0122752,15.5829146 43.7331148,16.1440226 C39.6069272,24.437592 31.2750394,29.7768854 22.005,29.7768854 C12.7349606,29.7768854 4.40307282,24.437592 0.27688522,16.1440226 C-0.00227523202,15.5829146 -0.00227523202,14.9233949 0.27688522,14.362287 C4.40307282,6.0687175 12.7349606,0.729424077 22.005,0.729424077 Z" id="Combined-Shape"></path>
                    </g>
                </g>
            </g>
        </g>
    </g>
</svg>