<?xml version="1.0" encoding="UTF-8"?>
<svg width="50px" height="50px" viewBox="0 0 50 50" version="1.1" xmlns="http://www.w3.org/2000/svg" xmlns:xlink="http://www.w3.org/1999/xlink">
    <!-- Generator: Sketch 52.4 (67378) - http://www.bohemiancoding.com/sketch -->
    <title>020-photos</title>
    <desc>Created with Sketch.</desc>
    <g id="020-photos" stroke="none" stroke-width="1" fill="none" fill-rule="evenodd">
        <g id="Group" transform="translate(7.995000, 34.995238)" fill="#000000" fill-rule="nonzero">
            <g id="042-photos-02">
                <g id="ICONSET-01">
                    <g id="042-photos-02">
                        <polygon id="Shape" points="6.5025 2.6297619 6.5025 9.87449167 38.01 9.87449167 38.01 2.6297619"></polygon>
                        <g id="Shape">
                            <polygon transform="translate(4.952879, 4.460714) rotate(-9.000000) translate(-4.952879, -4.460714) " points="0.739155904 0.860286523 0.727077908 8.06114061 9.16660117 8.06114061 9.17867916 0.860286523"></polygon>
                        </g>
                    </g>
                </g>
            </g>
        </g>
        <path d="M42,34.8409201 L42,13.9952381 L17.995,13.9952381 L17.995,34.8409201 L42,34.8409201 Z M13.995,38.8409201 L13.995,9.9952381 L46,9.9952381 L46,38.8409201 L13.995,38.8409201 Z" id="Path-2" fill="#0C0C0C" fill-rule="nonzero"></path>
        <path d="M9.77144427,36.4053716 L5.77144427,32.4053716 L9.77144427,32.4053716 L9.77144427,36.4053716 Z M9.77144427,11.5596896 L33.7764443,11.5596896 L33.7764443,14.6591633 L37.7764443,14.6591633 L37.7764443,7.5596896 L5.77144427,7.5596896 L5.77144427,36.4053716 L13.2084391,36.4053716 L13.2084391,32.4053716 L9.77144427,32.4053716 L9.77144427,11.5596896 Z M5.77144427,11.5596896 L9.77144427,7.5596896 L9.77144427,11.5596896 L5.77144427,11.5596896 Z M33.7764443,11.5596896 L33.7764443,7.5596896 L37.7764443,11.5596896 L33.7764443,11.5596896 Z M33.7764443,11.5596896 L33.7764443,7.5596896 L37.7764443,11.5596896 L33.7764443,11.5596896 Z M33.7764443,11.5596896 L33.7764443,14.6591633 L37.7764443,14.6591633 L37.7764443,7.5596896 L5.77144427,7.5596896 L5.77144427,36.4053716 L13.2084391,36.4053716 L13.2084391,32.4053716 L9.77144427,32.4053716 L9.77144427,11.5596896 L33.7764443,11.5596896 Z M9.77144427,11.5596896 L9.77144427,7.5596896 L5.77144427,11.5596896 L9.77144427,11.5596896 Z M9.77144427,36.4053716 L5.77144427,32.4053716 L9.77144427,32.4053716 L9.77144427,36.4053716 Z" id="Path-2-Copy" fill="#0C0C0C" fill-rule="nonzero" transform="translate(21.773944, 21.982531) rotate(-10.000000) translate(-21.773944, -21.982531) "></path>
    </g>
</svg>