<svg height="50" viewBox="0 0 50 50" width="50" xmlns="http://www.w3.org/2000/svg"><path d="m45.8565647 25c0 11.5187625-9.3378022 20.8565647-20.8565647 20.8565647-11.5187626 0-20.85656467-9.3378022-20.85656467-20.8565647 0-11.5187626 9.33780207-20.85656467 20.85656467-20.85656467 5.5315049 0 10.8364537 2.19738176 14.7478183 6.10874637 3.9113646 3.9113646 6.1087464 9.2163134 6.1087464 14.7478183zm-16.985338 8.8228417c-.51627.1706705-1.0532287.2696444-1.596043.2941877-.4059469 0-.5709541-.0853144-.6220625-.1220879-.2584626-.1809254-.7301203-.5192412.0817735-2.1666922l1.5361731-3.0889706c.9111902-1.8313183 1.0455323-3.6023281.3767421-4.989423-.5475902-1.1326225-1.596043-1.9122198-2.9496861-2.1902272-.4840709-.0980576-.9767021-.1468439-1.4704623-.1456229-1.7585219.0151142-3.4607103.626567-4.8319363 1.7357073-.2751675.2442195-.3405542.6503254-.1561198.9696332.1844345.3193078.5672334.4627316.9139847.3424438.5156616-.1710938 1.0521964-.2700802 1.5945828-.2941877.4044866 0 .5665734.0853145.6176818.120617.2584626.1823963.740342.525125-.078853 2.1681632l-1.5347129 3.0919124c-.9126504 1.8342602-1.0455323 3.60527-.3767421 4.989423.54613 1.1340935 1.5931225 1.9122199 2.9496861 2.1902272.4808097.096953.9698929.1462197 1.4602406.1470939 1.7602443-.0160097 3.4636762-.6296126 4.8348568-1.7415911.2753791-.2436777.3414587-.649406.1578087-.9689437-.1836501-.3195377-.5658497-.4638347-.9127531-.3446042zm2.5510404-17.8277731c0-2.1357387-1.7187666-3.867097-3.8389726-3.867097-2.1202061 0-3.8389727 1.7313583-3.8389727 3.867097s1.7187666 3.867097 3.8389727 3.867097c2.120206 0 3.8389726-1.7313583 3.8389726-3.867097z"/></svg>