<svg height="50" viewBox="0 0 50 50" width="50" xmlns="http://www.w3.org/2000/svg"><g transform="translate(-.005 9.997143)"><path d="m31.5071429 13.0014286c0-3.84449374 1.5735032-6.67666475 4.2000421-8.25251309.9175602-.55050988 1.8769471-.89587274 2.8335382-1.08718184.5946083-.118916 1.0941715-.16173367 1.4678482-.16173367 1.9329967 0 3.5 1.56700338 3.5 3.5s-1.5670033 3.5-3.5 3.5c-.0475872 0-.3976356.0700064-.7000421.2514416-.499354.2995981-.8013864.8432307-.8013864 2.249987v9.5699864l-.1795295.5387165c-.0810054.243074-.2088078.5588833-.3930122.9273504-.2899204.5799329-.6551723 1.1567186-1.1136682 1.7069662-1.4036054 1.6844868-3.3749966 2.7598376-5.8145044 2.7598376-2.4395079 0-4.4108991-1.0753508-5.8145044-2.7598376-.458496-.5502476-.8237478-1.1270333-1.1136683-1.7069662-.1842043-.3684671-.3120068-.6842764-.3930122-.9273504l-.1795294-.5387165v-9.8595873l.047599-.2856623c-.0052066.0312474-.0042603.0241483-.0006026-.014268.0397668-.4176616.0090259-.9246538-.117527-1.3042674-.1570139-.4709856-.3392118-.60763-1.430898-.60763-1.0916861 0-1.2738841.1366444-1.430898.60763-.1265529.3796136-.1572938.8866058-.117527 1.3042674.0036577.0384163.004604.0455154-.0006026.014268l.047599.2856623v9.8595873l-.1795294.5387165c-.0810054.243074-.2088079.5588833-.3930122.9273504-.2899204.5799329-.6551723 1.1567186-1.1136682 1.7069662-1.4036054 1.6844868-3.3749966 2.7598376-5.8145044 2.7598376-2.4395079 0-4.41089909-1.0753508-5.81450445-2.7598376-.45849596-.5502476-.82374779-1.1270333-1.11366824-1.7069662-.18420433-.3684671-.31200682-.6842764-.39301221-.9273504l-.17952943-.5387165v-9.8595873l.04759906-.2856623c-.00520666.0312474-.00426035.0241483-.00060262-.014268.03976681-.4176616.00902588-.9246538-.11752703-1.3042674-.1570139-.4709856-.33921183-.60763-1.43089798-.60763-1.93299662 0-3.5-1.56700338-3.5-3.5s1.56700338-3.5 3.5-3.5c4.15956385 0 6.9781695 2.11389133 8.071602 5.39379855.4830676 1.44903045.5696007 2.87616975.4453078 4.18158915-.00501.052619-.0101941.1027343-.0154812.1502698v7.9562337c.0199987.0269849.0413729.0544004.0639687.0815179.1591178.1909596.2506284.2408766.4367456.2408766.1861171 0 .2776277-.049917.4367456-.2408766.0225957-.0271175.0439699-.054533.0639686-.0815179v-7.9562337c-.0052871-.0475355-.0104712-.0976508-.0154812-.1502698-.1242929-1.3054194-.0377598-2.7325587.4453078-4.18158915 1.0934325-3.27990722 3.9120382-5.39379855 8.071602-5.39379855 4.1595639 0 6.9781695 2.11389133 8.071602 5.39379855.4830677 1.44903045.5696007 2.87616975.4453078 4.18158915-.00501.052619-.0101941.1027343-.0154812.1502698v7.9562337c.0199987.0269849.0413729.0544004.0639687.0815179.1591178.1909596.2506284.2408766.4367456.2408766.1861171 0 .2776277-.049917.4367456-.2408766.0225957-.0271175.04397-.054533.0639687-.0815179z"/><path d="m38.7503061 2.25469388 7.3631649 9.99142852 7.1376514-9.99142852z" transform="matrix(0 -1 1 0 38.750306 53.251122)"/></g></svg>