<svg height="50" viewBox="0 0 50 50" width="50" xmlns="http://www.w3.org/2000/svg"><path d="m29 40c-10.4934102 0-19-8.5065898-19-19s8.5065898-19 19-19 19 8.5065898 19 19-8.5065898 19-19 19zm0-8c6.0751322 0 11-4.9248678 11-11s-4.9248678-11-11-11-11 4.9248678-11 11 4.9248678 11 11 11z"/><path d="m15.1715729 29.1715729c1.5620971-1.5620972 4.0947571-1.5620972 5.6568542 0 1.5620972 1.5620971 1.5620972 4.0947571 0 5.6568542l-10.545361 10.545361c-1.56209716 1.5620972-4.09475707 1.5620972-5.65685424 0-1.56209717-1.5620971-1.56209717-4.094757 0-5.6568542z"/></svg>