<svg height="50" viewBox="0 0 50 50" width="50" xmlns="http://www.w3.org/2000/svg"><g fill="none" fill-rule="nonzero" stroke="#000" stroke-linecap="round" stroke-width="4"><path d="m19.6877441 30.1875c-3.5418294 4.6666667-5.5210774 7.2916667-5.9377441 7.875-.625.875-.6870117 2.5.6252441 3.4375 1.3122559.9375 2.4997559.1875 3.1247559-.5625.4166667-.5 1.9791667-2.8125 4.6875-6.9375"/><path d="m6.1875 12.9375c4.0322024 6.0310925 6.5322024 9.5519259 7.5 10.5625s2.5094643 1.3022408 4.625.875l11.5 18.625c1.7326104.6259281 3.2117771.4592614 4.4375-.5s1.6841377-2.4175948 1.3752441-4.375l-13.2502441-17c.42615-2.5.3035208-4.1458333-.3678875-4.9375s-3.0071939-4.041748-7.0073566-9.75024414" stroke-linejoin="round"/><path d="m10.5 9.375 6.4372559 9.4997559"/><path d="m23.3361328 17.7340488c1.3759467.1643028 1.1540106.6407676 2.9207885 1.9830725 1.766778 1.342305 4.4499063 2.1987888 7.454232 2.1987888 5.3206415 0 9.6338737-2.6862915 9.6338737-6s-4.3132322-6.00000001-9.6338737-6.00000001c-3.1420761 0-5.9328253.93682511-7.6914192 2.38645381-.914057 1.2513162-1.7059277 1.8480337-2.3756123 1.7901523" transform="matrix(.60181502 -.79863551 .79863551 .60181502 .564707 32.964447)"/></g></svg>