<svg height="50" viewBox="0 0 50 50" width="50" xmlns="http://www.w3.org/2000/svg"><path d="m18.0946246 28.9783805c.6677782-.8798557 1.9223834-1.0517783 2.8022391-.3840001.8798556.6677783 1.0517783 1.9223835.384 2.8022391-3.5183509 4.6357317-5.504268 7.2695766-5.9033968 7.8283569-.1145565.1603792-.079404.4763408.1603968.6476589.1298235.0927483.1820679.076847.4256937-.2155041.3413372-.4096045 1.9220072-2.7489963 4.5520889-6.7548129.6062329-.9233393 1.8461961-1.1804049 2.7695354-.574172s1.1804049 1.8461961.574172 2.7695354c-2.786585 4.2441834-4.3309149 6.5297916-4.8229111 7.1201871-1.4402189 1.7282626-3.7105321 2.4192666-5.823818.9094959-2.1209435-1.5152415-2.4356156-4.3436074-1.0900915-6.2273411.4342045-.6078864 2.4067835-3.2240415 5.9720915-7.9216431z"/><path d="m12.2430458 24.883312c-1.0867159-1.1347486-3.59733592-4.6705384-7.71818504-10.8342227-.61391381-.9182503-.36720035-2.1603147.55104995-2.7742285.91825029-.6139139 2.16031471-.3672004 2.77422853.5510499 3.94355566 5.8985008 6.43293566 9.4043777 7.28181496 10.2907773.4215676.4402009 1.2778267.6021958 2.784631.2978908.8207021-.1657441 1.6577827.197267 2.097661.9096786l11.0999361 17.9770705c.7884738.1699966 1.3789746.0339264 1.9032012-.3763379.5265366-.4120722.7682721-1.0141863.6902953-2.006864l-12.9101223-16.5636253c-.3455175-.4432973-.4885621-1.0115197-.3941182-1.5655731.1879312-1.1024943.2524678-1.9840087.2047309-2.6246968-.032615-.4377322-.1039366-.6566722-.1263685-.6831219-.7321746-.863317-3.06023-4.1026425-7.1199402-9.89611673-.6338773-.90458466-.4144256-2.15175446.4901591-2.78563172.9045846-.63387726 2.1517544-.41442555 2.7856317.4901591 3.9406153 5.62351795 6.2841309 8.88435525 6.894773 9.60437155 1.055709 1.2448008 1.2906142 3.1037512.9491511 5.6804819l12.7211123 16.3211263c.2083027.2672514.3452908.5830442.3981089.9177434.4148051 2.6285491-.2734511 4.8180664-2.1181801 6.2617673-1.7978013 1.4069749-3.9994539 1.6550485-6.3496582.8060065-.4246937-.1534261-.784969-.4460557-1.0222045-.8302739l-10.8143155-17.5144893c-2.0856754.1616681-3.8099932-.354584-5.0533925-1.6529413z"/><path d="m8.84431942 10.4969277c-.61962357-.91440711-.38065428-2.1579847.53375285-2.77760828.91440713-.61962357 2.15798473-.38065428 2.77760833.53375285l6.4372558 9.49975583c.6196236.9144072.3806543 2.1579848-.5337528 2.7776083-.9144071.6196236-2.1579847.3806543-2.7776083-.5337528z"/><path d="m23.633291 12.0951733c-.0856067.0032643-.1185544.012464-.0966327-.0040552.218386-.1645657.5176208-.4887271.8680683-.9684791l.1485487-.2033587.1943255-.1601847c2.1906092-1.80574363 5.4628715-2.84318551 8.9635525-2.84318551 6.2850312 0 11.6338737 3.33127211 11.6338737 8.00000001s-5.3488425 8-11.6338737 8c-3.3417895 0-6.4776957-.9451226-8.6641435-2.6062706-.7899035-.6001271-1.9776844-1.7436995-1.7851114-1.5835247-.0019302-.0016054.0516446.019445-.1629024-.0061742-1.0967778-.130967-1.879722-1.1262508-1.748755-2.2230286.0936798-.7845172.6295819-1.4084635 1.3285322-1.6522253-.6711543-.3702512-1.0974805-1.1115119-1.0272227-1.9243901.09104-1.0533286.9828963-1.8451217 2.0241573-1.8276137zm2.1864914 4.5556807c-.014163-.0117803 1.0862821 1.0477069 1.6470505 1.4737492 1.4514426 1.1027297 3.7361339 1.7913069 6.2443204 1.7913069 4.3562518 0 7.6338737-2.0413109 7.6338737-4s-3.2776219-4-7.6338737-4c-2.514793 0-4.8004994.6928462-6.2437332 1.7907419-.9058173 1.1910675-1.8166815 1.9838809-2.8343467 2.2711212.4388707.1503655.819272.3674608 1.186709.6730808z" transform="matrix(.60181502 -.79863551 .79863551 .60181502 .564668 32.964368)"/></svg>