<?xml version="1.0" encoding="UTF-8"?>
<svg width="50px" height="50px" viewBox="0 0 50 50" version="1.1" xmlns="http://www.w3.org/2000/svg" xmlns:xlink="http://www.w3.org/1999/xlink">
    <!-- Generator: Sketch 52.4 (67378) - http://www.bohemiancoding.com/sketch -->
    <title>028-plus-02</title>
    <desc>Created with Sketch.</desc>
    <g id="028-plus-02" stroke="none" stroke-width="1" fill="none" fill-rule="evenodd">
        <path d="M20.75,4.5 C20.75,2.01471863 22.7647186,0 25.25,0 C27.7352814,0 29.75,2.01471863 29.75,4.5 L29.75,45.5 C29.75,47.9852814 27.7352814,50 25.25,50 C22.7647186,50 20.75,47.9852814 20.75,45.5 L20.75,4.5 Z" id="Line-3" fill="#000000" fill-rule="nonzero"></path>
        <path d="M4.5,30 C2.01471863,30 0,27.9852814 0,25.5 C0,23.0147186 2.01471863,21 4.5,21 L45.5,21 C47.9852814,21 50,23.0147186 50,25.5 C50,27.9852814 47.9852814,30 45.5,30 L4.5,30 Z" id="Line" fill="#000000" fill-rule="nonzero"></path>
    </g>
</svg>