<svg height="50" viewBox="0 0 50 50" width="50" xmlns="http://www.w3.org/2000/svg"><path d="m44.2887635 11.8986204c.9374903.9882716 1.4636881 2.3011304 1.4636881 3.6699942 0 1.4571247-.5962412 2.8507895-1.5839851 3.7924066l-7.6542323 7.6529852 1.6791329 10.0727647c.4598434 1.401184.1537509 2.6431901-.4906321 3.9182523-.6893181 1.288335-1.8716954 2.2420011-3.2767664 2.6429293-1.3694114.3907531-2.836216.2238989-4.0812665-.4611673l-6.0421747-3.1583547-3.4657759-1.8510795-9.6654648 5.0684588c-1.27642183.6382109-2.57941527.9333828-4.08575425.3407519-2.60301902-.8244437-4.03647132-3.5713023-3.56804763-6.1289116l1.10078628-6.752618.68642363-3.8842038-7.70786476-7.478091c-.893604-.7968414-1.45061071-1.9044385-1.55779275-3.0963367-.30257433-2.5188332 1.16284977-4.9338697 3.56408863-5.8163473.28973573-.1064806.59082329-.1790651.89725135-.2163042l6.65059872-.80698002 4.12599798-.60579254 4.6931524-9.83047103c.047645-.09979902.0994081-.19757925.1551561-.29308864.892539-1.52912831 2.4779503-2.52361359 4.2431191-2.66159285.103709-.0081067.2076947-.01216468.3117201-.01216468h.1705905c2.0751689-.0795705 3.9917777 1.11310115 4.8379713 3.00733012l3.0009978 6.00030427 1.8352672 3.79560123 10.69288 1.54299274c1.1816492.1102969 2.2792691.6635287 3.0709351 1.5487325zm-5.7117233 5.59839c-.1179314-.1126562-.2288369-.2323954-.332105-.3585383.0491444.0591753.1072976.1243079.1677252.1868338.0520014.0594052.1068248.1167105.1643798.1717045zm-3.8557535-.0017177-7.8633452-1.1346882c-2.3435718-.3381797-3.4217145-2.0877234-3.4335647-3.8616831l-1.9131193-3.95671037-.637439-1.27435216-3.4706029 7.26966823c-1.0077203 2.1108126-2.9852172 2.633666-4.6780655 2.1365213l-4.51055502.6610773-1.06484307.1294067 5.15802589 5.0042636c.7279712.7062702 1.1604533 1.6627166 1.2099265 2.6757872.03923.8033176-.0333127 1.6079172-.2153292 2.3907693l-.7972182 4.5091458-.2617837 1.6063998 6.5764031-3.449081c.8752712-.4590475 1.8895015-.5777986 2.8471407-.3333573.8174712.2086628 1.6043102.5228272 2.2724367.8972786l4.0999909 2.1891523 1.4841611.7757558-1.2186842-7.3106303c-.1762808-1.0574713.0793038-2.1414463.7094241-3.0087807.4276152-.5885945.9070358-1.1377491 1.3704321-1.580134zm-23.3447549 21.4556123c.0068722-.0337474.0130632-.0675481.0185759-.1013828zm-7.40985439-23.7656614c.02555434.1546333.04199308.3106039.04924214.4671042-.00408484-.0771195-.01184199-.1639699-.02297885-.2500903-.0055599-.0721237-.0142825-.1445163-.02626329-.2170139zm.04944468.4773847c.00160282.0326742.0027207.0654252.00334893.0982436-.0006929-.0361963-.00187702-.0723743-.00355147-.1085241zm6.10078011-4.4240965c.0158606-.0370083.0208561-.0494263.0122969-.0254393-.0571602.1601899-.1073278.339994-.14621117.613678-.12130898.8538435-.01534305 1.7612219.65002667 2.7320935.8314531 1.2132113 2.0407151 1.7004197 3.1963817 1.7102571.4176732.0035553.6954991-.0461272.9665266-.1206819.0549004-.015102.062038-.0174102.0495679-.0131274-.1008167.0349919-.1905083.0659853-.2767574.0949315-.1547539.0519371-.3036644.0991757-.4613575.1453402-.2941403.0861092-.5936639.1608109-.9086262.223689l-.2020319.0349743-.2715677.0398016c-2.0896854-.6136852-3.74562556-2.7816355-2.6082479-5.4355166zm10.5632194-10.01943336v.11693872l.109128.06369707-.010437-.13351981zm.31172 2.77239643c.8497347-.06642184 1.6129359-.54515714 2.0425953-1.28126428l-2.2451873-1.31049636zm-.31172.01216467h.2750654c.1090477 0 .2180497-.00445926.3267329-.01336662-.2035615.0166833-.4050238.01184854-.6017983-.01288407zm7.3147919 4.43815322c.0712552.01017931.1029789.01422642.0800786.01219773-.0685163-.00606972-.147673-.01030466-.2506722-.01040895-.2233133-.00022612-.4599367.01848628-.743838.07708836-1.5080011.31127723-2.9069197 1.4991404-3.111991 3.4506742-.0672538.6400118.0186748 1.173726.183249 1.6583074.0773298.2276941.1586945.4040384.2459421.5642567.0548885.1007951.0681373.1215923.0771839.1350854-.0731513-.1082515-.1368743-.2032646-.2036935-.3058252-.247972-.3806116-.4729476-.7662005-.71802-1.2579335l-.1287756-.2663335c-.0148223-2.2188798 1.6385872-4.47595858 4.5705367-4.05710864z" transform="translate(4 5)"/></svg>