<svg height="50" viewBox="0 0 50 50" width="50" xmlns="http://www.w3.org/2000/svg"><path d="m40.7899085 14.3295697-13.3606804-1.927959c.9627292.1375328.4125982 0-.2750655-1.3778279l-2.0654916-4.27101671-3.0307215-6.05894226c-.1743592-.44873804-.6229494-.72948837-1.1027625-.69016429h-.2750654c-.4577171.03577871-.8688222.2936537-1.1002619.69016429l-5.7863774 12.12038507c.4125982-.9627291 0-.4125982-1.377828-.1375327l-4.68361488.6876637-6.74910655.8201952c-.6760546.2484564-1.08016553.9422677-.96272917 1.6528935.00412435.2154527.10517792.4175598.27506548.5501309l9.22719643 8.952131c.02263756.4635526-.02371255.9278964-.13753274 1.377828l-.82769703 4.6836149-1.1002619 6.7516071c-.14003333.6876637.27506548 1.5153607.96272917 1.6528934.27506547.1375328.68766369 0 .96272916-.1375327l11.29518873-5.9239101c.481197.1228275.9443626.3077575 1.3778279.5501309l4.1309834 2.205525 6.0614428 3.1682542c.3272557.1889387.7171495.2370669 1.0805267.1333795.3633773-.1036874.6691618-.3503231.8474323-.6835104.1400333-.2775661.277566-.6901643.1400333-.9652298l-2.0654917-12.3904494c.2873784-.3955644.6095726-.7646233.9627292-1.1027625l8.1269345-8.1269345c.2633952-.251489.4124122-.5998041.4124122-.9639795s-.149017-.7124904-.4124122-.9639795c-.1318621-.1707516-.3344123-.2720268-.5501309-.2750654z" fill="none" stroke="#000" stroke-linejoin="round" stroke-width="8" transform="translate(4 5)"/></svg>