<svg height="50" viewBox="0 0 50 50" width="50" xmlns="http://www.w3.org/2000/svg"><path d="m48.8473214 18.2547529-15.9998752-2.3215251c1.1529013.1656082.4941005 0-.3294004-1.6590925l-2.4734975-5.14288553-3.6293934-7.29579141c-.2088012-.5403417-.7460034-.87840332-1.3205961-.83105177h-.3294004c-.5481319.04308244-1.0404444.35359903-1.3176015.83105177l-6.9293864 14.59459384c.4941006-1.1592569 0-.4968244-1.6499965-.1656081l-5.60879027.8280407-8.08228774.9876267c-.80959868.2991753-1.29353545 1.1346186-1.15290136 1.9903088.00493904.2594344.12595418.5027989.32940039.6624326l11.04988578 10.7795845c.0271093.5581804-.0283966 1.1173136-.1647002 1.6590925l-.9911957 5.63971-1.31760156 8.1298542c-.16769475.8280407.32940039 1.8247006 1.15290136 1.9903088.3294004.1656081.823501 0 1.1529014-.1656082l13.5263778-7.1331943c.57625.147901 1.1309067.3705819 1.6499965.6624326l4.9469949 2.6557523 7.2587868 3.8150094c.3918999.227508.8588112.2854609 1.2939679.1606071.4351568-.1248538.8013444-.4218368 1.0148293-.8230396.1676948-.3342274.332395-.8310518.1676948-1.1622681l-2.4734975-14.9197881c.3441456-.4763134.7299842-.9207105 1.1529014-1.3278761l9.7322842-9.7859357c.3154248-.302827.4938778-.7222457.4938778-1.1607625s-.178453-.8579355-.4938778-1.1607626c-.1579094-.2056082-.4004703-.3275573-.6588008-.3312162z"/></svg>