<svg height="50" viewBox="0 0 50 50" width="50" xmlns="http://www.w3.org/2000/svg"><path d="m21.0014109 32.5758349 13.954304-13.954304c.0578874-.0578874.1175382-.1139841.1788683-.1682107 2.2363807-1.9773569 3.2106701-5.0204188 2.5385973-7.9289677-.6720729-2.90854898-2.8826246-5.2156957-5.7597888-6.01147551-2.8771641-.79577983-5.9590893.04754831-8.0302295 2.19736628-1.5768204 1.63672018-4.1988039 1.63246054-5.770298-.00937435-2.0687145-2.16131105-5.1565037-3.01327345-8.0408221-2.21857052-2.88431834.79470294-5.10002235 3.10791237-5.76985036 6.0237614-.669828 2.9158491.31424073 5.9641094 2.56258475 7.937886.0653326.0573542.12877803.1168231.1902352.1783118zm-5.0950989 6.2188885-14.42392252-14.4313358c-4.38440947-3.9163645-6.29497254-9.911633-4.97711634-15.64843368 1.32828482-5.78219781 5.72207842-10.36934698 11.44175016-11.94526175 4.4981302-1.23934909 9.2458072-.4591459 13.0638629 2.01526129 3.8156455-2.45526999 8.5507965-3.22288152 13.0351155-1.98258715 5.7054847 1.57805024 10.0890613 6.15317698 11.4217976 11.92089857 1.3228619 5.72498762-.5708522 11.71277962-4.9359369 15.63582692l-14.4310115 14.4310014c-1.3538611 1.3589943-3.1952089 2.1192378-5.112926 2.1116056-1.9089478.0007854-3.7398137-.7592692-5.0816129-2.1069754z" transform="translate(3.995 6.480799)"/></svg>