<?xml version="1.0" encoding="UTF-8"?>
<svg width="50px" height="50px" viewBox="0 0 50 50" version="1.1" xmlns="http://www.w3.org/2000/svg" xmlns:xlink="http://www.w3.org/1999/xlink">
    <!-- Generator: Sketch 52.4 (67378) - http://www.bohemiancoding.com/sketch -->
    <title>032-coeur-contour</title>
    <desc>Created with Sketch.</desc>
    <g id="032-coeur-contour" stroke="none" stroke-width="1" fill="none" fill-rule="evenodd">
        <g id="Group" transform="translate(3.995000, 6.480799)" fill="#000000" fill-rule="nonzero">
            <g id="133-coeur-contour">
                <g id="ICONSET-01">
                    <g id="133-coeur-contour">
                        <path d="M21.0014109,32.5758349 L34.9557149,18.6215309 C35.0136023,18.5636435 35.0732531,18.5075468 35.1345832,18.4533202 C37.3709639,16.4759633 38.3452533,13.4329014 37.6731805,10.5243525 C37.0011076,7.61580352 34.7905559,5.3086568 31.9133917,4.51287699 C29.0362276,3.71709716 25.9543024,4.5604253 23.8831622,6.71024327 C22.3063418,8.34696345 19.6843583,8.34270381 18.1128642,6.70086892 C16.0441497,4.53955787 12.9563605,3.68759547 10.0720421,4.4822984 C7.18772376,5.27700134 4.97201975,7.59021077 4.30219174,10.5060598 C3.63236374,13.4219089 4.61643247,16.4701692 6.86477649,18.4439458 C6.93010909,18.5013 6.99355452,18.5607689 7.05501169,18.6222576 L21.0014109,32.5758349 Z M15.906312,38.7947234 L1.48238948,24.3633876 C-2.90201999,20.4470231 -4.81258306,14.4517546 -3.49472686,8.71495392 C-2.16644204,2.93275611 2.22735156,-1.65439306 7.9470233,-3.23030783 C12.4451535,-4.46965692 17.1928305,-3.68945373 21.0108862,-1.21504654 C24.8265317,-3.67031653 29.5616827,-4.43792806 34.0460017,-3.19763369 C39.7514864,-1.61958345 44.135063,2.95554329 45.4677993,8.72326488 C46.7906612,14.4482525 44.8969471,20.4360445 40.5318624,24.3590918 L26.1008509,38.7900932 C24.7469898,40.1490875 22.905642,40.909331 20.9879249,40.9016988 C19.0789771,40.9024842 17.2481112,40.1424296 15.906312,38.7947234 Z" id="Shape"></path>
                    </g>
                </g>
            </g>
        </g>
    </g>
</svg>