<?xml version="1.0" encoding="UTF-8"?>
<svg width="50px" height="50px" viewBox="0 0 50 50" version="1.1" xmlns="http://www.w3.org/2000/svg" xmlns:xlink="http://www.w3.org/1999/xlink">
    <!-- Generator: Sketch 52.4 (67378) - http://www.bohemiancoding.com/sketch -->
    <title>033-coeur</title>
    <desc>Created with Sketch.</desc>
    <g id="033-coeur" stroke="none" stroke-width="1" fill="none" fill-rule="evenodd">
        <g id="Group" transform="translate(-0.005000, 2.480799)" fill="#000000" fill-rule="nonzero">
            <g id="200-coeur" transform="translate(0.005000, 0.519201)">
                <g id="ICONSET-01">
                    <g id="200-coeur">
                        <path d="M24.9881657,44.8067114 C23.9793928,44.8086334 23.0114932,44.3999404 22.2988166,43.6711409 L5.0295858,26.0305369 C1.05846615,22.4488456 -0.67247358,16.934936 0.519680361,11.6642304 C1.7118343,6.39352477 5.6356424,2.21240822 10.7430308,0.770471441 C15.8504192,-0.671465344 21.3212286,0.857328016 24.9970414,4.75369128 C27.7106302,1.84801811 31.4756423,0.209763774 35.408284,0.223489933 C41.4205213,0.216761948 46.8078157,4.01327405 48.9328396,9.75445949 C51.0578633,15.495645 49.4759577,21.9801679 44.9615385,26.033557 L27.6863905,43.6711409 C26.9719186,44.4027449 26.0001414,44.8117254 24.9881657,44.8067114 Z" id="Shape"></path>
                    </g>
                </g>
            </g>
        </g>
    </g>
</svg>