<?xml version="1.0" encoding="UTF-8"?>
<svg width="50px" height="50px" viewBox="0 0 50 50" version="1.1" xmlns="http://www.w3.org/2000/svg" xmlns:xlink="http://www.w3.org/1999/xlink">
    <!-- Generator: Sketch 52.4 (67378) - http://www.bohemiancoding.com/sketch -->
    <title>035-fleche-precedent</title>
    <desc>Created with Sketch.</desc>
    <g id="035-fleche-precedent" stroke="none" stroke-width="1" fill="none" fill-rule="evenodd">
        <g id="Group-2-Copy" transform="translate(25.500000, 25.500000) rotate(-270.000000) translate(-25.500000, -25.500000) translate(12.000000, 6.000000)" fill="#000000" fill-rule="nonzero">
            <path d="M9.5,0 C9.5,-2.209139 11.290861,-4 13.5,-4 C15.709139,-4 17.5,-2.209139 17.5,0 L17.5,38.5 C17.5,40.709139 15.709139,42.5 13.5,42.5 C11.290861,42.5 9.5,40.709139 9.5,38.5 L9.5,0 Z" id="Path-3"></path>
            <path d="M13.6273289,33.0205034 L24.0106965,21.3421692 C25.478576,19.6912224 28.0068841,19.5428171 29.6578308,21.0106965 C31.3087776,22.478576 31.4571829,25.0068841 29.9893035,26.6578308 L16.6525971,41.6578308 C15.0742641,43.4330064 12.3057496,43.4496581 10.7061773,41.6935966 L-2.95711637,26.6935966 C-4.44474871,25.0604263 -4.3267669,22.530516 -2.69359662,21.0428836 C-1.06042635,19.5552513 1.46948404,19.6732331 2.95711637,21.3064034 L13.6273289,33.0205034 Z" id="Path-4"></path>
        </g>
    </g>
</svg>