<svg height="50" viewBox="0 0 50 50" width="50" xmlns="http://www.w3.org/2000/svg"><g transform="matrix(0 1 -1 0 45 12)"><path d="m9.5 0c0-2.209139 1.790861-4 4-4s4 1.790861 4 4v38.5c0 2.209139-1.790861 4-4 4s-4-1.790861-4-4z"/><path d="m13.6273289 33.0205034 10.3833676-11.6783342c1.4678795-1.6509468 3.9961876-1.7993521 5.6471343-.3314727 1.6509468 1.4678795 1.7993521 3.9961876.3314727 5.6471343l-13.3367064 15c-1.578333 1.7751756-4.3468475 1.7918273-5.9464198.0357658l-13.66329367-15c-1.48763234-1.6331703-1.36965053-4.1630806.26351975-5.650713 1.63317027-1.4876323 4.16308066-1.3696505 5.65071299.2635198z"/></g></svg>