<?xml version="1.0" encoding="UTF-8"?>
<svg width="50px" height="50px" viewBox="0 0 50 50" version="1.1" xmlns="http://www.w3.org/2000/svg" xmlns:xlink="http://www.w3.org/1999/xlink">
    <!-- Generator: Sketch 52.2 (67145) - http://www.bohemiancoding.com/sketch -->
    <title>037-citation-02</title>
    <desc>Created with Sketch.</desc>
    <g id="037-citation-02" stroke="none" stroke-width="1" fill="none" fill-rule="evenodd">
        <g id="Group" transform="translate(3.995000, 5.745417)" fill="#000000" fill-rule="nonzero">
            <g id="078-citation-02">
                <g id="ICONSET-01">
                    <g id="078-citation-02">
                        <path d="M14.7785179,18.3568696 C9.0846625,24.1082387 14.4034286,26.9464143 16.778994,33.4254565 C16.778994,33.4254565 14.7785179,36.0710863 13.5857339,37.0763256 C-2.28054286,27.7566071 0.170040476,9.25220238 0.170040476,9.25220238 L0.20504881,9.25220238 C0.528984436,4.62751755 4.07086337,0.873705926 8.66894559,0.281857928 C13.2670278,-0.309990067 17.6440604,2.42452878 19.1285782,6.81643625 C20.613096,11.2083437 18.7927303,16.037658 14.7785179,18.3568696 Z M41.9774923,11.1676583 C41.9777843,5.92966231 37.8313576,1.63147586 32.5967333,1.44356282 C27.362109,1.25564978 22.9181588,5.24545805 22.5428661,10.4699923 L22.5053571,10.4699923 C22.5053571,10.4699923 20.0572744,28.974397 35.9210506,38.3066185 C37.1088333,37.3063804 39.1168113,34.6557494 39.1168113,34.6557494 C36.7412458,28.1767071 31.4224798,25.3385315 37.1163351,19.5871625 C40.123951,17.8513103 41.9770194,14.6427567 41.9774923,11.1701589 L41.9774923,11.1676583 Z" id="Shape"></path>
                    </g>
                </g>
            </g>
        </g>
    </g>
</svg>