<svg height="50" viewBox="0 0 50 50" width="50" xmlns="http://www.w3.org/2000/svg"><g fill="#000" fill-rule="nonzero"><path d="m30.8209277 32.3803017c3.4918809-5.8253654 4.6569486-8.5174388 4.9427466-12.4628387.4664352-6.3947351-3.5956708-11.3785366-9.1573252-11.86829971-3.480792-.30678167-6.3973416.84126144-8.5238494 2.99027471-2.159246 2.200812-3.2945302 5.0136529-3.0502457 8.6509647.2793618 4.1603679 1.7216852 7.5798985 4.9144987 12.7561265 1.8650383 3.0228341 3.6944737 5.5798201 5.5682489 7.7294156 1.6366979-1.9739409 3.3659952-4.5518616 5.3059261-7.7956431zm-8.148571 16.3522751c-3.4091261-3.1612816-6.470233-7.1196432-9.5342523-12.0857727-3.82005271-6.1931158-5.70049229-10.6513536-6.08787223-16.4203726-.40322595-6.0038953 1.61994002-11.01659978 5.33369603-14.80179473 3.7672637-3.8072251 8.999535-5.86680705 14.9244868-5.3446079 9.9929788.87998857 17.2131402 9.7384111 16.4342075 20.41741853-.4025853 5.5576415-1.9595938 9.155356-6.0579279 15.9924391-3.3608131 5.6196603-6.2070723 9.5411456-9.4254305 12.3300641-.7167217.6210864-1.6308068.9673092-2.5791457.9768884l-.2475589.0025006c-1.0226057.0103294-2.0103304-.3714063-2.7602028-1.0667628z"/><path d="m18.0398521 17.5056619c-.3627437 3.9070934 1.8097969 6.5577728 4.117631 7.6271033 5.1215487 2.3631613 11.0097611-1.5754409 10.3156462-7.8161562-.3980377-3.6412378-3.6411623-6.4514306-7.4058536-6.3116102-3.7646912.1398204-6.7038954 2.9539517-7.0313451 6.4986938z"/></g></svg>