<?xml version="1.0" encoding="UTF-8"?>
<svg width="50px" height="50px" viewBox="0 0 50 50" version="1.1" xmlns="http://www.w3.org/2000/svg" xmlns:xlink="http://www.w3.org/1999/xlink">
    <!-- Generator: Sketch 52.2 (67145) - http://www.bohemiancoding.com/sketch -->
    <title>038-pin-contour</title>
    <desc>Created with Sketch.</desc>
    <g id="038-pin-contour" stroke="none" stroke-width="1" fill="none" fill-rule="evenodd">
        <g id="Group-Copy" transform="translate(11.000000, 4.000000)">
            <g id="050-pin">
                <g id="ICONSET-01">
                    <g id="050-pin"></g>
                </g>
            </g>
        </g>
        <path d="M30.8209277,32.3803017 C34.3128086,26.5549363 35.4778763,23.8628629 35.7636743,19.917463 C36.2301095,13.5227279 32.1680035,8.5389264 26.6063491,8.04916329 C23.1255571,7.74238162 20.2090075,8.89042473 18.0824997,11.039438 C15.9232537,13.24025 14.7879695,16.0530909 15.032254,19.6904027 C15.3116158,23.8507706 16.7539392,27.2703012 19.9467527,32.4465292 C21.811791,35.4693633 23.6412264,38.0263493 25.5150016,40.1759448 C27.1516995,38.2020039 28.8809968,35.6240832 30.8209277,32.3803017 Z M22.6723567,48.7325768 C19.2632306,45.5712952 16.2021237,41.6129336 13.1381044,36.6468041 C9.31805169,30.4536883 7.43761211,25.9954505 7.05023217,20.2264315 C6.64700622,14.2225362 8.67017219,9.20983172 12.3839282,5.42463677 C16.1511919,1.61741167 21.3834632,-0.442170281 27.308415,0.080028871 C37.3013938,0.960017437 44.5215552,9.81843997 43.7426225,20.4974474 C43.3400372,26.0550889 41.7830287,29.6528034 37.6846946,36.4898865 C34.3238815,42.1095468 31.4776223,46.0310321 28.2592641,48.8199506 C27.5425424,49.441037 26.6284573,49.7872598 25.6801184,49.796839 L25.4325595,49.7993396 C24.4099538,49.809669 23.4222291,49.4279333 22.6723567,48.7325768 Z" id="Shape" fill="#000000" fill-rule="nonzero"></path>
        <path d="M18.0398521,17.5056619 C17.6771084,21.4127553 19.849649,24.0634347 22.1574831,25.1327652 C27.2790318,27.4959265 33.1672442,23.5573243 32.4731293,17.316609 C32.0750916,13.6753712 28.831967,10.8651784 25.0672757,11.0049988 C21.3025845,11.1448192 18.3633803,13.9589505 18.0359306,17.5036926 L18.0398521,17.5056619 Z" id="Shape-path" fill="#000000" fill-rule="nonzero"></path>
    </g>
</svg>