<?xml version="1.0" encoding="UTF-8"?>
<svg width="50px" height="50px" viewBox="0 0 50 50" version="1.1" xmlns="http://www.w3.org/2000/svg" xmlns:xlink="http://www.w3.org/1999/xlink">
    <!-- Generator: Sketch 52.2 (67145) - http://www.bohemiancoding.com/sketch -->
    <title>039-pin</title>
    <desc>Created with Sketch.</desc>
    <g id="039-pin" stroke="none" stroke-width="1" fill="none" fill-rule="evenodd">
        <g id="Group" transform="translate(7.000000, -0.000000)" fill="#000000" fill-rule="nonzero">
            <g id="050-pin">
                <g id="ICONSET-01">
                    <g id="050-pin">
                        <path d="M17.7836207,49.875 L17.4818966,49.875 C13.4146552,46.1547619 9.9387931,41.4940476 6.80387931,36.4821429 C3.81681034,31.7053571 0.642672414,26.1220238 0.165948276,19.1190476 C-0.271551724,12.6934524 2.2387931,8.16369048 5.21681034,5.16964286 C8.34568966,2.05059524 13.1400862,-0.339285714 19.3706897,0.202380952 C28.5189655,0.99702381 35.5793103,9.01190476 34.8099138,19.4166667 C34.3150862,26.1547619 31.3280172,31.1577381 28.1719828,36.3511905 C25.4021552,40.9196429 21.7603448,46.4702381 17.7806034,49.8720238 L17.7836207,49.875 Z M6.38448276,16.2857143 C5.8262931,22.1904762 9.16939655,26.1964286 12.7206897,27.8125 C20.6017241,31.3839286 29.6625,25.4315476 28.5943966,16 C27.9818966,10.4970238 22.9913793,6.25 17.1982759,6.46130952 C11.4051724,6.67261905 6.88232759,10.9255952 6.37844828,16.2827381 L6.38448276,16.2857143 Z" id="Shape"></path>
                    </g>
                </g>
            </g>
        </g>
    </g>
</svg>