<svg height="50" viewBox="0 0 50 50" width="50" xmlns="http://www.w3.org/2000/svg"><path d="m17.7836207 49.875h-.3017241c-4.0672414-3.7202381-7.5431035-8.3809524-10.67801729-13.3928571-2.98706897-4.7767858-6.1612069-10.3601191-6.63793103-17.3630953-.4375-6.4255952 2.07284482-10.95535712 5.05086206-13.94940474 3.12887932-3.11904762 7.92327586-5.50892857 14.15387936-4.96726191 9.1482758.79464286 16.2086206 8.80952381 15.4392241 19.21428575-.4948276 6.7380952-3.4818966 11.7410714-6.637931 16.9345238-2.7698276 4.5684524-6.411638 10.1190476-10.3913794 13.5208333zm-11.39913794-33.5892857c-.55818966 5.9047619 2.78491379 9.9107143 6.33620694 11.5267857 7.8810344 3.5714286 16.9418103-2.3809524 15.8737069-11.8125-.6125-5.5029762-5.6030173-9.75-11.3961207-9.53869048-5.7931035.21130953-10.31594831 4.46428568-10.81982762 9.82142858z" transform="translate(7)"/></svg>