<svg height="50" viewBox="0 0 50 50" width="50" xmlns="http://www.w3.org/2000/svg"><g transform="translate(3.995 3.995)"><path d="m34.0556065 15.7837571h-26.10121305c-5.21790874 0-7.82769662 2.6106215-7.82936369 7.8318643v13.0506066h7.82936369v-8.286228h26.10121305v8.286228h7.8293637v-13.0506066c0-4.4685637-2.6106214-7.8318643-7.8293637-7.8318643z"/><path d="m12.5075 4.005c-.5522847 0-1 .44771525-1 1v32c0 .5522847.4477153 1 1 1h16.995c.5522847 0 1-.4477153 1-1v-32c0-.55228475-.4477153-1-1-1zm0-4h16.995c2.7614237 0 5 2.23857625 5 5v32c0 2.7614237-2.2385763 5-5 5h-16.995c-2.76142375 0-5-2.2385763-5-5v-32c0-2.76142375 2.23857625-5 5-5z"/></g></svg>