<svg height="50" viewBox="0 0 50 50" width="50" xmlns="http://www.w3.org/2000/svg"><g transform="translate(8.995 19.495595)"><path d="m5.52500536.26565774h-2.61812322c-2.62062381 0-2.62062381 2.61812321-2.62062381 2.61812321v2.62062381h7.85937084v-2.62062381c0-2.61812321-2.62062381-2.61812321-2.62062381-2.61812321z"/><path d="m29.1031179.26565774h-15.7187417c-2.6181232 0-2.6181232 2.61812321-2.6181232 2.61812321v15.72124225h18.3368649c2.6206238 0 2.6206238-2.6206238 2.6206238-2.6206238v-13.10061845c0-2.61812321-2.6206238-2.61812321-2.6206238-2.61812321z"/></g><path d="m4 7c0-1.1045695.8954305-2 2-2s2 .8954305 2 2v36.125c0 1.1045695-.8954305 2-2 2s-2-.8954305-2-2z"/><path d="m42.25 20c0-1.1045695.8954305-2 2-2s2 .8954305 2 2v23.125c0 1.1045695-.8954305 2-2 2s-2-.8954305-2-2z"/><path d="m15.5 27c1.1045695 0 2 .8954305 2 2s-.8954305 2-2 2h-9.5c-1.1045695 0-2-.8954305-2-2s.8954305-2 2-2z"/><path d="m15.5 34.25c1.1045695 0 2 .8954305 2 2s-.8954305 2-2 2h-9.5c-1.1045695 0-2-.8954305-2-2s.8954305-2 2-2z"/></svg>