<svg height="50" viewBox="0 0 50 50" width="50" xmlns="http://www.w3.org/2000/svg"><g fill="none"><path d="m40.3843065 6.10067177c1.6012548-1.52193242 4.1330982-1.45762895 5.6550307.14362582 1.5219324 1.60125476 1.4576289 4.13309821-.1436259 5.65503061l-15.1400089 14.390009c-1.6012548 1.5219324-4.1330982 1.4576289-5.6550306-.1436259-1.5219325-1.6012547-1.457629-4.1330982.1436258-5.6550306z" fill="#000"/><path d="m43.1400089 9-15.1400089 14.3900089" fill="#d8d8d8"/><g fill="#000"><path d="m36 31.4472459c0-2.209139 1.790861-4 4-4s4 1.790861 4 4v10.5527541c0 2.209139-1.790861 4-4 4h-30c-2.209139 0-4-1.790861-4-4v-30c0-2.209139 1.790861-4 4-4h10.6593844c2.209139 0 4 1.790861 4 4s-1.790861 4-4 4h-6.6593844v22h22z"/><path d="m39 13h-7c-2.209139 0-4-1.790861-4-4s1.790861-4 4-4h11c2.209139 0 4 1.790861 4 4v10.75c0 2.209139-1.790861 4-4 4s-4-1.790861-4-4z"/></g></g></svg>