<svg height="50" viewBox="0 0 50 50" width="50" xmlns="http://www.w3.org/2000/svg"><path d="m44.8981224 14.3868068v22.2012269c0 .4108253-.165153.7227481-.4130816.9444633-.009551.0094193-.0195.0177517-.028653.027171-.0175102.0144912-.0334286.0304315-.0517347.0441981-.2431531.2228021-.5830102.3709745-1.0299184.3709745h-35.85094899c-.8257653 0-1.52378571-.6372501-1.52378571-1.3868069v-22.2012269c0-.7517304.69961224-1.3868068 1.52378571-1.3868068h35.85094899c.8253673 0 1.5233877.6368878 1.5233877 1.3868068zm-19.8697404 11.902159-10.7591821-8.8346474-2.5383998 3.0913632 12 9.8535157c.7248763.5952149 1.7660092.6067372 2.5038808.0277105l12.5566406-9.8535156-2.4693618-3.1467844z" fill-rule="evenodd"/></svg>