<?xml version="1.0" encoding="UTF-8"?>
<svg width="50px" height="50px" viewBox="0 0 50 50" version="1.1" xmlns="http://www.w3.org/2000/svg" xmlns:xlink="http://www.w3.org/1999/xlink">
    <!-- Generator: Sketch 52.2 (67145) - http://www.bohemiancoding.com/sketch -->
    <title>044-enveloppe</title>
    <desc>Created with Sketch.</desc>
    <g id="044-enveloppe" stroke="none" stroke-width="1" fill="none" fill-rule="evenodd">
        <path d="M44.8981224,14.3868068 L44.8981224,36.5880337 C44.8981224,36.998859 44.7329694,37.3107818 44.4850408,37.532497 C44.4754898,37.5419163 44.4655408,37.5502487 44.4563878,37.559668 C44.4388776,37.5741592 44.4229592,37.5900995 44.4046531,37.6038661 C44.1615,37.8266682 43.8216429,37.9748406 43.3747347,37.9748406 L7.52378571,37.9748406 C6.69802041,37.9748406 6,37.3375905 6,36.5880337 L6,14.3868068 C6,13.6350764 6.69961224,13 7.52378571,13 L43.3747347,13 C44.200102,13 44.8981224,13.6368878 44.8981224,14.3868068 Z M25.028382,26.2889658 L14.2691999,17.4543184 L11.7308001,20.5456816 L23.7308001,30.3991973 C24.4556764,30.9944122 25.4968093,31.0059345 26.2346809,30.4269078 L38.7913215,20.5733922 L36.3219597,17.4266078 L25.028382,26.2889658 Z" id="Combined-Shape" fill="#000000"></path>
    </g>
</svg>