<?xml version="1.0" encoding="UTF-8"?>
<svg width="50px" height="50px" viewBox="0 0 50 50" version="1.1" xmlns="http://www.w3.org/2000/svg" xmlns:xlink="http://www.w3.org/1999/xlink">
    <!-- Generator: Sketch 52.4 (67378) - http://www.bohemiancoding.com/sketch -->
    <title>047-fleche-haut</title>
    <desc>Created with Sketch.</desc>
    <g id="047-fleche-haut" stroke="none" stroke-width="1" fill="none" fill-rule="evenodd">
        <g id="Group-2" transform="translate(25.500000, 25.500000) rotate(-180.000000) translate(-25.500000, -25.500000) translate(7.000000, 1.000000)" fill="#000000" fill-rule="nonzero">
            <path d="M14,5 C14,2.51471863 16.0147186,0.5 18.5,0.5 C20.9852814,0.5 23,2.51471863 23,5 L23,43.5 C23,45.9852814 20.9852814,48 18.5,48 C16.0147186,48 14,45.9852814 14,43.5 L14,5 Z" id="Path-3"></path>
            <path d="M28.6370336,26.0099403 C30.288398,24.1526252 33.1327446,23.9856692 34.9900597,25.6370336 C36.8473748,27.288398 37.0143308,30.1327446 35.3629664,31.9900597 L22.02626,46.9900597 C20.2506354,48.9871322 17.1360565,49.0058654 15.3365377,47.0302962 L1.67324408,32.0302962 C-0.000342297264,30.1929796 0.13238724,27.3468305 1.9697038,25.6732441 C3.80702036,23.9996577 6.65316954,24.1323872 8.32675592,25.9697038 L18.6228333,37.2730663 L28.6370336,26.0099403 Z" id="Path-4"></path>
        </g>
    </g>
</svg>