<svg height="50" viewBox="0 0 50 50" width="50" xmlns="http://www.w3.org/2000/svg"><g transform="translate(7 1)"><path d="m14 5c0-2.48528137 2.0147186-4.5 4.5-4.5s4.5 2.01471863 4.5 4.5v38.5c0 2.4852814-2.0147186 4.5-4.5 4.5s-4.5-2.0147186-4.5-4.5z"/><path d="m28.6370336 26.0099403c1.6513644-1.8573151 4.495711-2.0242711 6.3530261-.3729067s2.0242711 4.495711.3729067 6.3530261l-13.3367064 15c-1.7756246 1.9970725-4.8902035 2.0158057-6.6897223.0402365l-13.66329362-15c-1.67358638-1.8373166-1.54085684-4.6834657.29645972-6.3570521s4.68346574-1.5408569 6.35705212.2964597l10.29607738 11.3033625z"/></g></svg>