<svg height="50" viewBox="0 0 50 50" width="50" xmlns="http://www.w3.org/2000/svg"><path d="m12.9504719 18.6645207-.3866747 4.6159293 8.608887 12.9882548c.7628143 1.1508604.4482409 2.7022002-.7026195 3.4650146-1.1508604.7628143-2.7022002.4482408-3.4650145-.7026195l-9.08886723-13.7124024c-.31086882-.4690087-.45442815-1.0291747-.40745718-1.5898906l.71891634-8.5820638-2.72764213 1.3504502v4.4403067c0 1.3807119-1.11928813 2.5-2.5 2.5s-2.5-1.1192881-2.5-2.5v-5.9921875c0-.9504698.53897109-1.8187244 1.3907607-2.2404437l7.96875-3.94531254c1.1382508-.56354573 2.5181608-.18404361 3.2081586.88230607l3.9484201 6.10204357 5.9859318 2.9513211c1.2383732.6105711 1.7473073 2.1094366 1.1367362 3.3478098s-2.1094366 1.7473074-3.3478098 1.1367362l-6.604593-3.2563476c-.4048769-.1996217-.7481499-.5051433-.9933825-.8841354zm4.0495281-15.16470241c0 1.93271377-1.5673866 3.50018171-3.5 3.50018171-1.93225 0-3.5-1.56746794-3.5-3.50018171 0-1.93235035 1.56775-3.49981829 3.5-3.49981829 1.9326134 0 3.5 1.56746794 3.5 3.49981829zm-13.45849502 26.28604451c.67054945-1.2069501 2.19256361-1.6417889 3.39951379-.9712394 1.20695017.6705494 1.64178888 2.1925636.97123944 3.3995138l-3.17365894 5.7124023c-.67054945 1.2069502-2.19256361 1.6417889-3.39951378.9712395-1.20695018-.6705495-1.64178889-2.1925637-.97123944-3.3995138z" fill="#1d1d1b" fill-rule="evenodd" transform="translate(14 6)"/></svg>