<svg viewBox="0 0 106 106" xmlns="http://www.w3.org/2000/svg"><path d="m67.05 62.86h4v4a1.53 1.53 0 1 0 3.06 0v-4h4a1.53 1.53 0 0 0 0-3.06h-4v-4a1.53 1.53 0 0 0 -3.06 0v4h-4a1.53 1.53 0 0 0 0 3.06z"/><path d="m83.45 52.75a27.15 27.15 0 0 0 3-10.16v-1.1a18.15 18.15 0 0 0 -18.16-18.09 18.2 18.2 0 0 0 -15.29 8.42 18.13 18.13 0 0 0 -33.46 9.68v1.08c1.08 18.19 29 40 33.44 40 2.66 0 9.54-5.44 13.38-8.82a13.88 13.88 0 0 0 17.09-21zm-2.29-2.28a13.86 13.86 0 0 0 -17.71 21.32l.27.23c-6 5.2-10.06 7.47-10.74 7.52-3.14-.15-29.38-20.4-30.38-37.14v-.93a15.07 15.07 0 0 1 15-15.09 15 15 0 0 1 13.9 9.28 1.53 1.53 0 0 0 2 .83 1.6 1.6 0 0 0 .83-.83 15.06 15.06 0 0 1 29 5.84v.88a23.47 23.47 0 0 1 -2.17 8.09zm-8.62 0a10.82 10.82 0 1 1 -10.82 10.86 10.83 10.83 0 0 1 10.82-10.82z"/></svg>