<?xml version="1.0" encoding="UTF-8"?>
<svg width="124px" height="124px" viewBox="0 0 124 124" version="1.1" xmlns="http://www.w3.org/2000/svg" xmlns:xlink="http://www.w3.org/1999/xlink">
    <!-- Generator: Sketch 55 (78076) - https://sketchapp.com -->
    <title>Artboard Copy 3</title>
    <desc>Created with Sketch.</desc>
    <g id="Artboard-Copy-3" stroke="none" stroke-width="1" fill="none" fill-rule="evenodd">
        <g id="060-corbeille" transform="translate(26.000000, 13.000000)" fill="#000000" fill-rule="nonzero">
            <path d="M9.99169045,91.3485451 C9.99169045,91.3485451 11.4541299,98 18.9817251,98 L53.0182749,98 C60.5455044,98 62.0079438,91.3485451 62.0079438,91.3485451 L68.7273392,26.1334793 L3.27266078,26.1334793 L9.99169045,91.3485451 Z M49.0910088,35.9336254 C49.0910088,34.1293151 50.5560082,32.6670317 52.3636696,32.6670317 C54.1713311,32.6670317 55.6366961,34.1293151 55.6366961,35.9336254 L52.3636696,84.9336254 C52.3636696,86.7379356 50.8983046,88.200219 49.0910088,88.200219 C47.2837131,88.200219 45.818348,86.7375706 45.818348,84.9336254 L49.0910088,35.9336254 Z M32.7273392,35.9336254 C32.7273392,34.1293151 34.1927043,32.6670317 36,32.6670317 C37.8076614,32.6670317 39.2726608,34.1293151 39.2726608,35.9336254 L39.2726608,84.9336254 C39.2726608,86.7379356 37.8076614,88.200219 36,88.200219 C34.1923386,88.200219 32.7273392,86.7375706 32.7273392,84.9336254 L32.7273392,35.9336254 Z M19.6363304,32.6666667 C21.4439918,32.6666667 22.9089912,34.1289501 22.9089912,35.9332603 L26.1820177,84.9332603 C26.1820177,86.7375706 24.7166526,88.199854 22.9089912,88.199854 C21.1016954,88.199854 19.6363304,86.7372056 19.6363304,84.9332603 L16.3636696,35.9336254 C16.3636696,34.1293151 17.8290347,32.6666667 19.6363304,32.6666667 Z M66.7635233,13.07185 L52.3636696,13.07185 L52.3636696,6.53355235 C52.3636696,1.57763078 50.7578753,0 45.818348,0 L26.181652,0 C21.6509788,0 19.6363304,2.19050492 19.6363304,6.53355235 L19.6363304,13.072215 L5.23647667,13.072215 C2.34231672,13.072215 0,15.2649101 0,17.9744782 C0,20.6844113 2.34231672,22.8771063 5.23647667,22.8771063 L66.7635233,22.8771063 C69.6576833,22.8771063 72,20.6844113 72,17.9744782 C72,15.2649101 69.6576833,13.07185 66.7635233,13.07185 Z M45.818348,13.07185 L26.1820177,13.07185 L26.1823834,6.53318732 L45.8187137,6.53318732 L45.8187137,13.07185 L45.818348,13.07185 Z" id="Shape"></path>
        </g>
    </g>
</svg>