<svg id="Capa_1" enable-background="new 0 0 512 512" height="512" viewBox="0 0 512 512" width="512" xmlns="http://www.w3.org/2000/svg"><path d="m507.608 443.967-50.204-50.204c-14.119-14.12-34.848-16.643-51.228-8.802l-47.836-47.835c64.311-68.51 102.155-148.991 122.824-205.747 15.217-41.784 30.066-100.03 30.804-115.666.452-9.512-7.898-16.872-17.053-15.56-1.995.28-49.61 7.137-114.289 30.69-56.757 20.668-137.241 58.51-205.752 122.817l-47.855-47.855c7.967-16.724 5.045-37.381-8.782-51.209l-50.205-50.203c-5.856-5.857-15.355-5.858-21.213 0l-42.427 42.427c-5.854 5.853-5.858 15.356 0 21.213l50.204 50.204c14.119 14.12 34.848 16.643 51.228 8.802l47.835 47.835c-64.309 68.509-102.153 148.991-122.823 205.747-17.593 48.306-28.514 96.468-30.713 114.552-1.183 9.67 7.084 18.065 16.962 16.674 1.995-.28 49.61-7.137 114.289-30.69 56.757-20.668 137.241-58.51 205.752-122.817l47.855 47.855c-7.967 16.724-5.045 37.381 8.782 51.208l50.204 50.205c5.857 5.858 15.355 5.858 21.213 0l42.427-42.426c5.855-5.855 5.859-15.358.001-21.215zm-409.518-348.132-2.254 2.254c-5.803 4.701-14.467 4.494-20.025-1.064l-39.599-39.599 21.214-21.213 39.598 39.598c5.467 5.467 5.82 14.139 1.066 20.024zm352.284-55.421-121.759 121.758c-29.375-15.38-75.12-3.448-114.647 30.583l-17.872-17.872c69.729-65.182 162.666-110.383 254.278-134.469zm-215.123 173.624c29.243-24.519 65.968-36.201 82.633-23.224 1.02 1.399 1.917 2.287 3.27 3.278 5.937 7.566 7.01 20.298 2.875 35.46-4.2 15.399-13.478 32.046-26.089 47.173zm41.499 83.925c-33.151 27.796-67.92 34.717-82.658 23.19-1.001-1.365-1.88-2.244-3.246-3.246-5.937-7.566-7.01-20.298-2.875-35.46 4.2-15.399 13.478-32.046 26.089-47.173zm-101.868-101.868 17.888 17.888c-26.169 30.436-49.422 79.185-30.627 114.66l-121.743 121.743c24.081-91.6 69.285-184.55 134.482-254.291zm-113.256 275.491 121.768-121.768c35.324 18.495 83.882-4.103 114.635-30.577l17.876 17.875c-69.745 65.198-162.693 110.39-254.279 134.47zm275.492-155.681-17.888-17.888c26.169-30.436 49.423-79.185 30.627-114.66l121.743-121.743c-24.08 91.599-69.284 184.549-134.482 254.291zm117.456 159.882-39.598-39.598c-5.468-5.467-5.821-14.139-1.066-20.024l2.254-2.254c5.803-4.701 14.467-4.494 20.025 1.064l39.599 39.598z"/></svg>