<svg width="46" height="46" fill="currentColor" viewBox="0 0 24 24" xmlns="http://www.w3.org/2000/svg">
  <path d="M13.994 1.704a.8.8 0 0 1 .406.696v19.2a.8.8 0 0 1-1.212.686L5.378 17.6H2.4A2.4 2.4 0 0 1 0 15.2V8.796a2.399 2.399 0 0 1 2.4-2.399h2.979l7.81-4.683a.8.8 0 0 1 .805-.01Z"></path>
  <path d="m22.166 6.631-.566-.565-1.131 1.131.562.562.004.004.032.036c.031.036.081.095.143.178.125.166.299.425.475.777.35.702.715 1.78.715 3.24 0 1.46-.364 2.538-.715 3.24-.176.352-.35.61-.475.777a3.088 3.088 0 0 1-.175.214l-.004.003-.562.562 1.13 1.132.567-.565-.566-.566.566.566v-.002h.002l.003-.004.008-.008.023-.024.069-.076c.056-.064.131-.155.219-.272.176-.234.402-.574.626-1.022.448-.897.884-2.218.884-3.955s-.436-3.058-.884-3.956a6.71 6.71 0 0 0-.626-1.021 4.698 4.698 0 0 0-.288-.349l-.023-.023-.008-.008-.003-.003-.001-.002-.567.565.566-.566Z"></path>
</svg>