<svg width="50" height="50" viewBox="0 0 50 50" fill="none" xmlns="http://www.w3.org/2000/svg">
<path d="M38.5259 44.0752C38.4978 44.1663 38.4881 44.2621 38.4976 44.3569C38.5071 44.4518 38.5354 44.5438 38.581 44.6275C38.6266 44.7113 38.6886 44.785 38.7631 44.8444C38.8377 44.9038 38.9234 44.9477 39.0152 44.9735C39.107 44.9992 39.203 45.0063 39.2976 44.9944C39.3922 44.9824 39.4834 44.9516 39.5659 44.9038C39.6484 44.856 39.7205 44.7922 39.7779 44.7161C39.8354 44.64 39.877 44.5531 39.9003 44.4607C40.6143 41.9226 40.7106 38.749 40.7106 35.7004V24.277C40.7106 23.614 40.526 22.9642 40.1775 22.4002C39.829 21.8363 39.3303 21.3805 38.7373 21.084C38.1443 20.7876 37.4805 20.6621 36.8202 20.7216C36.16 20.7811 35.5293 21.0234 34.9989 21.4211C34.9989 20.7582 34.8143 20.1083 34.4658 19.5444C34.1173 18.9804 33.6186 18.5247 33.0256 18.2282C32.4326 17.9317 31.7688 17.8062 31.1085 17.8657C30.4483 17.9253 29.8176 18.1675 29.2872 18.5653V10.7117H33.9887L32.3501 12.3502C32.2838 12.4166 32.2312 12.4953 32.1953 12.582C32.1594 12.6687 32.1409 12.7616 32.1409 12.8554C32.1409 12.9492 32.1594 13.0421 32.1953 13.1287C32.2312 13.2154 32.2838 13.2942 32.3501 13.3605C32.4165 13.4268 32.4952 13.4795 32.5819 13.5154C32.6686 13.5513 32.7615 13.5697 32.8553 13.5697C32.9491 13.5697 33.042 13.5513 33.1286 13.5154C33.2153 13.4795 33.2941 13.4268 33.3604 13.3605L36.7232 9.99774L33.364 6.63854C33.23 6.50458 33.0483 6.42931 32.8588 6.42931C32.6694 6.42931 32.4877 6.50458 32.3537 6.63854C32.2197 6.77251 32.1445 6.95421 32.1445 7.14367C32.1445 7.33313 32.2197 7.51483 32.3537 7.6488L33.9887 9.28377H29.2872V8.56981C29.2872 7.62304 28.9111 6.71504 28.2417 6.04557C27.5722 5.3761 26.6642 5 25.7174 5C24.7707 5 23.8627 5.3761 23.1932 6.04557C22.5237 6.71504 22.1476 7.62304 22.1476 8.56981C21.7735 8.28625 21.3468 8.07966 20.8923 7.96201C20.4379 7.84435 19.9646 7.81795 19.4998 7.88435C19.0351 7.95074 18.5881 8.1086 18.1848 8.3488C17.7814 8.58901 17.4297 8.90679 17.1499 9.28377H11.7345L13.373 7.64523C13.507 7.51126 13.5823 7.32956 13.5823 7.1401C13.5823 6.95064 13.507 6.76894 13.373 6.63497C13.2391 6.50101 13.0574 6.42574 12.8679 6.42574C12.6784 6.42574 12.4967 6.50101 12.3628 6.63497L9 9.99774L12.3592 13.3569C12.4932 13.4909 12.6749 13.5662 12.8643 13.5662C13.0538 13.5662 13.2355 13.4909 13.3695 13.3569C13.5034 13.223 13.5787 13.0413 13.5787 12.8518C13.5787 12.6623 13.5034 12.4806 13.3695 12.3467L11.7345 10.7117H16.5073C16.4596 10.9467 16.4357 11.1859 16.4359 11.4257V23.0989C15.6813 22.1636 14.6795 21.4587 13.5444 21.0642C13.2267 20.9526 12.8866 20.9196 12.5534 20.9681C12.2202 21.0166 11.9037 21.1451 11.631 21.3426C11.3509 21.5403 11.1223 21.8024 10.9645 22.1068C10.8067 22.4111 10.7243 22.749 10.7242 23.0918V35.7004C10.7149 38.946 11.768 42.1054 13.7229 44.6963C13.8365 44.8478 14.0056 44.9479 14.1931 44.9747C14.3805 45.0015 14.5709 44.9527 14.7224 44.8391C14.8739 44.7255 14.974 44.5564 15.0008 44.3689C15.0276 44.1815 14.9788 43.991 14.8652 43.8396C13.0962 41.4956 12.1433 38.6369 12.1521 35.7004V23.0918C12.15 22.9743 12.1769 22.8581 12.2305 22.7535C12.284 22.6488 12.3626 22.5591 12.4591 22.4921C12.547 22.428 12.649 22.3861 12.7566 22.3699C12.8641 22.3538 12.9739 22.3638 13.0767 22.3993C14.0597 22.7404 14.9118 23.3798 15.5139 24.2284C16.1161 25.077 16.4384 26.0923 16.4359 27.1328V32.8445C16.4359 33.0339 16.5111 33.2155 16.645 33.3494C16.7789 33.4833 16.9605 33.5585 17.1499 33.5585C17.3392 33.5585 17.5208 33.4833 17.6547 33.3494C17.7886 33.2155 17.8638 33.0339 17.8638 32.8445V11.4257C17.8638 10.8576 18.0895 10.3128 18.4912 9.91112C18.8929 9.50944 19.4377 9.28377 20.0057 9.28377C20.5738 9.28377 21.1186 9.50944 21.5203 9.91112C21.922 10.3128 22.1476 10.8576 22.1476 11.4257V27.8468C22.1476 28.0362 22.2228 28.2178 22.3567 28.3516C22.4906 28.4855 22.6722 28.5608 22.8616 28.5608C23.0509 28.5608 23.2325 28.4855 23.3664 28.3516C23.5003 28.2178 23.5755 28.0362 23.5755 27.8468V8.56981C23.5755 8.00175 23.8012 7.45695 24.2029 7.05527C24.6046 6.65359 25.1494 6.42792 25.7174 6.42792C26.2855 6.42792 26.8303 6.65359 27.232 7.05527C27.6337 7.45695 27.8593 8.00175 27.8593 8.56981V27.8468C27.8593 28.0362 27.9345 28.2178 28.0684 28.3516C28.2023 28.4855 28.3839 28.5608 28.5733 28.5608C28.7626 28.5608 28.9442 28.4855 29.0781 28.3516C29.212 28.2178 29.2872 28.0362 29.2872 27.8468V21.4211C29.2872 20.8531 29.5129 20.3083 29.9146 19.9066C30.3163 19.5049 30.8611 19.2792 31.4291 19.2792C31.9972 19.2792 32.542 19.5049 32.9437 19.9066C33.3454 20.3083 33.571 20.8531 33.571 21.4211V29.2747C33.571 29.4641 33.6462 29.6457 33.7801 29.7796C33.914 29.9135 34.0956 29.9887 34.285 29.9887C34.4743 29.9887 34.6559 29.9135 34.7898 29.7796C34.9237 29.6457 34.9989 29.4641 34.9989 29.2747V24.277C34.9989 23.7089 35.2246 23.1641 35.6263 22.7624C36.028 22.3608 36.5728 22.1351 37.1408 22.1351C37.7089 22.1351 38.2537 22.3608 38.6554 22.7624C39.0571 23.1641 39.2827 23.7089 39.2827 24.277V35.7004C39.2827 38.649 39.1899 41.7048 38.5259 44.0752Z" fill="black"/>
</svg>
