<?xml version="1.0" encoding="utf-8"?>
<!-- Generator: Adobe Illustrator 27.8.0, SVG Export Plug-In . SVG Version: 6.00 Build 0)  -->
<svg version="1.1" id="recherche_00000134934896178938384950000000318484627856393104_"
	 xmlns="http://www.w3.org/2000/svg" xmlns:xlink="http://www.w3.org/1999/xlink" x="0px" y="0px" viewBox="0 0 100 100"
	 enable-background="new 0 0 100 100" xml:space="preserve">
<path fill-rule="evenodd" clip-rule="evenodd" d="M47.454,38.413l-20.127,0.002c-2.043,0-3.896-0.834-5.237-2.175
	c-1.341-1.341-2.173-3.192-2.173-5.235l0.002-4.2c0-2.043,0.831-3.898,2.17-5.237c1.341-1.341,3.194-2.17,5.235-2.173h45.189
	c2.043,0,3.896,0.834,5.235,2.173c1.341,1.341,2.173,3.192,2.173,5.235v45.189c0.002,2.041-0.834,3.896-2.173,5.235
	c-1.341,1.341-3.192,2.173-5.235,2.173h-4.202c-2.043,0-3.896-0.834-5.235-2.173c-1.341-1.341-2.173-3.192-2.173-5.235l0-20.129
	L33.85,78.917c-1.444,1.444-3.341,2.166-5.239,2.168c-1.9,0-3.795-0.724-5.239-2.168l-2.97-2.97
	c-1.444-1.444-2.166-3.341-2.168-5.239c0-1.9,0.722-3.797,2.166-5.241L47.454,38.413z"/>
</svg>
