<?xml version="1.0" encoding="iso-8859-1"?>
<!-- Generator: Adobe Illustrator 19.0.0, SVG Export Plug-In . SVG Version: 6.00 Build 0)  -->
<svg xmlns="http://www.w3.org/2000/svg" xmlns:xlink="http://www.w3.org/1999/xlink" version="1.1" id="Layer_1" x="0px" y="0px" viewBox="0 0 492 492" style="enable-background:new 0 0 492 492;" xml:space="preserve">
<g>
	<g>
		<path d="M453.368,137.65l0.204,0.364H135.516l17.116-17.544c5.064-5.06,7.852-12.028,7.852-19.236    c0-7.2-2.788-14.064-7.852-19.124l-16.116-16.172c-5.064-5.064-11.816-7.88-19.02-7.88c-7.204,0-13.96,2.772-19.024,7.84    l-90.628,90.62C2.76,161.594-0.024,168.374,0,175.594c-0.024,7.24,2.76,14.02,7.844,19.092l86.852,86.852    c5.064,5.064,11.82,7.852,19.02,7.852s13.96-2.788,19.02-7.852l16.116-16.12c5.064-5.06,7.852-11.816,7.852-19.02    s-2.788-13.536-7.852-18.596l-13.34-12.92h279.624v142.196H291.24c-0.08,0-0.16,0-0.244,0h-17.748    c-14.724,0-27.208,11.596-27.208,26.316v22.796c0,14.832,12.116,27.752,26.948,27.752h180.46c21.188,0,38.552-18.088,38.552-39.28    V175.598C492,154.406,474.556,137.65,453.368,137.65z"/>
	</g>
</g>
<g>
</g>
<g>
</g>
<g>
</g>
<g>
</g>
<g>
</g>
<g>
</g>
<g>
</g>
<g>
</g>
<g>
</g>
<g>
</g>
<g>
</g>
<g>
</g>
<g>
</g>
<g>
</g>
<g>
</g>
</svg>
