<?xml version="1.0" encoding="iso-8859-1"?>
<!-- Generator: Adobe Illustrator 19.0.0, SVG Export Plug-In . SVG Version: 6.00 Build 0)  -->
<svg xmlns="http://www.w3.org/2000/svg" xmlns:xlink="http://www.w3.org/1999/xlink" version="1.1" id="Layer_1" x="0px" y="0px" viewBox="0 0 492.001 492.001" style="enable-background:new 0 0 492.001 492.001;" xml:space="preserve">
<g>
	<g>
		<path d="M333.807,375.442c-5.408-5.408-13.76-5.408-19.168,0l-49.416,49.864V66.51l49.644,50.096    c2.604,2.612,5.876,4.052,9.584,4.052c3.708,0,7.084-1.44,9.7-4.052l7.392-7.448c2.612-2.612,4.02-6.096,4.02-9.812    c0-3.712-1.448-7.2-4.06-9.808L255.995,4.042c-2.672-2.676-6.252-4.104-9.924-4.04c-3.828-0.068-7.412,1.36-10.08,4.036    l-85.464,85.464c-5.228,5.224-5.228,14.4,0,19.62l7.444,7.448c5.412,5.404,14.572,5.404,19.968-0.004l48.816-48.456v355.984    l-49.036-48.692c-5.416-5.408-14.396-5.408-19.804,0l-7.528,7.448c-5.236,5.224-5.276,14.4-0.048,19.62l85.468,85.5    c2.68,2.668,6.244,4.104,9.916,4.028c3.828,0.076,7.404-1.356,10.076-4.028l85.46-85.464c5.232-5.224,5.232-14.396,0-19.62    L333.807,375.442z"/>
	</g>
</g>
<g>
</g>
<g>
</g>
<g>
</g>
<g>
</g>
<g>
</g>
<g>
</g>
<g>
</g>
<g>
</g>
<g>
</g>
<g>
</g>
<g>
</g>
<g>
</g>
<g>
</g>
<g>
</g>
<g>
</g>
</svg>
