<?xml version="1.0" encoding="iso-8859-1"?>
<!-- Generator: Adobe Illustrator 19.0.0, SVG Export Plug-In . SVG Version: 6.00 Build 0)  -->
<svg xmlns="http://www.w3.org/2000/svg" xmlns:xlink="http://www.w3.org/1999/xlink" version="1.1" id="Layer_1" x="0px" y="0px" viewBox="0 0 491.988 491.988" style="enable-background:new 0 0 491.988 491.988;" xml:space="preserve">
<g>
	<g>
		<path d="M464.888,76.346l0.212,0.384h-22.988c-14.308,0-25.912,10.772-26.724,24.884c-0.212,0.48-0.24,0.54-0.24,1.092V261.17    H135.532l13.292-13.512c5.072-5.032,7.856-11.904,7.856-19.064c0-7.176-2.788-13.972-7.856-19.008l-16.116-16.056    c-10.476-10.416-27.536-10.436-38.02-0.02l-86.84,86.296c-5.08,5.052-7.872,11.792-7.848,18.976    c-0.024,7.196,2.768,13.948,7.848,18.996l90.608,90.052c5.244,5.216,12.128,7.812,19.012,7.812c6.884,0,13.768-2.6,19.008-7.812    l16.112-16.012c5.068-5.04,7.864-11.76,7.856-18.928c0-7.172-2.788-13.384-7.856-18.412l-17.068-16.456h317.84    c21.188,0,38.628-18.16,38.628-39.236v-196.08C491.988,87.886,479.724,76.346,464.888,76.346z"/>
	</g>
</g>
<g>
</g>
<g>
</g>
<g>
</g>
<g>
</g>
<g>
</g>
<g>
</g>
<g>
</g>
<g>
</g>
<g>
</g>
<g>
</g>
<g>
</g>
<g>
</g>
<g>
</g>
<g>
</g>
<g>
</g>
</svg>
