<?xml version="1.0" encoding="iso-8859-1"?>
<!-- Generator: Adobe Illustrator 19.0.0, SVG Export Plug-In . SVG Version: 6.00 Build 0)  -->
<svg xmlns="http://www.w3.org/2000/svg" xmlns:xlink="http://www.w3.org/1999/xlink" version="1.1" id="Layer_1" x="0px" y="0px" viewBox="0 0 492 492" style="enable-background:new 0 0 492 492;" xml:space="preserve">
<g>
	<g>
		<path d="M487.912,115.343H269.116V38.831c0-1.48-0.952-2.82-2.276-3.456c-1.324-0.64-2.952-0.464-4.116,0.448L1.464,242.991    C0.548,243.719,0,244.827,0,245.999c0,1.176,0.528,2.284,1.444,3.012l261.224,207.164c0.7,0.548,1.54,0.832,2.392,0.832    c0.568,0,1.248-0.124,1.78-0.38c1.324-0.64,2.276-1.988,2.276-3.464v-76.508h218.908c2.116,0,3.976-1.536,3.976-3.664v-253.46    C492,117.407,490.032,115.343,487.912,115.343z"/>
	</g>
</g>
<g>
</g>
<g>
</g>
<g>
</g>
<g>
</g>
<g>
</g>
<g>
</g>
<g>
</g>
<g>
</g>
<g>
</g>
<g>
</g>
<g>
</g>
<g>
</g>
<g>
</g>
<g>
</g>
<g>
</g>
</svg>
