<?xml version="1.0" encoding="iso-8859-1"?>
<!-- Generator: Adobe Illustrator 19.0.0, SVG Export Plug-In . SVG Version: 6.00 Build 0)  -->
<svg xmlns="http://www.w3.org/2000/svg" xmlns:xlink="http://www.w3.org/1999/xlink" version="1.1" id="Layer_1" x="0px" y="0px" viewBox="0 0 363.477 363.477" style="enable-background:new 0 0 363.477 363.477;" xml:space="preserve">
<g>
	<g>
		<path d="M111.786,15.199l-10.524-0.008c-7.64,0-13.852,6.212-13.852,13.852l0.016,31.32L37.558,10.487    c-0.032-0.024-0.052-0.048-0.072-0.072l-6.428-6.42C25.654-1.413,16.95-1.289,11.542,4.119l-7.436,7.436    c-5.124,5.132-5.436,13.26-0.84,18.704c0.128,0.196,0.112,0.408,0.284,0.58l57.544,57.556L29.83,88.347    c-7.396,0-13.82,6.42-13.82,13.812v10.524c0,7.648,6.22,13.868,13.864,13.868h81.64c3.78,0,7.344-1.592,9.968-4.272    c2.612-2.596,4.168-6.088,4.164-9.86l0.004-83.36C125.654,21.419,119.434,15.199,111.786,15.199z"/>
	</g>
</g>
<g>
	<g>
		<path d="M359.342,332.279l-6.42-6.42c-0.024-0.024-0.048-0.048-0.072-0.072l-49.656-49.656l31.312,0.016    c7.384,0,13.852-6.46,13.852-13.852l-0.024-10.544c0.008-7.64-6.228-13.876-13.868-13.868l-83.38-0.032    c-3.688,0.008-7.196,1.4-9.824,4.032l-0.376,0.376c-2.532,2.54-3.936,6.048-3.936,9.728l0.048,81.696    c0,7.648,6.212,13.876,13.856,13.876l10.52,0.008c7.384,0.008,13.836-6.444,13.836-13.836l-0.048-31.272l57.328,57.328    c0.18,0.18,0.5,0.268,0.696,0.4c5.444,4.6,13.688,4.396,18.812-0.728l7.444-7.444    C364.842,346.615,364.758,337.695,359.342,332.279z"/>
	</g>
</g>
<g>
	<g>
		<path d="M122.074,242.234c-2.54-2.648-6.08-4.164-9.86-4.164h-83.36c-7.64-0.008-13.864,6.212-13.86,13.852v10.532    c-0.004,3.688,1.432,7.156,4.06,9.78c2.62,2.628,6.084,4.056,9.776,4.056l31.292-0.024L10.71,325.674    c-0.024,0.024-0.04,0.04-0.064,0.064l-5.588,5.584l-0.836,0.84c-5.408,5.408-5.58,14.476-0.18,19.876l7.444,7.452    c5.124,5.116,13.412,5.24,18.852,0.648c0.196-0.132,0.564-0.296,0.736-0.468l57.084-57.084l-0.032,31.288    c-0.008,3.684,1.416,7.14,4.036,9.764c2.624,2.62,6.104,4.072,9.792,4.064l10.524,0.008c3.828,0,7.288-1.556,9.804-4.072    c2.512-2.508,4.064-5.976,4.064-9.796v-81.64C126.346,248.422,124.83,244.883,122.074,242.234z"/>
	</g>
</g>
<g>
	<g>
		<path d="M359.382,11.599l-7.452-7.452c-5.4-5.4-14.412-5.276-19.82,0.132l-6.42,6.42c-0.032,0.024-0.048,0.048-0.072,0.072    L275.89,60.495l0.032-31.296c0-3.692-1.416-7.14-4.04-9.756c-2.624-2.636-6.108-4.08-9.788-4.072l-10.532-0.008    c-7.648,0-13.864,6.22-13.864,13.868l0.004,83.352c0,3.772,1.516,7.312,4.264,9.964c2.556,2.648,6.096,4.172,9.868,4.172h81.64    c3.82,0,7.288-1.556,9.796-4.064c2.516-2.516,4.072-5.976,4.072-9.796v-10.524c0-3.696-1.44-7.164-4.064-9.788    c-2.616-2.62-6.084-4.056-9.772-4.056l-31.288,0.04l57.4-57.4c0.172-0.18,0.312-0.516,0.444-0.712    C364.654,24.975,364.498,16.715,359.382,11.599z"/>
	</g>
</g>
<g>
	<g>
		<path d="M208.846,154.495c-15.004-14.992-39.396-14.992-54.392,0c-14.996,14.992-14.996,39.392,0.004,54.392    c14.992,14.992,39.392,14.992,54.388,0C223.838,193.895,223.838,169.487,208.846,154.495z"/>
	</g>
</g>
<g>
</g>
<g>
</g>
<g>
</g>
<g>
</g>
<g>
</g>
<g>
</g>
<g>
</g>
<g>
</g>
<g>
</g>
<g>
</g>
<g>
</g>
<g>
</g>
<g>
</g>
<g>
</g>
<g>
</g>
</svg>
