<?xml version="1.0" encoding="iso-8859-1"?>
<!-- Generator: Adobe Illustrator 19.0.0, SVG Export Plug-In . SVG Version: 6.00 Build 0)  -->
<svg xmlns="http://www.w3.org/2000/svg" xmlns:xlink="http://www.w3.org/1999/xlink" version="1.1" id="Layer_1" x="0px" y="0px" viewBox="0 0 491.996 491.996" style="enable-background:new 0 0 491.996 491.996;" xml:space="preserve">
<g>
	<g>
		<path d="M314.382,78.712l-7.436-7.448c-5.4-5.4-14.184-5.4-19.588,0l-22.132,22.16V22.896c0-0.036,0-0.068,0-0.1v-9.088    c0-7.64-6.244-13.708-13.892-13.708h-10.52c-7.252,0-13.216,5.532-13.816,12.628c-0.048,0.224-0.212,0.364-0.212,0.612v81.388    l-22.08-22.144c-5.228-5.228-14.316-5.228-19.54,0l-7.444,7.436c-5.404,5.404-5.404,14.2,0,19.608l57.728,57.724    c2.672,2.672,6.316,4.068,10.068,4.032c3.684,0.008,7.248-1.36,9.92-4.032l58.944-58.94    C319.79,92.912,319.79,84.12,314.382,78.712z"/>
	</g>
</g>
<g>
	<g>
		<path d="M314.366,393.636L255.43,334.66c-2.612-2.604-6.08-4.096-9.796-4.096h-0.528c-3.588,0-7.06,1.492-9.664,4.096    l-57.736,57.796c-5.404,5.408-5.416,14.196-0.012,19.608l7.432,7.44c5.22,5.228,14.344,5.228,19.572,0l22.08-22.144v81.08    c0,0.244,0.164,0.532,0.212,0.768c0.6,7.1,6.568,12.788,13.812,12.788h10.532c7.636,0,13.884-6.376,13.884-14.024v-9.084    c0-0.036,0-0.064,0-0.1V398.56l22.132,22.156c5.22,5.224,14.36,5.224,19.584,0l7.432-7.464    C319.774,407.852,319.774,399.04,314.366,393.636z"/>
	</g>
</g>
<g>
	<g>
		<path d="M157.082,236.604l-58.944-58.94c-5.404-5.408-14.196-5.412-19.6-0.004l-7.448,7.444c-2.608,2.604-4.044,6.072-4.044,9.788    c0,3.704,1.436,7.168,4.044,9.776l22.152,22.108H23.37c-0.032,0-0.06,0-0.088,0h-7.904l-1.192,0.004    c-7.644,0-14.184,6.288-14.184,13.924v10.536c0,7.24,5.772,13.184,12.868,13.792c0.232,0.048,0.604,0.188,0.852,0.188h80.732    l-22.148,22.1c-2.612,2.604-4.048,6.048-4.048,9.756c0,3.712,1.436,7.196,4.048,9.8l7.44,7.444    c2.704,2.704,6.252,4.056,9.804,4.056c3.556,0,7.1-1.352,9.804-4.056l57.728-57.728c2.672-2.672,4.104-6.248,4.028-10.072    C161.182,242.852,159.754,239.276,157.082,236.604z"/>
	</g>
</g>
<g>
	<g>
		<path d="M477.89,226.772h-9.084c-0.032,0-0.06,0-0.096,0h-70.32l22.148-22.108c2.612-2.608,4.048-6.044,4.048-9.752    c0-3.716-1.44-7.2-4.048-9.8l-7.44-7.448c-5.404-5.408-14.196-5.408-19.604,0l-58.936,58.94c-2.668,2.668-4.1,6.244-4.032,10.064    c-0.064,3.676,1.364,7.256,4.032,9.92l57.724,57.72c2.704,2.704,6.252,4.06,9.8,4.06c3.552,0,7.096-1.348,9.804-4.052l7.44-7.44    c2.612-2.608,4.048-6.076,4.048-9.792c0-3.7-1.44-7.172-4.048-9.776l-22.148-22.1h81.176c0.244,0,0.58-0.14,0.812-0.188    c7.096-0.6,12.828-6.544,12.828-13.788v-10.536C491.994,233.06,485.534,226.772,477.89,226.772z"/>
	</g>
</g>
<g>
	<g>
		<path d="M246.05,207.38c-21.204,0-38.456,17.248-38.456,38.46c0,21.204,17.252,38.456,38.456,38.456    c21.204,0,38.46-17.252,38.46-38.456C284.51,224.628,267.254,207.38,246.05,207.38z"/>
	</g>
</g>
<g>
</g>
<g>
</g>
<g>
</g>
<g>
</g>
<g>
</g>
<g>
</g>
<g>
</g>
<g>
</g>
<g>
</g>
<g>
</g>
<g>
</g>
<g>
</g>
<g>
</g>
<g>
</g>
<g>
</g>
</svg>
