<?xml version="1.0" encoding="iso-8859-1"?>
<!-- Generator: Adobe Illustrator 19.0.0, SVG Export Plug-In . SVG Version: 6.00 Build 0)  -->
<svg xmlns="http://www.w3.org/2000/svg" xmlns:xlink="http://www.w3.org/1999/xlink" version="1.1" id="Layer_1" x="0px" y="0px" viewBox="0 0 492 492" style="enable-background:new 0 0 492 492;" xml:space="preserve">
<g>
	<g>
		<path d="M359.28,221.234l-16.12-16.176c-5.064-5.072-11.82-7.888-19.032-7.888c-7.208,0-14.064,2.772-19.128,7.84l-20.492,20.38    V45.982c-0.008-14.84-12.08-24.888-26.92-24.888h-22.6c-14.836,0-27.376,10.052-27.376,24.892v180.568l-21.288-21.52    c-5.072-5.068-11.704-7.86-18.916-7.86c-7.208,0-13.908,2.792-18.976,7.86l-16.092,16.12c-5.06,5.068-7.836,11.824-7.836,19.028    c0,7.208,2.796,13.964,7.86,19.028l94.352,95.272c5.06,5.064,11.812,8.776,19.084,8.776h0.084c7.204,0,13.96-3.716,19.02-8.776    l94.376-94.836c5.068-5.072,7.852-12.064,7.86-19.264C367.14,233.174,364.348,226.302,359.28,221.234z"/>
	</g>
</g>
<g>
	<g>
		<path d="M491.716,311.838c0-14.84-11.684-25.472-26.524-25.472H442c-14.84,0-26.916,12.076-26.916,26.912l0.024,80.74H76.996    l-0.252-80.74c0-14.836-12.076-26.912-26.916-26.912H27.024C12.188,286.366,0,296.518,0,311.354v119.184    c0,21.2,17.36,40.368,38.56,40.368h414.996c21.196,0,38.444-18.208,38.444-39.416L491.716,311.838z"/>
	</g>
</g>
<g>
</g>
<g>
</g>
<g>
</g>
<g>
</g>
<g>
</g>
<g>
</g>
<g>
</g>
<g>
</g>
<g>
</g>
<g>
</g>
<g>
</g>
<g>
</g>
<g>
</g>
<g>
</g>
<g>
</g>
</svg>
