<?xml version="1.0" encoding="iso-8859-1"?>
<!-- Generator: Adobe Illustrator 19.0.0, SVG Export Plug-In . SVG Version: 6.00 Build 0)  -->
<svg xmlns="http://www.w3.org/2000/svg" xmlns:xlink="http://www.w3.org/1999/xlink" version="1.1" id="Layer_1" x="0px" y="0px" viewBox="0 0 492 492" style="enable-background:new 0 0 492 492;" xml:space="preserve">
<g>
	<g>
		<path d="M484.088,292.5c-5.1-5.132-11.968-8.08-19.156-8.08H330.588c-14.832,0-26.864,12.308-26.864,27.132v22.788    c0,7.16,2.784,13.908,7.88,19c5.088,5.092,11.836,7.9,18.992,7.9l39.088,0.008c-32.072,34.344-76.7,53.884-123.708,53.884    c-93.256,0-169.132-75.876-169.132-169.132S152.716,76.868,245.972,76.868c69.824,0,133.388,43.836,158.172,109.084    c5.636,14.82,20.076,24.784,35.924,24.784c4.66,0,9.248-0.852,13.636-2.52c19.808-7.52,29.796-29.76,22.268-49.568    C439.932,63.772,347.504,0.024,245.976,0.024C110.344,0.024,0,110.372,0,246c0,135.632,110.184,245.976,245.816,245.976    c62.608,0,123.232-24.64,169.336-67.9v21.796c0,14.832,12.392,26.824,27.22,26.824h22.792c14.828,0,26.836-11.992,26.836-26.824    V311.648C492,304.468,489.204,297.584,484.088,292.5z"/>
	</g>
</g>
<g>
	<g>
		<path d="M337.844,161.78l-11.068-11.068c-2.86-2.86-6.676-4.432-10.744-4.432s-7.884,1.576-10.736,4.432l-62.972,62.976    l-63.14-63.14c-2.856-2.856-6.672-4.432-10.736-4.432c-4.064,0-7.88,1.58-10.74,4.432l-11.072,11.072    c-2.86,2.86-4.436,6.672-4.436,10.744c0,4.068,1.576,7.88,4.436,10.736l63.136,63.14L146.8,309.216    c-2.86,2.86-4.436,6.676-4.436,10.74c0,4.064,1.576,7.884,4.436,10.736l11.072,11.076c2.96,2.96,6.848,4.44,10.74,4.44    c3.884,0,7.772-1.48,10.736-4.44l63-62.98L280.68,317.1v-5.54c0-16.22,7.784-30.612,19.8-39.744l-25.588-25.584l62.952-62.972    C343.764,177.34,343.764,167.7,337.844,161.78z"/>
	</g>
</g>
<g>
</g>
<g>
</g>
<g>
</g>
<g>
</g>
<g>
</g>
<g>
</g>
<g>
</g>
<g>
</g>
<g>
</g>
<g>
</g>
<g>
</g>
<g>
</g>
<g>
</g>
<g>
</g>
<g>
</g>
</svg>
