<?xml version="1.0" encoding="iso-8859-1"?>
<!-- Generator: Adobe Illustrator 19.0.0, SVG Export Plug-In . SVG Version: 6.00 Build 0)  -->
<svg xmlns="http://www.w3.org/2000/svg" xmlns:xlink="http://www.w3.org/1999/xlink" version="1.1" id="Layer_1" x="0px" y="0px" viewBox="0 0 512 512" style="enable-background:new 0 0 512 512;" xml:space="preserve">
<g>
	<g>
		<path d="M501.157,33.563L478.93,11.347c-6.975-6.99-16.297-10.828-26.233-10.828c-9.926,0-18.263,3.837-25.243,10.828    L107.611,332.17V131.931c0-20.456-18.613-39.128-39.069-39.128H37.098c-20.446,0-37.087,17.643-37.087,38.111L0,475.887    c0.011,9.905,4.653,19.487,11.702,26.504c7.038,7.086,16.413,9.089,27.012,9.089h343.093c9.873,0,19.874-2.793,26.896-9.82    c7.022-7.027,11.591-15.263,11.591-25.141v-31.433c0-9.868-4.563-20.435-11.591-27.452c-7.022-7.022-17.018-12.147-26.896-12.147    H179.188L501.156,84.775C515.614,70.316,515.614,48.026,501.157,33.563z"/>
	</g>
</g>
<g>
</g>
<g>
</g>
<g>
</g>
<g>
</g>
<g>
</g>
<g>
</g>
<g>
</g>
<g>
</g>
<g>
</g>
<g>
</g>
<g>
</g>
<g>
</g>
<g>
</g>
<g>
</g>
<g>
</g>
</svg>
