<?xml version="1.0" encoding="iso-8859-1"?>
<!-- Generator: Adobe Illustrator 19.0.0, SVG Export Plug-In . SVG Version: 6.00 Build 0)  -->
<svg xmlns="http://www.w3.org/2000/svg" xmlns:xlink="http://www.w3.org/1999/xlink" version="1.1" id="Layer_1" x="0px" y="0px" viewBox="0 0 491.992 491.992" style="enable-background:new 0 0 491.992 491.992;" xml:space="preserve">
<g>
	<g>
		<path d="M422.704,96.92l0.092-0.42H135.764l13.14-12.612c5.068-5.04,7.86-11.54,7.86-18.716c0-7.168-2.792-13.784-7.86-18.82    L132.78,30.388c-10.488-10.424-27.552-10.404-38.044,0.028l-86.88,86.348c-5.084,5.064-7.876,11.816-7.856,19    c-0.02,7.208,2.772,13.96,7.856,19.016l90.66,90.1c10.488,10.42,27.552,10.42,38.044,0l16.12-16.024    c5.072-5.036,7.86-11.764,7.86-18.936c0-7.172-2.792-14.344-7.86-19.384l-16.804-17.148h279.236v111.488h-52.148l13.14-12.584    c5.072-5.04,7.86-11.532,7.86-18.704c0-7.172-2.788-13.784-7.86-18.824l-16.12-15.964c-10.488-10.416-27.552-10.396-38.044,0.032    L235.056,305.2c-5.084,5.052-7.876,11.808-7.852,18.992c-0.02,7.208,2.768,13.964,7.852,19.016l90.656,90.1    c10.488,10.424,27.556,10.424,38.04,0l16.128-16.024c5.068-5.044,7.864-11.768,7.86-18.94c0-7.172-2.792-14.364-7.86-19.404    l-16.804-17.172h52.032v81.684c0,0.148-0.084-0.184-0.072-0.04c0.236,14.64,12.12,26,26.816,26H464.9    c14.836,0,27.092-11.124,27.092-25.96v-88.428V166.596C491.992,128.44,460.86,96.92,422.704,96.92z"/>
	</g>
</g>
<g>
</g>
<g>
</g>
<g>
</g>
<g>
</g>
<g>
</g>
<g>
</g>
<g>
</g>
<g>
</g>
<g>
</g>
<g>
</g>
<g>
</g>
<g>
</g>
<g>
</g>
<g>
</g>
<g>
</g>
</svg>
