<?xml version="1.0" encoding="iso-8859-1"?>
<!-- Generator: Adobe Illustrator 19.0.0, SVG Export Plug-In . SVG Version: 6.00 Build 0)  -->
<svg xmlns="http://www.w3.org/2000/svg" xmlns:xlink="http://www.w3.org/1999/xlink" version="1.1" id="Layer_1" x="0px" y="0px" viewBox="0 0 457.929 457.929" style="enable-background:new 0 0 457.929 457.929;" xml:space="preserve">
<g>
	<g>
		<path d="M457.733,452.765l-39.696-343.972c-0.176-1.528-1.212-2.812-2.656-3.316c-1.452-0.508-3.068-0.136-4.148,0.944    l-56.568,56.576L193.385,1.709c-1.568-1.56-4.092-1.56-5.656,0L1.173,188.265c-1.564,1.568-1.564,4.092,0,5.656l161.28,161.28    l-56.18,56.18c-1.084,1.088-1.456,2.696-0.952,4.148c0.508,1.448,1.796,2.48,3.32,2.656l344.752,39.204    c0.152,0.024,0.304-0.56,0.456-0.56h0.044c2.236,0,4.036-1.2,4.036-3.412C457.929,452.977,457.865,453.161,457.733,452.765z"/>
	</g>
</g>
<g>
</g>
<g>
</g>
<g>
</g>
<g>
</g>
<g>
</g>
<g>
</g>
<g>
</g>
<g>
</g>
<g>
</g>
<g>
</g>
<g>
</g>
<g>
</g>
<g>
</g>
<g>
</g>
<g>
</g>
</svg>
