<svg id="Icons" xmlns="http://www.w3.org/2000/svg" viewBox="0 0 200 200"><defs><style>.cls-1{fill:#000100;}</style></defs><title>snowboard</title><circle class="cls-1" cx="112.86" cy="28.32" r="11.9"/><path class="cls-1" d="M165.74,25.54a6.3,6.3,0,0,0-2,.35l-21.13,7a55.38,55.38,0,0,0-6,2.89c-3,1.51-9.1,4.66-10.47,5.09-1.75.38-10,1-24.59,1.9L98,43c-3.43.27-19.47,6-22.79,7.91-3,1.76-14.84,11.2-18.38,14.06a6.38,6.38,0,1,0,8,9.94C71.67,69.42,80,62.9,81.58,62A123.46,123.46,0,0,1,93.72,57.4l-3.94,7.5L77.92,70.83,51.59,87.72a7.92,7.92,0,0,0-1,.77C42.11,74,34.38,60.9,34.11,60.29,33.49,58.93,33,57.72,31.5,58s-3.38,3.46-3.59,4.77,1,4.11,1.59,5.9a25.11,25.11,0,0,0,3,5.58S96.73,177.18,98.55,179.46s4.92,3.91,6.28,4,3.77.36,3.77-.94-3.79-4.43-5.71-6.54a67.88,67.88,0,0,1-5.26-7.76l-9.3-15.81A7.94,7.94,0,0,0,93,149.23c23.1-33.06,23.29-35.23,23.5-37.53.11-1.26.32-3.61-6-31.59l-.45-2,18.7-24.76c.27-.05.51-.11.7-.16,2.37-.66,6.68-2.82,13-6,1.75-.9,3.94-2,4.24-2.16l20.76-7a6.35,6.35,0,0,0-1.71-12.47ZM80.57,139.23l-7.35-12.5s-6.76-11.42-14.65-24.79a8,8,0,0,0,1.66-.79L85.45,84.91,91,82.14l4.52,4c2.08,9.26,4.22,19.37,4.9,23.46C97.69,114.26,88.8,127.43,80.57,139.23Z"/></svg>