<svg height='300px' width='300px'  fill="#000000" xmlns="http://www.w3.org/2000/svg" xmlns:xlink="http://www.w3.org/1999/xlink" version="1.1" x="0px" y="0px" viewBox="0 0 40 40" enable-background="new 0 0 40 40" xml:space="preserve"><path d="M14.283,9.726c-1.041,0.117-1.789,1.059-1.67,2.1l0.787,6.863c0.055,0.48,0.293,0.895,0.627,1.194  c0.123,0.219,0.291,0.414,0.514,0.559l3.973,2.617v5.293c0,0.725,0.586,1.311,1.311,1.311c0.723,0,1.307-0.586,1.307-1.311v-6.686  c0-0.01-0.002-0.02-0.002-0.027c0.004-0.531-0.25-1.053-0.725-1.367l-3.246-2.136l-0.621-5.415h5.455  c0.59,0,1.066-0.479,1.066-1.066s-0.477-1.065-1.066-1.065H16.09C15.713,10,15.025,9.639,14.283,9.726z M23.977,10.699l4.545-5.05  l-0.742-0.673l-4.441,4.936C23.607,10.121,23.826,10.389,23.977,10.699z M18.578,16.66l2.537-2.802h-1.35l-1.93,2.13L18.578,16.66z   M33.818,25.596l-0.906,0.213c0.18,0.76-0.287,1.52-1.033,1.705L7.977,33.588l0.227,0.914l23.896-6.07  C33.354,28.129,34.121,26.859,33.818,25.596z M15.041,24.178c0.275,0.219,0.674,0.172,0.893-0.104  c0.219-0.273,0.174-0.674-0.102-0.893l-4.117-3.266c-0.275-0.216-0.676-0.17-0.893,0.104c-0.219,0.277-0.174,0.678,0.102,0.895  L15.041,24.178z M14.203,9.179c1.336-0.014,2.414-1.12,2.412-2.473c0-1.351-1.092-2.432-2.428-2.419  c-1.338,0.01-2.424,1.116-2.416,2.469C11.775,8.105,12.859,9.189,14.203,9.179z"></path></svg>