<svg id="Icons" xmlns="http://www.w3.org/2000/svg" viewBox="0 0 200 200"><defs><style>.cls-1{fill:#000100;}</style></defs><title>Snowshoes-2</title><path class="cls-1" d="M167.54,48.6C163.42,35.75,154.86,28.34,142.18,26c-.16,0-.33-.16-.49-.33h-3.79a64.51,64.51,0,0,0-8.07,2.14c-7.25,2.8-13,7.74-18,13.84a77.38,77.38,0,0,0-11.69,20.26C98.69,59,97.54,56,95.89,53c-4.78-9.22-11-17-19.6-22.4A28.22,28.22,0,0,0,63.94,26c-.16,0-.33-.16-.49-.33H59c-.16.16-.49.16-.66.33-9.72,1.65-17.62,6.59-22.56,15.32C28.53,54,28.86,67,35.94,79.56c7.58,13.34,18.12,24,30.14,32.78,5.44,4,11.2,7.08,16.8,10.71,2.14,1.32,4.12,2.8,6.09,4.28A143.77,143.77,0,0,1,70,165.7a6.35,6.35,0,0,0-1.48,3.62c-.33,3.62,1.32,5.76,5.11,4.61,2.47-.66,4-2.64,5.11-4.78,2.47-4.78,4.94-9.39,7.58-14a104,104,0,0,1,13.34-18.28l.49.49c7.25,7.74,12.85,16.8,17.79,26.19,1.32,2.64,2.64,5.27,4.28,7.91,1.81,3.13,5.93,3.79,8.07,1.32,1.81-2,1.65-5.27-.16-7.91a142.79,142.79,0,0,1-18.61-36.73c-.33-1.15-.16-1.81.82-2.31,2.8-1.81,5.44-3.79,8.4-5.44A117.85,117.85,0,0,0,158,88.29c4-5.27,7.58-10.54,9.55-17a83.23,83.23,0,0,0,2-9.22V57.17C168.69,54,168.36,51.24,167.54,48.6ZM121.26,94.39c-2,1.65-4,2.31-5.93.16a3.59,3.59,0,0,0-1.32-.82c.16-1.32.33-2.47.49-3.79.33-1.65,3-3,4.28-2.14.33.33.82.49,1.15.82,2.64,1.65,2.64,1.81,2,4.94C121.75,93.73,121.42,94.22,121.26,94.39Zm.33,1c-.16,1.15-.33,2-.49,3-.82-.49-1.32-.82-2.14-1.32A14.22,14.22,0,0,1,121.59,95.38Zm-9.06,1.48c-.16,1-.33,2-.49,3.13-1.81-1.15-3.29-2.14-4.94-3.29a2,2,0,0,1,.16-3.29c1-.49,1.81-2,3.46-.82C112.86,94.22,112.86,94.22,112.53,96.86Zm.16,18.12c-1.48,1-2.64,2-4.12,3-.33-2-.49-3.79-.66-5.44.16,0,.33-.16.49-.16C109.73,113.16,111,114,112.69,115ZM150.9,47.45c1.48-.33,3-.66,4.28-.82a2.27,2.27,0,0,1,2.8,2.14,25.57,25.57,0,0,0,.66,3.46C154,54,150.58,51.89,150.9,47.45Zm7.91,5.76c.16,1,.33,1.81.49,3-1.32-.82-2.14-1.48-3.46-2.31C157,53.71,157.82,53.38,158.81,53.21Zm-5.93,0a.61.61,0,0,1-.16.49c-.33-.16-.82-.33-1.15-.49,0-.16.16-.33.16-.49A8,8,0,0,1,152.88,53.21Zm-2.31-6.75c-.16-1.32-.49-2.47-.82-4.12l4.94,3.13A21.22,21.22,0,0,1,150.58,46.46Zm-14.49,4.45c0-.16.16-.33.16-.49,2-.33,3.79-.82,5.93-1.32.49,2.14.82,4.12,1.32,6.59C140.86,54,138.55,52.55,136.08,50.91ZM139.54,83a22.67,22.67,0,0,1,1.32-2.8C142,81,141.68,81.87,139.54,83ZM142,48.11c-1,.16-2,.49-3,.66s-2,.33-3.13.49c-.49-2-.82-4-1.32-5.93C137.73,42.67,141.85,45.14,142,48.11Zm-7.91-6.26c.16-.16.16-.33.33-.49.33.16.66.49,1,.66a.16.16,0,0,1-.16.16A4.19,4.19,0,0,1,134.1,41.85Zm9.22,7.25c3.13-1,7.41,1.48,7.41,4.78-1,.16-2,.49-3,.66s-2,.33-3.29.66C144,53,143.66,51.07,143.33,49.09Zm-.49-1.65c.16-.16.16-.33.33-.49.33.16.66.49,1,.66,0,.16-.16.16-.16.33A8,8,0,0,1,142.83,47.45Zm7.41,2.8c-1.15-.66-2-1.32-3.13-2a10.25,10.25,0,0,0,2.64-.66C149.92,48.44,150.08,49.26,150.25,50.25ZM142,42c1.65-.33,3.46-.82,5.11-1,.82-.16,1.65.33,1.81,1.65s.49,2.64.66,4.12C144.32,47.78,142.34,46.46,142,42Zm-.33-1c-.33-1.48-.66-2.8-1-4.45,1.81,1.15,3.46,2.31,5.44,3.46A43.05,43.05,0,0,1,141.68,41Zm-.82,1.15c.16.82.33,1.48.49,2.47-1-.66-2-1.15-3.13-2C139.38,42.51,140,42.34,140.86,42.18Zm-7.58-5.6c1.81-.33,3.62-.82,5.44-1a1.48,1.48,0,0,1,1,1,43,43,0,0,1,1,4.45C136.08,42.51,133.78,41.19,133.28,36.58Zm1.81,13-.33.33a65.13,65.13,0,0,1-7.08-4.61c.16-.16.16-.33.33-.66,2-.33,3.79-.82,5.93-1.15A36.25,36.25,0,0,0,135.09,49.59ZM131.8,87.8c-2.14,1.32-3.62,2.31-5.27,3.13-1,.49-3.29-1.32-3.13-2.47.16-1.48.49-3,.66-4.61.33-1.81,1.48-2.31,2.8-1.15C128.67,84.34,130,86,131.8,87.8Zm-8.56,2.8a20.57,20.57,0,0,0,2,1.32c-1,.49-1.65,1-2.47,1.48A20.15,20.15,0,0,0,123.23,90.6ZM122.58,89l-4-2.47c1.65-1,3-1.81,4.78-2.8C123.07,85.66,122.9,87.14,122.58,89Zm.49-6.26c-1.65,1-3.13,2-4.78,3-.82.49-3-1-2.8-2,.33-1.81.66-3.79,1-6.09,2.47,1,4.61,1.81,6.59,2.64A1.4,1.4,0,0,1,123.07,82.69Zm-7.91,2.8c.49.33,1,.49,1.65,1a20.57,20.57,0,0,1-2,1.32C115,86.81,115,86.15,115.16,85.49Zm-.66-1.65c-1.65-1-3-1.81-4.61-3,1.81-1.15,3.46-2.14,5.6-3.29C115,79.89,114.83,81.71,114.5,83.85Zm-1.32-11c-1-.66-2-1.32-3.13-2,2.47-1.48,4.78-3,7.08-4.28l.49.49A53.33,53.33,0,0,0,113.19,72.81Zm-4.61-2.47c.49-3.62,1-6.75,1.48-10,2.47,1.65,4.78,3,7.25,4.61C114.5,66.72,111.71,68.37,108.58,70.34Zm4,3.13c-.82,1.32-1.48,2.47-2.47,4.12,1.15,0,2,.16,3.13.16a21.16,21.16,0,0,1-4.12,2.31c-.49.16-1.81-.82-1.81-1.32.16-2.47.66-4.94,1.15-7.91C110.06,72,111.21,72.65,112.53,73.47Zm-4.78,7.25c-.16.33-.49.49-.66.82l-.33-.33c.16-.33.33-.49.49-.82C107.42,80.55,107.59,80.55,107.75,80.72Zm-1.32-2.31c-2.14-.33-2.47-2.14-2.64-4,1.15-.66,2.14-1.32,3.46-2.14C106.93,74.46,106.76,76.44,106.43,78.41Zm-.16,1.32c-.16,1-.33,1.81-.49,2.64h-.33c-.16-1.15-.49-2.14-.82-3.62A14.49,14.49,0,0,1,106.27,79.73Zm.16,4.45c.49-2.31,2-3,4-1.81,1,.66,2.14,1.32,3,2,.33.33.66.82,1,1.15-.33,1.32-.33,2.47-.82,3a13,13,0,0,1-3.79,2.31c-1.15.49-4-2.47-3.79-3.79C106.11,86,106.27,85.16,106.43,84.18Zm2.31,7.25a18.09,18.09,0,0,0-2.31,1.48c0-1.15-.16-2-.16-3.13A12.91,12.91,0,0,0,108.74,91.42Zm1.65.16,3.13-1.81c-.16,1.32-.33,2.31-.49,3.46A10.28,10.28,0,0,0,110.39,91.59Zm3.29,3.13A37.27,37.27,0,0,1,117,96.86c-1.32.82-2.47,1.48-4,2.47C113.35,97.52,113.52,96.2,113.68,94.72Zm9.39-.16a6.82,6.82,0,0,1,3.13-2c.82-.33,4.12,2.8,4.12,3.46,0,2.8-2.14,6.09-4,5.44A8.76,8.76,0,0,1,122.08,98C121.75,97.52,122.41,95.38,123.07,94.55Zm4-2.64c1.48-1,2.8-1.65,4.28-2.64-.33,1.81-.49,3.29-.66,4.94C129.49,93.4,128.34,92.74,127,91.92Zm4.28,4c.82.49,1.48,1,2.47,1.48-1,.66-1.81,1.15-3,2C131,98,131.14,97,131.3,95.87Zm1.15-5.6c.33,1.32.82,2.47,1.15,3.62.16,0,.33.16.49.16,1-1.65,1.81-3.29,2.8-4.94a14.49,14.49,0,0,1,1.65,1c1.81,1.15,1.81,3.29-.16,4.45-.82.49-1.81,1.15-2.64,1.65-.49.16-1.15.33-1.48,0C131.3,95,131,93.73,132.46,90.27Zm4.78-2.14c1-2,1.48-4.12,4-4.61l-1,6.42C139,89.28,138.22,88.79,137.23,88.13Zm3.62,3.62a9.45,9.45,0,0,1,1.15.66,13.36,13.36,0,0,1-1.32,1A4.59,4.59,0,0,1,140.86,91.75Zm.82-.82a3.91,3.91,0,0,1-.49-2c.16-1.65.49-3.29.82-4.94.33-2,1.15-2.47,2.8-1.48,1.48.82,2.8,1.81,4.28,2.8a10.75,10.75,0,0,1,1.15,1.32c-.49.66-.82,1.48-1.48,1.81-1.48,1-3.13,1.81-4.61,3A1.81,1.81,0,0,1,141.68,90.93Zm8.4-6.26c-1.81-1.15-3.46-2.31-5.44-3.46,2.31-1.32,4.28-2.64,6.59-4C150.74,79.73,150.41,82,150.08,84.67Zm-5.93-4.28c-.82.49-1.65,0-1.48-.82.33-3,1-5.76,1.48-9.06,2.8,1.81,5.27,3.29,7.91,5.11C149.42,77.09,146.79,78.74,144.15,80.39Zm.16-24.21c2.47-.49,4.45-1,6.59-1.32.33,2.14.66,4.12,1.15,6.42C149.59,59.47,147.12,58,144.32,56.18Zm7.58-1.32c3-1.15,7.74,1.65,7.74,4.61-2.14.49-4.45.82-6.75,1.32A37.13,37.13,0,0,0,151.89,54.86Zm7.74-2.8c-.16-1.15-.49-2.31-.66-3.79,1.48,1,2.8,1.81,4.12,2.8,0,.16-.16.33-.16.49Zm2.47-3.29c-.16,0-.16.16-.33.16a21.46,21.46,0,0,1-2.47-1.65,3,3,0,0,1-.82-1.15,1.29,1.29,0,0,1,.66-.66c.49,0,1.32,0,1.48.33A8.35,8.35,0,0,1,162.1,48.77ZM158,41.19c.66,1,1.48,2.14,2.14,3.29-.66.16-1.15.33-1.65.49-.16-1.32-.49-2.47-.66-3.62A.16.16,0,0,1,158,41.19ZM156.5,40q.49,2.47,1,5.44c-3.29-.82-5.44-3-8.07-4.45a.61.61,0,0,1,.16-.49c2-.33,4-.82,5.93-1.15C155.85,39.38,156.5,39.71,156.5,40ZM155,37.89v.49c-1.81.33-3.79.66-5.76,1.15-.33-2-.66-3.62-1-5.93C150.74,35.09,152.88,36.58,155,37.89Zm-6.59,1.65c-.16.16-.33.33-.33.49-2.47-1.48-4.94-3.13-7.74-4.78,2.64-.49,4.78-1,7.08-1.32C147.78,35.75,148.1,37.73,148.43,39.54Zm-2.31-6.92V33c-1.81.49-3.79.82-5.76,1.32a21.18,21.18,0,0,0-.66-3.13Q143.16,31.88,146.13,32.62Zm-11-1.15c1.15-.16,2.31-.16,3.62-.33.16,1,.49,2,.66,3.46-1.65-1-3-1.81-4.45-2.8C135.09,31.8,135.09,31.64,135.09,31.47Zm2.8,3.13c-2,.33-3.46.66-4.94,1-.16-1-.49-2.14-.82-3.46C134.6,31.8,135.75,33.78,137.89,34.6ZM132.79,39c-1.15-.66-1.81-1.15-3-1.81,1-.16,1.65-.16,2.31-.33C132.29,37.57,132.46,38.06,132.79,39Zm-1.48-6.42a23.32,23.32,0,0,1,.66,3.29c-2,.66-3.79,1.15-5.6-1C128.18,34.11,129.66,33.28,131.3,32.62Zm2.14,10c-2,.33-4,.82-5.93,1.15-.33-2-.82-3.79-1.15-5.6C128.83,37.07,132.79,39.38,133.45,42.67Zm-8.56-6.75c.16.49.33.82.49,1.32-1,.16-1.65.33-2.47.49a.16.16,0,0,0-.16-.16A10.57,10.57,0,0,1,124.88,35.92Zm.66,2.14c.33,2,.66,3.79,1.15,5.93-.49,0-1.15.16-1.48-.16-2-1.15-3.79-2.47-5.76-3.62C121.26,38.39,123.4,38.72,125.54,38.06Zm-5.76,16.8c2,1.15,3.79,2.47,6.09,4-2.47,2-4.78,3.79-7.08,5.76-.16-.16-.33-.16-.33-.33.49-3.13.82-6.26,1.32-9.39a.75.75,0,0,1-.82,0c-.49,3-1,5.93-1.48,9.06-2.31-1.48-4.45-2.8-6.92-4.45,2.8-1.65,5.6-3.29,8.24-4.78A1,1,0,0,1,119.78,54.86Zm-1.48-1c-2.64,1.48-5.11,3-7.91,4.45.49-3,.82-5.76,1.32-8.73C113.85,51.07,116,52.39,118.29,53.87Zm-8.07-2a.16.16,0,0,1,.16.16c-.33,2.14-.66,4.28-1,6.75-.82-.49-1.48-1-2.14-1.32C108.25,55.52,109.23,53.71,110.22,51.89Zm-3.46,6.26a11.08,11.08,0,0,1,1.81,1.15l-3.13,1.81A16.17,16.17,0,0,0,106.76,58.15Zm2.31,2.31c-.49,3-.82,5.76-1.32,8.89-1.48-1-3-1.81-4.12-2.64C104,62.93,106.27,61.61,109.07,60.46Zm-5.76,7.08c1.48,1,3,2,4.78,3.13-1.65,1-3,1.81-4.45,2.8C103.14,71.49,101.82,69.68,103.31,67.54Zm-.16,49.58A24.38,24.38,0,0,0,101,115.8a14.85,14.85,0,0,0,1.48-1.65A15.67,15.67,0,0,1,103.14,117.12ZM99.85,81.71c.16,1.15.33,1.81.49,2.64C99.35,84.18,99.35,84.18,99.85,81.71Zm-1.15,8.07c.16-.66.16-1.48.33-2.14.16-.33.49-.82.82-.82s.66.49.82.82a24.57,24.57,0,0,1,.33,3.46,1.48,1.48,0,0,1-1,1,1.41,1.41,0,0,1-1.15-1c-.33-.33-.16-.82-.16-1.32Zm1,17.29c.66,0,2,1,2,1.48a33.83,33.83,0,0,1-1.15,5.6c0,.33-.49.49-.82.82a4.37,4.37,0,0,1-.82-1,25.6,25.6,0,0,1-1.15-5.11A3.56,3.56,0,0,1,99.68,107.07Zm.66,17c-.16,0-.33.16-.49.16v-1.48h.33A2,2,0,0,0,100.34,124ZM87.82,100c-.33-2-.66-4-1-5.76.33-.33.82-.49,1.15-.82,2.14-1.48,2.8-1.32,4.94.33a2.47,2.47,0,0,1,0,3C91.28,97.85,89.63,98.84,87.82,100Zm4.12,12c-.16,2.14-.16,4-.33,6.26-1.65-1.15-3-2.14-4.45-3.29C88.65,114.15,90,113.16,91.94,112ZM79.26,94.88a5.85,5.85,0,0,1-1.81-4.61c0-.16,0-.33.16-.33,1.48-1,3-1.81,4.28-2.8,1,0,3.29,2,3.46,3,.66,3.79.66,3.79-2.64,5.6a2.31,2.31,0,0,1-1.81,0A5.15,5.15,0,0,1,79.26,94.88Zm1.48,2c-.66.49-1.32.82-2.14,1.48a18.15,18.15,0,0,1-.33-3C79.26,95.87,79.92,96.36,80.74,96.86ZM58.67,83.52c2.47.49,3,2.64,4,4.61-1,.66-1.81,1.15-2.8,1.81C59.33,87.8,59,85.66,58.67,83.52Zm.66,9.72a12,12,0,0,1-1.48-.82,2.89,2.89,0,0,1,.82-.66A13.06,13.06,0,0,1,59.33,93.24Zm25-15.65L90,80.88c-1.65,1-3,2-4.61,3C85,81.71,84.69,79.89,84.36,77.59Zm.66,10c-.66-.49-1.32-.66-2-1.15a9.05,9.05,0,0,0,1.48-1.15C84.69,86.32,84.86,86.81,85,87.64ZM82.88,66.39c2.31,1.32,4.61,2.8,6.92,4.28-1.15.66-2.14,1.32-3.13,2C85.35,70.67,83.38,69.19,82.88,66.39Zm3.46,18c1-.66,2.14-1.32,3.13-2a2.37,2.37,0,0,1,3.79,1.81c.16.49,0,.82.16,1.32.49,3.29.49,3.13-2.14,4.94a1.75,1.75,0,0,1-2.31,0,3.59,3.59,0,0,0-1.32-.82c-1.81-.66-2-2.14-2.14-4.28A2.42,2.42,0,0,1,86.34,84.34Zm5.6-4.78a2,2,0,0,1-1.65.33,21.81,21.81,0,0,1-3.29-2v-.33h2.8c-.82-1.48-1.65-2.8-2.47-4.12,1-.66,1.81-1.15,2.8-1.81.82-.66,1.32-.49,1.48.66.33,2,.66,4,.82,5.76A2.56,2.56,0,0,1,91.94,79.56ZM82.22,65.07c2.47-1.65,4.78-3.13,7.25-4.61.49,3.29,1,6.42,1.48,10A96.19,96.19,0,0,0,82.22,65.07Zm1.15,12.52c.33,2.47.66,4.28.82,6.09.16,1.15-2,2.31-3,1.81-1.48-.82-3.13-1.81-4.61-2.8a1.31,1.31,0,0,1,0-2.47C78.76,79.24,80.91,78.58,83.38,77.59Zm-6.92,6.09c1.65,1,3.13,2,4.78,2.8l-4,2.47C77,87.14,76.62,85.49,76.46,83.68Zm.33,9.55c-.82-.49-1.48-.82-2.31-1.32a20.57,20.57,0,0,1,2-1.32A14.42,14.42,0,0,1,76.79,93.24ZM76,87.14c.49,2.64.49,2.8-1.81,3.79a1.41,1.41,0,0,1-1.15,0,37.67,37.67,0,0,1-4.78-3c1.15-2.31,2.47-4.28,4.61-5.44a1.54,1.54,0,0,1,2.47,1.15A31.52,31.52,0,0,1,76,87.14ZM65.26,49.92c-.16,0-.33-.16-.49-.16.33-2,.82-4,1.15-6.09,2,.33,4,.82,5.93,1.15,0,.16.16.33.16.49C70,47.12,67.4,48.27,65.26,49.92Zm-.16-6.42a19.15,19.15,0,0,1-.66,3c-.16,1-.49,1.81-.66,3-2-.49-4-.82-6.09-1.32C58.18,45,62,42.67,65.09,43.49ZM64.27,42a7.16,7.16,0,0,1,1.15-.66c0,.16.16.33.16.49-.33.16-.82.33-1.15.49A.58.58,0,0,1,64.27,42Zm-5.93,2.64.49-2.47c.82.16,1.48.33,2.64.49C60.15,43.49,59.33,44,58.34,44.65ZM58,41c-1.48-.33-2.8-.49-4.61-.82,2-1.15,3.62-2.31,5.44-3.46A39.22,39.22,0,0,1,58,41Zm-.16,1c-.16,4.61-3.79,6.26-7.74,4.61a21.11,21.11,0,0,1,.82-4.45A2.38,2.38,0,0,1,52.74,41,46.73,46.73,0,0,1,57.85,42Zm-2,6.09c0-.16-.16-.33-.16-.49.33-.16.82-.49,1.15-.66a.58.58,0,0,0,.16.33A7,7,0,0,0,55.87,48.11Zm.66,1c-.33,2-.82,4-1.15,6.09-2.14-.49-4.28-.82-6.42-1.32A6.26,6.26,0,0,1,56.53,49.09Zm-3.79-.82c-1.32.82-2.14,1.32-3.29,2.14.16-1,.33-1.81.49-2.64A10,10,0,0,1,52.74,48.27Zm-3.62-1.81c-1.32-.33-2.64-.49-4.28-.82,1.81-1.15,3.13-2.14,4.94-3.29A24,24,0,0,1,49.12,46.46Zm-.33,1c.82,4.12-3.13,6.92-7.58,4.61a25.89,25.89,0,0,1,.66-3.79,2.14,2.14,0,0,1,2.64-1.65C45.82,46.79,47.31,47.12,48.79,47.45Zm-.49,5.44c-.33.16-.82.49-1.15.66a.58.58,0,0,0-.16-.33c.33-.16.82-.49,1.15-.66A.51.51,0,0,0,48.29,52.88Zm-4.45,1c-1.32.82-2.31,1.48-3.46,2.31.16-1.15.33-2,.49-3C41.87,53.38,42.69,53.71,43.85,53.87Zm4,.82c-.33,2-.66,4-1,6.09-2.47-.49-4.61-1-6.75-1.32C40.22,56.51,44.51,53.87,47.8,54.69Zm1,.16c2.14.49,4.12.82,6.75,1.32-2.8,1.81-5.11,3.29-7.74,4.94A41.19,41.19,0,0,1,48.79,54.86Zm6.75,15.65c.49,3.29,1.15,6.09,1.32,9.06.16,1.15-.66,1.32-1.65.66-2.47-1.48-4.94-3.13-7.74-4.78C50.27,73.8,52.74,72.15,55.54,70.51Zm.66-14.66c.49-2.47.82-4.45,1.32-6.59,2.14.49,4.12.82,6.09,1.15,0,.16.16.33.16.49C61.31,52.39,58.84,54,56.2,55.85Zm2.47,23.88c.49,1.15,1,2,1.32,2.8C58.34,82.36,58,81.87,58.67,79.73Zm2.47,10.54c.49-.33,1.15-.66,1.81-1.15.82,1.48,1.48,2.64,2.14,3.79.16.33.66.66,1,1a8,8,0,0,0,.49-1.15,15.46,15.46,0,0,1,1-2.47l.49,4a1.25,1.25,0,0,1-.33.66c-1.48,1.65-3,2-4.78.66-.66-.49-1.32-.82-2-1.32A2.25,2.25,0,0,1,61.14,90.27Zm7.25,5.6A23.32,23.32,0,0,0,69,99.16c-1-.66-1.81-1.15-3-1.81C66.91,96.86,67.56,96.36,68.39,95.87Zm0-6.59c1.48,1,2.8,1.65,4.28,2.64-1.32.82-2.31,1.48-3.46,2.14A35.84,35.84,0,0,1,68.39,89.28Zm2.8,4.78c2.47-1.65,3.13-1.65,5.27.33.66.49.49,1.81.82,2.8a1.66,1.66,0,0,1-1,2.47,3.45,3.45,0,0,0-1,.66c-2.14,1.65-3.13,1.48-5.11-.33a5.48,5.48,0,0,1-.49-1c-.16-1.15-.49-2.47-.66-3.79A8.31,8.31,0,0,0,71.19,94.06ZM86,94.72c.16,1.65.49,3,.66,4.78-1.48-.82-2.64-1.65-4-2.47C83.87,96.2,84.86,95.54,86,94.72Zm.16-5.11,3.13,1.81a12.91,12.91,0,0,0-2.47,1.65A21.47,21.47,0,0,1,86.18,89.61Zm4.94,1.81c.82-.49,1.65-1,2.64-1.65,0,1.15-.16,2-.16,3.13A12.28,12.28,0,0,1,91.12,91.42ZM95.4,78.74c-.16,1.32-.49,2.47-.66,3.79C93.09,81,93.26,79.56,95.4,78.74Zm-2-.16c-.33-2-.66-4.12-1-6.26,1.32.82,2.47,1.48,3.62,2.31C95.89,77.26,95.89,77.26,93.42,78.58ZM99,116.79V123c-.16.16-.33.16-.49.33-1-.82-2.47-1.65-2.64-2.64C95.4,118.76,97,117.78,99,116.79Zm-2.47.16c.16-.82.33-1.65.49-3.13a12.87,12.87,0,0,1,1.32,1.65c-.16.66-.82,1.15-1.32,1.81C96.88,117.12,96.72,117,96.55,117Zm1.15-5.11c0,.49.16.82.16,1.32h-.49v-1.32ZM96.22,67.71a6,6,0,0,1,.16,5.76c-1.32-.82-2.8-1.65-4.61-2.8C93.42,69.52,94.91,68.69,96.22,67.71Zm-.49-1.81a2.19,2.19,0,0,1-.49,1.32c-1,.82-2.14,1.32-3.29,2.14-.49-3-1-5.93-1.32-8.89C93.42,61.28,95.23,62.93,95.73,65.89Zm-2-4.78c-1.15-.66-1.81-1.15-2.64-1.65l1.48-1C92.93,59.14,93.26,60,93.75,61.12Zm-4.12-8.24c.82,1.48,1.65,3,2.64,4.61-.49.33-1.15.66-1.81,1.15-.33-2-.66-3.79-1-5.76ZM88,49.75c.49,3,1,5.76,1.48,8.73-2.8-1.65-5.27-3-7.91-4.61C83.54,52.55,85.52,51.24,88,49.75Zm-6.75,5.11c2.64,1.48,5.27,3,8.07,4.61l-6.92,4.45c-.33-2.47-.66-4.61-1-6.75A18.47,18.47,0,0,0,80.58,55S80.91,54.69,81.23,54.86Zm-.82.16a2.34,2.34,0,0,0-.33,1l1,6.42c.16.49,0,1.15.16,1.65l-.33.33c-2.31-1.81-4.45-3.62-6.92-5.6,2.14-1.32,4-2.64,5.93-3.79C79.92,54.86,80.25,55,80.41,55ZM74.65,36.41a9.45,9.45,0,0,1,1.15.66.51.51,0,0,1-.33.16c-.33-.16-.66-.16-1-.33A.61.61,0,0,0,74.65,36.41Zm-1.32,6.75c.33-1.65.66-3.13,1-4.94,2.14.33,4.12.16,5.44,2.47-1.81,1.15-3.46,2.31-5.27,3.46C73.66,44.48,73.16,44.15,73.33,43.17Zm-.49-2.47c-.16,1-.33,1.81-.49,3.13-2.14-.33-4-.82-5.93-1.15.66-3.13,4.28-5.44,7.08-4.45A10.84,10.84,0,0,0,72.84,40.69Zm-4.45-7.91c1.65.82,3,1.48,4.45,2.31-1.65,2-3.29,1-5.11.82C67.89,34.93,68.22,33.94,68.39,32.79Zm1.48,4.45c-1.15.66-1.81,1.15-3,1.81a21.48,21.48,0,0,1,.49-2.14A14.62,14.62,0,0,1,69.87,37.24Zm-2.31-4.78c-.33,1.15-.49,2.14-.82,3.13-1.65-.33-3-.66-4.45-.82C63.94,33.94,65.09,31.64,67.56,32.46ZM61,31.14c1.15.16,2.31.33,4,.49-1.65,1-3,1.81-4.61,3A31.52,31.52,0,0,0,61,31.14Zm.49,4.45c1.32.33,2.8.49,4.12.82a.94.94,0,0,1,.82,1.32,4.61,4.61,0,0,1-5.27,3.79c-.66-.16-1.32-.33-2.14-.49.33-1.48.66-3,.82-4.28C60,35.75,60.48,35.42,61.47,35.59ZM60,31c-.16,1.32-.33,2.14-.49,3.29-2.14-.49-4.28-.82-6.42-1.15v-.33C55.21,32.13,57.35,31.64,60,31Zm-7.58,2.8c2.31.49,4.45.82,7.08,1.32q-3.71,2.47-6.92,4.45c-.66.49-1.15,0-1-.82C51.75,37.24,52.08,35.59,52.41,33.78Zm-1.32-.49.33.33c-.33,2-.66,3.79-1,5.93-2.14-.49-4.12-.82-6.26-1.15,0-.16-.16-.33-.16-.49C46.32,36.41,48.79,34.77,51.09,33.28Zm-7.74,5.93c2.31.49,4.61.82,6.75,1.32C49.61,42,44,45.47,42.2,45.14,42.69,43,43,41.19,43.35,39.21Zm-3.46,4a12.28,12.28,0,0,1,2.31-2.8c-.33,1.48-.49,3-.82,4.61-.82-.16-1.48-.33-2.14-.49A3.31,3.31,0,0,1,39.89,43.17Zm-1.32,2.31a.58.58,0,0,0,.33-.16c.66.33,1.48.49,2.14.82a18.79,18.79,0,0,1-1.81,1.81c-.66.49-1.32.82-2.31,1.48C37.59,47.94,38.08,46.79,38.58,45.47Zm2.14,2.8c-.16,1.48-.49,2.47-.66,3.79-1.15-.16-2.31-.49-3.46-.66a.58.58,0,0,0-.16-.33C37.92,50.25,39.24,49.26,40.72,48.27Zm-4.61,4.12a34.07,34.07,0,0,0,3.62.66c.16,3.46-1.32,5.44-4.28,5.76C35.61,56.51,35.94,54.53,36.11,52.39Zm3,6.09c-.33.33-.66.49-1,.82a.58.58,0,0,0-.16-.33c.33-.16.66-.49,1-.66ZM36.6,68c-.33-2.31-.82-4.78-1-7.08,0-.33.82-.82,1.32-1s1.15.16,2,.49c-.49,2.64-1,5.11-1.48,7.74A1.79,1.79,0,0,0,36.6,68Zm3.13-7.58c2.31.49,4.45.82,7.08,1.32-3,1.81-5.44,3.46-8.07,5.27A42.3,42.3,0,0,1,39.73,60.46Zm7.58,26.19c-2-2.64-3.62-4.94-5.44-7.41,1.48-1,2.8-1.81,4.12-2.8.82-.66,1.32-.33,1.48.66.49,2.47.82,5.11,1.15,7.58C48.79,85.16,48,85.82,47.31,86.65Zm1.32-9.39c2.31,1.32,4.28,2.64,6.42,4-1.81,1.15-3.46,2.31-5.44,3.46A61.18,61.18,0,0,0,48.62,77.26ZM51.09,85c1.48-1,3-2,4.45-2.8a1.39,1.39,0,0,1,2.14.82c.33,2.14.66,4.45,1,6.42,0,1.65-1.32,2.64-2.47,2-1.65-1-3.46-2-5.11-3.13C49.45,87.31,49.45,86,51.09,85Zm-.82,4.12,5.6,3.29c-.82.49-1.48,1-2.31,1.48C52.74,92.25,50.76,91.42,50.27,89.12Zm4.12,5.6c2.14-1.81,2.47-2,4.45-.49a1.64,1.64,0,0,1,.66.82,8.34,8.34,0,0,1,.33,2.14c.16,1,.16,1.81.33,3.13C58,98.34,56.2,96.53,54.39,94.72Zm6.09.33c1.32.82,2.31,1.48,3.62,2.31-1,.66-1.81,1.15-2.8,1.81A30.35,30.35,0,0,1,60.48,95Zm5.93,10.21a43.65,43.65,0,0,1-4.28-3.46c-.82-.66-.82-1.32.16-2,2.8-2,4.28-2,6.59.33.66.66.66,2,1,3.29a9.94,9.94,0,0,1-1.32,1.32C67.89,105.09,66.74,105.59,66.41,105.26Zm1.32,1.32c.66-.49,1.32-.82,2-1.32.16,1,.33,2,.66,3.29A21.87,21.87,0,0,0,67.73,106.58Zm2.47-4.78V101a8.87,8.87,0,0,0,2.14,1.15,10,10,0,0,0-1.65,1.15Zm3.13,7.58c-1.15.82-1.65.33-2-.82a8.34,8.34,0,0,1-.33-2.14c0-.82-.66-1.81.49-2.47s2.14-1.32,3.29-.16c1.15.82,2.31,1.48,3.62,2.31C76.79,107.24,75,108.22,73.33,109.38Zm.82-7.08c1.32-.82,2.47-1.48,3.79-2.31.33,1.65.49,3.29.82,4.94C77.12,104.11,75.8,103.28,74.15,102.29Zm5.6,3a9.33,9.33,0,0,0-.49-2.47c-.82-2.64-.16-4.45,2.64-5.11q2.22,1.48,4.94,3C84.53,102.13,82.22,103.61,79.75,105.26ZM84.2,117a13.74,13.74,0,0,1,2-1.32c1.32,1,2.47,1.81,3.62,2.64,1.32.82,1.32,1.81.66,3C88.48,119.75,86.34,118.43,84.2,117Zm3.46,27c1.65-4.28,3.46-8.89,5.27-13.51,1,1,2.14,2,3.13,3C93.26,136.88,90.46,140.51,87.66,144ZM97,126.51c-1.81-1.15-2.14-2.31-1.65-4.28,1,.66,2,1.48,3.29,2.31C98,125.35,97.54,126,97,126.51Zm3.13,3c-1-.66-1.81-1.32-1.32-2.8.16-.49.66-.66,1-1.15.33.33.82.66,1,1.15C101.16,127.66,101.66,129,100.18,129.47Zm.49-6.42V117c2.14.66,3.29,2,3.13,4-.16,1-1.48,1.81-2.31,2.64A2.19,2.19,0,0,0,100.67,123Zm.82,1.81a19.85,19.85,0,0,1,2.64-2.8c.49,2,.33,3.46-1,4.78C102.48,126.18,101.49,125.19,101.49,124.86Zm2,7.91c1-.82,2-1.81,3-2.64,1.32,3.46,2.47,6.75,3.79,10.54C107.75,137.87,105.61,135.4,103.47,132.76Zm6.09-11.2c-1-2.47-1-2.47,1-3.79,1-.66,1.81-1.32,3-2.14a20,20,0,0,1,2.31,1.65C113.68,118.6,111.71,120.08,109.56,121.56Zm11-19.6c-.16,1-.49,2-.66,3.13-2.47-1.65-4.78-3-7.08-4.45,1.48-1,3-2,4.45-2.8a1.8,1.8,0,0,1,1.32,0C120.93,99,121.09,99.33,120.6,102Zm1.15-2c1.32.82,2.47,1.48,3.79,2.31-1.48,1-2.8,1.81-4.45,2.8C121.26,103.28,121.59,101.64,121.75,100Zm6.42,10.38c-2.47-1.48-4.61-3-6.75-4.28,1.48-1,2.8-1.81,4.28-2.64.82-.49.82-.49,3.46,1.15A41.46,41.46,0,0,0,128.18,110.36Zm-.66-8.07a20.56,20.56,0,0,0,2-1.32c0,.82-.16,1.48-.16,2.47A11.08,11.08,0,0,1,127.52,102.29Zm1.81,6.75c.16-1.32.33-2.47.49-3.79,1,.49,1.65,1,2.64,1.48C131.47,107.56,130.48,108.22,129.33,109Zm8.56-6.75a43.65,43.65,0,0,1-4.28,3.46c-.16.16-.66,0-1,0-.33-.16-.66-.49-1-.66-1.15-.49-2-1-1.48-2.8.33-1.15.33-2.31,1.65-2.8a12.42,12.42,0,0,0,2.8-1.65,27.35,27.35,0,0,1,3.46,2.64C138.55,100.81,138.22,102,137.89,102.29Zm.82-3.13-3.13-1.81c1.32-.82,2.47-1.48,3.62-2.31C139,96.53,138.88,97.68,138.72,99.16Zm.82.66a12.54,12.54,0,0,0,.49-3.46,2.66,2.66,0,0,1,2.31-3c1.15-.16,2.31.66,3.62,1.15C143,98.18,140.53,100.15,139.54,99.82Zm6.92-5.6c-.82-.49-1.65-1-2.64-1.65,2-1.15,3.62-2.14,5.44-3.29C149.59,91.75,147.78,92.58,146.46,94.22Zm4-4.45-.49-.49a26.24,26.24,0,0,1,2.14-2.14l.33.33A28.67,28.67,0,0,1,150.41,89.78Zm2.64-3a.51.51,0,0,0-.33-.16c-2.64-1.32-1.32-3.46-1.32-5.44a28.26,28.26,0,0,1,.66-4c.16-.33,1-1,1.15-.82,1.65,1,3.13,2,4.94,3.13C156.34,82,154.69,84.34,153,86.81Zm0-25c2.47-.49,4.61-1,6.92-1.48.33,2.14.66,4.12,1.15,6.59C158.48,65.24,156,63.59,153,61.78Zm10,6.42c-1.81-2.31-1.48-5.27-2.14-7.91A7.25,7.25,0,0,1,162.6,60c1-.16,1.65.33,1.48,1.48A24.82,24.82,0,0,1,163.09,68.2Zm-2.47-9.55c.16-.16.16-.33.33-.49.33.16.66.49,1,.66,0,.16-.16.16-.16.33A8,8,0,0,1,160.62,58.65ZM160,53c1-.16,2.14-.33,3.46-.66l1,6.42C161.28,58.32,159.8,56.34,160,53Z"/></svg>