<svg id="Icons" xmlns="http://www.w3.org/2000/svg" viewBox="0 0 200 200"><title>snowflake</title><path d="M168.85,118.45l-3.16-12.18-33.24,8.62L112.21,103l20.41-12.38,33.07,8.11,3-12.24-20.86-5.09,19.81-12-6.18-10.13-20,12.1,5.18-21.15-12.24-3-8.17,33.36L106.63,92.49V60.9l24.11-24.08-8.91-8.91-15.2,15.2V26H94.76V43.31L79.39,27.92l-8.91,8.91L94.76,61.1V92.72L73.5,80.23,64.85,46.84,52.67,50l5.49,21.18-18-10.59-6,10.25L51.79,81.25,31.15,86.6l3.16,12.18,32.82-8.51,21.94,12.86L67.78,116.06l-33.47-8.23-3,12.24,21.26,5.21L34.74,136.1l6.18,10.16,17.5-10.62-5.09,20.72,12.24,3,8.05-32.93,21.15-12.84v28.06L70.4,166l8.88,8.91,15.48-15.48v14.8h11.87v-14.4l15.08,15.08,8.91-8.91-24-24V113.5l20,11.73,8.57,33L147.33,155,142,134.25l20,11.73,6-10.22-20.12-11.84,21.06-5.46Z"/></svg>