<svg height='300px' width='300px'  fill="#000000" xmlns="http://www.w3.org/2000/svg" xmlns:xlink="http://www.w3.org/1999/xlink" version="1.1" x="0px" y="0px" viewBox="0 0 100 100" enable-background="new 0 0 100 100" xml:space="preserve"><path d="M59.513,23.013c0.303,3.859,3.647,6.749,7.471,6.448c3.817-0.3,6.681-3.677,6.378-7.536  c-0.304-3.867-3.658-6.745-7.476-6.446C62.062,15.78,59.209,19.146,59.513,23.013z"></path><path d="M93.921,88.101h-2.638v1.425c0,1.435-1.359,1.293-1.359,1.293H68.192l15.256-42.291c1.746,0.044,3.277-1.225,3.497-2.995  c0.234-1.884-1.103-3.601-2.987-3.835L72.948,40.33l-9.983-9.418c-2.315-3.431-8.586-4.311-11.017-1.466  c-1.579,1.848-5.325,6.135-5.325,6.135l-9.36,11.022c-1.334,1.624-1.94,3.375-1.767,5.58c0.167,2.125,1.154,3.963,2.656,5.235  L54.54,71.705l-4.37,14.738c-0.603,1.488-0.287,3.172,0.748,4.376H6.481v2.648h84.432C94.531,93.002,93.921,88.101,93.921,88.101z   M62.021,66.343L50.327,53.756l11.354-13.437l7.151,6.427l12.972,1.612L66.487,90.819h-9.195c0.106-0.125,0.22-0.241,0.313-0.381  c0.171-0.269,0.31-0.554,0.426-0.839l5.323-17.507C63.354,72.092,64.397,68.677,62.021,66.343z"></path><path d="M40.293,38.977L64.736,8.394c0.395-0.494,0.315-1.215-0.18-1.61c-0.494-0.395-1.215-0.315-1.61,0.18l-3.898,4.878  l-1.894-1.578c-0.354-0.295-0.879-0.247-1.174,0.107c-0.295,0.353-0.247,0.879,0.107,1.174l1.92,1.6l-8.264,10.34L39.218,36.55  L20.511,53.817l6.25,5.277L40.293,38.977z"></path><path d="M8.831,70.632c0.303,0.1,0.613,0.166,0.917,0.208l18.277,0.894c0,0,1.688,0.164,4.13-2.272  c2.683-2.676,6.547-7.199,7.196-7.961l-2.691-2.346c-1.698-1.442-2.831-3.383-3.272-5.557l-7.125,9.496l-15.37-0.645  c-1.96-0.273-3.886,0.864-4.598,2.779C5.497,67.43,6.634,69.855,8.831,70.632z"></path></svg>