<svg id="Icons" xmlns="http://www.w3.org/2000/svg" viewBox="0 0 200 200"><defs><style>.cls-1{fill:#000100;}</style></defs><title>ski</title><path class="cls-1" d="M140.19,16.85c-5.45-2.54-16.85,6.7-19.61,12.62l-67,143.59,22.55,10.52L143.13,40C145.88,34.07,145.65,19.4,140.19,16.85ZM99.65,117.6l-10.58-4.94,1.54-3.3,10.58,4.94Zm7.41-15.9L96.48,96.77,98,93.47l10.58,4.93Zm71,58.78a21.92,21.92,0,0,1-5.9,1.52V56a5.58,5.58,0,0,0,3.17-5V38.53a5.6,5.6,0,1,0-11.2,0V51a5.58,5.58,0,0,0,3.17,5V162a21.94,21.94,0,0,1-5.9-1.52L159.51,165a26.89,26.89,0,0,0,7.76,1.92v4.76h4.85v-4.76a26.89,26.89,0,0,0,7.76-1.92ZM32.73,162V56a5.58,5.58,0,0,0,3.17-5V38.53a5.6,5.6,0,1,0-11.2,0V51a5.58,5.58,0,0,0,3.17,5V162a21.92,21.92,0,0,1-5.9-1.52L20.11,165a26.89,26.89,0,0,0,7.76,1.92v4.76h4.85v-4.76A26.89,26.89,0,0,0,40.49,165l-1.86-4.49A21.84,21.84,0,0,1,32.73,162ZM102,136.77l21.82,46.81,22.55-10.52-30.65-65.72Zm-17.74-38L98,69.29,79.43,29.47c-2.76-5.92-14.15-15.16-19.61-12.62S54.12,34.07,56.88,40Z"/></svg>