<svg enable-background="new 0 0 40 40" viewBox="0 0 40 40" xmlns="http://www.w3.org/2000/svg"><path d="m14.283 9.726c-1.041.117-1.789 1.059-1.67 2.1l.787 6.863c.055.48.293.895.627 1.194.123.219.291.414.514.559l3.973 2.617v5.293c0 .725.586 1.311 1.311 1.311.723 0 1.307-.586 1.307-1.311v-6.686c0-.01-.002-.02-.002-.027.004-.531-.25-1.053-.725-1.367l-3.246-2.136-.621-5.415h5.455c.59 0 1.066-.479 1.066-1.066s-.477-1.065-1.066-1.065h-5.903c-.377-.59-1.065-.951-1.807-.864zm9.694.973 4.545-5.05-.742-.673-4.441 4.936c.268.209.487.477.638.787zm-5.399 5.961 2.537-2.802h-1.35l-1.93 2.13zm15.24 8.936-.906.213c.18.76-.287 1.52-1.033 1.705l-23.902 6.074.227.914 23.896-6.07c1.254-.303 2.021-1.573 1.718-2.836zm-18.777-1.418c.275.219.674.172.893-.104.219-.273.174-.674-.102-.893l-4.117-3.266c-.275-.216-.676-.17-.893.104-.219.277-.174.678.102.895zm-.838-14.999c1.336-.014 2.414-1.12 2.412-2.473 0-1.351-1.092-2.432-2.428-2.419-1.338.01-2.424 1.116-2.416 2.469.004 1.349 1.088 2.433 2.432 2.423z"/></svg>