<svg enable-background="new 0 0 100 100" viewBox="0 0 100 100" xmlns="http://www.w3.org/2000/svg"><path d="m59.513 23.013c.303 3.859 3.647 6.749 7.471 6.448 3.817-.3 6.681-3.677 6.378-7.536-.304-3.867-3.658-6.745-7.476-6.446-3.824.301-6.677 3.667-6.373 7.534z"/><path d="m93.921 88.101h-2.638v1.425c0 1.435-1.359 1.293-1.359 1.293h-21.732l15.256-42.291c1.746.044 3.277-1.225 3.497-2.995.234-1.884-1.103-3.601-2.987-3.835l-11.01-1.368-9.983-9.418c-2.315-3.431-8.586-4.311-11.017-1.466-1.579 1.848-5.325 6.135-5.325 6.135l-9.36 11.022c-1.334 1.624-1.94 3.375-1.767 5.58.167 2.125 1.154 3.963 2.656 5.235l16.388 14.287-4.37 14.738c-.603 1.488-.287 3.172.748 4.376h-44.437v2.648h84.432c3.618-.465 3.008-5.366 3.008-5.366zm-31.9-21.758-11.694-12.587 11.354-13.437 7.151 6.427 12.972 1.612-15.317 42.461h-9.195c.106-.125.22-.241.313-.381.171-.269.31-.554.426-.839l5.323-17.507s1.043-3.415-1.333-5.749z"/><path d="m40.293 38.977 24.443-30.583c.395-.494.315-1.215-.18-1.61-.494-.395-1.215-.315-1.61.18l-3.898 4.878-1.894-1.578c-.354-.295-.879-.247-1.174.107-.295.353-.247.879.107 1.174l1.92 1.6-8.264 10.34-10.525 13.065-18.707 17.267 6.25 5.277z"/><path d="m8.831 70.632c.303.1.613.166.917.208l18.277.894s1.688.164 4.13-2.272c2.683-2.676 6.547-7.199 7.196-7.961l-2.691-2.346c-1.698-1.442-2.831-3.383-3.272-5.557l-7.125 9.496-15.37-.645c-1.96-.273-3.886.864-4.598 2.779-.798 2.202.339 4.627 2.536 5.404z"/></svg>