<svg viewBox="0 0 200 200" xmlns="http://www.w3.org/2000/svg"><path d="m168.85 118.45-3.16-12.18-33.24 8.62-20.24-11.89 20.41-12.38 33.07 8.11 3-12.24-20.86-5.09 19.81-12-6.18-10.13-20 12.1 5.18-21.15-12.24-3-8.17 33.36-19.6 11.91v-31.59l24.11-24.08-8.91-8.91-15.2 15.2v-17.11h-11.87v17.31l-15.37-15.39-8.91 8.91 24.28 24.27v31.62l-21.26-12.49-8.65-33.39-12.18 3.16 5.49 21.18-18-10.59-6 10.25 17.63 10.41-20.64 5.35 3.16 12.18 32.82-8.51 21.94 12.86-21.29 12.93-33.47-8.23-3 12.24 21.26 5.21-17.83 10.82 6.18 10.16 17.5-10.62-5.09 20.72 12.24 3 8.05-32.93 21.15-12.84v28.06l-24.37 24.35 8.88 8.91 15.48-15.48v14.8h11.87v-14.4l15.08 15.08 8.91-8.91-24-24v-28.5l20 11.73 8.57 33 12.14-3.23-5.33-20.75 20 11.73 6-10.22-20.12-11.84 21.06-5.46z"/></svg>