<svg viewBox="0 0 200 200" xmlns="http://www.w3.org/2000/svg"><path d="m167.54 48.6c-4.12-12.85-12.68-20.26-25.36-22.6-.16 0-.33-.16-.49-.33h-3.79a64.51 64.51 0 0 0 -8.07 2.14c-7.25 2.8-13 7.74-18 13.84a77.38 77.38 0 0 0 -11.69 20.26c-1.45-2.91-2.6-5.91-4.25-8.91-4.78-9.22-11-17-19.6-22.4a28.22 28.22 0 0 0 -12.35-4.6c-.16 0-.33-.16-.49-.33h-4.45c-.16.16-.49.16-.66.33-9.72 1.65-17.62 6.59-22.56 15.32-7.25 12.68-6.92 25.68.16 38.24 7.58 13.34 18.12 24 30.14 32.78 5.44 4 11.2 7.08 16.8 10.71 2.14 1.32 4.12 2.8 6.09 4.28a143.77 143.77 0 0 1 -18.97 38.37 6.35 6.35 0 0 0 -1.48 3.62c-.33 3.62 1.32 5.76 5.11 4.61 2.47-.66 4-2.64 5.11-4.78 2.47-4.78 4.94-9.39 7.58-14a104 104 0 0 1 13.34-18.28l.49.49c7.25 7.74 12.85 16.8 17.79 26.19 1.32 2.64 2.64 5.27 4.28 7.91 1.81 3.13 5.93 3.79 8.07 1.32 1.81-2 1.65-5.27-.16-7.91a142.79 142.79 0 0 1 -18.61-36.73c-.33-1.15-.16-1.81.82-2.31 2.8-1.81 5.44-3.79 8.4-5.44a117.85 117.85 0 0 0 37.26-32.1c4-5.27 7.58-10.54 9.55-17a83.23 83.23 0 0 0 2-9.22v-4.9c-.86-3.17-1.19-5.93-2.01-8.57zm-46.28 45.79c-2 1.65-4 2.31-5.93.16a3.59 3.59 0 0 0 -1.32-.82c.16-1.32.33-2.47.49-3.79.33-1.65 3-3 4.28-2.14.33.33.82.49 1.15.82 2.64 1.65 2.64 1.81 2 4.94-.18.17-.51.66-.67.83zm.33 1c-.16 1.15-.33 2-.49 3-.82-.49-1.32-.82-2.14-1.32a14.22 14.22 0 0 1 2.63-1.69zm-9.06 1.48c-.16 1-.33 2-.49 3.13-1.81-1.15-3.29-2.14-4.94-3.29a2 2 0 0 1 .16-3.29c1-.49 1.81-2 3.46-.82 2.14 1.62 2.14 1.62 1.81 4.26zm.16 18.12c-1.48 1-2.64 2-4.12 3-.33-2-.49-3.79-.66-5.44.16 0 .33-.16.49-.16 1.33.77 2.6 1.61 4.29 2.61zm38.21-67.54c1.48-.33 3-.66 4.28-.82a2.27 2.27 0 0 1 2.8 2.14 25.57 25.57 0 0 0 .66 3.46c-4.64 1.77-8.06-.34-7.74-4.78zm7.91 5.76c.16 1 .33 1.81.49 3-1.32-.82-2.14-1.48-3.46-2.31 1.16-.19 1.98-.52 2.97-.69zm-5.93 0a.61.61 0 0 1 -.16.49c-.33-.16-.82-.33-1.15-.49 0-.16.16-.33.16-.49a8 8 0 0 1 1.15.49zm-2.31-6.75c-.16-1.32-.49-2.47-.82-4.12l4.94 3.13a21.22 21.22 0 0 1 -4.11.99zm-14.49 4.45c0-.16.16-.33.16-.49 2-.33 3.79-.82 5.93-1.32.49 2.14.82 4.12 1.32 6.59-2.63-1.69-4.94-3.14-7.41-4.78zm3.46 32.09a22.67 22.67 0 0 1 1.32-2.8c1.14.8.82 1.67-1.32 2.8zm2.46-34.89c-1 .16-2 .49-3 .66s-2 .33-3.13.49c-.49-2-.82-4-1.32-5.93 3.18-.66 7.3 1.81 7.45 4.78zm-7.91-6.26c.16-.16.16-.33.33-.49.33.16.66.49 1 .66a.16.16 0 0 1 -.16.16 4.19 4.19 0 0 1 -1.16-.33zm9.22 7.25c3.13-1 7.41 1.48 7.41 4.78-1 .16-2 .49-3 .66s-2 .33-3.29.66c-.43-2.2-.77-4.13-1.1-6.11zm-.49-1.65c.16-.16.16-.33.33-.49.33.16.66.49 1 .66 0 .16-.16.16-.16.33a8 8 0 0 1 -1.16-.5zm7.41 2.8c-1.15-.66-2-1.32-3.13-2a10.25 10.25 0 0 0 2.64-.66c.18.85.34 1.67.51 2.66zm-8.23-8.25c1.65-.33 3.46-.82 5.11-1 .82-.16 1.65.33 1.81 1.65s.49 2.64.66 4.12c-5.26 1.01-7.24-.31-7.58-4.77zm-.33-1c-.33-1.48-.66-2.8-1-4.45 1.81 1.15 3.46 2.31 5.44 3.46a43.05 43.05 0 0 1 -4.43.99zm-.82 1.15c.16.82.33 1.48.49 2.47-1-.66-2-1.15-3.13-2 1.17-.11 1.79-.28 2.65-.44zm-7.58-5.6c1.81-.33 3.62-.82 5.44-1a1.48 1.48 0 0 1 1 1 43 43 0 0 1 1 4.45c-4.63 1.51-6.93.19-7.43-4.42zm1.81 13-.33.33a65.13 65.13 0 0 1 -7.08-4.61c.16-.16.16-.33.33-.66 2-.33 3.79-.82 5.93-1.15a36.25 36.25 0 0 0 1.16 6.13zm-3.28 38.25c-2.14 1.32-3.62 2.31-5.27 3.13-1 .49-3.29-1.32-3.13-2.47.16-1.48.49-3 .66-4.61.33-1.81 1.48-2.31 2.8-1.15 1.81 1.64 3.14 3.3 4.94 5.1zm-8.56 2.8a20.57 20.57 0 0 0 2 1.32c-1 .49-1.65 1-2.47 1.48a20.15 20.15 0 0 0 .46-2.8zm-.66-1.6-4-2.47c1.65-1 3-1.81 4.78-2.8-.29 1.93-.46 3.41-.78 5.27zm.49-6.26c-1.65 1-3.13 2-4.78 3-.82.49-3-1-2.8-2 .33-1.81.66-3.79 1-6.09 2.47 1 4.61 1.81 6.59 2.64a1.4 1.4 0 0 1 -.01 2.4zm-7.91 2.8c.49.33 1 .49 1.65 1a20.57 20.57 0 0 1 -2 1.32c.19-1.05.19-1.71.35-2.37zm-.66-1.65c-1.65-1-3-1.81-4.61-3 1.81-1.15 3.46-2.14 5.6-3.29-.49 2.29-.66 4.11-.99 6.25zm-1.32-11c-1-.66-2-1.32-3.13-2 2.47-1.48 4.78-3 7.08-4.28l.49.49a53.33 53.33 0 0 0 -4.43 5.71zm-4.61-2.47c.49-3.62 1-6.75 1.48-10 2.47 1.65 4.78 3 7.25 4.61-2.8 1.69-5.59 3.34-8.72 5.31zm4 3.13c-.82 1.32-1.48 2.47-2.47 4.12 1.15 0 2 .16 3.13.16a21.16 21.16 0 0 1 -4.12 2.31c-.49.16-1.81-.82-1.81-1.32.16-2.47.66-4.94 1.15-7.91 1.61 1.09 2.76 1.74 4.08 2.56zm-4.78 7.25c-.16.33-.49.49-.66.82l-.33-.33c.16-.33.33-.49.49-.82.13.08.3.08.46.25zm-1.32-2.31c-2.14-.33-2.47-2.14-2.64-4 1.15-.66 2.14-1.32 3.46-2.14-.36 2.11-.53 4.09-.86 6.06zm-.16 1.32c-.16 1-.33 1.81-.49 2.64h-.33c-.16-1.15-.49-2.14-.82-3.62a14.49 14.49 0 0 1 1.6.9zm.16 4.45c.49-2.31 2-3 4-1.81 1 .66 2.14 1.32 3 2 .33.33.66.82 1 1.15-.33 1.32-.33 2.47-.82 3a13 13 0 0 1 -3.79 2.31c-1.15.49-4-2.47-3.79-3.79.04-1.12.2-1.96.36-2.94zm2.31 7.25a18.09 18.09 0 0 0 -2.31 1.48c0-1.15-.16-2-.16-3.13a12.91 12.91 0 0 0 2.43 1.56zm1.65.16 3.13-1.81c-.16 1.32-.33 2.31-.49 3.46a10.28 10.28 0 0 0 -2.68-1.73zm3.29 3.13a37.27 37.27 0 0 1 3.28 2.06c-1.32.82-2.47 1.48-4 2.47.35-1.81.52-3.13.68-4.61zm9.39-.16a6.82 6.82 0 0 1 3.13-2c.82-.33 4.12 2.8 4.12 3.46 0 2.8-2.14 6.09-4 5.44a8.76 8.76 0 0 1 -4.28-3.54c-.33-.48.33-2.62.99-3.45zm4-2.64c1.48-1 2.8-1.65 4.28-2.64-.33 1.81-.49 3.29-.66 4.94-1.24-.9-2.39-1.56-3.73-2.38zm4.28 4c.82.49 1.48 1 2.47 1.48-1 .66-1.81 1.15-3 2 .14-1.48.28-2.48.44-3.61zm1.15-5.6c.33 1.32.82 2.47 1.15 3.62.16 0 .33.16.49.16 1-1.65 1.81-3.29 2.8-4.94a14.49 14.49 0 0 1 1.65 1c1.81 1.15 1.81 3.29-.16 4.45-.82.49-1.81 1.15-2.64 1.65-.49.16-1.15.33-1.48 0-3.05-1.34-3.35-2.61-1.89-6.07zm4.78-2.14c1-2 1.48-4.12 4-4.61l-1 6.42c-1.32-.79-2.1-1.28-3.09-1.94zm3.62 3.62a9.45 9.45 0 0 1 1.15.66 13.36 13.36 0 0 1 -1.32 1 4.59 4.59 0 0 1 .09-1.79zm.82-.82a3.91 3.91 0 0 1 -.49-2c.16-1.65.49-3.29.82-4.94.33-2 1.15-2.47 2.8-1.48 1.48.82 2.8 1.81 4.28 2.8a10.75 10.75 0 0 1 1.15 1.32c-.49.66-.82 1.48-1.48 1.81-1.48 1-3.13 1.81-4.61 3a1.81 1.81 0 0 1 -2.55-.64zm8.4-6.26c-1.81-1.15-3.46-2.31-5.44-3.46 2.31-1.32 4.28-2.64 6.59-4-.57 2.39-.9 4.66-1.23 7.33zm-5.93-4.28c-.82.49-1.65 0-1.48-.82.33-3 1-5.76 1.48-9.06 2.8 1.81 5.27 3.29 7.91 5.11-2.72 1.34-5.35 2.99-7.99 4.64zm.16-24.21c2.47-.49 4.45-1 6.59-1.32.33 2.14.66 4.12 1.15 6.42-2.54-1.94-5.01-3.41-7.81-5.23zm7.58-1.32c3-1.15 7.74 1.65 7.74 4.61-2.14.49-4.45.82-6.75 1.32a37.13 37.13 0 0 0 -1.07-6.06zm7.74-2.8c-.16-1.15-.49-2.31-.66-3.79 1.48 1 2.8 1.81 4.12 2.8 0 .16-.16.33-.16.49zm2.47-3.29c-.16 0-.16.16-.33.16a21.46 21.46 0 0 1 -2.47-1.65 3 3 0 0 1 -.82-1.15 1.29 1.29 0 0 1 .66-.66c.49 0 1.32 0 1.48.33a8.35 8.35 0 0 1 1.4 2.84zm-4.18-7.71c.66 1 1.48 2.14 2.14 3.29-.66.16-1.15.33-1.65.49-.16-1.32-.49-2.47-.66-3.62a.16.16 0 0 1 .17-.16zm-1.5-1.19q.49 2.47 1 5.44c-3.29-.82-5.44-3-8.07-4.45a.61.61 0 0 1 .16-.49c2-.33 4-.82 5.93-1.15.33.03.98.36.98.65zm-1.5-2.11v.49c-1.81.33-3.79.66-5.76 1.15-.33-2-.66-3.62-1-5.93 2.5 1.49 4.64 2.98 6.76 4.29zm-6.59 1.65c-.16.16-.33.33-.33.49-2.47-1.48-4.94-3.13-7.74-4.78 2.64-.49 4.78-1 7.08-1.32.36 1.82.68 3.8 1.01 5.61zm-2.31-6.92v.38c-1.81.49-3.79.82-5.76 1.32a21.18 21.18 0 0 0 -.66-3.13q3.48.69 6.45 1.43zm-11-1.15c1.15-.16 2.31-.16 3.62-.33.16 1 .49 2 .66 3.46-1.65-1-3-1.81-4.45-2.8.16 0 .16-.16.16-.33zm2.8 3.13c-2 .33-3.46.66-4.94 1-.16-1-.49-2.14-.82-3.46 2.46-.34 3.61 1.64 5.75 2.46zm-5.11 4.4c-1.15-.66-1.81-1.15-3-1.81 1-.16 1.65-.16 2.31-.33.19.71.36 1.2.69 2.14zm-1.48-6.42a23.32 23.32 0 0 1 .66 3.29c-2 .66-3.79 1.15-5.6-1 1.81-.76 3.29-1.59 4.93-2.25zm2.14 10c-2 .33-4 .82-5.93 1.15-.33-2-.82-3.79-1.15-5.6 2.46-1.06 6.42 1.25 7.08 4.54zm-8.56-6.75c.16.49.33.82.49 1.32-1 .16-1.65.33-2.47.49a.16.16 0 0 0 -.16-.16 10.57 10.57 0 0 1 2.13-1.56zm.66 2.14c.33 2 .66 3.79 1.15 5.93-.49 0-1.15.16-1.48-.16-2-1.15-3.79-2.47-5.76-3.62 1.8-1.73 3.94-1.4 6.08-2.06zm-5.76 16.8c2 1.15 3.79 2.47 6.09 4-2.47 2-4.78 3.79-7.08 5.76-.16-.16-.33-.16-.33-.33.49-3.13.82-6.26 1.32-9.39a.75.75 0 0 1 -.82 0c-.49 3-1 5.93-1.48 9.06-2.31-1.48-4.45-2.8-6.92-4.45 2.8-1.65 5.6-3.29 8.24-4.78a1 1 0 0 1 .97.22zm-1.48-1c-2.64 1.48-5.11 3-7.91 4.45.49-3 .82-5.76 1.32-8.73 2.13 1.58 4.28 2.9 6.57 4.38zm-8.07-2a.16.16 0 0 1 .16.16c-.33 2.14-.66 4.28-1 6.75-.82-.49-1.48-1-2.14-1.32.99-1.84 1.97-3.65 2.96-5.47zm-3.46 6.26a11.08 11.08 0 0 1 1.81 1.15l-3.13 1.81a16.17 16.17 0 0 0 1.3-2.84zm2.31 2.31c-.49 3-.82 5.76-1.32 8.89-1.48-1-3-1.81-4.12-2.64.35-3.66 2.62-4.98 5.42-6.13zm-5.76 7.08c1.48 1 3 2 4.78 3.13-1.65 1-3 1.81-4.45 2.8-.52-1.86-1.84-3.67-.35-5.81zm-.16 49.58a24.38 24.38 0 0 0 -2.17-1.2 14.85 14.85 0 0 0 1.48-1.65 15.67 15.67 0 0 1 .66 2.97zm-3.32-35.29c.16 1.15.33 1.81.49 2.64-.99-.17-.99-.17-.49-2.64zm-1.15 8.07c.16-.66.16-1.48.33-2.14.16-.33.49-.82.82-.82s.66.49.82.82a24.57 24.57 0 0 1 .33 3.46 1.48 1.48 0 0 1 -1 1 1.41 1.41 0 0 1 -1.15-1c-.33-.33-.16-.82-.16-1.32zm1 17.29c.66 0 2 1 2 1.48a33.83 33.83 0 0 1 -1.15 5.6c0 .33-.49.49-.82.82a4.37 4.37 0 0 1 -.82-1 25.6 25.6 0 0 1 -1.15-5.11 3.56 3.56 0 0 1 1.92-1.79zm.66 17c-.16 0-.33.16-.49.16v-1.48h.33a2 2 0 0 0 .14 1.25zm-12.54-24.07c-.33-2-.66-4-1-5.76.33-.33.82-.49 1.15-.82 2.14-1.48 2.8-1.32 4.94.33a2.47 2.47 0 0 1 0 3c-1.63 1.1-3.28 2.09-5.09 3.25zm4.12 12c-.16 2.14-.16 4-.33 6.26-1.65-1.15-3-2.14-4.45-3.29 1.49-.82 2.84-1.81 4.78-2.97zm-12.68-17.12a5.85 5.85 0 0 1 -1.81-4.61c0-.16 0-.33.16-.33 1.48-1 3-1.81 4.28-2.8 1 0 3.29 2 3.46 3 .66 3.79.66 3.79-2.64 5.6a2.31 2.31 0 0 1 -1.81 0 5.15 5.15 0 0 1 -1.64-.86zm1.48 2c-.66.49-1.32.82-2.14 1.48a18.15 18.15 0 0 1 -.33-3c.99.51 1.65 1 2.47 1.5zm-22.07-13.36c2.47.49 3 2.64 4 4.61-1 .66-1.81 1.15-2.8 1.81-.54-2.14-.87-4.28-1.2-6.42zm.66 9.72a12 12 0 0 1 -1.48-.82 2.89 2.89 0 0 1 .82-.66 13.06 13.06 0 0 1 .66 1.48zm25-15.65 5.67 3.29c-1.65 1-3 2-4.61 3-.39-2.17-.7-3.99-1.03-6.29zm.66 10c-.66-.49-1.32-.66-2-1.15a9.05 9.05 0 0 0 1.48-1.15c.22 1.03.39 1.52.53 2.35zm-2.11-21.2c2.31 1.32 4.61 2.8 6.92 4.28-1.15.66-2.14 1.32-3.13 2-1.32-2-3.29-3.48-3.79-6.28zm3.46 18c1-.66 2.14-1.32 3.13-2a2.37 2.37 0 0 1 3.79 1.81c.16.49 0 .82.16 1.32.49 3.29.49 3.13-2.14 4.94a1.75 1.75 0 0 1 -2.31 0 3.59 3.59 0 0 0 -1.32-.82c-1.81-.66-2-2.14-2.14-4.28a2.42 2.42 0 0 1 .83-1.02zm5.6-4.78a2 2 0 0 1 -1.65.33 21.81 21.81 0 0 1 -3.29-2v-.33h2.8c-.82-1.48-1.65-2.8-2.47-4.12 1-.66 1.81-1.15 2.8-1.81.82-.66 1.32-.49 1.48.66.33 2 .66 4 .82 5.76a2.56 2.56 0 0 1 -.49 1.46zm-9.72-14.54c2.47-1.65 4.78-3.13 7.25-4.61.49 3.29 1 6.42 1.48 10a96.19 96.19 0 0 0 -8.73-5.39zm1.15 12.52c.33 2.47.66 4.28.82 6.09.16 1.15-2 2.31-3 1.81-1.48-.82-3.13-1.81-4.61-2.8a1.31 1.31 0 0 1 0-2.47c2.18-.98 4.33-1.64 6.8-2.63zm-6.92 6.09c1.65 1 3.13 2 4.78 2.8l-4 2.47c-.23-1.81-.61-3.46-.77-5.27zm.33 9.55c-.82-.49-1.48-.82-2.31-1.32a20.57 20.57 0 0 1 2-1.32 14.42 14.42 0 0 1 .32 2.65zm-.78-6.09c.49 2.64.49 2.8-1.81 3.79a1.41 1.41 0 0 1 -1.15 0 37.67 37.67 0 0 1 -4.78-3c1.15-2.31 2.47-4.28 4.61-5.44a1.54 1.54 0 0 1 2.47 1.15 31.52 31.52 0 0 1 .66 3.5zm-10.74-37.22c-.16 0-.33-.16-.49-.16.33-2 .82-4 1.15-6.09 2 .33 4 .82 5.93 1.15 0 .16.16.33.16.49-2.01 1.81-4.61 2.96-6.75 4.61zm-.16-6.42a19.15 19.15 0 0 1 -.66 3c-.16 1-.49 1.81-.66 3-2-.49-4-.82-6.09-1.32.49-3.18 4.31-5.51 7.4-4.69zm-.83-1.5a7.16 7.16 0 0 1 1.15-.66c0 .16.16.33.16.49-.33.16-.82.33-1.15.49a.58.58 0 0 1 -.16-.32zm-5.93 2.64.49-2.47c.82.16 1.48.33 2.64.49-1.32.83-2.14 1.34-3.13 1.99zm-.34-3.64c-1.48-.33-2.8-.49-4.61-.82 2-1.15 3.62-2.31 5.44-3.46a39.22 39.22 0 0 1 -.83 4.28zm-.16 1c-.16 4.61-3.79 6.26-7.74 4.61a21.11 21.11 0 0 1 .82-4.45 2.38 2.38 0 0 1 1.82-1.16 46.73 46.73 0 0 1 5.11 1zm-2 6.09c0-.16-.16-.33-.16-.49.33-.16.82-.49 1.15-.66a.58.58 0 0 0 .16.33 7 7 0 0 0 -1.12.84zm.66 1c-.33 2-.82 4-1.15 6.09-2.14-.49-4.28-.82-6.42-1.32a6.26 6.26 0 0 1 7.6-4.77zm-3.79-.82c-1.32.82-2.14 1.32-3.29 2.14.16-1 .33-1.81.49-2.64a10 10 0 0 1 2.83.5zm-3.62-1.81c-1.32-.33-2.64-.49-4.28-.82 1.81-1.15 3.13-2.14 4.94-3.29a24 24 0 0 1 -.63 4.11zm-.33 1c.82 4.12-3.13 6.92-7.58 4.61a25.89 25.89 0 0 1 .66-3.79 2.14 2.14 0 0 1 2.64-1.65c1.34.16 2.83.49 4.31.82zm-.49 5.44c-.33.16-.82.49-1.15.66a.58.58 0 0 0 -.16-.33c.33-.16.82-.49 1.15-.66a.51.51 0 0 0 .18.31zm-4.45 1c-1.32.82-2.31 1.48-3.46 2.31.16-1.15.33-2 .49-3 1.02.17 1.84.5 3 .66zm4 .82c-.33 2-.66 4-1 6.09-2.47-.49-4.61-1-6.75-1.32.15-2.98 4.44-5.62 7.73-4.8zm1 .16c2.14.49 4.12.82 6.75 1.32-2.8 1.81-5.11 3.29-7.74 4.94a41.19 41.19 0 0 1 .96-6.28zm6.75 15.65c.49 3.29 1.15 6.09 1.32 9.06.16 1.15-.66 1.32-1.65.66-2.47-1.48-4.94-3.13-7.74-4.78 2.77-1.67 5.24-3.32 8.04-4.96zm.66-14.66c.49-2.47.82-4.45 1.32-6.59 2.14.49 4.12.82 6.09 1.15 0 .16.16.33.16.49-2.49 1.47-4.96 3.08-7.6 4.93zm2.47 23.88c.49 1.15 1 2 1.32 2.8-1.68-.19-2.02-.68-1.35-2.82zm2.47 10.54c.49-.33 1.15-.66 1.81-1.15.82 1.48 1.48 2.64 2.14 3.79.16.33.66.66 1 1a8 8 0 0 0 .49-1.15 15.46 15.46 0 0 1 1-2.47l.49 4a1.25 1.25 0 0 1 -.33.66c-1.48 1.65-3 2-4.78.66-.66-.49-1.32-.82-2-1.32a2.25 2.25 0 0 1 .15-4.04zm7.25 5.6a23.32 23.32 0 0 0 .58 3.27c-1-.66-1.81-1.15-3-1.81.91-.49 1.56-.99 2.39-1.48zm0-6.59c1.48 1 2.8 1.65 4.28 2.64-1.32.82-2.31 1.48-3.46 2.14a35.84 35.84 0 0 1 -.85-4.8zm2.8 4.78c2.47-1.65 3.13-1.65 5.27.33.66.49.49 1.81.82 2.8a1.66 1.66 0 0 1 -1 2.47 3.45 3.45 0 0 0 -1 .66c-2.14 1.65-3.13 1.48-5.11-.33a5.48 5.48 0 0 1 -.49-1c-.16-1.15-.49-2.47-.66-3.79a8.31 8.31 0 0 0 2.14-1.16zm14.78.64c.16 1.65.49 3 .66 4.78-1.48-.82-2.64-1.65-4-2.47 1.21-.83 2.2-1.49 3.34-2.31zm.16-5.11 3.13 1.81a12.91 12.91 0 0 0 -2.47 1.65 21.47 21.47 0 0 1 -.64-3.46zm4.94 1.81c.82-.49 1.65-1 2.64-1.65 0 1.15-.16 2-.16 3.13a12.28 12.28 0 0 1 -2.46-1.48zm4.3-12.68c-.16 1.32-.49 2.47-.66 3.79-1.65-1.53-1.48-2.97.66-3.79zm-2-.16c-.33-2-.66-4.12-1-6.26 1.32.82 2.47 1.48 3.62 2.31-.13 2.63-.13 2.63-2.6 3.95zm5.6 38.21v6.21c-.16.16-.33.16-.49.33-1-.82-2.47-1.65-2.64-2.64-.47-1.93 1.13-2.91 3.13-3.9zm-2.47.16c.16-.82.33-1.65.49-3.13a12.87 12.87 0 0 1 1.32 1.65c-.16.66-.82 1.15-1.32 1.81-.14-.16-.3-.28-.47-.28zm1.15-5.11c0 .49.16.82.16 1.32h-.49v-1.32zm-1.46-44.13a6 6 0 0 1 .16 5.76c-1.32-.82-2.8-1.65-4.61-2.8 1.65-1.15 3.14-1.98 4.45-2.96zm-.49-1.81a2.19 2.19 0 0 1 -.49 1.32c-1 .82-2.14 1.32-3.29 2.14-.49-3-1-5.93-1.32-8.89 2.79.81 4.6 2.46 5.1 5.42zm-2-4.78c-1.15-.66-1.81-1.15-2.64-1.65l1.48-1c.36.67.69 1.53 1.18 2.65zm-4.12-8.24c.82 1.48 1.65 3 2.64 4.61-.49.33-1.15.66-1.81 1.15-.33-2-.66-3.79-1-5.76zm-1.61-3.13c.49 3 1 5.76 1.48 8.73-2.8-1.65-5.27-3-7.91-4.61 1.97-1.32 3.95-2.63 6.43-4.12zm-6.75 5.11c2.64 1.48 5.27 3 8.07 4.61l-6.92 4.45c-.33-2.47-.66-4.61-1-6.75a18.47 18.47 0 0 0 -.82-2.17s.33-.31.65-.14zm-.82.16a2.34 2.34 0 0 0 -.33 1l1 6.42c.16.49 0 1.15.16 1.65l-.33.33c-2.31-1.81-4.45-3.62-6.92-5.6 2.14-1.32 4-2.64 5.93-3.79-.02-.17.31-.03.47-.03zm-5.78-18.61a9.45 9.45 0 0 1 1.15.66.51.51 0 0 1 -.33.16c-.33-.16-.66-.16-1-.33a.61.61 0 0 0 .18-.49zm-1.32 6.75c.33-1.65.66-3.13 1-4.94 2.14.33 4.12.16 5.44 2.47-1.81 1.15-3.46 2.31-5.27 3.46-.84.33-1.34 0-1.17-.98zm-.49-2.47c-.16 1-.33 1.81-.49 3.13-2.14-.33-4-.82-5.93-1.15.66-3.13 4.28-5.44 7.08-4.45a10.84 10.84 0 0 0 -.66 2.47zm-4.45-7.91c1.65.82 3 1.48 4.45 2.31-1.65 2-3.29 1-5.11.82.16-.98.49-1.97.66-3.12zm1.48 4.45c-1.15.66-1.81 1.15-3 1.81a21.48 21.48 0 0 1 .49-2.14 14.62 14.62 0 0 1 2.51.34zm-2.31-4.78c-.33 1.15-.49 2.14-.82 3.13-1.65-.33-3-.66-4.45-.82 1.65-.82 2.8-3.12 5.27-2.3zm-6.56-1.31c1.15.16 2.31.33 4 .49-1.65 1-3 1.81-4.61 3a31.52 31.52 0 0 0 .61-3.49zm.49 4.45c1.32.33 2.8.49 4.12.82a.94.94 0 0 1 .82 1.32 4.61 4.61 0 0 1 -5.27 3.79c-.66-.16-1.32-.33-2.14-.49.33-1.48.66-3 .82-4.28.16-1 .64-1.33 1.63-1.16zm-1.49-4.59c-.16 1.32-.33 2.14-.49 3.29-2.14-.49-4.28-.82-6.42-1.15v-.33c2.12-.68 4.26-1.17 6.91-1.81zm-7.58 2.8c2.31.49 4.45.82 7.08 1.32q-3.71 2.47-6.92 4.45c-.66.49-1.15 0-1-.82.17-1.51.5-3.16.83-4.97zm-1.32-.49.33.33c-.33 2-.66 3.79-1 5.93-2.14-.49-4.12-.82-6.26-1.15 0-.16-.16-.33-.16-.49 2.31-1.52 4.78-3.16 7.08-4.65zm-7.74 5.93c2.31.49 4.61.82 6.75 1.32-.5 1.44-6.11 4.91-7.91 4.58.49-2.14.8-3.95 1.15-5.93zm-3.46 4a12.28 12.28 0 0 1 2.31-2.8c-.33 1.48-.49 3-.82 4.61-.82-.16-1.48-.33-2.14-.49a3.31 3.31 0 0 1 .64-1.39zm-1.32 2.31a.58.58 0 0 0 .33-.16c.66.33 1.48.49 2.14.82a18.79 18.79 0 0 1 -1.81 1.81c-.66.49-1.32.82-2.31 1.48.66-1.56 1.15-2.71 1.65-4.03zm2.14 2.8c-.16 1.48-.49 2.47-.66 3.79-1.15-.16-2.31-.49-3.46-.66a.58.58 0 0 0 -.16-.33c1.48-.9 2.8-1.89 4.28-2.88zm-4.61 4.12a34.07 34.07 0 0 0 3.62.66c.16 3.46-1.32 5.44-4.28 5.76.16-2.38.49-4.36.66-6.5zm3 6.09c-.33.33-.66.49-1 .82a.58.58 0 0 0 -.16-.33c.33-.16.66-.49 1-.66zm-2.51 9.44c-.33-2.31-.82-4.78-1-7.08 0-.33.82-.82 1.32-1s1.15.16 2 .49c-.49 2.64-1 5.11-1.48 7.74a1.79 1.79 0 0 0 -.84-.15zm3.13-7.58c2.31.49 4.45.82 7.08 1.32-3 1.81-5.44 3.46-8.07 5.27a42.3 42.3 0 0 1 .99-6.55zm7.58 26.19c-2-2.64-3.62-4.94-5.44-7.41 1.48-1 2.8-1.81 4.12-2.8.82-.66 1.32-.33 1.48.66.49 2.47.82 5.11 1.15 7.58.17.52-.62 1.18-1.31 2.01zm1.32-9.39c2.31 1.32 4.28 2.64 6.42 4-1.81 1.15-3.46 2.31-5.44 3.46a61.18 61.18 0 0 0 -.99-7.42zm2.46 7.78c1.48-1 3-2 4.45-2.8a1.39 1.39 0 0 1 2.14.82c.33 2.14.66 4.45 1 6.42 0 1.65-1.32 2.64-2.47 2-1.65-1-3.46-2-5.11-3.13-1.65-1-1.65-2.31-.01-3.31zm-.82 4.12 5.6 3.29c-.82.49-1.48 1-2.31 1.48-.82-1.64-2.8-2.47-3.29-4.77zm4.12 5.6c2.14-1.81 2.47-2 4.45-.49a1.64 1.64 0 0 1 .66.82 8.34 8.34 0 0 1 .33 2.14c.16 1 .16 1.81.33 3.13-2.16-1.98-3.96-3.79-5.77-5.6zm6.09.33c1.32.82 2.31 1.48 3.62 2.31-1 .66-1.81 1.15-2.8 1.81a30.35 30.35 0 0 1 -.82-4.17zm5.93 10.21a43.65 43.65 0 0 1 -4.28-3.46c-.82-.66-.82-1.32.16-2 2.8-2 4.28-2 6.59.33.66.66.66 2 1 3.29a9.94 9.94 0 0 1 -1.32 1.32c-.67.35-1.82.85-2.15.52zm1.32 1.32c.66-.49 1.32-.82 2-1.32.16 1 .33 2 .66 3.29a21.87 21.87 0 0 0 -2.66-1.97zm2.47-4.78v-.8a8.87 8.87 0 0 0 2.14 1.15 10 10 0 0 0 -1.65 1.15zm3.13 7.58c-1.15.82-1.65.33-2-.82a8.34 8.34 0 0 1 -.33-2.14c0-.82-.66-1.81.49-2.47s2.14-1.32 3.29-.16c1.15.82 2.31 1.48 3.62 2.31-1.61 1.14-3.4 2.12-5.07 3.28zm.82-7.08c1.32-.82 2.47-1.48 3.79-2.31.33 1.65.49 3.29.82 4.94-1.64-.82-2.96-1.65-4.61-2.64zm5.6 3a9.33 9.33 0 0 0 -.49-2.47c-.82-2.64-.16-4.45 2.64-5.11q2.22 1.48 4.94 3c-2.31 1.41-4.62 2.89-7.09 4.54zm4.45 11.7a13.74 13.74 0 0 1 2-1.32c1.32 1 2.47 1.81 3.62 2.64 1.32.82 1.32 1.81.66 3-2-1.57-4.14-2.89-6.28-4.32zm3.46 27c1.65-4.28 3.46-8.89 5.27-13.51 1 1 2.14 2 3.13 3-2.8 3.39-5.6 7.02-8.4 10.51zm9.34-17.49c-1.81-1.15-2.14-2.31-1.65-4.28 1 .66 2 1.48 3.29 2.31-.64.81-1.1 1.46-1.64 1.97zm3.13 3c-1-.66-1.81-1.32-1.32-2.8.16-.49.66-.66 1-1.15.33.33.82.66 1 1.15.35.95.85 2.29-.63 2.76zm.49-6.42v-6.09c2.14.66 3.29 2 3.13 4-.16 1-1.48 1.81-2.31 2.64a2.19 2.19 0 0 0 -.77-.64zm.82 1.81a19.85 19.85 0 0 1 2.64-2.8c.49 2 .33 3.46-1 4.78-.6-.7-1.59-1.69-1.59-2.02zm2 7.91c1-.82 2-1.81 3-2.64 1.32 3.46 2.47 6.75 3.79 10.54-2.48-2.84-4.62-5.31-6.76-7.95zm6.09-11.2c-1-2.47-1-2.47 1-3.79 1-.66 1.81-1.32 3-2.14a20 20 0 0 1 2.31 1.65c-2.16 1.27-4.13 2.75-6.28 4.23zm11-19.6c-.16 1-.49 2-.66 3.13-2.47-1.65-4.78-3-7.08-4.45 1.48-1 3-2 4.45-2.8a1.8 1.8 0 0 1 1.32 0c2.37 1.11 2.53 1.44 2.04 4.11zm1.15-2c1.32.82 2.47 1.48 3.79 2.31-1.48 1-2.8 1.81-4.45 2.8.24-1.84.57-3.48.73-5.12zm6.42 10.38c-2.47-1.48-4.61-3-6.75-4.28 1.48-1 2.8-1.81 4.28-2.64.82-.49.82-.49 3.46 1.15a41.46 41.46 0 0 0 -.91 5.74zm-.66-8.07a20.56 20.56 0 0 0 2-1.32c0 .82-.16 1.48-.16 2.47a11.08 11.08 0 0 1 -1.76-1.18zm1.81 6.75c.16-1.32.33-2.47.49-3.79 1 .49 1.65 1 2.64 1.48-.91.8-1.9 1.46-3.05 2.24zm8.56-6.75a43.65 43.65 0 0 1 -4.28 3.46c-.16.16-.66 0-1 0-.33-.16-.66-.49-1-.66-1.15-.49-2-1-1.48-2.8.33-1.15.33-2.31 1.65-2.8a12.42 12.42 0 0 0 2.8-1.65 27.35 27.35 0 0 1 3.46 2.64c.59.3.26 1.49-.07 1.78zm.82-3.13-3.13-1.81c1.32-.82 2.47-1.48 3.62-2.31-.12 1.46-.24 2.61-.4 4.09zm.82.66a12.54 12.54 0 0 0 .49-3.46 2.66 2.66 0 0 1 2.31-3c1.15-.16 2.31.66 3.62 1.15-2.87 3.64-5.34 5.61-6.33 5.28zm6.92-5.6c-.82-.49-1.65-1-2.64-1.65 2-1.15 3.62-2.14 5.44-3.29.42 2.44-1.39 3.27-2.71 4.91zm4-4.45-.49-.49a26.24 26.24 0 0 1 2.14-2.14l.33.33a28.67 28.67 0 0 1 -1.94 2.28zm2.64-3a.51.51 0 0 0 -.33-.16c-2.64-1.32-1.32-3.46-1.32-5.44a28.26 28.26 0 0 1 .66-4c.16-.33 1-1 1.15-.82 1.65 1 3.13 2 4.94 3.13-1.77 2.49-3.42 4.83-5.11 7.3zm0-25c2.47-.49 4.61-1 6.92-1.48.33 2.14.66 4.12 1.15 6.59-2.6-1.67-5.08-3.32-8.08-5.13zm10 6.42c-1.81-2.31-1.48-5.27-2.14-7.91a7.25 7.25 0 0 1 1.73-.31c1-.16 1.65.33 1.48 1.48a24.82 24.82 0 0 1 -.99 6.72zm-2.47-9.55c.16-.16.16-.33.33-.49.33.16.66.49 1 .66 0 .16-.16.16-.16.33a8 8 0 0 1 -1.09-.52zm-.54-5.67c1-.16 2.14-.33 3.46-.66l1 6.42c-3.18-.44-4.66-2.42-4.46-5.76z" fill="#000100"/></svg>