<svg viewBox="0 0 200 200" xmlns="http://www.w3.org/2000/svg"><g fill="#000100"><path d="m141.57 149.19a4.73 4.73 0 0 0 -6.45 1.55 5.64 5.64 0 0 1 -3.62 2.61 6.3 6.3 0 0 1 -4.45-.64l-29.32-17.71 19.12-25a6.71 6.71 0 0 0 .26-7.76l-2.61-3.9-19.91-4.2 8.88 11.56-17.17 22.3-36.38-22a4.69 4.69 0 0 0 -4.9 8l77 46.68.88.46a15.28 15.28 0 0 0 20.1-5.56 4.4 4.4 0 0 0 -1.43-6.39z"/><circle cx="143.48" cy="50.84" r="11.36" transform="matrix(.46391461 -.88587992 .88587992 .46391461 31.87 154.35)"/><path d="m56 85.94a2.88 2.88 0 0 0 3.39-2.17l.13-.78 76.36 16.46a41.07 41.07 0 0 0 5.23.77 4.09 4.09 0 0 0 2.54-1.35 4.76 4.76 0 0 0 -.15-6.7l-13.12-12.82 3.89-16.57a15.19 15.19 0 0 1 -5.66-13.68 12.76 12.76 0 0 0 -10.21-.42c-12.14 4.07-32.33 17.87-35.05 23.07-1.56 3 .42 7.27 2.92 11.11l-25.49-5.43.13-.78a2.85 2.85 0 0 0 -5.56-1.22l-.13.78-1.17-.21a2.88 2.88 0 0 0 -3.39 2.17 2.92 2.92 0 0 0 1.45 3.15 1.58 1.58 0 0 0 .72.24l1.17.19-.13.78a2.92 2.92 0 0 0 1.45 3.15c.23.13.5.14.68.26zm65.71-11.1-1.15 4.89a4.66 4.66 0 0 0 1.31 4.49l8.39 8.2-23-5-2.17-3.11c5.26-2.77 11.41-6.17 16.66-9.48z"/></g></svg>