<svg id="Icons" xmlns="http://www.w3.org/2000/svg" viewBox="0 0 200 200"><defs><style>.cls-1{fill:#000201;}</style></defs><title>ski-3</title><path class="cls-1" d="M133.75,55a9.95,9.95,0,1,0,9.13-10.79A10,10,0,0,0,133.75,55Z"/><path class="cls-1" d="M183,148.18h-3.78v2a1.73,1.73,0,0,1-1.95,1.85H146.18L168,91.5a4.91,4.91,0,0,0,.73-9.78l-15.77-2-14.3-13.49c-3.32-4.91-12.3-6.17-15.78-2.1-2.26,2.65-7.63,8.79-7.63,8.79L101.88,88.74a10.58,10.58,0,0,0-2.53,8,10.86,10.86,0,0,0,3.8,7.5l23.47,20.46-6.26,21.11a6.11,6.11,0,0,0,1.07,6.27H57.79v3.79H178.72C183.9,155.2,183,148.18,183,148.18Zm-52.46,3.89a6.05,6.05,0,0,0,.45-.55,7.62,7.62,0,0,0,.61-1.2l7.62-25.07s1.49-4.89-1.91-8.23L120.59,99l16.26-19.25,10.24,9.2,18.58,2.31-21.94,60.82Z"/><path class="cls-1" d="M61.15,123.16a7.4,7.4,0,0,0,1.31.3l26.18,1.28s2.42.23,5.92-3.25c3.84-3.83,9.38-10.31,10.31-11.4L101,106.72a14,14,0,0,1-4.69-8l-10.2,13.6-22-.92a6.15,6.15,0,0,0-6.59,4A6,6,0,0,0,61.15,123.16Z"/><path class="cls-1" d="M18.4,102.67l-1.48,3.49,111.35,47.17c5,1.41,7-5.4,7-5.4l-3.48-1.47-.8,1.88a1.73,1.73,0,0,1-2.51.95L99.78,137.15Z"/></svg>