<svg viewBox="0 0 200 200" xmlns="http://www.w3.org/2000/svg"><g fill="#000100"><circle cx="112.86" cy="28.32" r="11.9"/><path d="m165.74 25.54a6.3 6.3 0 0 0 -2 .35l-21.13 7a55.38 55.38 0 0 0 -6 2.89c-3 1.51-9.1 4.66-10.47 5.09-1.75.38-10 1-24.59 1.9l-3.55.23c-3.43.27-19.47 6-22.79 7.91-3 1.76-14.84 11.2-18.38 14.06a6.38 6.38 0 1 0 8 9.94c6.84-5.49 15.17-12.01 16.75-12.91a123.46 123.46 0 0 1 12.14-4.6l-3.94 7.5-11.86 5.93-26.33 16.89a7.92 7.92 0 0 0 -1 .77c-8.48-14.49-16.21-27.59-16.48-28.2-.62-1.36-1.11-2.57-2.61-2.29s-3.38 3.46-3.59 4.77 1 4.11 1.59 5.9a25.11 25.11 0 0 0 3 5.58s64.23 102.93 66.05 105.21 4.92 3.91 6.28 4 3.77.36 3.77-.94-3.79-4.43-5.71-6.54a67.88 67.88 0 0 1 -5.26-7.76l-9.3-15.81a7.94 7.94 0 0 0 4.67-3.18c23.1-33.06 23.29-35.23 23.5-37.53.11-1.26.32-3.61-6-31.59l-.45-2 18.7-24.76c.27-.05.51-.11.7-.16 2.37-.66 6.68-2.82 13-6 1.75-.9 3.94-2 4.24-2.16l20.76-7a6.35 6.35 0 0 0 -1.71-12.47zm-85.17 113.69-7.35-12.5s-6.76-11.42-14.65-24.79a8 8 0 0 0 1.66-.79l25.22-16.24 5.55-2.77 4.52 4c2.08 9.26 4.22 19.37 4.9 23.46-2.73 4.66-11.62 17.83-19.85 29.63z"/></g></svg>