<svg viewBox="0 0 200 200" xmlns="http://www.w3.org/2000/svg"><path d="m99.76 81.54a18.31 18.31 0 1 1 -18.31 18.31 18.34 18.34 0 0 1 18.31-18.31zm0-8.82a27.13 27.13 0 0 0 -27.13 27.13 27.13 27.13 0 0 0 27.13 27.15 27.13 27.13 0 0 0 27.14-27.15 27.13 27.13 0 0 0 -27.14-27.13z"/><path d="m98.68 141.89h2.68a4.17 4.17 0 0 1 4.17 4.17v23.25a4.17 4.17 0 0 1 -4.17 4.17h-2.68a4.17 4.17 0 0 1 -4.17-4.17v-23.24a4.17 4.17 0 0 1 4.17-4.17z"/><path d="m98.68 26.51h2.68a4.17 4.17 0 0 1 4.17 4.17v23.25a4.17 4.17 0 0 1 -4.17 4.17h-2.68a4.17 4.17 0 0 1 -4.17-4.17v-23.25a4.17 4.17 0 0 1 4.17-4.17z"/><path d="m30.68 94.47h23.25a4.17 4.17 0 0 1 4.17 4.17v2.68a4.17 4.17 0 0 1 -4.17 4.17h-23.25a4.17 4.17 0 0 1 -4.17-4.17v-2.67a4.17 4.17 0 0 1 4.17-4.17z"/><path d="m146.07 94.47h23.25a4.17 4.17 0 0 1 4.17 4.17v2.68a4.17 4.17 0 0 1 -4.17 4.17h-23.25a4.17 4.17 0 0 1 -4.17-4.17v-2.67a4.17 4.17 0 0 1 4.17-4.17z"/><path d="m128.51 130.36 1.89-1.89a4.17 4.17 0 0 1 5.9 0l16.44 16.44a4.17 4.17 0 0 1 0 5.9l-1.89 1.89a4.17 4.17 0 0 1 -5.9 0l-16.44-16.44a4.17 4.17 0 0 1 0-5.9z"/><path d="m46.92 48.78 1.89-1.89a4.17 4.17 0 0 1 5.9 0l16.44 16.44a4.17 4.17 0 0 1 0 5.9l-1.89 1.89a4.17 4.17 0 0 1 -5.9 0l-16.44-16.44a4.17 4.17 0 0 1 0-5.9z"/><path d="m47.07 145.12 16.44-16.44a4.17 4.17 0 0 1 5.9 0l1.89 1.89a4.17 4.17 0 0 1 0 5.9l-16.43 16.45a4.17 4.17 0 0 1 -5.9 0l-1.9-1.92a4.17 4.17 0 0 1 0-5.9z"/><path d="m128.68 63.53 16.44-16.44a4.17 4.17 0 0 1 5.9 0l1.9 1.91a4.17 4.17 0 0 1 0 5.9l-16.45 16.43a4.17 4.17 0 0 1 -5.9 0l-1.89-1.89a4.17 4.17 0 0 1 0-5.91z"/></svg>