<svg xmlns="http://www.w3.org/2000/svg" viewBox="0 0 100 100">
    <g transform="translate(0,-952.36218)">
        <path d="m49.876,958.42a1.5002,1.5002,0,0,0,-1.3125,1.5312v11.906c0.50115-0.0244,0.99284-0.0625,1.5-0.0625,0.49724,0,1.0085,0.0391,1.5,0.0625v-11.906a1.5002,1.5002,0,0,0,-1.6875,-1.5312zm-30.031,12.438a1.5002,1.5002,0,0,0,-0.90625,2.5625l8.4375,8.4375c0.67792-0.74658,1.377-1.4483,2.125-2.125l-8.4375-8.4375a1.5002,1.5002,0,0,0,-1.2188,-0.4375zm60.094,0a1.5002,1.5002,0,0,0,-0.90625,0.4375l-8.4375,8.4375c0.74354,0.6716,1.4818,1.3531,2.1562,2.0938l8.4062-8.4062a1.5002,1.5002,0,0,0,-1.2188,-2.5625zm-29.875,5.5c-14.34,0-26,11.66-26,26,0,14.339,11.66,26,26,26s26-11.661,26-26c0-14.34-11.66-26-26-26zm0,3c12.718,0,23,10.282,23,23s-10.282,23-23,23-23-10.282-23-23,10.282-23,23-23zm-42.813,21.54a1.5081,1.5081,0,0,0,0.3125,2.9999h11.937c-0.02342-0.4899-0.0625-0.973-0.0625-1.4687,0-0.5066,0.03804-1.0307,0.0625-1.5312h-11.937a1.5002,1.5002,0,0,0,-0.15625,0,1.5021,1.5021,0,0,0,-0.15625,0zm73.406,0c0.02445,0.5005,0.03125,1.0246,0.03125,1.5312,0,0.4956-0.0078,0.9788-0.03125,1.4687h11.906a1.5002,1.5002,0,1,0,0,-2.9999h-11.906zm-53.281,22-8.4375,8.4375a1.5026,1.5026,0,1,0,2.125,2.125l8.4062-8.4375c-0.74204-0.6732-1.4209-1.3828-2.0938-2.125zm45.375,0.062c-0.6692,0.7349-1.3878,1.4269-2.125,2.0938l8.4062,8.4062a1.5026,1.5026,0,1,0,2.125,-2.125l-8.4062-8.375zm-24.188,9.9688,0,11.906a1.5002,1.5002,0,1,0,3,0v-11.906c-0.49146,0.023-1.0028,0.062-1.5,0.062-0.50716,0-0.99885-0.039-1.5-0.062z" />
    </g>
</svg>
