<?xml version="1.0" encoding="utf-8"?>
<!-- Generator: Adobe Illustrator 24.0.2, SVG Export Plug-In . SVG Version: 6.00 Build 0)  -->
<svg version="1.1" id="Calque_1" xmlns="http://www.w3.org/2000/svg" xmlns:xlink="http://www.w3.org/1999/xlink" x="0px" y="0px"
	 viewBox="0 0 200 200" style="enable-background:new 0 0 200 200;" xml:space="preserve">
<g>
	<path d="M102.6,125.9c7.1,0,13.9,0,20.7,0c1.2,0,2.5,0,3.7,0c6.7,0,10,3.3,10.1,10.1c0.1,8.5,0,17.1,0,25.6c0,1,0,2.1,0,3.2
		c10,0.8,19.4,0.5,27.1-6.8c2.3-2.2,4.8-2.1,6.6-0.1c1.7,2,1.4,4.4-0.9,6.5c-6.1,5.7-13.4,9-21.8,9.1c-19.3,0.2-38.5,0.1-57.8,0.1
		c-3.1,0-5-1.8-4.9-4.4c0-2.6,1.9-4.2,5.1-4.2c8.6,0,17.3,0,25.9,0c1,0,2.1,0,3.3,0c0-7.3,0-14.4,0-21.9c-1,0-2,0-3,0
		c-7.3,0-14.6,0-21.9,0c-5.7,0-9.3-3.3-9.4-9c-0.1-14.3-0.1-28.6,0-42.9c0-5.3,3.8-8.9,8.7-8.8c4.9,0.1,8.4,3.6,8.5,9
		c0.1,10.1,0,20.1,0.1,30.2C102.6,122.9,102.6,124.2,102.6,125.9z"/>
	<path d="M76.6,40.8c-0.9,4.6-3.3,8.1-7.5,10.3c-0.6,0.3-1,1.5-1,2.3c-0.1,25.3-0.1,50.6,0,75.9c0,3.7,1.6,5.1,5.3,5.2
		c1,0,1.9,0,2.9,0c0.8,2.9,1.5,5.6,2.4,8.8c-3.3-0.2-6.6-0.1-9.7-0.8c-5.3-1.2-8.9-5.6-9.4-11c-0.1-1.4-0.2-2.9-0.2-4.3
		c0-24.3,0-48.5,0-72.8c0-2-0.6-3.1-2.3-4.3c-2-1.4-3.8-3.5-5-5.7c-1-1.8-1.9-2.2-3.7-2.1c-6.1,0.5-12.2,0.9-18.4,1.1
		c-1.4,0-3.3-0.4-4.1-1.4c-0.9-1-1.4-3.3-0.8-4.3c0.7-1.3,2.6-2.6,4.2-2.7c6.6-0.7,13.2-1,19.8-1.3c1.9-0.1,3.3-0.6,4.5-2.3
		c4.7-6.4,13.9-6.9,19.3-1.2c1.3,1.3,2.4,1.8,4.2,1.7c29.1-1.9,58.1-3.7,87.2-5.6c0.9-0.1,1.7-0.1,2.6-0.1c2.9,0,4.8,1.6,5,4.1
		c0.1,2.5-1.6,4.4-4.5,4.6c-6,0.4-12,0.8-18.1,1.2c-23.5,1.5-47,3-70.6,4.4C78.1,40.6,77.4,40.7,76.6,40.8z"/>
	<path d="M93.9,47.9c7.1,0,13,5.8,12.9,13c0,7.1-5.9,12.9-13.1,12.8c-7-0.1-12.8-5.8-12.8-12.8C81,53.8,86.8,47.9,93.9,47.9z"/>
</g>
</svg>
