<svg width="100" height="100" viewBox="0 0 100 100" fill="none" xmlns="http://www.w3.org/2000/svg">
    <path d="M38 63.0001H41.3C41.3 64.7001 41.4 66.5001 41.4 67.8001L35.5 69.4001V74.5001L64.5 66.6001V62.8001C70.1 61.8001 74.5 57.6001 75.7 52.1001H79.6V48.8001L90 45.9001V43.5001L79.6 46.3001V44.1001H76.1V31.2001C76.1 23.4001 69.8 17.1001 62 17.1001H38C30.2 17.1001 23.9 23.4001 23.9 31.2001V48.9001C23.9 56.6001 30.2 63.0001 38 63.0001ZM60.1 28.1001H71.7V44.0001H60.1V28.1001ZM44.2 28.1001H55.8V44.0001H44.2V28.1001ZM28.3 28.1001H39.9V44.0001H28.3V28.1001ZM10 84.9001V90.0001L90 68.2001V63.2001L10 84.9001Z" fill="#000201"/>
</svg>
