<?xml version="1.0" encoding="utf-8"?>
<!-- Generator: Adobe Illustrator 27.2.0, SVG Export Plug-In . SVG Version: 6.00 Build 0)  -->
<svg version="1.1" id="tapis-roulant" xmlns="http://www.w3.org/2000/svg" xmlns:xlink="http://www.w3.org/1999/xlink" x="0px"
	 y="0px" viewBox="0 0 100 100" style="enable-background:new 0 0 100 100;" xml:space="preserve">
<path d="M25.4,69.9c6.2,0,12.3,0,18.5,0.1c8.6,0,17.1,0.2,25.7,0.1c4.7,0,7.5-2.1,8.6-6c0.4-1.2,0-2-0.8-2.3
	c-0.9-0.3-1.8,0.2-2.2,1.3c-0.9,2.9-3,3.9-5.8,3.9c-3.2,0-6.4-0.1-9.7-0.1c-0.7,0-1.3,0-2,0c0-0.4,0-0.6,0-0.8
	c1-9,2.1-17.9,3.1-26.9c0-0.3,0.2-0.6,0.4-0.9c0.9-1.1,0.9-1.8-0.3-2.6c-2.2-1.5-4.5-2.9-6.7-4.3c-0.4-0.2-0.9-0.5-1-0.9
	c-0.7-2.1-2.1-4.2-1.4-6.6c0.1-0.3,0-0.6-0.1-0.9c-0.4-2.3-2.4-3.8-4.9-3.7c-2.2,0-4,1.7-4.3,4.2c-0.7,5.5-1.3,11-1.9,16.6
	c-0.2,2.1,0.6,3.6,2.3,4.8c0.4,0.3,0.8,0.9,0.9,1.4c0.5,2,0.9,4,1.2,6c0.2,1.2,0.6,2.5,0.4,3.7c-0.5,3.3-1.3,6.7-1.9,10
	c-0.1,0.7-0.4,0.9-1.1,0.9c-2.2-0.1-4.4,0-6.6,0c-3.6,0-7.1,0-10.7-0.1c-1,0-1.5,0.3-1.6,1.4C23.4,69.4,23.9,69.9,25.4,69.9z
	 M50.3,53.1c-0.5-2.8-1.1-5.6-1.7-8.3c-0.1-0.3-0.1-0.7,0-0.8c1.7-2.1,1.3-4.6,1.6-6.9c0.2-1.5,0.3-3,0.5-4.5
	c2.8,1.8,5.6,3.6,8.4,5.3c0.7,0.4,0.9,0.9,0.8,1.7c-1.1,8.9-2.2,17.8-3.3,26.6c0,0.2-0.1,0.4-0.1,0.7c-2.7,0-5.4,0-8.1,0
	c0.7-3.4,1.4-6.6,1.9-9.9C50.5,55.7,50.5,54.4,50.3,53.1z M82.5,70.7c-21.7,0-43.5,0-65.2,0c-0.2,0-0.3,0-0.5,0
	c-3.8,0.2-6.2,2.9-6.2,6.8c0,3.9,2.5,6.6,6.3,6.7c1.6,0,3.1,0,4.7,0c0.7,0,1.3,0,1.3-1c0-0.9-0.5-1.1-1.3-1.1c-1.5,0-3,0-4.5,0
	c-2.5-0.1-4.6-2.3-4.5-4.8c0.1-2.6,2.3-4.6,5.1-4.6c21.4,0,42.9,0,64.3,0c3.1,0,5.2,1.9,5.2,4.7c0,2.8-2.1,4.7-5.2,4.7
	c-17.3,0-34.6,0-52,0c-0.4,0-0.8,0-1.2-0.1c1.1-1.2,2.1-2.3,3.2-3.3c0.6-0.6,1.2-1.2,0.4-1.9c-0.7-0.7-1.5-0.4-2.1,0.3
	c-1.7,1.7-3.3,3.5-5,5.2c-0.6,0.7-0.6,1.3-0.1,1.9c1.8,1.8,3.5,3.6,5.3,5.3c0.6,0.6,1.3,0.7,1.9,0.1c0.6-0.7,0.2-1.2-0.3-1.8
	c-1.1-1.1-2.3-2.1-3.4-3.2c0.1-0.1,0.1-0.2,0.2-0.4c0.5,0,0.9,0,1.4,0c17.1,0,34.2,0,51.3,0c0.6,0,1.1,0,1.7,0
	c2.2-0.3,4.1-1.2,5.1-3.3C90.6,76.9,89,70.7,82.5,70.7z M49.4,18.8c2.6,0,4.4-1.9,4.4-4.6c0-2.4-1.9-4.2-4.4-4.3
	c-2.4,0-4.3,1.9-4.3,4.2C45.1,16.8,47,18.8,49.4,18.8z"/>
</svg>
