<svg id="Icons" xmlns="http://www.w3.org/2000/svg" viewBox="0 0 200 200"><title>000-lit</title><path d="M26.66,30.59a3.93,3.93,0,0,0-3.93-3.93H20.11a3.93,3.93,0,0,0-3.93,3.93V169.41a3.93,3.93,0,0,0,3.93,3.93h2.62a3.93,3.93,0,0,0,3.93-3.93v-17H68.57V141.91H26.66V121H68.57V110.48H26.66Zm153.23,38h-2.62a3.93,3.93,0,0,0-3.93,3.93v96.91a3.93,3.93,0,0,0,3.93,3.93h2.62a3.93,3.93,0,0,0,3.93-3.93V72.5A3.93,3.93,0,0,0,179.89,68.57ZM152.38,79.05H89.52c-10.47,0-10.47,10.47-10.47,10.47v62.87h73.33c10.48,0,10.48-10.48,10.48-10.48V89.52C162.86,79.05,152.38,79.05,152.38,79.05Zm-94.29,0H47.62c-10.48,0-10.48,10.47-10.48,10.47V100H68.57V89.52C68.57,79.05,58.09,79.05,58.09,79.05Z"/></svg>