<svg id="Icons" xmlns="http://www.w3.org/2000/svg" viewBox="0 0 200 200"><title>001-seul</title><path d="M141.26,152.93c2.72,7.11,13,29.39,3.6,30.6-7,.91-10.26-10.62-19.08-30.24a214.37,214.37,0,0,0-19.42-34.16s-6.11,37.79-34.89,46.41c-10.64,2.17-13.32,1.8-13.32,1.8s-6.29,1.25-6.84-3.6,3.87-6.7,8.1-7.54c4.51-.91,27.86-2.7,31.28-38.51,2.11-22.1,2.17-22,2.53-29.5.69-14-.74-18.35-1.6-21.06s-3.26-6.46-8.84-3.42S74,77.56,75.59,89.46c1.61,8.62-2.69,8.62-3.79,8.8,0,0-4.84,1.8-6.27-7.39s1.58-42.45,29.85-43c0,0,11.9,0,17.65,10.23l.09.08s0,0,0,.06.16.24.24.37c.75,1.19,3.28,4.64,5.36,7.12,4.68,5.25,20.86,11,22.69,11.64A4,4,0,0,1,140,85.17a2.86,2.86,0,0,1-.82-.23c-10-1.76-17.61-4.48-23.28-7.65-.47,23.33,2.66,28.58,7,37.35,6.11,12.42,15.65,31.3,18.34,38.3Z"/><path d="M105.19,40.79a12.26,12.26,0,1,1,14.06-10.16A12.25,12.25,0,0,1,105.19,40.79Z"/></svg>