<svg id="Icons" xmlns="http://www.w3.org/2000/svg" viewBox="0 0 200 200"><title>003-smiley-tres-mauvais</title><path d="M153.07,152.74a74.6,74.6,0,1,0-105.5,0,74.67,74.67,0,0,0,105.5,0ZM55.71,55.39a63.08,63.08,0,1,1,0,89.21,63.16,63.16,0,0,1,0-89.21ZM108.51,84A12.24,12.24,0,1,1,133,84a3.52,3.52,0,1,1-7,0,5.21,5.21,0,0,0-10.41,0,3.52,3.52,0,1,1-7,0Zm-39,0A12.24,12.24,0,1,1,94,84a3.52,3.52,0,0,1-7,0,5.21,5.21,0,1,0-10.41,0,3.52,3.52,0,0,1-7,0Zm-.15,45.6c5.22-12.56,18-20.67,32.43-20.67,14.18,0,26.83,8.07,32.23,20.57a4.21,4.21,0,0,1-7.74,3.34c-4.07-9.4-13.68-15.48-24.5-15.48-11.06,0-20.73,6.07-24.64,15.47a4.22,4.22,0,1,1-7.79-3.24Z"/></svg>