<?xml version="1.0" encoding="UTF-8"?>
<svg width="50px" height="50px" viewBox="0 0 50 50" version="1.1" xmlns="http://www.w3.org/2000/svg" xmlns:xlink="http://www.w3.org/1999/xlink">
    <!-- Generator: Sketch 51.3 (57544) - http://www.bohemiancoding.com/sketch -->
    <title>003-google</title>
    <desc>Created with Sketch.</desc>
    <defs></defs>
    <g id="003-google" stroke="none" stroke-width="1" fill="none" fill-rule="evenodd">
        <g id="Group" transform="translate(3.995000, 11.711122)" fill="#000000" fill-rule="nonzero">
            <g id="037-google+">
                <g id="ICONSET-01">
                    <g id="037-google+">
                        <path d="M0.237913776,12.6715878 C0.383662755,5.84067602 6.64443878,-0.120028571 13.3917592,0.098594898 C16.6625378,-0.0471540816 19.7146929,1.33531786 22.1795653,3.36937347 C21.0950214,4.60609643 20.0061908,5.76780153 18.8423423,6.85877551 C15.8609184,4.74970204 11.5741837,4.16884949 8.59704643,6.56727755 C4.31031173,9.54655816 4.095975,16.5232189 8.23267398,19.721123 C12.2300541,23.3648474 19.8604418,21.5386985 20.9514158,15.9423663 C18.4072388,15.8716352 15.9359362,15.9423663 13.3939026,15.8716352 L13.3939026,11.3598469 L26.0397699,11.3598469 C26.2541066,14.9199801 25.8254332,18.6258622 23.6413418,21.6051429 C20.3705633,26.25625 13.758275,27.5637041 8.5991898,25.602523 C3.44010459,23.6413418 -0.188616327,18.1886153 0.240057143,12.6651577 L0.237913776,12.6715878 Z" id="Shape"></path>
                        <path d="M34.2488668,7.65610816 L38.0276235,7.65610816 L38.0276235,11.4348648 L41.8063801,11.4348648 L41.8063801,15.2179082 L38.0276235,15.2179082 L38.0276235,18.9966648 L34.2488668,18.9966648 L34.2488668,15.2179082 C33.0121439,15.2179082 31.7046898,15.2179082 30.4701102,15.1450337 L30.4701102,11.3598469 L34.2488668,11.3598469 L34.2488668,7.65610816 Z" id="Shape"></path>
                    </g>
                </g>
            </g>
        </g>
    </g>
</svg>