<svg viewBox="0 0 50 50" xmlns="http://www.w3.org/2000/svg"><g transform="translate(3.995 11.711122)"><path d="m.23791378 12.6715878c.14574898-6.83091178 6.406525-12.79161637 13.15384542-12.5729929 3.2707786-.14574898 6.3229337 1.23672296 8.7878061 3.27077857-1.0845439 1.23672296-2.1733745 2.39842806-3.337223 3.48940204-2.9814239-2.10907347-7.2681586-2.68992602-10.24529587-.29149796-4.2867347 2.97928061-4.50107143 9.95594135-.36437245 13.15384545 3.99738012 3.6437244 11.62776782 1.8175755 12.71874182-3.7787567-2.544177-.0707311-5.0154796 0-7.5575132-.0707311v-4.5117883h12.6458673c.2143367 3.5601332-.2143367 7.2660153-2.3984281 10.245296-3.2707785 4.6511071-9.8830668 5.9585612-15.042152 3.9973801-5.15908521-1.9611812-8.78780613-7.4139077-8.35913266-12.9373653z"/><path d="m34.2488668 7.65610816h3.7787567v3.77875664h3.7787566v3.7830434h-3.7787566v3.7787566h-3.7787567v-3.7787566c-1.2367229 0-2.544177 0-3.7787566-.0728745v-3.7851868h3.7787566z"/></g></svg>