<svg id="Icons" xmlns="http://www.w3.org/2000/svg" viewBox="0 0 200 200"><title>004-smiley-mauvais</title><path d="M47.26,47.25a74.59,74.59,0,1,0,105.48,0,74.68,74.68,0,0,0-105.48,0Zm97.35,97.36a63.09,63.09,0,1,1,0-89.22,63.17,63.17,0,0,1,0,89.22Zm-10.88-15.12a4.22,4.22,0,0,1-7.75,3.34c-4.07-9.4-13.68-15.48-24.49-15.48-11.07,0-20.74,6.08-24.64,15.48a4.23,4.23,0,0,1-3.9,2.6,4.08,4.08,0,0,1-1.62-.33,4.21,4.21,0,0,1-2.27-5.51c5.21-12.56,18-20.67,32.43-20.67C115.67,108.92,128.32,117,133.73,129.49ZM67.1,78.4a3.45,3.45,0,0,1,1.28-4.71L81.1,66.38a3.45,3.45,0,0,1,3.44,6l-12.72,7.3A3.46,3.46,0,0,1,67.1,78.4Zm19.74.15a6.08,6.08,0,1,1-8.6,0,6.09,6.09,0,0,1,8.6,0Zm20.67-20.64a3.45,3.45,0,0,1,3.74-3.13l14.61,1.31a3.45,3.45,0,0,1-.61,6.88l-14.61-1.32A3.45,3.45,0,0,1,107.51,57.91ZM123.1,78.45a6.08,6.08,0,1,1-8.6,0,6.08,6.08,0,0,1,8.6,0Z"/></svg>