<svg viewBox="0 0 50 50" xmlns="http://www.w3.org/2000/svg"><path d="m41.1220042 4.82486108c-.4836184-1.81836834-1.8979182-3.2422502-3.7129796-3.73813533-3.2702396-.88296467-16.4140869-.88296467-16.4140869-.88296467s-13.13630057 0-16.4140868.88296467c-1.81506145.49588513-3.22936132 1.91976699-3.71297964 3.73813533-.86787126 3.29791078-.86787126 10.17799162-.86787126 10.17799162s0 6.8825964.86787126 10.1779916c.4805052 1.8222386 1.8953583 3.2505117 3.71297964 3.7481976 3.27023952.8829647 16.4140868.8829647 16.4140868.8829647s13.1363006 0 16.4140869-.8829647c1.8150614-.495885 3.2293612-1.9197669 3.7129796-3.7381353.8879958-3.3054575.8879958-10.1880539.8879958-10.1880539s0-6.88008084-.8879958-10.17799162zm-24.4236581 16.42414912v-12.49231499l10.9729114 6.24615749z" transform="translate(3.995 10.032365)"/></svg>