<svg viewBox="0 0 50 50" xmlns="http://www.w3.org/2000/svg"><path d="m32.570253 11.7277917c-1.1402715-8.25196432-9.3747316-12.4654673-18.156822-11.48273337-6.94415302.78018572-13.86580064 6.39402203-14.16337148 14.42343337-.17504166 4.9011666 1.21528929 8.5795422 5.87639881 9.6097875 2.02048096-3.5733506-.65015476-4.3560369-1.06775416-6.944153-1.71040715-10.58001846 12.20540533-17.80423811 19.50464283-10.41247858 5.0437006 5.12121908 1.7229101 20.86246608-6.4090256 19.22457618-7.7893541-1.5603714 3.8134078-14.0933548-2.4005714-16.55143987-5.053703-2.00047619-7.73684167 6.11145477-5.3412714 10.14491487-1.41033574 6.9366512-4.43105479 13.468206-3.20576312 22.1652762 3.97344582-2.8806857 5.31126432-8.3969988 6.40902562-14.1483679 2.0004762 1.2152893 3.0657297 2.4730887 5.6113357 2.6681352 9.3847339.7251726 14.6309827-9.372231 13.3431762-18.6919494z" transform="translate(8.496071 3.995)"/></svg>