<?xml version="1.0" encoding="iso-8859-1"?>
<!-- Generator: Adobe Illustrator 19.0.0, SVG Export Plug-In . SVG Version: 6.00 Build 0)  -->
<svg xmlns="http://www.w3.org/2000/svg" xmlns:xlink="http://www.w3.org/1999/xlink" version="1.1" id="Layer_1" x="0px" y="0px" viewBox="0 0 491.996 491.996" style="enable-background:new 0 0 491.996 491.996;" xml:space="preserve">
<g>
	<g>
		<path d="M222.049,382.62l-7.436-7.464c-5.216-5.224-14.5-5.22-19.728,0l-48.772,48.656V13.872c0-7.644-5.98-13.872-13.624-13.872    h-10.524c-7.648,0-14.288,6.232-14.288,13.872V425.02l-49.62-49.828c-5.228-5.232-14.28-5.232-19.496,0l-7.396,7.44    c-5.408,5.408-5.38,14.204,0.024,19.608l85.424,85.572c2.596,2.592,6.092,4.184,9.928,4.184c0.024,0,0.24,0,0.268,0    c3.72,0,7.196-1.588,9.796-4.184l85.444-85.528c2.608-2.612,4.048-6.132,4.048-9.84    C226.101,388.732,224.661,385.224,222.049,382.62z"/>
	</g>
</g>
<g>
	<g>
		<path d="M460.873,89.476l-85.44-85.44C372.829,1.432,369.349,0,365.249,0c-3.724,0-7.204,1.432-9.804,4.036l-85.404,85.4    c-2.612,2.612-4.052,6.092-4.052,9.804s1.436,7.192,4.052,9.8l7.436,7.444c5.224,5.22,13.916,5.228,19.144,0l49.364-49.832    v411.364c0,7.64,7.148,13.98,14.792,13.98h10.524c7.644,0,13.12-6.34,13.12-13.988V67.868l49.028,48.66    c5.228,5.224,14.576,5.224,19.796,0l7.532-7.444c2.612-2.604,4.096-6.088,4.096-9.796    C464.877,95.568,463.485,92.084,460.873,89.476z"/>
	</g>
</g>
<g>
</g>
<g>
</g>
<g>
</g>
<g>
</g>
<g>
</g>
<g>
</g>
<g>
</g>
<g>
</g>
<g>
</g>
<g>
</g>
<g>
</g>
<g>
</g>
<g>
</g>
<g>
</g>
<g>
</g>
</svg>
