<svg id="Icons" xmlns="http://www.w3.org/2000/svg" viewBox="0 0 200 200"><title>005-smiley-moyen</title><path d="M152.42,47.59a74.13,74.13,0,1,0,0,104.83,74.22,74.22,0,0,0,0-104.83Zm-8.08,96.74a62.7,62.7,0,1,1,0-88.66,62.76,62.76,0,0,1,0,88.66Zm-72-64.39A8.67,8.67,0,1,1,81,88.61,8.67,8.67,0,0,1,72.35,79.94Zm39.29,0a8.67,8.67,0,1,1,8.67,8.67A8.67,8.67,0,0,1,111.64,79.94Zm16.94,43.21c-5.48,12.68-18.33,12.29-32.72,12.29-7.78,0-5.19-8.57,0-8.57,11,0,20.73,2.43,24.86-7.12a4.28,4.28,0,0,1,7.86,3.4Z"/></svg>