<?xml version="1.0" encoding="UTF-8"?>
<svg width="50px" height="50px" viewBox="0 0 50 50" version="1.1" xmlns="http://www.w3.org/2000/svg" xmlns:xlink="http://www.w3.org/1999/xlink">
    <!-- Generator: Sketch 51.3 (57544) - http://www.bohemiancoding.com/sketch -->
    <title>005-pinterest</title>
    <desc>Created with Sketch.</desc>
    <defs></defs>
    <g id="005-pinterest" stroke="none" stroke-width="1" fill="none" fill-rule="evenodd">
        <g id="Group" transform="translate(8.496071, 3.995000)" fill="#000000" fill-rule="nonzero">
            <g id="071-pinterest">
                <g id="ICONSET-01">
                    <g id="071-pinterest">
                        <path d="M32.570253,11.7277917 C31.4299815,3.47582738 23.1955214,-0.737675595 14.413431,0.245058333 C7.46927798,1.02524405 0.547630357,6.63908036 0.250059524,14.6684917 C0.0750178571,19.5696583 1.46534881,23.2480339 6.12645833,24.2782792 C8.14693929,20.7049286 5.47630357,19.9222423 5.05870417,17.3341262 C3.34829702,6.75410774 17.2641095,-0.470111905 24.563347,6.92164762 C29.6070476,12.0428667 26.2862571,27.7841137 18.1543214,26.1462238 C10.3649673,24.5858524 21.9677292,12.052869 15.75375,9.59478393 C10.700047,7.59430774 8.01690833,15.7062387 10.4124786,19.7396988 C9.00214286,26.67635 5.98142381,33.2079048 7.20671548,41.904975 C11.1801613,39.0242893 12.5179798,33.5079762 13.6157411,27.7566071 C15.6162173,28.9718964 16.6814708,30.2296958 19.2270768,30.4247423 C28.6118107,31.1499149 33.8580595,21.0525113 32.570253,11.7327929 L32.570253,11.7277917 Z" id="Shape"></path>
                    </g>
                </g>
            </g>
        </g>
    </g>
</svg>