<svg id="Icons" xmlns="http://www.w3.org/2000/svg" viewBox="0 0 200 200"><title>006-smiley-bien</title><path d="M152.42,47.59a74.13,74.13,0,1,0,0,104.83,74.2,74.2,0,0,0,0-104.83Zm-8.09,96.74a62.69,62.69,0,1,1,0-88.66,62.76,62.76,0,0,1,0,88.66Zm-72-64.39A8.67,8.67,0,1,1,81,88.61,8.67,8.67,0,0,1,72.35,79.94Zm39.29,0a8.67,8.67,0,1,1,8.67,8.67A8.67,8.67,0,0,1,111.64,79.94Zm20.48,35.49c-5.37,12.42-17.94,20.44-32,20.44-14.39,0-27-8.07-32.22-20.54a4.19,4.19,0,0,1,7.74-3.22c3.88,9.34,13.49,15.38,24.48,15.38,10.75,0,20.3-6,24.35-15.39a4.19,4.19,0,0,1,7.69,3.33Z"/></svg>