<svg viewBox="0 0 50 50" xmlns="http://www.w3.org/2000/svg"><g fill="#000201" transform="translate(3.995 3.995)"><path d="m.725887 14.017622h8.687782v27.946652h-8.687782z"/><path d="m5.06977823 10.1995707c-2.03833886.0011559-3.87655884-1.22597292-4.65713137-3.10893154-.78057254-1.88295862-.34969502-4.05073223 1.09162844-5.4920557 1.44132347-1.44132346 3.60909708-1.87220098 5.4920557-1.09162844 1.88295861.78057254 3.1100874 2.61879251 3.1089316 4.65713137.0007587 1.33572593-.52952038 2.61696197-1.47402137 3.561463-.94450103.944501-2.22573707 1.47478011-3.561463 1.47402131z"/><path d="m41.9499857 41.9642748h-8.6820667v-13.5918068c0-3.2407714-.0571564-7.4103353-4.5125027-7.4103353-4.5210762 0-5.2098115 3.5351272-5.2098115 7.1788517v13.8232904h-8.6849245v-27.9466524h8.3305544v3.8209096h.1200286c1.1431292-2.197666 4.0009523-4.5125027 8.2162415-4.5125027 8.7963796 0 10.4196231 5.784234 10.4196231 13.3088823z"/></g></svg>