<svg viewBox="0 0 50 50" xmlns="http://www.w3.org/2000/svg"><g fill="#000100" transform="translate(6.977959 3.995)"><path d="m28.4698538 21.1491763c-.0273437-.0696023-.0646307-.1342331-.0969461-.2013497-.382813.1988639-.7457397.4002136-1.1186095.5717338-.3643015.1685043-.7368086.3186687-1.1161236.4499295-.3877847.1342332-.7830267.2485799-1.1732971.3529835-.0032236.0255854-.0032236.0514743 0 .0770597.0147808.0522236.0322038.103663.0522018.1541196.5286725 1.3627145.8008836 2.8114173.802913 4.2730881.0228793 1.2200216-.1448604 2.4361356-.4971598 3.6044083-.5128277 1.7526711-1.4395627 3.3563405-2.7020633 4.6757876-1.8126878 1.8899919-4.2613935 3.0412821-6.8732337 3.2315384-.2485799.0223722-.4971598.0198864-.765626.0298296.0028015-.0268764.0077897-.0534797.0149148-.0795455.1392047-.1044036.2808952-.2063213.4201-.3132107 2.7790471-2.0814339 5.0303255-4.7865443 6.572452-7.8973828 1.2816951-2.5947852 1.9727262-5.441256 2.0234403-8.3348835.0247223-1.4262486-.0893328-2.8515209-.3405545-4.2556875-.2889268-1.6000515-.72411-3.1702057-1.3000728-4.6907024-.0321833-.0782031-.0686982-.1545525-.1093751-.2286935-.0323154-.2485799-.0447444-.3281254-.0522018-.3753556s0-.1218041 0-.1392047c-.136252-1.3198726-.385751-2.62558387-.7457396-3.90270418-.4773883-1.73223055-1.2104784-3.38356833-2.175074-4.89950947-.6548482-1.05016512-1.4586868-1.99969952-2.3863668-2.81889586-.0894888-.07705976-.1839492-.14914792-.2982959-.24857988 0 .05965917-.0149148.09446036 0 .11683255.0671166.12428994.1416905.24857988.2112929.36789822 1.6510006 2.83915962 3.1012785 5.7903838 4.3402047 8.8320432.3405545.83522842.6512793 1.68288582.9744332 2.52308582l.0969461.1764917c0 .049716.0198864.1367189.0522018.3753556.0174006.4424722.0422586.8998592.049716 1.2926154.0577053 2.3064184-.0253088 4.6142094-.2485799 6.9105207-.1093752 1.0614361-.2485799 2.1179006-.4250716 3.1693935-.2196205 1.319727-.5167735 2.6253747-.889916 3.9101615-.4466081 1.580975-1.0598985 3.1100344-1.8295479 4.5614409-.6808399 1.2926067-1.5560934 2.4730253-2.595174 3.5000047-.9602279.9368553-2.0886419 1.684071-3.3259988 2.2024178-.1293128.0551889-.2723078.0699217-.4101568.0422585-1.6843608-.3225612-3.26611277-1.0465006-4.61115681-2.1104432-1.16166144-.9251601-2.11965859-2.0803421-2.81392426-3.3931153-.75700088-1.3891994-1.22542255-2.9170658-1.37713254-4.4918385-.08994346-.9324473-.07660496-1.871977.03977278-2.8014953.12717849-1.1324801.42381483-2.2394196.87997278-3.2837402.69614112-1.5416206 1.71308269-2.9170341 2.98295858-4.0344515.9693985-.8810545 2.09489336-1.5732128 3.31854147-2.0408408.7949687-.3001549 1.6240973-.5005485 2.4683982-.5965917.7428394-.0842338 1.4921189-.0958893 2.2372189-.0348012.9563825.0728487 1.8969093.2855769 2.7915521.6313929.0770597.0323154.1590911.049716.2734379.0870029.0734178-.6103778.2023855-1.2127821.3852988-1.7997183.1995521-.574498.4353479-1.1357585.7059668-1.6804-.1323059-.0889969-.2810451-.1506899-.4375006-.1814633-1.2144697-.3853665-2.4735386-.6126172-3.7460988-.6761373-1.358613-.0803727-2.7219278.0131881-4.0568236.2784095-1.5932514.3145197-3.11556476.9177163-4.49183851 1.7798319-1.31013668.8294875-2.48405955 1.85667-3.48011834 3.0451036-2.19669273 2.5429422-3.47027817 5.7531833-3.61435148 9.1104526-.05349003.9888292-.01855002 1.9804601.10440355 2.9630722.16989382 1.384533.53564707 2.7379036 1.08629408 4.0195367.89456368 2.0512203 2.21465636 3.8890129 3.87287456 5.3916976 1.22034297 1.124166 2.64466811 2.0042437 4.1960284 2.5926882 1.44791664.5452563 2.97339624.8565615 4.51918224.9222314 1.4349897.0815583 2.8745082-.0220401 4.2830314-.3082391 1.8885392-.3881547 3.6698803-1.1829722 5.2201775-2.3291935 1.2112811-.9103935 2.281014-1.995205 3.1743651-3.2191094 1.7847829-2.3627364 2.820353-5.206225 2.9730154-8.1633634.0727297-1.2287161.0093712-2.4617069-.1889207-3.6764964-.1674765-1.032032-.4458405-2.0429764-.8302569-3.015274z"/><path d="m35.5046645 4.86470828c-.3072211-1.16878385-.766896-2.29206259-1.3671894-3.34091361-.0870029-.14914792-.1814633-.29332426-.2933242-.46981597-.0845172.15163373-.1516337.27095207-.2162645.39275621-.413059.79278057-.950132 1.51447266-1.5909113 2.13778698-.9531062.95173688-2.1449366 1.62922553-3.4502887 1.96129527-.1168326.02734379-.2336651.05965917-.3480118.09197456-.9846742.27608069-1.9327208.66915283-2.8238675 1.17081124-.6008117.34874216-1.1277223.81147779-1.5511385 1.36221775-.7964213.99763623-1.199682 2.25251989-1.1335242 3.52734849.0516381 1.0582786.3495489 2.0899014.8700296 3.0127882.0273438.0447444.0646307.0845172.1168325.1541195 4.225858-1.0340923 7.3853083-3.4478029 9.5777828-7.26350412-.0007805.08313511-.0065913.16614679-.0174005.24857988-.073749.32906804-.1872732.64793738-.3380687.94957515-.3371998.65964624-.7628887 1.27016259-1.2652716 1.81463309-.8657229.9494296-1.8214226 1.8127228-2.853697 2.5777734-1.2396542.9407914-2.5373232 1.8025832-3.8853036 2.5802592-.1153054.0446262-.2159803.1203476-.2908384.2187503.1839491.1640627.3554692.3281254.5394183.482245.6747129.5870735 1.4562488 1.0386088 2.3018497 1.3299023.7994006.271231 1.6540103.3378905 2.4857988.1938923 1.001061-.1791334 1.9333944-.6306786 2.6946059-1.3050443.7426138-.6587296 1.3701843-1.4366817 1.8568918-2.3018498.3008666-.4911126.5507451-1.0116929.7457396-1.5536242.387723-1.1335369.6209993-2.3141331.6935379-3.50994794.0921366-1.50233214-.0623702-3.00961335-.457387-4.46200888z"/></g></svg>