<svg id="Icons" xmlns="http://www.w3.org/2000/svg" viewBox="0 0 200 200"><title>007-smiley-excellent</title><path d="M152.49,47.52a74.22,74.22,0,1,0,0,105,74.31,74.31,0,0,0,0-105Zm-8.1,96.86a62.77,62.77,0,1,1,0-88.77,62.84,62.84,0,0,1,0,88.77Zm-8.69-33.14a2,2,0,0,1,.17,1.9c-6,13.86-20,22.81-35.77,22.81-16.06,0-30.19-9-36-22.92a2,2,0,0,1,.19-1.89,2,2,0,0,1,1.66-.89h0l68,.08a2,2,0,0,1,1.68.91ZM73.33,85a8.68,8.68,0,1,1,14.13-.15A8.66,8.66,0,0,0,73.33,85Zm39.33,0a8.67,8.67,0,1,1,15.69-5.1,8.54,8.54,0,0,1-1.56,5,8.65,8.65,0,0,0-14.12.15Z"/></svg>