<svg id="Icons" xmlns="http://www.w3.org/2000/svg" viewBox="0 0 200 200"><title>008-velo-01</title><path d="M52.31,46.47A14.75,14.75,0,1,1,65,29.88,14.75,14.75,0,0,1,52.31,46.47Zm31.05,78.19c5.47,9.46,9.47,13,6.37,38.59,0,0,0,.94.1,1.41a7.87,7.87,0,0,0,8.81,6.72c3.38-.47,6.28-3.94,6.68-5a5,5,0,0,0,.39-1.24s5.56-36.25-16-54S65,99.35,59.14,81.08s1.09-12.39,5.6-10.24S90,81.87,94.48,82a.14.14,0,0,0,.07,0,4.18,4.18,0,0,0,1.62.06,4.83,4.83,0,0,0,1.15-9.25.24.24,0,0,0,0-.07S70.68,61,53.45,51C43.21,46.1,37.57,54,39.13,66.44c0,0,4.15,29.23,8.46,34.82,11.47,14.91,30.25,13.94,35.76,23.39ZM110,92.57a1.4,1.4,0,0,0,.33-.19s0,0,0,0a2.3,2.3,0,0,1,.3-.19c.13-.08.28-.14.39-.21a31,31,0,0,1,8.85-2.56c8.24-1.49,14.42,4,16.83,9.6,4.36,10.06-.28,20.35-.28,20.35,3.08-2.68,10.44-2.45,10.44-2.45s-.56-5.82-1.54-11.17c-1-5.52-2.58-13.45-7.8-18.25-5.76-5.33-13.93-6.09-13.93-6.09a62.5,62.5,0,0,0-15.84.43.72.72,0,0,0-.21,0,5.87,5.87,0,0,0-1.52.35,5.52,5.52,0,0,0,4,10.3ZM82.6,151.34A31.56,31.56,0,1,1,51,119.78,31.56,31.56,0,0,1,82.6,151.34Zm-10,0A21.51,21.51,0,1,0,51,172.85,21.51,21.51,0,0,0,72.55,151.34Zm108,0A31.56,31.56,0,1,1,149,119.78,31.57,31.57,0,0,1,180.52,151.34Zm-10.06,0A21.51,21.51,0,1,0,149,172.85,21.5,21.5,0,0,0,170.46,151.34Z"/></svg>