<svg id="Icons" xmlns="http://www.w3.org/2000/svg" viewBox="0 0 200 200"><title>009-livre</title><path d="M166.7,46.46V29.05l-3.18-.24c-.28,0-7-.52-16.23-.52-25.22,0-41.18,3.51-47.74,10.44-3.17-3.33-8.51-5.88-16-7.61-8.17-1.88-18.84-2.83-31.71-2.83-9.19,0-15.94.5-16.23.52l-3.18.24V46.46H16.18V171.71H183.82V46.46H166.7ZM23.06,164.82V53.34H32.4V155.18l3.57-.12s2.8-.1,7.16-.1c32.67,0,49.33,4.83,52.41,9.85H23.06Zm73.05-8.63c-9-5.39-26.69-8.12-53-8.12-1.47,0-2.76,0-3.84,0V35.49c2.82-.14,7.3-.31,12.53-.31,27.31,0,44.29,4.59,44.29,12v109Zm6.89-109c0-5,7.68-7.85,14.11-9.33,7.57-1.74,18-2.66,30.18-2.66,5.22,0,9.7.18,12.52.32V148.1c-1.08,0-2.37,0-3.84,0-26.29,0-44,2.72-53,8.12v-109Zm73.92,117.66H103.56c3.08-5,19.74-9.86,52.41-9.86,4.36,0,7.13.1,7.16.1l3.57.13V53.34h10.22V164.82Z"/></svg>