<?xml version="1.0" encoding="UTF-8"?>
<svg width="50px" height="50px" viewBox="0 0 50 50" version="1.1" xmlns="http://www.w3.org/2000/svg" xmlns:xlink="http://www.w3.org/1999/xlink">
    <!-- Generator: Sketch 51.3 (57544) - http://www.bohemiancoding.com/sketch -->
    <title>010-flickr</title>
    <desc>Created with Sketch.</desc>
    <defs></defs>
    <g id="010-flickr" stroke="none" stroke-width="1" fill="none" fill-rule="evenodd">
        <g id="Group" transform="translate(3.995000, 15.856647)" fill="#000000" fill-rule="nonzero">
            <g id="031-flickr">
                <g id="ICONSET-01">
                    <g id="031-flickr">
                        <path d="M18.0964253,9.14335294 C18.0964253,14.0757151 14.0979557,18.0741847 9.16559353,18.0741847 C4.23323133,18.0741847 0.234761765,14.0757151 0.234761765,9.14335294 C0.234761765,4.21099074 4.23323133,0.212521176 9.16559353,0.212521176 C11.5341974,0.212521176 13.8057894,1.15344539 15.4806452,2.82830123 C17.1555011,4.50315707 18.0964253,6.7747491 18.0964253,9.14335294 Z" id="Shape"></path>
                        <path d="M41.7752382,9.14335294 C41.7752382,14.0757151 37.7767687,18.0741847 32.8444065,18.0741847 C27.9120442,18.0741847 23.9135747,14.0757151 23.9135747,9.14335294 C23.9135747,4.21099074 27.9120442,0.212521176 32.8444065,0.212521176 C37.7767687,0.212521176 41.7752382,4.21099074 41.7752382,9.14335294 Z" id="Shape"></path>
                    </g>
                </g>
            </g>
        </g>
    </g>
</svg>