<svg id="Icons" xmlns="http://www.w3.org/2000/svg" viewBox="0 0 200 200"><title>010-bulle</title><path d="M99.72,21.64c-46,0-83.58,32.19-83.58,72,0,24.57,14.4,47.16,38.4,60.71.56,1.7,0,3.67-6.49,9.32-3.11,2.83-6.78,5.93-4.8,10.45,1.69,3.67,5.08,4.24,8.47,4.24a62.1,62.1,0,0,0,10.16-.85A55.69,55.69,0,0,0,91,165.37c3.1.28,5.93.56,9,.56,46.3,0,83.86-32.19,83.86-72S146,21.64,99.72,21.64Zm0,132.71c-3.39,0-6.78-.29-10.16-.56L87,153.5l-2,1.7a44.53,44.53,0,0,1-23.72,10.72c4-4.8,7.06-11.86,1.69-19.2l-.56-1.13L61.32,145c-21.18-11.3-33.88-30.5-33.88-51.39C27.44,60,59.91,32.93,100,32.93S172.57,60,172.57,93.64s-32.75,60.71-72.84,60.71Z"/><path d="M128,64.56H71.49a3.86,3.86,0,0,0-4,4v1.41a3.86,3.86,0,0,0,4,3.95h56.75a3.86,3.86,0,0,0,4-3.95V68.52a4.11,4.11,0,0,0-4.24-4Z"/><path d="M128,87.43H71.49a3.86,3.86,0,0,0-4,4V92.8a3.86,3.86,0,0,0,4,4h56.75a3.86,3.86,0,0,0,4-4V91.39a4.31,4.31,0,0,0-4.24-4Z"/><path d="M128,110.58H71.49a3.86,3.86,0,0,0-4,4V116a3.86,3.86,0,0,0,4,4h56.75a3.86,3.86,0,0,0,4-4v-1.41a4.11,4.11,0,0,0-4.24-4Z"/></svg>