<?xml version="1.0" encoding="iso-8859-1"?>
<!-- Generator: Adobe Illustrator 19.0.0, SVG Export Plug-In . SVG Version: 6.00 Build 0)  -->
<svg xmlns="http://www.w3.org/2000/svg" xmlns:xlink="http://www.w3.org/1999/xlink" version="1.1" id="Layer_1" x="0px" y="0px" viewBox="0 0 457.848 457.848" style="enable-background:new 0 0 457.848 457.848;" xml:space="preserve">
<g>
	<g>
		<path d="M456.494,1.168c-0.864-0.86-2.064-1.284-3.288-1.14l-344.76,39.78c-1.524,0.18-2.812,1.216-3.32,2.656    c-0.504,1.456-0.132,3.068,0.948,4.148l56.572,56.576L1.362,264.464c-1.564,1.564-1.564,4.092,0,5.656l186.56,186.556    c0.78,0.784,1.804,1.172,2.828,1.172c1.024,0,2.048-0.388,2.828-1.172l161.28-161.28l56.18,56.18    c1.084,1.088,2.7,1.452,4.144,0.952c1.448-0.504,2.48-1.796,2.656-3.32L457.63,4.456C457.774,3.248,457.354,2.036,456.494,1.168z"/>
	</g>
</g>
<g>
</g>
<g>
</g>
<g>
</g>
<g>
</g>
<g>
</g>
<g>
</g>
<g>
</g>
<g>
</g>
<g>
</g>
<g>
</g>
<g>
</g>
<g>
</g>
<g>
</g>
<g>
</g>
<g>
</g>
</svg>
