<?xml version="1.0" encoding="UTF-8"?>
<svg width="50px" height="50px" viewBox="0 0 50 50" version="1.1" xmlns="http://www.w3.org/2000/svg" xmlns:xlink="http://www.w3.org/1999/xlink">
    <!-- Generator: Sketch 52.2 (67145) - http://www.bohemiancoding.com/sketch -->
    <title>012-smiley-bien</title>
    <desc>Created with Sketch.</desc>
    <g id="012-smiley-bien" stroke="none" stroke-width="1" fill="none" fill-rule="evenodd">
        <g id="Group" transform="translate(2.995000, 2.995000)" fill="#000000" fill-rule="nonzero">
            <g id="006-smiley-bien">
                <g id="ICONSET-01">
                    <g id="006-smiley-bien">
                        <path d="M14.2555553,16.3868627 C14.2555553,15.045817 15.3426876,13.9586847 16.6837333,13.9586847 C18.024779,13.9586847 19.1119113,15.045817 19.1119113,16.3868627 C19.1119113,17.7279084 18.024779,18.8150407 16.6837333,18.8150407 C15.3448756,18.8119522 14.2611531,17.7257239 14.2611567,16.3868627 L14.2555553,16.3868627 Z M25.2593747,16.3868627 C25.2593747,15.045817 26.346507,13.9586847 27.6875527,13.9586847 C29.0285984,13.9586847 30.1157307,15.045817 30.1157307,16.3868627 C30.1157307,17.7279084 29.0285984,18.8150407 27.6875527,18.8150407 C26.348695,18.8119522 25.2649724,17.7257239 25.264976,16.3868627 L25.2593747,16.3868627 Z M30.99514,26.3264287 C29.491182,29.8048567 25.970744,32.0509913 22.0330067,32.0509913 C18.0028473,32.0509913 14.4712067,29.7908533 13.0092587,26.298422 C12.7602295,25.6998238 13.0436111,25.012686 13.6422094,24.7636567 C14.2408076,24.5146275 14.9279454,24.7980091 15.1769747,25.3966073 C16.2636333,28.01243 18.955074,29.7040327 22.0330067,29.7040327 C25.0437233,29.7040327 27.71836,28.0236327 28.85263,25.3938067 C29.1101664,24.7990753 29.801066,24.5257249 30.3957973,24.7832613 C30.9905287,25.0407978 31.2638791,25.7316973 31.0063427,26.3264287 L30.99514,26.3264287 Z" id="Shape"></path>
                        <path d="M37.3932396,6.61963733 C45.8794363,15.1227676 45.8794363,28.8900331 37.3932396,37.3931633 C31.1697238,43.6173501 21.8095986,45.4795882 13.6776545,42.1114832 C5.54571028,38.7433784 0.243475613,30.808255 0.243475613,22.0064003 C0.243475613,13.2045456 5.54571023,5.26942221 13.6776545,1.90131741 C21.8095987,-1.46678739 31.1697238,0.395450671 37.3932396,6.61963733 Z M14.4429715,3.7490971 C7.05840255,6.80765254 2.24347561,14.0134897 2.24347561,22.0064003 C2.24347561,29.9993109 7.05840259,37.2051481 14.4429715,40.2637035 C21.8275405,43.3222591 30.3274131,41.6311721 35.9782834,35.979693 C43.6845328,28.2580659 43.6846438,15.7552062 35.9786164,8.03344131 C30.3270789,2.38156221 21.8273953,0.690601799 14.4429715,3.7490971 Z" id="Shape-path"></path>
                    </g>
                </g>
            </g>
        </g>
    </g>
</svg>