<svg id="Icons" xmlns="http://www.w3.org/2000/svg" viewBox="0 0 200 200"><title>012-voiture</title><path d="M183.73,94.39l-1.92-5.6a8.61,8.61,0,0,0-7.52-5.6h-7c-5.21-14.64-11.59-32.31-13.45-36.45C151,40.3,141.78,37.39,136.71,36c0,0-8.47-3.22-36.71-3.22S63.28,36,63.28,36c-5.93,2-14.18,4.79-17.46,11-1.54,2.95-8,21.12-13.29,36.17H25.72A8.62,8.62,0,0,0,18.2,88.8l-1.93,5.59C15.21,97.5,16.86,100,20,100h6.72c-.87,2.51-1.39,4-1.39,4-.54.91-.93,5.11-.93,6.23v51a5.94,5.94,0,0,0,5.94,5.93H52A5.93,5.93,0,0,0,58,161.31V150.43H142v10.88a5.94,5.94,0,0,0,5.94,5.93h21.75a5.93,5.93,0,0,0,5.93-5.93v-51c0-1.13-.38-5.32-.92-6.23L173.29,100h6.76C183.14,100,184.79,97.49,183.73,94.39ZM57.85,125.66h-9c-8.06,0-16.1-1.09-16.1-6.2v-6.19c0-6,3.47-6.19,7.21-6.19s10.89,3.09,15.66,5.22c5.19,2.32,11,4.27,11,8.14,0,3.57-2,5.22-8.78,5.22ZM45.32,85.45A201.47,201.47,0,0,1,55.62,53.8c.84-2.1,1.67-8.6,44.38-8.6s43.72,7.41,43.83,7.51c1.32,3.93,6.53,15.79,10.71,32.72,0,0-18,6.15-54.55,6.15s-54.67-6.14-54.67-6.14Zm88,35c0-3.87,5.82-5.8,11-8.13,4.77-2.12,12-5.23,15.66-5.23s7.21.22,7.21,6.2v6.19h0c0,5.12-8,6.2-16.1,6.2h-9C135.37,125.65,133.35,124,133.35,120.42Z"/></svg>