<?xml version="1.0" encoding="UTF-8"?>
<svg width="50px" height="50px" viewBox="0 0 50 50" version="1.1" xmlns="http://www.w3.org/2000/svg" xmlns:xlink="http://www.w3.org/1999/xlink">
    <!-- Generator: Sketch 51.3 (57544) - http://www.bohemiancoding.com/sketch -->
    <title>012-smiley-bien</title>
    <desc>Created with Sketch.</desc>
    <defs></defs>
    <g id="012-smiley-bien" stroke="none" stroke-width="1" fill="none" fill-rule="evenodd">
        <g id="Group" transform="translate(3.995000, 3.995000)" fill="#000000" fill-rule="nonzero">
            <g id="006-smiley-bien">
                <g id="ICONSET-01">
                    <g id="006-smiley-bien">
                        <path d="M13.2555553,15.3868627 C13.2555553,14.045817 14.3426876,12.9586847 15.6837333,12.9586847 C17.024779,12.9586847 18.1119113,14.045817 18.1119113,15.3868627 C18.1119113,16.7279084 17.024779,17.8150407 15.6837333,17.8150407 C14.3448756,17.8119522 13.2611531,16.7257239 13.2611567,15.3868627 L13.2555553,15.3868627 Z M24.2593747,15.3868627 C24.2593747,14.045817 25.346507,12.9586847 26.6875527,12.9586847 C28.0285984,12.9586847 29.1157307,14.045817 29.1157307,15.3868627 C29.1157307,16.7279084 28.0285984,17.8150407 26.6875527,17.8150407 C25.348695,17.8119522 24.2649724,16.7257239 24.264976,15.3868627 L24.2593747,15.3868627 Z M29.99514,25.3264287 C28.491182,28.8048567 24.970744,31.0509913 21.0330067,31.0509913 C17.0028473,31.0509913 13.4712067,28.7908533 12.0092587,25.298422 C11.7602295,24.6998238 12.0436111,24.012686 12.6422094,23.7636567 C13.2408076,23.5146275 13.9279454,23.7980091 14.1769747,24.3966073 C15.2636333,27.01243 17.955074,28.7040327 21.0330067,28.7040327 C24.0437233,28.7040327 26.71836,27.0236327 27.85263,24.3938067 C28.1101664,23.7990753 28.801066,23.5257249 29.3957973,23.7832613 C29.9905287,24.0407978 30.2638791,24.7316973 30.0063427,25.3264287 L29.99514,25.3264287 Z" id="Shape"></path>
                        <path d="M36.3932396,5.61963733 C44.8794363,14.1227676 44.8794363,27.8900331 36.3932396,36.3931633 C30.1697238,42.6173501 20.8095986,44.4795882 12.6776545,41.1114832 C4.54571028,37.7433784 -0.756524387,29.808255 -0.756524387,21.0064003 C-0.756524387,12.2045456 4.54571023,4.26942221 12.6776545,0.901317411 C20.8095987,-2.46678739 30.1697238,-0.604549329 36.3932396,5.61963733 Z M13.4429715,2.7490971 C6.05840255,5.80765254 1.24347561,13.0134897 1.24347561,21.0064003 C1.24347561,28.9993109 6.05840259,36.2051481 13.4429715,39.2637035 C20.8275405,42.3222591 29.3274131,40.6311721 34.9782834,34.979693 C42.6845328,27.2580659 42.6846438,14.7552062 34.9786164,7.03344131 C29.3270789,1.38156221 20.8273953,-0.309398201 13.4429715,2.7490971 Z" id="Shape-path"></path>
                    </g>
                </g>
            </g>
        </g>
    </g>
</svg>