<svg viewBox="0 0 50 50" xmlns="http://www.w3.org/2000/svg"><g transform="translate(2.995 2.995)"><path d="m14.2555553 16.3868627c0-1.3410457 1.0871323-2.428178 2.428178-2.428178s2.428178 1.0871323 2.428178 2.428178-1.0871323 2.428178-2.428178 2.428178c-1.3388577-.0030885-2.4225802-1.0893168-2.4225766-2.428178zm11.0038194 0c0-1.3410457 1.0871323-2.428178 2.428178-2.428178s2.428178 1.0871323 2.428178 2.428178-1.0871323 2.428178-2.428178 2.428178c-1.3388577-.0030885-2.4225803-1.0893168-2.4225767-2.428178zm5.7357653 9.939566c-1.503958 3.478428-5.024396 5.7245626-8.9621333 5.7245626-4.0301594 0-7.5618-2.260138-9.023748-5.7525693-.2490292-.5985982.0343524-1.285736.6329507-1.5347653.5985982-.2490292 1.285736.0343524 1.5347653.6329506 1.0866586 2.6158227 3.7780993 4.3074254 6.856032 4.3074254 3.0107166 0 5.6853533-1.6804 6.8196233-4.310226.2575364-.5947314.948436-.8680818 1.5431673-.6105454.5947314.2575365.8680818.948436.6105454 1.5431674z"/><path d="m37.3932396 6.61963733c8.4861967 8.50313027 8.4861967 22.27039577 0 30.77352597-6.2235158 6.2241868-15.583641 8.0864249-23.7155851 4.7183199-8.13194422-3.3681048-13.43417889-11.3032282-13.43417889-20.1050829s5.30223462-16.73697809 13.43417889-20.10508289c8.1319442-3.3681048 17.4920693-1.50586674 23.7155851 4.71831992zm-22.9502681-2.87054023c-7.38456895 3.05855544-12.19949589 10.2643926-12.19949589 18.2573032s4.81492698 15.1987478 12.19949589 18.2573032c7.384569 3.0585556 15.8844416 1.3674686 21.5353119-4.2840105 7.7062494-7.7216271 7.7063604-20.2244868.000333-27.94625169-5.6515375-5.6518791-14.1512211-7.34283951-21.5356449-4.28434421z"/></g></svg>