<svg viewBox="0 0 50 50" xmlns="http://www.w3.org/2000/svg"><g transform="translate(2.995 2.995)"><path d="m37.4125563 6.59974483c8.5012388 8.51583897 8.5012388 22.30587407 0 30.82171297-8.5097638 8.5037541-22.301445 8.5005064-30.80720283-.0072545-8.50575786-8.5077612-8.50575786-22.2994427 0-30.80720381 8.50575783-8.50776109 22.29743903-8.51100883 30.80720283-.00725466zm-29.39282276 1.4213017c-7.72493129 7.72675067-7.72493129 20.25235897-.00000001 27.97910967 7.72493127 7.7267505 20.25053937 7.7297 27.97825257.0074453 7.7208085-7.7340693 7.7209511-20.2593254.0004279-27.99357175-7.728604-7.72268333-20.2538919-7.71959107-27.97868046.00701678z"/><path d="m32.00338 25.1529493c.1048872.157893.1228025.3581214.0476113.5321267-1.6804 3.881724-5.6013333 6.3883207-10.0179846 6.3883207-4.4978707 0-8.4552127-2.5206-10.0824-6.419128-.0725291-.1741454-.0525282-.373102.0532126-.529326.1036981-.1554264.2780671-.2489134.4649107-.2492594l19.0445333.0224054c.1898995-.0002969.3670168.0956417.470512.2548606zm-17.467758-7.3489493c-.7303531-1.0007936-.5912111-2.3907417.3230318-3.2269015.914243-.8361598 2.3110594-.8509881 3.2428472-.0344251.9317878.8165629 1.1004056 2.2032439.391463 3.2193166-.4615298-.6367557-1.2031467-1.0102095-1.9895295-1.0018615-.7863827.008348-1.5199044.3974615-1.9678125 1.0438715zm11.015022 0c-.6169046-.8511442-.6160701-2.0025929.0020676-2.8528421.6181378-.8502491 1.7131896-1.2061933 2.7131126-.8818912.9999232.324302 1.6776184 1.255196 1.6790658 2.3063933.0046345.5010179-.14819.9908402-.436904 1.4003333-.4609166-.6367458-1.2021225-1.0102793-1.9881375-1.0019293-.7860151.0083501-1.5191184.3975455-1.9664038 1.0439393z"/></g></svg>