<?xml version="1.0" encoding="iso-8859-1"?>
<!-- Generator: Adobe Illustrator 19.0.0, SVG Export Plug-In . SVG Version: 6.00 Build 0)  -->
<svg xmlns="http://www.w3.org/2000/svg" xmlns:xlink="http://www.w3.org/1999/xlink" version="1.1" id="Layer_1" x="0px" y="0px" viewBox="0 0 457.852 457.852" style="enable-background:new 0 0 457.852 457.852;" xml:space="preserve">
<g>
	<g>
		<path d="M456.49,264.459L295.206,103.183l56.572-56.572c1.084-1.08,1.456-2.696,0.948-4.14c-0.504-1.448-1.792-2.48-3.316-2.656    L4.654,0.027c-1.22-0.144-2.428,0.284-3.292,1.148c-0.864,0.86-1.284,2.068-1.144,3.28L40.01,349.208    c0.176,1.52,1.208,2.812,2.656,3.316c1.448,0.508,3.068,0.14,4.144-0.948l56.18-56.18L264.274,456.68    c0.748,0.748,1.764,1.172,2.828,1.172c1.06,0,2.076-0.424,2.828-1.172l186.556-186.568    C458.05,268.555,458.05,266.027,456.49,264.459z"/>
	</g>
</g>
<g>
</g>
<g>
</g>
<g>
</g>
<g>
</g>
<g>
</g>
<g>
</g>
<g>
</g>
<g>
</g>
<g>
</g>
<g>
</g>
<g>
</g>
<g>
</g>
<g>
</g>
<g>
</g>
<g>
</g>
</svg>
