<?xml version="1.0" encoding="UTF-8"?>
<svg width="50px" height="50px" viewBox="0 0 50 50" version="1.1" xmlns="http://www.w3.org/2000/svg" xmlns:xlink="http://www.w3.org/1999/xlink">
    <!-- Generator: Sketch 52.2 (67145) - http://www.bohemiancoding.com/sketch -->
    <title>013-smiley-excellent</title>
    <desc>Created with Sketch.</desc>
    <g id="013-smiley-excellent" stroke="none" stroke-width="1" fill="none" fill-rule="evenodd">
        <g id="Group" transform="translate(2.995000, 2.995000)" fill="#000000" fill-rule="nonzero">
            <g id="007-smiley-excellent">
                <g id="ICONSET-01">
                    <g id="007-smiley-excellent">
                        <path d="M37.4125563,6.59974483 C45.9137951,15.1155838 45.9137951,28.9056189 37.4125563,37.4214578 C28.9027925,45.9252119 15.1111113,45.9219642 6.60535347,37.4142033 C-1.90040439,28.9064421 -1.90040439,15.1147606 6.60535347,6.60699949 C15.1111113,-1.9007616 28.9027925,-1.90400934 37.4125563,6.59974483 Z M8.01973354,8.02104653 C0.294802249,15.7477972 0.294802249,28.2734055 8.01973353,36.0001562 C15.7446648,43.7269067 28.2702729,43.7298562 35.9979861,36.0076015 C43.7187946,28.2735322 43.7189372,15.7482761 35.998414,8.01402975 C28.26981,0.291346423 15.7445221,0.294438684 8.01973354,8.02104653 Z" id="Shape-path"></path>
                        <path d="M32.00338,25.1529493 C32.1082672,25.3108423 32.1261825,25.5110707 32.0509913,25.685076 C30.3705913,29.5668 26.449658,32.0733967 22.0330067,32.0733967 C17.535136,32.0733967 13.577794,29.5527967 11.9506067,25.6542687 C11.8780776,25.4801233 11.8980785,25.2811667 12.0038193,25.1249427 C12.1075174,24.9695163 12.2818864,24.8760293 12.46873,24.8756833 L31.5132633,24.8980887 C31.7031628,24.8977918 31.8802801,24.9937304 31.9837753,25.1529493 L32.00338,25.1529493 Z M14.535622,17.804 C13.8052689,16.8032064 13.9444109,15.4132583 14.8586538,14.5770985 C15.7728968,13.7409387 17.1697132,13.7261104 18.101501,14.5426734 C19.0332888,15.3592363 19.2019066,16.7459173 18.492964,17.76199 C18.0314342,17.1252343 17.2898173,16.7517805 16.5034345,16.7601285 C15.7170518,16.7684765 14.9835301,17.15759 14.535622,17.804 Z M25.550644,17.804 C24.9337394,16.9528558 24.9345739,15.8014071 25.5527116,14.9511579 C26.1708494,14.1009088 27.2659012,13.7449646 28.2658242,14.0692667 C29.2657474,14.3935687 29.9434426,15.3244627 29.94489,16.37566 C29.9495245,16.8766779 29.7967,17.3665002 29.507986,17.7759933 C29.0470694,17.1392475 28.3058635,16.765714 27.5198485,16.774064 C26.7338334,16.7824141 26.0007301,17.1716095 25.5534447,17.8180033 L25.550644,17.804 Z" id="Shape"></path>
                    </g>
                </g>
            </g>
        </g>
    </g>
</svg>