<?xml version="1.0" encoding="UTF-8"?>
<svg width="50px" height="50px" viewBox="0 0 50 50" version="1.1" xmlns="http://www.w3.org/2000/svg" xmlns:xlink="http://www.w3.org/1999/xlink">
    <!-- Generator: Sketch 51.3 (57544) - http://www.bohemiancoding.com/sketch -->
    <title>013-smiley-excellent</title>
    <desc>Created with Sketch.</desc>
    <defs></defs>
    <g id="013-smiley-excellent" stroke="none" stroke-width="1" fill="none" fill-rule="evenodd">
        <g id="Group" transform="translate(3.995000, 3.995000)" fill="#000000" fill-rule="nonzero">
            <g id="007-smiley-excellent">
                <g id="ICONSET-01">
                    <g id="007-smiley-excellent">
                        <path d="M36.4125563,5.59974483 C44.9137951,14.1155838 44.9137951,27.9056189 36.4125563,36.4214578 C27.9027925,44.9252119 14.1111113,44.9219642 5.60535347,36.4142033 C-2.90040439,27.9064421 -2.90040439,14.1147606 5.60535347,5.60699949 C14.1111113,-2.9007616 27.9027925,-2.90400934 36.4125563,5.59974483 Z M7.01973354,7.02104653 C-0.705197751,14.7477972 -0.705197751,27.2734055 7.01973353,35.0001562 C14.7446648,42.7269067 27.2702729,42.7298562 34.9979861,35.0076015 C42.7187946,27.2735322 42.7189372,14.7482761 34.998414,7.01402975 C27.26981,-0.708653577 14.7445221,-0.705561316 7.01973354,7.02104653 Z" id="Shape-path"></path>
                        <path d="M31.00338,24.1529493 C31.1082672,24.3108423 31.1261825,24.5110707 31.0509913,24.685076 C29.3705913,28.5668 25.449658,31.0733967 21.0330067,31.0733967 C16.535136,31.0733967 12.577794,28.5527967 10.9506067,24.6542687 C10.8780776,24.4801233 10.8980785,24.2811667 11.0038193,24.1249427 C11.1075174,23.9695163 11.2818864,23.8760293 11.46873,23.8756833 L30.5132633,23.8980887 C30.7031628,23.8977918 30.8802801,23.9937304 30.9837753,24.1529493 L31.00338,24.1529493 Z M13.535622,16.804 C12.8052689,15.8032064 12.9444109,14.4132583 13.8586538,13.5770985 C14.7728968,12.7409387 16.1697132,12.7261104 17.101501,13.5426734 C18.0332888,14.3592363 18.2019066,15.7459173 17.492964,16.76199 C17.0314342,16.1252343 16.2898173,15.7517805 15.5034345,15.7601285 C14.7170518,15.7684765 13.9835301,16.15759 13.535622,16.804 Z M24.550644,16.804 C23.9337394,15.9528558 23.9345739,14.8014071 24.5527116,13.9511579 C25.1708494,13.1009088 26.2659012,12.7449646 27.2658242,13.0692667 C28.2657474,13.3935687 28.9434426,14.3244627 28.94489,15.37566 C28.9495245,15.8766779 28.7967,16.3665002 28.507986,16.7759933 C28.0470694,16.1392475 27.3058635,15.765714 26.5198485,15.774064 C25.7338334,15.7824141 25.0007301,16.1716095 24.5534447,16.8180033 L24.550644,16.804 Z" id="Shape"></path>
                    </g>
                </g>
            </g>
        </g>
    </g>
</svg>