<svg viewBox="0 0 50 50" xmlns="http://www.w3.org/2000/svg"><path d="m37.6839702 4.61609881v-4.35353631l-.7951892-.06001429c-.0700167 0-1.7504167-.13003095-4.0584661-.13003095-6.3065012 0-10.2974512.87770893-11.9378417 2.61062143-.7926887-.83269821-2.1280065-1.47035-4.0009524-1.90295298-2.0429863-.4701119-4.7111214-.70766845-7.92938747-.70766845-2.29804702 0-3.98594881.12502976-4.05846607.13003095l-.79518928.06001429v4.35353631h-4.06346727v31.31995539h41.91997859v-31.31995539zm-35.91854996 29.59704519v-27.87663567h2.33555595v25.46606187l.8927125-.0300071s.70016667-.025006 1.79042619-.025006c8.16944462 0 12.33543632 1.2077875 13.10561962 2.4630864h-18.12431426zm18.26684826-2.1580136c-2.2505358-1.3478209-6.6740887-2.0304834-13.25315481-2.0304834-.3675875 0-.69016429 0-.96022857 0v-28.15170117c.70516786-.03500833 1.82543452-.07751845 3.13324583-.07751845 6.82912555 0 11.07513635 1.14777322 11.07513635 3.00071429v27.25648813zm1.7229101-27.25648814c0-1.25029762 1.9204571-1.96296726 3.5283399-2.33305536 1.8929505-.43510357 4.5010714-.66515833 7.5467964-.66515833 1.3053107 0 2.4255774.04501072 3.1307452.08001905v28.15170118c-.2700643 0-.5926411 0-.9602286 0-6.5740648 0-11.002619.6801619-13.2531547 2.0304833v-27.25648805zm18.4844 29.42200354h-18.3443667c.7701833-1.2502976 4.936175-2.4655869 13.1056196-2.4655869 1.0902596 0 1.7829245.025006 1.7904262.025006l.8927125.0325077v-25.47606427h2.5556084v27.87663567z" transform="translate(3.995 6.995714)"/></svg>