<svg id="Icons" xmlns="http://www.w3.org/2000/svg" viewBox="0 0 200 200"><title>014-parametres</title><path d="M160.78,114.16a28.17,28.17,0,0,1,10.4-38.41l-14.5-25.12a27.77,27.77,0,0,1-14.1,3.82,28.15,28.15,0,0,1-28.06-28.24h-29a27.85,27.85,0,0,1-3.74,14.16,28.16,28.16,0,0,1-38.46,10.2L28.82,75.69A27.86,27.86,0,0,1,39.17,86a28.14,28.14,0,0,1-10.33,38.37l14.5,25.12a27.78,27.78,0,0,1,14-3.79,28.15,28.15,0,0,1,28.06,28.1h29a27.79,27.79,0,0,1,3.74-14,28.16,28.16,0,0,1,38.4-10.24l14.5-25.12A27.77,27.77,0,0,1,160.78,114.16ZM100,129.87A29.88,29.88,0,1,1,129.87,100,29.87,29.87,0,0,1,100,129.87Z"/></svg>