<?xml version="1.0" encoding="iso-8859-1"?>
<!-- Generator: Adobe Illustrator 19.0.0, SVG Export Plug-In . SVG Version: 6.00 Build 0)  -->
<svg xmlns="http://www.w3.org/2000/svg" xmlns:xlink="http://www.w3.org/1999/xlink" version="1.1" id="Layer_1" x="0px" y="0px" viewBox="0 0 492.004 492.004" style="enable-background:new 0 0 492.004 492.004;" xml:space="preserve">
<g>
	<g>
		<g>
			<path d="M27.132,269.084C27.408,269.012,26.832,269.084,27.132,269.084L27.132,269.084z"/>
			<path d="M27.132,345.936C26.704,345.936,27.516,346.064,27.132,345.936L27.132,345.936z"/>
			<path d="M484.144,352.252l-90.608-90.048c-10.484-10.416-27.544-10.416-38.028,0l-16.112,16.016     c-5.068,5.036-7.856,11.756-7.856,18.924c0,7.172,2.788,12.932,7.856,17.968l16.52,15.452h-52.812l-86.464-86.452l86.464-86.456     h52.812l-16.52,17.372c-5.068,5.032-7.856,12.228-7.856,19.396c0,7.176,2.788,14.136,7.856,19.172l16.112,16.136     c5.068,5.032,11.812,7.86,19.02,7.86c7.196,0,13.94-2.74,19.008-7.772l90.604-90.032c5.084-5.048,7.876-11.792,7.86-18.976     c0.016-7.2-2.776-13.944-7.86-18.996l-86.832-86.308c-5.06-5.028-11.816-7.796-19.012-7.796s-13.952,2.768-19.012,7.8     l-16.112,16.016c-5.072,5.036-7.856,11.76-7.856,18.932c0,7.164,2.792,12.928,7.856,17.964l13.42,12.376h-69.408     c-10.264,0-19.912,4.952-27.168,12.212l-97.72,98.196l-36.212-36.94c-7.248-7.256-16.9-11.984-27.168-11.984H27.132     C12.844,142.9,0,152.808,0,167.244v22.788c0,14.532,12.712,28.628,27.132,29.1h55.872l24.956,24.976l-24.956,24.976H27.132     C12.7,269.54,0,280.928,0,295.472v22.788c0,14.42,12.864,27.036,27.132,27.676h71.784c10.268,0,19.916-3.056,27.168-10.312     l36.212-35.736l97.724,96.996c7.256,7.256,16.904,10.528,27.168,10.528h69.4l-13.416,14.296     c-5.064,5.032-7.856,12.236-7.856,19.404c0,7.168,2.784,14.128,7.856,19.168l16.112,16.132c5.248,5.216,12.128,7.88,19.012,7.88     c6.884,0,13.772-2.58,19.012-7.784l86.836-86.28c5.084-5.052,7.876-11.796,7.86-18.976     C492.02,364.048,489.228,357.304,484.144,352.252z"/>
			<path d="M27.132,219.132C26.824,219.132,27.416,219.2,27.132,219.132L27.132,219.132z"/>
		</g>
	</g>
</g>
<g>
</g>
<g>
</g>
<g>
</g>
<g>
</g>
<g>
</g>
<g>
</g>
<g>
</g>
<g>
</g>
<g>
</g>
<g>
</g>
<g>
</g>
<g>
</g>
<g>
</g>
<g>
</g>
<g>
</g>
</svg>
