<?xml version="1.0" encoding="UTF-8"?>
<svg width="50px" height="50px" viewBox="0 0 50 50" version="1.1" xmlns="http://www.w3.org/2000/svg" xmlns:xlink="http://www.w3.org/1999/xlink">
    <!-- Generator: Sketch 51.3 (57544) - http://www.bohemiancoding.com/sketch -->
    <title>015-horloge</title>
    <desc>Created with Sketch.</desc>
    <defs></defs>
    <g id="015-horloge" stroke="none" stroke-width="1" fill="none" fill-rule="evenodd">
        <g id="Group" transform="translate(3.995000, 3.995000)" fill="#000000" fill-rule="nonzero">
            <g id="013-horloge">
                <g id="ICONSET-01">
                    <g id="013-horloge">
                        <polygon id="Shape" points="22.105662 20.9265813 30.9221607 30.37323 29.2417607 32.1012413 18.576822 22.618184 18.383576 21.1254287 19.1425567 6.87563667 21.357884 6.87563667"></polygon>
                        <path d="M40.8615647,21.005 C40.8615647,15.7387116 38.7695397,10.6881167 35.0457115,6.96428847 C31.3218833,3.24046025 26.2712884,1.14843533 21.005,1.14843533 C10.0385222,1.14843533 1.14843533,10.0385222 1.14843533,21.005 C1.14843533,31.9714778 10.0385222,40.8615647 21.005,40.8615647 C31.9714778,40.8615647 40.8615647,31.9714778 40.8615647,21.005 Z M42.8615647,21.005 C42.8615647,33.0760473 33.0760473,42.8615647 21.005,42.8615647 C8.93395268,42.8615647 -0.851564667,33.0760473 -0.851564667,21.005 C-0.851564667,8.93395266 8.93395266,-0.851564667 21.005,-0.851564667 C26.8017214,-0.851564667 32.3610241,1.45117394 36.4599251,5.55007491 C40.5588261,9.64897591 42.8615647,15.2082787 42.8615647,21.005 Z" id="Shape-path"></path>
                    </g>
                </g>
            </g>
        </g>
    </g>
</svg>