<svg id="Icons" xmlns="http://www.w3.org/2000/svg" viewBox="0 0 200 200"><title>015-bulle-02</title><path d="M179.44,150.18l-9.11-24.89A74.53,74.53,0,1,0,142,161.75l18.28,7.16a18.87,18.87,0,0,0,6.86,1.39,13.28,13.28,0,0,0,11.1-5.59c1.61-2.28,3.89-7.21,1.21-14.53Zm-12.29,10a8.87,8.87,0,0,1-3.17-.7l-23.49-9.19a64,64,0,1,1,19-25.1l10.43,28.48c1.47,4,.22,6.51-2.79,6.51Z"/><path d="M137.33,100.18A8.23,8.23,0,1,1,129.1,92,8.23,8.23,0,0,1,137.33,100.18Z"/><path d="M107,100.18A8.23,8.23,0,1,1,98.72,92,8.23,8.23,0,0,1,107,100.18Z"/><path d="M76.56,100.18A8.23,8.23,0,1,1,68.34,92,8.22,8.22,0,0,1,76.56,100.18Z"/></svg>