<svg viewBox="0 0 50 50" xmlns="http://www.w3.org/2000/svg"><g transform="translate(2.995 2.995)"><path d="m23.105662 21.9265813 8.8164987 9.4466487-1.6804 1.7280113-10.6649387-9.4830573-.193246-1.4927553.7589807-14.24979203h2.2153273z"/><path d="m41.8615647 22.005c0-5.2662884-2.092025-10.3168833-5.8158532-14.04071153-3.7238282-3.72382822-8.7744231-5.81585314-14.0407115-5.81585314-10.9664778 0-19.85656467 8.89008687-19.85656467 19.85656467s8.89008687 19.8565647 19.85656467 19.8565647 19.8565647-8.8900869 19.8565647-19.8565647zm2 0c0 12.0710473-9.7855174 21.8565647-21.8565647 21.8565647-12.07104732 0-21.85656467-9.7855174-21.85656467-21.8565647 0-12.07104734 9.78551733-21.85656467 21.85656467-21.85656467 5.7967214 0 11.3560241 2.30273861 15.4549251 6.40163958 4.098901 4.09890099 6.4016396 9.65820379 6.4016396 15.45492509z"/></g></svg>