<svg viewBox="0 0 50 50" xmlns="http://www.w3.org/2000/svg"><g transform="translate(2.995 3.802885)"><path d="m43.531635 34.3665298c.7147691 1.9522798.4179945 3.6070746-.4494604 4.8355146-.8773422 1.2358989-2.3096886 1.9572337-3.8179745 1.926411-.758456-.0101437-1.5083211-.1620843-2.1986965-.4431079l-4.4403061-1.7392009c-8.5293716 5.4720268-19.7872837 4.0990876-26.74961643-3.3332554-7.08356874-7.5617633-7.6181693-19.1513726-1.26081114-27.3331332 6.35735817-8.18176064 17.71973557-10.52722879 26.79722557-5.5315923 8.9701791 4.93657976 13.0781927 15.5938079 9.7867979 25.2520194l2.0899734 5.710147zm-4.4588688-6.356161.1229948-.3415741c3.1771004-8.8232629-.5321883-18.64698861-8.7480501-23.16844314-8.2158617-4.52145454-18.499731-2.39861642-24.25365362 5.00653783-5.75392264 7.40515421-5.27006595 17.89468671 1.14113592 24.73869341 6.4112018 6.8440065 16.8468279 8.0111045 24.6115594 2.752504l.4355976-.2950049.4898564.1918693 4.9349166 1.9330251c.4715299.1918769.9747935.2938501 1.4908647.300777.8530685.0174189 1.6594215-.3886634 2.1518897-1.0823906.4840931-.685548.6649788-1.6108768.2594522-2.8324737z"/><path d="m31.2498929 21.2455885c.0054535.8976135-.5310586 1.709879-1.3587854 2.0571662-.8277265.3472871-1.7831952.1610082-2.4198467-.4717753-.6366513-.6327835-.8287492-1.5870993-.4865125-2.4169269.3422367-.8298277 1.1512178-1.3712795 2.0488479-1.3712961 1.2187879-.0000225 2.2088922.9840667 2.2162967 2.2028321z"/><path d="m23.0821795 21.2455885c.0074136 1.2239938-.9788116 2.2222509-2.2028053 2.2296795-1.2239937.0074287-2.222263-.9787842-2.2297067-2.2027778-.0074437-1.2239937.9787569-2.222275 2.2027504-2.2297338.5878018-.0035819 1.1529504.2264918 1.5711142.6396052.4181638.4131135.6550871.975425.6586474 1.5632269z"/><path d="m14.8848436 21.2455885c.0054542.8978585-.531349 1.7102955-1.3594073 2.0574254-.8280583.34713-1.7837399.160357-2.4201801-.4729861-.6364402-.6333432-.8278728-1.5881024-.4847862-2.4178441.3430865-.8297417 1.1528953-1.3705017 2.0507697-1.3694273 1.2183454-.0000144 2.2076752.9845012 2.2136039 2.2028321z"/></g></svg>