<?xml version="1.0" encoding="UTF-8"?>
<svg width="50px" height="50px" viewBox="0 0 50 50" version="1.1" xmlns="http://www.w3.org/2000/svg" xmlns:xlink="http://www.w3.org/1999/xlink">
    <!-- Generator: Sketch 51.3 (57544) - http://www.bohemiancoding.com/sketch -->
    <title>016-bulle</title>
    <desc>Created with Sketch.</desc>
    <defs></defs>
    <g id="016-bulle" stroke="none" stroke-width="1" fill="none" fill-rule="evenodd">
        <g id="Group" transform="translate(3.995000, 4.802885)" fill="#000000" fill-rule="nonzero">
            <g id="015-bulle-02">
                <g id="ICONSET-01">
                    <g id="015-bulle-02">
                        <path d="M42.531635,33.3665298 C43.2464041,35.3188096 42.9496295,36.9736044 42.0821746,38.2020444 C41.2048324,39.4379433 39.772486,40.1592781 38.2642001,40.1284554 C37.5057441,40.1183117 36.755879,39.9663711 36.0655036,39.6853475 L31.6251975,37.9461466 C23.0958259,43.4181734 11.8379138,42.0452342 4.87558107,34.6128912 C-2.20798767,27.0511279 -2.74258823,15.4615186 3.61476993,7.279758 C9.97212809,-0.902002642 21.3345055,-3.24747079 30.4119955,1.7481657 C39.3821746,6.68474546 43.4901882,17.3419736 40.1987934,27.0001851 L42.2887668,32.7103321 L42.531635,33.3665298 Z M38.0727662,27.0103688 L38.195761,26.6687947 C41.3728614,17.8455318 37.6635727,8.02180609 29.4477109,3.50035156 C21.2318492,-1.02110298 10.9479799,1.10173514 5.19405728,8.50688939 C-0.559865361,15.9120436 -0.0760086694,26.4015761 6.3351932,33.2455828 C12.746395,40.0895893 23.1820211,41.2566873 30.9467526,35.9980868 L31.3823502,35.7030819 L31.8722066,35.8949512 L36.8071232,37.8279763 C37.2786531,38.0198532 37.7819167,38.1218264 38.2979879,38.1287533 C39.1510564,38.1461722 39.9574094,37.7400899 40.4498776,37.0463627 C40.9339707,36.3608147 41.1148564,35.4354859 40.7093298,34.213889 L38.0727662,27.0103688 Z" id="Shape"></path>
                        <path d="M30.2498929,20.2455885 C30.2553464,21.143202 29.7188343,21.9554675 28.8911075,22.3027547 C28.063381,22.6500418 27.1079123,22.4637629 26.4712608,21.8309794 C25.8346095,21.1981959 25.6425116,20.2438801 25.9847483,19.4140525 C26.326985,18.5842248 27.1359661,18.042773 28.0335962,18.0427564 C29.2523841,18.0427339 30.2424884,19.0268231 30.2498929,20.2455885 Z" id="Shape"></path>
                        <path d="M22.0821795,20.2455885 C22.0895931,21.4695823 21.1033679,22.4678394 19.8793742,22.475268 C18.6553805,22.4826967 17.6571112,21.4964838 17.6496675,20.2724902 C17.6422238,19.0484965 18.6284244,18.0502152 19.8524179,18.0427564 C20.4402197,18.0391745 21.0053683,18.2692482 21.4235321,18.6823616 C21.8416959,19.0954751 22.0786192,19.6577866 22.0821795,20.2455885 Z" id="Shape"></path>
                        <path d="M13.8848436,20.2455885 C13.8902978,21.143447 13.3534946,21.955884 12.5254363,22.3030139 C11.697378,22.6501439 10.7416964,22.4633709 10.1052562,21.8300278 C9.468816,21.1966846 9.27738343,20.2419254 9.62046997,19.4121837 C9.96355651,18.582442 10.7733653,18.041682 11.6712397,18.0427564 C12.8895851,18.042742 13.8789149,19.0272576 13.8848436,20.2455885 Z" id="Shape"></path>
                    </g>
                </g>
            </g>
        </g>
    </g>
</svg>