<?xml version="1.0" encoding="UTF-8"?>
<svg width="50px" height="50px" viewBox="0 0 50 50" version="1.1" xmlns="http://www.w3.org/2000/svg" xmlns:xlink="http://www.w3.org/1999/xlink">
    <!-- Generator: Sketch 52.2 (67145) - http://www.bohemiancoding.com/sketch -->
    <title>016-bulle</title>
    <desc>Created with Sketch.</desc>
    <g id="016-bulle" stroke="none" stroke-width="1" fill="none" fill-rule="evenodd">
        <g id="Group" transform="translate(2.995000, 3.802885)" fill="#000000" fill-rule="nonzero">
            <g id="015-bulle-02">
                <g id="ICONSET-01">
                    <g id="015-bulle-02">
                        <path d="M43.531635,34.3665298 C44.2464041,36.3188096 43.9496295,37.9736044 43.0821746,39.2020444 C42.2048324,40.4379433 40.772486,41.1592781 39.2642001,41.1284554 C38.5057441,41.1183117 37.755879,40.9663711 37.0655036,40.6853475 L32.6251975,38.9461466 C24.0958259,44.4181734 12.8379138,43.0452342 5.87558107,35.6128912 C-1.20798767,28.0511279 -1.74258823,16.4615186 4.61476993,8.279758 C10.9721281,0.0979973578 22.3345055,-2.24747079 31.4119955,2.7481657 C40.3821746,7.68474546 44.4901882,18.3419736 41.1987934,28.0001851 L43.2887668,33.7103321 L43.531635,34.3665298 Z M39.0727662,28.0103688 L39.195761,27.6687947 C42.3728614,18.8455318 38.6635727,9.02180609 30.4477109,4.50035156 C22.2318492,-0.0211029826 11.9479799,2.10173514 6.19405728,9.50688939 C0.440134639,16.9120436 0.923991331,27.4015761 7.3351932,34.2455828 C13.746395,41.0895893 24.1820211,42.2566873 31.9467526,36.9980868 L32.3823502,36.7030819 L32.8722066,36.8949512 L37.8071232,38.8279763 C38.2786531,39.0198532 38.7819167,39.1218264 39.2979879,39.1287533 C40.1510564,39.1461722 40.9574094,38.7400899 41.4498776,38.0463627 C41.9339707,37.3608147 42.1148564,36.4354859 41.7093298,35.213889 L39.0727662,28.0103688 Z" id="Shape"></path>
                        <path d="M31.2498929,21.2455885 C31.2553464,22.143202 30.7188343,22.9554675 29.8911075,23.3027547 C29.063381,23.6500418 28.1079123,23.4637629 27.4712608,22.8309794 C26.8346095,22.1981959 26.6425116,21.2438801 26.9847483,20.4140525 C27.326985,19.5842248 28.1359661,19.042773 29.0335962,19.0427564 C30.2523841,19.0427339 31.2424884,20.0268231 31.2498929,21.2455885 Z" id="Shape"></path>
                        <path d="M23.0821795,21.2455885 C23.0895931,22.4695823 22.1033679,23.4678394 20.8793742,23.475268 C19.6553805,23.4826967 18.6571112,22.4964838 18.6496675,21.2724902 C18.6422238,20.0484965 19.6284244,19.0502152 20.8524179,19.0427564 C21.4402197,19.0391745 22.0053683,19.2692482 22.4235321,19.6823616 C22.8416959,20.0954751 23.0786192,20.6577866 23.0821795,21.2455885 Z" id="Shape"></path>
                        <path d="M14.8848436,21.2455885 C14.8902978,22.143447 14.3534946,22.955884 13.5254363,23.3030139 C12.697378,23.6501439 11.7416964,23.4633709 11.1052562,22.8300278 C10.468816,22.1966846 10.2773834,21.2419254 10.62047,20.4121837 C10.9635565,19.582442 11.7733653,19.041682 12.6712397,19.0427564 C13.8895851,19.042742 14.8789149,20.0272576 14.8848436,21.2455885 Z" id="Shape"></path>
                    </g>
                </g>
            </g>
        </g>
    </g>
</svg>