<svg id="Icons" xmlns="http://www.w3.org/2000/svg" viewBox="0 0 200 200"><title>017-curseur</title><path d="M58.17,150.85l-8.62-134,100.89,88.68-41.56.81,31.79,64.71L116,183.16,84.21,118.45Z"/><path d="M58.6,150.85q-.84-13.17-1.7-26.36-1.74-27.21-3.5-54.42-1.45-22.71-2.92-45.43-.24-3.9-.5-7.79l-.74.3L69.1,34.6l41,36,34.21,30.07,5.86,5.16.3-.74-40.75.79h-.8a.44.44,0,0,0-.38.65q8.66,17.6,17.29,35.18,7.24,14.78,14.5,29.53c.05-.19.11-.39.16-.59l-24.67,12.12.59.15L99.09,147.77,84.58,118.23a.43.43,0,0,0-.67-.09Q71.15,134,58.38,149.91l-.51.63c-.34.43.27,1,.61.61L84,119.38l.5-.63-.68-.09,17.28,35.18q7.26,14.76,14.51,29.53a.45.45,0,0,0,.59.16l24.67-12.11a.44.44,0,0,0,.15-.59q-8.64-17.6-17.28-35.18-7.24-14.78-14.5-29.54l-.37.65,40.75-.79h.8a.43.43,0,0,0,.3-.74L130.89,87.77l-41-36L55.72,21.69l-5.86-5.16a.44.44,0,0,0-.74.31Q50,30,50.82,43.2q1.76,27.21,3.5,54.42,1.45,22.71,2.93,45.44c.17,2.59.33,5.19.5,7.78,0,.55.9.56.86,0Z"/></svg>