<svg id="Icons" xmlns="http://www.w3.org/2000/svg" viewBox="0 0 200 200"><title>019-depart</title><path d="M100,16.42A60.84,60.84,0,0,0,39.16,77.26c0,51.65,60.84,106.32,60.84,106.32s60.84-54.43,60.84-106.32A60.84,60.84,0,0,0,100,16.42Zm53.76,69a.13.13,0,0,1,0,.06A.13.13,0,0,0,153.76,85.45Zm-107.53,0a.13.13,0,0,1,0-.06A.13.13,0,0,0,46.23,85.49Zm89.54,17.92V119a54.21,54.21,0,0,1-70.82.63V103.4h-13a53.78,53.78,0,0,1-5.67-17.7H64.5v-17H46.57a54,54,0,0,1,6.1-17H64.6V37.1a54.18,54.18,0,0,1,71,.14V51H147a54.16,54.16,0,0,1,6.46,17.66H136.22v17h17.5a53.78,53.78,0,0,1-5.67,17.7H135.77Zm-69-35H87.94v-17H66.78ZM113.16,103h21.17V86H113.16Zm-46.38,0H87.94V86H66.78Zm46.38-34.68h21.17v-17H113.16Zm-2.26-33.7H89.74v17H110.9ZM89.83,120.39H111v-17H89.83Zm0-34.68H111v-17H89.83Z"/></svg>