<?xml version="1.0" encoding="UTF-8"?>
<svg width="50px" height="50px" viewBox="0 0 50 50" version="1.1" xmlns="http://www.w3.org/2000/svg" xmlns:xlink="http://www.w3.org/1999/xlink">
    <!-- Generator: Sketch 52.4 (67378) - http://www.bohemiancoding.com/sketch -->
    <title>019-oeuil</title>
    <desc>Created with Sketch.</desc>
    <g id="019-oeuil" stroke="none" stroke-width="1" fill="none" fill-rule="evenodd">
        <g id="Group" transform="translate(2.995000, 10.746845)" fill="#000000" fill-rule="nonzero">
            <g id="028-oeuil">
                <g id="ICONSET-01">
                    <g id="028-oeuil">
                        <path d="M22.005,0.729424077 C30.8894653,0.729424077 38.878073,5.84873454 42.8377999,13.8077209 L43.0594107,14.2531548 L42.8377999,14.6985887 C38.878073,22.657575 30.8894653,27.7768854 22.005,27.7768854 C13.1205347,27.7768854 5.13192701,22.657575 1.17220005,14.6985887 L0.950589342,14.2531548 L1.17220005,13.8077209 C5.13192701,5.84873454 13.1205347,0.729424077 22.005,0.729424077 Z M22.005,2.72942408 C14.0581636,2.72942408 6.8896449,7.21870374 3.19070744,14.2531548 C6.8896449,21.2876058 14.0581636,25.7768854 22.005,25.7768854 C29.9518364,25.7768854 37.1203551,21.2876058 40.8192926,14.2531548 C37.1203551,7.21870374 29.9518364,2.72942408 22.005,2.72942408 Z" id="Shape-path"></path>
                        <path d="M22,21 C16.4771525,21 12,16.5228475 12,11 C12,5.4771525 16.4771525,1 22,1 C27.5228475,1 32,5.4771525 32,11 C32,16.5228475 27.5228475,21 22,21 Z M18,14 C20.209139,14 22,12.209139 22,10 C22,7.790861 20.209139,6 18,6 C15.790861,6 14,7.790861 14,10 C14,12.209139 15.790861,14 18,14 Z" id="Combined-Shape"></path>
                    </g>
                </g>
            </g>
        </g>
    </g>
</svg>