<?xml version="1.0" encoding="UTF-8"?>
<svg width="50px" height="50px" viewBox="0 0 50 50" version="1.1" xmlns="http://www.w3.org/2000/svg" xmlns:xlink="http://www.w3.org/1999/xlink">
    <!-- Generator: Sketch 51.3 (57544) - http://www.bohemiancoding.com/sketch -->
    <title>019-oeuil</title>
    <desc>Created with Sketch.</desc>
    <defs></defs>
    <g id="019-oeuil" stroke="none" stroke-width="1" fill="none" fill-rule="evenodd">
        <g id="Group" transform="translate(4.995000, 11.746845)" fill="#000000" fill-rule="nonzero">
            <g id="028-oeuil">
                <g id="ICONSET-01">
                    <g id="028-oeuil">
                        <path d="M20.005,-0.270575923 C28.8894653,-0.270575923 36.878073,4.84873454 40.8377999,12.8077209 L41.0594107,13.2531548 L40.8377999,13.6985887 C36.878073,21.657575 28.8894653,26.7768854 20.005,26.7768854 C11.1205347,26.7768854 3.13192701,21.657575 -0.82779995,13.6985887 L-1.04941066,13.2531548 L-0.82779995,12.8077209 C3.13192701,4.84873454 11.1205347,-0.270575923 20.005,-0.270575923 Z M20.005,1.72942408 C12.0581636,1.72942408 4.8896449,6.21870374 1.19070744,13.2531548 C4.8896449,20.2876058 12.0581636,24.7768854 20.005,24.7768854 C27.9518364,24.7768854 35.1203551,20.2876058 38.8192926,13.2531548 C35.1203551,6.21870374 27.9518364,1.72942408 20.005,1.72942408 Z" id="Shape-path"></path>
                        <path d="M20,20 C14.4771525,20 10,15.5228475 10,10 C10,4.4771525 14.4771525,0 20,0 C25.5228475,0 30,4.4771525 30,10 C30,15.5228475 25.5228475,20 20,20 Z M16,13 C18.209139,13 20,11.209139 20,9 C20,6.790861 18.209139,5 16,5 C13.790861,5 12,6.790861 12,9 C12,11.209139 13.790861,13 16,13 Z" id="Combined-Shape"></path>
                    </g>
                </g>
            </g>
        </g>
    </g>
</svg>