<svg viewBox="0 0 50 50" xmlns="http://www.w3.org/2000/svg"><g transform="translate(2.995 10.746845)"><path d="m22.005.72942408c8.8844653 0 16.873073 5.11931046 20.8327999 13.07829682l.2216108.4454339-.2216108.4454339c-3.9597269 7.9589863-11.9483346 13.0782967-20.8327999 13.0782967s-16.87307299-5.1193104-20.83279995-13.0782967l-.22161071-.4454339.22161071-.4454339c3.95972696-7.95898636 11.94833465-13.07829682 20.83279995-13.07829682zm0 2c-7.9468364 0-15.1153551 4.48927966-18.81429256 11.52373072 3.69893746 7.034451 10.86745616 11.5237306 18.81429256 11.5237306s15.1153551-4.4892796 18.8142926-11.5237306c-3.6989375-7.03445106-10.8674562-11.52373072-18.8142926-11.52373072z"/><path d="m22 21c-5.5228475 0-10-4.4771525-10-10s4.4771525-10 10-10 10 4.4771525 10 10-4.4771525 10-10 10zm-4-7c2.209139 0 4-1.790861 4-4s-1.790861-4-4-4-4 1.790861-4 4 1.790861 4 4 4z"/></g></svg>