<?xml version="1.0" encoding="iso-8859-1"?>
<!-- Generator: Adobe Illustrator 19.0.0, SVG Export Plug-In . SVG Version: 6.00 Build 0)  -->
<svg xmlns="http://www.w3.org/2000/svg" xmlns:xlink="http://www.w3.org/1999/xlink" version="1.1" id="Layer_1" x="0px" y="0px" viewBox="0 0 492 492" style="enable-background:new 0 0 492 492;" xml:space="preserve">
<g>
	<g>
		<path d="M484.144,96.23L397.3,9.922c-10.48-10.416-27.544-10.416-38.024,0l-16.12,16.016c-5.068,5.04-7.856,11.764-7.856,18.92    c0,7.172,2.788,13.928,7.856,18.972l13.136,13.08H69.556C31.416,76.91,0,107.878,0,146.022v88.396    c0,14.832,12.556,26.924,27.388,26.924l-0.484,0.032h23.42c14.688,0,26.472-11.86,26.704-26.496    c0.016-0.14-0.168-0.312-0.168-0.456V153.77h279.316l-16.796,16.664c-5.064,5.036-7.86,11.74-7.86,18.916    c0,7.168,2.792,13.888,7.86,18.92l16.12,16.008c10.484,10.416,27.54,10.416,38.024,0l90.62-90.06    c5.084-5.056,7.876-11.808,7.856-18.984C492.02,108.03,489.232,101.282,484.144,96.23z"/>
	</g>
</g>
<g>
	<g>
		<path d="M465.208,230.602L465,230.63h-22.932c-14.692,0-26.72,11.86-26.952,26.496c-0.012,0.14-0.076,0.304-0.076,0.456v80.648    H136.204L153,321.566c5.068-5.036,7.86-11.748,7.86-18.916c0-7.168-2.788-13.888-7.86-18.92l-16.116-16.016    c-10.488-10.416-27.54-10.412-38.024,0.004L8.24,357.782c-5.084,5.056-7.876,11.808-7.856,18.984    c-0.02,7.204,2.768,13.952,7.856,19.004l86.844,86.308c5.244,5.208,12.124,7.812,19.012,7.812s13.772-2.604,19.016-7.812    l16.12-16.016c5.068-5.04,7.86-11.764,7.86-18.928c0-7.172-2.792-13.92-7.86-18.956l-13.136-13.084h286.736    c38.14,0,69.068-30.976,69.068-69.112v-88.396C491.9,242.754,480.04,230.602,465.208,230.602z"/>
	</g>
</g>
<g>
</g>
<g>
</g>
<g>
</g>
<g>
</g>
<g>
</g>
<g>
</g>
<g>
</g>
<g>
</g>
<g>
</g>
<g>
</g>
<g>
</g>
<g>
</g>
<g>
</g>
<g>
</g>
<g>
</g>
</svg>
