<?xml version="1.0" encoding="UTF-8"?>
<svg width="50px" height="50px" viewBox="0 0 50 50" version="1.1" xmlns="http://www.w3.org/2000/svg" xmlns:xlink="http://www.w3.org/1999/xlink">
    <!-- Generator: Sketch 51.3 (57544) - http://www.bohemiancoding.com/sketch -->
    <title>020-photos</title>
    <desc>Created with Sketch.</desc>
    <defs>
        <polygon id="path-1" points="35.125 9 13.25 9 13.25 42.125 0 42.125 0 0 35.125 0"></polygon>
    </defs>
    <g id="020-photos" stroke="none" stroke-width="1" fill="none" fill-rule="evenodd">
        <g id="Group" transform="translate(1.995000, 1.995238)">
            <g id="042-photos-02">
                <g id="ICONSET-01">
                    <g id="042-photos-02">
                        <path d="M12.5025,8.7238625 L12.5025,42.8744917 L44.01,42.8744917 L44.01,8.7238625 L12.5025,8.7238625 Z M42.2960083,35.8066783 L14.2314953,35.8066783 L14.2314953,10.5379253 L42.2960083,10.5379253 L42.2960083,35.8066783 Z" id="Shape" fill="#000000" fill-rule="nonzero"></path>
                        <g id="Shape">
                            <mask id="mask-2" fill="white">
                                <use xlink:href="#path-1"></use>
                            </mask>
                            <g id="Mask" fill-rule="nonzero"></g>
                            <path d="M4.4772129,5.27304107 L4.4772129,39.4236702 L35.9847129,39.4236702 L35.9847129,5.27304107 L4.4772129,5.27304107 Z M34.2707212,32.3558568 L6.20620817,32.3558568 L6.20620817,7.08710387 L34.2707212,7.08710387 L34.2707212,32.3558568 Z" fill="#000000" fill-rule="nonzero" mask="url(#mask-2)" transform="translate(20.230963, 22.348356) rotate(-9.000000) translate(-20.230963, -22.348356) "></path>
                        </g>
                    </g>
                </g>
            </g>
        </g>
    </g>
</svg>