<svg height="50" viewBox="0 0 50 50" width="50" xmlns="http://www.w3.org/2000/svg"><g fill="none" fill-rule="nonzero"><g fill="#000" transform="translate(19 12)"><path d="m9.87122674 21.8228417c-.51627005.1706705-1.05322872.2696444-1.59604302.2941877-.4059469 0-.57095409-.0853144-.62206252-.1220879-.25846259-.1809254-.73012032-.5192412.08177348-2.1666922l1.53617315-3.0889706c.91119017-1.8313183 1.04553227-3.6023281.37674209-4.989423-.54759024-1.1326225-1.59604302-1.91221985-2.9496861-2.1902272-.48407091-.09805762-.97670214-.14684389-1.47046232-.1456229-1.75852185.0151142-3.46071032.626567-4.83193629 1.7357073-.27516746.2442195-.34055422.6503254-.15611979.9696332.18443444.3193078.56723339.4627316.91398469.3424438.51566158-.1710938 1.05219641-.2700802 1.59458278-.2941877.40448666 0 .56657337.0853145.61768179.120617.25846259.1823963.740342.525125-.078853 2.1681632l-1.53471291 3.0919124c-.9126504 1.8342602-1.0455323 3.60527-.37674209 4.989423.54613 1.1340935 1.59312254 1.9122199 2.9496861 2.1902272.48080976.096953.96989289.1462197 1.46024064.1470939 1.76024428-.0160097 3.46367617-.6296126 4.83485678-1.7415911.2753791-.2436777.3414587-.649406.1578087-.9689437-.1836501-.3195377-.5658497-.4638347-.91275312-.3446042z"/><path d="m12.4222671 3.99506863c0 2.13573869-1.7187666 3.86709699-3.83897261 3.86709699-2.12020605 0-3.83897265-1.7313583-3.83897265-3.86709699 0-2.1357387 1.7187666-3.86709699 3.83897265-3.86709699 2.12020601 0 3.83897261 1.73135829 3.83897261 3.86709699z"/></g><path d="m45.8565647 25c0 11.5187625-9.3378022 20.8565647-20.8565647 20.8565647-11.5187626 0-20.85656467-9.3378022-20.85656467-20.8565647 0-11.5187626 9.33780207-20.85656467 20.85656467-20.85656467 5.5315049 0 10.8364537 2.19738176 14.7478183 6.10874637 3.9113646 3.9113646 6.1087464 9.2163134 6.1087464 14.7478183z" stroke="#000" stroke-width="2"/></g></svg>