<svg version="1.1" xmlns="http://www.w3.org/2000/svg" xmlns:xlink="http://www.w3.org/1999/xlink" x="0px" y="0px" viewBox="0 0 50 50" enable-background="new 0 0 50 50" xml:space="preserve"><path d="M28.9,33.8c-0.5,0.2-1.1,0.3-1.6,0.3c-0.4,0-0.6-0.1-0.6-0.1c-0.3-0.2-0.7-0.5,0.1-2.2l1.5-3.1c0.9-1.8,1-3.6,0.4-5
	c-0.5-1.1-1.6-1.9-2.9-2.2c-0.5-0.1-1-0.1-1.5-0.1c-1.8,0-3.5,0.6-4.8,1.7c-0.3,0.2-0.3,0.7-0.2,1c0.2,0.3,0.6,0.5,0.9,0.3
	c0.5-0.2,1.1-0.3,1.6-0.3c0.4,0,0.6,0.1,0.6,0.1c0.3,0.2,0.7,0.5-0.1,2.2l-1.5,3.1c-0.9,1.8-1,3.6-0.4,5c0.5,1.1,1.6,1.9,2.9,2.2
	c0.5,0.1,1,0.1,1.5,0.1c1.8,0,3.5-0.6,4.8-1.7c0.3-0.2,0.3-0.6,0.2-1C29.6,33.8,29.2,33.7,28.9,33.8L28.9,33.8z M31.4,16
	c0,2.1-1.7,3.9-3.8,3.9s-3.8-1.7-3.8-3.9s1.7-3.9,3.8-3.9S31.4,13.9,31.4,16z M25,46.9C12.9,46.9,3.1,37.1,3.1,25S12.9,3.1,25,3.1
	c5.8,0,11.3,2.3,15.5,6.4c4.1,4.1,6.4,9.6,6.4,15.5C46.9,37.1,37.1,46.9,25,46.9z M25,5.1C14.1,5.1,5.1,14.1,5.1,25
	c0,10.9,8.9,19.9,19.9,19.9c10.9,0,19.9-8.9,19.9-19.9c0-5.3-2.1-10.3-5.8-14C35.3,7.2,30.3,5.1,25,5.1z"/></svg>