<svg viewBox="0 0 50 50" xmlns="http://www.w3.org/2000/svg"><g transform="translate(3.995 12.997143)"><path d="m30.0071429 10.0014286c0-2.97387323 1.1194065-4.98870908 2.9862365-6.10875376 1.1192997-.67154783 2.2249873-.89267484 3.015192-.89267484v2c-.0941855 0-.303116.01790748-.585366.07435479-.4802518.09604578-.9597047.2686406-1.4008705.53332751-1.2590629.75540175-2.015192 2.11636947-2.015192 4.3937463v9.1643838l-.0512942.153919c-.1611206.4834771-.4953587 1.1520594-1.0555439 1.8243456-.9591455 1.1510842-2.2591508 1.8602087-3.8938762 1.8602087-1.6347255 0-2.9347308-.7091245-3.8938763-1.8602087-.5601851-.6722862-.8944232-1.3408685-1.0555439-1.8243456l-.0512941-.153919v-9.1643838l.0135997-.16436094c.0040908-.02455033.0127287-.08935093.0221413-.18820941.0699547-.73471798.019288-1.57033417-.2345916-2.33188233-.4914491-1.47417191-1.6152212-2.31697592-3.802578-2.31697592-2.1873567 0-3.3111289.84280401-3.802578 2.31697592-.2538796.76154816-.3045463 1.59716435-.2345916 2.33188233.0094126.09885848.0180506.16365908.0221413.18820941l.0135997.16436094v9.1643838l-.0512941.153919c-.1611206.4834771-.4953587 1.1520594-1.0555439 1.8243456-.9591455 1.1510842-2.2591508 1.8602087-3.89387624 1.8602087-1.63472545 0-2.93473073-.7091245-3.89387626-1.8602087-.56018515-.6722862-.89442325-1.3408685-1.05554391-1.8243456l-.05129412-.153919v-9.1643838l.01359973-.16436094c.00409075-.02455033.01272867-.08935093.02214128-.18820941.0699547-.73471798.01928801-1.57033417-.23459159-2.33188233-.49144912-1.47417191-1.61522123-2.31697592-3.80257799-2.31697592v-2c3.06389324 0 4.9409247 1.40773171 5.69992201 3.68445265.35574094 1.06709582.42234824 2.16561119.32824323 3.15397426-.00894656.09396364-.01820873.17315849-.02673667.23614839v8.7423519c.02453756.0567074.05697899.1271106.09759174.208349.14318799.2864214.32513493.5737421.54574881.8385039.60357767.7243622 1.36647419 1.1405056 2.35737374 1.1405056s1.75379604-.4161434 2.35737374-1.1405056c.2206139-.2647618.4025608-.5520825.5457488-.8385039.0406128-.0812384.0730542-.1516416.0975917-.208349v-8.7423519c-.0085279-.0629899-.0177901-.14218475-.0267366-.23614839-.094105-.98836307-.0274977-2.08687844.3282432-3.15397426.7589973-2.27672094 2.6360288-3.68445265 5.699922-3.68445265 3.0638933 0 4.9409247 1.40773171 5.699922 3.68445265.355741 1.06709582.4223483 2.16561119.3282433 3.15397426-.0089466.09396364-.0182088.17315849-.0267367.23614839v8.7423519c.0245375.0567074.056979.1271106.0975917.208349.143188.2864214.325135.5737421.5457488.8385039.6035777.7243622 1.3664742 1.1405056 2.3573738 1.1405056.9908995 0 1.753796-.4161434 2.3573737-1.1405056.2206139-.2647618.4025608-.5520825.5457488-.8385039.0406128-.0812384.0730542-.1516416.0975918-.208349z"/><path d="m34.7503061 1.25469388 4.3165096 5.99142857 4.1843067-5.99142857z" transform="matrix(0 -1 1 0 34.750306 43.251122)"/></g></svg>