<svg viewBox="0 0 50 50" xmlns="http://www.w3.org/2000/svg"><g transform="translate(4.489235 3.995)"><path d="m20.5107647 10.3468159c-5.6466382 0-10.2257282 4.3863382-10.2257282 9.7957435 0 6.4250588 4.4629447 8.0634488 4.4629447 11.8023388 0 .92422.7042853 1.7841894 1.7668912 2.4143394-.1990205.1375092-.3259686.3569479-.3459648.5980248 0 .2841852.2248771.5510723.6079095.7808917-.3607918.2224059-.5708418.4794083-.5708418.75618 0 .2767718.2149923.5387165.5831976.7635935-.37809.2248771-.5955535.4942353-.5955535.7710071 0 .3410224.3237241.6573329.8649118.9118641-.1936616.1509489-.3133228.3776754-.3286665.6227365 0 .6548618 1.0181247 1.2108765 2.4514071 1.4332823.2782342.4883621.7970867.7899086 1.359147.7899086s1.0809128-.3015465 1.3591471-.7899086c1.4481094-.2199347 2.4711765-.7784205 2.4711765-1.4357535-.0133938-.2418226-.1304882-.4661037-.321253-.6153229.5510724-.2471177.8846812-.5757841.8846812-.9217488 0-.279243-.2149924-.5387165-.5831977-.7635936.3756189-.2273482.5955536-.4942353.5955536-.7685359 0-.2743005-.2273483-.5510723-.6103806-.7808917.3632629-.2224059.5708417-.4794083.5708417-.75618-.0224148-.2518354-.1590169-.4795056-.3706764-.6177941 1.0428364-.63015 1.7298235-1.4827059 1.7298235-2.3970412 0-3.73889 4.4481177-5.37728 4.4481177-11.8023388 0-5.4094053-4.5766189-9.7957436-10.2257283-9.7957436zm3.4809409 21.8426584c-.391538.4387448-1.796632 1.1523992-3.4766356 1.1523992s-3.0850976-.7136544-3.4766356-1.1523992c-.0805291-2.6130304-1.3884328-3.5124064-2.5241707-5.1951869-1.280135-1.8716074-2.499179-3.6432476-2.499179-6.8116511 0-4.4096624 3.8043057-8.0001495 8.4833241-8.0001495s8.4833242 3.5904871 8.4833242 8.0001495c0 3.1684035-1.2051597 4.9400437-2.4825178 6.814428-1.1329611 1.6827805-2.4269805 2.5793796-2.5075096 5.19241z"/><path d="m20.5107647 6.91929412c.7413529 0 1.3369065-.79571883 1.3369065-1.76936236v-3.15816352c0-.97364353-.6029671-1.76936236-1.3369065-1.76936236s-1.3369065.79571883-1.3369065 1.76936236v3.15075c0 .9761147.5955536 1.77677588 1.3369065 1.77677588z"/><path d="m13.65325 8.75043588c.6375635-.36820529.7611224-1.35914706.2743006-2.19934706l-1.5716682-2.73065c-.4942353-.84267117-1.4085706-1.23558823-2.043663-.86491176-.63509234.37067647-.76112234 1.35914706-.2767718 2.20181823l1.5766106 2.71829412c.4942353.84514235 1.4060994 1.23558824 2.043663.86491177z"/><path d="m7.77185 11.7257324-2.71829412-1.5766106c-.85255588-.48435062-1.84102647-.36326298-2.21170294.2743006-.37067647.6375635.01976941 1.5568411.86491177 2.0436629l2.71829411 1.5741394c.84267118.4942353 1.83361294.3632629 2.19934706-.2743006s-.0098847-1.55437-.85255588-2.0411917z"/><path d="m37.3147647 28.7842635-2.7182941-1.5766106c-.8426712-.4942353-1.833613-.3632629-2.1993471.2743006-.3657341.6375636.0197694 1.5568412.8624406 2.043663l2.7182941 1.5741394c.8426712.4942353 1.833613.3632629 2.2018183-.2743006s-.0197694-1.55437-.8649118-2.0411918z"/><path d="m6.79820647 20.6244388c0-.7413529-.79571882-1.3369064-1.76936235-1.3369064h-3.15322118c-.97117235 0-1.76689117.602967-1.76689117 1.3369064s.79571882 1.3393777 1.76689117 1.3393777h3.15322118c.97364353 0 1.76936235-.6029671 1.76936235-1.3393777z"/><path d="m39.1459065 19.2875324h-3.1532212c-.9736435 0-1.7693624.6004958-1.7693624 1.3369064s.7957189 1.3369065 1.7693624 1.3369065h3.1532212c.9711723 0 1.7668911-.6029671 1.7668911-1.3369065s-.7957188-1.3369064-1.7668911-1.3369064z"/><path d="m6.42505882 27.2076529-2.71829411 1.5741395c-.84267118.4942352-1.23558824 1.4060994-.86491177 2.0436629s1.35914706.7586512 2.20181824.2743006l2.71829411-1.5766106c.84267118-.4942353 1.23558824-1.4060994.86244059-2.0411918-.37314764-.6350923-1.34926235-.7611223-2.19934706-.2743006z"/><path d="m34.5964706 14.0436959 2.7182941-1.5766106c.8426712-.4942353 1.2355882-1.4060994.8649118-2.0411918-.3706765-.63509232-1.3591471-.76112232-2.2018183-.2743006l-2.7182941 1.5741395c-.8426712.4942352-1.2355882 1.4060994-.8624406 2.0436629.3731477.6375635 1.3492624.7586512 2.1993471.2743006z"/><path d="m30.7117812 2.96541176c-.6375636-.36573411-1.5568412.02224059-2.043663.86491177l-1.5766106 2.71829412c-.4942352.84267117-.3632629 1.83114176.2743006 2.19934706.6375636.36820529 1.5568412-.01976942 2.043663-.86491177l1.5766106-2.71829412c.4942353-.84267117.3607917-1.83361294-.2767718-2.20181823z"/></g></svg>