<?xml version="1.0" encoding="UTF-8"?>
<svg width="50px" height="50px" viewBox="0 0 50 50" version="1.1" xmlns="http://www.w3.org/2000/svg" xmlns:xlink="http://www.w3.org/1999/xlink">
    <!-- Generator: Sketch 52.2 (67145) - http://www.bohemiancoding.com/sketch -->
    <title>024-loupe</title>
    <desc>Created with Sketch.</desc>
    <g id="024-loupe" stroke="none" stroke-width="1" fill="none" fill-rule="evenodd">
        <path d="M29,37 C20.163444,37 13,29.836556 13,21 C13,12.163444 20.163444,5 29,5 C37.836556,5 45,12.163444 45,21 C45,29.836556 37.836556,37 29,37 Z M29,35 C36.7319865,35 43,28.7319865 43,21 C43,13.2680135 36.7319865,7 29,7 C21.2680135,7 15,13.2680135 15,21 C15,28.7319865 21.2680135,35 29,35 Z" id="Oval" fill="#000000" fill-rule="nonzero"></path>
        <polygon id="Line-4" fill="#000000" fill-rule="nonzero" points="18 30.5857864 19.4142136 32 7.45463898 43.9595746 6.04042542 42.545361"></polygon>
    </g>
</svg>