<svg id="Icons" xmlns="http://www.w3.org/2000/svg" viewBox="0 0 200 200"><title>024-photos</title><path d="M136.62,18.48h4.59c10.08,1.74,12.23,17,15.81,27,8.83,24.79,19,53.08,27,76.51v3.06c-2.31,11.07-14.3,12.47-25.5,16.32-7.19,2.47-13.87,5.32-19.38,6.63-1.21,9.89,1.85,17.7-.51,25-3.49,10.75-20.83,8.16-34.68,8.16H49.41c-7.65,0-21.56,1.24-26.52-1-9.12-4.15-6.63-19.48-6.63-33.66V91.42c0-17.54-3-37.22,17.85-33.15,2.51-2.71,4.85-5.11,8.17-6.63C55.92,45.38,73,40.89,89.2,35.32c16.07-5.52,33.72-12.06,47.43-16.83ZM64.19,58.26c21.92,2,46.86-2.74,65.8,0,15.68,2.27,6.86,33.27,9.18,50,8.14-2.23,15.25-5.49,23.46-7.65-8.09-23-15.6-46.62-24.48-68.85-24.34,9.14-50.08,16.9-73.95,26.52ZM29,72.54V141.9h96.91c1.18-22.61.17-47.43.51-70.89H29.51C28.92,71.1,29,71.82,29,72.54Zm138.22,40.29c-9.85,2.56-18.35,6.48-28.06,9.18v12.25C150,131,160,126.84,170.78,123.55c-1.21-3.56-2.54-7-3.57-10.71ZM29,168.43h96.91c1.14-3.63.21-9.32.51-13.77H29.51C28.33,158.23,29.34,164,29,168.43Z"/></svg>