<svg id="Icons" xmlns="http://www.w3.org/2000/svg" viewBox="0 0 200 200"><title>025-epis</title><path d="M137.18,75.2c1.48-1.47,1.21-4.13-.58-5.93s-4.46-2.06-5.94-.58l-24,24V74.48l30.54-30.54c1.48-1.47,1.21-4.14-.58-5.93s-4.46-2.06-5.94-.58l-24,24V24.87c0-4.67-3-8.45-6.8-8.45S93,20.21,93,24.87V61.14L69.34,37.43C67.86,36,65.2,36.21,63.4,38s-2.06,4.46-.58,5.94L93,74.17V92.4L69.34,68.69c-1.48-1.47-4.14-1.21-5.94.58s-2.06,4.46-.58,5.94L93,105.43v18.73l-23.7-23.7C67.86,99,65.2,99.24,63.4,101s-2.06,4.45-.58,5.93L93,137.2v37.93c0,4.66,3,8.45,6.8,8.45s6.8-3.79,6.8-8.45V137.52L137.18,107c1.48-1.48,1.21-4.14-.58-5.94s-4.46-2.06-5.94-.58l-24,24V105.75l30.53-30.54Z"/></svg>