<svg viewBox="0 0 50 50" xmlns="http://www.w3.org/2000/svg"><path d="m18.8911844 30.5829402c.3338891-.4399278.9611917-.5258891 1.4011195-.192.4399278.3338892.5258892.9611917.192 1.4011196-3.5300902 4.6511992-5.5126727 7.2806216-5.9205704 7.8516784-.4222985.5912178-.317266 1.5352805.3928204 2.0425795.6256891.4470039 1.2324507.2623268 1.7752248-.3890021.3790019-.4548023 1.950587-2.7807481 4.6197944-6.8461565.3031165-.4616696.9230981-.5902024 1.3847678-.287086.4616696.3031165.5902024.9230981.287086 1.3847678-2.7474592 4.1845916-4.3008742 6.4836458-4.7552056 7.0288435-1.1410706 1.3692847-2.8568667 1.8915131-4.474287.7359979-1.6506578-1.1792606-1.8954499-3.3795254-.8576678-4.8324205.4254356-.5956099 2.4013492-3.2161874 5.9549179-7.8983216z"/><path d="m17.9813805 24.7694197c-.7265889-.0057699-1.5262799-.1299786-2.3149133-.4461991-.6457391-.2589238-1.2218683-.6310525-1.7011943-1.1315646-1.0272568-1.0726614-3.5325668-4.600973-7.60909252-10.6983614-.30695691-.4591251-.18360018-1.0801573.27552497-1.3871142s1.08015736-.1836002 1.38711427.275525c3.98787898 5.9647966 6.48256898 9.4781517 7.39090748 10.4266386.2716929.2837017.6080269.5009438 1.0010779.6585466.6424212.2575934 1.3428452.3291852 1.9147517.2937625.4322696-.0463234.7948823.121082 1.0031778.4298225l12.1911061 18.0699493c.7391456.4254446 1.2978642.3950164 1.8638511-.0479299.5592747-.4376932.6744226-.8731449.3780887-1.5686382l-13.1755022-16.9041065c-.1727587-.2216486-.244281-.5057598-.197059-.7827865.379934-2.2288754.2757766-3.6267959-.1447626-4.1226594-.7017915-.8274918-3.033712-4.0721952-7.0636484-9.82318039-.3169387-.45229233-.2072128-1.07587723.2450795-1.39281586.4522923-.31693862 1.0758772-.20721277 1.3928159.24507956 3.970389 5.66600699 6.3100396 8.92146639 6.9510648 9.67730789.8727203 1.0290363 1.0459592 2.780029.6618182 5.3132233l12.9823793 16.6563308c.0466718.0598796.0863727.1248794.1183355.1937431.7334095 1.5801259.4156217 3.0413788-.9159931 4.0835122-1.3089314 1.0243811-2.8345763 1.0243811-4.3445659.0536735-.1142155-.0734243-.2122818-.1693392-.288221-.2818982z"/><path d="m9.67215971 9.93596386c-.30981179-.45720356-.19032714-1.07899236.26687643-1.38880415.45720356-.30981179 1.07899236-.19032714 1.38880416.26687643l6.4372558 9.49975586c.3098118.4572036.1903272 1.0789924-.2668764 1.3888041-.4572035.3098118-1.0789923.1903272-1.3888041-.2668764z"/><path d="m23.558012 15.0888018c-.5502334-.0475571-.957733-.5321621-.9101759-1.0823954.0475571-.5502334.5321621-.957733 1.0823955-.9101759.0586857.0050723.1934291-.044604.4082417-.2064769.3071607-.2314622.6700191-.6245471 1.073757-1.1772521l.0742744-.1016794.0971628-.0800924c2.0002499-1.6488284 5.0471451-2.61481961 8.3274858-2.61481961 5.8028364 0 10.6338737 3.00878181 10.6338737 7.00000001s-4.8310373 7-10.6338737 7c-3.1333887 0-6.0564912-.8809862-8.0591877-2.4025297-.4588127-.3485817-.8179653-.6597916-1.1759472-1.0044496-.0949477-.0914138-.3791504-.3719899-.3491885-.3426439-.1019466-.0998508-.1682423-.1613953-.2254605-.2089873-.1596654-.1328035-.2873172-.18296-.683805-.2303049-.5483889-.0654835-.939861-.5631254-.8743775-1.1115143s.5631254-.939861 1.1115143-.8743775c.7603694.0907963 1.2504743.2833665 1.7256102.6785663-.0587655-.0488789 1.0635135 1.0316295 1.6815657 1.5011931 1.6351939 1.2423343 4.132689 1.9950478 6.8492762 1.9950478 4.8384466 0 8.6338737-2.3638012 8.6338737-5s-3.7954271-5-8.6338737-5c-2.7861596 0-5.3379087.7923672-6.9627793 2.0831792-1.0737183 1.4398506-2.0914005 2.1846967-3.190362 2.0897125z" transform="matrix(.60181502 -.79863551 .79863551 .60181502 .564688 32.964408)"/></svg>