<svg id="Icons" xmlns="http://www.w3.org/2000/svg" viewBox="0 0 200 200"><title>027-agenda</title><path d="M161.13,29.52H143.36V16.62H131.6v12.9H105.88V16.62H94.12v12.9H68.4V16.62H56.64v12.9H38.87a15.81,15.81,0,0,0-15.8,15.8V167.58a15.81,15.81,0,0,0,15.8,15.8H161.13a15.81,15.81,0,0,0,15.8-15.8V45.32A15.81,15.81,0,0,0,161.13,29.52ZM38.87,41.28H56.64V58.14H68.4V41.28H94.12V58.14h11.76V41.28H131.6V58.14h11.76V41.28h17.77a4,4,0,0,1,4,4V82.43H34.83V45.32A4,4,0,0,1,38.87,41.28ZM161.13,171.62H38.87a4,4,0,0,1-4-4V94.19H165.17v73.39A4,4,0,0,1,161.13,171.62Z"/></svg>