<svg id="Icons" xmlns="http://www.w3.org/2000/svg" viewBox="0 0 200 200"><title>028-oeuil</title><path d="M100,47.81C63.58,47.81,32,69,16.5,100,32,131,63.58,152.19,100,152.19S168,131,183.5,100C168,69,136.42,47.81,100,47.81Zm41.17,27.68A79.28,79.28,0,0,1,165.54,100a79.28,79.28,0,0,1-24.37,24.51,76.52,76.52,0,0,1-82.34,0A79.28,79.28,0,0,1,34.46,100,79.28,79.28,0,0,1,58.83,75.49c.64-.41,1.28-.81,1.94-1.19a41.75,41.75,0,1,0,78.46,0C139.88,74.68,140.53,75.08,141.17,75.49ZM100,83.37A15.66,15.66,0,1,1,84.34,67.71,15.65,15.65,0,0,1,100,83.37Z"/></svg>