<svg viewBox="0 0 50 50" xmlns="http://www.w3.org/2000/svg"><path d="m43.2124847 14.9989598c.4301177.4358642.6722995 1.0243002.6722995 1.6385125 0 .6374128-.2608231 1.2470653-.7053054 1.6710863l-8.1424585 8.1421249c-.2118381.2028301-.4109878.4183313-.59637.6452677l1.974796 11.8463854c.2038578.5527556.0714737 1.1280851-.2255544 1.7162547-.3060324.5719743-.8309652.9953675-1.4547658 1.1733651-.6238008.1779977-1.2931218.0953772-1.8181465-.2087584l-6.0691909-3.1723473-4.1480476-2.2148499c-.2504916-.1400632-.5130012-.2568823-.7842224-.3491375l-10.9535402 5.7445228c-.5815752.2907876-1.16584026.4199812-1.72895178.1951174-1.16949891-.310475-1.86556267-1.6161546-1.63070046-2.7657465l1.10250101-6.7647912.84297748-4.7548362c.05883927-.2325919.09475661-.47008.10741319-.7090699l-8.89359803-8.6284772c-.35662626-.3008159-.57522057-.7340239-.60557123-1.1992009-.16105178-1.1613616.50822201-2.283128 1.61426504-2.6896092.07243393-.0266201.14770582-.0447662.22431284-.054076l6.72447959-.8168914 4.63310685-.6789201c.1653858-.0330172.3238294-.0725332.4827104-.1190455.1567423-.0458861.1163631-.0323344.5187928-.1705467.0606572-.0208324.1140314-.0388463.1623271-.0543305l5.3325047-11.16238234c.3967145-.67966502 1.1013962-1.12169258 1.9639062-1.1860626l.1933822.00334166c.9209155-.07547555 1.7819042.46337455 2.0787991 1.23946139l3.0366206 6.07093546 2.0599909 4.25982073c.1336085.267703.4091957.7133698.5840086.9877285l12.2496451 1.7676355c.4638225.0278927.8964281.2437713 1.197584.5975193zm-1.5020637 1.3185244-.0295186-.0327828c.009067.011741.0189431.0226869.0295186.0327828zm-13.2916819-1.8572673c-.7980656-.1151616-1.0091577-.884989-.7590972-1.4331655-.1006389-.1727857-.1981699-.3482636-.2733992-.4990429l-2.0595925-4.25902346-3.0684779-6.14412791c-.0140671-.03620358-.0502588-.05885414-.1706527-.05233987l-.1971354-.00304117c-.1308541.01022858-.2483826.08395099-.2757586.12403499l-5.7863774 12.12038512c-.3454795.7236557-1.146887.7007527-1.5954775.2974634-.162311.0435751-.3340134.0835392-.5395179.123567l-4.70824186.6909675-6.60231121.8023557c-.17793618.1025502-.27798269.3066023-.24354499.5149903l9.21197156 8.9475845c.1819928.1765675.2901133.4156791.3024816.6689468.0274684.562473-.0287727 1.1259061-.1516012 1.6006301l-.825458 4.6704308-1.1073527 6.790307c-.04197478.2061262.09703081.4563867.17895585.4727717.16975402.0146893.24338873-.0133486.30215185-.0425456l11.2951887-5.9239101c.2188178-.1147619.4723754-.1444496.7117852-.0833393.5652655.1442863 1.1093495.3615249 1.6014802.6369178l4.1232352 2.2014319 6.0982099 3.1884651c.0927196.0535309.2031861.0671668.3061398.0377896s.1895901-.0992552.2290112-.1723205c.0424958-.0842326.0744892-.1704382.0866107-.230609-.0018688.0092769.0008308.0610662.0518082.1630209-.0445755-.0891509-.0755719-.1844652-.0919613-.2827823l-2.0654917-12.3904494c-.0440702-.2643678.0198259-.5353616.177356-.7521952.3224377-.443822.6839385-.8579048 1.0646549-1.2221054l8.1434703-8.1430923c.0657722-.0627991.1029832-.1497767.1029832-.2407149 0-.0909381-.037211-.1779157-.1029832-.2407149zm-26.37593585 2.2078304.02313634.0201475c-.00730818-.0070906-.01502527-.013818-.02313634-.0201475z" transform="translate(2.995 3.995238)"/></svg>