<svg id="Icons" xmlns="http://www.w3.org/2000/svg" viewBox="0 0 200 200"><title>030-filtre</title><path d="M100,16.42c-46.16,0-83.58,11.7-83.58,26.12V58.21l62.69,62.68v52.24c0,5.77,9.35,10.45,20.89,10.45s20.89-4.68,20.89-10.45V120.89l62.69-62.68V42.54C183.58,28.12,146.16,16.42,100,16.42ZM31.83,39.08A70.9,70.9,0,0,1,47.71,33C62.07,29,80.64,26.87,100,26.87S137.94,29,152.3,33a71.88,71.88,0,0,1,15.88,6.12,18,18,0,0,1,4.62,3.46A18.48,18.48,0,0,1,168.18,46a70.93,70.93,0,0,1-15.88,6.11C138,56,119.37,58.21,100,58.21s-37.94-2.16-52.3-6.1A71.42,71.42,0,0,1,31.83,46a18.23,18.23,0,0,1-4.62-3.46A18.43,18.43,0,0,1,31.83,39.08Z"/></svg>