<svg viewBox="0 0 50 50" xmlns="http://www.w3.org/2000/svg"><path d="m21.9918875 36.9016885c.5937411.0039508 1.1546847-.2268094 1.5680826-.6417722l14.5617822-14.5591178c3.0607864-2.7062776 4.3942319-6.8711153 3.4744102-10.8518538-.9198216-3.98073876-3.9452577-7.13837799-7.883042-8.22750922-3.9377844-1.08913123-8.1558117.06507624-10.9904443 3.00738998l-.7225075.74995391-.720067-.75229749c-2.8313128-2.95804357-7.0573658-4.12406819-11.0049416-3.03641081-3.94757591 1.08765737-6.98006352 4.2535942-7.89681283 8.24432403-.91674931 3.9907298.4300805 8.1626822 3.55479914 10.9086378l14.51097459 14.5184353c.4097286.4115291.967051.6420607 1.5477665.6402203zm-2.9637102.7722597-14.46204894-14.4724872c-3.62970372-3.1864449-5.21837425-8.1075253-4.13701074-12.8148424 1.08136351-4.70731699 4.65837352-8.44173876 9.31478774-9.72469909 4.33251074-1.1937167 8.94939334-.08604546 12.26086584 2.88437157 3.3133152-2.95268677 7.9204489-4.04762073 12.2415017-2.85248327 4.6448646 1.28469884 8.2135568 5.00933307 9.2985443 9.70486489 1.0849876 4.6955318-.4878952 9.60822-4.0535684 12.7583921l-14.5157284 14.5157258c-.7894807.7924741-1.8637893 1.2351109-2.982247 1.2289006-1.1130786.0022088-2.1810253-.4402241-2.9650961-1.227743z" transform="translate(2.995 5.480799)"/></svg>