<?xml version="1.0" encoding="UTF-8"?>
<svg width="50px" height="50px" viewBox="0 0 50 50" version="1.1" xmlns="http://www.w3.org/2000/svg" xmlns:xlink="http://www.w3.org/1999/xlink">
    <!-- Generator: Sketch 52.4 (67378) - http://www.bohemiancoding.com/sketch -->
    <title>032-coeur-contour</title>
    <desc>Created with Sketch.</desc>
    <g id="032-coeur-contour" stroke="none" stroke-width="1" fill="none" fill-rule="evenodd">
        <g id="Group" transform="translate(2.995000, 5.480799)" fill="#000000" fill-rule="nonzero">
            <g id="133-coeur-contour">
                <g id="ICONSET-01">
                    <g id="133-coeur-contour">
                        <path d="M21.9918875,36.9016885 C22.5856286,36.9056393 23.1465722,36.6748791 23.5599701,36.2599163 L38.1217523,21.7007985 C41.1825387,18.9945209 42.5159842,14.8296832 41.5961625,10.8489447 C40.6763409,6.86820594 37.6509048,3.71056671 33.7131205,2.62143548 C29.7753361,1.53230425 25.5573088,2.68651172 22.7226762,5.62882546 L22.0001687,6.37877937 L21.2801017,5.62648188 C18.4487889,2.66843831 14.2227359,1.50241369 10.2751601,2.59007107 C6.32758419,3.67772844 3.29509658,6.84366527 2.37834727,10.8343951 C1.46159796,14.8251249 2.80842777,18.9970773 5.93314641,21.7430329 L20.444121,36.2614682 C20.8538496,36.6729973 21.411172,36.9035289 21.9918875,36.9016885 Z M19.0281773,37.6739482 L4.56612836,23.201461 C0.936424641,20.0150161 -0.652245893,15.0939357 0.429117619,10.3866186 C1.51048113,5.67930161 5.08749114,1.94487984 9.74390536,0.661919506 C14.0764161,-0.531797189 18.6932987,0.575874049 22.0047712,3.54629108 C25.3180864,0.593604305 29.9252201,-0.501329647 34.2462729,0.693807811 C38.8911375,1.97850665 42.4598297,5.70314088 43.5448172,10.3986727 C44.6298048,15.0942045 43.056922,20.0068927 39.4912488,23.1570648 L24.9755204,37.6727906 C24.1860397,38.4652647 23.1117311,38.9079015 21.9932734,38.9016912 C20.8801948,38.9039 19.8122481,38.4614671 19.0281773,37.6739482 Z" id="Shape"></path>
                    </g>
                </g>
            </g>
        </g>
    </g>
</svg>