<svg id="Icons" xmlns="http://www.w3.org/2000/svg" viewBox="0 0 200 200"><title>032-fleur</title><path d="M125.15,55.56c3.75-.37,7.81-4.59,12.11-5.38,32.53-6,40.7,41.45,14.14,49.8,4.38,3.47,8.91,5,12.12,9.43,16.45,22.64-14,54.41-38.37,35,6.92,39.07-57.72,40-50.47,0-4.25.43-6.28,3.67-10.09,4.7-33.19,9-45.28-39.76-16.83-48.46C22.19,91,28.63,44.15,62.57,50.18c4.57.81,7.52,3.92,12.12,6.06C67.13,15.88,132,16,125.16,55.56ZM112.37,42.1c-4.56-6.69-16.78-8.54-23.56-2-12.57,12.11,4.37,33.07,2,43.75-6.27,1.9-9.49-5.92-13.46-10.1s-8.14-9.38-13.46-11.44C52.4,57.84,40.76,66.18,41.69,77.77c1.28,15.8,23.89,15.8,39,19.52v6.06c-16,2.52-38.39,3.51-39,19.52-.31,8,5.86,15.2,12.79,16.14,11.48,1.57,17.75-7.38,22.89-12.79,4-4.27,7.56-12.22,14.13-10.09.52,11.28-15.42,33.37-2,44.41,10.3,8.49,24.57,1.09,25.58-11.44,1.13-14.14-9.24-23-6.73-33,6.15-1.69,9.36,5.76,13.47,10.09,3.88,4.1,8.14,9.39,13.46,11.44,11.52,4.46,23.14-3.89,22.21-15.48-1.28-15.82-24.07-15.61-39-19.51V96.6c16.06-2.46,38.38-3.54,39-19.52.32-8-5.87-15.2-12.79-16.15-11.53-1.57-17.77,7.4-22.89,12.79-4.1,4.32-7.36,12.36-14.13,10.1-.82-11.23,13.57-28.74,4.71-41.73Z"/></svg>