<svg id="Icons" xmlns="http://www.w3.org/2000/svg" viewBox="0 0 200 200"><title>033-bus</title><path d="M17.44,127.63c.48,8.47,12.13,8,12.93,8h.07l4.36.29a19.17,19.17,0,0,1-2.57-9.47,19.43,19.43,0,1,1,38.86,0,19.17,19.17,0,0,1-2.41,9.18h64.69a19.43,19.43,0,1,1,34,0h1.93s5.55.35,9.4-2a7.12,7.12,0,0,0,3.6-6C182.83,118.85,189,61,167.18,61H35.91c-24.77,0-19,57.86-18.48,66.64ZM139.84,67.5s20.76-2.27,29.29,4.55c5.72,4.58,6.64,16.43,6.64,16.43s2.67,8.37-7.61,8l-28.22-.24-.09-28.71Zm-37.3-.25H134.4V95.93H102.54ZM63,67.25H96.54V95.93H63ZM26.11,88.48s-.51-11.86,5.21-16.43c8.53-6.83,27.6-4.88,27.6-4.88l-.08,29-25.12.24c-10.28.41-7.61-8-7.61-8Z"/><path d="M51.66,113.8a12.61,12.61,0,1,1-12.6,12.61A12.6,12.6,0,0,1,51.66,113.8Z"/><path d="M150.4,113.8a12.61,12.61,0,1,1-12.6,12.61A12.6,12.6,0,0,1,150.4,113.8Z"/></svg>