<svg id="Icons" xmlns="http://www.w3.org/2000/svg" viewBox="0 0 200 200"><title>035-famille</title><path d="M180.14,106c-1.42-3.66-6.4-13.53-9.6-20-2.25-4.58-2.24-6.38-2-18.59l.26-10.56c-2-9.71-17.16-2-17.16-2-11.51,10.14-14.23,15.48-15.16,18.72-2.71-2.7-7.36-1.54-10.64-3.23-4.87-2.48-8.23-9.75-9.86-14.76l-.35-2.26c-3.1-14.87-20.86-1.66-20.86-1.66C79,67.63,83.31,78.88,84.09,89.18a5.44,5.44,0,0,0,.39,1.54c-4.39-1.69-12.32-5-15.1-8.17-1.65-2-1.59-4.69-2.18-5.64a2.16,2.16,0,0,1-.18-.3s0-.06,0,0l-.08-.06c-4.55-8.08-17.06-5.42-17.06-5.42C30.47,72.9,26.09,95.2,27.24,102.46s5,5.85,5,5.85c.88-.14,4.28-.14,3-7-1.27-9.42,1.28-18,5.7-20.39s6.26.57,7,2.71,6.14,7.64,5.6,18.75c-.29,6-4.66,3.79-6.34,21.28-2.7,28.37-21.2,29.78-24.77,30.5-3.35.67-6.85,2.14-6.41,6S21.4,163,21.4,163s2.13.28,10.55-1.43c22.79-6.82,27.63-36.75,27.63-36.75A169,169,0,0,1,75,151.9c7,15.53,9.56,24.67,15.11,23.94,6.93-.88.31-16.33-2.35-23a33.64,33.64,0,0,0,6.18-3.76c19-13.56,20.2-42.43,20.2-42.43s4.83,7.89,11.9,23.58,9.67,24.94,15.28,24.21c7.51-1-.71-18.81-2.89-24.5s-9.8-20.73-14.69-30.68C120.63,93.06,118.3,89,118.1,75a22.35,22.35,0,0,0,4.67,1.75c1.72.51,10.78,3.18,14.13,1.79l.09.06c.7.87,2.43.78,3.77-1.1,2.2-3.38,3.93-10.1,7.55-13.13,2.68-2.26,5.38-4.7,5.86-3.29s1.2,3.67.84,11c-.19,3.95.94,5-.16,16.58-1.79,18.74-9.25,27.26-11.61,27.73s-4.52,1.41-4.23,3.94,3.58,1.89,3.58,1.89,3.77-.19,8.48-3.77c12.45-8.86,13.2-27.72,13.2-27.72a150.82,150.82,0,0,1,7.77,15.4c4.62,10.27,6.32,16.29,10,15.82,4.9-.63-.47-12.29-1.89-16Zm-80.46-2.46c-2.3,24.13-10.75,37.2-15.52,41.16-3.26-6.94-8-16.45-11.47-23.41s-5.89-11.09-5.52-29.58a58.32,58.32,0,0,0,18.44,6.06,2.71,2.71,0,0,0,.65.18,3.17,3.17,0,0,0,3.52-2.53l.38-.06c.5-.65,3.07-.58,1.68-5.63a45.58,45.58,0,0,1,0-20.93c1.08-5.26,6-9.67,6.76-7.51s1.83,5.62,1.29,16.86c-.3,6,1.44,7.7-.25,25.39Zm63.94-54.07a7.47,7.47,0,1,0-6.19-8.56A7.47,7.47,0,0,0,163.62,49.44Zm-50.25-5.81a9.81,9.81,0,1,0-8.13-11.25A9.81,9.81,0,0,0,113.37,43.63ZM58.66,62.79a9.71,9.71,0,1,0-8-11.13A9.71,9.71,0,0,0,58.66,62.79Zm-9-11.65s-2.85-9.32-9.57-1.81-11.14,10.36-14.5,6.73S33.05,73.92,49.62,51.14Z"/></svg>