<svg id="Icons" xmlns="http://www.w3.org/2000/svg" viewBox="0 0 200 200"><title>036-globe</title><path d="M100.7,165.12h0a72.64,72.64,0,0,1-34.22-9.85c8.81,0-6.73-13.48,4.15-15.55s16.07-15,12.44-15c-6.22,0-11.4-3.11-15-7.77-4.67-6.22-8.81-4.67-14-3.63s-9.85,13.48-10.89,16.59a60.11,60.11,0,0,1-6.74-21.25A196,196,0,0,0,54,98.25c4.66-4.15-1.55-5.7-2.59-7.77a58.52,58.52,0,0,1,0-13.49c0-5.7,11.4-5.7,15-10.88,3.11-4.15-2.07-13-5.7-17.63A64.72,64.72,0,0,1,100.18,35a84.3,84.3,0,0,1,11.4,1c1,6.73,3.63,16.07,7.78,18.66,7.25,4.15,16.07,13,19.18,14.52s7.26,15,6.22,20.73c-.52,4.15-5.7,8.29-7.26,12.45l33.18,20.73c12.44-38.88-8.81-80.87-47.69-93.31S42.11,38.63,29.68,77.51s8.81,80.88,47.69,93.31a67.57,67.57,0,0,0,22.81,3.63h4.66l-1.55-8.81H100.7Zm49.77-90.2a16.88,16.88,0,0,1,7.77-5.7A61.8,61.8,0,0,1,166,99.28a70.66,70.66,0,0,1-1,9.85h0c-1.55-6.22-4.66-11.4-9.85-15-4.14-2.59-7.25-15-4.66-19.18Z"/><path d="M162.39,165.64l-16.07-23.85,31.1-6.22L99.66,87.36l-1.55,1,17.11,89.68,16.59-26.44,16.59,23.85a8.93,8.93,0,0,0,16.07-7.78c-1-.52-1.56-1.56-2.07-2.07Z"/></svg>