<svg viewBox="0 0 50 50" xmlns="http://www.w3.org/2000/svg"><path d="m14.7785179 18.3568696c-5.6938554 5.7513691-.3750893 8.5895447 2.0004761 15.0685869 0 0-2.0004761 2.6456298-3.1932601 3.6508691-15.86627676-9.3197185-13.41569342-27.82412322-13.41569342-27.82412322h.03500833c.32393563-4.62468483 3.86581456-8.37849645 8.46389678-8.97034445 4.59808221-.591848 8.97511481 2.14267085 10.45963261 6.53457832 1.4845178 4.39190745-.3358479 9.22122175-4.3500603 11.54043335zm27.1989744-7.1892113c.000292-5.23799599-4.1461347-9.53618244-9.380759-9.72409548s-9.6785745 3.80189523-10.0538672 9.02642948h-.037509s-2.4480827 18.5044047 13.4156935 27.8366262c1.1877827-1.0002381 3.1957607-3.6508691 3.1957607-3.6508691-2.3755655-6.4790423-7.6943315-9.3172179-2.0004762-15.0685869 3.0076159-1.7358522 4.8606843-4.9444058 4.8611572-8.4170036z" transform="translate(3.995 5.745417)"/></svg>