<svg id="Icons" xmlns="http://www.w3.org/2000/svg" viewBox="0 0 200 200"><title>037-google+</title><path d="M3.11,97.12C3.79,65.25,33,37.44,64.48,38.46c15.26-.68,29.5,5.77,41,15.26C100.42,59.49,95.34,64.91,89.91,70,76,60.16,56,57.45,42.11,68.64c-20,13.9-21,46.45-1.7,61.37,18.65,17,54.25,8.48,59.34-17.63-11.87-.33-23.4,0-35.26-.33V91h59c1,16.61-1,33.9-11.19,47.8-15.26,21.7-46.11,27.8-70.18,18.65s-41-34.59-39-60.36Z"/><path d="M161.79,73.72h17.63V91.35h17.63V109H179.42v17.63H161.79V109c-5.77,0-11.87,0-17.63-.34V91h17.63Z"/></svg>