<svg id="Icons" xmlns="http://www.w3.org/2000/svg" viewBox="0 0 200 200"><title>038-chapeau</title><path d="M52,106.34v26.58s25.5-10.62,48.1-10.62,48.12,10.62,48.12,10.62V106S123.94,93.1,99.78,93.1,52,106.34,52,106.34Z"/><path d="M175.26,100l9.57-5.15-9.57-5.3V87s2.69-13.66-12.62-6.52a2.86,2.86,0,0,0-1.36,1.27l-63.14-35-83,47.48,31.34,14.23v-4.62S72.79,89.12,99.74,89.12s54.05,14.34,54.05,14.34v8.07l17.3-9.29v37.61h-5.76v13.37l7.66-5.3,8.49,5.3V139.85h-6.22V100Zm-4.17-15.28v2.52L166,84.44C167.88,83.22,171.09,81.53,171.09,84.72Zm-1.71,14.76a4,4,0,1,1,4.05-4A4.05,4.05,0,0,1,169.38,99.48Z"/></svg>