<svg viewBox="0 0 50 50" xmlns="http://www.w3.org/2000/svg"><g transform="translate(9.496548 2.995)"><path d="m23.490348 31.0281359c3.7200844-6.2060681 5.0321299-9.2377569 5.3616689-13.7869998.583676-8.00208481-4.6627007-14.43886921-11.8859907-15.07495708-4.397463-.38757301-8.18240826 1.10229716-10.92868158 3.87768876-2.7377052 2.79040671-4.20594503 6.42819642-3.90205874 10.95295862.3198698 4.7636305 1.92648678 8.5726763 5.35460681 14.1303861 2.67526191 4.3360356 5.30796681 7.7929501 8.13542461 10.5298976 2.5094705-2.3411909 4.971364-5.7904365 7.8650307-10.6289742zm-7.7518397 10.8768391h-.2500595v1l.2500595-.2696642zm0 2h-.2500595c-.2521755 0-.4950404-.0952749-.6799502-.2667417-3.1847149-2.9531852-6.08773085-6.7071172-9.02076797-11.4609521-3.58492984-5.8119317-5.30107586-9.8806543-5.64795021-15.0464476-.34362166-5.116408 1.34658863-9.30416368 4.47292132-12.49066612 3.15646231-3.18994456 7.52033796-4.90769945 12.52884086-4.46627207 8.3311211.73364424 14.3670118 8.13908389 13.7052113 17.21223679-.3587358 4.9523033-1.7687664 8.2104024-5.6404641 14.6693999-3.1763186 5.3111645-5.8584487 9.0150298-8.7360307 11.5335513-.1753555.1903855-.4276432.3158916-.7317508.3158916z"/><path d="m5.25022931 15.280776.04030529-.6924005c.4687844-5.05276591 4.67524756-8.9647353 9.9259043-9.15890021 5.2994264-.19596837 9.9081331 3.73471285 10.4755207 8.90270801.9497411 8.5020607-7.1496774 14.3521852-14.5683615 10.9439063-3.62768363-1.6736043-6.04719885-5.4095221-5.87336879-9.9953136zm2.03671095-.5046756c-.37592961 4.031591 1.61662289 7.2732156 4.67303834 8.683271 6.0035609 2.7581443 12.5213322-1.9495731 11.7441353-8.9070381-.452593-4.1223866-4.1568074-7.28164289-8.4137671-7.12422407-4.1510902.15350386-7.46941405 3.15002537-7.97596442 7.05369297z"/></g></svg>