<?xml version="1.0" encoding="UTF-8"?>
<svg width="50px" height="50px" viewBox="0 0 50 50" version="1.1" xmlns="http://www.w3.org/2000/svg" xmlns:xlink="http://www.w3.org/1999/xlink">
    <!-- Generator: Sketch 52.4 (67378) - http://www.bohemiancoding.com/sketch -->
    <title>038-pin-contour</title>
    <desc>Created with Sketch.</desc>
    <g id="038-pin-contour" stroke="none" stroke-width="1" fill="none" fill-rule="evenodd">
        <g id="Group" transform="translate(9.496548, 2.995000)" fill="#000000" fill-rule="nonzero">
            <g id="050-pin">
                <g id="ICONSET-01">
                    <g id="050-pin">
                        <path d="M23.490348,31.0281359 C27.2104324,24.8220678 28.5224779,21.790379 28.8520169,17.2411361 C29.4356929,9.23905129 24.1893162,2.80226689 16.9660262,2.16617902 C12.5685632,1.77860601 8.78361794,3.26847618 6.03734462,6.04386778 C3.29963942,8.83427449 1.83139959,12.4720642 2.13528588,16.9968264 C2.45515568,21.7604569 4.06177266,25.5695027 7.48989269,31.1272125 C10.1651546,35.4632481 12.7978595,38.9201626 15.6253173,41.6571101 C18.1347878,39.3159192 20.5966813,35.8666736 23.490348,31.0281359 Z M15.7385083,41.904975 L15.4884488,41.904975 L15.4884488,42.904975 L15.7385083,42.6353108 L15.7385083,41.904975 Z M15.7385083,43.904975 L15.4884488,43.904975 C15.2362733,43.904975 14.9934084,43.8097001 14.8084986,43.6382333 C11.6237837,40.6850481 8.72076775,36.9311161 5.78773063,32.1772812 C2.20280079,26.3653495 0.486654767,22.2966269 0.139780419,17.1308336 C-0.20384124,12.0144256 1.48636905,7.82666992 4.61270174,4.64016748 C7.76916405,1.45022292 12.1330397,-0.267531966 17.1415426,0.173895412 C25.4726637,0.907539649 31.5085544,8.3129793 30.8467539,17.3861322 C30.4880181,22.3384355 29.0779875,25.5965346 25.2062898,32.0555321 C22.0299712,37.3666966 19.3478411,41.0705619 16.4702591,43.5890834 C16.2949036,43.7794689 16.0426159,43.904975 15.7385083,43.904975 Z" id="Shape"></path>
                        <path d="M5.25022931,15.280776 L5.2905346,14.5883755 C5.759319,9.53560959 9.96578216,5.6236402 15.2164389,5.42947529 C20.5158653,5.23350692 25.124572,9.16418814 25.6919596,14.3321833 C26.6417007,22.834244 18.5422822,28.6843685 11.1235981,25.2760896 C7.49591447,23.6024853 5.07639925,19.8665675 5.25022931,15.280776 Z M7.28694026,14.7761004 C6.91101065,18.8076914 8.90356315,22.049316 11.9599786,23.4593714 C17.9635395,26.2175157 24.4813108,21.5097983 23.7041139,14.5523333 C23.2515209,10.4299467 19.5473065,7.27069041 15.2903468,7.42810923 C11.1392566,7.58161309 7.82093275,10.5781346 7.31438238,14.4818022 L7.28694026,14.7761004 Z" id="Shape-path"></path>
                    </g>
                </g>
            </g>
        </g>
    </g>
</svg>