<?xml version="1.0" encoding="UTF-8"?>
<svg width="50px" height="50px" viewBox="0 0 50 50" version="1.1" xmlns="http://www.w3.org/2000/svg" xmlns:xlink="http://www.w3.org/1999/xlink">
    <!-- Generator: Sketch 52.2 (67145) - http://www.bohemiancoding.com/sketch -->
    <title>039-pin</title>
    <desc>Created with Sketch.</desc>
    <g id="039-pin" stroke="none" stroke-width="1" fill="none" fill-rule="evenodd">
        <g id="Group" transform="translate(10.496548, 3.995000)" fill="#000000" fill-rule="nonzero">
            <g id="050-pin">
                <g id="ICONSET-01">
                    <g id="050-pin">
                        <path d="M14.7385083,41.904975 L14.4884488,41.904975 C11.1176464,38.779231 8.23696071,34.8632988 5.63884226,30.6522964 C3.16325298,26.6388411 0.532626786,21.9477244 0.137532738,16.0638238 C-0.225053571,10.6650387 1.85544167,6.85913274 4.32352917,4.34353393 C6.91664643,1.72291012 10.8900923,-0.285067857 16.0538214,0.170040476 C23.6356262,0.837699405 29.487019,7.57180238 28.8493673,16.3138833 C28.4392696,21.975231 25.9636804,26.1787315 23.3480577,30.5422702 C21.0525113,34.3806839 18.0342929,39.044294 14.7360077,41.9024744 L14.7385083,41.904975 Z M5.29125952,13.6832571 C4.8286494,18.6444381 7.59930893,22.0102393 10.5425095,23.3680625 C17.0740643,26.3687768 24.5833518,21.3675863 23.6981411,13.4432 C23.1905202,8.8195994 19.0545357,5.25125 14.2533929,5.42879226 C9.45225,5.60633452 5.70385774,9.17968512 5.28625833,13.6807565 L5.29125952,13.6832571 Z" id="Shape"></path>
                    </g>
                </g>
            </g>
        </g>
    </g>
</svg>