<svg viewBox="0 0 50 50" xmlns="http://www.w3.org/2000/svg"><path d="m14.7385083 41.904975h-.2500595c-3.3708024-3.125744-6.25148809-7.0416762-8.84960654-11.2526786-2.47558928-4.0134553-5.10621547-8.704572-5.50130952-14.5884726-.36258631-5.3987851 1.71790893-9.20469106 4.18599643-11.72028987 2.59311726-2.62062381 6.56656313-4.62860179 11.73029223-4.17349345 7.5818048.66765893 13.4331976 7.4017619 12.7955459 16.14384282-.4100977 5.6613477-2.8856869 9.8648482-5.5013096 14.2283869-2.2955464 3.8384137-5.3137648 8.5020238-8.61205 11.3602042zm-9.44724878-28.2217179c-.46261012 4.961181 2.30804941 8.3269822 5.25124998 9.6848054 6.5315548 3.0007143 14.0408423-2.0004762 13.1556316-9.9248625-.5076209-4.6236006-4.6436054-8.19195-9.4447482-8.01440774-4.8011429.17754226-8.54953516 3.75089286-8.96713457 8.25196424z" transform="translate(10.496548 3.995)"/></svg>