<svg id="Icons" xmlns="http://www.w3.org/2000/svg" viewBox="0 0 200 200"><title>040-cavalier</title><path d="M84,34.91h0a9.22,9.22,0,1,0-7.63-10.57A9.24,9.24,0,0,0,84,34.91Z"/><path d="M52.61,88.9s-12.33,0-17.32,7a19.37,19.37,0,0,0-4.1,14.37c0,7.92,4.4,20-4.7,20-7.63,0-7.92,2.35-2.35,7s18.78,2.35,19.67-8.81c.87-10.85-6.17-34.33,8.8-39.61Z"/><path d="M172.05,56.33c-.29-.59-10.27-9.4-12.92-13.21-4.1-6.16-2.64-4.69-1.46-7.33s4.11-5.87-1.76-4.11a31.25,31.25,0,0,0-8.22,5.58,48.59,48.59,0,0,0-8.51,5,36.47,36.47,0,0,0-12,14.67c-4.4,11.15-15.26,23.18-22,25.24a34.52,34.52,0,0,1-5.28,1.18,107.25,107.25,0,0,0-2.94-21.72c6.17,1.46,12.33,2.94,15,3.81,5.87,1.77,6.45-1.76,6.75-2.35A3.8,3.8,0,0,0,116,59a61.73,61.73,0,0,1-12-5L87.53,45.48a17.27,17.27,0,0,0-7.92-4.11H78.14a5.1,5.1,0,0,0-5,5.58c-.88,7.63,6.46,26.71,4.41,38.44-5,.29-8.51.29-8.51.29s-27.3,1.18-20.25,30.53c4.4,15.26.87,20,.87,20a68.52,68.52,0,0,0-1.76,15.55c.29,5.58,0,22.31,0,22.31s1.18,7.92,5.87,7.33c2-.59,3.52-1.17,2.64-5.87a46.63,46.63,0,0,1-.29-21.13,16,16,0,0,1,1.76-5.28,59.93,59.93,0,0,0,10.86-16.14c2.94-7.92,33.45,5.87,42.85,4.7,5,0,4.69,2.35,3.81,7.63,0,0-2.35,20.83,1.18,30.22,3.22,8.22,3.81,7.63,6.45,7.92,1.76.29,5-2.35,2.64-7.33s-4.1-22.89-.29-30.23a68,68,0,0,1,10.27-13.79s7-9.39,6.17-30.23c0-4.1,5-23.18,6.45-26.11s1.76-5.87,4.7-5.58,10.56,0,13.79,2.64c1.47,1.17,5.58,5.58,10.86.29,6.75-6.75-5.28-16.44-5.58-16.73Z"/></svg>