<svg viewBox="0 0 50 50" xmlns="http://www.w3.org/2000/svg"><g transform="translate(3.995 6.495595)"><path d="m2.66563452 1.14777321c0-.54274896-.43998496-.98273392-.98273392-.98273392h-.65515596c-.54274896 0-.98273393.43998496-.98273393.98273392v34.71326309c0 .542749.43998497.9827339.98273393.9827339h.65515596c.54274896 0 .98273392-.4399849.98273392-.9827339v-4.2510119h10.47999468v-2.625625h-10.47999468v-5.2287446h10.47999468v-2.6306262h-10.47999468zm38.31662088 9.50226189h-.655156c-.5427489 0-.9827339.439985-.9827339.9827339v24.2332685c0 .5427489.439985.9827339.9827339.9827339h.655156c.5427489 0 .9827339-.439985.9827339-.9827339v-24.2382696c0-.542749-.439985-.982734-.9827339-.982734zm-30.45725 2.6156226h-2.61812326c-2.62062381 0-2.62062381 2.6181233-2.62062381 2.6181233v2.6206238h7.85937087v-2.6206238c0-2.6181233-2.6206238-2.6181233-2.6206238-2.6181233z"/><path d="m34.1031179 12.2656577c.4688482 0 1.1021095.1054429 1.757184.4326676 1.1466319.5727689 1.8634398 1.6469548 1.8634398 3.1854557v13.1006184c0 .4689652-.1055647 1.1023533-.4331508 1.7575255-.5732618 1.1465236-1.6481239 1.8630983-3.187473 1.8630983h-19.3368649v-16.7212422c0-.4686527.1054865-1.1015719.4328382-1.7562753.5728711-1.1457421 1.6470298-1.861848 3.185285-1.861848zm-17.3368649 18.3393655h17.3368649c.7536966 0 1.1529355-.2661592 1.3986186-.7575255.1637809-.3275617.2220052-.6769076.2220052-.8630983v-13.1006184c0-.752357-.2659261-1.1508654-.7571841-1.39626-.3276594-.1636734-.6771321-.2218633-.8634397-.2218633h-15.7187417c-.7526027 0-1.1511382.2656904-1.3964306.7562752-.1635465.3270929-.2216926.6759699-.2216926.8618481z"/></g></svg>