<svg id="Icons" xmlns="http://www.w3.org/2000/svg" viewBox="0 0 200 200"><title>041-sablier</title><path d="M154.51,167.9h-2.27V147c0-5.34-2.56-10.22-6-13.92L121.85,107a10.14,10.14,0,0,1,0-13.93l24.38-26.13c3.45-3.69,6-8.57,6-13.92V32.1h2.27a8,8,0,0,0,8.17-7.83,8,8,0,0,0-8.17-7.84h-109a8,8,0,0,0-8.17,7.84,8,8,0,0,0,8.17,7.83h2.27V53c0,5.35,2.55,10.23,6,13.93L78.16,93a10.15,10.15,0,0,1,0,13.93L53.76,133.09c-3.45,3.7-6,8.58-6,13.92v20.9H45.49a7.85,7.85,0,1,0,0,15.68h109a7.85,7.85,0,1,0,0-15.68Zm-19.08,0H64.57V147A5.07,5.07,0,0,1,66,143.53l24.4-26.13a25.31,25.31,0,0,0,0-34.81L66,56.46A5,5,0,0,1,64.57,53V32.09h70.86V53a5.06,5.06,0,0,1-1.38,3.47L109.66,82.6a25.31,25.31,0,0,0,0,34.81l24.38,26.12a5.07,5.07,0,0,1,1.38,3.48Z"/></svg>