<svg viewBox="0 0 50 50" xmlns="http://www.w3.org/2000/svg"><path d="m41.8077931 35.9827233v-.843357l2 .0003961c.919035.8963008 1.0989363 2.2458902.539069 3.3199608l-1.9355692-1.888253-.6034998-.588571-6.5481032-6.3882066c-.1780514-.1737087-.4125676-.2683956-.6752731-.2683956-.2627161 0-.496694.0945822-.6749307.2688536l-4.6858243 4.57113-.103788.0730586c-1.2655394 1.068715-3.5255187.8152103-5.5686418-1.1780321l-.0188807-.0178128c-.0092192-.0086995-.0092192-.0086995-.0430931-.0410608-2.0811984-2.0321131-3.1536511-3.0751169-3.2015628-3.119332-.1090371-.103783-1.0358532-1.0056233-3.2546247-3.1702786-1.9566203-1.9075129-2.2974489-3.89221-1.4078498-5.3395487l.1297317-.2110679.1773122-.1730328 4.6473954-4.5352324c.1689698-.1648486.2548061-.3669419.2548061-.5890302 0-.2221754-.0859214-.4245398-.254522-.589149l-7.1499588-6.97675991c-.3670194-.35717825-.9872072-.35701457-1.3522683-.0006042l-4.91447805 4.79500161-.01347175.0240637c-2.07883123 3.5003196-1.2659513 7.9004503 1.83297293 12.8624821 1.17578167 1.8826745 2.60541667 3.7162443 4.16434217 5.4347154.5781643.6373355 1.1434799 1.2245396 1.6802247 1.7540024.3687265.363724.6787761.6559984.9127811.8678489l.1395719.1394888c.4507293.4972696 1.1072885 1.1727684 1.936457 1.9554909 1.2568088 1.1864084 2.6224704 2.3421177 4.0616207 3.3963162 3.8567138 2.8250989 7.6175965 4.4726068 10.9365043 4.4721526 1.5176442 0 2.9263504-.34617 4.2403185-1.0719016l.1010905-.0497703 5.2556952-5.1267211c.3378636-.3300919.3376832-.8507151.0000534-1.1799929zm0-.843357 2 .0003961c1.1419109 1.1136633 1.1427227 2.9271287.0012178 4.0423762l-5.2995545 5.169505c-.1420792.1386138-.3077029.2487128-.4879406.3271287-1.6850594.930693-3.443594 1.3211881-5.207 1.3211881-8.6822574.0011881-17.4952277-9.4641584-18.4167128-10.4807921-1.2283763-1.1120792-14.74619805-13.6930693-8.96763369-23.4229703.07509901-.1425742.17374257-.2760396.29633663-.3952475l4.95450496-4.83405941c1.141099-1.11405941 2.999901-1.11445545 4.1438416-.00118812l7.1518614 6.97861383c.5528911.539802.8577524 1.2574258.8577524 2.0205941s-.3048613 1.4807921-.8581584 2.0205941l-4.6472079 4.5350495c-.1404554.2285148-.5784653 1.2237623 1.100099 2.860198 2.8967921 2.8261386 3.2207327 3.1378218 3.2373762 3.1536633.0040595.0035644.2683268.2550495 3.2199208 3.1370297.0121783.0114852.0247624.0233664.0369406.0348515 1.8628614 1.8170297 2.9150594 1.0974258 2.9243961 1.0887129.0304455-.0253465.0617029-.0495049.0937723-.0720792l4.571297-4.4594059c.5516732-.539406 1.2880495-.8372278 2.0715148-.8372278.7822476 0 1.5186238.2970297 2.0719208.8368317l7.1510495 6.9762376z"/><path d="m40 21h-2c0-4.9705627-4.0294373-9-9-9v-2c6.0751322 0 11 4.9248678 11 11z"/><path d="m45 21h-2c0-7.7319865-6.2680135-14-14-14v-2c8.836556 0 16 7.163444 16 16z"/></svg>