<svg id="Icons" xmlns="http://www.w3.org/2000/svg" viewBox="0 0 200 200"><title>044-info</title><path d="M124.6,163.36a40.94,40.94,0,0,1-10.93,2c-2.78,0-3.91-.58-4.26-.83-1.77-1.23-5-3.53.56-14.73l10.52-21c6.24-12.45,7.16-24.49,2.58-33.92-3.75-7.7-10.93-13-20.2-14.89A50.45,50.45,0,0,0,92.8,79,53.58,53.58,0,0,0,59.71,90.8a5.26,5.26,0,0,0,5.19,8.92,40.63,40.63,0,0,1,10.92-2c2.77,0,3.88.58,4.23.82,1.77,1.24,5.07,3.57-.54,14.74L69,134.3c-6.25,12.47-7.16,24.51-2.58,33.92,3.74,7.71,10.91,13,20.2,14.89a51.41,51.41,0,0,0,10,1,53.57,53.57,0,0,0,33.11-11.84,5.26,5.26,0,0,0-5.17-8.93Z"/><path d="M142.07,42.16a26.29,26.29,0,1,1-26.29-26.29A26.29,26.29,0,0,1,142.07,42.16Z"/></svg>