<svg viewBox="0 0 50 50" xmlns="http://www.w3.org/2000/svg"><path d="m45.1735564 38.2565677-.0796013.0734949c.0135198-.0115037.0135198-.0115037.0080744-.0067189-.0256593.023307-.0256593.023307-.0217973.0178099-.4478994.4104118-1.0370136.633687-1.7054975.633687h-35.85094899c-1.35757885 0-2.52378571-1.06241-2.52378571-2.3868069v-22.2012269c0-1.3257674 1.16678983-2.3868068 2.52378571-2.3868068h35.85094899c1.3573798 0 2.5233877 1.0622289 2.5233877 2.3868068v22.2012269c0 .6759622-.2709059 1.2645857-.7109025 1.6564637-.0213784.0206992-.0213784.0206992-.0336426.0320367-.0002104.0000662.0054178-.0055183.0199791-.0199664zm-1.3916596-1.4357209c.0033829-.003168.0068397-.0063304.0117198-.0107947l.0036088-.0033172c-.0025805.0023611-.0025805.0023611.0212137-.0196519.0569826-.0509579.0796833-.1002821.0796833-.1990493v-22.2012269c0-.1762539-.2311237-.3868068-.5233877-.3868068h-35.85094899c-.29259085 0-.52378571.2102408-.52378571.3868068v22.2012269c0 .1760729.23132258.3868069.52378571.3868069h35.85094899c.1590051 0 .2608949-.0333489.390732-.1380995.0034959-.003448.0063175-.0062125.0087923-.0086109.0006383-.0010652.0039987-.0040845.0076378-.0072834zm-6.8425966-18.6075429 1.2346809 1.5733922-13.1881721 10.3490944-12.6204089-10.3629497 1.2691998-1.5456816 11.3795911 9.3440815z"/></svg>