<?xml version="1.0" encoding="iso-8859-1"?>
<!-- Generator: Adobe Illustrator 19.0.0, SVG Export Plug-In . SVG Version: 6.00 Build 0)  -->
<svg xmlns="http://www.w3.org/2000/svg" xmlns:xlink="http://www.w3.org/1999/xlink" version="1.1" id="Layer_1" x="0px" y="0px" viewBox="0 0 368 368" style="enable-background:new 0 0 368 368;" xml:space="preserve">
<g>
	<g>
		<path d="M364.376,3.836C361.616,0.968,358.64,0,354.708,0H229.016C221.328,0,216,5.528,216,13.212v10.952    C216,32.116,221.06,40,229.012,40h71.26L40,300.368v-71.6C40,220.804,32.024,216,24.072,216H13.12C5.428,216,0,221.08,0,228.764    v125.744c0,3.936,0.92,7.008,3.676,9.656c2.76,2.868,5.788,3.836,9.72,3.836h125.696c7.688,0,12.912-5.524,12.912-13.212v-10.952    c0-7.952-4.952-15.836-12.912-15.836H65.756L328,65.564v73.68c0,3.836,2.304,6.624,5.04,9.36c2.732,2.728,7.152,3.4,10.992,3.4    h10.952c3.848,0,6.756-0.672,9.484-3.408c2.736-2.728,3.532-5.516,3.532-9.352V13.492C368,9.564,367.132,6.488,364.376,3.836z"/>
	</g>
</g>
<g>
</g>
<g>
</g>
<g>
</g>
<g>
</g>
<g>
</g>
<g>
</g>
<g>
</g>
<g>
</g>
<g>
</g>
<g>
</g>
<g>
</g>
<g>
</g>
<g>
</g>
<g>
</g>
<g>
</g>
</svg>
