<svg id="Icons" xmlns="http://www.w3.org/2000/svg" viewBox="0 0 200 200"><title>045-instagram</title><path d="M182,65.94a61.4,61.4,0,0,0-3.83-20,40.25,40.25,0,0,0-9.54-14.61A40.74,40.74,0,0,0,154,21.75c-5.25-2-11.24-3.44-20.05-3.84s-11.6-.46-34-.46-25.23.1-34,.5-14.78,1.8-20,3.83A40.14,40.14,0,0,0,31.3,31.31a40.94,40.94,0,0,0-9.54,14.62c-2,5.24-3.44,11.23-3.83,20.05s-.49,11.6-.49,34,.1,25.23.49,34,1.8,14.78,3.83,20a40.29,40.29,0,0,0,9.54,14.62,40.92,40.92,0,0,0,14.61,9.53c5.24,2,11.24,3.44,20,3.83s11.6.5,34,.5,25.23-.1,34-.5,14.78-1.8,20.05-3.83a40.14,40.14,0,0,0,14.61-9.53,40.94,40.94,0,0,0,9.54-14.62c2-5.24,3.44-11.23,3.83-20s.49-11.59.49-34S182.4,74.76,182,65.94Zm-14.84,67.4c-.36,8.06-1.71,12.42-2.85,15.33a25.71,25.71,0,0,1-6.16,9.5,25.14,25.14,0,0,1-9.51,6.16c-2.91,1.11-7.27,2.49-15.33,2.85-8.72.4-11.3.5-33.35.5s-24.64-.1-33.35-.5c-8.06-.36-12.42-1.7-15.34-2.85a25.59,25.59,0,0,1-9.5-6.16,25.14,25.14,0,0,1-6.16-9.5c-1.11-2.91-2.49-7.27-2.85-15.33-.39-8.72-.49-11.3-.49-33.36s.1-24.63.49-33.35c.36-8.06,1.7-12.42,2.85-15.33a25.71,25.71,0,0,1,6.16-9.5,25,25,0,0,1,9.5-6.16c2.92-1.11,7.28-2.49,15.34-2.85,8.71-.4,11.3-.5,33.35-.5s24.63.1,33.35.5c8.06.36,12.42,1.7,15.33,2.85a25.5,25.5,0,0,1,9.51,6.16,25.14,25.14,0,0,1,6.16,9.5c1.11,2.91,2.49,7.27,2.85,15.33.39,8.71.49,11.3.49,33.35S167.56,124.62,167.17,133.34Z"/><path d="M100,57.59A42.39,42.39,0,1,0,142.36,100,42.4,42.4,0,0,0,100,57.59Zm0,69.91A27.52,27.52,0,1,1,127.49,100,27.51,27.51,0,0,1,100,127.5Z"/><path d="M153.93,55.92A9.89,9.89,0,1,1,144,46a9.89,9.89,0,0,1,9.89,9.9Z"/></svg>