<?xml version="1.0" encoding="iso-8859-1"?>
<!-- Generator: Adobe Illustrator 19.0.0, SVG Export Plug-In . SVG Version: 6.00 Build 0)  -->
<svg xmlns="http://www.w3.org/2000/svg" xmlns:xlink="http://www.w3.org/1999/xlink" version="1.1" id="Layer_1" x="0px" y="0px" viewBox="0 0 457.848 457.848" style="enable-background:new 0 0 457.848 457.848;" xml:space="preserve">
<g>
	<g>
		<path d="M456.674,187.896L270.122,1.336c-1.5-1.5-4.156-1.5-5.656,0L103.178,162.62l-56.564-56.572    c-1.088-1.084-2.704-1.452-4.144-0.944c-1.452,0.508-2.48,1.792-2.656,3.32L0.026,453.176c-0.14,1.212,0.28,2.424,1.144,3.288    c0.752,0.752,1.772,1.172,2.828,1.172c0.152,0,0.304-0.008,0.46-0.028l344.752-39.796c1.524-0.172,2.812-1.204,3.316-2.66    c0.508-1.444,0.14-3.056-0.948-4.14l-56.184-56.176l161.28-161.28C458.239,191.992,458.239,189.464,456.674,187.896z"/>
	</g>
</g>
<g>
</g>
<g>
</g>
<g>
</g>
<g>
</g>
<g>
</g>
<g>
</g>
<g>
</g>
<g>
</g>
<g>
</g>
<g>
</g>
<g>
</g>
<g>
</g>
<g>
</g>
<g>
</g>
<g>
</g>
</svg>
