<svg id="Icons" xmlns="http://www.w3.org/2000/svg" viewBox="0 0 200 200"><title>047-kayak</title><path d="M73.88,55.4h0A14,14,0,1,0,62.62,39.31,13.84,13.84,0,0,0,73.88,55.4Z"/><path d="M125.36,161.58a15.65,15.65,0,0,0-10.46-5.1c-3.75,0-4,.54-10.73,6.44s-8,5.09-11.26,2.68-5.9-7.24-15-8.31-14.21,6.17-15.82,7.51a3.7,3.7,0,0,0-.8,1.07,2.47,2.47,0,0,0,1.07,3.21,4.9,4.9,0,0,0,4.29-.54A15.89,15.89,0,0,1,76,163.72c6.43-1.35,7.77,1.07,15,6.43a10.91,10.91,0,0,0,13.68-.26,88.62,88.62,0,0,1,7.5-6.71,7,7,0,0,1,8,1.61c1.87,1.88,4.55,3.22,6.43,1.34s-1.34-4.55-1.34-4.55Z"/><path d="M174.15,137.71A22.94,22.94,0,0,0,161.82,134c-1.61,0-6.44,1.88-11.26,7s-8.05,1.88-8.05,1.88a50.43,50.43,0,0,0-13.4-7.51c-6.44-1.88-12.34,4.83-15,8.58a7.12,7.12,0,0,1-1.35,1.61,6.89,6.89,0,0,1-9.91-.81c-3.49-3.75-10.73-8.31-15.29-8.58s-10.45,5.64-12.06,8.31h0a2.69,2.69,0,0,0,.54,4c1.88,1.61,3.48.54,7.5-2.68,6.44-4.29,8.31-3.49,12.34-.54a26.22,26.22,0,0,0,15,6.44c6.7.54,10.73-6.44,12.06-8.05,1.34-1.88,5.64-6.16,11.26-.26s9.12,6.43,12.07,6.16,8.84-3.75,13.67-7.78,10.19.27,10.19.27,3.75,4,5.9,1.34-1.88-5.63-1.88-5.63Z"/><path d="M166.11,95.62a259.82,259.82,0,0,0-55.77-7,20.59,20.59,0,0,0-1.88-9.12L129.91,57a41.32,41.32,0,0,0,5.63,1.07,5.72,5.72,0,0,0,4.56-2.14S151.36,43.33,153,41.73a3.76,3.76,0,0,0,1.07-5.1c-5.9-5.63-5.09-5.36-7-7s-3.75-1.6-8,1.88a65.61,65.61,0,0,0-11.26,11.53,21.91,21.91,0,0,0-3.21,5.36,13.17,13.17,0,0,0,1.07,5.64L106,74.71a38.09,38.09,0,0,0-3-4C90.49,56,78.16,56.21,76.81,67.48a47.15,47.15,0,0,0,4.3,21.72,300.58,300.58,0,0,0-51.22,6.43c-19.3,3.76-12.06,12.87-12.06,12.87s7.51,12.6,41.83,15L46.52,137.45c-8.05-1.87-9.92.54-9.92.54a55.51,55.51,0,0,0-15.55,15c-1.34,2.15-2.68,3.49-.54,5.37,0,0,3.49,3.21,8,6.7,3.21,2.41,5.36-.27,7.24-1.34,0,0,6.16-6.17,9.91-9.12,6.17-5.09,5.37-8.31,5.37-8.31l-.81-5.09,16.36-17.43c46.92,1.88,97.59-7.24,97.59-7.24s42.1-8.85,1.88-20.91Z"/></svg>