<svg viewBox="0 0 50 50" xmlns="http://www.w3.org/2000/svg"><path d="m32.1065889 26.970264c.9617065 1.0776485 2.1169849 1.9972583 3.1763747 2.996866.8527422.804628.9491436 1.7878447.2663858 2.4921693-.7368554.7596138-1.800091.7214497-2.7064179-.1308835-.9394009-.8834027-1.9116192-1.7442984-2.7592336-2.7040294-.6983973-.790928-1.4675574-1.113611-2.5477145-1.0575879-1.4888376.0775515-2.9858795.0007339-4.4785628.0281338-.693526.0127214-.9911909-.1949797-.9799099-.9090901.0361505-2.3201859.0148704-4.6411057.0094863-6.9617809-.003333-1.4071815.9914473-2.0415386 2.5436124-2.6181601-1.6677955-.5746643-2.7118021-1.2381337-2.6256561-2.7818255.0623019-1.1180146.9211973-2.1044116 2.0816035-2.2947432 1.1493815-.1886191 2.4343916.5531359 2.823843 1.6295612.4015016 1.1099413.0041022 2.3940678-1.086054 2.8160755-1.255782.4861039-1.1973259.7429781-.0451241 1.2731176.7217286.3319794 1.1091289 1.0348362 1.117846 1.8066821.0076916.6693409.3099715.8440153.9383753.8092762.5525133-.0305803 1.1170768-.0528427 1.6611294.0215285.6099439.0836676 1.2214262.3160776 1.1427155 1.0578325-.0661478.6231035-.5676402.8670117-1.1873268.8819349-.4263711.0100303-.8545368.0210392-1.279626-.0048929-.70814-.043057-1.221939-.0080732-1.2106579.9247473.009999.8215082.2815125 1.1177698 1.1150257.996672 1.7308665-.2514921 2.9410117.5081217 4.029886 1.7283966zm-2.135714 4.7662428c1.2722352 1.0885663 1.3123155 1.1877535.4093739 2.5315149-1.6785842 2.497871-4.0713039 3.6801418-7.1665637 3.7319783-3.0919828-.1136415-5.590323-1.453914-7.099007-4.216201-1.6485869-3.0184789-1.4812074-5.9965851.5868365-8.8732613.861853-1.1987189 1.9435176-2.0238662 3.2089467-2.6788003.6485955-.3356912 1.134853-.4426039 1.1429195.6367415.0083185 1.1104972-.3216509 1.733532-1.3513876 2.3383742-3.4237167 2.0116547-3.0645063 7.6690597.5346564 9.752488 3.4169107 1.9777616 7.388644.6576755 8.9177462-3.0291951.2724958-.6566787.403324-.5470246.8164791-.1936392zm11.0743379 5.4855182c.0136524-7.831.010922-15.662-.0012412-23.49325-.0037234-2.31175-1.5047517-3.771-3.8256737-3.77275-3.8462766-.00325-7.6928014-.001-11.539078-.0005-3.8462766 0-7.6952837.0885-11.5378369-.03375-2.2578724-.07175-4.15904257 1.592-4.1322341 4.17275.0794327 7.622.0265603 15.2455.0282979 22.8685.0002482 2.68625 1.4451773 4.18475 4.1041844 4.18975 7.6515958.014 15.3031915.01375 22.9547872.00075 2.4735816-.0045 3.9443263-1.466 3.9487944-3.9315zm1.9237588-23.42725c.0151419 7.82625.0181206 15.65275.0027305 23.47925-.0062056 3.219-2.5356383 5.70325-5.7519149 5.7045-7.8151773.00325-15.6306028-.037-23.4455319.02125-3.0660993.023-5.77028367-2.908-5.7705319-5.79225-.00124113-7.78775-.00893617-15.5755.0027305-23.36325.00421986-2.89775 2.6629787-5.8325 5.7596099-5.79775 3.969149.04425 7.9390426.01075 11.908688.01075v.044c3.8864893 0 7.7729787-.00675 11.6594681.002 3.1145035.007 5.6287943 2.53025 5.6347517 5.6915z" fill-rule="evenodd"/></svg>