<svg id="Icons" xmlns="http://www.w3.org/2000/svg" viewBox="0 0 200 200"><title>049-ampoule</title><path d="M100,56.87c-22.85,0-41.38,17.75-41.38,39.64,0,26,18.06,32.63,18.06,47.76,0,3.74,2.85,7.22,7.15,9.77a3.27,3.27,0,0,0-1.4,2.42c0,1.15.91,2.23,2.46,3.16-1.46.9-2.31,1.94-2.31,3.06s.87,2.18,2.36,3.09c-1.53.91-2.41,2-2.41,3.12,0,1.38,1.31,2.66,3.5,3.69a3.47,3.47,0,0,0-1.33,2.52c0,2.65,4.12,4.9,9.92,5.8a6.33,6.33,0,0,0,11,0c5.86-.89,10-3.15,10-5.81a3.4,3.4,0,0,0-1.3-2.49c2.23-1,3.58-2.33,3.58-3.73,0-1.13-.87-2.18-2.36-3.09,1.52-.92,2.41-2,2.41-3.11s-.92-2.23-2.47-3.16c1.47-.9,2.31-1.94,2.31-3.06a3.34,3.34,0,0,0-1.5-2.5c4.22-2.55,7-6,7-9.7,0-15.13,18-21.76,18-47.76,0-21.89-18.52-39.64-41.38-39.64Zm21.61,64.18c-4.13,6.06-8.79,12.89-9.08,22.3-1.41,1.58-6.47,4.15-12.52,4.15s-11.11-2.57-12.52-4.15c-.29-9.41-5-16.25-9.09-22.31-4.61-6.74-9-13.12-9-24.53,0-15.88,13.7-28.81,30.55-28.81s30.55,12.93,30.55,28.81c0,11.41-4.34,17.79-8.94,24.54Z"/><path d="M100,43c3,0,5.41-3.22,5.41-7.16V23.06c0-3.94-2.44-7.16-5.41-7.16s-5.41,3.22-5.41,7.16V35.81C94.59,39.76,97,43,100,43Z"/><path d="M72.25,50.41c2.58-1.49,3.08-5.5,1.11-8.9L67,30.46c-2-3.41-5.7-5-8.27-3.5s-3.08,5.5-1.12,8.91l6.38,11c2,3.42,5.69,5,8.27,3.5Z"/><path d="M48.45,62.45l-11-6.38C34,54.11,30,54.6,28.5,57.18s.08,6.3,3.5,8.27l11,6.37c3.41,2,7.42,1.47,8.9-1.11S51.86,64.42,48.45,62.45Z"/><path d="M168,131.48l-11-6.38c-3.41-2-7.42-1.47-8.9,1.11s.08,6.3,3.49,8.27l11,6.37c3.41,2,7.42,1.47,8.91-1.11S171.42,133.45,168,131.48Z"/><path d="M44.51,98.46c0-3-3.22-5.41-7.16-5.41H24.59c-3.93,0-7.15,2.44-7.15,5.41s3.22,5.42,7.15,5.42H37.35C41.29,103.88,44.51,101.44,44.51,98.46Z"/><path d="M175.41,93.05H162.65c-3.94,0-7.16,2.43-7.16,5.41s3.22,5.41,7.16,5.41h12.76c3.93,0,7.15-2.44,7.15-5.41S179.34,93.05,175.41,93.05Z"/><path d="M43,125.1l-11,6.37c-3.41,2-5,5.69-3.5,8.27s5.5,3.07,8.91,1.11l11-6.38c3.41-2,5-5.69,3.49-8.26S46.44,123.13,43,125.1Z"/><path d="M157,71.83l11-6.38c3.41-2,5-5.69,3.5-8.26s-5.5-3.08-8.91-1.11l-11,6.37c-3.41,2-5,5.69-3.49,8.27S153.56,73.79,157,71.83Z"/><path d="M141.28,27c-2.58-1.48-6.3.09-8.27,3.5l-6.38,11c-2,3.41-1.47,7.41,1.11,8.9s6.3-.08,8.27-3.5l6.38-11c2-3.41,1.46-7.42-1.12-8.91Z"/></svg>