<svg viewBox="0 0 50 50" xmlns="http://www.w3.org/2000/svg"><path d="m28.6577797 33.141282c3.0997604-.0002504 4.5279314-1.3987271 4.530689-4.4653599.0070193-7.5057008.0045124-15.0116521-.0030083-22.51735293-.0005014-.49779261-.023314-1.00635235-.1268482-1.49062343-.2905477-1.35866331-1.7340108-2.65172216-3.0461131-2.75413523-.5043848-.03956299-.955373-.12870493-.8305302.7476905.2755064 1.93483071.402856 3.8911957.5683103 5.84079993.0551514.64677983.1586856 1.15884515.8455715 1.52067126.6126821.3222631.9478523 1.0774656.7114533 1.7317574-.7653513 2.1198753.3238892 4.6476501-1.4695346 6.5381603-.1669584.1760302-.161694.5586394-.1594378.8448452.0132865 1.7385181-.410126 3.394655-1.05991 4.9759228-1.8337846 4.4618543-4.7723524 7.3459465-9.751272 6.8348827-1.1867583-.1219441-2.348197-.486775-3.5211674-.7424321.1967903.4141595-.1822503.4109043-.4013519.4990446-1.7127022.6880956-3.4620049.4427049-5.20478972.1647623-.15617879-.0247894-.27701053-.2726841-.41413701-.4166634 2.01503223.2228549 4.03432623.5391084 6.00373323-.2649218.4963628-.7947654 1.0215547-1.6073092.588616-2.5853665-.3655035-.8250637-.3131096-1.4843635.4372004-2.0557733.283027-.2153429.3820489-.5295932.1233386-.8588675.1714708-.6445262.591875-.2356252.8866844-.1810383 2.1639411.4003876 4.2351275.082882 6.2243389-.8000238.3822996-.1697703 1.0706895-.3442982.8681334-.872389-.201052-.5240845-.7640978-.2120877-1.1987912-.0515822-2.3700069.8748931-4.7858897 1.1470765-7.2283454.3513094-.6502854-.2118373-.9069902.1289553-1.2043065.5373556-.7147122-.5100621-1.7162118-.6159808-2.2792576-1.4863666 1.5469972.180287 2.8380418.9399967 4.3419207.8408388.9623922-.0633509 1.3840499-.4619856 1.0082682-1.3273635-.3710187-.8543604.0318374-1.1353077.7019271-1.3426378 1.7031761-.5263381 1.9826935-1.0341466 1.4680305-2.7143218-.7974394-2.6031449-1.8731427-5.1494492-2.0027486-7.90408521-.1095507-2.32920865-.3008259-4.63387822-.7347673-6.92903265-.1436443-.76096163-.3983436-.93023115-1.1120531-.92246879-3.381534.03580702-6.77159136.15875278-10.14284713-.02779425-2.22059664-.12294576-4.30231198 1.58852931-4.26646356 4.23924988.08398057 6.21314282.07370235 12.42903992-.0042617 18.64218272-.01930299 1.5309376.65003467 2.3236999 1.89771016 2.9572086 1.53747112.7807431 3.0202922 1.6696585 4.52642728 2.5119997-.49561069.1920558-.91275596-.1004099-1.30207484-.2884593-1.41312974-.6828372-2.82625948-1.3761912-4.18047748-2.1666999-.7881639-.4599824-.86186625-.2201004-.92203143.5356028-.25896098 3.2609422 1.77863323 4.9170792 4.66681271 4.8810217 7.38803379-.0928979 14.77807309-.0287958 22.16736039-.029547zm-5.1930074-22.7614917c-.7367728-.1186889-1.9744207.7193955-1.8555945 1.2935597.1950355.9407479 1.0057613.3370366 1.532708.4652408.0777134.0190303.1644515.002504.3213824.002504.638503-.2281133 1.9333079.2288644 1.9877072-.4742552.0581597-.7499441-1.1198244-1.1473268-1.9862031-1.2870493zm11.5106023 7.1043118c-.000752 4.0897618-.0536473 8.1805253.019303 12.2690352.0433691 2.4361289-2.2341338 5.1446915-5.0503657 5.1799978-8.2714593.1041658-16.544924.0673572-24.81738606.0187799-2.68988506-.0157752-5.08370729-2.5535659-5.09724446-5.3595337-.03885668-8.054074-.03985943-16.1086487-.00125344-24.16297313.01453992-3.02206183 2.522676-5.42939487 5.56076706-5.42939487 8.0215231-.0007512 16.0427954.03054864 24.0640678.038311 2.7049264.00275438 5.4080979 2.50473813 5.3456765 5.30194194-.0902478 4.04594209-.0230633 8.09564016-.0235647 12.14383586zm-25.25315238-6.0717002c.97683808.0850456 1.87927498.1637674 2.91666668.2542648-.8066777-1.2220412-1.5495159-1.2752493-2.91666668-.2542648zm-.88772222 18.789612c-.05625-.042-.11275-.08425-.169-.12625.0285.08225.08475.1245.169.12625z" fill-rule="evenodd" transform="translate(8 8)"/></svg>