<svg id="Icons" xmlns="http://www.w3.org/2000/svg" viewBox="0 0 200 200"><title>053-enveloppe</title><path d="M184.05,47.3a6.68,6.68,0,0,0-6.58-6.58H22.54A6.68,6.68,0,0,0,16,47.3V152.7a6.68,6.68,0,0,0,6.59,6.58H177.47a6.05,6.05,0,0,0,4.45-1.76l.22-.21a1.42,1.42,0,0,0,.12-.13,6,6,0,0,0,1.79-4.48Zm-13.17,98.81H29.12V53.89H170.88Z"/><path d="M44.54,77.77,93,118.17c1.91,1.59,5.26,2.72,7.54,1l50.68-38.92c6.26-4.81.07-15.62-6.28-10.74L97.59,105.85,53.33,69C47.23,63.89,38.38,72.64,44.54,77.77Z"/></svg>