<svg viewBox="0 0 50 50" xmlns="http://www.w3.org/2000/svg"><path d="m15.4103892 16.6338969c2.4264046.1495806 4.5585888 1.0059703 6.3596229 2.6645064 1.7973818 1.6556596 2.8504876 3.720611 3.233177 6.1484185.3936465-2.399453 1.4191565-4.4446795 3.1824493-6.0834906 1.7669451-1.6408659 3.8703161-2.501365 6.2569501-2.6838204-2.8322256-1.2747223-5.8190691-1.8167463-8.8939758-1.876332-3.4937141-.0694481-6.8924661.4520292-10.1382235 1.8307181zm-.3960814 2.1097434c-4.2964283-.0378061-8.04175145 3.5928099-7.96667454 8.2174792.06939541 4.3127691 3.58015404 7.9684522 8.05595524 7.9298242 4.376375-.037806 7.8940326-3.6569159 7.902149-8.0391331.0068989-4.5022104-3.5537756-8.1081703-7.9914297-8.1081703zm11.9761873 8.0822814c0 4.4722121 3.5834006 8.1254296 7.9841249 8.1081703 4.417363-.0156156 7.9845307-3.5665101 7.9812841-8.0880345-.0032465-4.6595988-3.7359893-8.1628248-8.1525406-8.0715971-4.3601422.0916387-7.7730979 3.650341-7.8128684 8.0514613zm2.5213667-13.4507441c1.1164139.1602649 2.209696.4438104 3.2895861.7803667 1.8862566.5876379 3.6657822 1.4049888 5.3393885 2.4647917.1164707.0731466.2719002.1195823.4090677.1195823 1.9657976.0078078 3.9307835.0053421 5.8949577.006575.1582703 0 .3157289.0168483.4735933.0262998 0 .0390389.0056815.0554763-.0008116.0645169-.0917156.1430056-.1846486.2839565-.27677.4261402-.6667642 1.0359687-1.2369428 2.118784-1.5729627 3.3166613-.0365239.1286228-.0442345.2362879.0417995.3620342 1.7499007 2.5449242 2.3083106 5.3384644 1.5770209 8.3498005-.6411973 2.6406722-2.1362424 4.6998704-4.4080291 6.1582809-1.6236903 1.0421327-3.4174197 1.5385429-5.333707 1.5496381-.8051492.0045203-1.6062401-.1047885-2.3927214-.3110782-1.9162874-.5033961-3.5590513-1.4707385-4.9128706-2.9361349-.1785613-.1923178-.3465712-.3932653-.5369013-.6102393-.7158685 1.0803497-1.420374 2.1430291-2.1419239 3.2336522-.7187093-1.0873356-1.413475-2.1397417-2.1066175-3.1884493-.0478869.0258889-.0620907.0287655-.0710187.0378061-.015827.012739-.0292191.0287654-.0422054.0439701-1.6370824 1.958519-3.6970305 3.1588619-6.2066284 3.560346-1.3960246.223549-2.7786572.1434165-4.1345056-.2354661-1.921563-.5346272-3.55458726-1.5611443-4.87391175-3.075442-1.28929372-1.4814229-2.09119627-3.2003665-2.39231555-5.1551871-.34454214-1.8245541.07507691-3.5841803.17977876-4.0111424.3035542-1.2406146.83274495-2.38055 1.55916477-3.4284357.05113346-.0739684.06898959-.2058788.04464033-.2942299-.29624943-1.1000746-.80677241-2.1011137-1.40454693-3.0594156-.1517771-.2432738-.33358496-.4688775-.50159491-.7031108v-.0809543c.03368315.0041094.06696048.0102734.099832.0102734 2.01124951.0008219 4.0220932.0016437 6.03334268-.0020547.0876574 0 .1850545-.0365733.2597255-.0850637 1.4130692-.918441 2.9186656-1.6453861 4.5005564-2.2116554 1.1407631-.4076481 2.305064-.7257122 3.4933082-.9587127 1.1500971-.2251927 2.3062815-.3842248 3.4746405-.4618916 2.8484585-.2219052 5.1251151.0834199 6.6396395.2979283zm8.6704901 13.3507223c-.0012174-1.8040073-1.4418824-3.2702255-3.2108567-3.2702255-1.7896712 0-3.246569 1.4584105-3.2542796 3.2570756-.0060874 1.7908573 1.4581153 3.2809098 3.230742 3.285841 1.7758732.006986 3.235206-1.4719713 3.2343943-3.2726911zm-3.223843-5.002319c2.7332053-.0045203 4.9469596 2.2252162 4.9469596 4.989991 0 2.775459-2.1760129 4.9209538-4.7432374 5.0204002-2.8675321.1109526-5.1612331-2.2022039-5.1604215-5.0080722.002435-2.8379212 2.3127747-5.0491657 4.9566993-5.002319zm-16.8294428 4.9910594c-.0056814-1.8151026-1.4548687-3.2615959-3.2644251-3.2587193-1.7458425.0032875-3.208016 1.4949837-3.2039578 3.2689927.0040582 1.7949667 1.4654201 3.2702255 3.2433224 3.2751567 1.7665394.0045203 3.2295246-1.4855322 3.2250605-3.2854301zm-3.2205964-4.9912238c2.7319878-.0024656 4.9489886 2.2309694 4.9420897 4.9957441-.0077106 2.7976495-2.1861584 4.8967086-4.7079309 5.0125924-2.8784893.1331432-5.20100361-2.1898758-5.19572794-5.0109487.0056815-2.8580571 2.33184824-5.0450563 4.96156914-4.9973878zm20.0522712 3.3418516c.9057928-.0008219 1.6484454.7516012 1.6399232 1.6634673-.0085222.9139208-.7390003 1.6544267-1.6297776 1.6548376-.9171558 0-1.6545328-.7339309-1.6525037-1.6433314.0016233-.9435082.7178976-1.6741517 1.6423581-1.6749735zm-20.0603876-.0148348c.9195906-.0008219 1.6585909.7433825 1.6622433 1.6712751.0032466.9209067-.7422469 1.6762063-1.6573735 1.678261-.937041.0020547-1.6598084-.7310545-1.6589968-1.684836 0-.9365222.7211442-1.6634673 1.654127-1.6647001z" fill="#020203" fill-rule="evenodd"/></svg>