<svg viewBox="0 0 50 50" xmlns="http://www.w3.org/2000/svg"><path d="m8.5 39v1c-4.68751202 0-8.5-3.812488-8.5-8.5s3.81248798-8.5 8.5-8.5c4.687512 0 8.5 3.812488 8.5 8.5s-3.812488 8.5-8.5 8.5zm0 0v-1c3.5829425 0 6.5-2.9170575 6.5-6.5s-2.9170575-6.5-6.5-6.5c-3.58294252 0-6.5 2.9170575-6.5 6.5s2.91705748 6.5 6.5 6.5zm24 0v1c-4.687512 0-8.5-3.812488-8.5-8.5s3.812488-8.5 8.5-8.5 8.5 3.812488 8.5 8.5-3.812488 8.5-8.5 8.5zm0 0v-1c3.5829425 0 6.5-2.9170575 6.5-6.5s-2.9170575-6.5-6.5-6.5-6.5 2.9170575-6.5 6.5 2.9170575 6.5 6.5 6.5zm1.354121-18.5185771c.0334515.5512708-.3863239 1.0252818-.9375947 1.0587333-.5512707.0334515-1.0252818-.386324-1.0587333-.9375947-.2367264-3.9011811-1.2395477-5.6025615-2.857793-5.6025615-.5522847 0-1-.4477153-1-1s.4477153-1 1-1c2.9937339 0 4.5615505 2.6599477 4.854121 7.4814229zm-14.954001-20.4814229c1.905 0 3.45 1.53671642 3.45 3.43283582s-1.545 3.43283582-3.45 3.43283582c-1.9056 0-3.45-1.53671642-3.45-3.43283582s1.5444-3.43283582 3.45-3.43283582zm-10.61261003 17.8586131c.28285798-.3707154.7129904-.958024 1.28786956-1.7587255 1.15691827-1.6113755 2.89486927-4.0796495 5.21278167-7.40335633l.6087214-.87285945 10.0804429 8.00452528-1.2437135 1.566262-8.4139547-6.6812255c-2.020636 2.8935481-3.5602485 5.0775425-4.6196462 6.5530897-.2230003.3105986-.424908.5900687-.6058628.8385872 5.4542308.8168544 9.2605974 5.1738138 11.3702051 12.8619172l-1.9287068.5292352c-2.1265245-7.7497537-5.8757528-11.4984885-11.31455046-11.5319694-.33131657.0162923-.36725093-.0094387-.8281516-.3394692-.24163173-.4253003-.24163173-.4253003-.2454836-.6607571v-1h.55918481c.02525761-.0326237.05223581-.0677336.08086422-.1052541z" transform="translate(4 5)"/></svg>