<svg viewBox="0 0 50 50" xmlns="http://www.w3.org/2000/svg"><path d="m8.5 33v1c-4.68751202 0-8.5-3.812488-8.5-8.5s3.81248798-8.5 8.5-8.5c4.687512 0 8.5 3.812488 8.5 8.5s-3.812488 8.5-8.5 8.5zm0 0v-1c3.5829425 0 6.5-2.9170575 6.5-6.5s-2.9170575-6.5-6.5-6.5c-3.58294252 0-6.5 2.9170575-6.5 6.5s2.91705748 6.5 6.5 6.5zm24 0v1c-4.687512 0-8.5-3.812488-8.5-8.5s3.812488-8.5 8.5-8.5 8.5 3.812488 8.5 8.5-3.812488 8.5-8.5 8.5zm0 0v-1c3.5829425 0 6.5-2.9170575 6.5-6.5s-2.9170575-6.5-6.5-6.5-6.5 2.9170575-6.5 6.5 2.9170575 6.5 6.5 6.5zm-6.0718169-27.05712c-1.5844068 0-2.8602712-1.2852-2.8602712-2.8812 0-1.5876 1.2758644-2.8728 2.8602712-2.8728 1.5760677 0 2.8602711 1.2852 2.8602711 2.8728 0 1.596-1.2842034 2.8812-2.8602711 2.8812zm-2.9356178 13.1868445c.473511.2680015.6458607.8653995.3878714 1.3444391l-3.8945312 7.2314453c-.2618734.4862518-.8683486.6681465-1.3546004.4062731-.4862518-.2618733-.6681464-.8683485-.4062731-1.3546003l3.4302318-6.3693246-11.3275166-6.4112363c-.678564-.384059-.67606847-1.3624599.0044459-1.7430523l10.438379-5.83789065c.4470724-.25003496 1.010795-.12180924 1.3057294.29700438l4.7765458 6.78280367h4.1471527c.5522847 0 1 .4477153 1 1 0 .5522848-.4477153 1-1 1h-4.6660156c-.3253168 0-.6303016-.1582453-.81761-.4242275l-4.5562887-6.47003362-8.1003951 4.53032222z" transform="translate(4 9)"/></svg>