<svg viewBox="0 0 50 50" xmlns="http://www.w3.org/2000/svg"><path d="m34.4974235 26.7264996c.064457-.3189161.0981129-.675199.0981129-1.0726993v-2.6699009c-.0281902-.0640339-.0579045-.1265763-.08914-.1876504-.0073147-.0143023-.0142616-.0286023-.0208472-.0428946-.0077416-.0127946-.0152308-.0258149-.0224581-.0390573-.7700586-1.4109571-2.511348-2.156147-5.3777719-2.156147h-7.6243446c-.1573335 0-.312447-.0371238-.4527329-.1083538-3.5207465-1.7876571-5.8802959-3.8104076-7.0501901-6.1057323-.133844-.2626011-1.0436685-2.1230201-1.2757979-2.5476345-.7891555-1.4435351-1.375947-1.86936831-2.75843879-1.86936831h-2.24417828l-.00000866-.58954618-.21973426.50711092c-.19021424-.082421-.37164309-.158902-.54416073-.2294314.00998445.07942995.01504965.16124532.01504965.24585077 0 .6534625-.40733699 3.4892856-1.25163431 8.7761795.69843849.5029306 1.13936878.5092009 1.51095394.176206.09916442-.0888659.18114905-.1775954.24867891-.2668916.22484204-.2973135.28313293-.5286172.33682368-1.1684395.06421674-.7652586.15661721-1.1218039.59569093-1.5214266.61310878-.5580206 1.06429068-.9026632 1.6048892-1.1077522 1.25066122-.4744685 2.22776222.3207374 2.22776222 1.8473025 0 .5569-.0164473.8496671-.1215392 2.429995-.0568178.8544016-.0870527 1.3988453-.1044179 1.9643388-.0413064 1.3451345.0165111 2.3889745.2005048 3.1888246.3356739 1.4592281 1.9086743 5.6938506 4.6867304 12.594974-.3126637-3.9205471-.4675113-6.1863112-.4675113-6.8574057 0-1.1516209.9285216-1.535803 1.8775832-1.2491931.2247226.0678647.4636401.1679402.7719441.3152562.1680789.0803126.7973021.3947622.7713786.38196.2536135.1252457.4526807.218808.6402937.2993093.4471763.191875.7849227.2860353 1.002061.2860353.8821299 0 1.9761361-.3049911 3.2700593-.9330029.6006211-.2915144 1.3127726.0761535 1.4229349.7346295.4162204 2.4878847.8086166 4.0310082 1.0724772 4.4297941.4448728.672359.2563829 1.2914644-.2894968 2.2101534-.2217399.3731774-1.2466254 1.8879619-1.256641 1.9032586-.6403711.9780296-1.0489521 1.7428202-1.2700617 2.445861h.982227v-1.0892722c0-.3095215.1433296-.6015974.388154-.7909769 1.9302418-1.4931037 2.9007498-2.5941073 2.9007498-2.9401566 0-2.2363592.6008033-4.6553946 1.9930728-5.7550382.2260718-.1785563.4793375-.3355383.8022206-.5078369.9910929-.5288724 1.9514353.7194255 1.2255132 1.5387074 1.2157687.6721154 2.1560198 2.00927 2.8787435 3.7932062.2341804.5780397.4348895 1.1800911.6052114 1.7895145v-2.8243612c-1.4862983-1.1812509-1.9788262-3.4120855-1.6162296-6.5984213-.0869708-.1809359-.1198547-.3955074-.0724857-.6298767zm1.8330053 13.0334021c-.1931077.1745892-.4727569.5944005-.8160636 1.2400983h.729918c.1500263-.3463679.3793526-.6419102.6685837-.8841397-.110406-.2308672-.2110616-.4919812-.3039724-.7827922-.0536168.1615656-.1483736.309217-.2784657.4268336zm-20.3378132.9811098h.180807l.9033511-1.3544448c-.0342154-.4171046-.067128-.8205-.0987401-1.2102313-.1852085 1.134558-.4973476 1.9920655-.985418 2.5646761zm-.4808622.251162c-.0840941-.0744268-.1372908-.1332056-.160929-.1685966.0184158.0412866.0320994.0957772.0320994.1717806 0 .0647969-.0075999.118785-.0173606.1619949zm-7.83212543-31.65465849.17785216-.41045382v-1h-.17787286zm31.89650973 17.06077229c.0393546.108947.0594808.2239033.0594808.3397404v4.7819908c0 1.500421.8207078 2.7093356 2.0423103 2.7093356.6213617 0 1.4343195-.4541775 2.2829886-1.2396295.0244956-.0226709.0488785-.0454814.0731438-.0684208-.8148268-.2908703-1.4171353-.7997234-1.7683791-1.5443736-.0719202-.1524736-.1041257-.3206549-.093623-.4889119.1614412-2.5863406-.4032059-4.753928-1.6868838-6.5428211-.823082-1.1470209-1.8367319-1.6668695-3.1465111-1.5653832 1.0084868 1.0795738 1.7565009 2.2869742 2.2374735 3.6184733zm-2.9272114.4867042c-.4784327 3.220098-.0590475 5.0575114 1.0275074 5.6687536.0188351.0105958.0372408.0217499.055201.0334351-.0634836-.3462694-.0960162-.7040725-.0960162-1.0671617v-4.6017259c-.2588486-.6726198-.604995-1.3074029-1.0400821-1.9052814v.6407891c0 .2266631-.008537.4462256-.0255527.6589162.0776739.1656348.1105352.3596408.0789426.572275zm1.5372125 10.4899613c.1645004.8517821.3480359 1.4761849.5355323 1.8563598.0420101.0851813.0799679.1494892.110212.1931694 1.0614597.1804911 1.1041706 1.8209527-.0654274 1.9753065-.0825911.0108997-.2657785.0616059-.4330237.156343-.2059956.1166874-.287934.2343038-.287934.4438685 0 .5522847-.4477153 1-1 1h-3.1285801c-.7263332 0-1.2103756-.7498983-.9112786-1.4117903.5996841-1.3270814 1.1134877-2.2733718 1.5856297-2.8762338-.0340186-.1735991-.0774646-.3788279-.1309615-.6093885-.1876504-.8087341-.4309502-1.6163166-.7330372-2.3619735-.6856694-1.6924731-1.5327488-2.7323667-2.4887875-2.9740767-.3523626.8674019-.5571055 2.0678586-.5571055 3.1540686 0 1.1696984-1.0932626 2.4733331-3.2889038 4.2179205v1.6024852c0 .5522848-.4477153 1-1 1h-3.1552086c-.5522847 0-1-.4477152-1-1 0-.4866348.0810387-.984815.2338416-1.4978944.2833024-.9512691.7758035-1.8825553 1.5359603-3.043532.0404733-.0618141 1.0240935-1.5156086 1.2105083-1.8293355.0851502-.1433036.1477439-.2610929.1882645-.3506068-.3466491-.6847672-.6671422-1.8855403-1.0028766-3.6812208-1.0675291.4055626-2.0466212.6118958-2.9419884.6118958-.5473413 0-1.1156608-.1584417-1.7906914-.4480848-.2257979-.0968857-.4544463-.2043513-.7372493-.344012.0074779.0036929-.2673723-.1336758-.492975-.2454209.0868745 1.4843307.3071655 4.3859993.6585 8.6569548.0184909.2247815-.0395486.4492131-.1646933.6368496l-1.3934464 2.0892722c-.185482.2781034-.4976574.4451348-.8319403.4451348h-1.8594785c-.2441723 0-.4799076-.089336-.6627531-.251162-1.1018468-.9751806-1.1018468-2.2591678.1844928-2.959683.2344918-.1276996.509301-.7625149.671376-1.9289536-2.8484143-7.0731361-4.4417661-11.3608893-4.8127166-12.9734705-.23039242-1.0015528-.29658809-2.1966524-.25046711-3.6985723.01827716-.595192.04959821-1.1591937.10788321-2.0356588.0774684-1.1649363.1050249-1.6057335.1136472-1.9698629-.1438938.1121836-.30547355.2505821-.4829644.4121253.08125443-.0739537.07184745-.037655.05110168.2095684-.08323053.9918421-.21717381 1.5233417-.73461385 2.2075639-.14591987.192953-.31528247.376249-.50912824.5499633-1.3134804 1.1770714-2.94560741.9244112-4.58034924-.4936256-.26126183-.2266284-.38687132-.5721687-.33213316-.9136682.86796923-5.4150716 1.31840704-8.5260785 1.31840704-9.0345302 0 .03917837-.10111813-.10104895-.34884397-.31667093-.05638413-.04907707-.47610999-.39201744-.58406736-.49378637-.17354334-.16359531-.29172325-.30751079-.3771618-.52872677-.20832816-.53939957.03217862-1.11752892.542854-1.36508345.7620145-.36939344 1.90791699-.08078275 3.89994289.77028341h1.86030852c2.19464459 0 3.40111229.87553071 4.51332319 2.91000341.2580488.4720268 1.1871814 2.3719271 1.302811 2.5987917.9277198 1.82018 2.9063457 3.5392858 5.9624702 5.1222938h7.3828999c3.1161891 0 5.3755554.8118343 6.6718821 2.4903166 2.6234324-.73072 4.8120623-.0165575 6.3529034 2.1307099 1.5090923 2.1030232 2.1985279 4.621159 2.0746522 7.5183892.2703113.3288932.8364231.5203546 1.8152431.5203546.8168296 0 1.2890993.9262868.8093221 1.5873651-.0232554.0320433-.0627716.0847738-.1175358.1553076-.0880216.1133676-.1891632.2386031-.3024618.372844-.3227351.3823899-.6814914.7646187-1.0699195 1.1241129-1.1849614 1.096694-2.3933788 1.7718041-3.6414762 1.7718041-1.6299355 0-2.8388075-.928177-3.49179-2.2519578zm-33.1861388-10.2724491v1.1607541c.14615265-.3710784.50779887-.6336956.93078263-.6336956h5.14383117l-.6675486-2.2887363c-2.63093321.088378-4.41827766.6963985-5.4070652 1.7616778zm0 4.5619949v-.0862859c-.00846404-.0361227-.01688866-.0724758-.02527341-.1090595l.01732771.1531661c.00256829.0140633.00521688.028123.0079457.0421793zm1.71346415 3.8622638.37581065-.5980232c-.92673521-.8564909-1.56531094-1.7168132-1.89574365-2.5887237.43908986 1.5936695.96350398 2.6460815 1.519933 3.1867469zm.21731848-4.5764446c0 .8322515.66120144 1.8481938 2.09141709 3.0059798.39343341.3184917.48683104.8807409.21749798 1.3093275l-1.34521588 2.1406266c-.23893685.3802174-.70202553.5545321-1.13237248.4262448-1.78169095-.5311257-2.96273613-2.5390486-3.73683593-5.916541-.01679537-.0732803-.02527341-.1482208-.02527341-.2234012v-4.9545266c0-.2203627.07278811-.4345548.20705307-.6092907 1.46685979-1.9090098 4.14044101-2.8090807 7.94938853-2.7990626.4434689.0011664.833198.2942647.9573698.7199963l1.254136 4.2998913c.1866668.6400001-.2933332 1.2800002-.96 1.2800002h-5.47716477z"/></svg>