<svg viewBox="0 0 50 50" xmlns="http://www.w3.org/2000/svg"><path d="m10.8225403 14.160237-.7970214 9.514443 8.8968751 13.4227433c.3051257.4603442.1792963 1.0808801-.2810478 1.3860059-.4603441.3051257-1.0808801.1792963-1.3860058-.2810478l-9.08886721-13.7124024c-.12434753-.1876035-.18177126-.4116699-.16298287-.6359563l.91141006-10.8799576-4.91490038 3.487816v6.4756189c0 .5522847-.44771525 1-1 1s-1-.4477153-1-1v-6.9921875c0-.324039.15701201-.6279908.42127261-.8155211l6.96875-4.9453125c.46411067-.32935204 1.10913019-.20552951 1.41829509.272266l4.1732529 6.4495088 6.3571285 3.1343371c.4953493.2442284.6989229.8437746.4546945 1.3391239-.2442285.4953493-.8437747.698923-1.3391239.4546945l-6.6045931-3.2563476c-.1619507-.0798487-.2992599-.2020573-.3973529-.3536542zm5.1774597-10.66041871c0 1.93271377-1.5673866 3.50018171-3.5 3.50018171-1.93225 0-3.5-1.56746794-3.5-3.50018171 0-1.93235035 1.56775-3.49981829 3.5-3.49981829 1.9326134 0 3.5 1.56746794 3.5 3.49981829zm-10.25874043 25.17254371-.0730803.1089683-.04249624.1241326zm.68373986-2.101722c.1788802-.5225135.74747211-.8010833 1.26998557-.6222031.52251347.1788802.80108327.7474721.62220307 1.2699856l-.79931641 2.3348229c-.02820994.0824019-.06706423.1607653-.11557654.2331009l-5.01855469 7.4830482c-.30761825.4586823-.92882759.5811439-1.38750989.2735256-.45868231-.3076182-.58114391-.9288276-.27352566-1.3875099l4.94547439-7.3740799z" fill="#1d1d1b" fill-rule="evenodd" transform="translate(15 6)"/></svg>