<svg id="Icons" xmlns="http://www.w3.org/2000/svg" viewBox="0 0 200 200"><title>057-mobile</title><path d="M94.78,165.28a2.61,2.61,0,0,1,2.61-2.62h5.22a2.62,2.62,0,0,1,0,5.23H97.39A2.62,2.62,0,0,1,94.78,165.28ZM107.84,32.09H92.16a2.62,2.62,0,0,0,0,5.23h15.68a2.62,2.62,0,0,0,0-5.23Zm49.62,0V167.91a15.68,15.68,0,0,1-15.67,15.67H58.21a15.66,15.66,0,0,1-15.67-15.67V32.09A15.67,15.67,0,0,1,58.21,16.42h83.58A15.67,15.67,0,0,1,157.46,32.09ZM147,157.44H53v10.47a5.22,5.22,0,0,0,5.22,5.22h83.58a5.22,5.22,0,0,0,5.22-5.22Zm0-109.68H53V152.22h94Zm0-15.67a5.22,5.22,0,0,0-5.22-5.22H58.21A5.22,5.22,0,0,0,53,32.09V42.54h94Z"/></svg>