<svg height="476pt" viewBox="0 0 476.76426 476" width="476pt" xmlns="http://www.w3.org/2000/svg"><path d="m451.023438 26.117188c-34.386719-34.3125-90.058594-34.3125-124.449219 0v.046874l-285.582031 285.550782c-.648438.683594-1.171876 1.472656-1.542969 2.335937-.101563.214844-.195313.433594-.273438.65625-.097656.21875-.1875.4375-.261719.664063l-38.65625 151.761718c-.714843 2.742188.082032 5.660157 2.085938 7.664063s4.921875 2.796875 7.664062 2.085937l151.753907-38.640624c.230469-.0625.429687-.183594.65625-.261719.230469-.078125.457031-.171875.679687-.273438.859375-.371093 1.648438-.894531 2.328125-1.542969l285.542969-285.558593.054688-.042969c34.320312-34.382812 34.320312-90.0625 0-124.445312zm-11.3125 11.308593c25.886718 25.949219 28.1875 67.183594 5.351562 95.851563l-101.191406-101.203125c28.664062-22.835938 69.898437-20.53125 95.839844 5.351562zm-107.472657 5.707031 101.808594 101.757813-28.679687 28.6875-101.808594-101.804687zm-303.445312 376.800782c12.628906 5.671875 22.742187 15.78125 28.414062 28.414062l-38.117187 9.703125zm44 24.421875c-7.367188-18.199219-21.800781-32.632813-40-40l18.144531-71.382813 93.230469 93.238282zm86.976562-25.199219-101.808593-101.785156 234.289062-234.289063 101.804688 101.808594zm0 0"/></svg>