<svg xmlns="http://www.w3.org/2000/svg" viewBox="0 0 512 512" style="enable-background:new 0 0 512 512" xml:space="preserve"><path d="M432 125.656h-16v32h16c26.51 0 48 21.49 48 48v160c0 26.51-21.49 48-48 48H80c-26.51 0-48-21.49-48-48v-160c0-26.51 21.49-48 48-48h105.376l-36.688 36.688 22.624 22.624 75.312-75.312-75.312-75.312-22.624 22.624 36.688 36.688H80c-44.161.053-79.947 35.839-80 80v160c.053 44.161 35.839 79.947 80 80h352c44.161-.053 79.947-35.839 80-80v-160c-.053-44.161-35.839-79.947-80-80z"/><path d="M352 125.656h32v32h-32zM288 125.656h32v32h-32z"/></svg>