<svg id="Icons" xmlns="http://www.w3.org/2000/svg" viewBox="0 0 200 200"><title>068-empreinte-animale</title><path d="M73.26,92.64c13.35,0,24.21-14.57,24.21-32.48S86.61,27.68,73.26,27.68s-24.2,14.57-24.2,32.48S59.92,92.64,73.26,92.64Z"/><path d="M145.05,124.23a12.88,12.88,0,0,1-1.23-1.87c-5.41-11.58-20.25-25.23-44.27-25.58h-.93c-23.66,0-38.39,12.93-44.28,25a9.15,9.15,0,0,1-1.13,1.52,20.53,20.53,0,0,0-1.59,2.09c-5,7.74-7.51,16.46-7.14,24.54.4,8.58,4,15.48,10.11,19.4a14.44,14.44,0,0,0,7.93,2.39c5.77,0,11-3.25,17.16-7A88.6,88.6,0,0,1,92.05,158a28.57,28.57,0,0,1,5.91-.41,36,36,0,0,1,7.46.56,81.11,81.11,0,0,1,11.88,6.88c5.68,3.73,11,7.26,16.84,7.26a14.38,14.38,0,0,0,7.2-1.95c12.58-7.15,15-26.76,5.35-43.72a24,24,0,0,0-1.64-2.43Z"/><path d="M124.73,92.64c13.34,0,24.2-14.57,24.2-32.48s-10.86-32.48-24.2-32.48-24.2,14.57-24.2,32.48S111.38,92.64,124.73,92.64Z"/><path d="M164.47,76c-10.69,0-19.07,11.1-19.07,25.26s8.38,25.25,19.07,25.25,19.07-11.1,19.07-25.25S175.16,76,164.47,76Z"/><path d="M54.6,101.21C54.6,87.05,46.22,76,35.53,76s-19.07,11.1-19.07,25.26,8.38,25.25,19.07,25.25S54.6,115.36,54.6,101.21Z"/></svg>