<svg id="Icons" xmlns="http://www.w3.org/2000/svg" viewBox="0 0 200 200"><title>069-telephone</title><path d="M169.52,157.16l-22,22-37.3-37.3,22-22a5.4,5.4,0,0,1,7.65,0l29.65,29.64A5.43,5.43,0,0,1,169.52,157.16Z"/><path d="M79,66.67,58.49,87.22l-37.3-37.3L41.73,29.38a5.41,5.41,0,0,1,7.66,0L79,59A5.41,5.41,0,0,1,79,66.67Z"/><path d="M91.24,134.49c12.46,12.45,21.24,5,21.24,5l35.12,39.57c-38.18,22.58-90.4-37.41-90.4-37.41s-58.58-53.53-36-91.72L59.36,86.35s-7.49,8.82,5,21.26,13.46,13.44,13.46,13.44,1,.94,13.45,13.44Z"/><path d="M137.87,62.19A39.82,39.82,0,0,1,149.4,86.54h10.69a50.64,50.64,0,0,0-47.46-46.62V50.59a39.92,39.92,0,0,1,25.24,11.6Z"/><path d="M153.92,45.8a60.83,60.83,0,0,1,17.59,37.12H184c-1.38-17.72-7.77-32.17-21.33-45.73-13.89-13.89-29-20.21-47.2-21.32l0,12.25A60.77,60.77,0,0,1,153.91,45.8Z"/></svg>