<svg id="Icons" xmlns="http://www.w3.org/2000/svg" viewBox="0 0 200 200"><title>070-appareil-photo</title><path d="M72.28,29.17h55.59c14.32,1.75,14.8,17.35,20.32,27.89,14.61,3.26,34.33,1.4,35.86,17.74v81.69c-1.47,8.36-6.36,13.3-15.14,14.34H31.43a16.19,16.19,0,0,1-13.55-8.76C15,156.43,16.29,145,16.29,136.36V94.92c0-7.17-.76-14.56,0-20.92s6-11,10.56-12.55C31.13,60,35,60,39.41,59.25c3.61-.6,8-1.47,12.75-2.19,5.27-10.74,6-26,20.12-27.89Zm63,23.71c-1.33-3.33-3.51-11.12-6.58-12.55-2.72-1.27-9.14-.6-13.35-.6H87c-4.64,0-10-.75-14.15,0-4,.73-6.25,9-7.77,12.75-2.23,5.57-3.62,10-5.58,14-6,1-10.34,1.81-16.34,2.79-4.59.75-13,.9-15.34,3.79s-1.19,14.55-1.19,20.72V138c0,6.09-1.11,18,1.39,20.72,2.37,2.54,11.47,1.59,16.94,1.59H156.16c5.63,0,14.38,1,16.54-2.19,2-2.94.79-14.93.79-20.53V84.36c0-3.64.48-8.51-.4-10.36-1.79-3.82-10.31-3.73-15.34-4.59-6.31-1.07-10.7-2-17.13-3-2.11-4.88-3.55-9-5.39-13.55Z"/><path d="M95.11,64a41.57,41.57,0,0,1,43.44,40.25c.32,13.59-4.57,23.13-11.36,30.48a40.75,40.75,0,0,1-28.89,13c-13,.3-23.21-4.37-30.49-11.36a40.7,40.7,0,0,1-13.14-28.69A42.4,42.4,0,0,1,78,68.19,44.52,44.52,0,0,1,95.11,64ZM73.19,84.73a31.71,31.71,0,0,0,1.8,44c7.4,6.84,20.45,11.17,32.87,6.58a31.27,31.27,0,0,0,19.53-36.26c-3.07-14.19-15.53-25.95-33.07-24.51A31.83,31.83,0,0,0,73.2,84.73Z"/><path d="M93.92,85.13c2.47-.29,5.25-.55,5.38,2.19.14,3.09-3.73,2.65-5.58,3C86.88,91.57,82.07,97,81,104.85c-.29,2-.63,3.68-2.79,3.59-3.69-.16-2.56-5.82-1.4-9.37A19.83,19.83,0,0,1,93.92,85.13Z"/></svg>