<svg id="Icons" xmlns="http://www.w3.org/2000/svg" viewBox="0 0 200 200"><title>071-pinterest</title><path d="M164.25,62.9c-4.56-33-37.49-49.85-72.61-45.92C63.87,20.1,36.19,42.55,35,74.66c-.7,19.6,4.86,34.31,23.5,38.43,8.08-14.29-2.6-17.42-4.27-27.77-6.84-42.31,48.81-71.2,78-41.64,20.17,20.48,6.89,83.43-25.63,76.88C75.45,114.32,121.85,64.2,97,54.37c-20.21-8-30.94,24.44-21.36,40.57C70,122.68,57.92,148.8,62.82,183.58,78.71,172.06,84.06,150,88.45,127c8,4.86,12.26,9.89,22.44,10.67,37.53,2.9,58.51-37.48,53.36-74.75Z"/></svg>