<svg id="Layer_1" enable-background="new 0 0 512 512" height="512" viewBox="0 0 512 512" width="512" xmlns="http://www.w3.org/2000/svg"><path d="m416.667 224.936c-7.701 0-15.189.924-22.365 2.656l-37.915-90.996 32.891-10.963c7.859-2.62 12.106-11.115 9.486-18.974-2.62-7.858-11.11-12.109-18.974-9.486l-49.225 16.451c-7.647 3.187-11.263 11.968-8.077 19.615l9.425 22.619-131.473 34.182-13.504-31.504h20.864c8.284 0 15-6.716 15-15s-6.716-15-15-15h-64.267c-8.284 0-15 6.716-15 15s6.716 15 15 15h10.763l19.972 46.594-29.072 33.918c-14.516-8.944-31.596-14.112-49.862-14.112-52.567 0-95.334 42.766-95.334 95.333s42.767 95.333 95.333 95.333c47.464 0 86.933-34.868 94.149-80.333h50.45c4.792 0 9.296-2.29 12.12-6.163l96.756-132.695 17.812 42.75c-27.158 16.818-45.289 46.883-45.289 81.107 0 52.567 42.766 95.333 95.333 95.333s95.336-42.765 95.336-95.332-42.767-95.333-95.333-95.333zm-321.334 160.667c-36.024 0-65.333-29.309-65.333-65.334s29.309-65.333 65.333-65.333c10.802 0 20.991 2.651 29.976 7.313l-41.365 48.259c-3.813 4.448-4.687 10.708-2.239 16.03s7.77 8.732 13.628 8.732h63.575c-6.798 28.815-32.712 50.333-63.575 50.333zm32.614-80.334 59.492-69.408 29.746 69.408zm115.392-15.131-30.946-72.209 103.155-26.821zm173.328 95.465c-36.025 0-65.333-29.309-65.333-65.333 0-21.731 10.675-41.006 27.045-52.89l24.441 58.659c3.186 7.647 11.969 11.263 19.615 8.077 7.647-3.187 11.263-11.968 8.077-19.615l-24.454-58.69c3.455-.567 6.995-.875 10.608-.875 36.025 0 65.333 29.309 65.333 65.333s-29.308 65.334-65.332 65.334z"/></svg>