<svg id="Icons" xmlns="http://www.w3.org/2000/svg" viewBox="0 0 200 200"><title>075-ventilateur</title><path d="M172.39,81a25.89,25.89,0,0,0-31.47-18.69c-10.49,2.67-29.64,14.4-36.8,26l-.88-.28c0-13.59-10-33.59-17.46-41.38A25.89,25.89,0,0,0,48.36,82.42c7,7.3,24.52,17.27,37.86,19a13.44,13.44,0,0,0,.68,3.88c-10.63,8.28-20.7,26-23,35.88a25.89,25.89,0,0,0,50.47,11.59c2.27-9.89.94-30.22-5-42.32a13.5,13.5,0,0,0,1.68-2.09c12.21,5.75,32.74,6.64,42.64,4.12A25.89,25.89,0,0,0,172.39,81ZM100,113.78a12.58,12.58,0,1,1,12.59-12.58A12.6,12.6,0,0,1,100,113.78Z"/><path d="M100,96.1a5.1,5.1,0,1,0,5.09,5.1A5.1,5.1,0,0,0,100,96.1Z"/></svg>