<svg id="Icons" xmlns="http://www.w3.org/2000/svg" viewBox="0 0 200 200"><title>076-qrcode</title><path d="M68.69,26.94H26.94V68.69H68.69ZM79.12,16.5h0V79.12H16.5V16.5ZM37.37,37.37H58.25V58.25H37.37ZM173.06,26.94H131.31V68.69h41.75ZM183.5,16.5h0V79.12H120.88V16.5ZM141.75,37.37h20.88V58.25H141.75ZM68.69,131.31H26.94v41.75H68.69Zm10.43-10.43h0V183.5H16.5V120.88ZM37.37,141.75H58.25v20.88H37.37ZM89.56,16.5H100V26.94H89.56ZM100,26.94h10.44V37.37H100ZM89.56,37.37H100V47.81H89.56ZM100,47.81h10.44V58.25H100ZM89.56,58.25H100V68.69H89.56ZM100,68.69h10.44V79.12H100ZM89.56,79.12H100V89.56H89.56Zm0,20.88H100v10.44H89.56ZM100,110.44h10.44v10.44H100ZM89.56,120.88H100v10.43H89.56ZM100,131.31h10.44v10.44H100ZM89.56,141.75H100v10.44H89.56ZM100,152.19h10.44v10.44H100ZM89.56,162.63H100v10.43H89.56ZM100,173.06h10.44V183.5H100ZM173.06,100H183.5v10.44H173.06ZM26.94,100H37.37v10.44H26.94ZM37.37,89.56H47.81V100H37.37Zm-20.87,0H26.94V100H16.5Zm41.75,0H68.69V100H58.25ZM68.69,100H79.12v10.44H68.69ZM79.12,89.56H89.56V100H79.12ZM110.44,100h10.44v10.44H110.44Zm10.44-10.44h10.43V100H120.88ZM131.31,100h10.44v10.44H131.31Zm10.44-10.44h10.44V100H141.75ZM152.19,100h10.44v10.44H152.19Zm10.44-10.44h10.43V100H162.63Zm10.43,31.32H183.5v10.43H173.06Zm-62.62,0h10.44v10.43H110.44Zm10.44-10.44h10.43v10.44H120.88Zm10.43,10.44h10.44v10.43H131.31Zm20.88,0h10.44v10.43H152.19Zm10.44-10.44h10.43v10.44H162.63Zm10.43,31.31H183.5v10.44H173.06Zm-62.62,0h10.44v10.44H110.44Zm10.44-10.44h10.43v10.44H120.88Zm20.87,0h10.44v10.44H141.75Zm10.44,10.44h10.44v10.44H152.19Zm10.44-10.44h10.43v10.44H162.63Zm10.43,31.32H183.5v10.43H173.06Zm-52.18-10.44h10.43v10.44H120.88Zm10.43,10.44h10.44v10.43H131.31Zm10.44-10.44h10.44v10.44H141.75Zm10.44,10.44h10.44v10.43H152.19Zm-31.31,10.43h10.43V183.5H120.88Zm20.87,0h10.44V183.5H141.75Zm20.88,0h10.43V183.5H162.63Z"/></svg>