<svg viewBox="0 0 100 100" fill="none" xmlns="http://www.w3.org/2000/svg"><path d="M89.4755 72.8356L84.0544 66.1641C83.4494 65.4195 82.4506 65.1166 81.5321 65.3993C67.9599 69.5748 73.4513 68.0514 57.2668 72.0348C56.4616 72.2331 55.8205 72.8392 55.5794 73.6302L51.5136 86.9729C51.0549 88.4779 52.1864 90.0001 53.765 90.0001H87.6471C88.9466 90.0001 90.0001 88.95 90.0001 87.6547V74.3119C90.0001 73.7744 89.815 73.2532 89.4755 72.8356ZM85.2942 85.3093H56.9388L59.6935 76.2692C74.7854 72.5547 69.596 73.9807 81.3992 70.3493L85.2942 75.1425V85.3093Z" fill="black"/><path d="M54.6614 54.6913C55.5803 53.7754 55.5803 52.2904 54.6614 51.3745L48.2519 44.9854C48.2519 30.7741 48.3929 31.397 47.9175 30.6041C47.7045 30.2487 47.8307 30.4135 44.7898 27.3823L48.5819 23.6023L60.4992 35.4302C56.3273 41.1721 56.7516 49.3399 62.0513 54.6227C67.8748 60.4276 77.3013 60.4285 83.1257 54.6227C88.9493 48.8176 88.9501 39.4213 83.1257 33.6156C77.7825 28.2893 69.5504 27.9309 63.8195 32.1061L42.2352 10.6834C41.6545 10.107 40.8148 9.87344 40.0185 10.0665L29.2233 12.6856C27.9607 12.9919 27.1863 14.2606 27.4936 15.5192C27.8011 16.7779 29.0738 17.5498 30.3363 17.2434L39.8498 14.9353L45.2474 20.2924L41.4623 24.0652L38.6893 21.3011C37.6066 20.2219 35.7943 20.4464 35.0079 21.7528L27.0218 35.0205C26.4662 35.9434 26.6122 37.1247 27.3756 37.8857L31.9232 42.4187L22.8183 51.4945L11.5758 55.4197C10.3494 55.8478 9.7033 57.1859 10.1329 58.4085C10.4724 59.3745 11.3817 59.9793 12.3535 59.9793C12.9196 59.9793 12.2617 60.1504 23.4448 56.246C23.7476 56.2806 22.4246 56.3425 37.8837 55.4361L42.5715 60.1089L39.555 63.1158C33.7325 58.9072 25.5211 59.4149 20.277 64.642C10.8818 74.0072 17.6269 89.993 30.8142 89.993C42.9591 89.993 50.0113 76.2319 42.8827 66.4326C48.4911 60.842 49.0698 60.2651 54.6614 54.6913ZM63.8968 38.8023L70.9283 45.781C71.3874 46.2368 71.9879 46.4644 72.5884 46.4644C74.6785 46.4644 75.7294 43.9267 74.2484 42.4569L67.2174 35.4785C68.8147 34.4878 70.6601 33.9554 72.5884 33.9554C81.6319 33.9554 86.2008 44.923 79.798 51.3055C75.8134 55.2774 69.3637 55.2779 65.3787 51.3055C61.9241 47.862 61.515 42.655 63.8968 38.8023ZM38.0239 82.3324C34.0485 86.295 27.58 86.2952 23.6045 82.3324C19.6292 78.3696 19.6292 71.9217 23.6045 67.959C26.9863 64.5881 32.2045 64.0624 36.1641 66.4958L29.1504 73.4872C28.2315 74.4031 28.2315 75.8881 29.1504 76.8041C30.0691 77.7199 31.559 77.72 32.4779 76.8041L39.4916 69.8127C41.9139 73.7292 41.4265 78.9404 38.0239 82.3324ZM37.4928 26.7421L42.5715 31.8046L35.251 39.1018L32.0024 35.8636L37.4928 26.7421ZM37.7691 50.7439L29.7552 51.2137L43.546 37.4669V44.9852L37.7691 50.7439ZM42.1277 53.033L45.899 49.2738L49.6702 53.033L45.899 56.7922L42.1277 53.033Z" fill="black"/></svg>
