<svg id="Capa_1" enable-background="new 0 0 512 512" viewBox="0 0 512 512" xmlns="http://www.w3.org/2000/svg"><g><path d="m436.833 193.344h-52.306l-40.242-60.362c-12.528-18.793-33.492-30.013-56.079-30.013h-140.29c-27.261 0-51.669 16.252-62.183 41.403l-20.769 49.683c-36.635 4.995-64.964 36.47-64.964 74.455v59.583c0 19.712 16.038 35.75 35.75 35.75h26.393c6.682 25.954 30.284 45.188 58.295 45.188s51.613-19.234 58.295-45.188h154.75c6.682 25.954 30.284 45.188 58.295 45.188s51.613-19.234 58.295-45.188h26.178c19.712 0 35.75-16.038 35.75-35.75v-59.583c-.001-41.447-33.721-75.166-75.168-75.166zm-292.067-60.233-20.078 60.233h-26.91l15.635-37.401c5.426-12.979 17.521-21.675 31.353-22.832zm174.558 16.511 29.148 43.722h-77.472v-60.375h17.208c12.532 0 24.165 6.225 31.116 16.653zm-78.324 43.722h-84.688l20.125-60.375h64.563zm-211 134.75v-44.584h15.125c8.284 0 15-6.716 15-15s-6.716-15-15-15h-12.554c6.199-17.552 22.948-30.167 42.596-30.167h.083 165.75v110.5h-62.268c-6.682-25.954-30.284-45.188-58.295-45.188s-51.613 19.234-58.295 45.188h-26.392c-3.17.001-5.75-2.579-5.75-5.749zm120.625 20.75c0 16.646-13.542 30.188-30.188 30.188s-30.187-13.543-30.187-30.188 13.542-30.188 30.188-30.188 30.187 13.542 30.187 30.188zm271.34 0c0 16.646-13.542 30.188-30.188 30.188s-30.188-13.542-30.188-30.188 13.542-30.188 30.188-30.188 30.188 13.542 30.188 30.188zm54.285-15h-26.178c-6.682-25.954-30.284-45.188-58.295-45.188s-51.613 19.234-58.295 45.188h-62.482v-110.5h105.5 60.333c19.647 0 36.396 12.615 42.596 30.167h-12.554c-8.284 0-15 6.716-15 15s6.716 15 15 15h15.125v44.583c0 3.17-2.58 5.75-5.75 5.75z"/></g></svg>