<svg viewBox="0 0 490 420" fill="none" xmlns="http://www.w3.org/2000/svg"><path d="M455 0H175C162.496 0 150.941 6.6719 144.688 17.5C138.438 28.328 138.438 41.672 144.688 52.5C150.942 63.328 162.497 70 175 70H455C467.504 70 479.059 63.3281 485.312 52.5C491.562 41.672 491.562 28.328 485.312 17.5C479.058 6.672 467.503 0 455 0Z" fill="black"/><path d="M70 35C70 54.328 54.328 70 35 70C15.672 70 0 54.328 0 35C0 15.672 15.672 0 35 0C54.328 0 70 15.672 70 35Z" fill="black"/><path d="M455 175H175C162.496 175 150.941 181.672 144.688 192.5C138.438 203.328 138.438 216.672 144.688 227.5C150.942 238.328 162.497 245 175 245H455C467.504 245 479.059 238.328 485.312 227.5C491.562 216.672 491.562 203.328 485.312 192.5C479.058 181.672 467.503 175 455 175Z" fill="black"/><path d="M70 210C70 229.328 54.328 245 35 245C15.672 245 0 229.328 0 210C0 190.672 15.672 175 35 175C54.328 175 70 190.672 70 210Z" fill="black"/><path d="M455 350H175C162.496 350 150.941 356.672 144.688 367.5C138.438 378.328 138.438 391.672 144.688 402.5C150.942 413.328 162.497 420 175 420H455C467.504 420 479.059 413.328 485.312 402.5C491.562 391.672 491.562 378.328 485.312 367.5C479.058 356.672 467.503 350 455 350Z" fill="black"/><path d="M70 385C70 404.328 54.328 420 35 420C15.672 420 0 404.328 0 385C0 365.672 15.672 350 35 350C54.328 350 70 365.672 70 385Z" fill="black"/></svg>