<svg id="Icons" xmlns="http://www.w3.org/2000/svg" viewBox="0 0 200 200"><title>080-recharger-parametres</title><path d="M26.18,101.48V98.39c.13,0,.19-.13.16-.31C27.91,68.34,42.19,48.72,61.6,36.84A76.45,76.45,0,0,1,99,26c15.62-.54,27.75,4.46,38.35,10.06,3.52-3.19,7.37-7.06,10.67-10.36.42-.42.77-1.27,1.39-1.09.11,12.38-.15,24.39-.15,36.66-12.31,0-24.38-.26-36.8-.16,2-2.54,5.5-5.54,7.88-8,.32-.33,1.11-.59.78-1.08-9.6-5.19-24.74-5.44-35.57-2.32A51.75,51.75,0,0,0,59.9,66.38,50.69,50.69,0,0,0,47.83,96.54a52.38,52.38,0,0,0,9.28,33.09C52,134.77,47,140.06,41.65,144.94,33.32,133.62,27,120.35,26.18,101.48Z"/><path d="M173.86,96.84V104c-.11,0-.18.12-.15.31-2.06,27.31-14.83,45.26-32.63,57.37a72.72,72.72,0,0,1-32.94,12.06A74.24,74.24,0,0,1,70,167.82c-2.53,2.83-5.24,6.11-7.58,9-.83,1-1.29,2.35-2.48,2.78-1.17-12.28-2.57-24.34-3.86-36.49,12.35-1.21,24.47-2.65,36.8-3.87-2.76,3.74-6.39,7.42-8.66,11.14,10.72,3.72,24.08,2.49,33.4-.78a51.45,51.45,0,0,0,22.89-16.08,51.93,51.93,0,0,0,4.95-59.08c5.48-4.72,10.91-9.5,16.7-13.91A75.46,75.46,0,0,1,173.86,96.84Z"/><path d="M105.67,66.07v9.27c3.47.86,6.69,2,9.12,3.87a78.47,78.47,0,0,0,6.65-6.5c2.51,1.93,4.42,4.45,6.81,6.5-1.92,2.51-4.45,4.42-6.5,6.81a26.63,26.63,0,0,1,3.87,9.27h9.27c.36,2.89.06,6.44.16,9.59h-9.28c-1.12,3.26-2,6.77-4,9.12a76.89,76.89,0,0,0,6.49,6.65,56.8,56.8,0,0,1-6.8,6.81q-3.15-3.34-6.5-6.5a26.41,26.41,0,0,1-9.28,3.87v9.28H96.09V125c-3.35-1.08-6.81-2.06-9.28-4-1.57,1.52-3.3,3.15-5.11,5-.25.26-1.3,1.69-1.54,1.7-.51,0-3.14-3-3.56-3.4a31.09,31.09,0,0,1-3.25-3.56q3.34-3.15,6.5-6.49a25.39,25.39,0,0,1-3.71-9.28H66.7V95.29H76a27.61,27.61,0,0,1,3.87-9.12c-1.9-2.59-4.6-4.37-6.5-7,2.31-2.07,4.34-4.42,6.65-6.5a78.47,78.47,0,0,1,6.65,6.5,28.73,28.73,0,0,1,9.43-3.87V66.07ZM90.36,100.25a10.47,10.47,0,0,0,11.9,10.2c6.25-.7,11.73-8.82,7.58-15.77a10.81,10.81,0,0,0-10.52-4.8A10.07,10.07,0,0,0,90.36,100.25Z"/></svg>