<svg viewBox="0 0 382 264" fill="none" xmlns="http://www.w3.org/2000/svg"><path d="M337.16 0H44.84C20.762 0 0.602051 19.602 0.602051 44.238V50.3982L182.042 138.878H182.601C187.64 141.679 193.8 141.679 198.839 138.878H199.397L381.397 50.3982V44.238C381.397 19.601 361.799 0 337.159 0H337.16Z" fill="black"/><path d="M191 164.08C184.281 164.08 178.121 162.4 171.961 159.041L0.601013 75.6029V219.523C0.601013 243.601 20.203 263.761 44.839 263.761H337.719C361.797 263.761 381.957 244.159 381.957 219.523L381.961 75.6029L210.601 159.603C203.878 162.4 197.718 164.079 190.999 164.079L191 164.08Z" fill="black"/></svg>