<svg id="Icons" xmlns="http://www.w3.org/2000/svg" viewBox="0 0 200 200"><title>081-restaurant</title><path d="M71.26,113.5H63.58v-7.18H62a5.62,5.62,0,0,0-5.62,5.61V178A5.62,5.62,0,0,0,62,183.62H78.77A5.62,5.62,0,0,0,84.39,178V111.93a5.62,5.62,0,0,0-5.62-5.61H77.51v7.18Z"/><path d="M145.92,106.32h-2.31v1.48l-14.45-1.48a5.62,5.62,0,0,0-5.62,5.61V178a5.62,5.62,0,0,0,5.62,5.61h16.76a5.62,5.62,0,0,0,5.62-5.61V111.93A5.62,5.62,0,0,0,145.92,106.32Z"/><path d="M143.86,21.08c0-7.44-7.93-4.71-10.41-1-6.63,10-18.09,46.83-11.15,64.42s6.86,21.81,6.86,21.81h14.45C143.65,95.43,143.86,27.91,143.86,21.08Z"/><path d="M143.61,106.32H129.16l14.45,1.48Z"/><path d="M69.83,69.56A4.7,4.7,0,0,1,66,64.94V63.27c-2.3,0-5.11,0-7.93,0v1.63a4.71,4.71,0,1,1-9.41,0V63.21h-.17c0,7.68,3.07,10.8,9.91,17.35C64,85.94,63.58,90,63.58,90v16.36h6.25Z"/><rect x="63.58" y="106.32" width="6.26" height="7.18"/><path d="M87.86,69.65a4.71,4.71,0,0,1-4.71-4.71V63.31c-2.75,0-5.48,0-7.76,0v1.67a4.7,4.7,0,0,1-4.13,4.65v36.73h6.25V90s-.43-4,5.21-9.41c6.07-5.81,9.16-8.94,9.78-14.93A4.69,4.69,0,0,1,87.86,69.65Z"/><path d="M92.57,63.2v1.15c0-.38.06-.74.06-1.15Z"/><rect x="71.26" y="106.32" width="6.26" height="7.18"/><path d="M69.83,69.56v36.76h1.43V69.59a5.42,5.42,0,0,1-.58.06A4.81,4.81,0,0,1,69.83,69.56Z"/><rect x="69.83" y="106.32" width="1.42" height="7.18"/><path d="M58,63.31V28.92a4.71,4.71,0,0,0-9.41,0V63.21C51.18,63.29,54.61,63.31,58,63.31Z"/><path d="M53.33,69.65A4.71,4.71,0,0,0,58,64.94V63.31c-3.43,0-6.86,0-9.41-.1v1.73A4.7,4.7,0,0,0,53.33,69.65Z"/><path d="M69.83,63.2h1.43v0l4.13.05V28.92a4.71,4.71,0,0,0-9.42,0V63.27l3.86-.05Z"/><path d="M71.26,63.2h0Z"/><path d="M69.83,69.56V63.22L66,63.27v1.67A4.7,4.7,0,0,0,69.83,69.56Z"/><path d="M69.83,63.2v0h0Z"/><path d="M71.26,69.59a4.7,4.7,0,0,0,4.13-4.65V63.27l-4.13-.05Z"/><path d="M70.55,63.21h-.72v6.34a4.81,4.81,0,0,0,.85.09,5.42,5.42,0,0,0,.58-.06V63.22Z"/><path d="M92.57,64.94v-.59c0,.43,0,.87-.07,1.27A5.05,5.05,0,0,0,92.57,64.94Z"/><path d="M92.57,63.2V28.92a4.71,4.71,0,0,0-9.42,0V63.31C86.59,63.31,90,63.29,92.57,63.2Z"/><path d="M83.15,63.31v1.63a4.7,4.7,0,0,0,9.35.68c0-.4,0-.84.07-1.27V63.2C90,63.29,86.59,63.31,83.15,63.31Z"/></svg>