<svg id="Icons" xmlns="http://www.w3.org/2000/svg" viewBox="0 0 200 200"><title>082-disquette</title><path d="M181.4,62.56a25.34,25.34,0,0,0-5.23-8.27L145.7,23.82a25.33,25.33,0,0,0-8.27-5.22,25.12,25.12,0,0,0-9.57-2.18h-101A10.41,10.41,0,0,0,16.42,26.87V173.13a10.41,10.41,0,0,0,10.45,10.45H173.13a10.41,10.41,0,0,0,10.45-10.45v-101a25.21,25.21,0,0,0-2.18-9.58ZM86.07,33.83a3.41,3.41,0,0,1,1-2.45,3.35,3.35,0,0,1,2.45-1h20.9a3.35,3.35,0,0,1,2.45,1,3.39,3.39,0,0,1,1,2.45V68.66a3.52,3.52,0,0,1-3.48,3.48H89.55a3.52,3.52,0,0,1-3.48-3.48Zm55.71,135.82H58.2V127.86h83.58Zm27.87,0H155.72V124.38a10.41,10.41,0,0,0-10.45-10.45H54.72a10.41,10.41,0,0,0-10.44,10.45v45.27H30.35V30.35H44.28V75.63A10.4,10.4,0,0,0,54.72,86.07h62.69a10.4,10.4,0,0,0,10.45-10.44V30.35a11.65,11.65,0,0,1,4.24,1.09,11.82,11.82,0,0,1,3.7,2.17L166.38,64.2A11.7,11.7,0,0,1,168.56,68a12.1,12.1,0,0,1,1.09,4.19Z"/></svg>