<svg id="Icons" xmlns="http://www.w3.org/2000/svg" viewBox="0 0 200 200"><title>085-panier</title><path d="M59,96a1.55,1.55,0,0,0,1-.24C64.26,95,67.78,87,70.29,82.43c5.78-9.8,12.06-21.1,17.58-30.39,2.51-4.27,8-11,7.79-16.08a8.15,8.15,0,0,0-8.54-7.78c-.5,0-1.26.25-1.76.25-5.78,1.25-8.79,10.29-11.8,15.82C68,54,62.51,62.83,56.73,72.87c-3,5.28-7.53,10.8-7,15.82A8.08,8.08,0,0,0,59,96Z"/><path d="M130.06,82.67c2.51,4.28,5.52,12.56,11,13.31a8,8,0,0,0,9.29-6.52c.76-5.78-4.51-11.81-7-16.33-6.78-11.55-11-18.83-17.32-29.88C123,38,120,26.92,111,28.93c-12.31,2.77-1.76,17.83,1.5,23.11C117,60.83,125,74.14,130.06,82.67Z"/><path d="M157.93,84.43A15.65,15.65,0,0,1,145.13,103a15.93,15.93,0,0,1-12.56-3c-5-4-6.28-10.3-10-15.82H78.32C73.8,88.71,73.55,94.48,69,98.75c-10,9.54-30.13,1.76-26.12-14.56C32.11,84.94,17.3,80.92,16,91c-.76,6,3.27,10.29,10.8,9.54,3.27,13.81,8.79,33.4,12.81,48.47,2.76,10.55,3.26,20.84,13.81,22.85h93.17c10.3-2.26,11.3-12.8,13.81-22.85,4-15.82,8.79-33.4,12.81-48.22,6.53.5,9.54-2.51,10.8-7v-2c-.76-10.29-15.82-6.52-26.12-7.28Z"/></svg>