<svg viewBox="0 0 100 100" fill="none" xmlns="http://www.w3.org/2000/svg"><path d="M19.5829 18.985L24.6513 54.0156L24.6893 54.6335C24.6893 54.8659 24.7493 55.0853 24.8353 55.2943L29.7803 89.4766C30.0102 91.0788 31.527 92.1953 33.1673 91.9714C33.168 91.9695 33.168 91.9695 33.1693 91.9695C34.8128 91.7436 35.9544 90.2605 35.7232 88.6583L30.7734 54.431C34.4975 52.5755 37.0514 51.6628 40.4557 51.6634C45.1936 51.6634 48.7657 53.394 52.5479 55.2233C56.5779 57.1772 60.7446 58.2397 66.4342 58.2416C81.8781 58.2416 85.4541 52.0781 85.8107 51.3749C85.9367 51.1315 86.0007 50.86 86 50.5872L85.9993 18.8699C86 18.062 85.4308 17.3745 84.6324 17.1732C83.828 16.9662 82.9816 17.3419 82.5811 18.0457C82.5525 18.0958 79.6154 22.9787 66.4303 22.9787C61.5651 22.9787 58.0395 22.2893 54.3074 20.5484C50.3812 18.717 46.3246 16.825 40.659 16.8243C36.2811 16.8243 31.4152 17.9955 25.8478 20.3804L25.5265 18.1635C26.7468 17.2012 27.5739 15.7696 27.6906 14.1191C27.9192 10.964 25.4866 8.23548 22.2596 8.01415C19.0354 7.79409 16.2396 10.1672 16.0144 13.3202C15.8357 15.8275 17.3399 18.0632 19.5839 18.985L19.5829 18.985Z" fill="black"/></svg>