<svg id="Icons" xmlns="http://www.w3.org/2000/svg" viewBox="0 0 200 200"><title>088-etoile-pleine</title><path d="M179.65,77.58l-53.43-7.71c3.85.55,1.65,0-1.1-5.51l-8.26-17.08L104.74,23.05a4.35,4.35,0,0,0-4.41-2.76h-1.1a5.6,5.6,0,0,0-4.4,2.76L71.69,71.52c1.65-3.85,0-1.65-5.51-.55L47.45,73.72,20.46,77a6,6,0,0,0-3.85,6.61,2.86,2.86,0,0,0,1.1,2.2l36.9,35.8a18.74,18.74,0,0,1-.55,5.51l-3.31,18.73-4.4,27c-.56,2.75,1.1,6.06,3.85,6.61,1.1.55,2.75,0,3.85-.55l45.17-23.69a22.89,22.89,0,0,1,5.51,2.2l16.52,8.82,24.24,12.67a5.58,5.58,0,0,0,7.71-2.2c.56-1.11,1.11-2.76.56-3.86L145.5,123.3a32.78,32.78,0,0,1,3.85-4.41l32.5-32.5a5.33,5.33,0,0,0,0-7.71,2.83,2.83,0,0,0-2.2-1.1Z"/></svg>