<svg id="Icons" xmlns="http://www.w3.org/2000/svg" viewBox="0 0 200 200"><title>089-etoile-contour</title><path d="M100.32,19h-.85a12,12,0,0,0-11,6.93S72.74,57.84,69.34,64.74l-1.62.4L26,71.2a12.14,12.14,0,0,0-9.8,8.43,13.83,13.83,0,0,0-.68,4.29,13,13,0,0,0,3.82,9.33l30.87,30.08,0,.47-7.12,41.51a15.19,15.19,0,0,0-.21,2.41,13.34,13.34,0,0,0,5.45,10.84,13,13,0,0,0,13.75.86l37.86-19.9.69.29,37.28,19.61a13,13,0,0,0,13.75-.86,13.32,13.32,0,0,0,5.46-10.84,13.9,13.9,0,0,0-.21-2.4s-6.15-35.91-7.17-41.84c.32-.35.72-.82.72-.82l30.16-29.41a13,13,0,0,0,3.82-9.32,13.56,13.56,0,0,0-.69-4.29A12.16,12.16,0,0,0,174,71.2l-43-6.25c-.37-.6-.76-1.21-.76-1.21l-7.61-15.4L111.52,26A12.15,12.15,0,0,0,100.31,19ZM100,39c3.26,6.62,20.11,40.61,20.11,40.61l44.69,6.49c-2.16,2.1-32.33,32.23-32.33,32.23l7.57,43.94-39.93-21S67,158.62,60,162.3c.56-3.28,7.74-44.4,7.74-44.4S42,92.79,35.2,86.14c7.31-1.06,45-7,45-7Zm74,32.15"/></svg>