<?xml version="1.0" encoding="utf-8"?><!--Generator: Adobe Illustrator 27.8.0, SVG Export Plug-In . SVG Version: 6.00 Build 0)--><svg version="1.1" id="return-to-top" xmlns="http://www.w3.org/2000/svg" xmlns:xlink="http://www.w3.org/1999/xlink" x="0px" y="0px" viewBox="0 0 100 100" style="enable-background:new 0 0 100 100" xml:space="preserve"><path d="M51.6,33C51.6,33,51.6,33,51.6,33C51.6,33,51.6,32.9,51.6,33C51.6,33,51.6,32.9,51.6,33c-0.3-0.2-0.5-0.4-0.8-0.5
	c0,0,0,0,0,0c0,0,0,0,0,0c-0.2-0.1-0.5-0.2-0.8-0.2c0,0,0,0,0,0c0,0,0,0,0,0c0,0-0.1,0-0.1,0c0,0,0,0,0,0c0,0,0,0,0,0
	c-0.3,0-0.5,0.1-0.8,0.2c-0.3,0.1-0.5,0.3-0.7,0.5c0,0,0,0,0,0l0,0c0,0,0,0,0,0L29.9,51.5c-0.9,0.9-0.9,2.3,0,3.2
	c0.9,0.9,2.3,0.9,3.2,0l14.6-14.6v37.6c0,1.3,1,2.3,2.3,2.3s2.3-1,2.3-2.3V40.1l14.6,14.6c0.9,0.9,2.3,0.9,3.2,0
	c0.9-0.9,0.9-2.3,0-3.2L51.6,33z M71.6,20H28.4c-1.3,0-2.3,1-2.3,2.3s1,2.3,2.3,2.3h43.1c1.3,0,2.3-1,2.3-2.3S72.8,20,71.6,20z"/></svg>