<svg id="Icons" xmlns="http://www.w3.org/2000/svg" viewBox="0 0 200 200"><title>090-boutique</title><path d="M177.28,44.92c3.34-1.23,7.58-1.9,5.8-6.59-.56-1.67-2.56-2.89-4.24-4-1.23-.89-2.78-1.11-4.23-1.67H25.09c-1.22.44-2.34,1-3.56,1.45-3.12,1-5.91,2.78-5,6.24.56,2,3.12,3.46,4.79,5.13a6,6,0,0,1,1.23-.55c-1.45,7.24-2.9,14.49-4.12,22C17.63,72,16.73,77.25,17,82.27c.33,5.46,3.56,9.81,8.13,12.82a5.39,5.39,0,0,1,2.68,5.13c-.11,17.72.11,35.45-.11,53.18-.12,6.69,2.12,11.37,8.36,13.82H163.56c6.36-2.45,8.58-7,8.47-13.71-.22-17.73,0-35.45-.11-53.18a5.52,5.52,0,0,1,2.56-5.13c6.91-4.91,9.7-11.7,8.25-20.07-1.67-10.14-3.56-20.06-5.46-30.21ZM69.91,74.46c.67-9.81,1.57-19.62,2.34-29.87H91.32c.22.22.56.33.56.55-.12,10.49.11,21.07-.45,31.56-.22,5.35-6.69,9.47-12.37,8.8A9.86,9.86,0,0,1,69.91,74.46ZM40.36,85.61c-6.24-.22-9.92-4.46-8.91-11,1.45-9.92,3.23-19.74,4.9-30H56.2c-.22,3.12-.45,6-.78,8.92-.67,7-1.45,13.94-2.23,21A12.61,12.61,0,0,1,40.37,85.61Zm53.3,38.8c0,3.12-1.68,4.91-4.8,4.91H56.42c-3.12,0-4.8-1.67-4.69-4.91v-9.36c0-3.35,1.57-5,5-5H88.86c3.23,0,4.79,1.56,4.9,4.68s-.11,6.47-.11,9.7Zm15.16-46.49a6.62,6.62,0,0,1-.33-1.56c-.11-6.25-.34-12.49-.45-18.74-.11-4.23,0-8.47,0-13h19.74c.67,10.93,1.67,21.63,2,32.45.22,4.46-4.24,8.13-9.15,8.58s-10.48-3.12-11.81-7.69ZM148,132.77v14c0,3.24-1.45,4.8-4.79,4.8H123.65c-3.24,0-4.8-1.68-4.8-4.8V118.73c0-3.24,1.56-4.8,4.8-4.8h19.51c3.23,0,4.79,1.68,4.68,4.8C148,123.3,148,128.09,148,132.77Zm15.39-48.05c-4.57,2-11.14.11-14.27-4.24a9.36,9.36,0,0,1-2-4.57c-1.23-10.26-2.34-20.62-3.45-31.33h19.84c1.57,9.48,3.12,18.84,4.69,28.21C169.14,79.26,167.69,82.94,163.34,84.72Z"/></svg>