<?xml version="1.0" encoding="utf-8"?><!--Generator: Adobe Illustrator 27.8.0, SVG Export Plug-In . SVG Version: 6.00 Build 0)--><svg version="1.1" id="IA" xmlns="http://www.w3.org/2000/svg" xmlns:xlink="http://www.w3.org/1999/xlink" x="0px" y="0px" viewBox="0 0 100 100" style="enable-background:new 0 0 100 100" xml:space="preserve"><path d="M52.5,43.4c0.4-1.2,2.2-1.2,2.6,0l2.4,7.3c0.5,1.6,1.4,3,2.6,4.2c1.2,1.2,2.6,2.1,4.2,2.6l7.3,2.4c1.2,0.4,1.2,2.2,0,2.6
	l-7.3,2.4c-1.6,0.5-3,1.4-4.2,2.6c-1.2,1.2-2.1,2.6-2.6,4.2L55,79.1c-0.1,0.3-0.3,0.5-0.5,0.7C54.3,79.9,54,80,53.8,80
	c-0.3,0-0.6-0.1-0.8-0.3c-0.2-0.2-0.4-0.4-0.5-0.7L50,71.8c-0.5-1.6-1.4-3-2.6-4.2c-1.2-1.2-2.6-2.1-4.2-2.6l-7.3-2.4
	c-0.3-0.1-0.5-0.3-0.7-0.5c-0.2-0.2-0.3-0.5-0.3-0.8c0-0.3,0.1-0.6,0.3-0.8c0.2-0.2,0.4-0.4,0.7-0.5l7.3-2.4c1.6-0.5,3-1.4,4.2-2.6
	c1.2-1.2,2.1-2.6,2.6-4.2L52.5,43.4z M38,24.3c0.1-0.2,0.2-0.3,0.3-0.4c0.1-0.1,0.3-0.2,0.5-0.2c0.2,0,0.3,0.1,0.5,0.2
	c0.1,0.1,0.2,0.2,0.3,0.4l1.5,4.4c0.6,1.9,2.2,3.5,4.1,4.1l4.4,1.5c0.2,0.1,0.3,0.2,0.4,0.3c0.1,0.1,0.2,0.3,0.2,0.5
	c0,0.2-0.1,0.3-0.2,0.5c-0.1,0.1-0.2,0.2-0.4,0.3l-4.4,1.5c-1,0.3-1.8,0.9-2.5,1.6c-0.7,0.7-1.3,1.6-1.6,2.5l-1.5,4.4
	c-0.1,0.2-0.2,0.3-0.3,0.4c-0.1,0.1-0.3,0.2-0.5,0.2c-0.2,0-0.3-0.1-0.5-0.2C38.1,46,38,45.9,38,45.7l-1.5-4.4
	c-0.3-1-0.9-1.8-1.6-2.5c-0.7-0.7-1.6-1.3-2.5-1.6l-4.4-1.5c-0.2-0.1-0.3-0.2-0.4-0.3c-0.1-0.1-0.2-0.3-0.2-0.5
	c0-0.2,0.1-0.3,0.2-0.5c0.1-0.1,0.2-0.2,0.4-0.3l4.4-1.5c1-0.3,1.8-0.9,2.5-1.6c0.7-0.7,1.3-1.6,1.6-2.5L38,24.3z M64.5,20.4
	c0-0.1,0.1-0.2,0.2-0.3C64.8,20,64.9,20,65,20c0.1,0,0.2,0,0.3,0.1c0.1,0.1,0.2,0.2,0.2,0.3l1,2.9c0.4,1.3,1.4,2.3,2.7,2.7l2.9,1
	c0.1,0,0.2,0.1,0.3,0.2c0.1,0.1,0.1,0.2,0.1,0.3s0,0.2-0.1,0.3c-0.1,0.1-0.2,0.2-0.3,0.2l-2.9,1c-0.6,0.2-1.2,0.6-1.7,1
	c-0.5,0.5-0.8,1.1-1,1.7l-1,2.9c0,0.1-0.1,0.2-0.2,0.3C65.2,35,65.1,35,65,35c-0.1,0-0.2,0-0.3-0.1c-0.1-0.1-0.2-0.2-0.2-0.3l-1-2.9
	c-0.2-0.6-0.6-1.2-1-1.7c-0.5-0.5-1.1-0.8-1.7-1l-2.9-1c-0.1,0-0.2-0.1-0.3-0.2c-0.1-0.1-0.1-0.2-0.1-0.3s0-0.2,0.1-0.3
	c0.1-0.1,0.2-0.2,0.3-0.2l2.9-1c1.3-0.4,2.3-1.4,2.7-2.7L64.5,20.4z"/></svg>