<?xml version="1.0" encoding="UTF-8"?><svg id="filtres" xmlns="http://www.w3.org/2000/svg" version="1.1" viewBox="0 0 100 100"><!--Generator: Adobe Illustrator 29.0.0, SVG Export Plug-In . SVG Version: 2.1.0 Build 186)--><path d="M66.6,54.3c-6,0-11,4.3-12.1,9.9h-27.7c-1.3,0-2.4,1.1-2.4,2.3s1.1,2.3,2.4,2.3h27.7c1.1,5.7,6.1,9.9,12.1,9.9s12.3-5.5,12.3-12.3-5.5-12.3-12.3-12.3ZM66.6,74.2c-4.2,0-7.6-3.4-7.6-7.6s3.4-7.6,7.6-7.6,7.6,3.4,7.6,7.6-3.4,7.6-7.6,7.6ZM33.4,45.7c6,0,11-4.3,12.1-9.9h31c1.3,0,2.3-1.1,2.3-2.4s-1.1-2.4-2.3-2.4h-31c-1.1-5.7-6.1-9.9-12.1-9.9s-12.3,5.5-12.3,12.3,5.5,12.3,12.3,12.3ZM33.4,25.9c4.2,0,7.6,3.4,7.6,7.6s-3.4,7.6-7.6,7.6-7.6-3.4-7.6-7.6,3.4-7.6,7.6-7.6Z"/></svg>