<?xml version="1.0" encoding="utf-8"?>
<!-- Generator: Adobe Illustrator 27.8.0, SVG Export Plug-In . SVG Version: 6.00 Build 0)  -->
<svg version="1.1" id="recherche_00000134934896178938384950000000318484627856393104_"
	 xmlns="http://www.w3.org/2000/svg" xmlns:xlink="http://www.w3.org/1999/xlink" x="0px" y="0px" viewBox="0 0 100 100"
	 enable-background="new 0 0 100 100" xml:space="preserve">
<path fill-rule="evenodd" clip-rule="evenodd" d="M60.904,47.137L60.902,27.01c0-2.043,0.834-3.896,2.175-5.237
	c1.341-1.341,3.192-2.173,5.235-2.173l4.2,0.002c2.043,0,3.898,0.831,5.237,2.17c1.341,1.341,2.17,3.194,2.173,5.235v45.189
	c0,2.043-0.834,3.896-2.173,5.235c-1.341,1.341-3.192,2.173-5.235,2.173H27.324c-2.041,0.002-3.896-0.834-5.235-2.173
	c-1.341-1.341-2.173-3.192-2.173-5.235v-4.202c0-2.043,0.834-3.896,2.173-5.235c1.341-1.341,3.192-2.173,5.235-2.173h20.129
	L20.4,33.533c-1.444-1.444-2.166-3.341-2.168-5.239c0-1.9,0.724-3.795,2.168-5.239l2.97-2.97c1.444-1.444,3.341-2.166,5.239-2.168
	c1.9,0,3.797,0.722,5.241,2.166L60.904,47.137z"/>
</svg>
