<svg id="Icons" xmlns="http://www.w3.org/2000/svg" viewBox="0 0 200 200"><title>093-activité</title><path d="M100.46,157.42,74.19,131.16H26.92v10.5h42l31.52,31.52L132,141.66h42v-10.5H126.73Zm-42-36.77s0-42,42-42,42,42,42,42H153s0-52.53-52.53-52.53-52.53,52.53-52.53,52.53Zm42-68.29c5.25,0,5.25-5.25,5.25-5.25V31.35s0-5.25-5.25-5.25c0,0-5.25,0-5.25,5.25V47.11S95.21,52.36,100.46,52.36Zm78.8,57.78H163.5s-5.26,0-5.26,5.26,5.26,5.25,5.26,5.25h15.76s5.25,0,5.25-5.25C184.51,115.4,184.51,110.14,179.26,110.14ZM42.68,115.4s0-5.26-5.26-5.26H21.66s-5.25,0-5.25,5.26,5.25,5.25,5.25,5.25H37.42S42.68,120.65,42.68,115.4ZM148.75,74.54,159.89,63.4s3.71-3.72,0-7.43c0,0-3.72-3.71-7.43,0L141.32,67.11s-3.72,3.72,0,7.43S148.75,74.54,148.75,74.54Zm-96.58,0s3.72,3.71,7.43,0c0,0,3.71-3.71,0-7.43L48.46,56S44.75,52.26,41,56s0,7.43,0,7.43Z"/></svg>