<?xml version="1.0" encoding="utf-8"?>
<!-- Generator: Adobe Illustrator 26.3.0, SVG Export Plug-In . SVG Version: 6.00 Build 0)  -->
<svg version="1.1" id="carte" xmlns="http://www.w3.org/2000/svg" xmlns:xlink="http://www.w3.org/1999/xlink" x="0px" y="0px"
	 viewBox="0 0 100 100" style="enable-background:new 0 0 100 100;" xml:space="preserve">
<style type="text/css">
	.st0{fill:#FFFFFF;}
	.st1{fill:#1D1D1B;}
</style>
<g id="venir">
	<path id="blanc_00000135670012105542281930000014713555645238798981_" class="st0" d="M73.1,64.4c-1.4,0-2.6,1.2-2.6,2.6
		c0,1.4,1.2,2.6,2.6,2.6c1.4,0,2.6-1.2,2.6-2.6C75.7,65.6,74.6,64.4,73.1,64.4z M18,46.2c-1.4,0-2.6,1.2-2.6,2.6v0
		c0,1.4,1.2,2.6,2.6,2.6c1.4,0,2.6-1.2,2.6-2.6C20.6,47.4,19.5,46.2,18,46.2z M39.8,60.5C39.8,60.5,39.8,60.5,39.8,60.5L39.8,60.5
		L39.8,60.5z M39.8,60.5l1.4,1.6c0.8-0.8,1.6-1.6,2.2-2.6l-1.8-1.1C41.1,59.2,40.5,59.9,39.8,60.5z M34.8,62L34.8,62l-0.2,2
		c0.3,0,0.6,0.1,0.9,0.1c0.9,0,1.7-0.1,2.6-0.3l-0.6-2C36.6,62,35.7,62.1,34.8,62z M30.3,59.5l-1.7,1.2c0.7,1,1.6,1.8,2.6,2.4l0,0
		l1-1.8C31.5,60.9,30.8,60.3,30.3,59.5z M28.9,57c-0.2-0.4-0.4-0.9-0.6-1.2c-0.2-0.5-0.5-1.1-0.7-1.6l-1.9,0.9
		c0.2,0.5,0.5,1,0.7,1.5c0.2,0.4,0.3,0.8,0.6,1.2l0,0L28.9,57z M43.4,55.5l-0.2,0.4l1.8,0.9l0.2-0.4c0.4-0.7,0.9-1.5,1.3-2.3l-1.8-1
		C44.2,53.9,43.8,54.7,43.4,55.5z M23.3,49L23.3,49l-1,1.8c0.8,0.4,1.4,1,1.9,1.8l1.7-1.2C25.2,50.4,24.3,49.6,23.3,49z M52,46.5
		l0.6,1.9c0.9-0.3,1.9-0.5,2.8-0.5l-0.2-2C54.2,46,53.1,46.2,52,46.5z M46.5,50.3L46.5,50.3l1.6,1.3c0.6-0.7,1.3-1.4,2-1.9L48.9,48
		C48,48.7,47.2,49.4,46.5,50.3z"/>
	<path id="noir_00000071529460283383843640000000776105333981770912_" class="st1" d="M79.8,80.7l-14.8-6V58c-0.8-0.9-1.7-2-2.5-2.8
		v19.5l-14.8,6v-26c-0.5,0.8-0.9,1.5-1.3,2.3l-0.3,0.5c-0.3,0.5-0.5,1-0.9,1.6v21.5L30,75.1V64c-1-0.6-1.8-1.4-2.5-2.4v13.4
		l-14.8,6.1V38.5l14.8-6.1v19c0.8,1.2,1.4,2.5,2,3.9c0.1,0.3,0.3,0.7,0.4,1V32.4l15.2,6.2v11.2c0.7-0.9,1.6-1.7,2.5-2.5v-8.9
		l6.1-2.5c-0.2-0.8-0.2-1.7-0.2-2.6l-7.3,3l-0.1-0.1l-17.3-7l-18.5,7.6v48.1l18.5-7.6l17.7,6.5l17.3-7l0.1,0.1l18.4,7.4V57.9
		c-0.9,1.1-1.8,2-2.5,2.7L79.8,80.7z M85.8,20.9L85.8,20.9c-2.8-3.3-6.7-5.4-10.9-5.7c-0.6-0.1-1.2-0.1-1.8-0.1
		c-2.3,0-4.6,0.5-6.7,1.4c-1.9,0.8-3.6,2-5,3.4c-1.6,1.6-2.8,3.4-3.6,5.4c-1,2.5-1.4,5.2-1.2,7.9c0.2,3.2,1,6.2,2.3,9.1
		c1.2,2.6,2.6,5.2,4.1,7.6c2.8,4.7,6.3,9.1,10.3,12.9h0c3.9-3.3,7.4-8.7,10-13c2.9-4.8,5.9-9.8,6.4-16.3
		C90.1,28.9,88.7,24.4,85.8,20.9z M77.9,35.1L77.9,35.1c-1.1,1.3-2.7,2-4.4,2c0,0,0,0,0,0c-0.9,0-1.7-0.2-2.5-0.5
		c-1-0.5-1.9-1.2-2.5-2.2c-0.6-1-1-2.3-0.9-3.5h0l0-0.4c0.1-1.4,0.8-2.7,1.8-3.6c1.1-1,2.5-1.5,3.9-1.6h0.2c0,0,0,0,0,0
		c1.4,0,2.8,0.5,3.9,1.4c1.1,0.9,1.7,2.2,1.9,3.6C79.6,32,79,33.8,77.9,35.1z"/>
</g>
</svg>
