<svg id="Icons" xmlns="http://www.w3.org/2000/svg" viewBox="0 0 200 200"><title>094-croix-fermer-02</title><path d="M182.51,150.35h0L131.8,99.64l50.71-50.71h0a5.29,5.29,0,0,0,1.2-1.87,5.21,5.21,0,0,0-1.2-5.52L158.56,17.59a5.23,5.23,0,0,0-5.53-1.2,5.32,5.32,0,0,0-1.86,1.19h0L100.46,68.29,49.75,17.58h0a5.25,5.25,0,0,0-7.39,0l-23.95,24a5.22,5.22,0,0,0-1.2,5.52,5.29,5.29,0,0,0,1.2,1.87h0L69.12,99.64,18.41,150.35h0a5.22,5.22,0,0,0,0,7.39l24,23.95a5.24,5.24,0,0,0,5.52,1.2,5.29,5.29,0,0,0,1.87-1.2h0L100.46,131l50.71,50.71h0a5.35,5.35,0,0,0,1.86,1.2,5.25,5.25,0,0,0,5.53-1.2l23.95-23.95a5.22,5.22,0,0,0,0-7.39Z"/></svg>