<?xml version="1.0" encoding="UTF-8"?>
<svg id="picto_x5F_drapeau_x5F_damier" xmlns="http://www.w3.org/2000/svg" version="1.1" viewBox="0 0 100 100">
  <!-- Generator: Adobe Illustrator 29.3.0, SVG Export Plug-In . SVG Version: 2.1.0 Build 146)  -->
  <path id="trace" d="M75.7,13.7c-.2-1.3-1.2-2.2-2.5-2.6-1.2-.3-2.6.2-3.4,1.2,0,0-2.4,2.9-10.4,4.3-4.3.8-8.2,0-12.4-.9-4.6-.9-9.4-1.9-14.9-.9-10.6,1.9-14,6.2-14.5,7-.5.7-.7,1.6-.5,2.5l7.1,39s0,0,0,0l4.1,22.8c.3,1.6,1.7,2.7,3.3,2.7s.4,0,.6,0c1.8-.3,3-2,2.7-3.8l-3.8-21c1.3-1,4.1-2.6,9.4-3.5,4.3-.8,8.2,0,12.4.9,4.6.9,9.4,1.9,14.9.9,10.6-1.9,14-6.2,14.5-7,.5-.7.7-1.6.5-2.5l-7.1-39ZM66.6,55.7c-4.3.8-8.2,0-12.4-.9-.4,0-.9-.2-1.3-.3l-2.9-15.9c-5.1-1-15.9-1.9-23.3,1.4l-2.8-15.1c1.3-1,4.1-2.6,9.4-3.5,4.3-.8,8.2,0,12.4.9.4,0,.9.2,1.3.3l3.2,17.7c7.1,2.1,16.8-1.6,22.7-4.6l3,16.6c-1.3,1-4.1,2.6-9.4,3.5Z"/>
</svg>