<svg id="Icons" xmlns="http://www.w3.org/2000/svg" viewBox="0 0 200 200"><title>099-ticket</title><path d="M182.9,68.83,170.83,56.76s-14.94,10.18-26.11-1-1-27.1-1-27.1L132.24,17.19c-3.62-3.62-8.3.24-8.3.24L105.72,35.66l3.85,3.86a2.36,2.36,0,0,1-.32,3.45c-2.46,2.46-4.11,1.15-4.11,1.15l-3.61-3.61S21.8,120.23,18.44,123.6s-.57,7.47-.57,7.47l11.41,11.41s13.63-12.48,27.09,1,1.27,27.13,1.27,27.13L69,182c3.74,3.74,8.13,0,8.13,0l82.52-82.51-2-2s-3.26-3.12-.52-5.86c3.11-3.11,5.36-.63,5.36-.63l2.63,2.63,17.49-17.49c3.2-3.2.25-7.31.25-7.31Zm-62.73-14c-2.21,2.22-4,.39-4,.39l-3.06-3.06c-2.07-2.07,1.23-4.51,1.23-4.51,1.56-1.56,3.64.26,3.64.26L121,51s1.39,1.64-.82,3.85ZM131,65.73c-2.22,2.22-4,.39-4,.39l-3.06-3.06c-2.08-2.08,1.23-4.52,1.23-4.52,1.56-1.56,3.63.27,3.63.27l3.06,3.06S133.25,63.51,131,65.73Zm10.9,10.9c-2.22,2.21-4,.39-4,.39L134.82,74c-2.07-2.08,1.24-4.52,1.24-4.52,1.56-1.56,3.63.27,3.63.27l3.06,3.06S144.15,74.41,141.93,76.63Zm11.21,11.21c-2.22,2.21-4,.38-4,.38L146,85.16c-2.07-2.07,1.24-4.51,1.24-4.51,1.56-1.56,3.63.27,3.63.27L154,84s1.4,1.64-.82,3.86Z"/></svg>