<svg id="Icons" xmlns="http://www.w3.org/2000/svg" viewBox="0 0 200 200"><title>100-maree</title><path d="M125.56,97.16,105.21,76.62V43H95.7V80.6L118.83,104Z"/><path d="M72.71,135.08a24.44,24.44,0,0,1,15.22-5c8.47,0,13.13,3.42,16.53,5.93,2.77,2,4.45,3.27,8.47,3.27s5.7-1.24,8.48-3.28c3.17-2.34,7.5-5.45,15-5.84A63.18,63.18,0,0,0,163,78.61c0-34.84-28-63.1-62.49-63.1S38,43.76,38,78.61A63.12,63.12,0,0,0,72.71,135.08ZM100.46,29.23c27,0,48.91,22.1,48.91,49.38S127.47,128,100.46,128s-48.91-22.1-48.91-49.37S73.44,29.23,100.46,29.23Z"/><path d="M137,160.77c-8.47,0-13.12,3.42-16.52,5.92-2.76,2-4.44,3.27-8.46,3.27s-5.69-1.23-8.46-3.27c-3.4-2.5-8-5.92-16.52-5.92v13.8c4,0,5.69,1.23,8.47,3.27,3.39,2.51,8,5.93,16.52,5.93s13.12-3.42,16.52-5.93c2.76-2,4.44-3.27,8.46-3.27s5.69,1.23,8.47,3.27c3.4,2.51,8.05,5.93,16.52,5.93V170c-4,0-5.69-1.24-8.47-3.27C150.12,164.19,145.47,160.77,137,160.77Z"/><path d="M137,137.21c-8.47,0-13.12,3.43-16.52,5.93-2.76,2-4.44,3.27-8.46,3.27s-5.69-1.23-8.46-3.27c-3.4-2.5-8-5.93-16.52-5.93v0l-.13,0c-8.48,0-13.12,3.43-16.52,5.93-2.77,2-4.44,3.27-8.46,3.27s-5.7-1.23-8.47-3.27c-3.25-2.39-7.69-5.6-15.49-5.87V151.1c3.25.22,4.94,1.35,7.44,3.19,3.4,2.5,8,5.93,16.52,5.93s13.12-3.43,16.52-5.93c2.77-2,4.45-3.27,8.46-3.27s5.7,1.23,8.47,3.27c3.4,2.5,8,5.93,16.53,5.93H112c8.47,0,13.12-3.43,16.52-5.93,2.76-2,4.44-3.27,8.46-3.27s5.69,1.23,8.47,3.27c3.4,2.5,8.05,5.93,16.52,5.93v-13.8c-4,0-5.69-1.24-8.47-3.28-3.4-2.5-8.05-5.92-16.53-5.92Z"/></svg>