<svg id="Icons" xmlns="http://www.w3.org/2000/svg" viewBox="0 0 200 200"><title>102-twitter</title><path d="M178.64,51.15a63.94,63.94,0,0,1-18.42,5.05,32.16,32.16,0,0,0,14.1-17.73,64.7,64.7,0,0,1-20.38,7.79A32.1,32.1,0,0,0,99.29,75.5,91.1,91.1,0,0,1,33.17,42,32.11,32.11,0,0,0,43.1,84.81a32.18,32.18,0,0,1-14.53-4v.4A32.1,32.1,0,0,0,54.3,112.63a32.21,32.21,0,0,1-8.45,1.13,31.56,31.56,0,0,1-6-.59,32.11,32.11,0,0,0,30,22.28,64.38,64.38,0,0,1-39.84,13.72,68.93,68.93,0,0,1-7.65-.44,90.72,90.72,0,0,0,49.17,14.42c59,0,91.26-48.87,91.26-91.26l-.1-4.16A64.31,64.31,0,0,0,178.64,51.15Z"/></svg>