<svg id="Icons" xmlns="http://www.w3.org/2000/svg" viewBox="0 0 200 200"><title>103-utilisateur-01</title><path d="M100.46,25.64a74,74,0,1,0,74,74h0A74.1,74.1,0,0,0,100.46,25.64Zm51.81,119.89a121.6,121.6,0,0,0-17.36-7.72c-16.12-5.79-21.23-10.75-21.23-21.22,0-6.34,4.83-4.27,7-15.85.83-4.83,5.24-.14,6.06-11,0-4.4-2.34-5.51-2.34-5.51s1.24-6.48,1.66-11.44c.68-6.34-3.58-22.32-25.77-22.32s-26.46,16-25.91,22.19c.41,5,1.65,11.43,1.65,11.43s-2.34,1.11-2.34,5.51c.83,11,5.1,6.21,6.06,11,2.21,11.57,7,9.51,7,15.85,0,10.61-5.1,15.43-21.22,21.36a112.91,112.91,0,0,0-17.23,7.58,69.4,69.4,0,1,1,103.9.14Z"/></svg>