<svg id="Icons" xmlns="http://www.w3.org/2000/svg" viewBox="0 0 200 200"><title>104-utilisateur-02</title><path d="M148,139.41c-22-8-29.08-14.81-29.08-29.31,0-8.71,6.73-5.87,9.68-21.82,1.22-6.62,7.17-.11,8.32-15.21,0-6-3.25-7.52-3.25-7.52s1.65-8.92,2.3-15.77c.78-8.55-4.94-30.61-35.53-30.61S64.13,41.24,64.94,49.78c.64,6.85,2.3,15.77,2.3,15.77S64,67,64,73.07c1.14,15.1,7.08,8.59,8.31,15.21,3,16,9.69,13.11,9.69,21.82,0,14.51-7,21.29-29.09,29.31s-36.48,16.27-36.48,21.88v18.82h168.1V161.29c0-5.6-14.37-13.82-36.48-21.88Z"/></svg>