<svg id="Icons" xmlns="http://www.w3.org/2000/svg" viewBox="0 0 200 200"><title>105-velo-02</title><path d="M98,42.28a12.88,12.88,0,1,0-14.49-11A12.87,12.87,0,0,0,98,42.28ZM49.63,111.81a32.06,32.06,0,0,0-4.49.31,33.12,33.12,0,0,0-28.43,37.27,33.14,33.14,0,1,0,32.91-37.58Zm18.05,46.95a22.59,22.59,0,0,1-15.06,8.76,24.66,24.66,0,0,1-3.09.2,22.77,22.77,0,0,1-18.08-36.58,22.56,22.56,0,0,1,15.08-8.75,23.1,23.1,0,0,1,3.11-.21,22.79,22.79,0,0,1,18,36.59Zm116.53-13.69a33.2,33.2,0,0,0-32.78-28.72,33.76,33.76,0,0,0-4.49.31,33.12,33.12,0,0,0-28.42,37.26,33.24,33.24,0,0,0,32.8,28.71,33.65,33.65,0,0,0,4.49-.31,33.11,33.11,0,0,0,28.4-37.25ZM169.49,163.3a22.59,22.59,0,0,1-15.06,8.76,23.18,23.18,0,0,1-3.1.21,22.79,22.79,0,0,1-18.06-36.62,22.59,22.59,0,0,1,15.06-8.73,23.06,23.06,0,0,1,3.1-.21,22.79,22.79,0,0,1,18.06,36.59ZM84.74,95c-2.69-1.69-4.09-2.66-5.58-5.11-5.47-15.59,6.24-22.75,12.9-25.47,3.51.16,7.25,1.79,10.87,5.7,12.31,13.28,29.81,9.5,33.77,9.59l.06,0a4,4,0,0,0,1.42.06,4.22,4.22,0,0,0,1-8.08.22.22,0,0,0,0-.06c-26.85.13-28.46-13.8-43.69-23.84a25.39,25.39,0,0,0-11.21-2.7h0l-.12,0a20.57,20.57,0,0,0-9.84,2.51c-13,5.83-17.41,19.76-18.86,27.21a27.37,27.37,0,0,0-.66,4.52c0,.24,0,.37,0,.38h0a20.19,20.19,0,0,0,2.28,10.42h0l.32.55a23.19,23.19,0,0,0,4.74,5.85c.54.49,1.14,1,1.78,1.48a51.28,51.28,0,0,0,13.23,8.2l.1.06h0a64.31,64.31,0,0,0,6.52,2.42c5.9,3,14.54,9,16.26,16.49,1.49,6.49-2.64,13.84-12.26,21.84A6.48,6.48,0,0,0,96,157c19.2-16,18.93-29.87,15.33-38.72C106.63,106.68,93,98.16,84.74,95Zm52.94-9.24-2.47-4.56a16.69,16.69,0,0,0-8.75,11,20.31,20.31,0,0,0-.52,4l-20.08,7.63,1.83,4.84,18.62-7.06c1.54,9.19,7.06,17.4,7.38,17.86l4.54-2.53c-.09-.13-9.15-13.62-6.73-23.54a11.53,11.53,0,0,1,6.17-7.65Z"/></svg>