<svg id="Icons" xmlns="http://www.w3.org/2000/svg" viewBox="0 0 200 200"><title>106-marcher-seul</title><path d="M125.22,32.16a16.1,16.1,0,1,1-16.1-16.1A16.1,16.1,0,0,1,125.22,32.16Z"/><path d="M146.68,100.89c-3.12-1.42-23.88-11.73-23.88-11.73s-7.37-15.68-11.16-24.27c-3.57-8.1-6.16-10.19-11.27-10.19H92.52c-4.13,0-5.63,1.5-8.15,2.92L63.13,75.7a8.23,8.23,0,0,0-3.79,4.94l-4.55,30.6c-.65,4.88,1.91,6.94,4.83,7.55,2.36.49,5.94-.7,6.64-4.13.58-2.82,4.87-27.87,4.87-27.87L85,76.15c-2.28,10.61-4.6,22.26-5.37,26.2-1.32,6.76,2.06,11.91,4.7,15.91,2.43,3.66,33.8,53.12,38,58.5s7.9,8,13.68,4.83c4.83-2.68,4-8.85,1.34-13.41S103,112.1,103,112.1l5.33-22.94s3.67,5.23,5.57,8.19c.92,1.41,1.85,2,4.33,3.32,2.91,1.61,17.1,8,21.41,10,3.82,1.71,8.57,2.36,10.48-1S149.54,102.21,146.68,100.89Z"/><path d="M76.66,121.7l-6.44,22.61s-13.37,19.36-17.1,24.78c-2.79,4.08-4.89,9-.11,12.65,5.36,4.07,9.66-1.22,12.44-4.35C68,174.51,78.35,160,81.29,156.33a25.08,25.08,0,0,0,3.87-6.61c.55-1.38,2.65-7.12,4-10.82l-12.5-17.21Z"/></svg>