<svg id="Icons" xmlns="http://www.w3.org/2000/svg" viewBox="0 0 200 200"><title>110-grappe</title><path d="M102.19,171.52A11.58,11.58,0,1,1,90.62,160,11.57,11.57,0,0,1,102.19,171.52Z"/><path d="M86.23,141A14.66,14.66,0,1,1,71.58,126.3,14.65,14.65,0,0,1,86.23,141Z"/><path d="M124.35,141A14.65,14.65,0,1,1,109.7,126.3,14.65,14.65,0,0,1,124.35,141Z"/><path d="M66.47,109.88A15.35,15.35,0,1,1,51.12,94.54,15.35,15.35,0,0,1,66.47,109.88Z"/><path d="M106,109.88A15.35,15.35,0,1,1,90.62,94.54,15.34,15.34,0,0,1,106,109.88Z"/><path d="M145.5,109.88a15.35,15.35,0,1,1-15.35-15.34A15.35,15.35,0,0,1,145.5,109.88Z"/><path d="M85.22,78.42A16.29,16.29,0,1,1,68.93,62.13,16.29,16.29,0,0,1,85.22,78.42Z"/><path d="M128.13,78.42a16.29,16.29,0,1,1-16.29-16.29A16.29,16.29,0,0,1,128.13,78.42Z"/><path d="M93.77,64.35a103.79,103.79,0,0,1,9-24.84c3.35-6.49,20-20.58,20-20.58,1.52-1.74.93-2.69-1.31-2.1l-11.21,2.92a15.17,15.17,0,0,1-8-.46l-7.31-2.85A2.69,2.69,0,0,0,91,19.13V63.31c0,2.32,1.24,2.78,2.77,1Z"/><path d="M158.4,29.93a24.67,24.67,0,0,0-17.33-7.8,30.37,30.37,0,0,0-31.28,29.45,2.59,2.59,0,1,0,5.18.15,25.18,25.18,0,0,1,25.95-24.41,19.64,19.64,0,0,1,19,20.22A15.22,15.22,0,0,1,144.3,62.26a11.65,11.65,0,0,1-11.28-12,8.8,8.8,0,0,1,9-8.52,6.52,6.52,0,0,1,6.32,6.71,2.59,2.59,0,1,0,5.18.15,11.7,11.7,0,0,0-11.33-12,14,14,0,0,0-14.4,13.55,16.84,16.84,0,0,0,16.31,17.32h.63A20.38,20.38,0,0,0,165.13,47.7a24.69,24.69,0,0,0-6.73-17.77Z"/></svg>