<svg id="Icons" xmlns="http://www.w3.org/2000/svg" viewBox="0 0 200 200"><title>114-moto</title><path d="M183.82,141.51a30.18,30.18,0,0,0-33.9-25.85h0a30.88,30.88,0,0,0-4.45,1L137.62,100a26.54,26.54,0,0,0,8.78-.93s-.43-12.84-2.14-19.69c-6.16,0-10.4,1.24-13.54,6L128.19,80a3.72,3.72,0,0,0-1.09-1.35,3.5,3.5,0,0,0-3.39-.79l-10.47,3.08a2.32,2.32,0,0,0-2-1.39c-17.46.33-18.4-22.14-27.46-26.38C75.94,49.76,64.16,49.8,57.15,62c0,0-17.52,21.28-2.94,35.57-3.55-1-6.77-1.47-9.29-1,0,0-21.4,1.29-25.26,3.43s-.85,7.28,3,7.28,35.54.42,45,10.27l.85.91L65.65,121c-.14-.11-.26-.23-.4-.33A30.14,30.14,0,1,0,46.9,174.82a31.53,31.53,0,0,0,4.11-.28A30.16,30.16,0,0,0,76.77,149.2l5.55.1c1.79,2.5,4.46,3.47,8.42,3.72,6.85.43,21.41-1.29,28.26-4.28-3-11.56,3.85-32.54,7.27-35.54s5.14-22.26-9.84-21c-13,1.11-21.74,2.88-28.87,11.35C71.92,92.48,73.48,98.19,67.24,85c-3-6.32,10.53-24.61,17.68-10.16C89.3,83.72,97.16,86.38,103.06,87a2.68,2.68,0,0,0,.11.55,3.52,3.52,0,0,0,4.39,2.35l14.86-4.37,16.06,34.1a30.14,30.14,0,0,0-2.8,49.84,29.91,29.91,0,0,0,18.2,6.17,31.48,31.48,0,0,0,4.1-.27,30.14,30.14,0,0,0,25.84-33.9ZM62.4,156.44a19.41,19.41,0,1,1-18-31h0a19.92,19.92,0,0,1,2.66-.18,19.17,19.17,0,0,1,10.64,3.22l-14.33,13.4a3.79,3.79,0,0,0-.22,5.37,3.74,3.74,0,0,0,2,1.14,3.54,3.54,0,0,0,1.22.25l19.48.35A19.14,19.14,0,0,1,62.4,156.44Zm-7.19-15.23,7.86-7.36a19.09,19.09,0,0,1,3,7.55Zm18.18-17c4.3,5.82,5.26,10.15,6.22,16.83,0,.22.06.41.09.62l-2.78-.05c0-.32,0-.63-.08-.95A30,30,0,0,0,71,126.46Zm96,33.1a19.4,19.4,0,1,1-26.28-27.83l9.57,20.32a3.8,3.8,0,1,0,6.87-3.25l-9.42-20c.4-.08.81-.17,1.23-.23a19.41,19.41,0,0,1,18,31Z"/><path d="M73.78,48.39C78,47.82,86.26,50,90,53.82a9.64,9.64,0,0,0,5.92-6.06c-2.73-2-10.45-7.68-12-10.16-1.9-3,1.56-4.47,3.57-4.69,1.8-.2,8.13,2.62,9.47,3.23q-.08-.55-.18-1.08A14.11,14.11,0,0,0,69,40.34,14,14,0,0,0,73.78,48.39Z"/></svg>