<svg id="Icons" xmlns="http://www.w3.org/2000/svg" viewBox="0 0 200 200"><defs><style>.cls-1{fill-rule:evenodd;}</style></defs><title>115-journal</title><path class="cls-1" d="M164,55.85V31.59H16.84v116A20.16,20.16,0,0,0,37,167.68h127a20.16,20.16,0,0,0,20.14-20.13V55.74ZM27.34,147.55V42.1H153.48V66.41h.12v79s-.48,9.25,7.57,11.81H37A9.65,9.65,0,0,1,27.34,147.55Z"/><rect x="37.52" y="83.99" width="46.61" height="52.18"/><rect x="37.19" y="62.66" width="104.7" height="10.83"/><rect x="95.28" y="83.01" width="46.61" height="10.83"/><rect x="95.28" y="104.67" width="46.61" height="10.83"/><rect x="95.28" y="125.02" width="36.43" height="10.83"/></svg>