<svg id="Icons" xmlns="http://www.w3.org/2000/svg" viewBox="0 0 200 200"><title>116-bonsplans</title><path d="M61.46,96.18,55.33,95.1,54.12,102l6.67,1.17a7.12,7.12,0,0,0,3.72-.11,3,3,0,0,0,1.74-2.57Q66.84,97.12,61.46,96.18Z"/><polygon points="87.61 139.93 94.48 141.13 92.39 132.79 87.61 139.93"/><path d="M90.43,89.81a8.57,8.57,0,0,0-6.8,1.56,9.54,9.54,0,0,0-2.27,12.95A9,9,0,0,0,94,106.54a9.56,9.56,0,0,0,2.28-13A8.6,8.6,0,0,0,90.43,89.81Z"/><path d="M66.6,89.79A3,3,0,0,0,65.94,87a6.2,6.2,0,0,0-3.33-1.4l-5.44-1L56,91.17l5.41,1C64.51,92.66,66.23,91.89,66.6,89.79Z"/><path d="M53.27,124.3l-3.45-.61-1.41,8.05,3.93.69c1.88.33,3.22.2,4-.4a4.49,4.49,0,0,0,1.57-3,3.32,3.32,0,0,0-.77-3.17A7.58,7.58,0,0,0,53.27,124.3Z"/><path d="M165.19,67.08l-30.92-5.24-9.21-1.56c4.89-13.44,7.72-28.05,3.71-36.71a13.14,13.14,0,0,0-21.16-3.66c-8.14,8.53-6.52,28-5.32,36.51l-4.53-.77-13.24-2.3v0l-5.73-1L54.47,48.31a2.74,2.74,0,0,0-.5-.08A4.23,4.23,0,0,0,49.38,52q-2.54,15.75-5.06,31.5-4.44,27.64-8.87,55.31-1.76,10.95-3.52,21.89c-.38,2.37,1.65,4.25,3.8,4.59l31,5,55.58,8.91,24.84,4c2.37.38,4.25-1.65,4.59-3.8q2.55-15.84,5.09-31.68l8.85-55.17Q167.31,82.1,169,71.67C169.37,69.28,167.33,67.44,165.19,67.08ZM111.44,23.56A7.87,7.87,0,0,1,124,25.79c3.29,7.1.59,20.72-4.19,33.59l-12-2C105.88,45.39,105.72,29.55,111.44,23.56ZM61.38,129.93q-.65,3.65-3.08,5t-6.87.54l-3.56-.62-1,5.89-3.39-.6L47,120l6.89,1.21c3,.54,5.17,1.51,6.36,2.93S61.8,127.5,61.38,129.93Zm-1.17-22.82-11-1.93L53.6,80l9.81,1.72a14.27,14.27,0,0,1,4.31,1.39,6.41,6.41,0,0,1,2.51,2.15,6.6,6.6,0,0,1,.92,4.69A5.24,5.24,0,0,1,68.46,94a6.52,6.52,0,0,1-1,.47c-.18.06-.51.14-1,.26a6.73,6.73,0,0,1,3.36,2.76,6,6,0,0,1,.69,4.23,6.89,6.89,0,0,1-2.62,4.34Q65.41,108,60.21,107.11ZM77,146l-12.56-2.21L68,123.7l3.39.6-3,16.87,9.17,1.61Zm19.54,3.43-1.24-4.93-9.62-1.69L82.9,147l-3.62-.64,12.38-18.53,3.27.57,5.33,21.64Zm5.57-48.14a12.67,12.67,0,0,1-5.45,8.63,14,14,0,0,1-18.9-3.32A13.45,13.45,0,0,1,81,88a14,14,0,0,1,18.9,3.32A12.6,12.6,0,0,1,102.09,101.29Zm21.22,52.84-3.68-.65-8.81-16.65-2.57,14.66-3.39-.6,3.52-20.09,3.39.6,9,17,2.63-15,3.39.6Zm.78-35.8L113,97.42l-3.23,18.4-4.25-.75L110,89.86l4.26.75L125.57,112l3.3-18.82,4.26.75-4.43,25.21Zm20.84,23.51a9.16,9.16,0,0,0-5.2-2.81,3.8,3.8,0,0,0-2.51.29A2.25,2.25,0,0,0,136,141a2.06,2.06,0,0,0,.64,1.94,14.7,14.7,0,0,0,3.79,2.1,11.27,11.27,0,0,1,4.29,2.92,5,5,0,0,1,.87,4.25,5.37,5.37,0,0,1-2.73,3.92,8.08,8.08,0,0,1-5.49.73,12.47,12.47,0,0,1-7.8-4.72l2.58-2.18a9.72,9.72,0,0,0,5.86,3.75,4.35,4.35,0,0,0,2.72-.25,2.2,2.2,0,0,0,1.29-1.7,2.14,2.14,0,0,0-.58-2,9.76,9.76,0,0,0-2.92-1.72,30.73,30.73,0,0,1-3.19-1.57,7.8,7.8,0,0,1-1.83-1.52,4.82,4.82,0,0,1-1.08-4.34,5.44,5.44,0,0,1,2.68-4,7.52,7.52,0,0,1,5.23-.75,12.81,12.81,0,0,1,7,3.56Zm9.82-38.32a11.43,11.43,0,0,0-6.52-3.52,4.78,4.78,0,0,0-3.14.35,2.82,2.82,0,0,0-1.52,2.1,2.57,2.57,0,0,0,.8,2.43,18,18,0,0,0,4.76,2.63,14.18,14.18,0,0,1,5.38,3.66,6.36,6.36,0,0,1,1.09,5.34,6.73,6.73,0,0,1-3.43,4.92,10,10,0,0,1-6.89.91,15.58,15.58,0,0,1-9.78-5.91l3.23-2.75a12.19,12.19,0,0,0,7.35,4.71,5.49,5.49,0,0,0,3.42-.31,2.79,2.79,0,0,0,1.62-2.13,2.67,2.67,0,0,0-.73-2.47,12.27,12.27,0,0,0-3.66-2.17,35.82,35.82,0,0,1-4-2,9.65,9.65,0,0,1-2.31-1.91,6,6,0,0,1-1.35-5.44,6.79,6.79,0,0,1,3.37-5,9.36,9.36,0,0,1,6.56-1,16.1,16.1,0,0,1,8.73,4.47Z"/></svg>