<svg id="Icons" xmlns="http://www.w3.org/2000/svg" viewBox="0 0 200 200"><title>117-enveloppe-contour</title><path d="M184.51,64.65a3.92,3.92,0,0,0-3.87-3.87H77.76a3.93,3.93,0,0,0-3.87,3.87v70a3.93,3.93,0,0,0,3.87,3.87H180.64a3.59,3.59,0,0,0,2.62-1l.13-.13.07-.07a3.58,3.58,0,0,0,1-2.64Zm-7.74,66.11H81.63V68.52h95.14Z"/><path d="M92.7,84.55l32.19,26.82c1.13.94,3.09,1.6,4.43.57L163,86.09c3.69-2.82.05-9.18-3.69-6.31l-31.7,24.35L97.88,79.37C94.28,76.38,89.08,81.53,92.7,84.55Z"/><path d="M59.45,63.92H19.94c-4.7,0-4.71,7.31,0,7.31H59.45C64.15,71.23,64.16,63.92,59.45,63.92Z"/><path d="M59.45,84.15H36c-4.71,0-4.72,7.32,0,7.32H59.45C64.15,91.47,64.16,84.15,59.45,84.15Z"/><path d="M59.45,103.66h-12c-4.71,0-4.72,7.32,0,7.32h12C64.15,111,64.16,103.66,59.45,103.66Z"/></svg>