<svg id="Icons" xmlns="http://www.w3.org/2000/svg" viewBox="0 0 200 200"><defs><style>.cls-1{fill:#000201;}</style></defs><title>118-cravate</title><path class="cls-1" d="M131,152.28c-1.23-9.49-15.22-101.12-15.64-104.4A4.38,4.38,0,0,0,111,44.06H90.87a4.37,4.37,0,0,0-4.34,3.82c-.42,3.28-14.42,94.91-15.64,104.4A4,4,0,0,0,72.21,156c7.27,7.19,20.89,20.78,26.39,26.25a3.27,3.27,0,0,0,4.67,0c5.5-5.47,19.12-19.06,26.39-26.25A4,4,0,0,0,131,152.28Z"/><path class="cls-1" d="M81.08,16.06a1.67,1.67,0,0,0-1.56,2.23c1.46,4,4.57,12.25,6.34,16.78a2.36,2.36,0,0,0,1.79,1.18q13.2.12,26.42,0a2.61,2.61,0,0,0,1.85-1.4c1.2-2.84,2.2-5.77,3.28-8.66,1-2.61,1.94-5.21,2.94-7.87a1.66,1.66,0,0,0-1.55-2.25Z"/><path class="cls-1" d="M75.64,51.51c2.09.8,2.23,2.16,1.93,4.07-2.38,15-4.66,30-6.94,45-.6,3.92-3.54,6.25-5.92,9-.42.49-1.41.57-2.16.66-4.55.51-9.11,1-13.67,1.44-2.87.29-4.25-.81-4.56-3.64-.51-4.63-1.06-9.25-1.41-13.89a5.08,5.08,0,0,1,.84-3.32q15.68-19.56,31.5-39A3.09,3.09,0,0,1,75.64,51.51Z"/></svg>