<svg id="Icons" xmlns="http://www.w3.org/2000/svg" viewBox="0 0 200 200"><defs><style>.cls-1{fill:#000201;}</style></defs><title>119-parapluie</title><path class="cls-1" d="M106.77,43.23c-.35-1.4-.7-2.8-1-4-1.23-4.21-1.93-7-1.93-7a3.81,3.81,0,0,0-2.45-2.45,3.26,3.26,0,0,0-4.21,2.45s-.7,2.81-1.93,7c-.35,1.23-.7,2.63-1,4C59.07,46,21.36,69.54,17.33,102.69a24.39,24.39,0,0,1,8.07-1.23c11.4,0,27.88,5.09,36.48,13.5,10-5.61,23.85-7.19,32.44-7.71h0V150a19.65,19.65,0,0,0,39.29,0v-3c0-1.58-1.76-3-3.86-3h-3.86c-2.1,0-3.86,1.4-3.86,3v3a7.89,7.89,0,1,1-15.78,0V107.25c8.59.52,22.45,2.1,32.44,7.71,8.6-8.41,25.08-13.5,36.48-13.5a23.65,23.65,0,0,1,8.42,1.23C179.56,69.54,141.67,46,106.77,43.23Z"/></svg>