<svg id="Icons" xmlns="http://www.w3.org/2000/svg" viewBox="0 0 200 200"><defs><style>.cls-1{fill:#000201;}</style></defs><title>123-pouce</title><path class="cls-1" d="M159.28,68H132.07l7.47-32.55A16.47,16.47,0,0,0,123.27,16a16.81,16.81,0,0,0-14.41,8.27L81.39,77.36a17.1,17.1,0,0,1-15.21,9.07H24.56a5.92,5.92,0,0,0-5.87,5.87V159a5.92,5.92,0,0,0,5.87,5.86H68.05A18,18,0,0,1,81.65,171a34.44,34.44,0,0,0,26.15,12.27h40.28a34.39,34.39,0,0,0,34.15-34.14V90.7A23.06,23.06,0,0,0,159.28,68ZM43.5,144.86a6.14,6.14,0,1,1,6.14-6.14A6,6,0,0,1,43.5,144.86Zm126.72-41.35v45.88a22.55,22.55,0,0,1-22.41,22.41H107.53a22.16,22.16,0,0,1-17.07-8,29.47,29.47,0,0,0-22.68-10.41h-.27V98.17A29,29,0,0,0,91.79,82.7l27.48-52.82a4.7,4.7,0,0,1,7.47-.54,4.49,4.49,0,0,1,1.06,3.74l-7.2,32.28-3.2,14.4h41.88A10.82,10.82,0,0,1,170.22,90.7Z"/></svg>