<svg id="Icons" xmlns="http://www.w3.org/2000/svg" viewBox="0 0 200 200"><defs><style>.cls-1{fill:#000201;}</style></defs><title>124-conseiller</title><path class="cls-1" d="M184.15,101.49v20a6.73,6.73,0,0,0-.29.8,14.6,14.6,0,0,1-12.48,12.37A61.6,61.6,0,0,1,165,135q-2.21,0-4.38-.15c-1.67,0-2.42.58-3.11,2.33a75.71,75.71,0,0,1-37.79,41.5,41.73,41.73,0,0,1-19.08,4.63c-1.31,0-2.61-.06-3.88-.18a53.62,53.62,0,0,1-25.11-10A77.12,77.12,0,0,1,43.2,136.94c-.59-1.7-1.07-2.15-2.37-2.09h-9a15,15,0,0,1-15-14.69c0-5.86,0-11.66,0-17.5a14.53,14.53,0,0,1,6.72-12,2.18,2.18,0,0,0,1.11-1.88V88.6a97,97,0,0,1,2.91-23c5.09-19.91,17-34.83,36.8-43.11a86,86,0,0,1,29.8-6.22c2.17-.14,4.54-.22,6.94-.22a104.45,104.45,0,0,1,28.68,4A60.63,60.63,0,0,1,169,53.13a85.72,85.72,0,0,1,7.28,34.76v.48a2.52,2.52,0,0,0,1.25,2.19A13.85,13.85,0,0,1,183,97.33c.51,1.45.81,2.8,1.2,4.15ZM76.93,64.36a4.65,4.65,0,0,1-.18,1.81,73,73,0,0,1-2.1,11.48c-4.09,12-11.92,20.77-25.36,23.84a1.61,1.61,0,0,0-.93,1.16c0,.92,0,2,0,3.06a127.33,127.33,0,0,0,.94,15.46c.84,8.63,6,14.13,14.05,17.68l.57.27a61.73,61.73,0,0,0,20.91,4.66,1.81,1.81,0,0,0,1.41-.62c4.78-6.39,17.09-7.47,23.86-1.66a8.33,8.33,0,0,1-.16,13.34,15.67,15.67,0,0,1-9.25,3.62,15.35,15.35,0,0,1-2.3.17A15.67,15.67,0,0,1,86.28,153a3,3,0,0,0-2.33-1.2c-4.25-.54-8.49-1-12.64-1.87s-7.58-2.23-11.34-3.37l.3.54a66.18,66.18,0,0,0,26.37,22.25,31.65,31.65,0,0,0,13.86,3.22,31.07,31.07,0,0,0,14.13-3.38,65.33,65.33,0,0,0,24.16-19.55C150,135,153.65,118.45,152.51,100.52a7.39,7.39,0,0,0-3.73-6.33,59.73,59.73,0,0,0-20.93-8.26c-3.17-.66-6-1.05-9.19-1.65,1,1.71,2,3,2.68,4.45s1.17,2.83,1.83,4.51a42.93,42.93,0,0,0-4.76-2.55c-4-1.51-7.69-2.83-11.48-4A49.15,49.15,0,0,1,78.07,65.82a14.69,14.69,0,0,0-1.15-1.48ZM167.19,88V86.26a85.43,85.43,0,0,0-2.69-19.09c-4.35-16.83-14.46-29.49-31.31-36.5a73.53,73.53,0,0,0-22.12-5.19,101.72,101.72,0,0,0-36.7,2.76C58.16,32.74,45.71,42.61,39,59a75.32,75.32,0,0,0-5.39,26.19v2.69h5.54a8,8,0,0,1,.36-1.72C41,80.58,42,74.8,44,69.39c6.38-17.27,18-29.12,36.1-34.06a74.49,74.49,0,0,1,20.26-2.75,76.23,76.23,0,0,1,21.86,3.19A50.22,50.22,0,0,1,150.43,56.5a66.44,66.44,0,0,1,9,20.55c1,4,1.66,7.44,2.41,10.93Z"/><path class="cls-1" d="M78.74,99.32h.15a8.76,8.76,0,1,1-8.76,9V108a8.66,8.66,0,0,1,8.57-8.66Z"/><path class="cls-1" d="M122.27,99.32h.06a8.76,8.76,0,1,1-8.75,8.79c0-4.82,0,0,0,0V108a8.63,8.63,0,0,1,8.6-8.63Z"/></svg>