<svg id="Icons" xmlns="http://www.w3.org/2000/svg" viewBox="0 0 200 200"><title>125-feuille</title><path d="M27.07,99.64h0a73.1,73.1,0,0,0,18.7,48.92L28.26,166.07,34,171.83l17.5-17.5A73.15,73.15,0,0,0,100.46,173h0a73.39,73.39,0,0,0,73.39-73.39V26.25H100.46A73.39,73.39,0,0,0,27.07,99.64Zm134.55,0a61.11,61.11,0,0,1-101.4,46l9.31-9.31H129v-8.15H77.68L94,111.87h43.16v-8.15h-35l16.31-16.31h26.85V79.25h-18.7l21.58-21.58-5.76-5.76L120.85,73.49V54.79h-8.16V81.64L96.38,98v-35H88.23v43.17l-16.31,16.3V71.1H63.76v59.47l-9.3,9.3a61.11,61.11,0,0,1,46-101.39h61.16Z"/></svg>