<svg id="Icons" xmlns="http://www.w3.org/2000/svg" viewBox="0 0 200 200"><defs><style>.cls-1{fill:#000201;}</style></defs><title>126-camping-car</title><path class="cls-1" d="M162.39,76.41H129.21v55.3h8.85a19.91,19.91,0,1,0,39.81,0h6.64V105.17ZM158,142.77A11.06,11.06,0,1,1,169,131.71,11.07,11.07,0,0,1,158,142.77Zm-17.7-37.6V87.47h15.49L169,105.17Z"/><path class="cls-1" d="M47.38,151.62a19.93,19.93,0,0,0,19.9-19.91h53.09V67.57h42l8.85-8.85L160.18,47.66H34.1a17.69,17.69,0,0,0-17.69,17.7v66.35H27.47A19.93,19.93,0,0,0,47.38,151.62Zm0-8.85a11.06,11.06,0,1,1,11-11.06A11.07,11.07,0,0,1,47.38,142.77ZM31.89,72a8.85,8.85,0,0,1,8.85-8.85h64.14V89.69h-73Z"/></svg>