<svg id="Icons" xmlns="http://www.w3.org/2000/svg" viewBox="0 0 200 200"><defs><style>.cls-1{fill:#000201;}</style></defs><title>127-chaise-roulante</title><path class="cls-1" d="M76.45,46.09A14.83,14.83,0,1,0,60.18,31.33,15.37,15.37,0,0,0,62,38.51l5.28,74.31,54.39,0L144,165.11l29.29-11.49-4.54-10.8-16.39,5.92L130.8,98.9l-50.58.34-.69-9.41,36.61,0V75.92h-38Z"/><path class="cls-1" d="M131.16,152.67a55.41,55.41,0,0,1-48.89,30.1A54.52,54.52,0,0,1,59.54,78.63l1.23,16.14a39.66,39.66,0,1,0,60.71,38.1Z"/></svg>