<svg id="Icons" xmlns="http://www.w3.org/2000/svg" viewBox="0 0 200 200"><title>128-parking-interdit</title><path d="M141.05,96.92l-.93-2.71a4.17,4.17,0,0,0-3.65-2.72H133.1c-2.53-7.1-5.62-15.67-6.52-17.67-1.4-3.12-5.87-4.53-8.32-5.22,0,0-4.11-1.56-17.8-1.56s-17.8,1.56-17.8,1.56c-2.88,1-6.88,2.33-8.47,5.36-.74,1.42-3.88,10.23-6.44,17.53h-3.3a4.2,4.2,0,0,0-3.65,2.72l-.93,2.71a1.88,1.88,0,0,0,1.78,2.72h3.26l-.67,2a11,11,0,0,0-.45,3v24.74a2.88,2.88,0,0,0,2.87,2.88H77.21a2.88,2.88,0,0,0,2.88-2.88v-5.27h40.74v5.27a2.88,2.88,0,0,0,2.88,2.88h10.54a2.88,2.88,0,0,0,2.88-2.88V104.62a11.42,11.42,0,0,0-.45-3l-.69-2h3.27A1.87,1.87,0,0,0,141.05,96.92ZM80,112.08H75.67c-3.91,0-7.81-.53-7.81-3v-3c0-2.89,1.68-3,3.5-3s5.28,1.5,7.59,2.53c2.52,1.13,5.33,2.07,5.33,4S83.31,112.08,80,112.08ZM74,92.58a100.29,100.29,0,0,1,5-15.34c.41-1,.81-4.17,21.52-4.17s21.19,3.6,21.25,3.64a133.88,133.88,0,0,1,5.19,15.87s-8.74,3-26.44,3S74,92.58,74,92.58Zm51.3,19.49h-4.36c-3.28,0-4.26-.79-4.26-2.53s2.82-2.82,5.33-3.94c2.31-1,5.82-2.54,7.6-2.54s3.49.11,3.49,3v3h0C133.06,111.55,129.16,112.07,125.25,112.07Z"/><path d="M100.46,26.25a73.39,73.39,0,1,0,73.39,73.39A73.39,73.39,0,0,0,100.46,26.25Zm0,135a61.33,61.33,0,0,1-38.64-13.67l8.66-8.67H59.74a3.47,3.47,0,0,1-3.34-2.58l-3,3a61.56,61.56,0,0,1,86.76-86.76L128.07,64.66a8.9,8.9,0,0,1,3.86,3.87c.45,1,1.36,3.39,2.49,6.44l14-14a61.57,61.57,0,0,1-47.94,100.25Z"/></svg>