<svg id="Icons" xmlns="http://www.w3.org/2000/svg" viewBox="0 0 200 200"><title>129-maison-contour</title><path d="M180.91,97.25a.6.6,0,0,0-.08-.08L111.41,28.11a14.73,14.73,0,0,0-11-4.24h0A14.64,14.64,0,0,0,89.59,28L20,97.46c-5,5.15-3.8,9.77-3.06,11.5s3.24,5.83,10.5,5.83h7.6V161.7c0,3.27.65,13.7,14,13.7H82.81c3.44,0,6.12-3.26,6.12-6.7V121.53H112.5V168.7c0,3.44,2.17,6.7,5.61,6.7h35.41c7.77,0,11.17-4.92,11.17-13.7V114.79h8.78c7.26,0,9.76-4.19,10.5-5.93S185.88,102.4,180.91,97.25ZM159,103c-3.45,0-6.08,1.82-6.08,5.27V161.7c0,.19-.16,1.92-.17,1.92H124.29v-48.5c0-3.45-2.74-5.38-6.18-5.38H82.81c-3.45,0-5.67,1.93-5.67,5.38v48.5H49.07c-.35,0-.47-.59-.72-.61,0-.28.17-1.13.17-1.31V108.28c0-3.45-3.14-5.27-6.59-5.27H32.85L98.49,36.82a3.32,3.32,0,0,1,2-1.1,3.86,3.86,0,0,1,2.05,1.3l65.56,66Z"/></svg>