<svg id="Icons" xmlns="http://www.w3.org/2000/svg" viewBox="0 0 200 200"><title>132-pin-contour</title><path d="M106.71,16.32c-18.47-1.63-35.53,4.48-48,17.2C50,42.37,40,57.85,41.55,81.33c1.54,23,11.71,41.19,21.13,56.46,11.11,18,22.1,32.55,33.59,43.2,1.14,1.06,2.63,2.23,4.18,2.23h.88c1.6,0,3-1.2,4.14-2.2,12.88-11.19,24.29-29.23,32.8-43.45,9.55-16,19.44-32.63,21.08-55.18C161.83,48.24,138.71,19.13,106.71,16.32Zm40.37,65c-1.43,19.63-10.14,34.2-19.37,49.61-7.21,12-16.56,26.73-26.75,36.88-9.37-9.41-18.5-21.41-27.81-36.5-9-14.66-18-30.66-19.32-50.83-1-15.2,3.57-28.11,13.64-38.37a46.19,46.19,0,0,1,33.39-13.78q2.31,0,4.77.21C131.28,30.83,149.1,53.52,147.08,81.35Z"/><path d="M99.55,42.74c-17,.61-30.46,13-32.08,29.46l0,.2c-1.7,18.26,9.13,30,18.91,34.49a34.13,34.13,0,0,0,14.23,3.16,32.76,32.76,0,0,0,19.28-6.29c10-7.2,15-19.23,13.6-32.19C131.58,54.78,116.71,42.11,99.55,42.74Zm14.36,52.79a23,23,0,0,1-23.32,2.13c-7.06-3.25-14.18-11.29-13-24.15,0-.06,0-.12,0-.17,1.06-11.42,10.46-20,22.35-20.45A22.69,22.69,0,0,1,123.36,72.7C124.41,82.11,121,90.43,113.91,95.53Z"/></svg>