<svg id="Icons" xmlns="http://www.w3.org/2000/svg" viewBox="0 0 200 200"><title>135-casserole</title><path d="M150.53,51.35S119,41.58,109,41.42a12.3,12.3,0,0,0,1.85-6.49,11.59,11.59,0,1,0-23.17,0,12.26,12.26,0,0,0,1.84,6.48c-10.18.1-40.14,9.94-40.14,9.94A21.44,21.44,0,0,0,28.74,68H171.12A21.43,21.43,0,0,0,150.53,51.35Z"/><path d="M16.74,77.09v12.5H33.66v44.12c0,11.22,7.51,20.47,17.22,21.87.84.13,96.6.19,96.6.19,10.93,0,19.78-9.88,19.78-22.06V89.59h16.92V77.09ZM57.83,141.8H47.28l7.91-40.33,2.64-11.88Z"/><rect x="50.88" y="164.1" width="97.13" height="12.26"/></svg>