<svg id="Icons" xmlns="http://www.w3.org/2000/svg" viewBox="0 0 200 200"><title>136-visite</title><path d="M144.58,135H131.83l-21.77-21.77a8,8,0,0,0-11.38,11.37l21.77,21.78v36.88h32.18V140.71C152.63,137.53,149,135,144.58,135Z"/><circle cx="140.56" cy="114.86" r="12.06"/><path d="M104.19,27.13l13,28.64V99.88l1.4,1.43,1.92,2A23.23,23.23,0,0,0,119,106.5l-1.13-1.13a19.11,19.11,0,0,0-27,27l18.53,18.53v13.57l-56.18.06V121.89l33.32-25.8,1.91-1.48V56.5l15.75-29.37m-1.06,64.8A12,12,0,1,0,91.18,80a12,12,0,0,0,11.95,12m1.42-75.87-21,39.21V92.2L48.29,119.48v50l66-.08V148.88l-20-20a14.2,14.2,0,0,1,0-20.06,14.17,14.17,0,0,1,20.06,0l8.08,8.07a17.66,17.66,0,0,1-.13-2.06A18.11,18.11,0,0,1,127,102.8l-4.79-4.92V54.7L104.55,16.06Zm-1.42,71a7,7,0,1,1,7-7,7,7,0,0,1-7,7Z"/></svg>