<svg id="Icons" xmlns="http://www.w3.org/2000/svg" viewBox="0 0 200 200"><defs><style>.cls-1{fill:#201d1d;}</style></defs><title>137-question</title><path class="cls-1" d="M92.09,121.37q.14-8.06,1.83-12.71t6.91-10.35l8.88-9.13q5.69-6.42,5.68-13.79,0-7.1-3.72-11.12t-10.84-4q-6.9,0-11.11,3.66a12.36,12.36,0,0,0-4.2,9.82H73q.14-11,7.83-17.71t20-6.74q12.81,0,20,6.86T127.93,75q0,11.83-11,23.33l-7.38,7.3q-4.95,5.48-4.94,15.76Zm-.54,21.52a7.47,7.47,0,0,1,1.87-5.17,7,7,0,0,1,5.52-2.08,7.14,7.14,0,0,1,5.55,2.08,7.45,7.45,0,0,1,1.9,5.17,7.15,7.15,0,0,1-1.9,5.09,7.25,7.25,0,0,1-5.55,2,6.72,6.72,0,0,1-7.39-7.11Z"/><path class="cls-1" d="M100.46,173.79a74.15,74.15,0,1,1,74.15-74.15A74.24,74.24,0,0,1,100.46,173.79Zm0-140.9a66.75,66.75,0,1,0,66.75,66.75A66.82,66.82,0,0,0,100.46,32.89Z"/></svg>