<svg id="Icons" xmlns="http://www.w3.org/2000/svg" viewBox="0 0 200 200"><title>139-plage</title><path d="M124.94,149.81c1.52,1.83,6,9.77,13.7,9.19s12.53-3.8,16.89-7.25,6.68-4.37,13.8.47c4.61,3.56,6.34,4.71,8.52,3,0,0,2.4-1.72.47-4.72s-8.52-9.53-13.7-9.42-13.11,5.28-17.14,9.55a7.92,7.92,0,0,1-12.76-1c-2.76-4.37-9.54-11.84-16.8-9.66s-15.17,8.29-15.17,8.29-3.56,3.67-9.2-2-10.91-7.71-12.77-7.71-9.08.13-14,4.15c0,0-4.24,3.79-1.83,6.9s6.79-1.51,6.79-1.51,6.21-4.81,11.48-.32,12,8.6,15.32,8.84,7.22.12,13.57-6.89S123.44,148,124.94,149.81Z"/><path d="M122,166.79c1.75,2.11,6.91,11.29,15.83,10.62s14.47-4.39,19.5-8.37,7.72-5,15.94.54c5.32,4.11,7.32,5.44,9.84,3.44,0,0,2.77-2,.54-5.45s-9.84-11-15.82-10.89-15.15,6.11-19.79,11-11.55,3.84-14.74-1.21-11-13.67-19.41-11.15-17.52,9.57-17.52,9.57-4.11,4.24-10.63-2.27-12.6-8.9-14.75-8.9-10.48.14-16.21,4.78c0,0-4.91,4.39-2.11,8s7.84-1.74,7.84-1.74,7.17-5.55,13.25-.37,13.84,9.94,17.7,10.21,8.34.13,15.67-8S120.25,164.65,122,166.79Z"/><path d="M136.34,45.38,16.87,99.14a68.44,68.44,0,0,0,3.57,15.2L81,87.1l23.78,54,3.81-1.71-23.78-54,60.54-27.25A68.55,68.55,0,0,0,136.34,45.38ZM58.91,27.83l-2.71-6-3.81,1.72,2.7,6A68.77,68.77,0,0,0,16.42,92.72l115.4-51.93A68.74,68.74,0,0,0,58.91,27.83Z"/></svg>