<svg id="Icons" xmlns="http://www.w3.org/2000/svg" viewBox="0 0 200 200"><title>140-liste-02</title><rect x="76.47" y="79.37" width="48.98" height="8.77"/><rect x="76.47" y="99.3" width="48.98" height="8.77"/><rect x="76.47" y="119.23" width="48.98" height="8.77"/><path d="M153.52,42.74H47.4a3.68,3.68,0,0,0-3.62,3.62V179.6a3.67,3.67,0,0,0,3.62,3.62H153.52a3.31,3.31,0,0,0,2.44-1,1.27,1.27,0,0,1,.13-.11l.06-.08a3.31,3.31,0,0,0,1-2.46V46.36A3.66,3.66,0,0,0,153.52,42.74ZM149.9,176H51V50H149.9Z"/><path d="M126,42.29c0-.26,0-.52,0-.78a25.46,25.46,0,0,0-50.91,0c0,.26,0,.52,0,.78ZM101.36,28.87A6.33,6.33,0,1,1,95,35.2,6.33,6.33,0,0,1,101.36,28.87Z"/></svg>