<svg id="Icons" xmlns="http://www.w3.org/2000/svg" viewBox="0 0 200 200"><defs><style>.cls-1{fill:#201d1d;}</style></defs><title>141-ajouter-utilisateur</title><path class="cls-1" d="M89.35,76.37a26,26,0,1,0-26-26A26,26,0,0,0,89.35,76.37Z"/><path class="cls-1" d="M110.75,134.65v-15.3a7,7,0,0,1,7-7h8.47A32.05,32.05,0,0,0,94.56,85.27H84.15a32,32,0,0,0-32.05,32v32.85H89.45v-8.51a7,7,0,0,1,7-7Z"/><polygon class="cls-1" points="127.51 141.65 127.51 119.35 117.75 119.35 117.75 141.65 96.45 141.65 96.45 150.83 117.75 150.83 117.75 174.97 127.51 174.97 127.51 150.83 148.81 150.83 148.81 141.65 127.51 141.65"/></svg>