<svg id="Icons" xmlns="http://www.w3.org/2000/svg" viewBox="0 0 200 200"><title>146-paddle</title><path d="M107.28,55.65h0a9,9,0,0,0,10.15-7.29h0a9,9,0,0,0-7.29-10.14h0a8.74,8.74,0,0,0-10,7.28h0a8.59,8.59,0,0,0,7.14,10.15Z"/><path d="M173.16,138a270.74,270.74,0,0,0-41.58-5.43c-4.72-.15-14.58-.43-21.3-.43A79,79,0,0,1,112,112.67c1.57-7.57,5.71-20.72,3-30.72,4.14,2.28,26.44,11.43,26.58-16.3a2.68,2.68,0,0,0-1.86-1.85l13.58-8.72c5.14-3.29,2.28-6.86,0-5.29-.86.57-16.87,10.86-36.59,23.58-1.28-1.57-2.57-3.28-3.71-5a.52.52,0,0,0-.15-.29c-5.71-7.28-12.71-7.43-12.71-7.43C79.27,59.8,77.7,85,78.7,91.66c.43,2.72,1.29,4.15,2.14,4.86-22.72,14.72-41.87,27-41.87,27l-4-1.14s-2.43-1-7.15,3.43c-2.85,2.57-8.43,7-8.43,7-1,1.29-3.57,2.86-1.86,5.72,2.29,4,4.58,7.29,4.58,7.29,1.28,1.71,2.57.85,4.28,0C34,142.4,40.11,135,40.11,135s2.15-1.29,1.58-8l57-36.58c-.29,5.29-2.43,26.72-4,42.73a203.22,203.22,0,0,0-31.87,5.14C30.4,148,64.41,155,64.41,155s41.16,7.43,79,6c1.85,0,3.71-.15,5.57-.29,27.87-1.86,33.87-12.15,33.87-12.15s5.86-7.43-9.72-10.57Zm-37.44-71.6c0,.14-.14.29-.14.57,1.43,13-7.43,17.15-15.87,9.72l16-10.29ZM86.27,93.09A14.42,14.42,0,0,0,86,90.81c-1.15-8.58,1.14-16.44,5.14-18.58s5.72.57,6.43,2.43c.58,1.57,1.29,4,1.29,10.43-4.29,2.57-8.43,5.29-12.58,8Z"/></svg>