<svg id="Icons" xmlns="http://www.w3.org/2000/svg" viewBox="0 0 200 200"><title>147-palmes</title><path d="M90.41,46.05c.52,7.5,4.18,29.83,3,56a46.7,46.7,0,0,0-2.44-9.42,32.08,32.08,0,0,0-2.79-5.4,20.13,20.13,0,0,0-4.54-4.89A20.36,20.36,0,0,0,76.8,79,30.54,30.54,0,0,0,69,77.8a60.65,60.65,0,0,0-7.85.34l-1.75.18-1.74.35a51.67,51.67,0,0,0-7.5,2.27,26.12,26.12,0,0,0-6.8,3.83,20.58,20.58,0,0,0-4.89,5.41A25.92,25.92,0,0,0,36,96.29a33.94,33.94,0,0,0-.52,5.93A41.88,41.88,0,0,0,37,111.64c-11.69-23.9-17.27-45.88-19.72-53C13.82,49.19,21,44.82,24.81,44s9.08-3,19,2.27a13.42,13.42,0,0,0,8.9,1.57,13.13,13.13,0,0,0,7.67-4.36c7-8.2,12.56-8,16.75-8.37s12.56,1,13.26,11Zm-1.57,83.73s5.75,24.77-4.54,30.53h-.17a7.71,7.71,0,0,1-1.75.7,43.09,43.09,0,0,1-11.51,2.09,5.9,5.9,0,0,1-2.44,0h-.35c-12-1.92-16.58-26.86-16.58-26.86-1-1.57-1.91-3-3-4.54-.87-1.92-1.57-3.84-2.44-5.76-.7-1.57-1.22-3.31-1.75-4.88A44,44,0,0,1,43,116a38.77,38.77,0,0,1-1.05-10.12,18.06,18.06,0,0,1,2.79-9.42,16.33,16.33,0,0,1,8.72-6.1A22.78,22.78,0,0,1,59.36,89l2.44-.35a35.89,35.89,0,0,1,6.1-.52,18.48,18.48,0,0,1,10.47,2.79,18.88,18.88,0,0,1,6.45,7.85A48.16,48.16,0,0,1,88,108.5c.35,1.74.53,3.31.88,5.06a26.28,26.28,0,0,1,.34,5.23c.18,2.09.18,4.19.18,6.28,0,1.22-.35,3-.52,4.71ZM81,131.7a19.5,19.5,0,0,0-21.64,3.84s1,19.54,10.65,20.23h.87a22.05,22.05,0,0,0,8.2-1.57h0l.52-.17h.17C87.27,149.32,81,131.7,81,131.7Zm94.72-87.92c-4-1.05-9.07-3-19,2.27a13.4,13.4,0,0,1-8.89,1.57,13.23,13.23,0,0,1-7.68-4.36c-7-8.2-12.56-8-16.74-8.38S111,36.1,110.29,46.05c-.52,7.5-4.18,29.83-3,56a46.7,46.7,0,0,1,2.44-9.42,31.73,31.73,0,0,1,2.79-5.4,20.13,20.13,0,0,1,4.54-4.89A20.36,20.36,0,0,1,123.9,79a30.54,30.54,0,0,1,7.85-1.22,60.65,60.65,0,0,1,7.85.34l1.74.18,1.75.35a51.67,51.67,0,0,1,7.5,2.27,26.12,26.12,0,0,1,6.8,3.83,20.58,20.58,0,0,1,4.89,5.41,26.35,26.35,0,0,1,2.44,6.11,33.94,33.94,0,0,1,.52,5.93,41.88,41.88,0,0,1-1.57,9.42c11.69-24.08,17.1-46.06,19.72-53.21,3.31-9.24-3.67-13.43-7.68-14.65Zm-17.27,61.93a33.58,33.58,0,0,1-1.05,10.12c-.35,1.74-.87,3.31-1.39,5a40.77,40.77,0,0,1-1.75,4.89c-.7,1.92-1.57,3.84-2.44,5.76a40.17,40.17,0,0,1-3,4.53s-4.53,24.95-16.57,26.87h-.17a5.9,5.9,0,0,1-2.44,0,32.73,32.73,0,0,1-11.52-2.1,7,7,0,0,1-1.74-.7h-.18c-10.29-5.75-4.53-30.52-4.53-30.52a53,53,0,0,1-.87-5.24c0-2.09,0-4.18.17-6.28a51,51,0,0,1,.35-5.23,23.47,23.47,0,0,1,.87-5.06A33.57,33.57,0,0,1,115.35,98a20.1,20.1,0,0,1,6.46-7.85,18.54,18.54,0,0,1,10.46-2.79,36,36,0,0,1,6.11.52l2.44.35c1.92.35,4,.87,5.93,1.4a16.33,16.33,0,0,1,8.72,6.1,18.21,18.21,0,0,1,3,9.95Zm-17.1,29.65a20.27,20.27,0,0,0-10.11-5.23,23.66,23.66,0,0,0-11.52,1.4s-6.45,17.61,1.22,22h.18l.52.17a22.05,22.05,0,0,0,8.2,1.57h.87c9.6-.17,10.64-19.71,10.64-19.89Z"/></svg>