<svg id="Icons" xmlns="http://www.w3.org/2000/svg" viewBox="0 0 200 200"><title>149-sac</title><path d="M58.11,53.05m-.73,4.65,8,1.31,16.27,2.76,1.6.29,5.09.87,8.13,1.46,3.93.72,1,.15,11.19,1.89,1,.14,5.81,1,8.72,1.45,4.94.87L160,75.14l-1.31,8-1.45,8.14-.58,3.92-8.14,51.14-1.6,9.74L144,173.94l-8-1.31-12.35-1.89L112,168.85l-43.88-7-26.88-4.36L44,140.23l7-43.3L52.88,85l2.9-18.16,1.6-9.16Zm59.28-41.41a11.78,11.78,0,0,0-9,3.93c-8.13,8.57-6.54,27.89-5.37,36.47L97.77,56,84.55,53.49l-5.67-1L54.62,48.4,54,48.26h-.58A4.47,4.47,0,0,0,49.39,52L44.3,83.57l-8.86,55.21L32,160.72a4.35,4.35,0,0,0,3.78,4.65L147,183.09h.58a4.47,4.47,0,0,0,4.07-3.78l5.08-31.67,8.86-55.07L169,71.8a4.34,4.34,0,0,0-3.78-4.65l-30.95-5.23-9.15-1.6c4.94-13.37,7.7-28,3.63-36.62a12.58,12.58,0,0,0-10.32-7.41,3.66,3.66,0,0,0-1.74,0Zm3,43.16-11.91-2c-1.89-11.91-2-27.75,3.63-33.71a6.46,6.46,0,0,1,5.23-2.18h1.16a7,7,0,0,1,6.1,4.36c3.35,7.12.59,20.64-4.21,33.57Z"/></svg>