<svg id="Icons" xmlns="http://www.w3.org/2000/svg" viewBox="0 0 200 200"><title>150-megaphone</title><path d="M105.89,52.88s-11-5.51-15.35,4.33c-5.9,13-34.64,39.36-68.09,66.12-10.23,8.27-6.3,19.29,3.15,19.29,5.9,0,13.38-.39,13.38-.39s2.36.78,14.56,15c7.09,7.87,13.78,16.93,13.78,16.93s7.08,10.62,14.56,1.57c5.12-6.3,3.15-11.41,0-14.17a184.33,184.33,0,0,1-20.86-22c0-.39,8.66-.39,20.07-1.57,12.6-.79,16.93-3.15,43.3-.4,0,0,19.68,4.73,20.07-15C144.46,100.9,132.26,63.9,105.89,52.88Zm28.73,73.6h0c-6.3,3.15-18.89-9-27.94-27.55s-11-35.82-4.73-39,18.9,9,28,27.55S140.92,123.33,134.62,126.48Z"/><path d="M111.4,97.36c2.36,5.11,6.69,8.26,9,6.69s4.73-8.27,2-13.38a9.34,9.34,0,0,0-11-5.12C109,87.12,108.64,92.24,111.4,97.36Z"/><path d="M139.76,63l31.62-22.1,7,10L146.75,73Z"/><path d="M150.56,86.54l31.84-7.3,2.11,9.21-31.85,7.3Z"/><path d="M124.22,49.14l18.64-29.2,8,5.09L132.19,54.22Z"/></svg>