<svg id="Icons" xmlns="http://www.w3.org/2000/svg" viewBox="0 0 200 200"><title>151-360-2</title><path d="M73.48,94.47h40.4V92.86l.32-.32V53.76H99V69.59a46.42,46.42,0,0,0-59.14-10,46.37,46.37,0,0,0-16.48,63.67A47.31,47.31,0,0,0,59.75,146l2.42.16.16-2.42a28.86,28.86,0,0,0,.16-3.72c0-1.13.17-2.26.17-3.71l.16-2.43-2.43-.16A34.35,34.35,0,0,1,29.21,96.58,33.4,33.4,0,0,1,41.33,73.31a34.36,34.36,0,0,1,25-7.92,34,34,0,0,1,24.72,13.9H73.32V94.48Z"/><path d="M101.44,124.85a8.46,8.46,0,0,0-2.91-1.13,9.7,9.7,0,0,0,3.55-3.07,6.42,6.42,0,0,0,1.13-3.88,7.74,7.74,0,0,0-2.91-6.14c-1.93-1.61-5-2.42-9.37-2.42a15.16,15.16,0,0,0-8.72,2.26,11,11,0,0,0-4.2,6.3l8.72,1.62A4.72,4.72,0,0,1,88.19,115a3.63,3.63,0,0,1,2.58-1,2.81,2.81,0,0,1,2.42,1,4,4,0,0,1,1,2.42A3.55,3.55,0,0,1,93,120.17,4,4,0,0,1,90,121.3a3.2,3.2,0,0,1-1.13-.16l-.48,6.62a13.33,13.33,0,0,1,2.91-.48,4.51,4.51,0,0,1,3.23,1.29,5,5,0,0,1,1.13,3.55,5.07,5.07,0,0,1-1.29,3.56A3.62,3.62,0,0,1,91.26,137a3.88,3.88,0,0,1-2.91-1.13c-.81-.65-1.3-1.94-1.62-3.88l-9.21,1.3a15.67,15.67,0,0,0,2.59,5.17,9.41,9.41,0,0,0,4.36,3.07,20.55,20.55,0,0,0,7.11,1.13A16.43,16.43,0,0,0,99,141.17a9.58,9.58,0,0,0,4.36-4,11.15,11.15,0,0,0,1.46-5.49,7.25,7.25,0,0,0-1-3.88,8.43,8.43,0,0,0-2.42-2.91Z"/><path d="M125.35,120a10.69,10.69,0,0,0-4,.8,11.2,11.2,0,0,0-3.39,2.43,26.11,26.11,0,0,1,1.29-6.95A3.81,3.81,0,0,1,122.6,114a3.4,3.4,0,0,1,2.1.8,4.91,4.91,0,0,1,1.14,2.75l9.21-1.13a11.2,11.2,0,0,0-2.27-4.36,10,10,0,0,0-3.87-2.75,16.06,16.06,0,0,0-6.31-1,13.65,13.65,0,0,0-10.5,4.2c-2.58,2.75-3.72,7.11-3.72,13.09a24.49,24.49,0,0,0,1.78,9.86,11.2,11.2,0,0,0,4.85,5.33,16.06,16.06,0,0,0,7.92,1.62,14,14,0,0,0,6.78-1.46,11.59,11.59,0,0,0,4.37-4,10.72,10.72,0,0,0,1.61-6,11,11,0,0,0-3.07-8.08,9.27,9.27,0,0,0-7.27-2.9Zm.65,15.51a4,4,0,0,1-2.91,1.29,4.63,4.63,0,0,1-3.39-1.45,5.73,5.73,0,0,1-1.3-4.21,6,6,0,0,1,1.3-4,4,4,0,0,1,3.23-1.46,3.76,3.76,0,0,1,3.07,1.46,6.48,6.48,0,0,1,1.29,4.2,6.2,6.2,0,0,1-1.29,4.2Z"/><path d="M164.29,114.19a11.17,11.17,0,0,0-2.1-2.75,10.81,10.81,0,0,0-3.55-2.1,17.32,17.32,0,0,0-5.5-.81c-4.68,0-8.08,1.29-10.34,3.72s-3.39,7-3.39,13.25a31.14,31.14,0,0,0,.64,6.95,16.63,16.63,0,0,0,1.94,5,9.69,9.69,0,0,0,4.2,3.87,16.35,16.35,0,0,0,6.79,1.3c5,0,8.4-1.46,10.5-4.2s3.07-7.11,3.07-13.25a31.19,31.19,0,0,0-1-7.76,19.44,19.44,0,0,0-1.3-3.23Zm-7.43,18.1a6.11,6.11,0,0,1-1.45,3.07,3.33,3.33,0,0,1-2.43,1c-1.45,0-2.42-.81-3.23-2.27-.81-1.61-1.13-4.36-1.13-8.56s.32-7,1-8.56a3.24,3.24,0,0,1,3.23-2.27,3.8,3.8,0,0,1,3.39,2.27c.81,1.45,1.14,4.52,1.14,8.88a33.06,33.06,0,0,1-.49,6.47Z"/><path d="M182.07,110.31a6.4,6.4,0,1,0-4.53,11,5.88,5.88,0,0,0,4.53-1.94,6.25,6.25,0,0,0,0-9Zm-2.91,6.14a2.07,2.07,0,0,1-1.62.65,2.27,2.27,0,1,1,0-4.53,2.29,2.29,0,0,1,1.62,3.88Z"/></svg>