<svg id="Icons" xmlns="http://www.w3.org/2000/svg" viewBox="0 0 200 200"><title>153-balon</title><path d="M145.61,60.3a45.16,45.16,0,0,0-90.3-.06C55.31,82.92,72.59,116,97,118.92l-3.46,4.86a1.83,1.83,0,0,0-.34,1.09,1.9,1.9,0,0,0,1.88,1.9H98c-4,6.75-6.4,15.63.5,29.5a18.73,18.73,0,0,1,2.3,9,19,19,0,0,1-6.53,14.34,1.92,1.92,0,0,0-.76,1.52,1.91,1.91,0,0,0,3.15,1.43,23.07,23.07,0,0,0,5.17-28.16c-6.72-13.46-3.66-21.28.64-27.71h3.47a1.9,1.9,0,0,0,1.29-3.29L104,118.9c24.37-2.94,41.65-36,41.65-58.6Zm-58-30.59a35.85,35.85,0,0,0-20,24,2,2,0,0,1-1.9,1.71h-.43a1.9,1.9,0,0,1-1.47-1.85,2.12,2.12,0,0,1,0-.44A39.73,39.73,0,0,1,85.8,26.34a2.43,2.43,0,0,1,1-.27,1.9,1.9,0,0,1,.8,3.63Z"/></svg>