<svg id="Icons" xmlns="http://www.w3.org/2000/svg" viewBox="0 0 200 200"><title>154-sonnette-contour</title><path d="M108,63.13V45.44h5.9a10.81,10.81,0,0,0,0-21.61H87a10.81,10.81,0,0,0,0,21.61H92.6V63.13C54,66.73,23.83,98.82,23.83,132.55H177.08C176.76,98.82,146.63,66.73,108,63.13ZM93.91,76.23l6.22-.66,6.22.66c25.87,2.61,48.8,21.28,55.34,43.55H38.9c6.55-22.6,29.14-41.26,55-43.55Z"/><path d="M183.42,166.6l-3.27-19H20.68l-3.28,19v1.31a7.41,7.41,0,0,0,7.54,7.53H177.2a7.77,7.77,0,0,0,6.22-8.84Z"/></svg>