<svg id="Icons" xmlns="http://www.w3.org/2000/svg" viewBox="0 0 200 200"><title>155-couple-02</title><path d="M145.73,30.09A13.6,13.6,0,1,1,132.14,16.5,13.59,13.59,0,0,1,145.73,30.09Z"/><path d="M80.82,43.69a13.86,13.86,0,0,0,0-27.63,13.67,13.67,0,0,0-13.6,13.6c0,7.89,6.14,13.59,13.6,14Z"/><path d="M93.1,46.32h-25c-9.65,0-15.79,7.9-15.79,17.55V106a5.45,5.45,0,0,0,4.82,6.14,5,5,0,0,0,5.7-4.39l-2.19,15.79h3.51l-.88,52.2a7.52,7.52,0,0,0,8.34,7,7.92,7.92,0,0,0,7-7V124h3.51v52.2a7.52,7.52,0,0,0,8.34,7,7.92,7.92,0,0,0,7-7L96.61,124h3.07L96.61,94.13l-.44-28.51h2.19v40.8a5.52,5.52,0,1,0,11,1.31v-43c0-9.21-5.7-18.43-16.23-18.43ZM65.47,91.06h0l-2.2,15.36V65.18H65.9l-.43,25.88Z"/><path d="M148.8,46.32H116.35a17.81,17.81,0,0,0-7.9,2.2,23.78,23.78,0,0,1,6.14,15.79V176.16a7.53,7.53,0,0,0,8.34,7,7.92,7.92,0,0,0,7-7V111.68H133v64.48a7.53,7.53,0,0,0,8.34,7,7.93,7.93,0,0,0,7-7V64.31a9.82,9.82,0,0,1,.43-3.51v4h3.51v40.79a5.52,5.52,0,0,0,11,1.32v-43c-.44-7.9-4.83-16.23-14.48-17.55Z"/><path d="M65.9,34s-3.51-11-11-2.19S41.78,44.13,38.27,39.74,46.17,60.8,65.9,34Z"/><path d="M39.59,62.55a7.92,7.92,0,0,0,7,7H47V64.31a26,26,0,0,1,2.2-10.09H46.6A8.15,8.15,0,0,0,39.59,62.55Z"/></svg>