<svg id="Icons" xmlns="http://www.w3.org/2000/svg" viewBox="0 0 200 200"><title>156-famille-02</title><path d="M128.64,30a13.72,13.72,0,1,1-13.72-13.72A13.71,13.71,0,0,1,128.64,30Z"/><path d="M64.06,43.26h1.77a13.75,13.75,0,1,0-15-13.72A13.14,13.14,0,0,0,64.06,43.26Z"/><path d="M76.44,46.35H51.67c-9.73,0-15.48,8-15.48,17.69v41.58a4.9,4.9,0,0,0,4.87,5.75c2.21,0,4.42-.88,5.31-2.65L44.6,122.87h3.54L46.81,175.5A7.45,7.45,0,0,0,54.33,183a7.75,7.75,0,0,0,7.52-7.52V123.31h3.54V175.5A7.44,7.44,0,0,0,72.9,183a7.74,7.74,0,0,0,7.52-7.52l-.88-52.19h3.1L79.1,92.79l-.45-27.86h2.22v40.69a5.38,5.38,0,0,0,10.61,1.77V64c.44-8.84-4.86-17.69-15-17.69ZM48.58,91h0l-1.77,13.27V65.37h2.65Z"/><path d="M49,34S45.48,23.35,38,31.76s-12.82,11.94-16.81,8S29.56,60.51,49,34Z"/><path d="M22.48,61.39A7.46,7.46,0,0,0,30,68.91V63.6a24.22,24.22,0,0,1,2.21-9.73H30.44a7.85,7.85,0,0,0-8,7.52Z"/><path d="M170.65,93.68a8,8,0,1,1-8-8,8,8,0,0,1,8,8Z"/><path d="M172.42,103H158.27a6.05,6.05,0,0,0-5.31,1.77h0L146.33,114l-1.77-4a3.84,3.84,0,0,0,1.33-2.65V64c0-7.07-3.1-13.71-9.73-16.36h-.45c-.44,0-.88-.44-1.32-.44s-1.77-.45-2.66-.45H99.44a18,18,0,0,0-8,2.22,24,24,0,0,1,6.19,15.92V176a7.46,7.46,0,0,0,7.52,7.52,7.75,7.75,0,0,0,7.52-7.52V111.37h3.1v64.14a7.46,7.46,0,0,0,7.52,7.52,7.75,7.75,0,0,0,7.52-7.52V64.93h4.42v40.69c-.44,2.21.88,4.43,3.1,5.75l5.3,11.5a2.9,2.9,0,0,0,3.54.89c.44,0,.44-.45.89-.89l4.86-7.52v61.93a4.43,4.43,0,0,0,8.85,0V140.56h1.77v36.72a4.42,4.42,0,1,0,8.84,0v-63.7h1.77V137a3.13,3.13,0,0,0,6.19.88V113.14a8.79,8.79,0,0,0-8-10.17Z"/></svg>