<svg id="Icons" xmlns="http://www.w3.org/2000/svg" viewBox="0 0 200 200"><title>157-seul-02</title><path d="M114.46,29.24a13.73,13.73,0,1,1-13.73-13.73A13.73,13.73,0,0,1,114.46,29.24Z"/><path d="M115.93,45.91H85c-9.8,0-15.69,7.85-15.69,18.15v42.17a5.69,5.69,0,1,0,11.28,1.47V65h3.43V176.85a7.37,7.37,0,0,0,8.34,6.86c3.92-.49,6.87-3.43,6.87-6.86V112.12h2.94v64.73c.49,4.41,3.92,7.36,8.33,6.86,3.93-.49,6.87-3.43,6.87-6.86V65h3.43v41.19a4.92,4.92,0,0,0,4.91,5.89c3.43,0,5.88-1.47,5.88-4.91V63.57c.49-8.34-4.9-17.66-15.69-17.66Z"/></svg>