<svg id="Icons" xmlns="http://www.w3.org/2000/svg" viewBox="0 0 200 200"><title>158-flocon</title><path d="M169.31,118.09l-3.16-12.18-33.24,8.62-20.24-11.89,20.41-12.39,33.07,8.12,3-12.24L148.28,81l19.8-12-6.17-10.13L142,71l5.18-21.15-12.24-3-8.17,33.36L107.09,92.13V60.54L131.2,36.46l-8.91-8.91-15.2,15.2V25.68H95.22V43L79.85,27.55l-8.91,8.91L95.22,60.74V92.36L74,79.87,65.31,46.48,53.13,49.67l5.49,21.17-18-10.58-6,10.24L52.25,80.89,31.61,86.24l3.16,12.18,32.82-8.51,21.94,12.87L68.24,115.7l-33.47-8.23-3,12.24L53,124.92,35.2,135.74l6.17,10.16,17.51-10.62L53.78,156,66,159l8-32.93,21.15-12.84v28.07L70.86,165.65l8.88,8.91,15.48-15.49v14.8h11.87v-14.4l15.08,15.09,8.91-8.91-24-24V113.14l20,11.72,8.57,33,12.15-3.16-5.38-20.77,20,11.72,6-10.22-20.12-11.84,21.06-5.46Z"/></svg>