<svg id="Icons" xmlns="http://www.w3.org/2000/svg" viewBox="0 0 200 200"><title>159-soleil</title><path d="M100.22,81.18A18.32,18.32,0,1,1,81.91,99.49a18.34,18.34,0,0,1,18.31-18.31Zm0-8.82h0A27.13,27.13,0,0,0,73.09,99.49h0a27.14,27.14,0,0,0,27.13,27.14h0a27.14,27.14,0,0,0,27.14-27.14h0a27.14,27.14,0,0,0-27.14-27.13Z"/><path d="M99.14,141.53h2.67A4.18,4.18,0,0,1,106,145.7V169a4.18,4.18,0,0,1-4.18,4.17H99.14A4.18,4.18,0,0,1,95,169V145.71a4.18,4.18,0,0,1,4.18-4.18Z"/><path d="M99.14,26.14h2.67A4.18,4.18,0,0,1,106,30.32V53.57a4.18,4.18,0,0,1-4.18,4.18H99.14A4.18,4.18,0,0,1,95,53.57V30.32A4.18,4.18,0,0,1,99.14,26.14Z"/><path d="M31.14,94.11H54.39a4.18,4.18,0,0,1,4.18,4.18V101a4.18,4.18,0,0,1-4.18,4.18H31.14A4.18,4.18,0,0,1,27,101V98.29a4.18,4.18,0,0,1,4.18-4.18Z"/><path d="M146.53,94.11h23.25A4.17,4.17,0,0,1,174,98.29V101a4.17,4.17,0,0,1-4.17,4.18H146.53a4.18,4.18,0,0,1-4.18-4.18V98.29a4.18,4.18,0,0,1,4.18-4.18Z"/><path d="M129,130l1.89-1.89a4.17,4.17,0,0,1,5.9,0l16.45,16.44a4.17,4.17,0,0,1,0,5.9l-1.9,1.89a4.17,4.17,0,0,1-5.9,0L129,135.9A4.17,4.17,0,0,1,129,130Z"/><path d="M47.38,48.42l1.89-1.89a4.17,4.17,0,0,1,5.9,0L71.61,63a4.17,4.17,0,0,1,0,5.9l-1.89,1.9a4.17,4.17,0,0,1-5.9,0L47.38,54.32a4.17,4.17,0,0,1,0-5.9Z"/><path d="M47.53,144.76,64,128.32a4.18,4.18,0,0,1,5.91,0l1.89,1.89a4.17,4.17,0,0,1,0,5.9L55.32,152.56a4.17,4.17,0,0,1-5.9,0l-1.89-1.89a4.18,4.18,0,0,1,0-5.91Z"/><path d="M129.14,63.17l16.44-16.44a4.17,4.17,0,0,1,5.9,0l1.9,1.89a4.17,4.17,0,0,1,0,5.9L136.93,71a4.17,4.17,0,0,1-5.9,0l-1.89-1.9A4.17,4.17,0,0,1,129.14,63.17Z"/></svg>