<svg id="Icons" xmlns="http://www.w3.org/2000/svg" viewBox="0 0 200 200"><title>161-cocktail</title><path d="M161.09,16.69a3,3,0,0,0-4.13.39L134.12,45.82H78.22A23.81,23.81,0,1,0,54.6,72.59a24.83,24.83,0,0,0,10-2.16L99.48,115.5v61.81H69.56a3,3,0,1,0,0,5.91H135.3a3,3,0,1,0,0-5.91H105.38V115.5l50.2-64.95a2.87,2.87,0,0,0-2.36-4.73H141.8l19.68-25a3,3,0,0,0-.39-4.13Zm-70.67,65a3,3,0,1,1,3-3A3,3,0,0,1,90.42,81.65ZM124.48,58a40.6,40.6,0,0,0-5.12-.2A45.36,45.36,0,0,0,101.45,61a43,43,0,0,1-16,2.75A42.14,42.14,0,0,1,69.56,61c-2-.59-3.94-1.38-6.3-2l-5.51-7.28H129.4L124.48,58Zm22.63-6.3-7.67,9.84c-.79-.2-1.58-.59-2.17-.79a37.65,37.65,0,0,0-6.1-1.77l5.71-7.28Z"/></svg>