<svg id="Icons" xmlns="http://www.w3.org/2000/svg" viewBox="0 0 200 200"><title>162-groupe</title><path d="M77.71,73a22.75,22.75,0,1,1,22.75,22.75A22.79,22.79,0,0,1,77.71,73Zm22.75,38c-34.84,0-45.49,25-45.49,25v13H146.1v-13c-.15,0-10.8-25-45.64-25Z"/><path d="M168.84,69.26a19,19,0,1,1-19-19,19,19,0,0,1,19,19Z"/><path d="M149.84,103.38c-9.07,0-16,2.31-21.31,6.05,17.42,8.35,24.33,22.74,24.33,24.33v.72H184v-9.94C184,124,175.61,103.38,149.84,103.38Z"/><path d="M70.08,69.26a19,19,0,1,1-19-19,19,19,0,0,1,19,19Z"/><path d="M51.08,103.38c9.07,0,16,2.31,21.31,6.05C55,117.78,48.06,132.17,48.06,133.76v.72H17v-9.94C17,124,25.31,103.38,51.08,103.38Z"/></svg>