<svg id="Icons" xmlns="http://www.w3.org/2000/svg" viewBox="0 0 200 200"><title>164-office</title><path d="M181.81,95.47,151.19,64.85A18.55,18.55,0,0,0,125.26,39L104.59,18.25a5.8,5.8,0,0,0-4.11-1.71h0a6,6,0,0,0-3.79,1.39L19.09,95.57a5.9,5.9,0,0,0,0,8.27L96.22,181a5.9,5.9,0,0,0,4.19,1.73h0a5.8,5.8,0,0,0,4.09-1.68l77.21-77.29a5.89,5.89,0,0,0,1.77-4.18,5.8,5.8,0,0,0-1.71-4.11ZM177.93,100l-74.77,74.79c-4-30,7.79-64.66,25.72-80.81-13.8-3.91-30.44-19.06-28.8-35.68-21.57,27.13-28.25,60-18.15,90.61h0a81.59,81.59,0,0,0,7.87,17.65L23,99.8a.34.34,0,0,1-.13-.28.37.37,0,0,1,.13-.28l77.19-77.11a.49.49,0,0,1,.33-.13h0a.66.66,0,0,1,.15,0,.47.47,0,0,1,.16,0L121.41,42.8a18.55,18.55,0,0,0,26.07,25.94L178.06,99.4a.57.57,0,0,1,0,.15.47.47,0,0,1,0,.16.39.39,0,0,1-.1.25Z"/></svg>