<svg id="Icons" xmlns="http://www.w3.org/2000/svg" viewBox="0 0 200 200"><title>165-question-02</title><path d="M26.43,103.9V95.33a9.38,9.38,0,0,0,.21-1.14,65.74,65.74,0,0,1,4.11-19.58C41,48.22,60.3,31.9,88.7,26.53c2.44-.47,4.88-.66,7.49-1h8.56l.59.17c3.41.47,6.9.69,10.3,1.39a74.07,74.07,0,0,1,57.2,88l-.06.17c-9.74,45.38-58.88,71-101.33,52.41-24.67-10.78-39.31-29.89-44.19-56.41-.32-2.47-.54-4.91-.83-7.37Zm74.76-47.73h-1a30.8,30.8,0,0,0-18.22,5.93A23.61,23.61,0,0,0,71.8,78.73a9.19,9.19,0,0,0-.06,1A7.61,7.61,0,0,0,81.6,87a8.56,8.56,0,0,0,5-5.51,80.19,80.19,0,0,1,4.31-8.83,8.92,8.92,0,0,1,5.87-3.86,17.65,17.65,0,0,1,4.06-.47,18,18,0,0,1,4.12.48,10.63,10.63,0,0,1,8.16,13,14.69,14.69,0,0,1-4.57,6.54C105,91.6,101.39,94.77,98,98.09a19.92,19.92,0,0,0-5.83,14.11q0,.57,0,1.14a3.89,3.89,0,0,0,0,.53,6.94,6.94,0,0,0,8.59,6.73,6,6,0,0,0,5.27-5.69,18.7,18.7,0,0,1,7.06-12.18c.36-.27.65-.56,1-.83,3.17-3,6.51-5.81,9.51-9a18.85,18.85,0,0,0,5.7-13.52,19.28,19.28,0,0,0-.12-2.16A21.64,21.64,0,0,0,117.3,60a32.09,32.09,0,0,0-15.22-3.8h-.83Zm-1.54,86.89A8.57,8.57,0,1,0,91,134c-.27,4.48,0,.24,0,.34s0,.29,0,.45A8.29,8.29,0,0,0,98.88,143h.8Z"/></svg>