<svg id="Icons" xmlns="http://www.w3.org/2000/svg" viewBox="0 0 200 200"><title>166-verre-vin</title><path d="M141.82,71.92c-.58,3.09-1,6-1.74,9.08a36.17,36.17,0,0,1-13.32,21c-3.09,2.51-6,5.22-9.08,7.73-7.91,6.75-11.19,15.64-11,25.87.19,11.58.19,23.17.39,34.75a5,5,0,0,0,1.73,3.28,24.5,24.5,0,0,0,12.36,4.83c4.83.77,9.85,1,14.87,1.35h2.51v4.64H63.24V180H69A59.88,59.88,0,0,0,86.6,177a15.21,15.21,0,0,0,3.09-1.36,7.4,7.4,0,0,0,4.83-7.72c-.2-11.39.19-22.59.19-34a29.45,29.45,0,0,0-9.85-23.17c-3.28-2.9-6.37-6-9.84-8.49C65,94.71,60.73,84.47,59.57,72.5c-1.93-19.11,2.32-37.45,8.5-55.41a1.94,1.94,0,0,1,2.31-1.54h59.47a2.36,2.36,0,0,1,2.51,1.93,148.58,148.58,0,0,1,8.88,37.65,3.51,3.51,0,0,0,.39,1.35c.19,5.4.19,10.42.19,15.44ZM109.58,179.85a17,17,0,0,1-4.25-3.09,9.22,9.22,0,0,1-2.7-4.82c-.39-12-.39-23.75-.58-35.72,0-10.24,2.31-19.89,10-27.42,2.51-2.32,5-4.63,7.53-7.14,3.47-3.09,7.33-5.79,10-9.46,6.75-8.5,7.91-18.73,7.72-29a135.26,135.26,0,0,0-8.11-41.13,2.58,2.58,0,0,0-2.9-2.12H77.53c-5.8,0-6,0-7.53,5.6-4.64,15.64-7.92,31.66-5.8,48.07,1.36,9.85,5,18.34,13.13,24.52a131.61,131.61,0,0,1,11,9.66,29.21,29.21,0,0,1,9.46,15.83,69.51,69.51,0,0,1,1.35,12.55c0,11.58-.19,23.36-.39,34.94a4.38,4.38,0,0,1-1.15,3.09c-1.74,1.74-3.67,3.48-5.6,5.22l17.57.38Z"/><path d="M68.84,56.48c-.2,3.28-.39,6.56-.39,9.84.19,7.34,1.35,14.68,5.21,21.05,2.32,3.86,6,6.56,9.46,9.27,2.51,2.12,5.22,4,7.73,6.18,4.44,3.66,8.3,7.72,9.84,13.51,1.36-5.79,5.22-10,9.66-13.51,2.51-2.13,5.21-4.25,7.72-6.18,3.48-2.71,7.14-5.41,9.46-9.27,3.86-6.56,5-13.71,5.21-21.05,0-3.28-.38-6.56-.38-9.84H68.84Z"/></svg>