<svg id="Icons" xmlns="http://www.w3.org/2000/svg" viewBox="0 0 200 200"><title>167-avion</title><path d="M171,15.51c-7,0-15.66,4.35-22.62,11.31-11.61,10.45-23.21,22.34-34.24,34.24L23.29,42.78l-7,13.63L84.5,90.65,45.92,135.9c-9-2.9-22.63-6.09-22.63,4.64a12.55,12.55,0,0,0,2.32,7l27.27,27.26a11.75,11.75,0,0,0,7,2.33c10.73,0,7.54-13.93,4.64-22.63L110,115.88l33.65,67.89,13.64-7L139,86c11.9-11,23.5-22.33,34.23-34.23,7.26-7.25,11.32-15.66,11.32-22.63a13.56,13.56,0,0,0-3.77-9.86A13.56,13.56,0,0,0,171,15.51Z"/></svg>