<svg id="Icons" xmlns="http://www.w3.org/2000/svg" viewBox="0 0 200 200"><title>169-randonnée</title><path d="M110.22,183.21c-.4-.09-.81-.16-1.21-.27a6.92,6.92,0,0,1-5-6.22c0-.31,0-.6,0-.89q0-18.59,0-37.18a1.13,1.13,0,0,0-.43-1q-11.24-9.44-22.45-18.89a20,20,0,0,1-6-8A19.87,19.87,0,0,1,74,102.55c.16-4,1.4-7.72,2.48-11.5q5.48-19.14,11-38.29c0-.13.09-.27.14-.45.16,0,.32,0,.47.06,5.44,1.33,10.88,2.65,16.31,4a8.44,8.44,0,0,1,4.09,2.48q8.61,9.06,17.21,18.12s.11.1.18.18l.47-.22,18.07-9.21a.84.84,0,0,0,.52-.87c0-2.76,0-5.52,0-8.28v-.69h6.8v6.93c.5.07,1,.11,1.42.2a6.74,6.74,0,0,1,5.33,5.63c0,.14.07.28.11.42v1.41a2.46,2.46,0,0,0-.09.29A6.89,6.89,0,0,1,154.76,78c-.81.44-1.63.87-2.47,1.25a.91.91,0,0,0-.59,1q0,51.06,0,102.12c0,.29,0,.58,0,.87H145c0-.27-.06-.54-.06-.81V83.06l-.61.29-16.42,8.38a6.77,6.77,0,0,1-8.6-1.47L106.34,76.63a3.3,3.3,0,0,1-.31-.48,1.14,1.14,0,0,0-.27.51q-3.56,15-7.12,30a1.18,1.18,0,0,0,.22,1.13c4,5.24,8,10.49,12,15.73,1.47,1.93,2.91,3.89,4.54,5.69a8.07,8.07,0,0,1,2.26,5.64q0,20.47,0,40.94v.7a7,7,0,0,1-5,6.46c-.38.1-.77.18-1.16.26Z"/><path d="M62.42,183.21l-.73-.16a7,7,0,0,1-5-9.46c2-5.1,4-10.19,6-15.28,2.33-5.94,4.69-11.87,7-17.82a15.08,15.08,0,0,0,.59-3.09q1.31-8.44,2.59-16.88c.12-.77.24-1.53.4-2.31a9.55,9.55,0,0,0,3.37,6.29c2.52,2.38,5.16,4.63,7.74,6.93.49.44,1,.87,1.5,1.27a.66.66,0,0,1,.25.83c-.84,2.94-1.57,5.92-2.5,8.84-.69,2.16-1.62,4.25-2.45,6.37q-5.79,14.79-11.57,29.56a7,7,0,0,1-5.81,4.85.35.35,0,0,0-.15.07Z"/><path d="M80.77,50.85c-.47,1.66-.91,3.21-1.37,4.76L69,91.15c-.19.65-.38,1.29-.61,1.92a8.55,8.55,0,0,1-5.92,5.31,13.6,13.6,0,0,1-8-.08,33,33,0,0,1-6.57-2.55,10.68,10.68,0,0,1-4.33-3.94,9.5,9.5,0,0,1-1-6.58A49.38,49.38,0,0,1,54.3,60.35a26,26,0,0,1,13.5-8.5,42.64,42.64,0,0,1,10.8-1Z"/><path d="M124.43,32.77c0,9-5.64,16-13.7,17.76a17,17,0,0,1-18.62-9.3,17.62,17.62,0,0,1,7.3-23.17,16.93,16.93,0,0,1,23.75,8.8A17,17,0,0,1,124.43,32.77Z"/></svg>