<svg id="Icons" xmlns="http://www.w3.org/2000/svg" viewBox="0 0 200 200"><title>170-jumelle</title><path d="M153.72,120.84c-.78,0-1.57,0-2.35-.06s-1.42,0-2.11,0h.05c.63,0,1.28.05,1.93,0C152.07,120.83,152.89,120.85,153.72,120.84Z"/><path d="M183.19,93.2h0a16.18,16.18,0,0,0-5.36-7.26l0,0-1.19-.79-.13-.14-.86-.42c.16.09.31.19.46.29l-.58-.36-.61-.3a2.35,2.35,0,0,1,.4.18L107.62,42.81c-4.64-4-12.73-5.17-20.69-2.39-10.61,3.72-17.1,13-14.32,20.69a4.78,4.78,0,0,0,.53,1.19A48.68,48.68,0,0,0,63.33,66l-.93.53a.59.59,0,0,1,.1.17l-.1.1-1.46-1.46C55.38,60.18,45.3,58.72,35.62,62,22.23,66.54,14.4,77.81,17.72,87.1a8.24,8.24,0,0,0,.4,1.06c.13.26.26.66.39.93L20,91.21l.14.13,39.64,57.94a25,25,0,0,1-1.32-2.78,24.16,24.16,0,0,0,1.32,2.78l.93,1.33.1,0c6.58,9.21,21.72,12.55,36.63,7.33,17.24-6,27.58-21,23.2-33.41a17.12,17.12,0,0,0-2.25-4.38l-.13-.26a21.16,21.16,0,0,0-5.31-5,.13.13,0,0,1-.13-.13L86.67,90.15a58,58,0,0,0-14.19,11.93s-9.55-5.44-14.58-12.6a15.48,15.48,0,0,1-2.66-5.83,21.22,21.22,0,0,0,2.12,2.65A73.36,73.36,0,0,0,71.29,97.84,58.17,58.17,0,0,1,84.94,86.7a93.78,93.78,0,0,1,11.41-6A91.5,91.5,0,0,1,127.11,74c.93.66,1.86,1.46,2.92,2.25-.14.14-.14.14-.14.27h-.13c0,.26-.26.4-.4.53h0a90.86,90.86,0,0,0-31.82,7.42l36.39,31.12-.06,0c5.7,7,17.77,9.41,29.7,5.3C178.16,115.87,186.64,103.54,183.19,93.2ZM82.56,114.94a40.27,40.27,0,0,1,12.59-2.78h0a34.89,34.89,0,0,1,5.31.13h.26c6.76.8,12.6,10.21,12.6,10.21A5,5,0,0,1,114,124c4,11.4-5.44,25.19-21.08,30.63a39,39,0,0,1-16.05,2.12,35,35,0,0,0,8.23.93,34.23,34.23,0,0,1-8.23-.93,22.89,22.89,0,0,1-5-1.86,18.13,18.13,0,0,1-7.16-6.23,18.75,18.75,0,0,1-1.46-2.78C58.69,134.83,67.44,121,82.56,114.94ZM62.4,150l-.79.39-.67.4-.13-.18.53-.22.93-.39a14.77,14.77,0,0,1-4.11-6.37,15.8,15.8,0,0,1-.8-4.9v-.14h0a13.11,13.11,0,0,0,.93,5A16.59,16.59,0,0,0,62.4,150ZM175.79,87.08l0,0,0,0a20.6,20.6,0,0,0-5.93-2.54A23.16,23.16,0,0,1,175.79,87.08Zm-39.74,27.25a11.91,11.91,0,0,1-2.58-4.43,12.2,12.2,0,0,1-.46-1.75,11.88,11.88,0,0,0,.46,1.62,12,12,0,0,0,2.65,4.51Zm-2.07,1.2h0C133.13,114.46,133.13,114.37,134,115.53Zm15.33,5.21c-5.74-.27-10.83-2.27-14.07-5.74l.09-.06.08,0c3.19,3.49,8.23,5.53,13.85,5.84a22.76,22.76,0,0,1-5.84-1.81h-.14a16,16,0,0,1-6.1-5,11.5,11.5,0,0,1-1.72-3.31c-3.18-9.29,4.51-20.42,17.24-24.8l.66-.26a34.53,34.53,0,0,0-8.65,3.21,32,32,0,0,1,5.34-2.42,24.6,24.6,0,0,1,3.31-.93,29.48,29.48,0,0,1,9.55-1.59h.26a21.55,21.55,0,0,1,7.56,2.12,22.11,22.11,0,0,1,3.71,2.39h0a13.08,13.08,0,0,1,4.09,6c3.19,9.28-4.5,20.42-17.1,24.92a36,36,0,0,1-7.29,1.65h0q-1.3.17-2.64.21Q150.41,120.94,149.31,120.74Z"/><path d="M175.71,84.55l-.33-.19.21.12Z"/></svg>