<svg id="Icons" xmlns="http://www.w3.org/2000/svg" viewBox="0 0 200 200"><title>172-maison</title><path d="M179.31,82.38l-22.62-18V34.52c0-6-5.93-10.77-13.22-10.77s-13.21,4.81-13.21,10.77v8.82L109.94,27.2a17.45,17.45,0,0,0-21,.24L21.19,84a10.63,10.63,0,0,0,.21,17.13l21.78-.19V163.4c0,6.69,6.66,12.13,14.89,12.13H99.45V141.71c0-6.69,6.65-12.13,14.88-12.13h14.5c8.23,0,14.89,5.44,14.89,12.13v33.82c7.77-.45,13.94-5.72,13.94-12.1V99.74l22-.21a10.46,10.46,0,0,0-.31-17.12ZM89.83,114.84a7,7,0,0,1-6.94,6.24c-.25,0-.49,0-.73,0H63.23c-.21,0-.46,0-.7,0a7,7,0,0,1-6.93-6.21V99.36a7,7,0,0,1,6.94-6.28c.25,0,.49,0,.73,0h19c.2,0,.45,0,.69,0a7,7,0,0,1,6.94,6.25Z"/></svg>