<svg id="Icons" xmlns="http://www.w3.org/2000/svg" viewBox="0 0 200 200"><title>174-carte-02</title><path d="M166.14,5.44h0a30.2,30.2,0,0,0-30.2,30.2v.1c0,31,30.2,57.12,30.2,57.12s30.21-26.08,30.21-57.13v-.09a30.21,30.21,0,0,0-30.21-30.2Zm0,44.66A14.46,14.46,0,1,1,180.6,35.64v.1A14.45,14.45,0,0,1,166.14,50.1Z"/><path d="M75,173.22l52,8.12v-119L75,54.27ZM17.3,181.34l52.24-8.12V54.27l-52,8.07Zm152.12-72.21-3.54,3.06-3.55-3.06c-1.11-1-23.38-20.49-30.12-46.7h0V181.34l52.2-8.12V92.9A114.29,114.29,0,0,1,169.78,109Z"/></svg>