<svg id="Icons" xmlns="http://www.w3.org/2000/svg" viewBox="0 0 200 200"><defs><style>.cls-1{fill:#000201;}</style></defs><title>175-service</title><path class="cls-1" d="M175.27,108.32l-.23-.19a11.06,11.06,0,0,0-15.2,1.49l-18.31,20.63v.26a18.79,18.79,0,0,1-18.85,17.87H102.91a4,4,0,0,1,0-8h19.77a10.66,10.66,0,0,0,10.81-10.06,10.37,10.37,0,0,0-10.05-10.69H90.18l-5.35-1.87a37.15,37.15,0,0,0-38.45,8.7L22,150.61l34,33.16,9.61-9.61h54.85a25.63,25.63,0,0,0,19.32-8.78l36.52-41.87A10.77,10.77,0,0,0,175.27,108.32Z"/><path class="cls-1" d="M89.13,83.62a2.24,2.24,0,0,0-1,1.69c0,.81.63,1.57,1.72,2.21-1,.64-1.62,1.37-1.62,2.15s.61,1.52,1.66,2.16c-1.07.65-1.69,1.39-1.69,2.19,0,1,.91,1.87,2.45,2.59a2.42,2.42,0,0,0-.94,1.76c0,1.86,2.9,3.44,7,4.07a4.43,4.43,0,0,0,7.7,0c4.11-.62,7-2.21,7-4.07a2.37,2.37,0,0,0-.91-1.74C112.08,95.91,113,95,113,94c0-.79-.61-1.52-1.66-2.16,1.07-.65,1.69-1.39,1.69-2.19s-.64-1.56-1.73-2.21c1-.63,1.62-1.36,1.62-2.14a2.35,2.35,0,0,0-1-1.76c3-1.78,4.93-4.2,4.93-6.8,0-10.6,12.64-15.24,12.64-33.46,0-15.35-13-27.79-29-27.79h0c-16,0-29,12.44-29,27.79,0,18.22,12.65,22.86,12.65,33.46C84.11,79.39,86.12,81.82,89.13,83.62ZM100.46,23.1c11.81,0,21.41,9.06,21.41,20.2,0,8-3,12.46-6.26,17.19h0c-2.89,4.25-6.16,9-6.36,15.63-1,1.11-4.53,2.91-8.77,2.91s-7.79-1.8-8.78-2.91c-.2-6.59-3.47-11.39-6.37-15.63-3.23-4.73-6.27-9.2-6.27-17.19C79.05,32.16,88.65,23.1,100.46,23.1Z"/></svg>