<svg id="Icons" xmlns="http://www.w3.org/2000/svg" viewBox="0 0 200 200"><defs><style>.cls-1{fill:#000100;}</style></defs><title>177-viadeo</title><path class="cls-1" d="M142.53,100.08c-.11-.28-.26-.54-.39-.81-1.54.8-3,1.61-4.5,2.3a48.39,48.39,0,0,1-4.49,1.81c-1.56.54-3.15,1-4.72,1.42a1.24,1.24,0,0,0,0,.31,6.45,6.45,0,0,0,.21.62,47.71,47.71,0,0,1,3.23,17.19,47.16,47.16,0,0,1-2,14.5A45.82,45.82,0,0,1,119,156.23a42.6,42.6,0,0,1-27.65,13c-1,.09-2,.08-3.08.12a2,2,0,0,1,.06-.32c.56-.42,1.13-.83,1.69-1.26A89.18,89.18,0,0,0,116.46,136a78.83,78.83,0,0,0,8.14-33.53,88.5,88.5,0,0,0-1.37-17.12A106.89,106.89,0,0,0,118,66.48a9.16,9.16,0,0,0-.44-.92c-.13-1-.18-1.32-.21-1.51s0-.49,0-.56a93.11,93.11,0,0,0-3-15.7,72.69,72.69,0,0,0-8.75-19.71A51.44,51.44,0,0,0,96,16.74c-.36-.31-.74-.6-1.2-1,0,.24-.06.38,0,.47.27.5.57,1,.85,1.48a283.18,283.18,0,0,1,17.46,35.53c1.37,3.36,2.62,6.77,3.92,10.15l.39.71c0,.2.08.55.21,1.51.07,1.78.17,3.62.2,5.2a228.27,228.27,0,0,1-1,27.8c-.44,4.27-1,8.52-1.71,12.75a137.08,137.08,0,0,1-3.58,15.73,93.32,93.32,0,0,1-7.36,18.35,57.42,57.42,0,0,1-10.44,14.08,42.89,42.89,0,0,1-13.38,8.86,2.8,2.8,0,0,1-1.65.17,42.91,42.91,0,0,1-18.55-8.49,43.37,43.37,0,0,1-11.32-13.65,47.23,47.23,0,0,1-5.54-18.07,51.17,51.17,0,0,1,.16-11.27A45.76,45.76,0,0,1,47,103.84,47.85,47.85,0,0,1,59,87.61,42.3,42.3,0,0,1,72.35,79.4,41.34,41.34,0,0,1,82.28,77a46.3,46.3,0,0,1,9-.14,39.46,39.46,0,0,1,11.23,2.54c.31.13.64.2,1.1.35a40.65,40.65,0,0,1,1.55-7.24A57.85,57.85,0,0,1,108,65.75a4.82,4.82,0,0,0-1.76-.73A59.66,59.66,0,0,0,91.17,62.3a64.27,64.27,0,0,0-16.32,1.12,53.59,53.59,0,0,0-18.07,7.16,60.48,60.48,0,0,0-14,12.25,60,60,0,0,0-14.54,36.65,66.9,66.9,0,0,0,.42,11.92,59.24,59.24,0,0,0,4.37,16.17,63.56,63.56,0,0,0,15.58,21.69,52.28,52.28,0,0,0,16.88,10.43,58.65,58.65,0,0,0,18.18,3.71,67.34,67.34,0,0,0,17.23-1.24,53.41,53.41,0,0,0,21-9.37,61.72,61.72,0,0,0,12.77-12.95A59.58,59.58,0,0,0,146.63,127a67.17,67.17,0,0,0-.76-14.79A58.46,58.46,0,0,0,142.53,100.08Z"/><path class="cls-1" d="M170.83,34.57a55.42,55.42,0,0,0-5.5-13.44c-.35-.6-.73-1.18-1.18-1.89-.34.61-.61,1.09-.87,1.58a33.76,33.76,0,0,1-6.4,8.6A30.17,30.17,0,0,1,143,37.31c-.47.11-.94.24-1.4.37a51.5,51.5,0,0,0-11.36,4.71A21.46,21.46,0,0,0,124,47.87a21,21,0,0,0-4.56,14.19,27.39,27.39,0,0,0,3.5,12.12c.11.18.26.34.47.62,17-4.16,29.71-13.87,38.53-29.22a8.29,8.29,0,0,1-.07,1,16.72,16.72,0,0,1-1.36,3.82,32.74,32.74,0,0,1-5.09,7.3,80,80,0,0,1-11.48,10.37,149.12,149.12,0,0,1-15.63,10.38,2.69,2.69,0,0,0-1.17.88c.74.66,1.43,1.32,2.17,1.94a28,28,0,0,0,9.26,5.35,20.33,20.33,0,0,0,10,.78,22.26,22.26,0,0,0,10.84-5.25,35.92,35.92,0,0,0,7.47-9.26,34,34,0,0,0,3-6.25,53.67,53.67,0,0,0,2.79-14.12A55.46,55.46,0,0,0,170.83,34.57Z"/></svg>