<svg id="Icons" xmlns="http://www.w3.org/2000/svg" viewBox="0 0 200 200"><title>178-feuille-02</title><path d="M176.37,52.94c-.2,1.27-.46,2.5-.75,3.7a.34.34,0,0,0-.08.09c-5.31,7.6-12,14.19-21.16,16.64-4.89,1.3-10.32,1.11-15.32.79-12.31-.8-24.43-3.34-36.73-4.29C92,69.08,81.11,69.25,71.7,74,61.16,79.33,56.05,89.72,54,100.91a4,4,0,0,0,1,3.56c-15,2.2-30.62,7-37.26,21.93-2.26,5.08,5.51,8.82,7.78,3.73,5-11.17,16.41-15,28.14-16.9a3.8,3.8,0,0,0,1.49,3.68c15.92,13,34.7,23.82,55.85,23.11,16-.55,30.11-9.36,41-20.52,10.14-10.38,17.69-23.37,23.67-36.49,3.32-7.29,7.29-15.7,8.4-23.74a4.27,4.27,0,0,0,0-.79c.3-1.27.57-2.56.79-3.9C185.74,49.09,177.27,47.45,176.37,52.94ZM82.12,79.31c11.08-2.94,23.64-.65,34.77.86,10.47,1.42,21,3.16,31.64,2.68a37.16,37.16,0,0,0,12-2.55c-15,11.86-37.68,15.21-57.12,17.7q-20.62,2.66-41.22,5.48a4.94,4.94,0,0,0,.27-.94C64.63,90.81,70.3,82.44,82.12,79.31Zm66.69,30.82c-8.89,10.49-20.61,18.91-34.46,20.92-19,2.76-37.06-7.58-51.53-19,2.83-.3,5.57-.57,8.15-.89,15.63-1.93,31.37-4.07,46.94-6.5,16.16-2.53,32.55-7,45.17-15.71A121.49,121.49,0,0,1,148.81,110.13Z"/></svg>