<svg id="Icons" xmlns="http://www.w3.org/2000/svg" viewBox="0 0 200 200"><title>179-carte-interactive</title><path d="M66.85,74.22c8.22,15.1,18,29.65,29.58,42.35,1.87,2,5.9,2.23,7.74,0a343.77,343.77,0,0,0,24.76-34.68c4.44-7,9.12-14.5,9.62-23,1.34-22.75-14.4-40.3-36.67-42.29a5.68,5.68,0,0,0-1.64-.16,5.48,5.48,0,0,0-1.49.13C70.12,19,54.3,47.09,66.38,73.1A6.35,6.35,0,0,0,66.85,74.22ZM100,39.85c17.93-1,17.84,26.83,0,27.79C82.06,66.68,82.06,40.81,100,39.85Z"/><path d="M164.1,89.72,123,99.19l-.79,1.26c-1.82,2.88-3.64,5.65-5.57,8.48l-.18.26.26,63.87-35.82-8.83,3.35-54.45-.2-.29q-1.68-2.47-3.32-5.08l-1.63-2.61-4.79,62.72L28.85,175.16l11.36-68.48,36.94-8.19-1.09-1.93c-.29-.5-.58-1-.86-1.52a7.26,7.26,0,0,1-.47-1.1c-.09-.19-.17-.38-.25-.57L74,92.29,34.9,100.84,19.36,184.67l58.8-13.89,42.21,10.4,61.19-14.81Zm-40.84,83.55-1.47-66.64,36.7-8.33,13.7,63.16Z"/></svg>