<svg id="Icons" xmlns="http://www.w3.org/2000/svg" viewBox="0 0 200 200"><title>180-ticket-contour</title><path d="M181.69,70.68l-8.87-8.86a22.7,22.7,0,0,1-31.16-31.16L130.32,19.31a6.94,6.94,0,0,0-9.79,0L19.23,120.62a6.92,6.92,0,0,0,0,9.78l11.38,11.37a22.7,22.7,0,0,1,31.1,31.1l8.89,8.9a6.93,6.93,0,0,0,9.78,0L181.69,80.47A6.93,6.93,0,0,0,181.69,70.68ZM153.64,97.2l-.73-.72a4,4,0,1,0-5.61,5.7l.69.67-72.5,72.5-4.22-4.23a30.69,30.69,0,0,0-38.91-38.9l-6.71-6.71L97.72,53.44l.43.42A4,4,0,0,0,101,55a4,4,0,0,0,2.8-6.86l-.38-.37,22.05-22,6.64,6.64a30.7,30.7,0,0,0,39,39l4.17,4.17Z"/><path d="M115.85,60a4,4,0,1,0-5.61,5.7l6.44,6.34a4,4,0,0,0,2.81,1.15,4,4,0,0,0,2.8-6.86Z"/><path d="M134.38,78.26a4,4,0,1,0-5.61,5.7l6.45,6.34a4,4,0,0,0,2.8,1.15,4,4,0,0,0,2.85-1.2,4,4,0,0,0,0-5.66Z"/></svg>