<svg id="Icons" xmlns="http://www.w3.org/2000/svg" viewBox="0 0 200 200"><title>181-fichier</title><path d="M77.07,67.3h46.78a3.56,3.56,0,0,0,3.56-3.57V43.87a3.56,3.56,0,0,0-3.56-3.56h-6.14a3.56,3.56,0,0,1-3.56-3.56V30.38a3.56,3.56,0,0,0-3.56-3.56H90.33a3.56,3.56,0,0,0-3.56,3.56v6.37a3.56,3.56,0,0,1-3.56,3.56H77.07a3.56,3.56,0,0,0-3.57,3.56V63.73A3.57,3.57,0,0,0,77.07,67.3Z"/><polygon points="68.1 140.7 37.62 110.98 37.62 134.35 16.8 134.35 16.8 147.05 37.62 147.05 37.62 170.42 68.1 140.7"/><path d="M140.05,40h-.56a16.37,16.37,0,0,1,.48,3.92V63.73a16.15,16.15,0,0,1-16.12,16.13H77.07A16.15,16.15,0,0,1,60.94,63.73V43.87A15.89,15.89,0,0,1,61.43,40h-.56a14.5,14.5,0,0,0-14.49,14.5v52.67l33.77,34.06L50.67,170.92a14.48,14.48,0,0,0,10.2,4.19h79.18a14.49,14.49,0,0,0,14.49-14.49V54.45A14.5,14.5,0,0,0,140.05,40Z"/></svg>