<svg id="Icons" xmlns="http://www.w3.org/2000/svg" viewBox="0 0 200 200"><title>182-tablette-tactile</title><path d="M172.42,41.43H28.5A11.78,11.78,0,0,0,16.75,53.19v90.43A11.77,11.77,0,0,0,28.5,155.37h64l-3.24-4.6h0l-6.47-10H32.42V56.59H167.65V140.9H157.26L161,155.37h11.42a11.77,11.77,0,0,0,11.75-11.75V53.19A11.89,11.89,0,0,0,172.42,41.43Z"/><path d="M152,152.31a32.37,32.37,0,0,1-.34-6.3c0-8.52.17-21.29-9.71-36.62h0l-6-9.2A7.13,7.13,0,0,0,131.54,97a7.69,7.69,0,0,0-5.45,1h-.17a7.26,7.26,0,0,0-2.21,2.38,6.5,6.5,0,0,0-2.9-1.36,7.37,7.37,0,0,0-5.62,1l-.17.17a7.57,7.57,0,0,0-2.72,3.41,7.48,7.48,0,0,0-6.82.34c-.17,0-.17.17-.34.17a6.86,6.86,0,0,0-2.21,2.21l-9.54-15a8,8,0,0,0-4.94-3.57,7.36,7.36,0,0,0-6,1h-.17a8.09,8.09,0,0,0-3.58,4.94,7.32,7.32,0,0,0,1,6l16,25a9.5,9.5,0,0,0-2.22,1.36,7.39,7.39,0,0,1-1.19.68h0A8.54,8.54,0,0,0,88.62,132a7.57,7.57,0,0,0,1.19,6.3l5.62,8.86c.18.17.18.34.35.34,6.81,9.37,15,11.75,20.6,13.45a31.54,31.54,0,0,1,3.92,1.37c.17,0,.34.17.51.17h0c2.56.51,3.41,1.87,4.77,4.25l.51.85a2.12,2.12,0,0,0,1.87,1,3.15,3.15,0,0,0,1.2-.34,2.23,2.23,0,0,0,.68-3.07l-.51-.85c-1.54-2.56-3.24-5.28-7.5-6.13h0c-1.19-.51-2.55-.85-4.08-1.36-5.62-1.71-13.46-3.92-19.42-13.46h0l-4.6-7.32a3.89,3.89,0,0,1-.51-3.07,3.56,3.56,0,0,1,1.87-2.55h0a6.91,6.91,0,0,0,1.2-.85c.68-.52,1.87-1.2,2-1.37a2.1,2.1,0,0,1,.34.51L105.14,139a2.14,2.14,0,0,0,1.88,1,3.15,3.15,0,0,0,1.19-.34,2.21,2.21,0,0,0,.68-3.06l-6.47-10.22h0L83.85,97.64a4,4,0,0,1-.51-2.73,3.5,3.5,0,0,1,1.54-2.21h.17a3.94,3.94,0,0,1,2.72-.51A3.52,3.52,0,0,1,90,93.72l13.12,20.61h0l6.13,9.7a2.12,2.12,0,0,0,1.87,1,3.25,3.25,0,0,0,1.2-.34,2.23,2.23,0,0,0,.68-3.07l-6.13-9.71a3.07,3.07,0,0,1,1-4.26h0a3.08,3.08,0,0,1,4.26,1l6.13,9.7a2.12,2.12,0,0,0,1.87,1,3.15,3.15,0,0,0,1.19-.34A2.23,2.23,0,0,0,122,116l-5.11-8h0a2.92,2.92,0,0,1-.34-2.39,2.62,2.62,0,0,1,1.37-1.87h0a2.89,2.89,0,0,1,2.38-.34,2.63,2.63,0,0,1,1.87,1.36l2,3.24h0l4.08,6.47a2.16,2.16,0,0,0,1.88,1,3.15,3.15,0,0,0,1.19-.34,2.23,2.23,0,0,0,.68-3.07l-4.26-6.47h0a3.24,3.24,0,0,1-.34-2.21,3.11,3.11,0,0,1,1.2-1.71h0a3.24,3.24,0,0,1,2.21-.34,4.33,4.33,0,0,1,1.87,1.2l6,9.19c9,14.31,9,26.23,9,34.24a30,30,0,0,0,.51,7.32,2.16,2.16,0,0,0,2.05,1.7h.51A2.31,2.31,0,0,0,152,152.31Z"/><path d="M77.89,84.35a14.39,14.39,0,0,0-2.38,20.27l2.89-2.21a10.8,10.8,0,0,1,17-13.29l2.9-2.21A14.64,14.64,0,0,0,77.89,84.35Z"/></svg>