<svg id="Icons" xmlns="http://www.w3.org/2000/svg" viewBox="0 0 200 200"><defs><style>.cls-1{fill:#000100;}</style></defs><title>184-lotus</title><path class="cls-1" d="M79.48,154.91A43.05,43.05,0,0,1,76,152.25,86.4,86.4,0,0,1,43.41,76.83,64.14,64.14,0,0,0,27.6,74.56c-3.27,0-5.55.47-6.12,1-2.61,2.66-3.75,32.37,21.83,58C55.65,145.94,68.8,152.11,79.48,154.91Z"/><path class="cls-1" d="M152.86,117.37a87.91,87.91,0,0,1-27.48,36.4,81,81,0,0,0,32.18-20.17c25.63-25.58,24.53-55.34,21.83-57.95-.57-.62-2.8-1.09-6.12-1.09a59.17,59.17,0,0,0-13.67,1.8C160.59,86.85,159.6,101.18,152.86,117.37Z"/><path class="cls-1" d="M101.46,76.55a87,87,0,0,1,14.8-16.38C110,49.64,103.12,44,101.12,44s-8.3,5.79-14.24,15.75A87.63,87.63,0,0,1,101.46,76.55Z"/><path class="cls-1" d="M90.87,153.77a76.06,76.06,0,0,1-4-15.71,88.05,88.05,0,0,1,5.94-45.75,80.43,80.43,0,0,1,4.46-9.12c-13.62-22.54-33.23-30.8-38.21-30.8a1.87,1.87,0,0,0-.85.1c-3.52,1.42-15,30.7-2.14,61.93C64.72,135.45,80.33,148.12,90.87,153.77Z"/><path class="cls-1" d="M99.32,95c-13,31.14-2,60.38,1.8,61.94a2.14,2.14,0,0,0,1,.15c6.36,0,31.18-11.11,44.18-42.39C160.4,81.2,148,54.15,144.6,52.72a1.72,1.72,0,0,0-.76-.09C138.24,52.63,111.66,65.4,99.32,95Z"/></svg>