<svg id="Icons" xmlns="http://www.w3.org/2000/svg" viewBox="0 0 200 200"><title>186-avec-enfant</title><circle cx="131.47" cy="87.63" r="8.55"/><path d="M141.12,98H126.46c-4.43.11-5.69,2-5.69,2l-7.06,10.15-1.72-3.8V65.1c0-9-5.31-17.89-15.88-17.89H65.62C56,47.2,50,55.05,50,64.86v41.77c0,8.11,10.73,8.11,10.73,0V66h3.41V176.29a7.63,7.63,0,1,0,15.25,0v-64h3.39l0,64a7.63,7.63,0,1,0,15.26,0L98,66h3.35v40.66c0,4.43,3.13,6.38,6,6l3.13,6.93s2.7,3.26,5,0l5.33-7.65v67.21a4.8,4.8,0,1,0,9.59,0V138.89h2.13v40.23a4.8,4.8,0,1,0,9.6,0V109.76h2.14v25.56c0,5.1,6.75,5.1,6.75,0V109.06C151,102.9,147.17,98,141.12,98Z"/><path d="M81,44.38A13.61,13.61,0,1,0,67.36,30.77,13.6,13.6,0,0,0,81,44.38Z"/></svg>