<svg id="Icons" xmlns="http://www.w3.org/2000/svg" xmlns:xlink="http://www.w3.org/1999/xlink" viewBox="0 0 200 200"><defs><style>.cls-1{fill:none;}.cls-2{clip-path:url(#clip-path);}</style><clipPath id="clip-path"><rect class="cls-1" x="44.27" y="17.54" width="112.37" height="166.58"/></clipPath></defs><title>187-forfait</title><g class="cls-2"><path d="M133.61,44.82H106V23a5.44,5.44,0,1,0-10.87,0V44.82H67.49A23.15,23.15,0,0,0,44.27,67.94v91.54a23.14,23.14,0,0,0,23.22,23.11h66.12a23,23,0,0,0,23.09-23.11V67.94a23,23,0,0,0-23.09-23.12ZM116,76.54a7.38,7.38,0,0,1,6.52,3.92l15.76,29.81a2.72,2.72,0,0,1-2.36,4H121.32l0,0L106.47,86.13l3-5.67A7.41,7.41,0,0,1,116,76.54ZM95.17,52.89v6.38a5.44,5.44,0,1,0,10.87,0V52.89a9.15,9.15,0,0,1,3.78,7.46,9.24,9.24,0,1,1-18.47,0,9.13,9.13,0,0,1,3.82-7.46ZM66.84,171.51H62V143h4.89ZM65,128.28a2.64,2.64,0,0,1-2.28-1.23,2.59,2.59,0,0,1-.07-2.58L84.05,83.89a7.38,7.38,0,0,1,13,0l21.44,40.58a2.57,2.57,0,0,1-.07,2.56,2.65,2.65,0,0,1-2.29,1.23Zm23.61,43.23H77.7V143H88.57v28.53Zm14.7,0H99.42V143h3.84Zm14.47,0h-3.62V143h3.62Zm21.51,0H128.6V143h10.64Zm0,0"/></g></svg>