<svg id="Icons" xmlns="http://www.w3.org/2000/svg" viewBox="0 0 200 200"><title>188-fleche-circulaire</title><path d="M161.5,35.52c-.16-2.8-2.36-5.58-5.42-5.41l-13.72.76c-2.8.16-5.59,2.36-5.42,5.42l.63,11.22C97,21,38.07,46.72,36.78,99.1a65,65,0,0,0,37.77,60.2c24.19,11,51.73,5.54,71.22-12,2.17-1.95,2-5.67,0-7.66l-7-7a5.54,5.54,0,0,0-7.65,0c-28.41,24.94-74.89,5.37-73.62-33.58,1.19-36.42,43.13-53.38,70.61-33.06l-18,1c-2.79.15-5.58,2.35-5.41,5.41q.38,6.87.77,13.72c.15,2.8,2.35,5.59,5.41,5.42L158.47,89a6.23,6.23,0,0,0,3.83-1.63,4.64,4.64,0,0,0,1.85-4.19Q162.82,59.33,161.5,35.52Z"/></svg>