<svg id="Icons" xmlns="http://www.w3.org/2000/svg" viewBox="0 0 200 200"><defs><style>.cls-1{fill:#000100;}</style></defs><title>189-ski</title><path class="cls-1" d="M140.65,17.39C135.2,14.85,123.8,24.1,121,30l-67,143.6,22.55,10.51,67-143.59C146.34,34.61,146.11,19.94,140.65,17.39ZM100.11,118.14,89.53,113.2l1.54-3.3,10.58,4.94Zm7.41-15.89L96.94,97.31,98.48,94l10.58,4.93Zm71,58.78a21.63,21.63,0,0,1-5.9,1.51v-106a5.59,5.59,0,0,0,3.17-5V39.07a5.6,5.6,0,1,0-11.2,0V51.5a5.59,5.59,0,0,0,3.17,5v106a21.63,21.63,0,0,1-5.9-1.51L160,165.51a26.68,26.68,0,0,0,7.76,1.92v4.76h4.86v-4.76a26.68,26.68,0,0,0,7.76-1.92Zm-145.3,1.51v-106a5.59,5.59,0,0,0,3.17-5V39.07a5.6,5.6,0,1,0-11.2,0V51.5a5.59,5.59,0,0,0,3.18,5v106A21.6,21.6,0,0,1,22.43,161l-1.86,4.48a26.68,26.68,0,0,0,7.76,1.92v4.76h4.86v-4.76A26.68,26.68,0,0,0,41,165.51L39.09,161A21.63,21.63,0,0,1,33.19,162.54Zm69.28-25.23c12.2,26.15,21.83,46.81,21.83,46.81l22.54-10.52L116.2,107.88Zm-17.74-38L98.46,69.83C90.81,53.44,84.06,39,79.89,30,77.13,24.1,65.74,14.85,60.28,17.39s-5.7,17.22-2.94,23.14Z"/></svg>