<svg id="Icons" xmlns="http://www.w3.org/2000/svg" viewBox="0 0 200 200"><defs><style>.cls-1{fill:#000100;}</style></defs><title>190-raquettes-ski</title><path class="cls-1" d="M171.36,154.62A4.36,4.36,0,1,1,167,159a4.36,4.36,0,0,1,4.37-4.36m0-12.84A3.37,3.37,0,1,0,168,138.4a3.39,3.39,0,0,0,3.37,3.38M38.78,172.31a4.36,4.36,0,0,0-4.9,7.21c.73.5,7.35,4.88,13.56,4.88H89.06a4.35,4.35,0,1,0,0-8.7H47.44c-2.67,0-6.75-2.09-8.66-3.39M117.46,175a4.36,4.36,0,0,0,.82,8.64,5.92,5.92,0,0,0,.82-.07c.88-.17,8.64-1.76,13.05-6.17L161.56,148a4.35,4.35,0,0,0-6.15-6.16L126,171.28c-1.9,1.9-6.24,3.32-8.52,3.76M77.73,47.17A15.24,15.24,0,1,0,62.46,31.92,15.25,15.25,0,0,0,77.73,47.17m-51.41,20a2.93,2.93,0,0,1,4.08.53L35.23,74a9.37,9.37,0,0,1,3.55-.76H59.49L85.23,53.39C92.12,48.08,102.8,49.62,107,60l12.57,31c1.19,3,.75,6,.51,9.14l-2.68,30.15,21,19.53L126,162.14l-23.6-22a8.43,8.43,0,0,1-2.7-5.5l-1.36-15.2L82.48,135.51l25.89,33.7a2.89,2.89,0,0,1-2.29,4.68,2.91,2.91,0,0,1-2.33-1.14L79.31,140.92v28.65H61.89V135.13a8.52,8.52,0,0,1,2-5.59l3.49-4.14L40.71,90.66H38.78a8.71,8.71,0,0,1-8.71-8.72A8.56,8.56,0,0,1,31,78L25.8,71.2a2.89,2.89,0,0,1,.52-4.06m44.92,53.73L90.9,97.6,82.68,77.35l-14.9,11.5a8.79,8.79,0,0,1-5.32,1.81H48.05Z"/></svg>