<svg id="Icons" xmlns="http://www.w3.org/2000/svg" viewBox="0 0 200 200"><defs><style>.cls-1{fill:#000100;}</style></defs><title>191-snowboard</title><path class="cls-1" d="M113.32,40.77a11.91,11.91,0,1,0-11.91-11.91A11.9,11.9,0,0,0,113.32,40.77Z"/><path class="cls-1" d="M166.2,26.08a6.27,6.27,0,0,0-2,.35l-21.13,7a57.47,57.47,0,0,0-6,2.9c-3,1.51-9.1,4.66-10.47,5.08-1.75.38-10,1-24.6,1.91l-3.57.22c-3.43.27-19.47,6-22.79,7.91-3,1.76-14.84,11.2-18.38,14.06a6.38,6.38,0,0,0,8,9.94C72.13,70,80.48,63.44,82,62.53a124.94,124.94,0,0,1,12.14-4.59l-3.93,7.5L78.38,71.37,52.05,88.26a8.09,8.09,0,0,0-1,.77c-8.52-14.44-16.25-27.59-16.52-28.2C34,59.47,33.5,58.26,32,58.56S28.58,62,28.37,63.33s1,4.11,1.59,5.9a25.14,25.14,0,0,0,3,5.58S97.19,177.72,99,180s4.92,3.91,6.29,4,3.76.36,3.77-.94-3.79-4.44-5.71-6.54a67.27,67.27,0,0,1-5.26-7.76L88.79,153a8,8,0,0,0,4.72-3.2c23.1-33.05,23.29-35.22,23.49-37.53.12-1.26.33-3.6-6-31.59l-.45-2,18.71-24.76c.26-.06.5-.11.7-.17,2.37-.66,6.68-2.82,13-6,1.76-.9,3.95-2,4.25-2.16l20.76-7a6.35,6.35,0,0,0-1.71-12.47ZM81,139.77l-7.35-12.51S66.92,115.84,59,102.48a8.44,8.44,0,0,0,1.66-.8L85.9,85.45l5.55-2.77,4.52,4c2.08,9.26,4.22,19.37,4.9,23.46C98.15,114.8,89.26,128,81,139.77Z"/></svg>