<svg id="Icons" xmlns="http://www.w3.org/2000/svg" viewBox="0 0 200 200"><defs><style>.cls-1{fill:#000100;}</style></defs><title>192-parapente</title><path class="cls-1" d="M104,122.63a6.31,6.31,0,1,1-7-5.75A6.42,6.42,0,0,1,104,122.63ZM173.8,73.27l-47.09,48.14-1-.87-1.22-.53,31-64.53C143.8,45.37,129.32,39.79,114,36.65c5.58-.53,11.17-.7,16.57-1,7.15-.35,14-.7,20.23-1.4l7.5-.69c15.88,5.93,25.82,14.47,25.82,23.72C184.26,63.16,180.42,68.56,173.8,73.27Zm-7.33-5.4-28.25,38,31.56-32.44A56.93,56.93,0,0,0,166.47,67.87ZM157.58,57.4l-24.77,51.28L164.9,65.6C162.46,62.63,160,59.84,157.58,57.4Zm-33.14,64.36a3.07,3.07,0,0,0-4.19.87l-4,6.63-11.86-.52a8.14,8.14,0,0,1-5.06,3.13H98.8A9,9,0,0,1,92.52,130a8.25,8.25,0,0,1-1.74-1.75l-10,.35-4-6.63a3.06,3.06,0,0,0-4.18-.87,3.11,3.11,0,0,0-1,4.19s4.36,7.5,5.23,8.54A3.52,3.52,0,0,0,79.44,135l10.12.7-.88,16.22c0,.35,0,.53.18.7a2.22,2.22,0,0,0,.7,1.92h0L98.1,160,98.62,173a3.43,3.43,0,0,0,2.8,3.66,3.6,3.6,0,0,0,4.36-2.62c0-.35.17-.52.17-.87l-.52-15.7.52.35.52,13.08a3.44,3.44,0,0,0,2.79,3.67,3.59,3.59,0,0,0,4.36-2.62c0-.35.18-.52.18-.87l-.52-15.7s0-1.4-2.27-3.31c-1.92-1.75-5.06-3.84-6.46-4.89l.7-11.33,12.56-.7a3.83,3.83,0,0,0,2.62-1.05c.87-1.22,5.4-8.54,5.4-8.54A3.31,3.31,0,0,0,124.44,121.76ZM70.2,119.84l-42-46C21,68.91,16.83,63.33,16.83,57.23c0-18.14,37.49-33,83.89-33,18.66,0,35.93,2.44,49.88,6.46C119.21,34,73.16,30.72,44.91,56l27.38,62.43-1.22.53ZM34.44,68c-1,1.74-2.27,3.49-3.14,5.23l27.91,30.52Zm30,38.89-21.63-49A73.89,73.89,0,0,0,36,65.77Z"/></svg>