<svg id="Icons" xmlns="http://www.w3.org/2000/svg" viewBox="0 0 200 200"><defs><style>.cls-1{fill:#000100;}</style></defs><title>193-snapchat</title><path class="cls-1" d="M101.46,175.11c-.45,0-.88,0-1.21,0s-.52,0-.79,0c-9.45,0-15.77-4.47-21.35-8.41-4-2.82-7.77-5.49-12.19-6.23a39.24,39.24,0,0,0-6.41-.54,43.37,43.37,0,0,0-8.89,1,19.82,19.82,0,0,1-3.38.48,2.31,2.31,0,0,1-2.53-1.81c-.37-1.27-.64-2.5-.9-3.69-.65-3-1.12-4.77-2.22-4.94-11.86-1.83-18.86-4.52-20.26-7.78a3,3,0,0,1-.25-1,1.91,1.91,0,0,1,1.6-2c9.41-1.55,17.78-6.53,24.88-14.79a55.82,55.82,0,0,0,8.49-13.2.36.36,0,0,1,0-.09c1.37-2.77,1.64-5.17.81-7.13-1.53-3.6-6.59-5.2-9.93-6.27-.84-.26-1.62-.51-2.25-.76-3-1.17-7.85-3.65-7.2-7.06.47-2.5,3.77-4.23,6.44-4.23A4.51,4.51,0,0,1,45.9,87,19.47,19.47,0,0,0,54,89.16a6.78,6.78,0,0,0,4.64-1.41c-.09-1.55-.19-3.18-.29-4.73v0c-.68-10.81-1.53-24.28,1.91-32C70.52,27.9,92.38,26.1,98.83,26.1l2.81,0H102c6.47,0,28.37,1.8,38.68,24.92,3.45,7.72,2.6,21.2,1.92,32l0,.51c-.09,1.47-.18,2.87-.25,4.21a6.47,6.47,0,0,0,4.2,1.41A20.19,20.19,0,0,0,154.12,87a6,6,0,0,1,2.48-.49,7.51,7.51,0,0,1,2.83.54l0,0c2.39.84,3.95,2.53,4,4.31s-1.2,4.13-7.25,6.52c-.62.25-1.41.5-2.25.77-3.35,1.06-8.41,2.66-9.93,6.26-.83,2-.56,4.35.81,7.13l0,.09c.42,1,10.62,24.24,33.37,28a1.89,1.89,0,0,1,1.59,2,3,3,0,0,1-.25,1c-1.38,3.25-8.39,5.94-20.25,7.77-1.11.17-1.58,2-2.22,4.92-.27,1.21-.54,2.4-.9,3.66a2.22,2.22,0,0,1-2.35,1.75h-.19a18.86,18.86,0,0,1-3.37-.42,44.22,44.22,0,0,0-8.89-.95,39.49,39.49,0,0,0-6.42.55c-4.41.73-8.18,3.39-12.17,6.21-5.59,3.95-11.91,8.42-21.36,8.42"/></svg>