<svg id="Icons" xmlns="http://www.w3.org/2000/svg" viewBox="0 0 200 200"><defs><style>.cls-1{fill:#000100;}</style></defs><title>194-vine</title><path class="cls-1" d="M121.61,73.29c-.55-4.39-3.3-24.42,11-24.42s6.31,31.83,6.31,31.83h23.84a68.18,68.18,0,0,0,2.78-19.76c0-25.79-18.39-34.84-31.28-34.84s-36.5,5.21-36.5,41.16,27.72,47.19,27.72,47.19c-7.41,16.46-26.34,36.77-26.34,36.77-34.58-39-39.24-102.9-39.24-102.9l-24.46.73c16.05,121,63.7,126,63.7,126,21.12-3.49,48-54.88,48-54.88C151.51,120.76,165,118,165,118V100.18C129,108.14,122.15,77.68,121.61,73.29Z"/></svg>