<svg id="Icons" xmlns="http://www.w3.org/2000/svg" viewBox="0 0 200 200"><defs><style>.cls-1{fill:#000100;}</style></defs><title>196-bonsplans-en</title><path class="cls-1" d="M114.08,109.82a8,8,0,0,0,6.35-1.45,8.92,8.92,0,0,0,2.12-12.09,8.38,8.38,0,0,0-11.82-2.08,8.92,8.92,0,0,0-2.12,12.09A8,8,0,0,0,114.08,109.82Z"/><path class="cls-1" d="M105.16,127.24l-5.75-1-2.36,13.42,6.57,1.16q4.69.83,6.72-.68a7.55,7.55,0,0,0,2.63-5q.6-3.48-1.3-5.3T105.16,127.24Z"/><path class="cls-1" d="M94.27,91.31a8.38,8.38,0,0,0-11.82-2.07,8.93,8.93,0,0,0-2.13,12.09,8.38,8.38,0,0,0,11.82,2.07,8.93,8.93,0,0,0,2.13-12.09Z"/><path class="cls-1" d="M142.33,97.81l-4-.7-2.83,16.13,4.41.77c2.85.5,5.16.21,6.91-.89s2.86-3,3.33-5.61Q151.58,99.43,142.33,97.81Z"/><path class="cls-1" d="M165.18,68l-30.91-5.24-9.21-1.56c4.89-13.44,7.72-28,3.71-36.71a13.14,13.14,0,0,0-21.16-3.66c-8.14,8.53-6.52,28-5.32,36.51l-4.52-.77-13.25-2.3v0l-5.73-1L54.47,49.21l-.5-.08a4.23,4.23,0,0,0-4.59,3.8q-2.54,15.75-5.06,31.5-4.44,27.66-8.87,55.31-1.76,10.95-3.52,21.89c-.38,2.38,1.65,4.25,3.8,4.6l31,5,55.57,8.9,24.85,4c2.37.39,4.25-1.64,4.59-3.8q2.55-15.84,5.09-31.68l8.85-55.17Q167.31,83,169,72.57C169.37,70.18,167.33,68.34,165.18,68ZM111.44,24.46a7.17,7.17,0,0,1,6.41-2.14A7.08,7.08,0,0,1,124,26.7c3.29,7.1.58,20.72-4.2,33.58l-12-2C105.88,46.29,105.72,30.45,111.44,24.46Zm-8.25,74.65a11.8,11.8,0,0,1,5.09-8.06,13.11,13.11,0,0,1,17.65,3.09,12.56,12.56,0,0,1-3.05,17.38,13.1,13.1,0,0,1-17.65-3.1A11.81,11.81,0,0,1,103.19,99.11Zm-33.43,22L59.59,119.3l-5,28.34-5.66-1,5-28.35-10.17-1.78.91-5.18,26,4.56ZM54.84,96.94a8.06,8.06,0,0,0,5.31,3.28A10.37,10.37,0,0,0,66,99.75l1.13-6.46,4,.69-1.41,8q-4,3.09-10.17,2a12.23,12.23,0,0,1-8.14-5,12.68,12.68,0,0,1,3.13-17.43,12.15,12.15,0,0,1,9.29-2,12.54,12.54,0,0,1,7.93,4.45l-2.66,2.65a8.49,8.49,0,0,0-2.49-2.12,11,11,0,0,0-3.16-1A8.48,8.48,0,0,0,57,84.86a9,9,0,0,0-2.19,12.08ZM78,151.75l-5.66-1,5.89-33.53,5.66,1Zm7.14-43.26a12.3,12.3,0,0,1-8.21-5,12.54,12.54,0,0,1,3-17.38,13.12,13.12,0,0,1,17.64,3.1,12.54,12.54,0,0,1-3,17.38A12.31,12.31,0,0,1,85.16,108.49Zm33.53,28.15q-1.06,6.09-5.14,8.29t-11.45.91l-5.95-1-1.73,9.83-5.65-1,5.88-33.52,11.51,2q7.62,1.34,10.61,4.88T118.69,136.64Zm28.07.33a11.53,11.53,0,0,0-3.64-2.91,15.56,15.56,0,0,0-4.86-1.75,7.49,7.49,0,0,0-4.23.3,3.42,3.42,0,0,0-2.12,2.77,3.59,3.59,0,0,0,1,3.39c.93.9,3,2.08,6.33,3.51a18.84,18.84,0,0,1,7.15,4.86q2.22,2.72,1.45,7.11a8.93,8.93,0,0,1-4.56,6.54,13.46,13.46,0,0,1-9.16,1.21,20.71,20.71,0,0,1-13-7.87l4.3-3.65q4.31,5.31,9.77,6.27a7.28,7.28,0,0,0,4.55-.42,3.72,3.72,0,0,0,2.15-2.83,3.55,3.55,0,0,0-1-3.29,16.37,16.37,0,0,0-4.86-2.88,46.56,46.56,0,0,1-5.32-2.61,13,13,0,0,1-3.07-2.54q-2.57-2.77-1.76-7.43a8.57,8.57,0,0,1,4.64-6.58,13.88,13.88,0,0,1,8.81-1,20.41,20.41,0,0,1,6.2,2.18,16.89,16.89,0,0,1,4.94,3.93Zm7.43-28.86a11.7,11.7,0,0,1-4.82,8.11q-3.87,2.63-10.66,1.43l-7.82-1.37L135,92.74l8.09,1.42q6.33,1.11,9.19,4.79C154.2,101.4,154.84,104.46,154.19,108.11Z"/></svg>