<svg id="Icons" xmlns="http://www.w3.org/2000/svg" viewBox="0 0 200 200"><defs><style>.cls-1{fill:#000100;}</style></defs><title>197-bonsplans-nl</title><path class="cls-1" d="M132,111a7,7,0,0,0,3-5.1q1.29-7.35-7.14-8.83l-3.61-.64-2.57,14.67,4,.71A8.81,8.81,0,0,0,132,111Z"/><path class="cls-1" d="M105.17,127.21l-5.76-1-2.36,13.43,6.57,1.16q4.71.83,6.72-.68a7.52,7.52,0,0,0,2.64-5q.6-3.48-1.3-5.29C110.41,128.62,108.24,127.75,105.17,127.21Z"/><path class="cls-1" d="M82.13,104.48a7.31,7.31,0,0,0,5.77-1.32,8.11,8.11,0,0,0,1.93-11,7.63,7.63,0,0,0-10.75-1.89,8.14,8.14,0,0,0-1.93,11A7.26,7.26,0,0,0,82.13,104.48Z"/><path class="cls-1" d="M165.23,67.9l-30.94-5.24-9.21-1.56C130,47.65,132.8,33,128.79,24.37a13.16,13.16,0,0,0-21.18-3.67c-8.14,8.54-6.52,28-5.32,36.53l-4.52-.76-13.26-2.3v0l-5.74-1L54.44,49.12l-.5-.08a4.24,4.24,0,0,0-4.6,3.8q-2.52,15.77-5.06,31.52L35.4,139.71l-3.51,21.91c-.38,2.37,1.65,4.25,3.8,4.6l31,5,55.61,8.91,24.86,4c2.38.39,4.25-1.65,4.59-3.8q2.55-15.86,5.09-31.7,4.44-27.61,8.86-55.21Q167.36,82.94,169,72.5C169.41,70.11,167.38,68.27,165.23,67.9ZM128.56,93.75q5.76,1,8.36,4.36a10.11,10.11,0,0,1,1.73,8.33,10.69,10.69,0,0,1-4.39,7.38q-3.51,2.39-9.7,1.3l-7.11-1.25,3.76-21.41ZM111.44,24.36A7.87,7.87,0,0,1,124,26.59c3.28,7.11.58,20.74-4.2,33.61l-12-2C105.88,46.2,105.72,30.35,111.44,24.36ZM101.18,88.94l15,2.64-.6,3.4L104.2,93l-1,5.66,10.26,1.8-.56,3.22-10.26-1.8-1,5.73,11.79,2.07-.59,3.4-15.41-2.71ZM49,90.74a10.84,10.84,0,0,1,4.66-7.39,11,11,0,0,1,8.44-1.8,11.37,11.37,0,0,1,7.22,4L66.93,88a7.85,7.85,0,0,0-2.27-1.93,10,10,0,0,0-2.88-.93A7.71,7.71,0,0,0,56,86.29a7.65,7.65,0,0,0,2.83,14,9.53,9.53,0,0,0,5.33-.42l1-5.89,3.61.64-1.29,7.32q-3.62,2.81-9.25,1.82a11.12,11.12,0,0,1-7.4-4.52A10.74,10.74,0,0,1,49,90.74ZM69.74,121l-10.17-1.79-5,28.37-5.66-1,5-28.36-10.17-1.79.91-5.18,26,4.57Zm2.48-26.3a10.78,10.78,0,0,1,4.63-7.34A11.92,11.92,0,0,1,92.9,90.22,11.42,11.42,0,0,1,90.13,106a11.92,11.92,0,0,1-16-2.82A10.7,10.7,0,0,1,72.22,94.74Zm5.79,57-5.67-1,5.89-33.54,5.67,1Zm40.69-15.12q-1.07,6.09-5.14,8.3c-2.71,1.47-6.54,1.77-11.46.9l-5.95-1-1.73,9.84-5.66-1,5.88-33.54,11.52,2q7.64,1.34,10.62,4.88C118.78,129.33,119.41,132.54,118.7,136.61Zm28.09.33a11.69,11.69,0,0,0-3.64-2.92,15.93,15.93,0,0,0-4.87-1.74,7.61,7.61,0,0,0-4.23.29,3.44,3.44,0,0,0-2.12,2.77,3.6,3.6,0,0,0,1,3.4q1.4,1.37,6.33,3.51a18.82,18.82,0,0,1,7.16,4.87c1.48,1.81,2,4.18,1.45,7.11a8.91,8.91,0,0,1-4.56,6.54,13.38,13.38,0,0,1-9.17,1.21,20.71,20.71,0,0,1-13-7.87l4.3-3.65q4.31,5.31,9.79,6.27a7.26,7.26,0,0,0,4.54-.42,3.74,3.74,0,0,0,2.16-2.83,3.55,3.55,0,0,0-1-3.29,16,16,0,0,0-4.86-2.88,48.35,48.35,0,0,1-5.33-2.62,13,13,0,0,1-3.07-2.54c-1.72-1.85-2.3-4.33-1.76-7.43a8.51,8.51,0,0,1,4.64-6.58,13.76,13.76,0,0,1,8.82-1,20.38,20.38,0,0,1,6.2,2.17,17.08,17.08,0,0,1,4.94,3.94Zm12.82-34.24-11.43-2-1,5.66,10.26,1.8-.56,3.22-10.27-1.8-1,5.73,11.79,2.07-.59,3.4-15.41-2.71,3.76-21.41,15,2.64Z"/></svg>