<svg id="Icons" xmlns="http://www.w3.org/2000/svg" viewBox="0 0 200 200"><defs><style>.cls-1{fill:#000100;}</style></defs><title>199-bonsplans-es</title><path class="cls-1" d="M56.09,97l-4.2-.74L51.06,101l4.57.81a5,5,0,0,0,2.55-.08,2.09,2.09,0,0,0,1.19-1.77C59.64,98.39,58.54,97.41,56.09,97Z"/><path class="cls-1" d="M59.61,92.6a2.09,2.09,0,0,0-.45-1.91,4.26,4.26,0,0,0-2.28-1l-3.73-.66-.79,4.48,3.71.65Q59.24,94.76,59.61,92.6Z"/><polygon class="cls-1" points="82.24 128.77 89.01 129.96 86.97 121.68 82.24 128.77"/><path class="cls-1" d="M51.24,114.42l-3.2-.56-1.31,7.47,3.65.64c1.74.3,3,.18,3.74-.38a4.17,4.17,0,0,0,1.46-2.77,3.06,3.06,0,0,0-.72-2.94A7.06,7.06,0,0,0,51.24,114.42Z"/><path class="cls-1" d="M165.23,67.9l-30.94-5.24-9.21-1.56C130,47.65,132.8,33,128.79,24.37a13.16,13.16,0,0,0-21.18-3.67c-8.14,8.54-6.52,28-5.32,36.53l-4.52-.76-13.26-2.3v0l-5.74-1L54.44,49.12l-.5-.08a4.24,4.24,0,0,0-4.6,3.8q-2.52,15.77-5.06,31.52L35.4,139.71l-3.51,21.91c-.38,2.37,1.65,4.25,3.8,4.6l31,5,55.61,8.91,24.86,4c2.38.39,4.25-1.65,4.59-3.8q2.55-15.86,5.09-31.7,4.44-27.61,8.86-55.21Q167.36,82.94,169,72.5C169.41,70.11,167.38,68.27,165.23,67.9ZM58.76,119.64a6.05,6.05,0,0,1-2.85,4.62q-2.27,1.21-6.38.5l-3.3-.58-1,5.47-3.15-.55,3.27-18.65,6.4,1.13c2.83.49,4.8,1.4,5.91,2.71A6.26,6.26,0,0,1,58.76,119.64Zm-3.53-15.17-7.56-1.32,3-17.28,6.72,1.18a9.63,9.63,0,0,1,3,1,4.23,4.23,0,0,1,1.69,1.47,4.44,4.44,0,0,1,.66,3.22,3.62,3.62,0,0,1-1.82,2.79,4.47,4.47,0,0,1-.71.32l-.67.18a4.59,4.59,0,0,1,2.3,1.89,4,4,0,0,1,.47,2.9,4.71,4.71,0,0,1-1.79,3C59.35,104.64,57.59,104.89,55.23,104.47Zm17.59,30-11.66-2,3.28-18.65,3.14.56L64.84,130l8.5,1.5Zm-.64-26.85a7.36,7.36,0,0,1-4.91-2.94,7.81,7.81,0,0,1-1-6.11l1.7-9.69,2.92.51L69.17,99a5.69,5.69,0,0,0,.52,4,4.49,4.49,0,0,0,6.43,1.13A5.62,5.62,0,0,0,78,100.51L79.65,91l2.91.51-1.7,9.69a7.78,7.78,0,0,1-3.06,5.39A7.34,7.34,0,0,1,72.18,107.63Zm18.73,30-1.13-4.57-9.33-1.64-2.62,3.91-3.36-.59L86,117.57l3.36.59,4.94,20.09ZM97,109l-.48,2.74-12.43-2.18,3-17.28,12.13,2.13-.48,2.75-9.22-1.62-.8,4.57,8.28,1.45-.46,2.6-8.28-1.45-.81,4.62Zm17.76,32.87-3.42-.6-8.17-15.46L100.8,139.4l-3.15-.56,3.28-18.64,3.14.55,8.39,15.83,2.44-13.93,3.15.55Zm1.36-26.69-3.17-.55-7.57-14.33-2.21,12.61-2.92-.51,3-17.28,2.92.51L114,110.28l2.26-12.91,2.92.52Zm-8.36-57c-1.9-12-2.06-27.81,3.66-33.8A7.87,7.87,0,0,1,124,26.59c3.28,7.11.58,20.74-4.2,33.61Zm28.82,71.35-9.95-1.74-.86,4.93,8.93,1.57-.49,2.8-8.94-1.57-.87,5,10.27,1.8-.52,3-13.42-2.35L124,124.25l13.1,2.3Zm-.79-13.35a9.62,9.62,0,0,1-13-2.28,9.21,9.21,0,0,1,2.24-12.75,9.63,9.63,0,0,1,13,2.27,9.22,9.22,0,0,1-2.24,12.76Zm8.72,18.33a13.25,13.25,0,0,0,3.52,1.95,10.51,10.51,0,0,1,4,2.71,4.67,4.67,0,0,1,.8,3.95,5,5,0,0,1-2.53,3.64,7.51,7.51,0,0,1-5.1.67A11.46,11.46,0,0,1,138,143l2.39-2a9,9,0,0,0,5.43,3.49,4.06,4.06,0,0,0,2.53-.23,2.05,2.05,0,0,0,1.2-1.58,2,2,0,0,0-.54-1.83,9.12,9.12,0,0,0-2.71-1.6,26.59,26.59,0,0,1-3-1.45,7,7,0,0,1-1.7-1.42,4.56,4.56,0,0,1-1-4.13,4.72,4.72,0,0,1,2.58-3.65,7.68,7.68,0,0,1,4.9-.59,11.22,11.22,0,0,1,3.44,1.21,9.3,9.3,0,0,1,2.75,2.19l-2.09,2.08a6.35,6.35,0,0,0-2-1.62,8.61,8.61,0,0,0-2.7-1,4.19,4.19,0,0,0-2.35.16A1.91,1.91,0,0,0,144,132.6,2,2,0,0,0,144.53,134.49Zm2.29-25.6a12.51,12.51,0,0,0,3.26,1.81,9.58,9.58,0,0,1,3.69,2.51,4.36,4.36,0,0,1,.75,3.66,4.64,4.64,0,0,1-2.35,3.37,6.87,6.87,0,0,1-4.72.62,10.65,10.65,0,0,1-6.71-4l2.22-1.88a8.37,8.37,0,0,0,5,3.23,3.76,3.76,0,0,0,2.34-.22,1.92,1.92,0,0,0,1.11-1.46,1.82,1.82,0,0,0-.5-1.69,8.46,8.46,0,0,0-2.51-1.49A23.56,23.56,0,0,1,145.7,112a6.81,6.81,0,0,1-1.58-1.31,4.24,4.24,0,0,1-.91-3.83,4.4,4.4,0,0,1,2.39-3.39,7.14,7.14,0,0,1,4.54-.54,10.38,10.38,0,0,1,3.19,1.12,8.51,8.51,0,0,1,2.55,2L153.94,108a6,6,0,0,0-1.88-1.5,8.1,8.1,0,0,0-2.5-.9,3.79,3.79,0,0,0-2.18.16,1.74,1.74,0,0,0-1.09,1.42A1.83,1.83,0,0,0,146.82,108.89Z"/><path class="cls-1" d="M131.56,102.38a5.86,5.86,0,0,0-4.66,1.07,6.54,6.54,0,0,0-1.56,8.87,5.85,5.85,0,0,0,4,2.59,5.91,5.91,0,0,0,4.66-1.07,6.55,6.55,0,0,0,1.55-8.87A5.86,5.86,0,0,0,131.56,102.38Z"/></svg>