<svg id="Icons" xmlns="http://www.w3.org/2000/svg" viewBox="0 0 200 200"><defs><style>.cls-1{fill:#000100;}</style></defs><title>203-village</title><path class="cls-1" d="M182.07,69.13l0,0L139.9,27.18a8.94,8.94,0,0,0-6.65-2.57h0a8.87,8.87,0,0,0-6.59,2.52L84.44,69.26c-3,3.12-2.31,5.93-1.86,7s2,3.53,6.37,3.53h4.62V91.18l11.76,11.7V79.77a11.78,11.78,0,0,0-5.07-9.68l33-32.93L166,69.77a11.74,11.74,0,0,0-5.57,10v25h-8.15V83.86A11.75,11.75,0,0,0,140.56,72.1h-14.3a11.76,11.76,0,0,0-11.77,11.76v20.93h-7.24l11.83,11.76h3.46a4,4,0,0,0,3.72-4.07V83.86h14.3v28.62c0,2.09,1.31,4.07,3.4,4.07h21.49c4.71,0,6.78-3,6.78-8.31V79.77h5.33c4.4,0,5.92-2.54,6.37-3.6S185.09,72.25,182.07,69.13Z"/><path class="cls-1" d="M116.43,129,74.31,87.1a9,9,0,0,0-6.65-2.57h0a8.87,8.87,0,0,0-6.59,2.53L18.85,129.18c-3,3.13-2.31,5.93-1.86,7s2,3.54,6.37,3.54H28v28.46c0,2,.39,8.32,8.5,8.32H57a4,4,0,0,0,3.72-4.07V143.79H75v28.62c0,2.09,1.31,4.07,3.4,4.07H99.86c4.71,0,6.78-3,6.78-8.32V139.7H112c4.4,0,5.92-2.54,6.37-3.6s1.16-3.92-1.86-7ZM94.88,139.7v25H86.73V143.79A11.76,11.76,0,0,0,75,132H60.67A11.77,11.77,0,0,0,48.9,143.79v20.92H39.74v-25A11.76,11.76,0,0,0,34.67,130l33-32.93,32.78,32.61A11.72,11.72,0,0,0,94.88,139.7Z"/></svg>