<svg id="Icons" xmlns="http://www.w3.org/2000/svg" viewBox="0 0 200 200"><defs><style>.cls-1{fill:#000100;}</style></defs><title>204-telephone-contour</title><path class="cls-1" d="M46.34,42.09,67.86,63.61,58.28,74.2a10.14,10.14,0,0,0-1,1.11c-4.73,6-9.17,20.51,5.91,35.58,12,12,13.35,13.33,13.47,13.44S78.1,125.72,90,137.6l.24.24C95,142.53,102.53,148,111.91,148A23.24,23.24,0,0,0,124,144.6a10.9,10.9,0,0,0,2.68-2l9.59-10.6,21.53,21.53-16.7,16.69A25.45,25.45,0,0,1,129,173.17c-23.9,0-53.4-27.76-62.74-38.46a12.32,12.32,0,0,0-.88-.89,171.76,171.76,0,0,1-24.51-29.24C34.72,95.21,30.73,86.48,29,78.63c-1.83-8.23-1.18-15.17,2-21.19L46.34,42.09m0-13.33a5.38,5.38,0,0,0-3.81,1.58L22.12,50.76h0c-22.44,38,35.79,91.18,35.79,91.18s36.77,42.23,71,42.23a36.34,36.34,0,0,0,18.76-5l0,0,21.84-21.83a5.38,5.38,0,0,0,0-7.61L140.1,120.28a5.4,5.4,0,0,0-7.61,0l-13.57,14.57,0-.06a11.4,11.4,0,0,1-7,2.2c-3.65,0-8.52-1.53-14.16-7.17h0c-12.41-12.42-13.37-13.36-13.37-13.36s-1-1-13.38-13.36S66.06,82,66.06,82h0L79.61,67.41a5.37,5.37,0,0,0,0-7.6L50.15,30.34a5.39,5.39,0,0,0-3.81-1.58Z"/><path class="cls-1" d="M138.11,63a39.64,39.64,0,0,1,11.46,24.2h10.62A50.32,50.32,0,0,0,113,40.81V51.42A39.79,39.79,0,0,1,138.11,63Z"/><path class="cls-1" d="M154.06,46.67a60.4,60.4,0,0,1,17.48,36.89h12.4c-1.37-17.61-7.72-32-21.2-45.45-13.81-13.82-28.83-20.1-46.92-21.2l0,12.17a60.49,60.49,0,0,1,38.25,17.59Z"/></svg>