<svg id="Icons" xmlns="http://www.w3.org/2000/svg" viewBox="0 0 200 200"><defs><style>.cls-1{fill:#000201;}</style></defs><title>205-ticket-02</title><path class="cls-1" d="M172.46,59.94a7.83,7.83,0,0,0-8.73-1.52,15.76,15.76,0,0,1-21.06-21.05,7.79,7.79,0,0,0-1.52-8.73l-8-8a13.06,13.06,0,0,0-18.78,0L20.68,114.39a13.06,13.06,0,0,0,0,18.78l6.26,6.26a7.48,7.48,0,0,0,9.11,1.14A15.58,15.58,0,0,1,55.4,143a15.8,15.8,0,0,1,2.47,19.35A7.2,7.2,0,0,0,59,171.5l8.91,8.91a13.06,13.06,0,0,0,18.78,0L180.23,86.5a13,13,0,0,0,0-18.78Zm2.46,21.25-22,22-5.7-5.69-5.31,5.31,5.69,5.69-66.4,66.4a5.5,5.5,0,0,1-8,0l-8.72-8.73a23.55,23.55,0,0,0-3.61-28.64,22.73,22.73,0,0,0-28.45-3.42l-6.26-6.26a5.5,5.5,0,0,1,0-8l66.4-66.4,5.69,5.69,5.31-5.31L97.9,48.18,119.72,26a5.5,5.5,0,0,1,8,0l8,8A23.45,23.45,0,0,0,167,65.25L174.73,73A5.57,5.57,0,0,1,174.92,81.19Z"/><rect class="cls-1" x="106.06" y="60.13" width="7.59" height="10.62" transform="translate(-14.1 96.85) rotate(-45)"/><rect class="cls-1" x="118.97" y="73.01" width="7.59" height="10.62" transform="translate(-19.42 109.75) rotate(-45)"/><rect class="cls-1" x="131.88" y="85.89" width="7.59" height="10.62" transform="translate(-24.75 122.65) rotate(-45)"/><path class="cls-1" d="M113.64,114.2,86.7,87.45a3.66,3.66,0,0,0-5.31,0c-1.33,1.52-1.52,4,0,5.31l26.75,26.75a3.66,3.66,0,0,0,5.31,0A3.52,3.52,0,0,0,113.64,114.2Z"/><path class="cls-1" d="M100,127.86,73.23,100.92a3.66,3.66,0,0,0-5.31,0c-1.33,1.52-1.52,4,0,5.31L94.67,133a3.66,3.66,0,0,0,5.31,0A3.6,3.6,0,0,0,100,127.86Z"/></svg>