<svg id="Icons" xmlns="http://www.w3.org/2000/svg" viewBox="0 0 200 200"><defs><style>.cls-1{fill:#000201;}</style></defs><title>207-peace-main</title><path class="cls-1" d="M86.52,106.56a7.31,7.31,0,0,0,3.86,2.79,6.13,6.13,0,0,0,4.73-.86L97,107.2a7.26,7.26,0,0,0,2.8-3.87A6.11,6.11,0,0,0,99,98.61l-18-27.94a7.29,7.29,0,0,0-3.87-2.79c-.43,0-.86-.21-1.29-.21a7.15,7.15,0,0,0-3.43,1.07h0L70.4,70.25a6.49,6.49,0,0,0-1.93,8.59Z"/><path class="cls-1" d="M69.76,117.51a6.48,6.48,0,0,0,8.59,1.94l1.94-1.29a6.5,6.5,0,0,0,1.93-8.6l-18-27.93A6.08,6.08,0,0,0,59,78.84a5.39,5.39,0,0,0-3.44,1.07h0L53.64,81.2a6.5,6.5,0,0,0-1.93,8.6Z"/><path class="cls-1" d="M82.86,65.09a10.42,10.42,0,0,1,2.58,2.79l18,27.93a11.77,11.77,0,0,1-3.44,16.12l-1.93,1.29a15.59,15.59,0,0,1-6.23,1.5,8.3,8.3,0,0,1-2.37-.21c-.42,0-.64-.22-1.07-.43a11.75,11.75,0,0,1-5.16,8.37l-1.93,1.29a11.18,11.18,0,0,1-6.23,1.94,11.36,11.36,0,0,1-9.67-5.37L51.93,99.47l2.14,35,15.47,33.94a1.92,1.92,0,0,1,.22,1.08v9c6.66,2.58,33.09,11.17,56.72,0l1.29-9.45c0-.22.21-.65.21-.86.43-1.08,11.82-24.07,15.9-32,4.51-8.6,10.1-31.37,2.37-36.53-2.15-1.5-9.24-3.65-16.33-5.59h0c-3.44-.86-6.88-1.93-9.46-2.57-.64-.22-3.22-.86-4.29,1.28-2.58,4.52-1.94,9.24,1.5,12l11.6,8a2.8,2.8,0,0,1,1.08,2.79l-2.15,8.59a2.65,2.65,0,0,1-1.72,1.94c-.22,0-23.2,8-24.71,24.49A2.7,2.7,0,0,1,96.4,150c1.72-17.62,21.49-26.43,27.07-28.58l1.29-5.37-10.1-7.09c-5.58-4.51-6.66-12.25-3-18.91a8.76,8.76,0,0,1,10.53-3.87c.65.22,3.44.86,6.88,1.72L145,26.63A7.32,7.32,0,0,0,144.1,21a7.23,7.23,0,0,0-4.51-3.43L137.44,17c-2.58,0-4.51.22-6.23,1.29a7.22,7.22,0,0,0-3.44,4.51l-17,58.66a.21.21,0,0,1-.22.21.74.74,0,0,1-.21.43c0,.22-.22.22-.22.43-.21.22-.21.22-.43.22-.21.21-.21.21-.43.21a.21.21,0,0,0-.21.22h-1.51a1.7,1.7,0,0,1-.86-.43l-.21-.22c-.22-.21-.22-.43-.43-.43a.21.21,0,0,0-.22-.21l-.21-.22L87.59,23a7.49,7.49,0,0,0-9.24-5.37l-2.15.64a6.72,6.72,0,0,0-4.51,3.44,7.3,7.3,0,0,0-.86,5.58Z"/></svg>