<svg id="Icons" xmlns="http://www.w3.org/2000/svg" viewBox="0 0 200 200"><defs><style>.cls-1{fill:#000100;}</style></defs><title>208-musee-02</title><path class="cls-1" d="M173.89,88.06H27A7.67,7.67,0,0,1,22.5,74.2l76-55.58a7.67,7.67,0,0,1,9.26.16l70.89,55.58a7.67,7.67,0,0,1-4.74,13.7ZM50.5,72.72H151.68L102.85,34.43Z"/><rect class="cls-1" x="42.8" y="95.73" width="15.34" height="65.34"/><rect class="cls-1" x="92.79" y="95.73" width="15.34" height="65.34"/><rect class="cls-1" x="142.78" y="95.73" width="15.34" height="65.34"/><path class="cls-1" d="M166,183.94H34.28a7.67,7.67,0,1,1,0-15.34H166a7.67,7.67,0,1,1,0,15.34Z"/></svg>