<svg id="Icons" xmlns="http://www.w3.org/2000/svg" viewBox="0 0 200 200"><title>209-football</title><path d="M100,26.66a73.88,73.88,0,1,0,73.88,73.88A74.1,74.1,0,0,0,100,26.66ZM85.32,157.78l-11.9-20.3-23.5-5.69A58.7,58.7,0,0,1,41,104L56.43,86.5,55,62.41A59.54,59.54,0,0,1,78.28,45.62L100,54.73l21.73-9.11a59.54,59.54,0,0,1,23.32,16.79L143.61,86.5,159,104a58.7,58.7,0,0,1-8.9,27.78l-23.5,5.69-11.9,20.3a58.67,58.67,0,0,1-29.39,0Z"/><polygon points="129.57 93.89 100.02 72.47 70.46 93.89 82.28 128.62 117.75 128.62 129.57 93.89"/></svg>