<svg id="Icons" xmlns="http://www.w3.org/2000/svg" viewBox="0 0 200 200"><title>211-montagne</title><path d="M182.27,129.6l-45.52-47,0,0a7.34,7.34,0,0,0-10.3,0L114.58,94.44,81.23,61.08c-3.63-3.62-8.65-2.2-11.44,1.47l-43.9,57.81q-3.59,4.73-7.18,9.44c-.17.21-.33.43-.48.65l-.54.7c-1.79,2.36-1.19,5.71.51,8a6.42,6.42,0,0,0,4.28,2.8,6.63,6.63,0,0,0,1.46.14h0l58.78,0,84.33-.05h10C183.54,142,186.66,134.13,182.27,129.6ZM76.94,98.76,56,90l20.1-26.58L97.46,84.74Zm55.62,9.46-15.39-8L131.72,85.4l13.6,14Z"/></svg>