<svg id="Icons" xmlns="http://www.w3.org/2000/svg" viewBox="0 0 200 200"><title>212-panier-contour</title><path d="M59.48,96.53h0a1.54,1.54,0,0,0,1-.24c4.27-.76,7.77-8.77,10.28-13.28,5.76-9.78,12-21.05,17.54-30.33,2.5-4.26,8-11,7.77-16a8.14,8.14,0,0,0-8.52-7.77c-.5,0-1.25.25-1.75.25C80,30.38,77,39.4,74,44.91,68.5,54.68,63,63.45,57.22,73.48c-3,5.26-7.51,10.77-7,15.78A8.07,8.07,0,0,0,59.48,96.53Z"/><path d="M130.38,83.25c2.51,4.27,5.51,12.54,11,13.28A8,8,0,0,0,150.68,90c.75-5.76-4.51-11.78-7-16.29-6.76-11.53-11-18.79-17.29-29.82-3-5.26-6-16.28-15-14.28-12.28,2.76-1.76,17.79,1.5,23.05C117.35,61.46,125.37,74.74,130.38,83.25Z"/><polygon points="158.26 85.02 158.26 85.02 158.26 85.01 158.26 85.02"/><path d="M171,84.94c-3,0-6.26.19-9.28.19h0a3.06,3.06,0,0,0-3.09,3.05,15.62,15.62,0,0,1-13.1,15.37,16.59,16.59,0,0,1-2.89.25,15.54,15.54,0,0,1-9.64-3.25c-5-4-6.26-10.28-10-15.79H78.83C74.32,89.27,74.07,95,69.56,99.3a15.46,15.46,0,0,1-10.72,4.14c-8.26,0-16.46-5.94-15.83-15.57a2.78,2.78,0,0,0-2.75-3h0c-3.54,0-7.3-.28-10.76-.28-6.58,0-12,1-12.78,7-.7,5.55,2.66,9.6,9.09,9.6a16.25,16.25,0,0,0,1.68-.08c3.26,13.78,8.77,33.33,12.78,48.36C43,159.94,43.5,170.21,54,172.22h93c10.27-2.26,11.27-12.78,13.78-22.81,4-15.78,8.77-33.33,12.78-48.11.47,0,.93.06,1.37.06,5.57,0,8.24-2.89,9.4-7.07v-2C183.85,85.91,177.89,84.94,171,84.94Zm6.51,8.31c-.39,1-.89,1.27-2.57,1.27a8.45,8.45,0,0,1-.85,0l-.42,0a6.33,6.33,0,0,0-6.59,4.65l-.11.41-.27,1c-4,14.87-8.61,31.73-12.54,47.23-.33,1.32-.63,2.63-.94,3.94-2,8.66-3.24,12.52-7.07,13.69H54.75c-3.35-.83-4.5-3.14-6.68-12.63-.37-1.64-.76-3.33-1.22-5.1-1.16-4.34-2.44-9.05-3.76-13.89-3.28-12.09-6.68-24.58-9-34.28L34,99a6.32,6.32,0,0,0-6.78-4.83l-.45,0c-.35,0-.68,0-1,0a3.3,3.3,0,0,1-2.17-.5,2.23,2.23,0,0,1-.14-1.42,2.07,2.07,0,0,1,0-.23c.4-.22,1.79-.73,6-.73,1.58,0,3.27.06,5.05.13l1.79.07a20.3,20.3,0,0,0,4.17,10,23.35,23.35,0,0,0,18.36,8.63,22.21,22.21,0,0,0,15.41-6,28.78,28.78,0,0,0,6.18-9.33,33.27,33.27,0,0,1,1.7-3.34H119c.41.79.82,1.62,1.23,2.46,1.91,3.91,4.07,8.35,8.48,11.87a22.17,22.17,0,0,0,13.85,4.7,24.24,24.24,0,0,0,4-.34,22.39,22.39,0,0,0,14.84-9.45,22.13,22.13,0,0,0,3.63-8.93l1.42,0c1.56-.05,3-.1,4.45-.1,4.5,0,6,.53,6.5.77a.13.13,0,0,0,0,.06Z"/></svg>