<svg id="Icons" xmlns="http://www.w3.org/2000/svg" viewBox="0 0 200 200"><defs><style>.cls-1{fill:#000201;}</style></defs><title>213-boutique-contour</title><path class="cls-1" d="M178.54,164.47A3.43,3.43,0,0,0,177,162.6a7.31,7.31,0,0,0-3.46-.55H169a11.79,11.79,0,0,0,.07-1.22V104.48a73.65,73.65,0,0,1-8.54.7v56.88H100.3v0c-6,0-11.91,0-17.86,0,0-5.12,0-10.25,0-15.38,0-5.49,0-11,0-16.45a20.14,20.14,0,0,0-.24-3.21,14.53,14.53,0,0,0-17.6-11.59,15.22,15.22,0,0,0-11.44,15.14q0,15.73,0,31.49H40.36V105.18a77.47,77.47,0,0,1-8.54-.68v56.32c0,.42,0,.81.05,1.2h-5.4a7.5,7.5,0,0,0-3.52.59,3.41,3.41,0,0,0-1.72,2.77c-.49,3.26,1.32,5,5.28,5h101l46.33,0C177.83,170.33,179.85,167.76,178.54,164.47Z"/><path class="cls-1" d="M139.78,116.13H123.3A9.28,9.28,0,0,0,114,125.4v15.34A9.28,9.28,0,0,0,123.3,150h16.48a9.28,9.28,0,0,0,9.27-9.27V125.4A9.28,9.28,0,0,0,139.78,116.13Zm4.94,9.27v15.34a5,5,0,0,1-4.94,4.94H123.3a5,5,0,0,1-4.94-4.94V125.4a5,5,0,0,1,4.94-4.94h16.48A4.94,4.94,0,0,1,144.72,125.4Z"/><path class="cls-1" d="M152.9,30.75H47.57A15.84,15.84,0,0,0,31.75,46.57v5.48a11.08,11.08,0,0,1,4.3-1.49c1.31-.2,2.67-.33,4-.4V46.57a7.5,7.5,0,0,1,7.48-7.49H152.9a7.5,7.5,0,0,1,7.49,7.49v3.57a38.45,38.45,0,0,1,4.47.42,11.84,11.84,0,0,1,3.86,1.23V46.57A15.83,15.83,0,0,0,152.9,30.75Z"/><path class="cls-1" d="M183.81,91.55c-1.21-2.68-2.59-5.33-3.74-8q-5.12-12-10.08-24c-.91-2.21-3.21-3.43-6.35-3.93a46.16,46.16,0,0,0-7.18-.47q-28,0-56,0t-56,0a46.37,46.37,0,0,0-7.19.47c-3.14.5-5.44,1.72-6.34,3.93q-5,12-10.08,24c-1.15,2.7-2.53,5.35-3.74,8s-.09,4.5,3.31,6a14.65,14.65,0,0,0,3.85,1.2c8.84,1.19,17.73,1.53,26.23-.87,2.92-.82,5.36-2.35,8-3.57,8.37,7.47,32.69,7.55,41.87-.18l0,0,.05,0c9.18,7.73,33.51,7.65,41.87.18,2.68,1.22,5.12,2.75,8,3.57,8.5,2.41,17.39,2.06,26.24.87a14.7,14.7,0,0,0,3.84-1.2C183.9,96.05,185,94.11,183.81,91.55ZM49.62,87.94a3.85,3.85,0,0,1-4,3.52l-2.13-.08a3.86,3.86,0,0,1-3.7-4.19l2-22.8a3.85,3.85,0,0,1,4-3.51l2.13.08a3.85,3.85,0,0,1,3.7,4.19Zm27,0a3.85,3.85,0,0,1-4,3.52l-2.13-.08a3.86,3.86,0,0,1-3.7-4.19l2-22.8a3.85,3.85,0,0,1,4-3.51l2.13.08a3.85,3.85,0,0,1,3.7,4.19ZM105,87.56a3.86,3.86,0,0,1-3.86,3.86H99a3.86,3.86,0,0,1-3.86-3.86V64.74A3.86,3.86,0,0,1,99,60.88h2.14A3.86,3.86,0,0,1,105,64.74Zm24.6,3.82-2.14.08a3.86,3.86,0,0,1-4-3.52l-2-22.79a3.85,3.85,0,0,1,3.7-4.19l2.13-.08a3.85,3.85,0,0,1,4,3.51l2,22.79A3.87,3.87,0,0,1,129.56,91.38Zm27,0-2.13.08a3.86,3.86,0,0,1-4-3.52l-2-22.79a3.86,3.86,0,0,1,3.7-4.19l2.14-.08a3.85,3.85,0,0,1,4,3.51l2,22.79A3.86,3.86,0,0,1,156.55,91.38Z"/></svg>