<svg id="Icons" xmlns="http://www.w3.org/2000/svg" viewBox="0 0 200 200"><title>214-outils</title><path d="M42.59,74.32c7.87-6.11,14.39-1.9,23.1,8.18,1,1.13,2.3-.19,3-.85s12.24-11,12.8-11.47a1.62,1.62,0,0,0,.34-2.45c-.89-1-4.16-5.27-6.26-8-15.24-19.94,41.7-33.45,33-33.67-4.45-.11-22.31-.32-25,0-10.82,1.15-24.4,11.25-31.23,16-8.94,6.14-12.28,9.72-12.84,10.21-2.52,2.21-.4,7.31-5,11.33-4.85,4.25-7.87,1-10.68,3.5-1.39,1.23-5.28,4.14-6.4,5.12a2.74,2.74,0,0,0-.18,4s10.65,11.77,11.55,12.8,3.29,1.92,4.78.61l6-5.25C40.24,83.69,39.16,77,42.59,74.32Z"/><path d="M39.26,160a4.56,4.56,0,0,0,0,6.4l8,7.83c1.75,1.77,4.53,1,6.29-.74l41.36-40.67L82.25,118.37Z"/><path d="M183.93,44.81c-.63-4.16-2.79-3.28-3.9-1.52S174,52.57,171.91,56s-7,10-16.3,3.46c-9.68-6.84-6.31-11.61-4.62-14.83s6.89-12.26,7.64-13.4-.12-4.44-3.12-3.06-21.27,8.65-23.8,19.05c-2.59,10.59,2.16,20-7.17,29.45L113.23,88.46l11.36,13.21,13.95-13.24c3.33-3.34,10.42-6.58,16.84-5.13,13.76,3.12,21.27-2,25.8-10.59C185.22,65.06,184.55,49,183.93,44.81Z"/><path d="M90.71,78.67a2.17,2.17,0,0,0-3.35-.23L75.27,89A2.44,2.44,0,0,0,75,92.36L145,171.91a4.48,4.48,0,0,0,6.34.44l8.18-6.84a4.56,4.56,0,0,0,.43-6.39Z"/></svg>