<svg id="Icons" xmlns="http://www.w3.org/2000/svg" viewBox="0 0 200 200"><defs><style>.cls-1{fill:#201d1d;}</style></defs><title>215-facture</title><path class="cls-1" d="M120.9,17H40.5V184.12H160.42V56.48Zm3.18,18.57L141.85,53.3H124.08Zm25.44,137.69H51.4V27.86h61.78V64.2h36.34Z"/><path class="cls-1" d="M104.53,92.36A13.75,13.75,0,0,1,116,98.68l5.54-2.93a19.52,19.52,0,0,0-17-9.18c-10.42,0-19,6.19-21.69,15.82H79.39v3.91h2.74a18.69,18.69,0,0,0-.2,2.74,17.51,17.51,0,0,0,.2,2.6H79.39v3.91h3.39c2.67,9.7,11.26,16,21.75,16,8.27,0,13.54-4.1,17-9.18L116,119.39a13.73,13.73,0,0,1-11.46,6.32,15.26,15.26,0,0,1-14.72-10.16H108.5v-3.91H88.83a17.5,17.5,0,0,1-.19-2.6,18.71,18.71,0,0,1,.19-2.74H108.5v-3.91H89.88A15.2,15.2,0,0,1,104.53,92.36Z"/></svg>