<svg id="Icons" xmlns="http://www.w3.org/2000/svg" viewBox="0 0 200 200"><title>216-speech</title><g id="Forme_1022" data-name="Forme 1022"><path d="M129.66,173.74c0-2.28-1-3.19-3.31-3.2h-3.41c.27-2.62,5.91-36.77,6.43-42,.22-2.27-.72-3.25-3-3.25H74.45c-2.13,0-3.09,1-2.9,3.07.34,3.79,6.17,39.86,6.4,42.15-1.31,0-2.44,0-3.58,0-2.13,0-3.08.93-3.1,3q0,3.76,0,7.54c0,2.09.94,3,3,3,2.6,0,5.2,0,7.8,0h44.25c2.35,0,3.29-.93,3.3-3.22S129.67,176.12,129.66,173.74Zm21.84-59.09a4.51,4.51,0,0,1-.31,1.2c-.16.4-12.08,22.31-12.87,24.42a4,4,0,0,1-1.78,2.22h-5.35c.1-.85.19-1.71.29-2.56.4-3.62.81-7.36,1.17-11.05a6.12,6.12,0,0,0-1.39-5,6.36,6.36,0,0,0-4.89-1.84H74.45a6.21,6.21,0,0,0-4.77,1.82,5.94,5.94,0,0,0-1.42,4.79c.31,3.44.68,6.92,1,10.28l.12,1.14c.09.8.17,1.6.26,2.4H64.38a4.09,4.09,0,0,1-1.79-2.22c-.78-2.11-12.7-24-12.86-24.42a4.23,4.23,0,0,1-.31-1.21,27.9,27.9,0,0,1,0-4.19,3.92,3.92,0,0,1,4-4c.65,0,1.29,0,1.94,0h90.31c.65,0,1.3,0,1.94,0a3.93,3.93,0,0,1,4,4A27.91,27.91,0,0,1,151.5,114.65ZM100.81,75.77a8.86,8.86,0,0,0,7.86-5.15,1.75,1.75,0,0,1,1.62-1.06,1.65,1.65,0,0,1,.66.13,1.71,1.71,0,0,1,1,2.25,12.76,12.76,0,0,1-23.06,0,1.71,1.71,0,0,1,1-2.25,1.76,1.76,0,0,1,2.29.94,8.89,8.89,0,0,0,8.08,5.16M69.36,62h0a13.34,13.34,0,0,0,4.3,1.78c4.64,1.21,11,.11,15.72-2.07a19.62,19.62,0,0,0,2.17-1.16c.21-.12.37-.27.37-.44l0,0,0-.13,0,0a25.71,25.71,0,0,1-6.16-13.8s0-.06,0-.08c0-.54-.07-1.09-.07-1.63a18.15,18.15,0,0,1,.24-3.45c.11-.73,1.35-5,1.25-6.61a.2.2,0,0,1,.17-.21.17.17,0,0,1,.15,0,41.77,41.77,0,0,0,7.31,4.41,50.36,50.36,0,0,0,5.66,2.29,98.36,98.36,0,0,0,14.77,3.52c0,.57,0,1.15-.08,1.71h0a25.72,25.72,0,0,1-6.15,13.77v0a.09.09,0,0,0,0,.08l0,0a.2.2,0,0,0,0,.08h0c0,.17.15.31.34.43a21,21,0,0,0,2.58,1.34c4.65,2.06,10.82,3.06,15.32,1.88A13.34,13.34,0,0,0,131.37,62l0,0h0a.92.92,0,0,0,.61-1c0-.37-.19-.78-.82-1.21a28.35,28.35,0,0,1-4-3.37,24.68,24.68,0,0,1-3-3.65,25.58,25.58,0,0,1-3.57-8.6c0-.3-.11-.58-.15-.87-.2-1.29-.24-2.6-.32-3.9-.16-2.39-.34-4.77-.7-7.14-.12-.82-.28-1.64-.44-2.46,0-.19-.09-.39-.13-.57a13.16,13.16,0,0,0-1.07-3.05A9.72,9.72,0,0,0,115.62,23c-.1-.1-.2-.21-.31-.31a16.27,16.27,0,0,0-3.07-2.4,20.76,20.76,0,0,0-3.83-1.84,13.6,13.6,0,0,0-1.36-.46,6.94,6.94,0,0,0-.78-.22c-.22-.06-.44-.13-.68-.18-.39-.08-.76-.18-1.15-.25s-.7-.12-1-.16-.7-.1-1-.13a7.89,7.89,0,0,0-.84-.05,17.65,17.65,0,0,0-2.3,0,8.24,8.24,0,0,0-.85.05c-.34,0-.69.07-1,.13l-1,.18-.53.1a7.54,7.54,0,0,0-.94.22,19.31,19.31,0,0,0-2.38.74,18.81,18.81,0,0,0-3.92,1.87,16,16,0,0,0-2.9,2.22,1.31,1.31,0,0,0-.11.12l-.14.11a2.06,2.06,0,0,0-.25.26,9.93,9.93,0,0,0-2.24,3.27,13.27,13.27,0,0,0-1,2.94c0,.19-.09.38-.13.57-.16.82-.32,1.64-.44,2.47-.35,2.36-.53,4.74-.7,7.14-.09,1.3-.12,2.61-.32,3.89,0,.29-.1.58-.15.88a25.71,25.71,0,0,1-3.53,8.53,24.85,24.85,0,0,1-3,3.71,28.32,28.32,0,0,1-4,3.37c-.62.42-.84.83-.82,1.22A.94.94,0,0,0,69.36,62ZM142.13,95.6a36,36,0,0,0-.52-3.95,27,27,0,0,0-5.94-13.24l-.2-.24a16.25,16.25,0,0,0-6-4.17c-4.25-1.82-8.56-3.53-12.84-5.3l-.65-.26a.36.36,0,0,0-.48.2.35.35,0,0,0,0,.33c1.58,2.31,5.64,8.06,7.9,11.24h-1.11c-3,0-5.89,0-8.84,0a1.38,1.38,0,0,0-1,.46q-6.11,7.59-12.14,15.21-6-7.62-12.13-15.21a1.4,1.4,0,0,0-1-.46c-2.94,0-5.89,0-8.84,0h-1.1C79.57,77,83.62,71.28,85.2,69a.37.37,0,0,0-.09-.5.39.39,0,0,0-.35,0l-.66.26c-4.27,1.77-8.58,3.48-12.83,5.3a16.17,16.17,0,0,0-6,4.17c-.06.08-.14.16-.21.24a27.35,27.35,0,0,0-6.17,15h0l-.09,1.13c-.05.74,0,1.5,0,2.25a6.31,6.31,0,0,0,.29,2.32,3,3,0,0,0,2.44,2.1,14.87,14.87,0,0,0,2.21.19c8.78.07,69.33-.06,73.78-.1,1.45,0,3.07-.31,3.89-1.61a7,7,0,0,0,.75-4.15Z"/></g></svg>