<svg id="Icons" xmlns="http://www.w3.org/2000/svg" viewBox="0 0 200 200"><defs><style>.cls-1{fill:#000201;}</style></defs><title>217-restaurant-02</title><path class="cls-1" d="M96.52,148.37,78,176.6a16.66,16.66,0,0,1-10.65,7.15,15.86,15.86,0,0,1-3.14.32,15.4,15.4,0,0,1-8.72-2.67,15.9,15.9,0,0,1-4.26-22.09c.18-.26.36-.52.56-.78L77.3,125.39a5.28,5.28,0,0,1,8.34,6.49L60.08,165a5.45,5.45,0,0,0,1,7.63l.27.19a5.2,5.2,0,0,0,3.92.75A6.15,6.15,0,0,0,69.22,171l18.56-28.34a5.23,5.23,0,1,1,9.12,5.13,4.56,4.56,0,0,1-.4.61ZM169.44,21c-7-5-16.46-5.42-26.56-1.15a61.11,61.11,0,0,0-25,21c-9.09,12.75-13.33,27.42-11.34,39.24a14.51,14.51,0,0,1-.61,7,5.23,5.23,0,0,0,9.91,3.37,25,25,0,0,0,1-12.09c-1.51-9,2.15-21,9.55-31.4A50.5,50.5,0,0,1,147,29.55c3.84-1.62,11.08-3.76,16.42,0s5.66,11.36,5.39,15.51A50.75,50.75,0,0,1,159,70.23C151.6,80.69,141.4,88,132.38,89.5a24.93,24.93,0,0,0-11,4.73,27.85,27.85,0,0,0-2.47,2.14,5.23,5.23,0,0,0,7.31,7.48,15.66,15.66,0,0,1,1.51-1.3,14.55,14.55,0,0,1,6.3-2.78c11.77-2,24.35-10.76,33.44-23.53a61.16,61.16,0,0,0,11.73-30.55c.74-10.94-2.73-19.71-9.75-24.72ZM94.06,85.21a23.36,23.36,0,0,0-2.51-22.67L60.43,19.11a5.23,5.23,0,0,0-8.51,6.08L83,68.66A12.87,12.87,0,0,1,84.33,81.3a9.63,9.63,0,0,0,1.1,9.8L143,165.55a5,5,0,1,1-7.89,6l-.18-.24L82.76,93a9.64,9.64,0,0,0-9-4.17,12.85,12.85,0,0,1-11.63-5.23L31.08,40.16a5.23,5.23,0,0,0-8.51,6.08L53.7,89.71a23.38,23.38,0,0,0,20.69,9.64l51.82,77.88a15.3,15.3,0,0,0,10.08,6.63,15.65,15.65,0,0,0,2.82.26,15.43,15.43,0,0,0,12.21-24.87Zm-24-7A5.23,5.23,0,0,0,74.28,70L45.9,29.34a5.23,5.23,0,1,0-8.58,6L65.75,76A5.23,5.23,0,0,0,70,78.18Z"/></svg>