<svg id="Icons" xmlns="http://www.w3.org/2000/svg" viewBox="0 0 200 200"><title>219-fleche-05</title><path d="M181.8,83.47c0-.09,0-.17,0-.25a2.61,2.61,0,0,0-.56-1.45,3.22,3.22,0,0,0-.24-.36l-40-40a3,3,0,0,0-4.11,0l-5.68,5.68a3,3,0,0,0,0,4.11l23.52,23.52H91.83a2.94,2.94,0,0,0-2.9,2.91v10a3,3,0,0,0,2.9,2.91H156.3l-25.08,25.08a3,3,0,0,0,0,4.11l5.67,5.68a3,3,0,0,0,4.11,0l40-40a2.69,2.69,0,0,0,.8-1.82C181.77,83.62,181.79,83.55,181.8,83.47Z"/><path d="M108.09,110.48H43.62L68.7,85.39a3,3,0,0,0,0-4.11L63,75.6a2.94,2.94,0,0,0-4.1,0l-40,40a2.6,2.6,0,0,0-.8,1.82.93.93,0,0,0,0,.24,1,1,0,0,0,0,.24,2.61,2.61,0,0,0,.56,1.45,2.12,2.12,0,0,0,.24.37l40,39.95a2.93,2.93,0,0,0,4.1,0L68.71,154a3,3,0,0,0,0-4.11L45.19,126.33h62.89a3,3,0,0,0,2.91-2.91v-10A2.94,2.94,0,0,0,108.09,110.48Z"/></svg>