<svg id="Icons" xmlns="http://www.w3.org/2000/svg" viewBox="0 0 200 200"><title>221-verre</title><path d="M122.88,146c-6.09-.35-18.7-2.73-19.58-7.94V115.8c16-2.42,28.2-25.13,28.2-53.7a94.42,94.42,0,0,0-.85-12.62A2.84,2.84,0,0,0,127.84,47H73.08a2.84,2.84,0,0,0-2.81,2.46,94.42,94.42,0,0,0-.85,12.62c0,28.57,12.18,51.28,28.2,53.7v22.3c-.88,5.19-13.49,7.58-19.59,7.94a4,4,0,0,0,.11,8h44.64a4,4,0,0,0,.1-8ZM75.59,52.69h49.73a89.31,89.31,0,0,1,.5,9.41,86.65,86.65,0,0,1-.71,11.07c-3.36,1-11.82,2.67-23.87-.21-12.54-3-20.95-1.62-25.48-.18A86.39,86.39,0,0,1,75.1,62.1,89.31,89.31,0,0,1,75.59,52.69Zm1.07,25.77c3.27-1.18,10.91-2.92,23.26,0a61.85,61.85,0,0,0,14.38,1.77,47.17,47.17,0,0,0,9.79-1c-3.73,18-13,31.07-23.63,31.07C89.71,110.35,80.27,96.85,76.66,78.46Z"/></svg>