<svg id="Icons" xmlns="http://www.w3.org/2000/svg" viewBox="0 0 200 200"><title>223-theatre</title><rect x="73" y="127.71" width="54.92" height="27"/><path d="M56.2,94.8A10.83,10.83,0,1,0,67,105.63,10.83,10.83,0,0,0,56.2,94.8Z"/><circle cx="85.7" cy="105.63" r="10.83"/><circle cx="115.21" cy="105.63" r="10.83"/><path d="M144.72,94.8a10.83,10.83,0,1,0,10.83,10.83A10.82,10.82,0,0,0,144.72,94.8Z"/><path d="M37.51,57.2A10.83,10.83,0,1,0,26.69,68,10.82,10.82,0,0,0,37.51,57.2Z"/><path d="M56.2,68A10.83,10.83,0,1,0,45.37,57.2,10.82,10.82,0,0,0,56.2,68Z"/><path d="M85.7,68A10.83,10.83,0,1,0,74.88,57.2,10.83,10.83,0,0,0,85.7,68Z"/><path d="M115.21,68A10.83,10.83,0,1,0,104.39,57.2,10.83,10.83,0,0,0,115.21,68Z"/><path d="M144.72,68A10.83,10.83,0,1,0,133.9,57.2,10.83,10.83,0,0,0,144.72,68Z"/><path d="M174.23,46.37A10.83,10.83,0,1,0,185.06,57.2,10.83,10.83,0,0,0,174.23,46.37Z"/><path d="M52.27,81.41A10.83,10.83,0,1,0,41.44,92.24,10.82,10.82,0,0,0,52.27,81.41Z"/><path d="M81.78,81.41A10.83,10.83,0,1,0,71,92.24,10.82,10.82,0,0,0,81.78,81.41Z"/><path d="M89.63,81.41a10.83,10.83,0,1,0,10.83-10.82A10.83,10.83,0,0,0,89.63,81.41Z"/><path d="M140.79,81.41A10.83,10.83,0,1,0,130,92.24,10.81,10.81,0,0,0,140.79,81.41Z"/><path d="M159.48,70.59A10.83,10.83,0,1,0,170.3,81.41,10.82,10.82,0,0,0,159.48,70.59Z"/></svg>