<svg id="Icons" xmlns="http://www.w3.org/2000/svg" viewBox="0 0 200 200"><title>224-ecole</title><polygon points="61.22 110.35 61.22 123.43 100.46 146.32 139.7 123.43 139.7 110.35 100.46 133.24 61.22 110.35"/><path d="M112.73,78.4a6.53,6.53,0,0,1,8.81-2.83l34.11,17.5,10.21-5.61-65.4-32.7-65.4,32.7,65.4,36,41.36-22.75L115.57,87.2A6.53,6.53,0,0,1,112.73,78.4Z"/><path d="M152.78,114.53V95.27L120,78.48a3.26,3.26,0,1,0-3,5.81l29.18,15v15.26a6.5,6.5,0,0,0-3.27,5.63v19.62a6.54,6.54,0,0,0,13.08,0V120.16A6.52,6.52,0,0,0,152.78,114.53Z"/></svg>