<svg id="Icons" xmlns="http://www.w3.org/2000/svg" viewBox="0 0 200 200"><defs><style>.cls-1{fill:#000201;}</style></defs><title>225-groupe-02</title><path class="cls-1" d="M124.06,99.28a3.8,3.8,0,0,0-4.24-.25,38.2,38.2,0,0,1-38.74,0,3.83,3.83,0,0,0-1.81-.52h0a3.83,3.83,0,0,0-2.44.78A36.24,36.24,0,0,0,62.59,128v30a3.8,3.8,0,0,0,3.8,3.8h68.14a3.8,3.8,0,0,0,3.8-3.8V128A36.18,36.18,0,0,0,124.06,99.28Z"/><path class="cls-1" d="M100.46,92.79A26.75,26.75,0,1,0,73.69,66,26.8,26.8,0,0,0,100.46,92.79Z"/><path class="cls-1" d="M172.7,93.8a3.8,3.8,0,0,0-4.24-.25,28.95,28.95,0,0,1-29.23,0,3.73,3.73,0,0,0-1.8-.53,3.81,3.81,0,0,0-2.42.78,28,28,0,0,0-3.29,2.91,3.8,3.8,0,1,0,5.35,5.4.6.6,0,0,0,.08-.08l.64-.63a36.59,36.59,0,0,0,32.11,0,21.22,21.22,0,0,1,6.61,15.39v19.47H146.18a3.8,3.8,0,1,0-.12,7.6h34.25a3.8,3.8,0,0,0,3.8-3.8V116.79A28.94,28.94,0,0,0,172.7,93.8Z"/><path class="cls-1" d="M153.85,90.28a21.63,21.63,0,1,0-21.64-21.61A21.68,21.68,0,0,0,153.85,90.28Z"/><path class="cls-1" d="M54.85,136.26H24.41V116.79A21.24,21.24,0,0,1,31,101.4a36.57,36.57,0,0,0,32.1,0l.65.63a3.8,3.8,0,1,0,5.51-5.24l-.08-.08a28.84,28.84,0,0,0-3.29-2.91,3.76,3.76,0,0,0-4.22-.25,28.95,28.95,0,0,1-29.23,0A3.73,3.73,0,0,0,30.63,93a3.79,3.79,0,0,0-2.43.79,28.94,28.94,0,0,0-11.4,23v23.27a3.8,3.8,0,0,0,3.8,3.8H54.71a3.8,3.8,0,0,0,.14-7.6Z"/><path class="cls-1" d="M47.05,90.28A21.63,21.63,0,1,0,25.43,68.67,21.69,21.69,0,0,0,47.05,90.28Z"/></svg>