<svg id="Icons" xmlns="http://www.w3.org/2000/svg" viewBox="0 0 200 200"><title>226-valise-voyage</title><path d="M70.82,177.68a6.45,6.45,0,0,0,12.89,0v-5.86H70.82Z"/><path d="M117.21,177.68a6.45,6.45,0,0,0,12.89,0v-5.86H117.21Z"/><path d="M85.74,27.81h29.43V54.54h7V25.47a8.51,8.51,0,0,0-8.5-8.51H87.27a8.52,8.52,0,0,0-8.5,8.51V54.54h7Z"/><path d="M138.52,58.35H62.39a7.59,7.59,0,0,0-7.59,7.59V160.4a7.59,7.59,0,0,0,7.59,7.6h76.13a7.6,7.6,0,0,0,7.6-7.6V65.94A7.6,7.6,0,0,0,138.52,58.35Zm-13,79h-50V130.8h50Zm0-44.18h-50V86.61h50Z"/></svg>