<svg id="Icons" xmlns="http://www.w3.org/2000/svg" viewBox="0 0 200 200"><defs><style>.cls-1{fill:#000100;}</style></defs><title>227-visite-musee</title><path class="cls-1" d="M36.37,126.16v-6.52a6.1,6.1,0,1,0-7,0v47.53L16.89,172H48.81l-12.44-4.74Z"/><path class="cls-1" d="M45.38,114.36A7.06,7.06,0,0,0,59,117.07H92.68a7.78,7.78,0,0,1,1.1-7.1H78.86v-2.58H96.8a7.8,7.8,0,0,1,7.31,0h17.94V110H107.14a7.81,7.81,0,0,1,1.09,7.1H142a7.05,7.05,0,1,0,8.47-9.46V42.75a7,7,0,1,0-8-10.41h-84a7,7,0,1,0-7.6,10.52V107.5A7.05,7.05,0,0,0,45.38,114.36ZM60.7,39.89h79.51v62.3H60.7Z"/><path class="cls-1" d="M171.59,167.21V119.64a6.11,6.11,0,1,0-7,0v47.52l-12.45,4.78H184Z"/><path class="cls-1" d="M162.46,125.06v-4.44a8.71,8.71,0,0,1-1.12-1.31,3.38,3.38,0,0,0-1.69.74c-26,21.28-50.34,1.81-51.39.94a3.48,3.48,0,0,0-1.85-.77c-.12.13-.22.28-.35.4v7.45c4.44,3,15,8.84,28.1,8.84,8.62,0,18.39-2.55,28.3-10.13Z"/><path class="cls-1" d="M94.86,120.62a7.87,7.87,0,0,1-1.07-1.24,3.64,3.64,0,0,0-1.28.66c-25.95,21.29-50.33,1.81-51.39.95a3.45,3.45,0,0,0-2.31-.79c-.12.14-.22.29-.35.42v7.13c4.11,2.81,14.9,9.16,28.56,9.16,8.49,0,18.08-2.46,27.84-9.76Z"/><path class="cls-1" d="M104,119.64a6.1,6.1,0,1,0-7,0v47.53L84.5,172h31.92L104,167.21Z"/></svg>