<svg id="Icons" xmlns="http://www.w3.org/2000/svg" viewBox="0 0 200 200"><title>228-theatre-spectacle</title><path d="M110.12,76.41a147.45,147.45,0,0,0-9-30.28h0C92.77,39,75.55,36,56.67,39.32s-34,12-39.38,21.59l-.15,0A147.17,147.17,0,0,0,19,92.48c6.68,37.89,34.21,74.7,59.37,70.27S116.8,114.31,110.12,76.41ZM34.21,93.85a4.52,4.52,0,0,1-3.51-.16,4.58,4.58,0,0,1-2.23-6.1,18.13,18.13,0,0,1,24.07-8.76,4.59,4.59,0,1,1-3.88,8.32,8.94,8.94,0,0,0-11.87,4.32A4.59,4.59,0,0,1,34.21,93.85Zm65.63,15.52c-11.36,36-36.91,40.53-59.9,10.57h0a.1.1,0,0,1,0,0,3,3,0,1,1,3.39-4.84A36.25,36.25,0,0,0,49,118.33,37,37,0,0,0,90.73,111a39,39,0,0,0,4.26-5,3,3,0,0,1,4.84,3.39l0,0Zm-.29-27.82a4.59,4.59,0,0,1-6.49,0,8.94,8.94,0,0,0-12.63,0,4.59,4.59,0,1,1-6.5-6.49,18.13,18.13,0,0,1,25.61,0A4.58,4.58,0,0,1,99.55,81.55Zm84.23-20.61h0c-5.36-9.55-20.5-18.26-39.39-21.59-14.18-2.51-27.43-1.43-36.67,2.29l.61,1.41A157.18,157.18,0,0,1,117,70.38a18,18,0,0,1,9.7,9.13,4.58,4.58,0,0,1-7.5,5.07,127.73,127.73,0,0,1-.22,25.94c4.07.72,8.12,2.27,12.3,3,10.68,1.88,22.3-1.56,28,16.45h-.05l.05.05a3,3,0,1,1-4.84,3.39,38.34,38.34,0,0,0-4.26-5c-5.33-5.31-15-3-22.56-4.28-4.22-.74-7.21-1.06-10-2.8a84.94,84.94,0,0,1-3.95,13.4,76.65,76.65,0,0,1-8.26,17.21c4.82,5.78,10.6,9.68,17.19,10.85,25.16,4.43,52.69-32.38,59.37-70.27A147.17,147.17,0,0,0,183.78,60.94Zm-11,28.69a4.59,4.59,0,0,1-6.49,0,8.94,8.94,0,0,0-12.64,0A4.53,4.53,0,0,1,150.42,91a4.6,4.6,0,0,1-3.24-7.84,18.13,18.13,0,0,1,25.61,0A4.61,4.61,0,0,1,172.79,89.63Z"/></svg>