<svg id="Icons" xmlns="http://www.w3.org/2000/svg" viewBox="0 0 200 200"><title>229-tripadvisor</title><path d="M119.3,52.61A89.13,89.13,0,0,1,133,55.83,93.72,93.72,0,0,1,155.32,66a3.46,3.46,0,0,0,1.71.49c8.21,0,16.41,0,24.61,0,.66,0,1.32.07,2,.11a1.08,1.08,0,0,1,0,.27l-1.16,1.75a50.63,50.63,0,0,0-6.57,13.68,1.57,1.57,0,0,0,.18,1.49c7.3,10.49,9.63,22,6.58,34.43a40.73,40.73,0,0,1-18.4,25.39A41.3,41.3,0,0,1,142,150a38.47,38.47,0,0,1-10-1.29,41.84,41.84,0,0,1-20.51-12.1c-.75-.79-1.45-1.62-2.24-2.52l-8.95,13.34L91.5,134.3c-.2.11-.26.12-.3.15l-.17.19a41.51,41.51,0,0,1-25.92,14.68,40.55,40.55,0,0,1-17.26-1,41.9,41.9,0,0,1-30.33-33.94,40.36,40.36,0,0,1,.75-16.54,41.8,41.8,0,0,1,6.51-14.13A1.67,1.67,0,0,0,25,82.52,46.73,46.73,0,0,0,19.1,69.91c-.64-1-1.39-1.93-2.1-2.9v-.33c.14,0,.28,0,.42,0q12.6,0,25.19,0a2.1,2.1,0,0,0,1.08-.35,90.61,90.61,0,0,1,18.79-9.12,102.41,102.41,0,0,1,14.59-4,118.06,118.06,0,0,1,14.51-1.91A123.77,123.77,0,0,1,119.3,52.61Zm-10.53,55.46a33.33,33.33,0,1,0,32.62-33.2A33.37,33.37,0,0,0,108.77,108.07Zm-50-33.32a33.29,33.29,0,1,0,33.36,33.43A33.32,33.32,0,0,0,58.77,74.75Zm1.65-8.7a42.51,42.51,0,0,1,40.05,36.34,42.36,42.36,0,0,1,39.41-36.15c-11.82-5.26-24.29-7.49-37.13-7.74C88.16,58.21,74,60.36,60.42,66.05Z"/><path d="M142,87a20.64,20.64,0,1,1-20.7,20.63A20.58,20.58,0,0,1,142,87Zm13.45,20.63a13.5,13.5,0,0,0-27-.06,13.5,13.5,0,1,0,27,.06Z"/><path d="M58.33,87a20.65,20.65,0,1,1-20.72,20.61A20.57,20.57,0,0,1,58.33,87Zm13.44,20.58a13.5,13.5,0,0,0-27,0,13.5,13.5,0,1,0,27,0Z"/><path d="M142.05,100.81a6.84,6.84,0,1,1-6.86,6.91A6.84,6.84,0,0,1,142.05,100.81Z"/><path d="M58.29,100.75a6.91,6.91,0,1,1,0,13.81,6.91,6.91,0,1,1,0-13.81Z"/></svg>