<svg id="Icons" xmlns="http://www.w3.org/2000/svg" viewBox="0 0 200 200"><title>231-2-etoiles</title><path d="M88.65,92.93h0L70.51,90.31c1.31.19.56,0-.37-1.87l-2.81-5.8-4.11-8.23a1.48,1.48,0,0,0-1.5-.93h-.37a1.92,1.92,0,0,0-1.5.93L52,90.87c.56-1.31,0-.56-1.87-.19l-6.36.94-9.16,1.12A2,2,0,0,0,33.3,95a.94.94,0,0,0,.37.74L46.2,107.89a6.27,6.27,0,0,1-.19,1.87l-1.12,6.36-1.5,9.16a1.92,1.92,0,0,0,1.31,2.24,1.65,1.65,0,0,0,1.31-.18l15.34-8a7.82,7.82,0,0,1,1.87.74l5.6,3,8.23,4.3a1.9,1.9,0,0,0,2.62-.75,1.62,1.62,0,0,0,.19-1.31l-2.8-16.83a11.35,11.35,0,0,1,1.3-1.5l11-11a1.82,1.82,0,0,0,0-2.62A1,1,0,0,0,88.65,92.93Z"/><path d="M167.1,95.92a1.82,1.82,0,0,0,0-2.62,1,1,0,0,0-.75-.37h0l-18.14-2.62c1.31.19.56,0-.37-1.87L145,82.64l-4.11-8.23a1.48,1.48,0,0,0-1.5-.93h-.37a1.92,1.92,0,0,0-1.5.93L129.7,90.87c.56-1.31,0-.56-1.87-.19l-6.36.94-9.17,1.12A2,2,0,0,0,111,95a.94.94,0,0,0,.37.74l12.53,12.16a6.27,6.27,0,0,1-.19,1.87l-1.12,6.36-1.5,9.16a1.91,1.91,0,0,0,1.31,2.24,1.66,1.66,0,0,0,1.31-.18l15.33-8a7.51,7.51,0,0,1,1.87.74l5.61,3,8.23,4.3a1.9,1.9,0,0,0,2.62-.75,1.62,1.62,0,0,0,.19-1.31l-2.81-16.83a12.14,12.14,0,0,1,1.31-1.5Z"/></svg>