<svg id="Icons" xmlns="http://www.w3.org/2000/svg" viewBox="0 0 200 200"><title>232-3-etoiles</title><path d="M72.35,111.93h0l-18.14-2.62c1.31.19.57,0-.37-1.87l-2.8-5.8-4.12-8.23a1.47,1.47,0,0,0-1.49-.93h-.38a1.89,1.89,0,0,0-1.49.93L35.7,109.87c.56-1.31,0-.56-1.87-.19l-6.36.94-9.16,1.12A2,2,0,0,0,17,114a1,1,0,0,0,.37.74L29.9,126.89a6.6,6.6,0,0,1-.18,1.87l-1.13,6.36-1.49,9.16a1.91,1.91,0,0,0,1.31,2.24,1.63,1.63,0,0,0,1.3-.18l15.34-8a7.66,7.66,0,0,1,1.87.74l5.61,3,8.23,4.3a1.9,1.9,0,0,0,2.62-.75,1.65,1.65,0,0,0,.18-1.31l-2.8-16.83a11.09,11.09,0,0,1,1.31-1.5l11-11a1.81,1.81,0,0,0,0-2.62A1,1,0,0,0,72.35,111.93Z"/><path d="M116.15,71.12a12.14,12.14,0,0,1,1.31-1.5l11-11a1.81,1.81,0,0,0,0-2.62,1,1,0,0,0-.74-.38h0L109.61,53c1.31.19.56,0-.38-1.87l-2.8-5.8-4.12-8.23a1.46,1.46,0,0,0-1.49-.93h-.37a1.89,1.89,0,0,0-1.5.93L91.09,53.54c.57-1.31,0-.56-1.87-.19l-6.35.94L73.7,55.41a2,2,0,0,0-1.31,2.24,1,1,0,0,0,.38.75L85.3,70.56a6.3,6.3,0,0,1-.19,1.87L84,78.78,82.49,88a1.91,1.91,0,0,0,1.31,2.24A1.63,1.63,0,0,0,85.11,90l15.33-8a8.13,8.13,0,0,1,1.87.75l5.61,3,8.23,4.3a1.89,1.89,0,0,0,2.62-.74A1.67,1.67,0,0,0,119,88Z"/><path d="M183.39,114.92a1.81,1.81,0,0,0,0-2.62.94.94,0,0,0-.74-.37h0l-18.14-2.62c1.3.19.56,0-.38-1.87l-2.8-5.8-4.12-8.23a1.46,1.46,0,0,0-1.49-.93h-.38a1.89,1.89,0,0,0-1.49.93L146,109.87c.56-1.31,0-.56-1.87-.19l-6.36.94-9.16,1.12a2,2,0,0,0-1.31,2.25,1,1,0,0,0,.38.74l12.53,12.16a6.27,6.27,0,0,1-.19,1.87l-1.12,6.36-1.5,9.16a1.91,1.91,0,0,0,1.31,2.24,1.66,1.66,0,0,0,1.31-.18l15.33-8a7.66,7.66,0,0,1,1.87.74l5.61,3,8.23,4.3a1.9,1.9,0,0,0,2.62-.75,1.66,1.66,0,0,0,.19-1.31l-2.81-16.83a11.09,11.09,0,0,1,1.31-1.5Z"/></svg>