<svg id="Icons" xmlns="http://www.w3.org/2000/svg" viewBox="0 0 200 200"><title>233-4-etoiles</title><path d="M60.76,108.45a11.09,11.09,0,0,1,1.31-1.5l11-11a1.81,1.81,0,0,0,0-2.62,1,1,0,0,0-.75-.37h0L54.21,90.31c1.31.19.57,0-.37-1.87L51,82.64l-4.12-8.22a1.47,1.47,0,0,0-1.49-.94h-.38a1.88,1.88,0,0,0-1.49.94L35.7,90.87c.56-1.31,0-.56-1.87-.19l-6.36.94-9.16,1.12A2,2,0,0,0,17,95a1,1,0,0,0,.37.74L29.9,107.89a6.6,6.6,0,0,1-.18,1.87l-1.13,6.36-1.49,9.16a1.91,1.91,0,0,0,1.31,2.24,1.63,1.63,0,0,0,1.3-.18l15.34-8a7.66,7.66,0,0,1,1.87.74l5.61,3,8.23,4.3a1.9,1.9,0,0,0,2.62-.75,1.65,1.65,0,0,0,.18-1.31Z"/><path d="M72.77,39.4,85.3,51.56a6.3,6.3,0,0,1-.19,1.87L84,59.78,82.49,69a1.91,1.91,0,0,0,1.31,2.24A1.63,1.63,0,0,0,85.11,71l15.33-8a8.13,8.13,0,0,1,1.87.75l5.61,3,8.23,4.3a1.89,1.89,0,0,0,2.62-.74A1.67,1.67,0,0,0,119,69l-2.81-16.83a12.14,12.14,0,0,1,1.31-1.5l11-11a1.81,1.81,0,0,0,0-2.62,1,1,0,0,0-.74-.38h0L109.61,34c1.31.19.56,0-.38-1.87l-2.8-5.8-4.12-8.23a1.46,1.46,0,0,0-1.49-.93h-.37a1.89,1.89,0,0,0-1.5.93L91.09,34.54c.57-1.31,0-.56-1.87-.19l-6.35.94L73.7,36.41a2,2,0,0,0-1.31,2.24A1,1,0,0,0,72.77,39.4Z"/><path d="M183.39,95.92a1.81,1.81,0,0,0,0-2.62.94.94,0,0,0-.74-.37h0l-18.14-2.62c1.3.19.56,0-.38-1.87l-2.8-5.8-4.12-8.22a1.46,1.46,0,0,0-1.49-.94h-.38a1.88,1.88,0,0,0-1.49.94L146,90.87c.56-1.31,0-.56-1.87-.19l-6.36.94-9.16,1.12A2,2,0,0,0,127.29,95a1,1,0,0,0,.38.74l12.53,12.16a6.27,6.27,0,0,1-.19,1.87l-1.12,6.36-1.5,9.16a1.91,1.91,0,0,0,1.31,2.24,1.66,1.66,0,0,0,1.31-.18l15.33-8a7.66,7.66,0,0,1,1.87.74l5.61,3,8.23,4.3a1.9,1.9,0,0,0,2.62-.75,1.66,1.66,0,0,0,.19-1.31l-2.81-16.83a11.09,11.09,0,0,1,1.31-1.5Z"/><path d="M127.75,149.26h0l-18.14-2.62c1.31.19.56,0-.38-1.87l-2.8-5.79-4.12-8.23a1.47,1.47,0,0,0-1.49-.94h-.37a1.9,1.9,0,0,0-1.5.94l-7.86,16.46c.57-1.31,0-.57-1.87-.19l-6.35.93-9.17,1.13a2,2,0,0,0-1.31,2.24,1,1,0,0,0,.38.75L85.3,164.22a6.27,6.27,0,0,1-.19,1.87L84,172.45l-1.5,9.16a1.92,1.92,0,0,0,1.31,2.25,1.63,1.63,0,0,0,1.31-.19l15.33-8a7.7,7.7,0,0,1,1.87.75l5.61,3,8.23,4.3a1.89,1.89,0,0,0,2.62-.75,1.66,1.66,0,0,0,.19-1.31l-2.81-16.83a11.75,11.75,0,0,1,1.31-1.49l11-11a1.8,1.8,0,0,0,0-2.61A1,1,0,0,0,127.75,149.26Z"/></svg>