<svg id="Icons" xmlns="http://www.w3.org/2000/svg" viewBox="0 0 200 200"><title>234-meteo</title><path d="M73.84,55.75a4,4,0,0,0,4-4.06V40.21a4.06,4.06,0,1,0-8.11,0V51.69A4.05,4.05,0,0,0,73.84,55.75Z"/><path d="M102.64,67.69a4.09,4.09,0,0,0,2.87-1.19l8.12-8.13a4.06,4.06,0,0,0-5.73-5.74l-8.13,8.13a4.07,4.07,0,0,0,2.87,6.93Z"/><path d="M42.16,66.49a4.06,4.06,0,1,0,5.75-5.73l-8.14-8.13A4.06,4.06,0,1,0,34,58.37Z"/><path d="M42.16,118.36,34,126.49a4.06,4.06,0,0,0,5.73,5.74l8.14-8.13a4.06,4.06,0,1,0-5.75-5.74Z"/><path d="M36.91,92.42a4.07,4.07,0,0,0-4.06-4.07H21.34a4.07,4.07,0,0,0,0,8.13H32.85A4.06,4.06,0,0,0,36.91,92.42Z"/><path d="M154.9,107.47a27.35,27.35,0,0,0-3.37.21,35.49,35.49,0,0,0-70.65,4.86c0,.69,0,1.38.06,2.06a25.36,25.36,0,0,0,4.34,50.34H154.9a28.74,28.74,0,1,0,0-57.47Zm0,49.35H85.28a17.24,17.24,0,0,1-.11-34.47l5.2.1-.91-4.89a27.38,27.38,0,1,1,54.29-5.12V118l5.23-1.58a20.62,20.62,0,1,1,5.92,40.36Z"/><path d="M63.55,112.41A22.63,22.63,0,1,1,89.86,76.27,44.66,44.66,0,0,1,97,72a30.74,30.74,0,1,0-39.29,46.4A35.14,35.14,0,0,1,63.55,112.41Z"/></svg>