<svg id="Icons" xmlns="http://www.w3.org/2000/svg" viewBox="0 0 200 200"><title>235-mer</title><path d="M48.79,133.34A25.13,25.13,0,0,0,65,127.7l1-.88,1.06.88a26,26,0,0,0,32.33,0l1-.88,1.06.88a26,26,0,0,0,32.33,0l1-.87,1.06.87a25.28,25.28,0,0,0,16.2,5.64c9.12,0,17.27-4.52,21.28-11.79a4.63,4.63,0,0,0-1.84-6.26,4.7,4.7,0,0,0-6.25,1.81c-2.85,5.17-8.68,7-13.19,7s-10.36-1.84-13.18-7a4.91,4.91,0,0,0-8.11,0c-2.84,5.16-8.67,7-13.18,7s-10.34-1.84-13.16-7c-1.63-2.94-6.48-2.95-8.09,0-2.84,5.17-8.67,7-13.18,7s-10.34-1.84-13.18-7a4.88,4.88,0,0,0-8.09,0c-2.84,5.16-8.66,7-13.17,7s-10.34-1.84-13.18-7a4.74,4.74,0,0,0-6.27-1.82,4.59,4.59,0,0,0-1.82,6.25C31.52,128.82,39.67,133.34,48.79,133.34Z"/><path d="M171.56,143.47a4.7,4.7,0,0,0-6.24,1.82c-2.85,5.16-8.68,7-13.19,7s-10.36-1.85-13.18-7a4.91,4.91,0,0,0-8.11,0c-2.84,5.16-8.67,7-13.18,7s-10.34-1.85-13.16-7c-1.63-2.93-6.48-2.95-8.09,0-2.84,5.16-8.67,7-13.18,7s-10.34-1.85-13.18-7a4.88,4.88,0,0,0-8.09,0c-2.84,5.16-8.66,7-13.17,7s-10.34-1.85-13.18-7a4.75,4.75,0,0,0-6.28-1.82,4.61,4.61,0,0,0-1.81,6.26c4,7.27,12.15,11.79,21.27,11.79A25.13,25.13,0,0,0,65,155.89l1-.88,1.06.88a26,26,0,0,0,32.33,0l1-.88,1.06.88a26,26,0,0,0,32.33,0l1-.88,1.06.88a25.33,25.33,0,0,0,16.2,5.63c9.12,0,17.27-4.52,21.28-11.78a4.63,4.63,0,0,0-1.85-6.27Z"/><path d="M31.56,99.09a4.62,4.62,0,0,0,4.62-4.6c0-26.92,27.67-50.17,56.43-45l2.54.46L93.66,52.1a29.75,29.75,0,0,0,24.25,47c3.76,0,9.35-.26,14.46-2.53l1-.46.79.81a26.48,26.48,0,0,0,18.91,7.58c8.86,0,16.44-4.15,20.29-11.13a4.64,4.64,0,0,0-1.85-6.27,4.69,4.69,0,0,0-6.24,1.83c-2.2,4-6.75,6.35-12.2,6.35-6.2,0-11.88-3-14.47-7.72a4.67,4.67,0,0,0-3.24-2.33,4.75,4.75,0,0,0-3.84,1c-2.84,2.45-7.17,3.6-13.66,3.6a20.52,20.52,0,0,1-11.16-37.74A4.62,4.62,0,0,0,106,44a54.07,54.07,0,0,0-21.63-4.45C53.27,39.56,27,64.71,27,94.49A4.6,4.6,0,0,0,31.56,99.09Z"/></svg>