<svg id="Icons" xmlns="http://www.w3.org/2000/svg" viewBox="0 0 200 200"><title>236-bateau</title><path d="M170,161.07a18.06,18.06,0,0,0-10.6,3.21,11.84,11.84,0,0,1-13.58,0,18.92,18.92,0,0,0-6.64-2.83c9.4-14.65,23.86-42.34,26.36-54.85a3.64,3.64,0,0,0-1.13-3.41,102.68,102.68,0,0,0-17.58-12.66,3.08,3.08,0,0,0,.07-.68v-16a9,9,0,0,0-9-9h-1.71V55.1a9,9,0,0,0-9-9H73.73a9,9,0,0,0-9,9v9.73H63a9,9,0,0,0-9,9v16a3.08,3.08,0,0,0,.07.68,103.16,103.16,0,0,0-17.59,12.66,3.65,3.65,0,0,0-1.13,3.41c2.5,12.49,17,40.18,26.37,54.84a18.94,18.94,0,0,0-6.69,2.85,10.87,10.87,0,0,1-6.76,2.13,10.9,10.9,0,0,1-6.78-2.14A18.07,18.07,0,0,0,31,161.07a3.63,3.63,0,1,0,0,7.26,11,11,0,0,1,6.78,2.13,18,18,0,0,0,10.59,3.21,18,18,0,0,0,10.58-3.21,11.87,11.87,0,0,1,13.57,0,19.06,19.06,0,0,0,21.17,0,11.85,11.85,0,0,1,13.57,0,19.08,19.08,0,0,0,21.17,0,11.86,11.86,0,0,1,13.58,0,19.13,19.13,0,0,0,21.2,0,11,11,0,0,1,6.79-2.13,3.63,3.63,0,0,0,0-7.26ZM72,55.1a1.71,1.71,0,0,1,1.72-1.71h53.46a1.71,1.71,0,0,1,1.72,1.71v9.73H122.8V57.77a3.63,3.63,0,0,0-7.26,0v7.06H104.09V57.77a3.63,3.63,0,0,0-7.26,0v7.06H85.38V57.77a3.63,3.63,0,1,0-7.26,0v7.06H72ZM89.84,164.29a11.83,11.83,0,0,1-13.56,0,19.92,19.92,0,0,0-5.59-2.59c-7.76-10.76-23.93-41-27.67-54.52,20.18-17.28,45-22.52,53.81-23.89l0,78.1A18.59,18.59,0,0,0,89.84,164.29Zm10.81-88.75h-.47A120,120,0,0,0,61.32,86.75V73.81A1.72,1.72,0,0,1,63,72.1h74.85a1.72,1.72,0,0,1,1.72,1.71V86.75a120,120,0,0,0-38.86-11.21Zm29.59,86.13a20.14,20.14,0,0,0-5.66,2.62,11.83,11.83,0,0,1-13.56,0,18.75,18.75,0,0,0-6.93-2.89V83.28c8.75,1.36,33.6,6.59,53.81,23.89C154.15,120.69,138,150.92,130.24,161.67Z"/><path d="M92.44,45.37a3.64,3.64,0,0,0,3.63-3.63V36.39a1.72,1.72,0,0,1,1.72-1.72h5.34a1.72,1.72,0,0,1,1.72,1.72v5.35a3.63,3.63,0,1,0,7.26,0V36.39a9,9,0,0,0-9-9H97.79a9,9,0,0,0-9,9v5.35A3.64,3.64,0,0,0,92.44,45.37Z"/></svg>