<svg id="Icons" xmlns="http://www.w3.org/2000/svg" viewBox="0 0 200 200"><title>237-carte-03</title><path d="M165.08,103.65a2,2,0,0,0,0-.27V52.47a3.29,3.29,0,0,0-1.94-3L130.09,34.19a3.43,3.43,0,0,0-2.77,0L95.62,48.83,63.91,34.19a3.43,3.43,0,0,0-2.77,0L28.05,49.47a3.29,3.29,0,0,0-1.92,3v99.28a3.33,3.33,0,0,0,1.52,2.78,3.38,3.38,0,0,0,3.18.22l31.69-14.57,31.7,14.68a3.43,3.43,0,0,0,2.77,0l17.81-8.12c9.43,18.62,23.11,34.3,24.65,36.05a3.36,3.36,0,0,0,2.47,1.1h0a3.28,3.28,0,0,0,2.47-1.13c1.82-2.08,18-20.94,27.16-41.87a32.46,32.46,0,0,0-6.49-37.25ZM112,140.78l-16.34,7.43-31.7-14.68a3.22,3.22,0,0,0-1.4-.31,3.3,3.3,0,0,0-1.38.3l-28.4,13.06v-92L62.52,40.85l31.7,14.63a3.26,3.26,0,0,0,2.78,0l31.71-14.63,29.77,13.74v44a32.94,32.94,0,0,0-49.63,28.24A32,32,0,0,0,112,140.78Zm53.59-2.63c-6.93,15.88-18.53,31-23.64,37.3-5.18-6.26-16.94-21.39-23.92-37.4a25.82,25.82,0,0,1-2.52-11.21,26.35,26.35,0,0,1,52.7,0A26,26,0,0,1,165.55,138.15Z"/><path d="M141.82,110.21a16.29,16.29,0,1,0,16.29,16.28A16.3,16.3,0,0,0,141.82,110.21Zm0,26a9.67,9.67,0,1,1,9.67-9.67A9.68,9.68,0,0,1,141.82,136.16Z"/><path d="M90.38,85.81c-.64-.82-1.3-1.66-2-2.47a3.4,3.4,0,0,0-4.68-.25,3.3,3.3,0,0,0-1.09,2.28,3.24,3.24,0,0,0,.85,2.39c.5.55.95,1.13,1.4,1.7l.43.55a23.68,23.68,0,0,0,4.07,4.34,3.32,3.32,0,0,0,4.65-.6,3.32,3.32,0,0,0-.6-4.64A19.46,19.46,0,0,1,90.38,85.81Z"/><path d="M76.63,77.55a28.29,28.29,0,0,0-3.19-.18,22.94,22.94,0,0,0-6.33.78,3.31,3.31,0,0,0,1,6.48A3.39,3.39,0,0,0,69,84.5a18.23,18.23,0,0,1,4.5-.51,21.82,21.82,0,0,1,2.42.14l.36,0a3.31,3.31,0,0,0,.38-6.6Z"/><path d="M121.2,87.48A35.37,35.37,0,0,0,128,81.37a3.3,3.3,0,0,0-.46-4.66,3.41,3.41,0,0,0-4.66.45,28.24,28.24,0,0,1-5.5,4.92,3.31,3.31,0,0,0,1.93,6A3.32,3.32,0,0,0,121.2,87.48Z"/><path d="M108.33,87.11c-1.76.77-3.61,1.48-5.49,2.1-.63.22-1.22.39-1.79.54a3.32,3.32,0,0,0-2.37,4,3.32,3.32,0,0,0,3.21,2.48,3.2,3.2,0,0,0,.83-.12c.7-.18,1.44-.4,2.21-.66,2.14-.7,4.17-1.49,6.06-2.32a3.3,3.3,0,0,0,1.7-4.35A3.37,3.37,0,0,0,108.33,87.11Z"/><path d="M54.26,80.77A11.59,11.59,0,1,0,65.84,92.36,11.6,11.6,0,0,0,54.26,80.77Zm0,16.54a5,5,0,1,1,5-5A5,5,0,0,1,54.26,97.31Z"/><path d="M137,79.12a11.59,11.59,0,1,0-11.59-11.58A11.6,11.6,0,0,0,137,79.12Zm0-16.55a5,5,0,1,1-5,5A5,5,0,0,1,137,62.57Z"/></svg>