<svg id="Icons" xmlns="http://www.w3.org/2000/svg" viewBox="0 0 200 200"><defs><style>.cls-1{fill:#000100;}</style></defs><title>239-webcam-02</title><path class="cls-1" d="M100.46,64.38a26.89,26.89,0,1,0,26.89,26.88A26.9,26.9,0,0,0,100.46,64.38Zm0,41.49a14.61,14.61,0,1,1,14.61-14.61A14.65,14.65,0,0,1,100.46,105.87Z"/><path class="cls-1" d="M164.31,91.26a63.86,63.86,0,1,0-93.95,56l-8.77,17.53a6.22,6.22,0,0,0,.29,6,6.31,6.31,0,0,0,5.26,2.92h67.07a6.31,6.31,0,0,0,5.26-2.92,6.25,6.25,0,0,0,.3-6L131,147.08C150.72,136.12,164.31,115.37,164.31,91.26Zm-44.56,60.79,4.53,9.06H77.08l4.53-9.06a36.6,36.6,0,0,0,3.8.88c1.17.29,2.48.58,3.65.87a63.62,63.62,0,0,0,10.52,1c.29,0,.59.15.88.15h.15A59.15,59.15,0,0,0,112,153.8c1.17-.14,2.19-.58,3.36-.73C116.82,152.78,118.29,152.49,119.75,152.05Zm-4-11.84c-1.75.59-3.36,1.17-5.11,1.61a46.35,46.35,0,0,1-10.08,1c-1.76,0-3.51-.29-5.27-.44-1.6-.14-3.36-.14-5-.43a46.39,46.39,0,0,1-6.43-1.9,52,52,0,1,1,31.85.14Z"/></svg>