<svg id="Icons" xmlns="http://www.w3.org/2000/svg" viewBox="0 0 200 200"><title>240-vagues</title><path d="M184.84,54.35h0c-6.47,0-13,3.38-17.86,9.56L164.59,67c-6,7.68-14,12-22.39,12.13h-.41c-8.16,0-16-3.95-22-11.15l-2.36-2.82c-4.83-5.77-11-8.88-17.22-8.76S87.68,60,82.93,66.1C76.84,74,68.78,78.35,60.22,78.43H60c-8.41,0-16.38-4.16-22.48-11.74l-3.08-3.83C29.36,56.57,22.74,53.3,16,53.64V47c8.86-.47,17.16,3.7,23.61,11.71l3.08,3.83c4.8,6,10.92,9.24,17.26,9.24h.18c6.46-.06,12.67-3.51,17.47-9.73,6-7.78,14-12.15,22.46-12.32,8.31-.17,16.32,3.8,22.48,11.15l2.36,2.82c4.82,5.75,11,8.88,17.16,8.75,6.36-.1,12.47-3.5,17.23-9.56l2.39-3.06c6.29-8,14.35-12.34,23.13-12.12Z"/><path d="M184.84,91.88h0c-6.47,0-13,3.38-17.86,9.56l-2.39,3.06c-6,7.68-14,12-22.39,12.13h-.41c-8.16,0-16-3.95-22-11.15l-2.36-2.82c-4.83-5.77-11-8.88-17.22-8.75s-12.54,3.58-17.29,9.72C76.84,111.5,68.78,115.88,60.22,116H60c-8.41,0-16.38-4.16-22.48-11.74l-3.08-3.83C29.36,94.1,22.74,90.83,16,91.17V84.49c8.86-.48,17.16,3.69,23.61,11.7L42.72,100c4.8,6,10.92,9.24,17.26,9.24h.18c6.46-.07,12.67-3.52,17.47-9.73,6-7.79,14-12.16,22.46-12.33,8.31-.17,16.32,3.8,22.48,11.15l2.36,2.82c4.82,5.75,11,8.88,17.16,8.75,6.36-.1,12.47-3.49,17.23-9.56l2.39-3.06c6.29-8,14.35-12.34,23.13-12.12Z"/><path d="M184.84,129.42c-.15,0,.15,0,0,0-6.47,0-13,3.38-17.86,9.57L164.59,142c-6,7.69-14,12-22.39,12.13h-.41c-8.16,0-16-3.94-22-11.15l-2.36-2.82c-4.83-5.77-11-8.88-17.22-8.75S87.68,135,82.93,141.16c-6.09,7.87-14.15,12.25-22.71,12.33H60c-8.41,0-16.38-4.16-22.48-11.74l-3.08-3.83c-5.06-6.29-11.68-9.56-18.39-9.21V122c8.86-.47,17.16,3.69,23.61,11.7l3.08,3.84c4.8,6,10.92,9.24,17.26,9.24h.18c6.46-.06,12.67-3.52,17.47-9.73,6-7.78,14-12.16,22.46-12.32,8.31-.18,16.32,3.79,22.48,11.14l2.36,2.82c4.82,5.75,11,8.88,17.16,8.76,6.36-.11,12.47-3.5,17.23-9.57l2.39-3.05c6.29-8,14.35-12.35,23.13-12.13Z"/></svg>