<svg id="Icons" xmlns="http://www.w3.org/2000/svg" viewBox="0 0 200 200"><defs><style>.cls-1{fill:#000201;}</style></defs><title>241-chateau-contour</title><path class="cls-1" d="M157,26.05H134.31a5.64,5.64,0,0,0-5.65,5.65v8.45H117.37v-8.5A5.64,5.64,0,0,0,111.72,26l-22.6,0a5.64,5.64,0,0,0-5.65,5.65v8.45H72.18v-8.5A5.64,5.64,0,0,0,66.53,26H43.89a5.64,5.64,0,0,0-5.65,5.64V74.4a5.64,5.64,0,0,0,5.65,5.65H59.4L48.22,167.94a5.62,5.62,0,0,0,1.36,4.45,5.71,5.71,0,0,0,4.25,1.92h93.26a5.65,5.65,0,0,0,5.61-6.37L141.52,80.05H157a5.64,5.64,0,0,0,5.64-5.65V31.7A5.76,5.76,0,0,0,157,26.05ZM145.2,167.84H55.6v0l2.81-22.28h13.4a6.3,6.3,0,0,0,0-12.59H60l1.61-12.59H87.56a6.3,6.3,0,1,0,0-12.59H63.23l4.11-27.7h66.07Zm9.1-96H46.54V31.34h18.3v8.5a5.64,5.64,0,0,0,5.65,5.65H85.08a5.64,5.64,0,0,0,5.65-5.65v-8.5H110v8.5a5.64,5.64,0,0,0,5.65,5.65h14.59a5.64,5.64,0,0,0,5.65-5.65v-8.5H154.3Z"/></svg>