<svg id="Icons" xmlns="http://www.w3.org/2000/svg" viewBox="0 0 200 200"><defs><style>.cls-1{fill:#000201;}</style></defs><title>242-fleur-lys</title><path class="cls-1" d="M169.59,92.69c-3.33-9.82-14.9-16-28.18-15.08a39.2,39.2,0,0,0-19.51,7l.12-.36c6.63-21.29-.9-33.25-8.88-45.91-3.56-5.66-7.25-11.51-10.09-18.66a2.79,2.79,0,0,0-5.19,0c-2.83,7.15-6.52,13-10.08,18.66C79.8,51,72.27,62.92,78.9,84.22c0,.12.07.24.11.36a38.94,38.94,0,0,0-19.5-7c-13.28-.91-24.86,5.26-28.19,15.07C28.58,100.77,29,108,32.59,114.23c4.59,7.94,13.49,12.22,19.71,13.46a2.62,2.62,0,0,0,.55,0,2.78,2.78,0,0,0,2.68-3.57c-2.86-9.87,1.23-15.56,5.61-17.43,1.51-.65,5.4-.77,9.3,1a15.28,15.28,0,0,1,7.63,7.62H75.43a2.8,2.8,0,0,0-2.8,2.8v14.3a2.8,2.8,0,0,0,2.8,2.8H87.91a1.88,1.88,0,0,0,0,.33l-.23,5.26a4.68,4.68,0,0,1-2.07,2.76,1.45,1.45,0,0,1-1,.14c-.7-.3-2-.86-1-4.25a2.8,2.8,0,0,0-.63-2.67,2.83,2.83,0,0,0-2.61-.85,14.14,14.14,0,0,0-9,6.19,11.05,11.05,0,0,0-.81,9.2,13.2,13.2,0,0,0,12.79,9.54,15.46,15.46,0,0,0,2.42-.19,16.53,16.53,0,0,0,3.62-1c-.2,5.75,2.31,9.77,4.77,13.69a42.21,42.21,0,0,1,3.87,7.13l0,0,.06.13a3.07,3.07,0,0,0,.17.31l.09.13a3.11,3.11,0,0,0,.23.28l.1.1a3.68,3.68,0,0,0,.38.31l.06,0a2.4,2.4,0,0,0,.39.2l.06,0,.09,0,.33.1.14,0a2.78,2.78,0,0,0,.94,0l.16,0,.3-.08.1,0,.08,0a1.7,1.7,0,0,0,.35-.19l.09-.05a2.56,2.56,0,0,0,.37-.3l.11-.11a2,2,0,0,0,.22-.27l.09-.13a3.07,3.07,0,0,0,.17-.31s0-.08.07-.13l0,0a41.87,41.87,0,0,1,3.86-7.13c2.46-3.91,5-7.92,4.77-13.66a15.94,15.94,0,0,0,3.54,1,15.46,15.46,0,0,0,2.42.19,13.2,13.2,0,0,0,12.79-9.54,11.05,11.05,0,0,0-.81-9.2,14.14,14.14,0,0,0-9-6.19,2.83,2.83,0,0,0-2.61.85,2.78,2.78,0,0,0-.62,2.67c1,3.4-.32,3.95-1,4.25a1.39,1.39,0,0,1-1-.14,4.64,4.64,0,0,1-2.06-2.76l-.24-5.26a1.88,1.88,0,0,0,0-.33h11a2.79,2.79,0,0,0,2.79-2.79V118.16a2.79,2.79,0,0,0-2.79-2.79h-1.22a15.26,15.26,0,0,1,7.63-7.63c3.91-1.77,7.8-1.65,9.31-1,4.37,1.88,8.46,7.56,5.6,17.43a2.79,2.79,0,0,0,3.23,3.52c6.23-1.24,15.13-5.52,19.71-13.46C171.91,108,172.34,100.76,169.59,92.69ZM92.5,41.27a147.07,147.07,0,0,0,8-13.72,148.57,148.57,0,0,0,8,13.73c7.9,12.54,14.14,22.44,8.27,41.27a57.07,57.07,0,0,1-3.89,8.72c-1.26,2.45-2.64,5.16-4.06,8.4a58.09,58.09,0,0,0-5.5,15.7H97.68a57.6,57.6,0,0,0-5.49-15.68c-1.42-3.26-2.81-6-4.07-8.42a57.87,57.87,0,0,1-3.89-8.71C78.36,63.72,84.6,53.82,92.5,41.27ZM72.74,102.65c-5.44-2.46-11-2.27-13.81-1C52.88,104.2,48,111,49.18,121c-4.33-1.7-9-4.8-11.75-9.51s-3-10.47-.82-17c2.52-7.42,11.78-12.06,22.5-11.3,9.92.7,21.25,6.28,28.16,19.2a103,103,0,0,1,4.56,13H84.08A21,21,0,0,0,72.74,102.65Zm12,52.55a7.76,7.76,0,0,1-9-5.53,5.5,5.5,0,0,1,.3-4.67,6.45,6.45,0,0,1,1.65-1.81,7.52,7.52,0,0,0,4.63,5.69,6.94,6.94,0,0,0,5.5-.17c1.67-.76,3.93-2.5,5.21-6.48a3,3,0,0,0,.14-.73l.25-5.66a3.69,3.69,0,0,0,0-.58h3.28a2.77,2.77,0,0,0-.78,2C96,148.38,90.39,154.29,84.76,155.2Zm17.47,15.19c-.56.89-1.15,1.83-1.73,2.82-.59-1-1.17-1.93-1.73-2.82-3-4.79-5.2-8.26-3.1-15a3.43,3.43,0,0,0,.09-.44,22.55,22.55,0,0,0,4.7-9.07,22.32,22.32,0,0,0,4.8,9.18,2.05,2.05,0,0,0,.07.34C107.43,162.13,105.25,165.6,102.23,170.39Zm5.5-28.89a3,3,0,0,0,.13.73c1.29,4,3.54,5.72,5.21,6.48a6.92,6.92,0,0,0,5.49.18,7.55,7.55,0,0,0,4.65-5.7,6.57,6.57,0,0,1,1.64,1.81,5.46,5.46,0,0,1,.31,4.67,7.76,7.76,0,0,1-9,5.53c-5.64-.91-11.27-6.82-11.15-18a2.8,2.8,0,0,0-.77-2h3.27a2.69,2.69,0,0,0,0,.57Zm13.54-11.83H78.21V121h43.05v8.71Zm42.21-18.24c-2.71,4.72-7.42,7.82-11.75,9.52C152.92,111,148,104.2,142,101.61c-2.85-1.23-8.39-1.43-13.83,1a21,21,0,0,0-11.33,12.72h-7.75a102.17,102.17,0,0,1,4.57-13c6.9-12.91,18.24-18.48,28.15-19.19,10.74-.77,20,3.89,22.5,11.3C166.51,101,166.23,106.67,163.48,111.43Z"/></svg>