<svg id="Icons" xmlns="http://www.w3.org/2000/svg" viewBox="0 0 200 200"><defs><style>.cls-1{fill:#000201;}</style></defs><title>243-question-livre</title><path class="cls-1" d="M102.7,98.17a9,9,0,0,1-8.49-12.09h0q1.61-4.44,6.56-9.84l8.44-8.68q5.42-6.11,5.41-13.11,0-6.75-3.54-10.57t-10.31-3.82q-6.57,0-10.56,3.47A11.4,11.4,0,0,0,86.3,51.3a1.71,1.71,0,0,1-1.7,1.57H76.11A1.72,1.72,0,0,1,74.39,51a21.34,21.34,0,0,1,7.35-15q7.32-6.41,19-6.41,12.18,0,19,6.53t6.8,17.91q0,11.25-10.44,22.18l-7,6.89-.11.11q-4.25,4.77-4.61,13.3a1.72,1.72,0,0,1-1.72,1.63ZM92,118.63a7.1,7.1,0,0,1,1.77-4.91,6.68,6.68,0,0,1,5.25-2,6.78,6.78,0,0,1,5.28,2,7,7,0,0,1,1.81,4.91,6.78,6.78,0,0,1-1.81,4.84A6.89,6.89,0,0,1,99,125.39a6.38,6.38,0,0,1-7-6.76Z"/><path class="cls-1" d="M159.08,63.18h0V47.88l-2.8-.21c-.25,0-6.19-.46-14.26-.46-2.52,0-4.93,0-7.24.13a41.8,41.8,0,0,1,.51,6c2.17-.07,4.4-.12,6.72-.12,4.6,0,8.53.15,11,.28v99c-1,0-2.08,0-3.37,0-23.11,0-38.68,2.39-46.56,7.13V133.73a18.5,18.5,0,0,1-4.12.45c-.68,0-1.32-.05-1.93-.11v25.54c-7.89-4.74-23.46-7.13-46.56-7.13-1.29,0-2.42,0-3.37,0v-99c2.48-.12,6.41-.28,11-.28,2.7,0,5.28.06,7.74.16a10.6,10.6,0,0,1-.22-3.08c.08-1,.2-2,.36-3q-3.77-.15-7.87-.15c-8.07,0-14,.45-14.26.46l-2.8.21v15.3H26.8V173.25H174.11V63.18Zm-126.23,104v-98h8.21v89.5l3.13-.11s2.46-.09,6.29-.09c28.71,0,43.35,4.25,46.06,8.67Zm70.74,0c2.71-4.42,17.34-8.66,46.06-8.66,3.83,0,6.26.08,6.29.09l3.13.11V69.22h9v98Z"/></svg>