<svg id="Icons" xmlns="http://www.w3.org/2000/svg" viewBox="0 0 200 200"><title>245-vimeo</title><path d="M183.63,61.77q-1.11,24.36-34,66.7-33.94,44.24-57.46,44.23-14.55,0-24.62-26.94-6.73-24.67-13.45-49.37-7.47-26.92-16-26.94-1.86,0-13.06,7.86L17.2,67.2Q29.53,56.36,41.5,45.49q16.44-14.24,24.67-15Q85.61,28.64,90.1,57.13,95,87.88,96.84,95.37q5.59,25.51,12.33,25.5,5.24,0,15.7-16.55t11.21-25.19q1.5-14.28-11.21-14.29a31.23,31.23,0,0,0-12.32,2.73q12.27-40.27,46.89-39.15Q185.11,29.17,183.63,61.77Z"/></svg>