<svg id="Icons" xmlns="http://www.w3.org/2000/svg" viewBox="0 0 200 200"><title>246-compas</title><path d="M85.17,87.35l-.23-.19-.12.38-.36.2.24.19L68.84,139l47-25.19.23.2.12-.39.36-.19-.24-.2,15.86-51.07ZM110,108.44a12.29,12.29,0,1,1-1.6-17.31A12.29,12.29,0,0,1,110,108.44Z"/><path d="M165.08,63.94c-15.34-27.11-46.79-41.66-77.37-36.46-30.38,5.17-55.19,30-60.32,60.38-5.23,30.92,9.77,62.69,37.39,77.81,30.92,16.93,69.62,9.21,92.48-17.26C176.54,124.27,180.51,91.21,165.08,63.94Zm-15.86,76.42c-16.94,19.61-43.28,28-68.25,20s-42.79-32.14-43.31-58.46S53.76,50.8,78.6,41.64a63.56,63.56,0,0,1,69.32,17.64C168.06,82.15,168,116.8,149.22,140.36Z"/></svg>