<svg id="Icons" xmlns="http://www.w3.org/2000/svg" viewBox="0 0 200 200"><title>247-case-a-cocher</title><path d="M174.78,56.44a6.47,6.47,0,0,0-2-4.7l-6.35-6.35a7.12,7.12,0,0,0-9.93,0L93.92,107.93q-17-17-34-34a5.62,5.62,0,0,0-7.85,0l-6.35,6.34a5.64,5.64,0,0,0,0,7.85L84,126.39a6.72,6.72,0,0,0,.63.78L91,133.52a7.13,7.13,0,0,0,9.94,0l52.22-52.21L157,77.47l15.8-15.79a6.49,6.49,0,0,0,2-4.71,2.09,2.09,0,0,0,0-.25A2.62,2.62,0,0,0,174.78,56.44Z"/><path d="M150.21,135.19a24.06,24.06,0,0,1-24,24H56.89a24.05,24.05,0,0,1-24-24V65.9a24.06,24.06,0,0,1,24-24h69.29a23.85,23.85,0,0,1,14.54,5L145.54,42a30.6,30.6,0,0,0-19.36-6.88H56.89A30.8,30.8,0,0,0,26.13,65.9v69.29A30.8,30.8,0,0,0,56.89,166h69.29A30.8,30.8,0,0,0,157,135.19V91.79l-6.74,6.74Z"/></svg>