<svg id="Icons" xmlns="http://www.w3.org/2000/svg" viewBox="0 0 200 200"><defs><style>.cls-1{fill:#000201;}</style></defs><title>248-loupe-zoom-in</title><path class="cls-1" d="M164.86,36.14a67.08,67.08,0,0,0-105.22,81.5l-42,42a4.19,4.19,0,0,0,0,5.93l17.78,17.78a4.19,4.19,0,0,0,5.93,0l42-42a67.08,67.08,0,0,0,81.5-105.22Zm-15.8,79a44.72,44.72,0,1,1,0-63.24A44.72,44.72,0,0,1,149.06,115.18Z"/><polygon class="cls-1" points="121.32 56.05 113.6 56.05 113.6 79.21 90.44 79.21 90.44 86.93 113.6 86.93 113.6 110.09 121.32 110.09 121.32 86.93 144.48 86.93 144.48 79.21 121.32 79.21 121.32 56.05"/></svg>