<svg id="Icons" xmlns="http://www.w3.org/2000/svg" viewBox="0 0 200 200"><title>251-maree-basse</title><path d="M184.18,93.38a4.63,4.63,0,0,0-4.33-3H155.19V24.6a4.6,4.6,0,0,0-4.61-4.6H101.37a4.61,4.61,0,0,0-4.61,4.6V90.36H72a4.61,4.61,0,0,0-3,8.14l54.27,45.44a4.6,4.6,0,0,0,5.93,0l53.54-45.44A4.61,4.61,0,0,0,184.18,93.38Zm-57.89,41L84.72,99.57h16.65A4.61,4.61,0,0,0,106,95V29.21h40V95a4.6,4.6,0,0,0,4.6,4.6h16.73Z"/><path d="M176.23,167.8,170,162.91a26.47,26.47,0,0,0-36.43.06l-.31.3a12.55,12.55,0,0,1-17.47-.14,26.53,26.53,0,0,0-36.52-.6l-1.49,1.39a12.66,12.66,0,0,1-17.12-.07l-1.34-1.27a26.6,26.6,0,0,0-36.37.13l-5,6.28a6.91,6.91,0,0,0,10.89,8.51l4-5.13a12.61,12.61,0,0,1,16.94.23l1.35,1.27a26.32,26.32,0,0,0,36.06.15l1.49-1.39a12.59,12.59,0,0,1,17.33.28,26.44,26.44,0,0,0,36.81.31l.32-.3a12.55,12.55,0,0,1,17.43.12l7.18,5.65a6.91,6.91,0,1,0,8.5-10.89Z"/><path d="M22.84,146.91a4.6,4.6,0,0,0,6.46-.79l2.54-3.26a7.87,7.87,0,0,1,10.54.15l.85.82a17,17,0,0,0,23.28.09l.95-.88a7.84,7.84,0,0,1,10.79.17,4.6,4.6,0,1,0,6.5-6.52,17.12,17.12,0,0,0-23.57-.39l-1,.89a7.9,7.9,0,0,1-10.66,0l-.85-.82a17.18,17.18,0,0,0-23.48.09l-3.2,4A4.59,4.59,0,0,0,22.84,146.91Z"/></svg>