<svg id="Icons" xmlns="http://www.w3.org/2000/svg" viewBox="0 0 200 200"><defs><style>.cls-1{fill:#000100;}</style></defs><title>252-shopping-sac</title><path class="cls-1" d="M155,72.43c-1.19-9.78-7.78-16.54-18.22-16.54h-9.3c-1.33-22.32-6.5-39.66-26.61-39.66-20.47,0-25.46,17.34-26.68,39.66H64.1c-10.43,0-17.2,7-18.22,16.54L34,165.47l0,.54c0,10.27,8.34,18.84,18.22,18.84h96.62c9.88,0,18.22-8.61,18.22-18.88L155,72.44ZM100.91,26.15c11.72,0,15.46,9.9,16.63,29.74H84.16C85.18,36.05,88.73,26.15,100.91,26.15Zm47.86,148.78H52.15c-4.34,0-8.15-3.92-8.3-8.62L55.8,72.74c.62-5.13,4.47-6.93,8.3-6.93h9.8c-.07,2.48-.07,8.61-.07,12.93a5,5,0,1,0,9.92,0c0-4.55,0-10.42.09-12.9h34.09c.1,2.48.13,8.43.13,12.93a5,5,0,1,0,9.91,0c0-4.22,0-7.94-.08-12.9h8.92c3.83,0,7.62,1.73,8.3,7l11.95,93.47c-.14,4.69-4,8.68-8.29,8.68Z"/></svg>