<svg id="Icons" xmlns="http://www.w3.org/2000/svg" viewBox="0 0 200 200"><title>253-enveloppe</title><path d="M180.42,63.12H77.82A3.91,3.91,0,0,0,74,67v69.79a3.91,3.91,0,0,0,3.86,3.86h102.6a3.55,3.55,0,0,0,2.61-1l.13-.12.08-.08a3.58,3.58,0,0,0,1-2.63V67A3.91,3.91,0,0,0,180.42,63.12ZM162.81,88.37l-33.56,25.77c-1.34,1-3.3.37-4.42-.57q-16-13.36-32.1-26.75c-3.62-3,1.57-8.14,5.15-5.16l29.63,24.69,31.61-24.28C162.85,79.21,166.48,85.55,162.81,88.37Z"/><path d="M59.56,66.25H20.16c-4.7,0-4.7,7.29,0,7.29h39.4C64.25,73.54,64.26,66.25,59.56,66.25Z"/><path d="M59.56,86.43H36.21c-4.7,0-4.7,7.3,0,7.3H59.56C64.25,93.73,64.26,86.43,59.56,86.43Z"/><path d="M59.56,105.89H47.64c-4.69,0-4.7,7.29,0,7.29H59.56C64.25,113.18,64.26,105.89,59.56,105.89Z"/></svg>