<svg id="Icons" xmlns="http://www.w3.org/2000/svg" viewBox="0 0 200 200"><defs><style>.cls-1{fill:#000201;}</style></defs><title>254-bateau-voilier</title><path class="cls-1" d="M86.4,22.53a3.91,3.91,0,0,0-3.48,3.9V136.94L20.2,141.52a3.9,3.9,0,0,0-3.6,4.18,3.83,3.83,0,0,0,.19.94l9.75,29.25a3.91,3.91,0,0,0,3.72,2.69h119a3.9,3.9,0,0,0,3.11-1.59l31.21-41a3.9,3.9,0,0,0-3.41-6.22l-89.42,6.52V131l72.53-7.07a3.89,3.89,0,0,0,2.68-6.34L89.87,23.94A3.91,3.91,0,0,0,86.4,22.53Zm4.33,14.88,64.55,79.48-64.55,6.22Zm-18,37.79A3.91,3.91,0,0,0,70,76.84L32.94,129.51a3.9,3.9,0,0,0,3.6,6.09l37.06-3.9a3.89,3.89,0,0,0,3.47-3.84V79.1a3.89,3.89,0,0,0-3.87-3.93ZM69.27,91.35v33l-25,2.62ZM172.1,138.16l-24.81,32.61H33.12l-7.31-21.88Z"/></svg>