<svg id="Icons" xmlns="http://www.w3.org/2000/svg" viewBox="0 0 200 200"><defs><style>.cls-1{fill:#000100;}</style></defs><title>255-pinceau</title><path class="cls-1" d="M75.86,148.29a15,15,0,0,1,3.44,9.32c.59,7.82-4.25,14.59-10.9,19.09S52.74,184.17,43,184.91A62.86,62.86,0,0,1,18.8,182a3.46,3.46,0,0,1-2.39-3.4A3.66,3.66,0,0,1,19,175.36c5.62-2.06,9.24-5.91,13.83-12s9-13.1,14.1-18.27c3.36-3.43,7.23-6.21,12.08-6.63,5.8-.4,12.41,4.05,16.87,9.85M69,150.83l.09.11M175.84,17.79a3.29,3.29,0,0,0-4.54.23L71.92,123.19a3.51,3.51,0,0,0-.76,2.45,3.55,3.55,0,0,0,1,2.21l17.5,15a3.54,3.54,0,0,0,4.65-.47l89.5-113.65a3.28,3.28,0,0,0-.45-4.52Z"/></svg>