<svg id="Icons" xmlns="http://www.w3.org/2000/svg" viewBox="0 0 200 200"><defs><style>.cls-1{fill:#201d1d;}</style></defs><title>256-caddy</title><path class="cls-1" d="M165.54,59.75l-23.53,57H87.34q-11-44.49-21.94-89C64.45,24,61.29,20,56.9,20H26.83C14.6,20,12.73,39,25,39h23.5q11,44.49,21.94,89c1,3.85,4.11,7.85,8.5,7.85h68.54c4.47,0,8.1-1.93,9.86-6.19q13-31.62,26.09-63.23C188.17,55,170.22,48.41,165.54,59.75Z"/><circle class="cls-1" cx="84.52" cy="164.55" r="16.58"/><circle class="cls-1" cx="147.75" cy="164.55" r="16.58"/><circle class="cls-1" cx="84.74" cy="59.09" r="4.86"/><circle class="cls-1" cx="105.08" cy="59.09" r="4.86"/><circle class="cls-1" cx="126.74" cy="59.09" r="4.86"/><circle class="cls-1" cx="103.75" cy="101.54" r="4.86"/><circle class="cls-1" cx="125.42" cy="101.54" r="4.86"/><circle class="cls-1" cx="95.79" cy="80.76" r="4.86"/><circle class="cls-1" cx="116.13" cy="80.76" r="4.86"/><circle class="cls-1" cx="137.8" cy="80.76" r="4.86"/><circle class="cls-1" cx="149.29" cy="59.09" r="4.86"/></svg>