<svg id="Icons" xmlns="http://www.w3.org/2000/svg" viewBox="0 0 200 200"><defs><style>.cls-1{fill:#000201;}</style></defs><title>257-verres</title><path class="cls-1" d="M65.52,162c-5.83-1.93-17.46-7.55-17-12.84l5.83-21.66c16.2,1.84,34-17,41.43-44.79A95.13,95.13,0,0,0,98.3,70.21a2.85,2.85,0,0,0-2.09-3.12L43,52.77a2.85,2.85,0,0,0-3.37,1.66,94.36,94.36,0,0,0-4.13,12c-7.46,27.76-1.57,53,13.37,59.54l-5.83,21.66c-2.21,4.81-15.09,3.84-21.11,2.59a4,4,0,0,0-2,7.83l43.37,11.66a4,4,0,0,0,2.2-7.76ZM44,59l48.31,13a89.92,89.92,0,0,1-2,9.27,88.61,88.61,0,0,1-3.59,10.57c-3.52.07-12.17-.49-23.14-6.44-11.39-6.19-19.92-7-24.7-6.84A87.38,87.38,0,0,1,41,68,89.25,89.25,0,0,1,44,59Zm-5.7,25.3c3.49-.29,11.37,0,22.59,6.11a62.48,62.48,0,0,0,13.51,5.47,48,48,0,0,0,9.76,1.62c-8.31,16.47-20.79,26.77-31.07,24C42.62,118.64,37,103.06,38.27,84.25Z"/><path class="cls-1" d="M132.65,166.91a4,4,0,0,0,4.95,2.84L181,158.09a4,4,0,0,0-2-7.83c-6,1.25-18.89,2.22-21.1-2.59L152,126c14.94-6.54,20.83-31.78,13.36-59.54a92.79,92.79,0,0,0-4.12-12,2.85,2.85,0,0,0-3.37-1.66l-53.2,14.32a2.85,2.85,0,0,0-2.09,3.12A95.13,95.13,0,0,0,105.1,82.7c7.46,27.75,25.23,46.63,41.43,44.79l5.83,21.66c.5,5.29-11.13,10.91-17,12.84A4,4,0,0,0,132.65,166.91Zm27.24-99A87.38,87.38,0,0,1,162,78.5c-4.78-.21-13.31.65-24.71,6.84-11,6-19.62,6.51-23.14,6.44a88.59,88.59,0,0,1-3.58-10.57,89.92,89.92,0,0,1-2-9.27L157,59A89.25,89.25,0,0,1,159.89,68Zm-12,53.5c-10.28,2.77-22.76-7.53-31.08-24a48,48,0,0,0,9.77-1.62,62.48,62.48,0,0,0,13.51-5.47c11.22-6.09,19.09-6.4,22.59-6.11C163.94,103.06,158.3,118.64,147.86,121.45Z"/><path class="cls-1" d="M101,60.09a1.73,1.73,0,0,0,.14-.44l12.83-28.46L99.82,54.9,94,35.6,96.9,55.5,69.2,36.25,97.74,60.41a1.73,1.73,0,0,0,.6.57,1,1,0,0,0,.13.09h0l.07,0a1.74,1.74,0,0,0,2.23-.63l0,0a0,0,0,0,0,0,0A1.73,1.73,0,0,0,101,60.09Z"/></svg>