<svg id="Icons" xmlns="http://www.w3.org/2000/svg" viewBox="0 0 200 200"><defs><style>.cls-1{fill:#201d1d;}.cls-2{fill-rule:evenodd;}</style></defs><title>258-elevation</title><path class="cls-1" d="M167.5,82.82h0A5.25,5.25,0,0,0,162.26,88L162,120.64,81.39,40A5.24,5.24,0,0,0,74,40h0a5.24,5.24,0,0,0,0,7.42l81,81-33.06-.22a5.24,5.24,0,0,0-5.28,5.24h0a5.25,5.25,0,0,0,5.21,5.25l45.43.31a5.25,5.25,0,0,0,5.28-5.25V128.5h-.06l.27-40.4A5.24,5.24,0,0,0,167.5,82.82Z"/><path class="cls-2" d="M106.65,140.56V128.15a10,10,0,0,1,10-10h0a2,2,0,0,0,1.42-3.38L30.4,27.06a2,2,0,0,0-3.49,1.45V174.12H172a2.28,2.28,0,0,0,1.61-3.9l-18.35-18.35a10.53,10.53,0,0,0-7.38-3.08l-33.24-.23A8,8,0,0,1,106.65,140.56Z"/></svg>