<svg id="Icons" xmlns="http://www.w3.org/2000/svg" viewBox="0 0 200 200"><defs><style>.cls-1{fill:#000201;}</style></defs><title>259-recyclage</title><path class="cls-1" d="M70.12,107.22l6.63,4.06c1.12,0,1.68-.46,1.68-1.39a6.24,6.24,0,0,0-.79-2.47L63,79.9l-32.47.79A2,2,0,0,0,28.34,83c0,.33.46.79,1.39,1.38l6.73,4.06L29.33,99.5q-3,4.75-3,7.82a12.86,12.86,0,0,0,2,6.24l22.08,38.5a32.67,32.67,0,0,1-.79-6.93,20.83,20.83,0,0,1,3.66-11.48Z"/><path class="cls-1" d="M96.84,56.54Q86.64,33.28,75.16,33.27c-4.62,0-7.71,1.29-9.3,3.86L48.63,64.66l30,20.09Z"/><path class="cls-1" d="M57.25,136.72A22.39,22.39,0,0,0,54.68,147q0,14.16,9.1,14.16H98.92V124.64H65.07A122,122,0,0,0,57.25,136.72Z"/><path class="cls-1" d="M151.78,51.69a5.69,5.69,0,0,0,.8-2.87c0-1.19-.4-1.79-1.19-1.79a7,7,0,0,1-1.58.6l-7.13,3.27-6.53-13q-4.36-8.72-17.43-8.71H78q7.42,2.28,10.09,4.45,6.24,4.95,12.77,18.61l8.12,17-6,2.87a1.56,1.56,0,0,0-.89,1.58c0,1,.63,1.56,1.88,1.69L136.15,78Z"/><path class="cls-1" d="M163.57,122.07q-4.75,1.59-13.57,1.59H124.66v-5.25c0-2-.5-3.07-1.49-3.07a1.74,1.74,0,0,0-1.58.79l-16,27.82,16.63,25.54q1.88,2.87,3.26,2.27c.92-.26,1.39-.75,1.39-1.48v-8.71H140.9q7.71,0,10.88-5.84l22.77-41.38A25.48,25.48,0,0,1,163.57,122.07Z"/><path class="cls-1" d="M141.89,118.41H157q5.44,0,11.29-4.75,6.23-4.95,6.23-10.5a8.94,8.94,0,0,0-1.68-5l-18-27.51-31,18Z"/></svg>