<svg id="Icons" xmlns="http://www.w3.org/2000/svg" viewBox="0 0 200 200"><defs><style>.cls-1{fill:#000100;}</style></defs><title>260-ski-02</title><path class="cls-1" d="M142,149.73a4.73,4.73,0,0,0-6.45,1.56A5.67,5.67,0,0,1,132,153.9a6.35,6.35,0,0,1-4.46-.64L98.19,135.51l19.12-24.94a6.72,6.72,0,0,0,.25-7.76l-2.6-3.9L95.05,94.68l8.88,11.56L86.76,128.53l-36.38-22a4.69,4.69,0,1,0-4.9,8l77,46.68.88.47a15.28,15.28,0,0,0,20.09-5.55A4.39,4.39,0,0,0,142,149.73Z"/><circle class="cls-1" cx="143.94" cy="51.38" r="11.36"/><path class="cls-1" d="M56.5,86.48a2.9,2.9,0,0,0,3.4-2.17l.12-.78L136.38,100a40.18,40.18,0,0,0,5.23.77,4.08,4.08,0,0,0,2.54-1.34A4.77,4.77,0,0,0,144,92.7L130.84,79.89l3.88-16.57h0a15.18,15.18,0,0,1-5.66-13.67,12.77,12.77,0,0,0-10.21-.42c-12.14,4.07-32.33,17.88-35,23.07-1.57,3,.42,7.27,2.91,11.12L61.24,78l.13-.78A2.85,2.85,0,1,0,55.81,76l-.13.78-1.17-.19a2.87,2.87,0,0,0-3.39,2.17,2.91,2.91,0,0,0,1.45,3.15,1.58,1.58,0,0,0,.72.24l1.17.19-.13.78a2.94,2.94,0,0,0,1.45,3.15C56,86.36,56.28,86.36,56.5,86.48Zm65.71-11.11-1.15,4.89a4.67,4.67,0,0,0,1.31,4.5l8.39,8.2-23-5-2.18-3.11C110.81,82.08,117,78.68,122.21,75.37Z"/></svg>