<svg id="Icons" xmlns="http://www.w3.org/2000/svg" viewBox="0 0 200 200"><defs><style>.cls-1{fill:#000201;}</style></defs><title>261-ski-03</title><path class="cls-1" d="M134.2,55.5a10,10,0,1,0,9.13-10.79A10,10,0,0,0,134.2,55.5Z"/><path class="cls-1" d="M183.49,148.72h-3.78v2a1.72,1.72,0,0,1-2,1.85H146.64L168.49,92a4.91,4.91,0,0,0,.73-9.78l-15.77-2-14.3-13.49c-3.32-4.91-12.3-6.18-15.78-2.1-2.26,2.65-7.63,8.79-7.63,8.79l-13.4,15.78a10.64,10.64,0,0,0-2.54,8,10.86,10.86,0,0,0,3.81,7.49l23.47,20.47-6.26,21.11a6.1,6.1,0,0,0,1.07,6.26H58.25v3.8H179.18C184.36,155.74,183.49,148.72,183.49,148.72ZM131,152.61a3.91,3.91,0,0,0,.45-.54,6.78,6.78,0,0,0,.61-1.2l7.63-25.08s1.49-4.89-1.91-8.23l-16.75-18,16.26-19.25,10.24,9.21,18.58,2.31-21.94,60.81Z"/><path class="cls-1" d="M61.61,123.7a7.84,7.84,0,0,0,1.32.3l26.17,1.28s2.42.23,5.92-3.25c3.84-3.84,9.38-10.32,10.31-11.41l-3.86-3.36a14,14,0,0,1-4.68-8L86.58,112.9l-22-.92A6.16,6.16,0,0,0,58,116,6,6,0,0,0,61.61,123.7Z"/><path class="cls-1" d="M18.85,103.21l-1.48,3.49,111.36,47.18c5,1.41,7-5.4,7-5.4L132.21,147l-.79,1.88a1.73,1.73,0,0,1-2.52.94l-28.66-12.14Z"/></svg>