<svg id="Icons" xmlns="http://www.w3.org/2000/svg" viewBox="0 0 200 200"><defs><style>.cls-1{fill:#000100;}</style></defs><title>262-raquette-ski-02</title><path class="cls-1" d="M168,49.14c-4.12-12.84-12.68-20.26-25.37-22.56-.16,0-.33-.17-.49-.33h-3.79a64.61,64.61,0,0,0-8.07,2.14c-7.25,2.8-13,7.74-18,13.83a77.72,77.72,0,0,0-11.7,20.26c-1.48-3-2.63-5.93-4.28-8.89-4.77-9.22-11-17-19.6-22.4A28.16,28.16,0,0,0,64.4,26.58c-.16,0-.33-.17-.49-.33H59.46c-.17.16-.5.16-.66.33-9.72,1.64-17.62,6.59-22.56,15.31-7.25,12.69-6.92,25.7.16,38.22,7.58,13.34,18.12,24,30.14,32.77,5.44,4,11.2,7.08,16.8,10.71,2.14,1.32,4.12,2.8,6.09,4.28a143.68,143.68,0,0,1-18.94,38.38A6.34,6.34,0,0,0,69,169.87c-.33,3.62,1.32,5.76,5.11,4.61,2.47-.66,3.95-2.63,5.1-4.78,2.47-4.77,4.94-9.38,7.58-14a104.15,104.15,0,0,1,13.34-18.28l.49.5c7.25,7.74,12.85,16.8,17.79,26.18,1.32,2.64,2.64,5.28,4.28,7.91,1.82,3.13,5.93,3.79,8.08,1.32,1.81-2,1.64-5.27-.17-7.91A142.69,142.69,0,0,1,112,128.69c-.33-1.15-.17-1.81.82-2.3,2.8-1.81,5.44-3.79,8.4-5.44a117.94,117.94,0,0,0,37.23-32.11c4-5.28,7.57-10.55,9.55-17a80.58,80.58,0,0,0,2-9.22V57.71C169.15,54.58,168.82,51.78,168,49.14ZM121.72,94.93c-2,1.65-4,2.31-5.93.16a3.69,3.69,0,0,0-1.32-.82c.16-1.32.33-2.47.49-3.79.33-1.64,3-3,4.29-2.14.33.33.82.5,1.15.82,2.63,1.65,2.63,1.82,2,5C122.21,94.27,121.88,94.76,121.72,94.93Zm.33,1c-.17,1.15-.33,2-.5,3-.82-.49-1.32-.82-2.14-1.32A14.31,14.31,0,0,1,122.05,95.92ZM113,97.4c-.17,1-.33,2-.5,3.13-1.81-1.15-3.29-2.14-4.94-3.29a2,2,0,0,1,.17-3.3c1-.49,1.81-2,3.46-.82C113.32,94.76,113.32,94.76,113,97.4Zm.16,18.12c-1.48,1-2.63,2-4.12,3-.32-2-.49-3.79-.65-5.43.16,0,.33-.17.49-.17C110.19,113.71,111.51,114.53,113.15,115.52ZM151.36,48c1.49-.33,3-.66,4.29-.82a2.27,2.27,0,0,1,2.8,2.14,25,25,0,0,0,.65,3.46C154.49,54.58,151,52.44,151.36,48Zm7.91,5.76c.16,1,.33,1.82.49,3-1.31-.83-2.14-1.48-3.46-2.31C157.46,54.25,158.28,53.92,159.27,53.75Zm-5.93,0a.63.63,0,0,1-.16.5c-.33-.17-.83-.33-1.16-.5,0-.16.17-.33.17-.49A8.25,8.25,0,0,1,153.34,53.75ZM151,47c-.16-1.32-.49-2.47-.82-4.12,1.81,1.16,3.13,2,4.94,3.13A20.43,20.43,0,0,1,151,47Zm-14.49,4.45c0-.17.16-.33.16-.5,2-.33,3.79-.82,5.93-1.31.5,2.14.83,4.11,1.32,6.58C141.32,54.58,139,53.09,136.54,51.45ZM140,83.56a21.88,21.88,0,0,1,1.32-2.8C142.47,81.59,142.14,82.41,140,83.56Zm2.47-34.91c-1,.16-2,.49-3,.66s-2,.33-3.12.49c-.5-2-.83-3.95-1.32-5.93C138.19,43.21,142.3,45.68,142.47,48.65Zm-7.91-6.26c.17-.17.17-.33.33-.5.33.17.66.5,1,.66a.16.16,0,0,1-.16.17A4.46,4.46,0,0,1,134.56,42.39Zm9.23,7.25c3.13-1,7.41,1.48,7.41,4.77-1,.17-2,.5-3,.66s-2,.33-3.29.66C144.45,53.59,144.12,51.61,143.79,49.64Zm-.5-1.65c.17-.17.17-.33.33-.5.33.17.66.5,1,.66,0,.17-.16.17-.16.33A7.93,7.93,0,0,1,143.29,48Zm7.41,2.8c-1.15-.66-2-1.32-3.12-2a10,10,0,0,0,2.63-.66C150.38,49,150.54,49.8,150.7,50.79Zm-8.23-8.24c1.65-.33,3.46-.82,5.11-1,.82-.17,1.64.32,1.81,1.64s.49,2.64.66,4.12C144.78,48.32,142.8,47,142.47,42.55Zm-.33-1c-.33-1.49-.66-2.8-1-4.45,1.81,1.15,3.46,2.3,5.44,3.46A45,45,0,0,1,142.14,41.57Zm-.82,1.15c.16.82.33,1.48.49,2.47-1-.66-2-1.15-3.13-2C139.83,43.05,140.49,42.88,141.32,42.72Zm-7.58-5.6c1.81-.33,3.62-.82,5.44-1a1.49,1.49,0,0,1,1,1,41.24,41.24,0,0,1,1,4.45C136.54,43.05,134.23,41.73,133.74,37.12Zm1.81,13-.33.33a65.46,65.46,0,0,1-7.08-4.61c.16-.17.16-.33.33-.66,2-.33,3.79-.82,5.93-1.15A36.23,36.23,0,0,0,135.55,50.13Zm-3.29,38.21c-2.14,1.32-3.63,2.31-5.27,3.13-1,.49-3.3-1.32-3.13-2.47.16-1.48.49-3,.66-4.61.33-1.81,1.48-2.31,2.8-1.15C129.13,84.88,130.45,86.53,132.26,88.34Zm-8.57,2.8a21.25,21.25,0,0,0,2,1.32c-1,.49-1.65,1-2.47,1.48A19.24,19.24,0,0,0,123.69,91.14ZM123,89.49l-4-2.47c1.65-1,3-1.81,4.78-2.8C123.53,86.2,123.36,87.68,123,89.49Zm.5-6.25c-1.65,1-3.13,2-4.78,3-.82.49-3-1-2.8-2,.33-1.81.66-3.78,1-6.09,2.47,1,4.61,1.81,6.59,2.63A1.41,1.41,0,0,1,123.53,83.24ZM115.62,86a18.91,18.91,0,0,1,1.65,1,18.38,18.38,0,0,1-2,1.32C115.46,87.35,115.46,86.69,115.62,86ZM115,84.39c-1.64-1-3-1.81-4.61-3,1.81-1.15,3.46-2.14,5.6-3.29C115.46,80.44,115.29,82.25,115,84.39Zm-1.31-11c-1-.66-2-1.31-3.13-2,2.47-1.49,4.77-3,7.08-4.29l.49.5A53.77,53.77,0,0,0,113.65,73.35ZM109,70.88c.5-3.62,1-6.75,1.49-10,2.47,1.64,4.77,3,7.24,4.61C115,67.26,112.16,68.91,109,70.88ZM113,74c-.83,1.32-1.48,2.47-2.47,4.12,1.15,0,2,.16,3.13.16a21.05,21.05,0,0,1-4.12,2.31c-.5.16-1.81-.82-1.81-1.32.16-2.47.66-4.94,1.15-7.9C110.52,72.53,111.67,73.19,113,74Zm-4.78,7.25c-.16.33-.49.49-.66.82l-.33-.33c.17-.33.33-.49.5-.82C107.88,81.09,108.05,81.09,108.21,81.26ZM106.89,79c-2.14-.33-2.47-2.14-2.63-4,1.15-.66,2.14-1.32,3.46-2.14C107.39,75,107.22,77,106.89,79Zm-.16,1.32c-.17,1-.33,1.81-.5,2.64h-.32c-.17-1.16-.5-2.15-.83-3.63A15,15,0,0,1,106.73,80.27Zm.16,4.45c.5-2.31,2-3,4-1.81,1,.65,2.14,1.31,3,2,.33.33.66.83,1,1.16-.33,1.31-.33,2.47-.82,3a13.18,13.18,0,0,1-3.79,2.31c-1.16.49-4-2.47-3.79-3.79C106.56,86.53,106.73,85.71,106.89,84.72ZM109.2,92a19.53,19.53,0,0,0-2.31,1.49c0-1.16-.16-2-.16-3.13A12.48,12.48,0,0,0,109.2,92Zm1.65.17c1.15-.66,2-1.15,3.13-1.81-.17,1.32-.33,2.3-.5,3.46A10.1,10.1,0,0,0,110.85,92.13Zm3.29,3.13a38.3,38.3,0,0,1,3.29,2.14c-1.31.82-2.47,1.48-4,2.47C113.81,98.06,114,96.74,114.14,95.26Zm9.39-.17a6.82,6.82,0,0,1,3.13-2c.82-.33,4.12,2.8,4.12,3.46,0,2.8-2.15,6.09-4,5.43a8.73,8.73,0,0,1-4.28-3.46C122.21,98.06,122.87,95.92,123.53,95.09Zm4-2.63c1.48-1,2.8-1.65,4.28-2.64-.33,1.82-.49,3.3-.66,4.94C130,93.94,128.8,93.28,127.48,92.46Zm4.28,4c.83.5,1.49,1,2.47,1.48-1,.66-1.81,1.16-3,2C131.43,98.55,131.6,97.56,131.76,96.41Zm1.16-5.6c.33,1.32.82,2.47,1.15,3.63.16,0,.33.16.49.16,1-1.65,1.82-3.29,2.8-4.94a14.08,14.08,0,0,1,1.65,1c1.81,1.15,1.81,3.29-.16,4.44-.83.5-1.82,1.16-2.64,1.65-.49.17-1.15.33-1.48,0C131.76,95.59,131.43,94.27,132.92,90.81Zm4.77-2.14c1-2,1.49-4.12,4-4.61l-1,6.42C139.5,89.82,138.68,89.33,137.69,88.67Zm3.63,3.62a9.77,9.77,0,0,1,1.15.66,12.63,12.63,0,0,1-1.32,1A4.5,4.5,0,0,1,141.32,92.29Zm.82-.82a3.9,3.9,0,0,1-.49-2c.16-1.64.49-3.29.82-4.94.33-2,1.15-2.47,2.8-1.48,1.48.82,2.8,1.81,4.28,2.8a10.4,10.4,0,0,1,1.15,1.32c-.49.66-.82,1.48-1.48,1.81-1.48,1-3.13,1.81-4.61,3A1.81,1.81,0,0,1,142.14,91.47Zm8.4-6.26c-1.81-1.15-3.46-2.3-5.44-3.46,2.31-1.31,4.29-2.63,6.59-4C151.2,80.27,150.87,82.58,150.54,85.21Zm-5.93-4.28c-.82.49-1.65,0-1.48-.82.33-3,1-5.77,1.48-9.06,2.8,1.81,5.27,3.29,7.91,5.1C149.88,77.64,147.25,79.28,144.61,80.93Zm.17-24.21c2.47-.5,4.44-1,6.58-1.32.33,2.14.66,4.12,1.16,6.42C150.05,60,147.58,58.53,144.78,56.72Zm7.57-1.32c3-1.15,7.74,1.65,7.74,4.61-2.14.5-4.44.83-6.75,1.32A36,36,0,0,0,152.35,55.4Zm7.74-2.8c-.16-1.15-.49-2.31-.66-3.79,1.49,1,2.8,1.81,4.12,2.8,0,.17-.16.33-.16.5C162.23,52.27,161.25,52.44,160.09,52.6Zm2.47-3.29c-.16,0-.16.16-.33.16a21.67,21.67,0,0,1-2.47-1.65,2.85,2.85,0,0,1-.82-1.15,1.29,1.29,0,0,1,.66-.66c.49,0,1.32,0,1.48.33A8.43,8.43,0,0,1,162.56,49.31Zm-4.11-7.58c.65,1,1.48,2.14,2.14,3.29-.66.17-1.16.33-1.65.5-.17-1.32-.49-2.47-.66-3.63A.16.16,0,0,1,158.45,41.73ZM157,40.58c.33,1.64.66,3.46,1,5.43-3.29-.82-5.43-3-8.07-4.44a.6.6,0,0,1,.17-.5c2-.33,3.95-.82,5.93-1.15C156.3,39.92,157,40.25,157,40.58Zm-1.48-2.14v.49c-1.81.33-3.79.66-5.76,1.15-.33-2-.66-3.62-1-5.93C151.2,35.64,153.34,37.12,155.48,38.44Zm-6.59,1.64c-.16.17-.33.33-.33.5-2.47-1.49-4.94-3.13-7.74-4.78,2.64-.49,4.78-1,7.08-1.32C148.23,36.3,148.56,38.27,148.89,40.08Zm-2.3-6.91v.33c-1.81.49-3.79.82-5.77,1.31a20.79,20.79,0,0,0-.66-3.13C142.47,32.18,144.61,32.67,146.59,33.17Zm-11-1.16c1.15-.16,2.31-.16,3.63-.33.16,1,.49,2,.65,3.46-1.64-1-3-1.81-4.44-2.8C135.55,32.34,135.55,32.18,135.55,32Zm2.8,3.13c-2,.33-3.46.66-4.94,1-.16-1-.49-2.14-.82-3.46C135.06,32.34,136.21,34.32,138.35,35.14Zm-5.1,4.45c-1.16-.66-1.82-1.15-3-1.81,1-.17,1.65-.17,2.31-.33C132.75,38.11,132.92,38.6,133.25,39.59Zm-1.49-6.42a22.55,22.55,0,0,1,.66,3.29c-2,.66-3.79,1.15-5.6-1C128.63,34.65,130.12,33.82,131.76,33.17Zm2.14,10c-2,.33-4,.83-5.92,1.16-.33-2-.83-3.79-1.16-5.6C129.29,37.61,133.25,39.92,133.9,43.21Zm-8.56-6.75c.16.49.33.82.49,1.32-1,.16-1.64.33-2.47.49a.16.16,0,0,0-.16-.16A10.52,10.52,0,0,1,125.34,36.46ZM126,38.6c.33,2,.66,3.79,1.15,5.93-.49,0-1.15.16-1.48-.16-2-1.16-3.79-2.48-5.77-3.63C121.72,38.93,123.86,39.26,126,38.6Zm-5.77,16.8c2,1.15,3.79,2.47,6.1,4-2.47,2-4.78,3.79-7.08,5.77-.17-.17-.33-.17-.33-.33.49-3.13.82-6.26,1.31-9.39a.72.72,0,0,1-.82,0c-.49,3-1,5.93-1.48,9.06C115.62,63,113.48,61.66,111,60c2.8-1.64,5.6-3.29,8.24-4.77A1,1,0,0,1,120.23,55.4Zm-1.48-1c-2.63,1.48-5.1,3-7.9,4.45.49-3,.82-5.77,1.31-8.73C114.31,51.61,116.45,52.93,118.75,54.41Zm-8.07-2s.17,0,.17.16c-.33,2.14-.66,4.28-1,6.75-.83-.49-1.48-1-2.14-1.31C108.71,56.06,109.69,54.25,110.68,52.44Zm-3.46,6.25A10.39,10.39,0,0,1,109,59.85l-3.12,1.81A16.37,16.37,0,0,0,107.22,58.69ZM109.53,61c-.5,3-.82,5.77-1.32,8.89-1.48-1-3-1.81-4.12-2.63C104.42,63.47,106.73,62.15,109.53,61Zm-5.77,7.08c1.49,1,3,2,4.78,3.13-1.65,1-3,1.81-4.45,2.8C103.6,72,102.28,70.22,103.76,68.08Zm-.16,49.58a22.76,22.76,0,0,0-2.14-1.32,14.42,14.42,0,0,0,1.48-1.65A16.18,16.18,0,0,1,103.6,117.66Zm-3.29-35.41c.16,1.15.32,1.81.49,2.63C99.81,84.72,99.81,84.72,100.31,82.25Zm-1.16,8.07c.17-.66.17-1.48.33-2.14.17-.33.5-.83.83-.83s.65.5.82.83a25.16,25.16,0,0,1,.33,3.46,1.49,1.49,0,0,1-1,1,1.41,1.41,0,0,1-1.15-1c-.33-.33-.17-.83-.17-1.32Zm1,17.29c.66,0,2,1,2,1.48a33.59,33.59,0,0,1-1.16,5.6c0,.33-.49.5-.82.83a4.22,4.22,0,0,1-.82-1,25.53,25.53,0,0,1-1.16-5.11A3.59,3.59,0,0,1,100.14,107.61Zm.66,17c-.17,0-.33.16-.49.16v-1.48h.32A2,2,0,0,0,100.8,124.58Zm-12.52-24c-.33-2-.66-4-1-5.77.33-.32.83-.49,1.16-.82,2.14-1.48,2.8-1.32,4.94.33a2.47,2.47,0,0,1,0,3C91.74,98.39,90.09,99.38,88.28,100.53Zm4.12,12c-.17,2.14-.17,4-.33,6.26-1.65-1.15-3-2.14-4.45-3.29C89.11,114.69,90.42,113.71,92.4,112.55ZM79.72,95.42a5.84,5.84,0,0,1-1.81-4.61c0-.16,0-.33.16-.33,1.48-1,3-1.81,4.28-2.8,1,0,3.3,2,3.46,3,.66,3.79.66,3.79-2.63,5.6a2.35,2.35,0,0,1-1.82,0A5.27,5.27,0,0,1,79.72,95.42Zm1.48,2c-.66.49-1.32.82-2.14,1.48a17.53,17.53,0,0,1-.33-3C79.72,96.41,80.38,96.91,81.2,97.4ZM59.13,84.06c2.47.49,3,2.63,3.95,4.61-1,.66-1.81,1.15-2.8,1.81C59.79,88.34,59.46,86.2,59.13,84.06Zm.66,9.72A11.51,11.51,0,0,1,58.31,93a3,3,0,0,1,.82-.66A13.61,13.61,0,0,1,59.79,93.78Zm25-15.65c2,1.15,3.63,2.14,5.6,3.29-1.64,1-3,2-4.61,3C85.48,82.25,85.15,80.44,84.82,78.13Zm.66,10.05c-.66-.5-1.32-.66-2-1.16A9.75,9.75,0,0,0,85,85.87C85.15,86.86,85.32,87.35,85.48,88.18ZM83.34,66.93c2.31,1.32,4.61,2.8,6.92,4.28-1.15.66-2.14,1.32-3.13,2C85.81,71.21,83.83,69.73,83.34,66.93ZM86.8,84.88c1-.66,2.14-1.32,3.13-2a2.37,2.37,0,0,1,3.79,1.81c.16.49,0,.82.16,1.32.5,3.29.5,3.12-2.14,4.94a1.76,1.76,0,0,1-2.31,0,3.58,3.58,0,0,0-1.31-.83c-1.81-.66-2-2.14-2.14-4.28A2.41,2.41,0,0,1,86.8,84.88Zm5.6-4.77a2,2,0,0,1-1.65.33,22.42,22.42,0,0,1-3.29-2v-.33h2.8c-.83-1.48-1.65-2.8-2.47-4.12,1-.66,1.81-1.15,2.8-1.81.82-.66,1.32-.49,1.48.66.33,2,.66,4,.82,5.76A2.64,2.64,0,0,1,92.4,80.11Zm-9.72-14.5C85.15,64,87.46,62.48,89.93,61c.49,3.29,1,6.42,1.48,10A95.4,95.4,0,0,0,82.68,65.61Zm1.15,12.52c.33,2.47.66,4.28.83,6.09.16,1.16-2,2.31-3,1.82-1.48-.83-3.13-1.82-4.61-2.8a1.32,1.32,0,0,1,0-2.48C79.22,79.78,81.36,79.12,83.83,78.13Zm-6.91,6.09c1.64,1,3.13,2,4.77,2.8l-4,2.47C77.41,87.68,77.08,86,76.92,84.22Zm.33,9.56c-.83-.5-1.49-.83-2.31-1.32a20,20,0,0,1,2-1.32A14.89,14.89,0,0,1,77.25,93.78Zm-.83-6.1c.5,2.64.5,2.8-1.81,3.79a1.36,1.36,0,0,1-1.15,0,37.59,37.59,0,0,1-4.78-3c1.16-2.31,2.47-4.29,4.61-5.44a1.53,1.53,0,0,1,2.47,1.15A30.57,30.57,0,0,1,76.42,87.68ZM65.72,50.46c-.17,0-.33-.17-.5-.17.33-2,.83-3.95,1.16-6.09,2,.33,4,.82,5.93,1.15,0,.17.16.33.16.5C70.49,47.66,67.86,48.81,65.72,50.46ZM65.55,44a18.75,18.75,0,0,1-.66,3c-.16,1-.49,1.81-.65,3-2-.5-4-.83-6.1-1.32C58.64,45.52,62.42,43.21,65.55,44Zm-.82-1.49a8.22,8.22,0,0,1,1.15-.66c0,.17.17.33.17.5-.33.16-.83.33-1.16.49A.56.56,0,0,1,64.73,42.55ZM58.8,45.19l.49-2.47c.83.16,1.49.33,2.64.49C60.61,44,59.79,44.53,58.8,45.19Zm-.33-3.62c-1.48-.33-2.8-.5-4.61-.83,2-1.15,3.62-2.3,5.43-3.46A38.11,38.11,0,0,1,58.47,41.57Zm-.16,1c-.17,4.62-3.79,6.26-7.75,4.62a21,21,0,0,1,.83-4.45,2.34,2.34,0,0,1,1.81-1.15A45.81,45.81,0,0,1,58.31,42.55Zm-2,6.1c0-.17-.17-.33-.17-.5.33-.16.83-.49,1.16-.66a.56.56,0,0,0,.16.33A7.14,7.14,0,0,0,56.33,48.65Zm.66,1c-.33,2-.83,4-1.15,6.09-2.15-.49-4.29-.82-6.43-1.32A6.26,6.26,0,0,1,57,49.64Zm-3.79-.83c-1.32.83-2.14,1.32-3.29,2.14.16-1,.33-1.81.49-2.63A10,10,0,0,1,53.2,48.81ZM49.58,47c-1.32-.33-2.64-.49-4.29-.82,1.82-1.16,3.13-2.14,5-3.3A24.35,24.35,0,0,1,49.58,47Zm-.33,1c.82,4.12-3.13,6.92-7.58,4.61a26.67,26.67,0,0,1,.66-3.79A2.13,2.13,0,0,1,45,47.17C46.28,47.33,47.76,47.66,49.25,48Zm-.5,5.43c-.33.17-.82.5-1.15.66a.6.6,0,0,0-.16-.33c.32-.16.82-.49,1.15-.66A.51.51,0,0,0,48.75,53.42Zm-4.44,1c-1.32.83-2.31,1.48-3.46,2.31.16-1.15.33-2,.49-3C42.33,53.92,43.15,54.25,44.31,54.41Zm3.95.83c-.33,2-.66,3.95-1,6.09-2.47-.49-4.61-1-6.75-1.32C40.68,57.05,45,54.41,48.26,55.24Zm1,.16c2.14.49,4.11.82,6.75,1.32-2.8,1.81-5.11,3.29-7.74,4.94A39.93,39.93,0,0,1,49.25,55.4ZM56,71.05c.49,3.29,1.15,6.09,1.32,9.06.16,1.15-.66,1.31-1.65.65-2.47-1.48-4.94-3.12-7.74-4.77C50.73,74.34,53.2,72.69,56,71.05Zm.66-14.66c.49-2.47.82-4.45,1.32-6.59,2.14.49,4.11.82,6.09,1.15,0,.17.17.33.17.5C61.76,52.93,59.29,54.58,56.66,56.39Zm2.47,23.88c.49,1.15,1,2,1.32,2.8C58.8,82.91,58.47,82.41,59.13,80.27ZM61.6,90.81c.49-.33,1.15-.66,1.81-1.15.83,1.48,1.48,2.63,2.14,3.79a5.78,5.78,0,0,0,1,1,7.85,7.85,0,0,0,.5-1.16,15.27,15.27,0,0,1,1-2.47l.5,4a1.25,1.25,0,0,1-.33.66c-1.48,1.65-3,2-4.78.66-.66-.49-1.32-.82-2-1.32A2.25,2.25,0,0,1,61.6,90.81Zm7.25,5.6a23,23,0,0,0,.66,3.3c-1-.66-1.82-1.16-3-1.82C67.36,97.4,68,96.91,68.85,96.41Zm0-6.59c1.48,1,2.8,1.65,4.28,2.64-1.32.82-2.31,1.48-3.46,2.14A34.8,34.8,0,0,1,68.85,89.82Zm2.8,4.78c2.47-1.65,3.13-1.65,5.27.33.66.49.49,1.81.82,2.8a1.66,1.66,0,0,1-1,2.47,3.35,3.35,0,0,0-1,.66c-2.14,1.65-3.12,1.48-5.1-.33a5.65,5.65,0,0,1-.5-1c-.16-1.15-.49-2.47-.65-3.79A8.56,8.56,0,0,0,71.65,94.6Zm14.82.66c.16,1.65.49,3,.66,4.78-1.48-.83-2.64-1.65-3.95-2.48C84.33,96.74,85.32,96.08,86.47,95.26Zm.16-5.11c1.16.66,2,1.16,3.13,1.81a13.63,13.63,0,0,0-2.47,1.65A21.9,21.9,0,0,1,86.63,90.15Zm5,1.81c.82-.49,1.64-1,2.63-1.64,0,1.15-.16,2-.16,3.13A12.38,12.38,0,0,1,91.58,92Zm4.28-12.68c-.17,1.32-.5,2.47-.66,3.79C93.55,81.59,93.72,80.11,95.86,79.28Zm-2-.16c-.33-2-.66-4.12-1-6.26,1.32.82,2.47,1.48,3.63,2.31C96.35,77.8,96.35,77.8,93.88,79.12Zm5.6,38.21v6.26c-.16.16-.33.16-.49.33-1-.83-2.47-1.65-2.64-2.64C95.86,119.31,97.51,118.32,99.48,117.33Zm-2.47.16a30.93,30.93,0,0,0,.5-3.13A14.27,14.27,0,0,1,98.82,116c-.16.66-.82,1.15-1.31,1.81C97.34,117.66,97.18,117.49,97,117.49Zm1.15-5.1c0,.49.17.82.17,1.32h-.5v-1.32ZM96.68,68.25A6,6,0,0,1,96.85,74c-1.32-.82-2.8-1.64-4.62-2.8C93.88,70.06,95.36,69.24,96.68,68.25Zm-.49-1.81a2.18,2.18,0,0,1-.5,1.31c-1,.83-2.14,1.32-3.29,2.14-.49-3-1-5.92-1.32-8.89C93.88,61.82,95.69,63.47,96.19,66.44Zm-2-4.78C93.06,61,92.4,60.51,91.58,60l1.48-1C93.39,59.68,93.72,60.51,94.21,61.66Zm-4.12-8.24c.83,1.49,1.65,3,2.64,4.62-.5.33-1.15.65-1.81,1.15-.33-2-.66-3.79-1-5.77Zm-1.64-3.13c.49,3,1,5.77,1.48,8.73-2.8-1.64-5.27-3-7.91-4.61C84,53.09,86,51.78,88.45,50.29ZM81.69,55.4c2.64,1.48,5.27,3,8.07,4.61l-6.91,4.45c-.33-2.47-.66-4.61-1-6.75A21.06,21.06,0,0,0,81,55.57S81.36,55.24,81.69,55.4Zm-.82.17a2.33,2.33,0,0,0-.33,1l1,6.43c.16.49,0,1.15.16,1.64l-.33.33c-2.3-1.81-4.44-3.62-6.91-5.6,2.14-1.31,4-2.63,5.93-3.78C80.38,55.4,80.71,55.57,80.87,55.57ZM75.11,37a10.65,10.65,0,0,1,1.15.66.51.51,0,0,1-.33.17c-.33-.17-.66-.17-1-.33A.6.6,0,0,0,75.11,37Zm-1.32,6.76c.33-1.65.66-3.13,1-4.94,2.14.32,4.11.16,5.43,2.47-1.81,1.15-3.46,2.3-5.27,3.45C74.12,45,73.62,44.69,73.79,43.71Zm-.5-2.47c-.16,1-.33,1.81-.49,3.13-2.14-.33-4-.83-5.93-1.16.66-3.13,4.28-5.43,7.08-4.44A10.86,10.86,0,0,0,73.29,41.24Zm-4.44-7.91c1.64.82,3,1.48,4.44,2.31-1.64,2-3.29,1-5.1.82C68.35,35.47,68.68,34.48,68.85,33.33Zm1.48,4.45c-1.15.66-1.81,1.15-3,1.81a21.2,21.2,0,0,1,.5-2.14A14.16,14.16,0,0,1,70.33,37.78ZM68,33c-.33,1.15-.49,2.14-.82,3.13-1.65-.33-3-.66-4.45-.82C64.4,34.48,65.55,32.18,68,33Zm-6.58-1.32c1.15.17,2.3.33,4,.5-1.65,1-3,1.81-4.61,3A32.49,32.49,0,0,0,61.44,31.68Zm.49,4.45c1.32.33,2.8.49,4.12.82a.94.94,0,0,1,.82,1.32,4.61,4.61,0,0,1-5.27,3.79c-.66-.17-1.32-.33-2.14-.49.33-1.49.66-3,.82-4.29C60.45,36.3,60.94,36,61.93,36.13Zm-1.48-4.61c-.17,1.32-.33,2.14-.5,3.29-2.14-.49-4.28-.82-6.42-1.15v-.33C55.67,32.67,57.81,32.18,60.45,31.52Zm-7.58,2.8c2.31.49,4.45.82,7.08,1.32-2.47,1.64-4.77,3.13-6.91,4.44-.66.5-1.16,0-1-.82C52.21,37.78,52.54,36.13,52.87,34.32Zm-1.32-.5.33.33c-.33,2-.66,3.79-1,5.93-2.14-.49-4.11-.82-6.25-1.15,0-.16-.17-.33-.17-.49C46.78,37,49.25,35.31,51.55,33.82Zm-7.74,5.93c2.31.5,4.61.83,6.75,1.32-.49,1.48-6.09,4.94-7.9,4.61C43.15,43.54,43.48,41.73,43.81,39.75Zm-3.46,4a12.17,12.17,0,0,1,2.31-2.8c-.33,1.48-.49,3-.82,4.61-.83-.17-1.49-.33-2.15-.5A3.37,3.37,0,0,1,40.35,43.71ZM39,46a.6.6,0,0,0,.33-.16c.65.33,1.48.49,2.14.82a18.22,18.22,0,0,1-1.82,1.81c-.65.5-1.31.83-2.3,1.49C38.05,48.48,38.54,47.33,39,46Zm2.14,2.8c-.17,1.48-.5,2.47-.66,3.79-1.15-.16-2.31-.49-3.46-.66a.59.59,0,0,0-.17-.33C38.38,50.79,39.69,49.8,41.18,48.81Zm-4.61,4.12a35,35,0,0,0,3.62.66c.16,3.46-1.32,5.43-4.28,5.76C36.07,57.05,36.4,55.07,36.57,52.93Zm3,6.09c-.33.33-.66.5-1,.83a.56.56,0,0,0-.16-.33c.33-.17.66-.5,1-.66Zm-2.47,9.56c-.33-2.31-.82-4.78-1-7.09,0-.32.82-.82,1.32-1s1.15.16,2,.49c-.5,2.64-1,5.11-1.49,7.74A1.84,1.84,0,0,0,37.06,68.58ZM40.19,61c2.3.49,4.45.82,7.08,1.32-3,1.81-5.43,3.46-8.07,5.27A42.16,42.16,0,0,1,40.19,61Zm7.57,26.19c-2-2.64-3.62-4.94-5.43-7.41,1.48-1,2.8-1.82,4.12-2.8.82-.66,1.31-.33,1.48.66.49,2.47.82,5.1,1.15,7.57C49.25,85.71,48.42,86.36,47.76,87.19Zm1.32-9.39c2.31,1.32,4.28,2.64,6.43,4-1.82,1.16-3.46,2.31-5.44,3.46A59.27,59.27,0,0,0,49.08,77.8Zm2.47,7.74c1.49-1,3-2,4.45-2.8a1.39,1.39,0,0,1,2.14.82c.33,2.15.66,4.45,1,6.43,0,1.65-1.32,2.63-2.47,2-1.65-1-3.46-2-5.11-3.12C49.91,87.85,49.91,86.53,51.55,85.54Zm-.82,4.12c2,1.15,3.62,2.14,5.6,3.29-.82.5-1.48,1-2.31,1.49C53.2,92.79,51.22,92,50.73,89.66Zm4.12,5.6c2.14-1.81,2.47-2,4.44-.5a1.65,1.65,0,0,1,.66.83,8.14,8.14,0,0,1,.33,2.14c.17,1,.17,1.81.33,3.13C58.47,98.88,56.66,97.07,54.85,95.26Zm6.09.33c1.32.82,2.31,1.48,3.62,2.3-1,.66-1.81,1.16-2.8,1.82A33,33,0,0,1,60.94,95.59Zm5.93,10.21a44.91,44.91,0,0,1-4.28-3.46c-.83-.66-.83-1.32.16-2,2.8-2,4.29-2,6.59.33.66.66.66,2,1,3.3A9.67,9.67,0,0,1,69,105.31C68.35,105.64,67.2,106.13,66.87,105.8Zm1.32,1.32c.66-.5,1.32-.83,2-1.32.17,1,.33,2,.66,3.29A21.31,21.31,0,0,0,68.19,107.12Zm2.47-4.78v-.82a9.12,9.12,0,0,0,2.14,1.15,10.28,10.28,0,0,0-1.65,1.15Zm3.13,7.58c-1.15.82-1.65.33-2-.83a8.43,8.43,0,0,1-.33-2.14c0-.82-.66-1.81.5-2.47s2.14-1.32,3.29-.16c1.15.82,2.31,1.48,3.62,2.3C77.25,107.78,75.44,108.76,73.79,109.92Zm.82-7.08c1.32-.83,2.47-1.49,3.79-2.31.33,1.65.49,3.29.82,4.94C77.58,104.65,76.26,103.82,74.61,102.84Zm5.6,3a9.13,9.13,0,0,0-.49-2.47c-.83-2.64-.17-4.45,2.63-5.11q2.22,1.48,4.94,3C85,102.67,82.68,104.15,80.21,105.8Zm4.45,11.69a14.62,14.62,0,0,1,2-1.31c1.32,1,2.48,1.81,3.63,2.63,1.32.82,1.32,1.81.66,3C88.94,120.29,86.8,119,84.66,117.49Zm3.46,27c1.64-4.29,3.46-8.9,5.27-13.51,1,1,2.14,2,3.13,3C93.72,137.42,90.92,141.05,88.12,144.51Zm9.39-17.46c-1.82-1.16-2.15-2.31-1.65-4.29,1,.66,2,1.49,3.29,2.31C98.49,125.89,98,126.55,97.51,127.05Zm3.12,3c-1-.66-1.81-1.32-1.31-2.8.16-.49.66-.66,1-1.15.32.33.82.66,1,1.15C101.62,128.2,102.12,129.52,100.63,130Zm.5-6.42v-6.1c2.14.66,3.29,2,3.13,4-.17,1-1.48,1.81-2.31,2.63A2.1,2.1,0,0,0,101.13,123.59Zm.82,1.81a19.33,19.33,0,0,1,2.64-2.8c.49,2,.33,3.46-1,4.78C102.94,126.72,102,125.73,102,125.4Zm2,7.91c1-.83,2-1.82,3-2.64,1.32,3.46,2.47,6.75,3.79,10.54C108.21,138.41,106.07,135.94,103.93,133.31Zm6.09-11.2c-1-2.48-1-2.48,1-3.79,1-.66,1.81-1.32,3-2.14a19.23,19.23,0,0,1,2.3,1.64C114.14,119.14,112.16,120.62,110,122.11Zm11-19.6c-.17,1-.5,2-.66,3.13-2.47-1.65-4.78-3-7.08-4.45,1.48-1,3-2,4.44-2.8a1.76,1.76,0,0,1,1.32,0C121.39,99.54,121.55,99.87,121.06,102.51Zm1.15-2c1.32.82,2.47,1.48,3.79,2.31-1.48,1-2.8,1.81-4.45,2.8C121.72,103.82,122.05,102.18,122.21,100.53Zm6.42,10.38c-2.47-1.49-4.61-3-6.75-4.29,1.48-1,2.8-1.81,4.28-2.63.83-.5.83-.5,3.46,1.15A42.2,42.2,0,0,0,128.63,110.91Zm-.65-8.07a23.18,23.18,0,0,0,2-1.32c0,.82-.16,1.48-.16,2.47A10.94,10.94,0,0,1,128,102.84Zm1.81,6.75c.16-1.32.33-2.47.49-3.79,1,.49,1.65,1,2.64,1.48C131.93,108.11,130.94,108.76,129.79,109.59Zm8.56-6.75a44.82,44.82,0,0,1-4.28,3.45c-.17.17-.66,0-1,0-.33-.16-.66-.49-1-.65-1.15-.5-2-1-1.48-2.8.33-1.16.33-2.31,1.65-2.8a12.42,12.42,0,0,0,2.8-1.65,28.12,28.12,0,0,1,3.46,2.63C139,101.35,138.68,102.51,138.35,102.84Zm.83-3.13c-1.16-.66-2-1.16-3.13-1.82,1.31-.82,2.47-1.48,3.62-2.3C139.5,97.07,139.34,98.22,139.18,99.71Zm.82.65a12.45,12.45,0,0,0,.49-3.45,2.67,2.67,0,0,1,2.31-3c1.15-.16,2.3.66,3.62,1.15C143.46,98.72,141,100.69,140,100.36Zm6.92-5.6c-.83-.49-1.65-1-2.64-1.64,2-1.16,3.62-2.14,5.44-3.3C150.05,92.29,148.23,93.12,146.92,94.76Zm4-4.44-.49-.5a24,24,0,0,1,2.14-2.14l.33.33A27.88,27.88,0,0,1,150.87,90.32Zm2.63-3a.5.5,0,0,0-.32-.16c-2.64-1.32-1.32-3.46-1.32-5.44a27.57,27.57,0,0,1,.66-4c.16-.33,1-1,1.15-.82,1.65,1,3.13,2,4.94,3.13C156.8,82.58,155.15,84.88,153.5,87.35Zm0-25c2.48-.5,4.62-1,6.92-1.48.33,2.14.66,4.11,1.15,6.58C158.94,65.78,156.47,64.13,153.5,62.32Zm10.05,6.42c-1.81-2.3-1.48-5.27-2.14-7.9a7,7,0,0,1,1.65-.33c1-.17,1.64.33,1.48,1.48A24.73,24.73,0,0,1,163.55,68.74Zm-2.47-9.55c.17-.17.17-.33.33-.5.33.17.66.5,1,.66,0,.17-.17.17-.17.33A8.25,8.25,0,0,1,161.08,59.19Zm-.66-5.6c1-.17,2.14-.33,3.46-.66l1,6.42C161.74,58.86,160.26,56.88,160.42,53.59Z"/></svg>