<svg id="Icons" xmlns="http://www.w3.org/2000/svg" viewBox="0 0 200 200"><defs><style>.cls-1{fill:#000100;}</style></defs><title>263-luge</title><path class="cls-1" d="M156.67,144.65a3.78,3.78,0,0,0-4.91-2c-9.29,3.91-16.13,4-22.86.19-1.13-.62-3.58-2.05-6.91-4l7.3-5.2c1.5.89,2.91,1.73,4.23,2.49a3.54,3.54,0,0,0,1.9.52,3.74,3.74,0,0,0,1.9-7c-2.24-1.31-4.78-2.82-7.52-4.45a5.81,5.81,0,0,0,.44-2.15V100.69a5.64,5.64,0,0,0-5.64-5.62H111L116.93,90a12.18,12.18,0,0,0-15.85-18.5L84.3,85.85a12.13,12.13,0,0,0-4.22,9.74L67.38,88a3.75,3.75,0,1,0-3.85,6.43c.12.06,2.2,1.31,5.62,3.35L61.82,103,49.64,95.77a3.75,3.75,0,0,0-3.86,6.43c2.93,1.76,71.45,42.67,79.45,47.16a27.87,27.87,0,0,0,13.9,3.76,40.39,40.39,0,0,0,15.53-3.56A3.77,3.77,0,0,0,156.67,144.65ZM119,118.77c-6.76-4-14-8.34-20.92-12.45H119ZM76.2,102c12.33,7.36,31.36,18.69,46,27.39l-7.31,5.22C102,127,83,115.68,68.85,107.23Z"/><path class="cls-1" d="M134.13,73.23A12.64,12.64,0,1,0,121.5,60.6,12.63,12.63,0,0,0,134.13,73.23Z"/></svg>