<svg id="Icons" xmlns="http://www.w3.org/2000/svg" viewBox="0 0 200 200"><defs><style>.cls-1{fill:#000201;}</style></defs><title>264-cloche</title><path class="cls-1" d="M56.33,89.22c0,40.33-11.33,48.29-17.69,50.06v16.1H162.28v-16.1c-6.37-1.59-17.69-9.73-17.69-50.06,0-30.6-20.34-41.21-33.43-44.93a11.31,11.31,0,0,0,1.59-6,12,12,0,1,0-24,0,11.77,11.77,0,0,0,1.59,6C76.67,48,56.33,58.62,56.33,89.22Z"/><path class="cls-1" d="M100.37,174.83a17,17,0,0,0,16.8-14.15H83.57A17,17,0,0,0,100.37,174.83Z"/></svg>