<svg id="Icons" xmlns="http://www.w3.org/2000/svg" viewBox="0 0 200 200"><defs><style>.cls-1{fill:#000201;}</style></defs><title>265-engrenage</title><path class="cls-1" d="M179.06,79.3c-1.41-.31-2.46-1.09-2.46-2.45v-8.8c0-1.36,1-2,2.46-2.46l4.59-1.33a42.34,42.34,0,0,0-6.5-15.64l-3.64,2.17c-1.21.77-2.51,1-3.47,0l-6.23-6.23c-.95-1-.74-2.12,0-3.47l2.08-3.76a42.2,42.2,0,0,0-16.07-6.65l-.95,3.73c-.31,1.41-1.1,2.46-2.45,2.46h-8.8c-1.36,0-2-1-2.46-2.46l-1.08-3.74A42.34,42.34,0,0,0,118,37.31l2.12,3.56c.77,1.22,1,2.52,0,3.47l-6.23,6.23c-1,1-2.12.74-3.47,0l-3.65-2a42.17,42.17,0,0,0-6.56,15.72l4,1c1.4.31,2.45,1.1,2.45,2.46v8.8c0,1.35-1,2-2.45,2.45l-4.07,1.18a42.27,42.27,0,0,0,5.76,14.75l-4.17,2.48c-1.4.89-2.9,1.11-4,0l-7.17-7.16c-1.1-1.11-.86-2.45,0-4L93,81.9a48.65,48.65,0,0,0-18.5-7.65l-1.09,4.3c-.36,1.61-1.27,2.82-2.83,2.82H60.39c-1.56,0-2.33-1.12-2.82-2.82l-1.25-4.31a48.76,48.76,0,0,0-18.51,7.65L40.25,86c.89,1.39,1.11,2.89,0,4l-7.16,7.17c-1.11,1.1-2.45.86-4,0l-4.21-2.32a48.77,48.77,0,0,0-7.55,18.1l4.59,1.16c1.62.36,2.83,1.27,2.83,2.83v10.13c0,1.57-1.12,2.34-2.83,2.83l-4.68,1.36a48.78,48.78,0,0,0,7.51,18.43l4.61-2.74c1.4-.89,2.9-1.1,4,0l7.17,7.17c1.1,1.1.86,2.44,0,4l-2.63,4.76a48.7,48.7,0,0,0,17.88,7.49l1.43-5.62c.36-1.61,1.26-2.82,2.82-2.82H70.17c1.56,0,2.33,1.12,2.83,2.82l1.64,5.68A48.63,48.63,0,0,0,92.57,163l-2.79-4.69c-.89-1.4-1.1-2.9,0-4L97,147.18c1.1-1.1,2.44-.86,4,0l4.89,2.7a48.53,48.53,0,0,0,7.59-18.29l-5.32-1.35c-1.61-.36-2.82-1.26-2.82-2.83V117.28c0-1.56,1.12-2.34,2.82-2.83l5.29-1.53a48.55,48.55,0,0,0-6.69-16.77l4-2.35c1.21-.77,2.51-1,3.47,0l6.22,6.22c1,1,.75,2.12,0,3.47l-2.28,4.14a42.25,42.25,0,0,0,15.53,6.51l1.24-4.88c.31-1.4,1.1-2.46,2.45-2.46h8.81c1.35,0,2,1,2.45,2.46l1.43,4.93a42.32,42.32,0,0,0,15.57-6.4l-2.42-4.08c-.77-1.21-1-2.51,0-3.47L169.36,94c1-1,2.12-.75,3.47,0l4.25,2.34a42.19,42.19,0,0,0,6.6-15.88ZM78.84,135.64A19.3,19.3,0,1,1,84.49,122,19.14,19.14,0,0,1,78.84,135.64ZM153.64,84a16.76,16.76,0,1,1,4.91-11.85A16.66,16.66,0,0,1,153.64,84Z"/></svg>