<svg id="Icons" xmlns="http://www.w3.org/2000/svg" viewBox="0 0 200 200"><defs><style>.cls-1{fill:#000201;}</style></defs><title>266-balon-dirigeable</title><rect class="cls-1" x="88.83" y="170.44" width="24" height="13.68"/><path class="cls-1" d="M100.21,17A62.54,62.54,0,0,0,62.1,129.12c9.24,9.74,21.53,23.17,29.69,33.82h17.35c8.39-11.05,21.17-25,30.26-34.62A62.57,62.57,0,0,0,100.21,17Zm15,98.76h0a77.24,77.24,0,0,1-3.33,10.48c-2.83,9.08-6.8,22.28-9.41,32.73H97.1c-2.54-10.07-6.37-22.77-9.24-32-4.62-10.82-7.61-27.75-7.61-46.84C80.25,47.46,89,21,99.71,21s19.47,26.5,19.47,59.17A150.49,150.49,0,0,1,115.23,115.72Z"/></svg>