<svg id="Icons" xmlns="http://www.w3.org/2000/svg" viewBox="0 0 200 200"><title>267-avalanche</title><path d="M122.1,118.68S98.46,134.09,66.25,92.9c0,0-41.95-1.52-34-63.11L17.35,26.05s-.23,149,0,149H183.67Z"/><path d="M128.18,61.35a4.27,4.27,0,0,1-1.77,1.73,10.37,10.37,0,0,0-3.54,3,.66.66,0,0,0-.09.63c.34.61,2.53,0,4.87-1.34s4.28-.64,4.32,1.57.62,3.71,1.31,3.32a2.12,2.12,0,0,0,.7-1.1,11.46,11.46,0,0,0,.53-3.7,5.86,5.86,0,0,1,.86-2.79,11.78,11.78,0,0,1,4.19-4.23c2.8-1.62,5.09-.28,5.09,3a11.89,11.89,0,0,1-1.05,4.76,6.71,6.71,0,0,1-2.51,3.14A9.88,9.88,0,0,0,137.82,72a1.43,1.43,0,0,0-.27.74c0,.81,1.62.59,3.57-.5s3.53.21,3.53,2.87S145.2,80,145.88,80c.18,0,.34-.14.49-.38a10.48,10.48,0,0,0,.76-4.5,4.94,4.94,0,0,1,.28-1.73,2.07,2.07,0,0,1,3.25-1.11c1.7,1,3.13,1.27,3.46.76a.45.45,0,0,0,.07-.27c0-.83-1.59-2.42-3.53-3.5s-3.53-4.64-3.53-7.89a4.88,4.88,0,0,1,.4-2.06c.77-1.67,2.58-2.11,4.68-.9,2.79,1.62,5.09,4.77,5.07,7s.53,4.4,1.22,4.8c.29.17.57,0,.79-.48a6.88,6.88,0,0,0,.52-2.84,2.7,2.7,0,0,1,.36-1.37c.67-1.07,2.2-1.21,4-.2,2.32,1.34,4.52,2,4.88,1.34h0c.34-.62-1.29-2.23-3.63-3.58-1.74-1-2.36-2.41-1.75-3.53a2.7,2.7,0,0,1,1-1c1.45-.85,2.38-1.78,2.44-2.36a.42.42,0,0,0-.23-.46c-.72-.42-2.89.18-4.81,1.32s-5.88.71-8.77-1c-1.81-1-2.49-2.51-2-3.87a4.29,4.29,0,0,1,2-2.23c2.89-1.68,6.83-2.12,8.77-1s4.09,1.74,4.81,1.33a.49.49,0,0,0,.19-.19c.28-.53-.71-1.62-2.4-2.63a2.08,2.08,0,0,1-.66-3.39A5.12,5.12,0,0,1,165.37,43a10.09,10.09,0,0,0,3.53-2.95.65.65,0,0,0,.1-.62c-.36-.62-2.55,0-4.88,1.34s-4.27.62-4.31-1.61-.63-3.74-1.31-3.33a1.43,1.43,0,0,0-.48.61,10.23,10.23,0,0,0-.74,4.2,5,5,0,0,1-.39,1.81l0,.09a7,7,0,0,1-.43.87,11.87,11.87,0,0,1-4.21,4.24c-2.8,1.63-5.08.29-5.08-3a12,12,0,0,1,1-4.76,6.63,6.63,0,0,1,2.49-3.12,8.37,8.37,0,0,0,3.46-3.14,1,1,0,0,0,.07-.35c0-.84-1.59-.61-3.53.51s-3.53-.18-3.53-2.89a11.9,11.9,0,0,0-.63-4.25c-.18-.42-.39-.67-.61-.67-.44,0-.83.92-1,2.29a16.71,16.71,0,0,0-.19,2.59c0,2-.9,3.25-2.16,3.29a2.54,2.54,0,0,1-1.36-.37c-.25-.14-.49-.26-.72-.37-1.61-.75-2.84-.84-2.86-.14s1.57,2.36,3.54,3.46,3.56,4.66,3.56,7.92c0,2.44-1.29,3.81-3.11,3.65a4.65,4.65,0,0,1-2-.68c-2.8-1.62-5.08-4.77-5.06-7s-.53-4.4-1.23-4.81a.39.39,0,0,0-.25-.06c-.58,0-1,1.43-1.06,3.39a2.15,2.15,0,0,1-1.29,2.15,3.7,3.7,0,0,1-3-.54,15.6,15.6,0,0,0-2.48-1.18l-.24-.08-.47-.15a3.25,3.25,0,0,0-.38-.08l-.23,0c-.56-.09-.95,0-1.07.2-.35.61,1.28,2.22,3.63,3.57,2.05,1.18,2.56,2.89,1.36,4.05a3,3,0,0,1-.61.47,9.24,9.24,0,0,0-1.74,1.28c-.69.69-.91,1.28-.47,1.53a3.87,3.87,0,0,0,2.62-.29,13.41,13.41,0,0,0,1.26-.55l.18-.08.07,0c.22-.12.44-.24.65-.37,1.91-1.12,5.84-.68,8.75,1,2.54,1.48,2.86,3.76,1,5.42a5.93,5.93,0,0,1-1,.68c-2.9,1.66-6.84,2.09-8.75,1s-4-1.74-4.77-1.33a.47.47,0,0,0-.14.14c-.39.5.58,1.64,2.34,2.68A2.06,2.06,0,0,1,128.29,61,3,3,0,0,1,128.18,61.35Z"/><polygon points="139.29 114.39 139.29 118.68 160.78 118.68 160.78 97.2 156.48 97.2 156.48 110.09 104.91 67.13 100.62 71.42 152.18 114.39 139.29 114.39"/><path d="M74.84,92.9c6.14,5.33,13.54,15.54,30.7,20a63.8,63.8,0,0,0,8,1.52c5.36-7-7.64-21.34-12.89-25.79-8.36-7.07-16.78-6.77-25.78-12.88C68.32,71.3,66,64.74,62,58.54c-2.61-4-5.19-9.52-8.59-12.9C51.71,44,40.61,39.06,40.47,37.05c.82,12.22.67,28.64,8.6,38.67C55.2,83.48,67.68,86.7,74.84,92.9Z"/></svg>