<svg id="Icons" xmlns="http://www.w3.org/2000/svg" viewBox="0 0 200 200"><title>273-groupe-03</title><path d="M104.29,125.59h0C89.64,120.25,85,115.74,85,106.09c0-5.79,4.48-3.9,6.44-14.51.82-4.4,4.77-.07,5.53-10.12,0-4-2.16-5-2.16-5s1.1-5.93,1.53-10.49c.52-5.69-3.28-20.36-23.63-20.36S48.49,60.29,49,66c.42,4.56,1.52,10.49,1.52,10.49s-2.16,1-2.16,5c.76,10,4.71,5.72,5.52,10.12,2,10.61,6.45,8.72,6.45,14.51,0,9.65-4.69,14.16-19.35,19.5s-24.26,10.82-24.26,14.55v12.52H128.56V140.14C128.56,136.42,119,131,104.29,125.59Z"/><path d="M162.82,130.82h0c-11.83-4.31-15.61-7.94-15.61-15.73,0-4.67,3.62-3.15,5.2-11.7.65-3.55,3.85-.06,4.46-8.17,0-3.23-1.74-4-1.74-4s.89-4.78,1.23-8.46c.42-4.59-2.65-16.43-19.06-16.43s-19.5,11.84-19.07,16.43c.35,3.68,1.24,8.46,1.24,8.46s-1.75.8-1.75,4c.61,8.11,3.8,4.62,4.46,8.17,1.59,8.55,5.2,7,5.2,11.7a14.74,14.74,0,0,1-.87,5.36c.82.45,1.61.89,2.36,1.33,3.28,1.94,13.28,7.86,13.28,18.36v12.52h40.24v-10.1C182.39,139.56,174.68,135.15,162.82,130.82Z"/></svg>