<svg id="Icons" xmlns="http://www.w3.org/2000/svg" viewBox="0 0 200 200"><defs><style>.cls-1{fill:#12100b;}</style></defs><title>275-oiseau</title><path class="cls-1" d="M123.2,48.57l0-.1A38.13,38.13,0,0,0,72.69,29.36,37.16,37.16,0,0,0,64,34.77a32.87,32.87,0,0,0-8.73,11.48,44.13,44.13,0,0,0-3.39,11.33L34.41,70.23l17,12.88A97.19,97.19,0,0,0,58,111.39a66.13,66.13,0,0,0,10.09,17A55.68,55.68,0,0,0,82.7,141v26.38H94.87v-21a59.42,59.42,0,0,0,12.18,2.3v24.83h12.17v-25A63.28,63.28,0,0,0,133,145.29c1.05.83,2.13,1.6,3.25,2.32a42.11,42.11,0,0,0,22.69,7l5.9-9Zm20.08,88.25a34.37,34.37,0,0,1-12.14-13.72l-11.55,5.63a46.24,46.24,0,0,0,3.53,6.05,50.87,50.87,0,0,1-11,1.22,46.2,46.2,0,0,1-16.31-2.91,41.89,41.89,0,0,1-11.23-6.34A48,48,0,0,1,71,109.15c-3.63-7.75-6.2-17.57-7-29.87l-.2-2.92L56,70.45l7.86-5.69L64.2,62a38.76,38.76,0,0,1,1.53-7.29A21,21,0,0,1,78,41.09a25.09,25.09,0,0,1,10.38-2.25,25.52,25.52,0,0,1,13.58,3.94,25.21,25.21,0,0,1,9.45,10.86s0,.07,0,.11l21.8,50.76c-.69.06-1.39.08-2.11.08a33.72,33.72,0,0,1-11.44-2.1,34.13,34.13,0,0,1-15-10.5,28,28,0,0,1-4.55-8.06,29.25,29.25,0,0,1-1.69-10v-.18l-12.86-.07V74a41.37,41.37,0,0,0,4.26,18.56,42,42,0,0,0,7.71,10.78,47.65,47.65,0,0,0,15.79,10.52,46.88,46.88,0,0,0,17.77,3.62,38.51,38.51,0,0,0,7.37-.7l9.75,22.71A31.61,31.61,0,0,1,143.28,136.82Z"/></svg>