<svg id="Icons" xmlns="http://www.w3.org/2000/svg" viewBox="0 0 200 200"><title>276-cloture</title><circle cx="51.29" cy="77.54" r="3.69"/><circle cx="99.26" cy="77.54" r="3.69"/><circle cx="147.22" cy="77.54" r="3.69"/><path d="M176.74,88.61a3.69,3.69,0,0,0,0-7.38H165.67V73.85h11.07a3.69,3.69,0,0,0,0-7.38H165.67V53.19a18.77,18.77,0,0,0-4.06-11.44L150.17,27.36a3.84,3.84,0,0,0-5.9,0L132.83,41.75a18.84,18.84,0,0,0-4.06,11.44V66.47H117.7V53.19a18.82,18.82,0,0,0-4-11.44L102.21,27.36a3.85,3.85,0,0,0-5.91,0L84.87,41.75a18.77,18.77,0,0,0-4.06,11.44V66.47H69.74V53.19a18.84,18.84,0,0,0-4.06-11.44L54.24,27.36a3.84,3.84,0,0,0-5.9,0L36.9,41.75a18.84,18.84,0,0,0-4.06,11.44V66.47H21.77a3.69,3.69,0,0,0,0,7.38H32.84v7.38H21.77a3.69,3.69,0,0,0,0,7.38H32.84v29.52H21.77a3.69,3.69,0,1,0,0,7.38H32.84v7.38H21.77a3.69,3.69,0,1,0,0,7.38H32.84v29.51a3.49,3.49,0,0,0,3.69,3.69H66.05a3.49,3.49,0,0,0,3.69-3.69V140.27H80.81v29.51a3.48,3.48,0,0,0,3.69,3.69h7.38a3.69,3.69,0,0,0,0-7.38H88.19V53.19a10.37,10.37,0,0,1,2.58-7l8.49-10.7,8.48,10.7a10.33,10.33,0,0,1,2.59,7v87.08a3.69,3.69,0,1,0,7.37,0h14.76a3.49,3.49,0,0,0,3.69-3.69V53.19a10.33,10.33,0,0,1,2.59-7l8.48-10.7,8.49,10.7a10.37,10.37,0,0,1,2.58,7v76a3.69,3.69,0,0,0,7.38,0v-3.69h11.07a3.69,3.69,0,1,0,0-7.38H165.67V88.61ZM80.81,73.85v7.38H69.74V73.85ZM62.36,166.09H40.22V53.19a10.37,10.37,0,0,1,2.58-7l8.49-10.7,8.49,10.7a10.37,10.37,0,0,1,2.58,7V84.92a3.49,3.49,0,0,0,3.69,3.69H80.81v29.52H69.74V99.68a3.69,3.69,0,1,0-7.38,0v66.41Zm7.38-33.2v-7.38H80.81v7.38Zm48-44.28h11.07v29.52H117.7Zm11.07-14.76v7.38H117.7V73.85Zm-11.07,59v-7.38h11.07v7.38Z"/><circle cx="51.29" cy="129.2" r="3.69"/><circle cx="99.26" cy="129.2" r="3.69"/><circle cx="147.22" cy="129.2" r="3.69"/><path d="M137.63,158a2.73,2.73,0,0,0,2.21.73,3.33,3.33,0,0,0,2.95-1.47c7-8.12,19.93-13.28,34-13.28a3.69,3.69,0,0,0,0-7.38c-13.65,0-25.83,4-34.31,11.07H125.08A22.2,22.2,0,0,0,103,169.78a3.48,3.48,0,0,0,3.69,3.69h70.1a3.69,3.69,0,0,0,0-7.38H110.69A14.73,14.73,0,0,1,125.08,155h11.07A3.37,3.37,0,0,0,137.63,158Z"/></svg>