<svg id="Icons" xmlns="http://www.w3.org/2000/svg" viewBox="0 0 200 200"><title>277-vagues-larges</title><path d="M19.39,59.23c4.73-.23,9.41,2.23,13.21,7l3,3.73c7,8.67,16.23,13.44,26.08,13.44H62c10-.1,19.37-5.1,26.32-14.1,3.6-4.65,8.09-7.26,12.64-7.35s8.85,2.24,12.48,6.57l2.29,2.74c6.91,8.25,16,12.79,25.55,12.79h.49c9.85-.16,19.07-5.09,25.95-13.88l2.33-3c3.65-4.66,8.18-7.22,12.76-7.22h.3l.42-17.36c-10.36-.25-19.94,4.67-27.15,13.87l-2.33,3c-3.59,4.59-8.05,7.15-12.58,7.23-4.37.09-8.8-2.25-12.43-6.58l-2.29-2.74c-7.08-8.45-16.4-13-26.14-12.78-9.9.19-19.15,5.2-26,14.09-3.64,4.7-8.17,7.31-12.75,7.35h-.13c-4.48,0-8.94-2.47-12.55-7l-3-3.72c-7.4-9.2-17.22-14-27.63-13.41Z"/><path d="M19.39,97.22c4.73-.24,9.41,2.22,13.21,6.94l3,3.73c7,8.67,16.23,13.44,26.08,13.44H62c10-.1,19.37-5.1,26.32-14.1,3.6-4.65,8.09-7.26,12.64-7.35s8.85,2.25,12.48,6.57l2.29,2.75c6.91,8.24,16,12.78,25.55,12.78h.49c9.85-.16,19.07-5.09,25.95-13.87l2.33-3c3.65-4.65,8.18-7.22,12.76-7.22h.3l.42-17.36c-10.36-.25-19.94,4.67-27.15,13.87l-2.33,3c-3.59,4.58-8.05,7.15-12.58,7.22-4.37.09-8.8-2.25-12.43-6.57l-2.29-2.74c-7.08-8.45-16.4-13-26.14-12.79-9.9.2-19.15,5.2-26,14.09-3.64,4.7-8.17,7.31-12.75,7.36h-.13c-4.48,0-8.94-2.47-12.55-7l-3-3.73c-7.4-9.2-17.22-14-27.63-13.4Z"/><path d="M19.39,135.2c4.73-.23,9.41,2.23,13.21,7l3,3.72c7,8.67,16.23,13.45,26.08,13.44H62c10-.09,19.37-5.1,26.32-14.09,3.6-4.66,8.09-7.27,12.64-7.36s8.85,2.25,12.48,6.58l2.29,2.74c6.91,8.25,16,12.79,25.55,12.79h.49c9.85-.16,19.07-5.08,25.95-13.87l2.33-3c3.65-4.66,8.18-7.23,12.76-7.23h.3l.42-17.36c-10.36-.25-19.94,4.67-27.15,13.87l-2.33,3c-3.59,4.58-8.05,7.15-12.58,7.22-4.37.09-8.8-2.24-12.43-6.57l-2.29-2.74c-7.08-8.45-16.4-13-26.14-12.79-9.9.2-19.15,5.2-26,14.1-3.64,4.69-8.17,7.31-12.75,7.35h-.13c-4.48,0-8.94-2.47-12.55-7l-3-3.73c-7.4-9.2-17.22-14-27.63-13.4Z"/></svg>