<svg id="Icons" xmlns="http://www.w3.org/2000/svg" viewBox="0 0 200 200"><title>278-poisson</title><path d="M183.15,109.25c0-8.91-11-23.33-30.4-31.19h0c-.26,0-18.61-11.53-21.5-24.9a3.65,3.65,0,0,0-2.88-2.89c-23.59-6-48,21-49,22.29a5.27,5.27,0,0,0-1,3.4l2.1,10.49c-5,2.36-9.44,4.45-12.84,4.45-4.72-.52-23.07-14.15-39.06-29.35a7,7,0,0,0-5.24-2.36,8.1,8.1,0,0,0-5.77,2.36,7.84,7.84,0,0,0,.26,11C32.69,87,46.06,104,46.06,109c0,3.67-7.34,13.37-20.71,23.86a14.57,14.57,0,0,0-1.57,1.31,7.88,7.88,0,0,0-1.31,11,7,7,0,0,0,6,3.14,8.47,8.47,0,0,0,4.72-1.57,14.57,14.57,0,0,1,1.57-1.31c17.82-13.63,31.45-20.71,35.39-20.71,4.45,0,10,2.62,16.25,5.5,2.36,1.05,4.72,2.36,7.34,3.41l-8.39,15.21a4.17,4.17,0,0,0,0,3.93,4.48,4.48,0,0,0,3.41,1.83h.26c1.31,0,27.26-1.57,38.8-14.68C163.5,138.87,183.15,121.31,183.15,109.25Zm-58.71-51.9c2.09,6.29,6.55,11.54,11.27,16a69.42,69.42,0,0,0-12.84-1c-13.64,0-25.43,5.25-35.13,10.23l-1.31-6.29C91.41,71.24,108.45,55,124.44,57.35Zm-23.07,79.17a77.11,77.11,0,0,0,14.42,3.4c-6,3.41-13.63,5.25-19.66,6.29Zm26.21-4.2s-4.45.26-5,.26a63.5,63.5,0,0,1-17.82-2.88l-7.34-2.88c-10.49-4.46-18.87-9.7-27.26-10h-.27c-9.69,0-33.55,17.56-39.84,22.54a6.22,6.22,0,0,0-1.57,1,6.22,6.22,0,0,1,1.57-1c5.51-4.2,23.85-19.4,23.85-30.15,0-12.58-30.66-42.2-30.66-42.2s33,31.46,44.56,31.46h0c14.15,0,32-18.35,55.05-18.35,34.86,0,52.42,21.75,52.42,29.09C175.29,116.07,159.3,131,127.58,132.32Zm15.21-33.81a16.87,16.87,0,0,0-4.2,10.48c0,6,4.2,10.22,4.2,10.49a4,4,0,0,1,0,5.5,3.75,3.75,0,0,1-2.62,1,4.21,4.21,0,0,1-2.89-1.31A24.25,24.25,0,0,1,131,109a24.31,24.31,0,0,1,6.29-15.73,3.81,3.81,0,0,1,5.51,0A3.73,3.73,0,0,1,142.79,98.51Z"/></svg>