<svg id="Icons" xmlns="http://www.w3.org/2000/svg" viewBox="0 0 200 200"><defs><style>.cls-1{fill:#12110b;}</style></defs><title>279-grappe-02</title><path class="cls-1" d="M49.2,70.24a8.4,8.4,0,1,1-8.4,8.4,8.41,8.41,0,0,1,8.4-8.4m0-12.59a21,21,0,1,0,21,21,21,21,0,0,0-21-21Z"/><path class="cls-1" d="M150,70.24a8.4,8.4,0,1,1-8.4,8.4,8.4,8.4,0,0,1,8.4-8.4m0-12.59a21,21,0,1,0,21,21,21,21,0,0,0-21-21Z"/><path class="cls-1" d="M74.39,112.22a8.4,8.4,0,1,1-8.4,8.39,8.39,8.39,0,0,1,8.4-8.39m0-12.6a21,21,0,1,0,21,21,21,21,0,0,0-21-21Z"/><path class="cls-1" d="M124.76,112.22a8.4,8.4,0,1,1-8.4,8.39,8.4,8.4,0,0,1,8.4-8.39m0-12.6a21,21,0,1,0,21,21,21,21,0,0,0-21-21Z"/><path class="cls-1" d="M99.57,154.2a8.4,8.4,0,1,1-8.39,8.39,8.4,8.4,0,0,1,8.39-8.39m0-12.6a21,21,0,1,0,21,21,21,21,0,0,0-21-21Z"/><path class="cls-1" d="M66.78,29.23c4.59,1.09,9.58,3.67,15.6,9.69a31.85,31.85,0,0,1,6.75,9l2.52,5.57-4-1.15c-2.4-.68-5.84-2.15-11.19-7.51-5.92-5.92-8.54-11-9.67-15.63M96.72,69.44l2.36.52.06.11,0-.09,2.16.47a8.39,8.39,0,1,1-10.17,8.19A8.27,8.27,0,0,1,93.45,73l3.27-3.56M58.78,15.87H57.53A4.19,4.19,0,0,0,53.41,20c-.18,10,1.41,21,14.14,33.76,6.07,6.08,11.24,9.18,16.63,10.72A20.94,20.94,0,1,0,104,58.15a29.42,29.42,0,0,1,29.13-25.69,4.2,4.2,0,0,0,0-8.4,37.8,37.8,0,0,0-32.56,18.7A43.52,43.52,0,0,0,91.29,30c-12.43-12.44-23-14.15-32.51-14.15Z"/></svg>