<svg id="Icons" xmlns="http://www.w3.org/2000/svg" viewBox="0 0 200 200"><defs><style>.cls-1{fill:#12100b;}</style></defs><title>280-cadeau</title><path class="cls-1" d="M121,79.38h52.61a4.5,4.5,0,0,1,4.6,4.61v13.8a4.49,4.49,0,0,1-4.6,4.61H121Z"/><path class="cls-1" d="M26.28,79.38H79.54v23H26.28c-2,0-4-2-4-4.61V84C22.33,81.36,24.31,79.38,26.28,79.38Z"/><path class="cls-1" d="M88.75,178v-100c0-2,2-3.95,4.6-3.95h13.81c2.63,0,4.6,2,4.6,3.95V178a4.49,4.49,0,0,1-4.6,4.6H93.35A4.49,4.49,0,0,1,88.75,178Z"/><path class="cls-1" d="M167.66,111.6v56.56c0,5.26-4.61,9.86-10.52,9.86H121V111.6Z"/><path class="cls-1" d="M79.54,111.6V178H42.72a10.12,10.12,0,0,1-9.87-9.86V111.6Z"/><path class="cls-1" d="M87.43,70.18c-23,4.6-44.71,1.31-62.47-7.24,1.32-2,3.29-3.28,5.26-5.26,0-2.63-.65-5.26-.65-7.89C39.43,56.37,62.45,69.52,87.43,70.18Z"/><path class="cls-1" d="M143.33,22.83a21.83,21.83,0,0,1,0,30.91c-7.89,7.89-28.28,7.89-40.12,9.2,1.32-11.83,1.32-32.22,9.21-40.11A21.83,21.83,0,0,1,143.33,22.83Zm-27,27c7.89-1.31,15.78-2.63,18.41-4.6A9.77,9.77,0,1,0,121,31.38C119,34,117.68,41.9,116.37,49.79Z"/><path class="cls-1" d="M56.53,22.83a21.83,21.83,0,0,0,0,30.91c8.55,7.89,28.93,7.89,40.77,9.2C96,51.11,96,30.72,88.09,22.83,79.54,14.28,65.73,14.28,56.53,22.83Zm27,27c-7.24-1.31-15.78-2.63-17.76-4.6a9.55,9.55,0,0,1,0-13.81,8.78,8.78,0,0,1,13.15,0C81.51,34,82.83,41.9,83.49,49.79Z"/><path class="cls-1" d="M113.08,70.18a99.42,99.42,0,0,0,62.47-7.24l-5.26-5.26a31.89,31.89,0,0,1,.66-7.89C160.42,56.37,138.07,69.52,113.08,70.18Z"/></svg>