<svg id="Icons" xmlns="http://www.w3.org/2000/svg" viewBox="0 0 200 200"><title>281-groupe-04</title><circle cx="140.68" cy="50.18" r="15.58" transform="matrix(0.19, -0.98, 0.98, 0.19, 64.8, 178.83)"/><path d="M168.17,133.25V99.5a19.36,19.36,0,0,0-19.3-19.31H134.79a28.34,28.34,0,0,1,2.33,11.25v38.67a17.06,17.06,0,0,1-11.82,16.22v26.45a17.8,17.8,0,0,1-.28,2.75,9.29,9.29,0,0,0,7.79,4.27h15.73a9.34,9.34,0,0,0,9.31-9.31V142.56h1A9.34,9.34,0,0,0,168.17,133.25Z"/><circle cx="57.83" cy="50.18" r="15.58"/><path d="M73.22,146.34a17.08,17.08,0,0,1-11.83-16.22V91.44a28.34,28.34,0,0,1,2.33-11.25H49.65A19.37,19.37,0,0,0,30.34,99.5v33.76a9.33,9.33,0,0,0,9.31,9.3h1V170.5A9.34,9.34,0,0,0,50,179.81H65.7a9.32,9.32,0,0,0,7.8-4.27,16.64,16.64,0,0,1-.28-2.75Z"/><circle cx="99.26" cy="34.95" r="17.85"/><path d="M130.75,130.12V91.44a22.18,22.18,0,0,0-22.11-22.11H89.88A22.18,22.18,0,0,0,67.76,91.44v38.68a10.7,10.7,0,0,0,10.66,10.66h1.16v32a10.7,10.7,0,0,0,10.67,10.66h18a10.7,10.7,0,0,0,10.66-10.66v-32h1.16A10.69,10.69,0,0,0,130.75,130.12Z"/></svg>