<svg id="Icons" xmlns="http://www.w3.org/2000/svg" viewBox="0 0 200 200"><defs><style>.cls-1{fill:#000100;}.cls-2{fill-rule:evenodd;}</style></defs><title>282-enveloppe-info</title><path class="cls-1" d="M135.71,45.08V56.15l38,28.85v81.22a4.69,4.69,0,0,1-4.42,4.91H30.75a4.69,4.69,0,0,1-4.42-4.91V81.72L62.78,54.44v-11H77.52l16.8-12.58.47-.41c1.85-1.85,4.93-2,6.6-.34L118.93,43.4H133.5L107.4,23.59a12.94,12.94,0,0,0-9-3.56,13.86,13.86,0,0,0-9.62,3.89L17.49,77.29v88.93A13.53,13.53,0,0,0,30.75,180h138.5a13.53,13.53,0,0,0,13.26-13.75V80.61Z"/><path class="cls-1" d="M53.94,34.56V97.38l-13-10.88-5.67,6.78L97.3,145.1l67.32-51.7-5.39-7L144.55,97.67V34.56Zm8.84,70.2V43.4h72.93v61.05L97.53,133.77Z"/><path class="cls-2" d="M112.9,108c-4.32,12.46-29.67,11.25-27.34-6.43,1-7.18,10.41-15.87,7.24-20.1-2-2.71-8.58,1.85-9.65-.81,8.12-13.23,29.58-8.36,27.34,8-.66,4.83-9.24,14.11-7.24,17.69S111.81,106.43,112.9,108Z"/><circle cx="107.11" cy="58.04" r="8.22"/></svg>