<svg id="Icons" xmlns="http://www.w3.org/2000/svg" viewBox="0 0 200 200"><title>283-carte-identité</title><path d="M89.1,84.93H46.43A5.45,5.45,0,0,0,41,90.38v42.67a5.45,5.45,0,0,0,5.45,5.45H89.1a5.45,5.45,0,0,0,5.45-5.45V90.38A5.45,5.45,0,0,0,89.1,84.93ZM83.66,127.6H51.88V95.82H83.66Z"/><path d="M105.45,126.69a5.45,5.45,0,0,0,5.45,5.45h42.67a5.45,5.45,0,1,0,0-10.89H110.9A5.45,5.45,0,0,0,105.45,126.69Z"/><path d="M130,90.74H110.9a5.45,5.45,0,1,0,0,10.89H130a5.45,5.45,0,1,0,0-10.89Z"/><path d="M64.77,36.26H44.43A5.45,5.45,0,0,0,39,41.71v6.72H36.62a20,20,0,0,0-20,20v75.37a20,20,0,0,0,20,20H163.38a20,20,0,0,0,20-20V68.4a20,20,0,0,0-20-20H161V41.71a5.45,5.45,0,0,0-5.45-5.45H135.23a5.45,5.45,0,0,0-5.45,5.45v6.72H70.22V41.71A5.45,5.45,0,0,0,64.77,36.26ZM50.06,47.15h9.26V57.69a4.72,4.72,0,0,1-9.26,0Zm90.8,0h9.26V57.69a4.72,4.72,0,0,1-9.26,0Zm4.54,26.16a15.63,15.63,0,0,0,15.44-14h2.36a9.09,9.09,0,0,1,9.08,9.08v75.37a9.09,9.09,0,0,1-9.08,9.08H36.62a9.09,9.09,0,0,1-9.08-9.08V68.4a9.09,9.09,0,0,1,9.08-9.08H39a15.62,15.62,0,0,0,30.87,0h59.93A15.63,15.63,0,0,0,145.4,73.31Z"/></svg>