<svg id="Icons" xmlns="http://www.w3.org/2000/svg" viewBox="0 0 200 200"><title>284-tickets</title><path d="M161.76,88.73h0l-10.08-7s-9.34,9.1-18.67,2.57-4.1-19.11-4.1-19.11l-9.61-6.72c-3-2.11-5.86,1.21-5.86,1.21L102.79,74.86,106,77.12a1.71,1.71,0,0,1,.21,2.49c-1.44,2.06-2.78,1.33-2.78,1.33l-3-2.11L51.85,148.26c-2,2.81.53,5.38.53,5.38l9.54,6.67s8.11-10.57,19.36-2.7,4.31,19.11,4.31,19.11l9.5,6.65c3.12,2.18,5.77-1,5.77-1L149.1,113.4l-1.65-1.15s-2.7-1.81-1.1-4.1c1.82-2.59,3.73-1.12,3.73-1.12l2.2,1.54L162.5,94C164.37,91.28,161.76,88.73,161.76,88.73Zm-46.29-2h0a2,2,0,0,1-2.82.79l-2.56-1.79c-1.73-1.22.31-3.36.31-3.36.91-1.31,2.61-.27,2.61-.27l2.56,1.79S116.77,84.84,115.47,86.69ZM124.54,93a2,2,0,0,1-2.82.78s-.83-.57-2.56-1.79.31-3.36.31-3.36c.91-1.3,2.61-.26,2.61-.26l2.56,1.79S125.84,91.19,124.54,93Zm9.11,6.37a2,2,0,0,1-2.83.78l-2.55-1.79c-1.74-1.21.31-3.36.31-3.36.91-1.3,2.61-.26,2.61-.26l2.56,1.79S134.94,97.56,133.65,99.41ZM143,106h0a2,2,0,0,1-2.82.79L137.63,105c-1.73-1.22.31-3.36.31-3.36.91-1.31,2.61-.27,2.61-.27l2.56,1.79S144.31,104.11,143,106Z"/><path d="M106.72,54.32a2.46,2.46,0,0,1-.2-1.82c.75-3.08,3.07-2.4,3.07-2.4h0l4.16-6c1-4.14,2.19-9,2.61-10.72.77-3.17-2.59-4.59-2.59-4.59h0l-12-2.91s-5.38,11.87-16.45,9.18S74.64,18.76,74.64,18.76L63.25,16c-3.58-.87-5,3.26-5,3.26l-4.4,18.06,3.83.93a1.7,1.7,0,0,1,1.09,2.25c-.59,2.44-2.1,2.25-2.1,2.25l-3.58-.87-20,82.33c-.82,3.34,2.44,4.82,2.44,4.82l11.31,2.75s3-10.18,13.08-10.07ZM96.3,49.45c.38-1.55,2.34-1.2,2.34-1.2l3,.74s1.47.49.94,2.68h0a2,2,0,0,1-2.35,1.76l-3-.74C95.18,52.19,96.3,49.45,96.3,49.45Zm-11.1-2.7c.37-1.55,2.34-1.2,2.34-1.2l3,.74s1.48.48.94,2.68a2,2,0,0,1-2.35,1.76l-3-.74C84.08,49.49,85.2,46.75,85.2,46.75ZM74.4,44.12c.38-1.55,2.34-1.2,2.34-1.2l3,.74s1.48.49.94,2.69a2,2,0,0,1-2.34,1.75l-3-.74C73.28,46.86,74.4,44.12,74.4,44.12ZM63.64,41.5C64,40,66,40.3,66,40.3L69,41s1.48.49.95,2.69h0a2,2,0,0,1-2.34,1.75l-3-.73C62.52,44.25,63.64,41.5,63.64,41.5Z"/></svg>