<svg id="Icons" xmlns="http://www.w3.org/2000/svg" viewBox="0 0 200 200"><title>285-lit-face</title><polygon points="19.32 165.3 42.37 165.3 42.37 143.29 160.77 143.29 160.77 165.3 183.82 165.3 183.82 128.63 19.32 128.63 19.32 165.3"/><path d="M35.72,77h13.1a18.34,18.34,0,0,1-.42-3.79c0-12.23,12-22.14,26.85-22.14S102.1,61,102.1,73.23c0,.85,2.88.87,2.88,0,0-12.23,12-22.14,26.85-22.14S158.67,61,158.67,73.23a18.34,18.34,0,0,1-.42,3.79h10.49A2.24,2.24,0,0,0,171,74.77V37a2.25,2.25,0,0,0-2.24-2.26h-133A2.26,2.26,0,0,0,33.47,37V74.77A2.25,2.25,0,0,0,35.72,77Z"/><path d="M183.82,107.54c0-9.16-10.95-17.35-28.23-23a158.46,158.46,0,0,0-31.45-6.48c-6.06-.67-12.42-1.06-19-1.21-1.09,0-2.17,0-3.27-.06-.64,0-1.27,0-1.91,0a221.59,221.59,0,0,0-24.14,1.31,169.58,169.58,0,0,0-25.41,4.68C29.7,88.36,16.18,97.36,16.18,107.54a13.62,13.62,0,0,0,2.95,8H180.87A13.62,13.62,0,0,0,183.82,107.54Z"/></svg>