<svg id="Icons" xmlns="http://www.w3.org/2000/svg" viewBox="0 0 200 200"><defs><style>.cls-1{fill:#12110b;}</style></defs><title>286-toque</title><path class="cls-1" d="M142.06,36.46a41.48,41.48,0,0,0-16.47,3.38,36.9,36.9,0,0,0-7.68,4.37,54,54,0,1,0-70.64,75.06c2.4,1.17,4.06,1.78,4.06,1.78v57.63a4.91,4.91,0,0,0,4.91,4.9h88.27a4.91,4.91,0,0,0,4.91-4.9V119.19a41.69,41.69,0,0,0-7.36-82.73Zm-2.45,137.31H61.14V159.06h78.47ZM144.19,110a4.9,4.9,0,0,0-4.58,4.89v34.41H117.54V129.63a4.91,4.91,0,0,0-9.81,0v19.62H93V119.83a4.91,4.91,0,1,0-9.81,0v29.42H61.14V117.58a4.91,4.91,0,0,0-3.43-4.68,44.15,44.15,0,1,1,57.38-42.12,4.91,4.91,0,1,0,9.81,0A53.77,53.77,0,0,0,122,53.36,31.88,31.88,0,1,1,144.19,110Z"/></svg>