<svg id="Icons" xmlns="http://www.w3.org/2000/svg" viewBox="0 0 200 200"><defs><style>.cls-1{fill:#000100;}</style></defs><title>287-poubelle</title><path class="cls-1" d="M42,173.55a10.52,10.52,0,0,0,10.53,10.5h94.86A10.52,10.52,0,0,0,158,173.55V65.47H42ZM142,75.88v87.4a8.17,8.17,0,0,1-16.34,0V75.88Zm-50.17,0h16.35v87.4a8.18,8.18,0,0,1-16.35,0Zm-17.74,0v87.4a8.17,8.17,0,0,1-16.33,0V75.88Z"/><path class="cls-1" d="M158,27.19H116.58v-6S116.39,16,111.12,16H88.52c-5.26,0-5.08,5.25-5.08,5.25v6H42A10.53,10.53,0,0,0,31.5,37.7V55h137V37.7A10.53,10.53,0,0,0,158,27.19Z"/></svg>