<svg id="Icons" xmlns="http://www.w3.org/2000/svg" viewBox="0 0 200 200"><defs><style>.cls-1{fill:#000100;}</style></defs><title>288-oeuil-barré</title><rect class="cls-1" x="19.84" y="87.5" width="160.71" height="25.02" transform="translate(-41.37 100.14) rotate(-45)"/><path class="cls-1" d="M140.57,98.48,110,129A41.61,41.61,0,0,0,140.57,98.48Z"/><path class="cls-1" d="M164.63,74.42l-11,11A79.2,79.2,0,0,1,165.44,100a79.11,79.11,0,0,1-24.26,24.4,76.09,76.09,0,0,1-38.46,11.92l-14.8,14.8a92.1,92.1,0,0,0,12.28.83c36.25,0,67.67-21.11,83.12-51.95A95.64,95.64,0,0,0,164.63,74.42Z"/><path class="cls-1" d="M46.79,114.56A80.24,80.24,0,0,1,35,100a78.9,78.9,0,0,1,24.26-24.4c.63-.41,1.28-.8,1.93-1.19a41.58,41.58,0,0,0-.67,26.46L70.76,90.59a15.58,15.58,0,0,1,21-21l20.72-20.72a93.77,93.77,0,0,0-12.27-.82c-36.26,0-67.69,21.11-83.13,52a95.43,95.43,0,0,0,18.69,25.58Z"/></svg>