<svg id="Icons" xmlns="http://www.w3.org/2000/svg" viewBox="0 0 200 200"><title>289-fleche-07</title><path d="M128.07,181.84l.25,0a2.61,2.61,0,0,0,1.45-.56,2.25,2.25,0,0,0,.36-.24l40-40a3,3,0,0,0,0-4.11l-5.68-5.68a3,3,0,0,0-4.11,0l-23.52,23.52q0-31.44,0-62.9a2.94,2.94,0,0,0-2.91-2.9h-10a3,3,0,0,0-2.91,2.9v64.47L95.85,131.26a3,3,0,0,0-4.11,0l-5.68,5.67a3,3,0,0,0,0,4.11l40,40a2.65,2.65,0,0,0,1.82.8Z"/><path d="M79.06,108.13V43.66l25.08,25.08a3,3,0,0,0,4.11,0l5.68-5.67a3,3,0,0,0,0-4.11L74,19a2.65,2.65,0,0,0-1.82-.8l-.23,0-.25,0a2.61,2.61,0,0,0-1.45.56,2.25,2.25,0,0,0-.36.24l-40,40a3,3,0,0,0,0,4.11c1.89,1.89,3.79,3.78,5.68,5.68a3,3,0,0,0,4.11,0L63.22,45.23v62.89A3,3,0,0,0,66.12,111h10A2.94,2.94,0,0,0,79.06,108.13Z"/></svg>