<svg id="Icons" xmlns="http://www.w3.org/2000/svg" viewBox="0 0 200 200"><title>290-campos-02</title><path id="Forme_3021" data-name="Forme 3021" d="M148.24,148.14a68,68,0,0,1-45.34,19.93V156.42a2.91,2.91,0,0,0-5.81,0v11.65a68.24,68.24,0,0,1-65.26-65.31H43.45a2.9,2.9,0,1,0,0-5.79H31.81a68.23,68.23,0,0,1,65.27-65.3V43.31a2.91,2.91,0,0,0,5.81,0V31.67A68.23,68.23,0,0,1,168.15,97h-11.6a2.9,2.9,0,0,0,0,5.79h11.67a67.73,67.73,0,0,1-19.93,45.38m25.8-48.27v-.34A74.06,74.06,0,0,0,100.4,25.81h-.77A74.05,74.05,0,0,0,25.94,99.53v.6a74.06,74.06,0,0,0,148.12,0v-.26m-72.21,26.52L94.7,107.47a2.73,2.73,0,0,0-1.7-1.68l-18.92-7.2,46-18.25Zm22.34-53.93L64.94,96a2.93,2.93,0,0,0,0,5.45l24.72,9.29,9.34,24.78a3.09,3.09,0,0,0,2.69,1.89h0a3,3,0,0,0,2.7-1.89l23.47-59.25a2.85,2.85,0,0,0-.68-3.09,3,3,0,0,0-3.12-.68h.08Z"/></svg>