<svg id="Icons" xmlns="http://www.w3.org/2000/svg" viewBox="0 0 200 200"><title>291-deplacement-fleche</title><path d="M174.83,99.84a1.83,1.83,0,0,0-.38-1,2.13,2.13,0,0,0-.16-.25q-13.53-13.53-27.06-27a2,2,0,0,0-2.78,0l-3.85,3.85a2,2,0,0,0,0,2.78l15.92,15.92H105.9V43.51l15.93,15.91a2,2,0,0,0,2.78,0l3.85-3.84a2,2,0,0,0,0-2.78l-27.07-27a1.81,1.81,0,0,0-1.23-.54l-.15,0h0l-.17,0a1.75,1.75,0,0,0-1,.38l-.25.16L71.55,52.8a2,2,0,0,0,0,2.78l3.85,3.85a2,2,0,0,0,2.79,0L94.1,43.51l1.06-.11V94.11H43.47L59.4,78.19a2,2,0,0,0,0-2.78l-3.84-3.85a2,2,0,0,0-2.78,0L25.72,98.61a1.82,1.82,0,0,0-.55,1.22,1,1,0,0,1,0,.17.88.88,0,0,1,0,.16,1.76,1.76,0,0,0,.39,1,1.32,1.32,0,0,0,.16.25q13.52,13.53,27.06,27a2,2,0,0,0,2.78,0l3.85-3.84a2,2,0,0,0,0-2.78L43.48,105.89l-.11-1H95.16v52.71l-17-17a2,2,0,0,0-2.78,0l-3.85,3.84a2,2,0,0,0,0,2.78l27.06,27.05a1.77,1.77,0,0,0,1.23.54l.16,0h0l.17,0a1.86,1.86,0,0,0,1-.38,2,2,0,0,0,.24-.16l27.07-27.05a2,2,0,0,0,0-2.78l-3.86-3.85a2,2,0,0,0-2.78,0L105.9,156.49V104.84h51.69l-17,17a2,2,0,0,0,0,2.78l3.85,3.85a2,2,0,0,0,2.78,0l27.06-27a1.81,1.81,0,0,0,.54-1.22,1,1,0,0,0,0-.17A.88.88,0,0,0,174.83,99.84Z"/></svg>