<?xml version="1.0" encoding="UTF-8"?>
<svg width="50px" height="50px" viewBox="0 0 50 50" version="1.1" xmlns="http://www.w3.org/2000/svg" xmlns:xlink="http://www.w3.org/1999/xlink">
    <!-- Generator: Sketch 52.2 (67145) - http://www.bohemiancoding.com/sketch -->
    <title>013-smiley-excellent</title>
    <desc>Created with Sketch.</desc>
    <g id="013-smiley-excellent" stroke="none" stroke-width="1" fill="none" fill-rule="evenodd">
        <g id="Group" transform="translate(3.995000, 3.995000)" fill-rule="nonzero">
            <g id="007-smiley-excellent">
                <g id="ICONSET-01">
                    <g id="007-smiley-excellent">
                        <path d="M35.7056993,6.30710133 C27.5865327,-1.80633151 14.4278881,-1.80323284 6.3125435,6.31402301 C-1.80280107,14.4312789 -1.80280107,27.5899238 6.3125435,35.7071798 C14.4278881,43.8244354 27.5865327,43.8275341 35.7056993,35.7141013 C43.8163661,27.5895041 43.8163661,14.4316985 35.7056993,6.30710133 Z" id="Shape-path" stroke="#000000" stroke-width="4"></path>
                        <path d="M31.00338,24.1529493 C31.1082672,24.3108423 31.1261825,24.5110707 31.0509913,24.685076 C29.3705913,28.5668 25.449658,31.0733967 21.0330067,31.0733967 C16.535136,31.0733967 12.577794,28.5527967 10.9506067,24.6542687 C10.8780776,24.4801233 10.8980785,24.2811667 11.0038193,24.1249427 C11.1075174,23.9695163 11.2818864,23.8760293 11.46873,23.8756833 L30.5132633,23.8980887 C30.7031628,23.8977918 30.8802801,23.9937304 30.9837753,24.1529493 L31.00338,24.1529493 Z M13.535622,16.804 C12.8052689,15.8032064 12.9444109,14.4132583 13.8586538,13.5770985 C14.7728968,12.7409387 16.1697132,12.7261104 17.101501,13.5426734 C18.0332888,14.3592363 18.2019066,15.7459173 17.492964,16.76199 C17.0314342,16.1252343 16.2898173,15.7517805 15.5034345,15.7601285 C14.7170518,15.7684765 13.9835301,16.15759 13.535622,16.804 Z M24.550644,16.804 C23.9337394,15.9528558 23.9345739,14.8014071 24.5527116,13.9511579 C25.1708494,13.1009088 26.2659012,12.7449646 27.2658242,13.0692667 C28.2657474,13.3935687 28.9434426,14.3244627 28.94489,15.37566 C28.9495245,15.8766779 28.7967,16.3665002 28.507986,16.7759933 C28.0470694,16.1392475 27.3058635,15.765714 26.5198485,15.774064 C25.7338334,15.7824141 25.0007301,16.1716095 24.5534447,16.8180033 L24.550644,16.804 Z" id="Shape" fill="#000000"></path>
                    </g>
                </g>
            </g>
        </g>
    </g>
</svg>