<?xml version="1.0" encoding="UTF-8"?>
<svg width="50px" height="50px" viewBox="0 0 50 50" version="1.1" xmlns="http://www.w3.org/2000/svg" xmlns:xlink="http://www.w3.org/1999/xlink">
    <!-- Generator: Sketch 52.2 (67145) - http://www.bohemiancoding.com/sketch -->
    <title>014-livre</title>
    <desc>Created with Sketch.</desc>
    <g id="014-livre" stroke="none" stroke-width="1" fill="none" fill-rule="evenodd" stroke-linejoin="round">
        <path d="M12,10.3256252 L12,34.6661083 C20.6666667,34.8048005 25,36.1223765 25,38.6188363 C25,42.363526 25,17.398928 25,12.6140467 C22.2485066,10.2562791 17.9151733,9.49347192 12,10.3256252 Z" id="Path" stroke="#000000" stroke-width="3.36000013" fill-rule="nonzero"></path>
        <polyline id="Path-2" stroke="#000000" stroke-width="4" fill-rule="nonzero" points="11.25 14 5.50097656 14 5.50097656 40 25 40"></polyline>
        <path d="M25,10.3256252 L25,34.6661083 C33.6666667,34.8048005 38,36.1223765 38,38.6188363 C38,42.363526 38,17.398928 38,12.6140467 C35.2485066,10.2562791 30.9151733,9.49347192 25,10.3256252 Z" id="Path" stroke="#000000" stroke-width="3.36000013" fill-rule="nonzero" transform="translate(31.500000, 24.500000) scale(-1, 1) translate(-31.500000, -24.500000) "></path>
        <polyline id="Path-2" stroke="#000000" stroke-width="4" fill-rule="nonzero" points="39.0009766 14 44.75 14 44.75 40 25 40"></polyline>
    </g>
</svg>