<svg height="50" viewBox="0 0 50 50" width="50" xmlns="http://www.w3.org/2000/svg"><path d="m26.6800001 34.5065633c2.1770643-.8739672 5.4010969-1.3306316 9.6399998-1.4787068v-21.2121687c-4.3076305-.4233744-7.5068311.1441024-9.6399998 1.6217515zm-1.6800001-23.9895432c3.1470538-2.06600768 7.575922-2.65100354 13.2340397-1.85501315.8292482.11665958 1.4459604.82620434 1.4459604 1.66361825v1.6743748h5.0699999c1.1045695 0 2 .8954305 2 2v26c0 1.1045695-.8954305 2-2 2h-19.75-19.49902344c-1.1045695 0-2-.8954305-2-2v-26c0-1.1045695.8954305-2 2-2h4.81902334v-1.6743748c0-.83741391.6167122-1.54695867 1.4459604-1.66361825 5.6581177-.79599039 10.0869859-.21099453 13.2340397 1.85501315zm-1.6800001 2.9204192c-2.1331687-1.4776491-5.3323693-2.0451259-9.6399998-1.6217515v21.2121687c4.2389029.1480752 7.4629355.6047396 9.6399998 1.4787068zm-.555192 24.5625607c-.3532276-.2202533-.8547361-.437078-1.5035301-.6343477-1.9873249-.6042581-5.0978564-.9527018-9.2881593-1.019759-.91724-.0146785-1.6531186-.7624276-1.6531186-1.679785v-18.6661083h-2.81902334v22zm4.4703842 0h15.5148079v-22h-3.0699999v18.6661083c0 .9173574-.7358786 1.6651065-1.6531186 1.679785-4.1903029.0670572-7.3008344.4155009-9.2881593 1.019759-.648794.1972697-1.1503025.4140944-1.5035301.6343477z"/></svg>