<?xml version="1.0" encoding="UTF-8"?>
<svg width="50px" height="50px" viewBox="0 0 50 50" version="1.1" xmlns="http://www.w3.org/2000/svg" xmlns:xlink="http://www.w3.org/1999/xlink">
    <!-- Generator: Sketch 52.2 (67145) - http://www.bohemiancoding.com/sketch -->
    <title>015-horloge</title>
    <desc>Created with Sketch.</desc>
    <g id="015-horloge" stroke="none" stroke-width="1" fill="none" fill-rule="evenodd">
        <g id="Group" transform="translate(1.995000, 1.995000)" fill="#000000" fill-rule="nonzero">
            <g id="013-horloge">
                <g id="ICONSET-01">
                    <g id="013-horloge">
                        <path d="M24.105662,22.9265813 L32.9221607,32.37323 L31.2417607,34.1012413 L20.576822,24.618184 L20.383576,23.1254287 L21.1425567,8.87563667 L23.357884,8.87563667 L24.105662,22.9265813 Z M41.8615647,23.005 C41.8615647,18.0039281 39.8748966,13.2076871 36.3386047,9.67139525 C32.8023129,6.13510341 28.0060719,4.14843533 23.005,4.14843533 C12.5908069,4.14843533 4.14843533,12.5908069 4.14843533,23.005 C4.14843533,33.419193 12.5908069,41.8615647 23.005,41.8615647 C33.419193,41.8615647 41.8615647,33.419193 41.8615647,23.005 Z M45.8615647,23.005 C45.8615647,35.628332 35.628332,45.8615647 23.005,45.8615647 C10.3816679,45.8615647 0.148435333,35.628332 0.148435333,23.005 C0.148435333,10.3816679 10.3816679,0.148435333 23.005,0.148435333 C29.0669379,0.148435333 34.8805946,2.55653078 39.1670319,6.84296813 C43.4534692,11.1294055 45.8615647,16.9430622 45.8615647,23.005 Z" id="Combined-Shape"></path>
                    </g>
                </g>
            </g>
        </g>
    </g>
</svg>