<?xml version="1.0" encoding="UTF-8"?>
<svg width="50px" height="50px" viewBox="0 0 50 50" version="1.1" xmlns="http://www.w3.org/2000/svg" xmlns:xlink="http://www.w3.org/1999/xlink">
    <!-- Generator: Sketch 52.2 (67145) - http://www.bohemiancoding.com/sketch -->
    <title>016-bulle</title>
    <desc>Created with Sketch.</desc>
    <g id="016-bulle" stroke="none" stroke-width="1" fill="none" fill-rule="evenodd">
        <g id="Group" transform="translate(3.995000, 4.802885)" fill-rule="nonzero">
            <g id="015-bulle-02">
                <g id="ICONSET-01">
                    <g id="015-bulle-02">
                        <path d="M41.5899,33.7103321 L39.1366237,27.0075827 C42.4803213,17.7216554 38.5765292,7.38280414 29.9298532,2.62425863 C21.2831773,-2.13428688 10.460054,0.0998662479 4.4044136,7.89332369 C-1.65122679,15.6867811 -1.14199817,26.726352 5.60538714,33.929237 C12.3527724,41.1321219 23.3356102,42.3604189 31.5075,36.8260737 L36.4302103,38.754225 C37.0172661,38.9931122 37.6438304,39.1200691 38.2775731,39.1285449 C39.4617712,39.1527251 40.5811209,38.5890166 41.2667462,37.6231865 C41.7003109,37.0091942 42.3143032,35.6815705 41.5925929,33.7103321 L41.5899,33.7103321 Z" id="Shape" stroke="#000000" stroke-width="4"></path>
                        <path d="M30.2498929,20.2455885 C30.2553464,21.143202 29.7188343,21.9554675 28.8911075,22.3027547 C28.063381,22.6500418 27.1079123,22.4637629 26.4712608,21.8309794 C25.8346095,21.1981959 25.6425116,20.2438801 25.9847483,19.4140525 C26.326985,18.5842248 27.1359661,18.042773 28.0335962,18.0427564 C29.2523841,18.0427339 30.2424884,19.0268231 30.2498929,20.2455885 Z" id="Shape" fill="#000000"></path>
                        <path d="M22.0821795,20.2455885 C22.0895931,21.4695823 21.1033679,22.4678394 19.8793742,22.475268 C18.6553805,22.4826967 17.6571112,21.4964838 17.6496675,20.2724902 C17.6422238,19.0484965 18.6284244,18.0502152 19.8524179,18.0427564 C20.4402197,18.0391745 21.0053683,18.2692482 21.4235321,18.6823616 C21.8416959,19.0954751 22.0786192,19.6577866 22.0821795,20.2455885 Z" id="Shape" fill="#000000"></path>
                        <path d="M13.8848436,20.2455885 C13.8902978,21.143447 13.3534946,21.955884 12.5254363,22.3030139 C11.697378,22.6501439 10.7416964,22.4633709 10.1052562,21.8300278 C9.468816,21.1966846 9.27738343,20.2419254 9.62046997,19.4121837 C9.96355651,18.582442 10.7733653,18.041682 11.6712397,18.0427564 C12.8895851,18.042742 13.8789149,19.0272576 13.8848436,20.2455885 Z" id="Shape" fill="#000000"></path>
                    </g>
                </g>
            </g>
        </g>
    </g>
</svg>