<?xml version="1.0" encoding="UTF-8"?>
<svg width="50px" height="50px" viewBox="0 0 50 50" version="1.1" xmlns="http://www.w3.org/2000/svg" xmlns:xlink="http://www.w3.org/1999/xlink">
    <!-- Generator: Sketch 52.2 (67145) - http://www.bohemiancoding.com/sketch -->
    <title>016-bulle</title>
    <desc>Created with Sketch.</desc>
    <g id="016-bulle" stroke="none" stroke-width="1" fill="none" fill-rule="evenodd">
        <g id="Group" transform="translate(1.995000, 2.802885)" fill="#000000" fill-rule="nonzero">
            <g id="015-bulle-02">
                <g id="ICONSET-01">
                    <g id="015-bulle-02">
                        <path d="M45.4706771,35.0227275 C46.3046568,37.3006124 45.9470172,39.2947862 44.8976031,40.7809023 C43.8285438,42.2868701 42.0832009,43.1658311 40.2508271,43.128366 C39.3676578,43.1165544 38.494492,42.9396301 37.700797,42.61647 L33.7288336,41.0607119 C24.8501493,46.4715011 13.320485,44.9556027 6.14577499,37.2965455 C-1.27397717,29.3759037 -1.83394966,17.2362561 4.82512625,8.6661923 C11.4842022,0.0961284657 23.3858336,-2.36065469 32.8941378,2.87207278 C42.1853584,7.98533206 46.4965053,18.9579662 43.2577602,28.9840367 L44.9876337,33.7103321 L45.4706771,35.0227275 Z M39.0089087,29.013155 L39.2548982,28.3300067 C42.2654014,19.9694082 38.7506162,10.660808 30.9655687,6.37644449 C23.1805211,2.09208092 13.4359058,4.10360403 7.98370096,11.1204551 C2.53149607,18.1373061 2.98998083,28.0768003 9.06499927,34.5619285 C15.1400177,41.0470567 25.0284321,42.1529557 32.3860053,37.1700998 L33.2572005,36.58009 L34.2369132,36.9638287 L39.1840361,38.9017276 C39.5400402,39.0465942 39.920003,39.1235838 40.3184028,39.1289617 C40.8403415,39.1396192 41.333698,38.8911631 41.633009,38.4695388 C41.9408382,38.0336069 42.0593905,37.4381918 41.7657391,36.5452637 L39.0089087,29.013155 Z M32.2498929,22.2455885 C32.2553464,23.143202 31.7188343,23.9554675 30.8911075,24.3027547 C30.063381,24.6500418 29.1079123,24.4637629 28.4712608,23.8309794 C27.8346095,23.1981959 27.6425116,22.2438801 27.9847483,21.4140525 C28.326985,20.5842248 29.1359661,20.042773 30.0335962,20.0427564 C31.2523841,20.0427339 32.2424884,21.0268231 32.2498929,22.2455885 Z M24.0821795,22.2455885 C24.0895931,23.4695823 23.1033679,24.4678394 21.8793742,24.475268 C20.6553805,24.4826967 19.6571112,23.4964838 19.6496675,22.2724902 C19.6422238,21.0484965 20.6284244,20.0502152 21.8524179,20.0427564 C22.4402197,20.0391745 23.0053683,20.2692482 23.4235321,20.6823616 C23.8416959,21.0954751 24.0786192,21.6577866 24.0821795,22.2455885 Z M15.8848436,22.2455885 C15.8902978,23.143447 15.3534946,23.955884 14.5254363,24.3030139 C13.697378,24.6501439 12.7416964,24.4633709 12.1052562,23.8300278 C11.468816,23.1966846 11.2773834,22.2419254 11.62047,21.4121837 C11.9635565,20.582442 12.7733653,20.041682 13.6712397,20.0427564 C14.8895851,20.042742 15.8789149,21.0272576 15.8848436,22.2455885 Z" id="Combined-Shape"></path>
                    </g>
                </g>
            </g>
        </g>
    </g>
</svg>