<svg height="50" viewBox="0 0 50 50" width="50" xmlns="http://www.w3.org/2000/svg"><path d="m23.5 27.8032955 6.984673-8.1085863c.7208922-.836892 1.9837259-.9309284 2.8206178-.2100362.836892.7208922.9309284 1.9837259.2100362 2.8206178l-10.3367064 12c-.7897872.916873-2.2065282.9277924-3.0103542.0232021l-10.66329369-12c-.73370637-.8256808-.65914639-2.0898138.16653438-2.8235202.82568081-.7337064 2.08981381-.6591464 2.82352021.1665344l7.0049727 7.8830871v-25.5545942c0-1.1045695.8954305-2 2-2s2 .8954305 2 2zm15.5 2.905195c0-1.1045695.8954305-2 2-2s2 .8954305 2 2v11.2915095c0 1.1045695-.8954305 2-2 2h-38.15625c-1.1045695 0-2-.8954305-2-2v-11.2915095c0-1.1045695.8954305-2 2-2s2 .8954305 2 2v9.2915095h34.15625z" transform="translate(3 2)"/></svg>