<svg height="50" viewBox="0 0 50 50" width="50" xmlns="http://www.w3.org/2000/svg"><path d="m33.25 11h-6.05v2.5c0 1.1045695-.8954305 2-2 2s-2-.8954305-2-2v-2.5h-5.7v2.5c0 1.1045695-.8954305 2-2 2s-2-.8954305-2-2v-2.5h-2.5c-1.1045695 0-2 .8954305-2 2v6.5h32v-6.5c0-1.1045695-.8954305-2-2-2h-1.75v2.5c0 1.1045695-.8954305 2-2 2s-2-.8954305-2-2zm0-4v-2.5c0-1.1045695.8954305-2 2-2s2 .8954305 2 2v2.5h1.75c3.3137085 0 6 2.6862915 6 6v28c0 3.3137085-2.6862915 6-6 6h-28c-3.3137085 0-6-2.6862915-6-6v-28c0-3.3137085 2.6862915-6 6-6h2.5v-2.5c0-1.1045695.8954305-2 2-2s2 .8954305 2 2v2.5h5.7v-2.5c0-1.1045695.8954305-2 2-2s2 .8954305 2 2v2.5zm-24.25 16.5v17.5c0 1.1045695.8954305 2 2 2h28c1.1045695 0 2-.8954305 2-2v-17.5z"/></svg>