<?xml version="1.0" encoding="UTF-8"?>
<svg width="50px" height="50px" viewBox="0 0 50 50" version="1.1" xmlns="http://www.w3.org/2000/svg" xmlns:xlink="http://www.w3.org/1999/xlink">
    <!-- Generator: Sketch 52.4 (67378) - http://www.bohemiancoding.com/sketch -->
    <title>019-oeuil</title>
    <desc>Created with Sketch.</desc>
    <g id="019-oeuil" stroke="none" stroke-width="1" fill="none" fill-rule="evenodd">
        <g id="Group" transform="translate(2.995000, 9.746845)" fill="#000000" fill-rule="nonzero">
            <g id="028-oeuil">
                <g id="ICONSET-01">
                    <g id="028-oeuil">
                        <path d="M30.4121002,6.59067295 C31.4169451,8.15009223 32,10.0069562 32,12 C32,17.5228475 27.5228475,22 22,22 C16.4771525,22 12,17.5228475 12,12 C12,10.0097914 12.5813972,8.1553755 13.583614,6.59732985 C9.73317806,8.39339932 6.47774825,11.4011249 4.32798116,15.2531548 C7.92365438,21.6960111 14.6124726,25.7768854 22.005,25.7768854 C29.3975274,25.7768854 36.0863456,21.6960111 39.6820188,15.2531548 C37.5295936,11.3963619 34.2687696,8.38596257 30.4121002,6.59067295 Z M22.005,0.729424077 C31.2750394,0.729424077 39.6069272,6.0687175 43.7331148,14.362287 C44.0122752,14.9233949 44.0122752,15.5829146 43.7331148,16.1440226 C39.6069272,24.437592 31.2750394,29.7768854 22.005,29.7768854 C12.7349606,29.7768854 4.40307282,24.437592 0.27688522,16.1440226 C-0.00227523202,15.5829146 -0.00227523202,14.9233949 0.27688522,14.362287 C4.40307282,6.0687175 12.7349606,0.729424077 22.005,0.729424077 Z M18,15 C20.209139,15 22,13.209139 22,11 C22,8.790861 20.209139,7 18,7 C15.790861,7 14,8.790861 14,11 C14,13.209139 15.790861,15 18,15 Z" id="Combined-Shape"></path>
                    </g>
                </g>
            </g>
        </g>
    </g>
</svg>