<?xml version="1.0" encoding="UTF-8"?>
<svg width="50px" height="50px" viewBox="0 0 50 50" version="1.1" xmlns="http://www.w3.org/2000/svg" xmlns:xlink="http://www.w3.org/1999/xlink">
    <!-- Generator: Sketch 52.2 (67145) - http://www.bohemiancoding.com/sketch -->
    <title>019-oeuil</title>
    <desc>Created with Sketch.</desc>
    <g id="019-oeuil" stroke="none" stroke-width="1" fill="none" fill-rule="evenodd">
        <g id="Group" transform="translate(4.995000, 11.746845)" fill-rule="nonzero">
            <g id="028-oeuil">
                <g id="ICONSET-01">
                    <g id="028-oeuil">
                        <path d="M20.005,0.729424077 C11.3089137,0.729424077 3.76848517,5.8142651 0.067514881,13.2531548 C3.76848517,20.6920444 11.3089137,25.7768854 20.005,25.7768854 C28.7010863,25.7768854 36.2415148,20.6920444 39.9424851,13.2531548 C36.2415148,5.8142651 28.7010863,0.729424077 20.005,0.729424077 Z" id="Shape-path" stroke="#000000" stroke-width="4" stroke-linejoin="round"></path>
                        <path d="M20,20 C14.4771525,20 10,15.5228475 10,10 C10,4.4771525 14.4771525,0 20,0 C25.5228475,0 30,4.4771525 30,10 C30,15.5228475 25.5228475,20 20,20 Z M16,13 C18.209139,13 20,11.209139 20,9 C20,6.790861 18.209139,5 16,5 C13.790861,5 12,6.790861 12,9 C12,11.209139 13.790861,13 16,13 Z" id="Combined-Shape" fill="#000000"></path>
                    </g>
                </g>
            </g>
        </g>
    </g>
</svg>