<svg version="1.1" xmlns="http://www.w3.org/2000/svg" xmlns:xlink="http://www.w3.org/1999/xlink" x="0px" y="0px"
	 viewBox="0 0 50 50" enable-background="new 0 0 50 50" xml:space="preserve">
    <path d="M28.9,33.8L28.9,33.8c0.3-0.1,0.7,0,0.9,0.3c0.2,0.3,0.1,0.7-0.2,1c-1.4,1.1-3.1,1.7-4.8,1.7c-0.5,0-1-0.1-1.5-0.1
	c-1.4-0.3-2.4-1.1-2.9-2.2c-0.7-1.4-0.5-3.2,0.4-5l1.5-3.1c0.8-1.6,0.3-2,0.1-2.2c-0.1,0-0.2-0.1-0.6-0.1c-0.5,0-1.1,0.1-1.6,0.3
	c-0.3,0.1-0.7,0-0.9-0.3s-0.1-0.7,0.2-1c1.4-1.1,3.1-1.7,4.8-1.7c0.5,0,1,0,1.5,0.1c1.4,0.3,2.4,1.1,2.9,2.2c0.7,1.4,0.5,3.2-0.4,5
	l-1.5,3.1c-0.8,1.6-0.3,2-0.1,2.2c0.1,0,0.2,0.1,0.6,0.1C27.8,34.1,28.4,34,28.9,33.8z M31.4,16c0,2.1-1.7,3.9-3.8,3.9
	s-3.8-1.7-3.8-3.9s1.7-3.9,3.8-3.9S31.4,13.9,31.4,16z M42.2,25c0-4.6-1.8-9-5.1-12.2C34,9.6,29.6,7.8,25,7.8
	C15.5,7.8,7.8,15.5,7.8,25S15.5,42.2,25,42.2S42.2,34.5,42.2,25z M47.9,25c0,12.6-10.2,22.9-22.9,22.9S2.1,37.6,2.1,25
	S12.4,2.1,25,2.1c6.1,0,11.9,2.4,16.2,6.7S47.9,18.9,47.9,25z"/>
</svg>
