<?xml version="1.0" encoding="UTF-8"?>
<svg width="50px" height="50px" viewBox="0 0 50 50" version="1.1" xmlns="http://www.w3.org/2000/svg" xmlns:xlink="http://www.w3.org/1999/xlink">
    <!-- Generator: Sketch 52.2 (67145) - http://www.bohemiancoding.com/sketch -->
    <title>022-itineraire</title>
    <desc>Created with Sketch.</desc>
    <g id="022-itineraire" stroke="none" stroke-width="1" fill="none" fill-rule="evenodd">
        <g id="Group" transform="translate(3.995000, 12.997143)" fill-rule="nonzero">
            <g id="046-itineraire">
                <g id="ICONSET-01">
                    <g id="046-itineraire">
                        <path d="M36.0085714,4 C36.0085714,4 31.0071429,4 31.0071429,10.0014286 L31.0071429,19.0035714 C31.0071429,19.0035714 30.0071429,22.0042857 27.0064286,22.0042857 C24.0057143,22.0042857 23.0057143,19.0035714 23.0057143,19.0035714 L23.0057143,10.0014286 C23.0057143,10.0014286 24.0057143,4 18.0042857,4 C12.0028571,4 13.0028571,10.0014286 13.0028571,10.0014286 L13.0028571,19.0035714 C13.0028571,19.0035714 12.0028571,22.0042857 9.00214286,22.0042857 C6.00142857,22.0042857 5.00142857,19.0035714 5.00142857,19.0035714 L5.00142857,10.0014286 C5.00142857,10.0014286 6.00142857,4 0,4" id="Shape" stroke="#000000" stroke-width="4" stroke-linecap="round"></path>
                        <polygon id="Path-4" fill="#000000" transform="translate(39.000714, 4.250408) rotate(-90.000000) translate(-39.000714, -4.250408) " points="34.7503061 1.25469388 39.0668157 7.24612245 43.2511224 1.25469388"></polygon>
                    </g>
                </g>
            </g>
        </g>
    </g>
</svg>