<svg height="50" viewBox="0 0 50 50" width="50" xmlns="http://www.w3.org/2000/svg"><path d="m18.4763768 34.3520504-9.60752425 9.6075242c-.78104859.7810486-2.04737855.7810486-2.82842713 0s-.78104858-2.0473786 0-2.8284271l9.60752418-9.6075243c-2.2845423-2.8945853-3.6479496-6.5498838-3.6479496-10.5236232 0-9.3888407 7.6111593-17 17-17s17 7.6111593 17 17-7.6111593 17-17 17c-3.9737394 0-7.6290379-1.3634073-10.5236232-3.6479496zm10.5236232-.3520504c7.1797017 0 13-5.8202983 13-13s-5.8202983-13-13-13-13 5.8202983-13 13 5.8202983 13 13 13z"/></svg>