<?xml version="1.0" encoding="UTF-8"?>
<svg width="50px" height="50px" viewBox="0 0 50 50" version="1.1" xmlns="http://www.w3.org/2000/svg" xmlns:xlink="http://www.w3.org/1999/xlink">
    <!-- Generator: Sketch 52.2 (67145) - http://www.bohemiancoding.com/sketch -->
    <title>035-fleche-precedent</title>
    <desc>Created with Sketch.</desc>
    <g id="035-fleche-precedent" stroke="none" stroke-width="1" fill="none" fill-rule="evenodd">
        <g id="Group-2-Copy" transform="translate(25.500000, 25.500000) rotate(-270.000000) translate(-25.500000, -25.500000) translate(10.000000, 4.000000)" fill="#000000" fill-rule="nonzero">
            <path d="M17.5,35.9242546 L27.5053483,24.6710846 C28.239288,23.8456112 29.5034421,23.7714085 30.3289154,24.5053483 C31.1543888,25.239288 31.2285915,26.5034421 30.4946517,27.3289154 L17.1579454,42.3289154 C16.3687789,43.2165032 14.9845216,43.2248291 14.1847355,42.3467983 L0.521441814,27.3467983 C-0.222374354,26.5302132 -0.163383449,25.265258 0.653201689,24.5214418 C1.46978683,23.7776256 2.73474202,23.8366166 3.47855819,24.6532017 L13.5,35.6550605 L13.5,2 C13.5,0.8954305 14.3954305,0 15.5,0 C16.6045695,0 17.5,0.8954305 17.5,2 L17.5,35.9242546 Z" id="Combined-Shape"></path>
        </g>
    </g>
</svg>