<?xml version="1.0" encoding="UTF-8"?>
<svg width="50px" height="50px" viewBox="0 0 50 50" version="1.1" xmlns="http://www.w3.org/2000/svg" xmlns:xlink="http://www.w3.org/1999/xlink">
    <!-- Generator: Sketch 52.2 (67145) - http://www.bohemiancoding.com/sketch -->
    <title>038-pin-contour</title>
    <desc>Created with Sketch.</desc>
    <g id="038-pin-contour" stroke="none" stroke-width="1" fill="none" fill-rule="evenodd">
        <g id="Group" transform="translate(8.496548, 1.995000)" fill="#000000" fill-rule="nonzero">
            <g id="050-pin">
                <g id="ICONSET-01">
                    <g id="050-pin">
                        <path d="M23.6326383,31.5140016 C27.2766549,25.4348344 28.5397078,22.5163507 28.8546664,18.1683889 C29.3992622,10.7020873 24.5476424,4.74963051 17.8782309,4.16231756 C13.7863249,3.801675 10.2908449,5.17760282 7.75116007,7.74420163 C5.20627461,10.3380768 3.84902001,13.7008836 4.13303903,17.9298289 C4.43940614,22.4923719 5.9912586,26.1715793 9.34094312,31.6021285 C11.7555825,35.5157501 14.1277105,38.6926074 16.6317665,41.2528766 C18.8272881,39.0112424 21.053848,35.8260296 23.6326383,31.5140016 Z M16.7385083,41.904975 L16.4884488,41.904975 L16.4884488,43.904975 L16.7385083,43.6353108 L16.7385083,41.904975 Z M16.7385083,45.904975 L16.4884488,45.904975 C15.9840979,45.904975 15.4983679,45.7144251 15.1285484,45.3714916 C11.8690298,42.348941 8.91331684,38.5268657 5.93661899,33.7022659 C2.27331486,27.7632729 0.502404312,23.5647119 0.142028099,18.1978433 C-0.221461655,12.7856062 1.57973386,8.32286764 4.90187431,4.93680102 C8.26193711,1.54109628 12.915278,-0.290600954 18.2292639,0.177750349 C27.1143375,0.960176029 33.5449851,8.84994331 32.8441405,18.458381 C32.4707883,23.6124638 31.011765,26.983768 27.0645218,33.568794 C23.8557456,38.9342313 21.1390418,42.6912814 18.1801094,45.29659 C17.830437,45.6642123 17.3341766,45.904975 16.7385083,45.904975 Z M7.17028333,15.730951 C7.59995697,11.0997381 11.4483739,7.52074811 16.2306748,7.34390261 C21.0792541,7.16460619 25.2946125,10.7598079 25.815519,15.504452 C26.6759927,23.2073931 19.2726184,28.5547723 12.5108222,25.4482782 C9.06277388,23.8575473 6.809662,20.2344268 7.16218567,15.8718245 C7.16322704,15.8250373 7.16591305,15.7780558 7.17028333,15.730951 Z M11.157076,16.1033914 C10.9063198,18.7925827 12.2021408,20.9007155 14.1835833,21.8148417 C18.115133,23.6210667 22.355213,20.5585017 21.8398277,15.9447519 C21.5485104,13.2913251 19.1421366,11.2389732 16.3784904,11.3411705 C13.6284132,11.4428661 11.4565001,13.4288485 11.1643309,15.9925659 C11.1629407,16.0294089 11.1605288,16.0663623 11.157076,16.1033914 Z" id="Combined-Shape"></path>
                    </g>
                </g>
            </g>
        </g>
    </g>
</svg>