<?xml version="1.0" encoding="UTF-8"?>
<svg width="50px" height="50px" viewBox="0 0 50 50" version="1.1" xmlns="http://www.w3.org/2000/svg" xmlns:xlink="http://www.w3.org/1999/xlink">
    <!-- Generator: Sketch 52.2 (67145) - http://www.bohemiancoding.com/sketch -->
    <title>038-pin-contour</title>
    <desc>Created with Sketch.</desc>
    <g id="038-pin-contour" stroke="none" stroke-width="1" fill="none" fill-rule="evenodd" stroke-linecap="round" stroke-linejoin="round">
        <g id="Group" transform="translate(10.496548, 3.995000)" fill-rule="nonzero" stroke="#000000" stroke-width="4">
            <g id="050-pin">
                <g id="ICONSET-01">
                    <g id="050-pin">
                        <path d="M14.7385083,41.904975 L14.4884488,41.904975 C11.1176464,38.779231 8.23696071,34.8632988 5.63884226,30.6522964 C3.16325298,26.6388411 0.532626786,21.9477244 0.137532738,16.0638238 C-0.225053571,10.6650387 1.85544167,6.85913274 4.32352917,4.34353393 C6.91664643,1.72291012 10.8900923,-0.285067857 16.0538214,0.170040476 C23.6356262,0.837699405 29.487019,7.57180238 28.8493673,16.3138833 C28.4392696,21.975231 25.9636804,26.1787315 23.3480577,30.5422702 C21.0525113,34.3806839 18.0342929,39.044294 14.7360077,41.9024744 L14.7385083,41.904975 Z" id="Shape"></path>
                        <path d="M7.16571453,13.917705 C6.79721827,17.8695784 9.00421208,20.5506376 11.348645,21.6322239 C16.5514139,24.02247 22.5330045,20.0387266 21.8278819,13.7264853 C21.423532,10.0435145 18.1289762,7.20111366 14.3045826,7.34253655 C10.480189,7.48395944 7.49437335,10.3303441 7.16173078,13.9157131 L7.16571453,13.917705 Z" id="Shape-path"></path>
                    </g>
                </g>
            </g>
        </g>
    </g>
</svg>