<svg height="50" viewBox="0 0 50 50" width="50" xmlns="http://www.w3.org/2000/svg"><path d="m34.5025 15.7921665c4.9208836.1873429 7.3824702 3.4843159 7.3824702 7.8234549v13.0506066h-7.3824702v.338772c0 2.7614237-2.2385763 5-5 5h-16.995c-2.76142375 0-5-2.2385763-5-5v-.338772h-7.38247024v-13.0506066c.00161877-5.0699931 2.46244218-7.6784239 7.38247024-7.8252921v-10.7853293c0-2.76142375 2.23857625-5 5-5h16.995c2.7614237 0 5 2.23857625 5 5zm-4 12.5878335h-18.995v8.625c0 .5522847.4477153 1 1 1h16.995c.5522847 0 1-.4477153 1-1zm-18.995-12.5962429h18.995v-10.7787571c0-.55228475-.4477153-1-1-1h-16.995c-.5522847 0-1 .44771525-1 1z" transform="translate(3.995 3.995)"/></svg>