<svg height="50" viewBox="0 0 50 50" width="50" xmlns="http://www.w3.org/2000/svg"><g transform="translate(3.995 4.495595)"><path d="m10.5250054 15.2656577h-2.61812326c-2.62062381 0-2.62062381 2.6181233-2.62062381 2.6181233v2.6206238h7.85937087v-2.6206238c0-2.6181233-2.6206238-2.6181233-2.6206238-2.6181233z"/><path d="m4.005 33.7544048v4.875c0 1.1045695-.8954305 2-2 2s-2-.8954305-2-2v-36.12500004c0-1.1045695.8954305-2 2-2s2 .8954305 2 2v20.00000004h7.5c1.1045695 0 2 .8954305 2 2s-.8954305 2-2 2h-7.5v3.25h7.5c1.1045695 0 2 .8954305 2 2s-.8954305 2-2 2zm28.7187417-14.4887471h-12.9574887v10.3393655h12.9574887zm1.3793762-4s2.6206238 0 2.6206238 2.6181233v13.1006184s0 2.6206238-2.6206238 2.6206238h-18.3368649v-15.7212422s0-2.6181233 2.6181232-2.6181233zm4.1518821.2387471c0-1.1045695.8954305-2 2-2s2 .8954305 2 2v23.125c0 1.1045695-.8954305 2-2 2s-2-.8954305-2-2z"/></g></svg>