<svg height="50" viewBox="0 0 50 50" width="50" xmlns="http://www.w3.org/2000/svg"><g fill="none" fill-rule="nonzero"><path d="m43.0700158 7.00120264c.5519581-.01912513 1.109247.18914552 1.5196572.62094615.5540577.58293486.6876628 1.4125344.410327 2.11429814v10.01355307c0 1.1045695-.8954305 2-2 2s-2-.8954305-2-2v-5.9567422l-11.6221488 11.0464152c-.8006274.7609663-2.0665491.7288145-2.8275153-.0718129-.7609662-.8006273-.7288145-2.0665491.0718129-2.8275153l11.5105501-10.9403448h-6.1326989c-1.1045695 0-2-.8954305-2-2s.8954305-2 2-2h11c.0234349 0 .0467757.00040306.0700158.00120264zm-5.0700158 21.44604326c0-1.1045695.8954305-2 2-2s2 .8954305 2 2v13.5527541c0 1.1045695-.8954305 2-2 2h-30c-1.1045695 0-2-.8954305-2-2v-30c0-1.1045695.8954305-2 2-2h14.6593844c1.1045695 0 2 .8954305 2 2s-.8954305 2-2 2h-12.6593844v26h26z" fill="#000"/><path d="m43.1400089 9-15.1400089 14.3900089" fill="#d8d8d8"/></g></svg>