<svg height="50" viewBox="0 0 50 50" width="50" xmlns="http://www.w3.org/2000/svg"><g fill="#000" fill-rule="nonzero"><path d="m34.5848112 31.7303814-3.8500379 3.7558011c-.1163991.11355-.2395804.2198636-.3688473.3183622-2.1045653 1.7350082-5.4909937 1.3421155-8.1868987-1.2882275l-.019291-.0182c-.0091526-.0086365-.0091526-.0086365-.0677159-.0646958-1.2954039-1.2648516-2.1740583-2.1215439-2.7095933-2.6423735-.1899191-.184704-.2778235-.2700105-.4067339-.3948251-.0900071-.0858541-.0900071-.0858541.0516774.0439539l-.1185551-.1083895c-.1183733-.1126693-1.0414733-1.0108936-3.271873-3.1868938-2.6003594-2.5350953-3.1163708-5.5399081-1.7156007-7.8188995.1723171-.2803524.3785717-.5383693.6140878-.7682014l3.7843757-3.6930413-5.566295-5.4314603-3.99229222 3.8952319c-1.47270817 2.6966036-.76372589 6.2981855 1.91787912 10.5920012 1.1067433 1.7721296 2.4650504 3.514218 3.9492895 5.1503591.552401.6089355 1.0921846 1.169619 1.6034426 1.6739408.34777.3430519.637117.6158105.8505443.8090315.0975815.088343.1907428.1814488.2791438.2789777.4174838.4605914 1.0382505 1.099265 1.8274935 1.8442985 1.1997792 1.1325734 2.5031044 2.2355296 3.870595 3.2372364 3.5455282 2.5971509 6.9441767 4.085977 9.7543626 4.0855924 1.141325 0 2.1795894-.2443115 3.1562217-.7592399l4.1818383-4.0792159zm6.3077545.5654181c-.6573077.662879-1.0847726 1.6107346-1.0847726 2.8435668l4 .0003961c1.1419109 1.1136633 1.1427227 2.9271287.0012178 4.0423762l-5.2995545 5.169505c-.1420792.1386138-.3077029.2487128-.4879406.3271287-1.6850594.930693-3.443594 1.3211881-5.207 1.3211881-8.6822574.0011881-17.4952277-9.4641584-18.4167128-10.4807921-1.2283763-1.1120792-14.74619805-13.6930693-8.96763369-23.4229703.07509901-.1425742.17374257-.2760396.29633663-.3952475l4.95450496-4.83405941c1.141099-1.11405941 2.999901-1.11445545 4.1438416-.00118812l7.1518614 6.97861383c.5528911.539802.8577524 1.2574258.8577524 2.0205941s-.3048613 1.4807921-.8581584 2.0205941l-4.6472079 4.5350495c-.1404554.2285148-.5784653 1.2237623 1.100099 2.860198 2.8967921 2.8261386 3.2207327 3.1378218 3.2373762 3.1536633.0040595.0035644.2683268.2550495 3.2199208 3.1370297.0121783.0114852.0247624.0233664.0369406.0348515 1.8628614 1.8170297 2.9150594 1.0974258 2.9243961 1.0887129.0304455-.0253465.0617029-.0495049.0937723-.0720792l4.571297-4.4594059c.5516732-.539406 1.2880495-.8372278 2.0715148-.8372278.7822476 0 1.5186238.2970297 2.0719208.8368317z"/><path d="m41 21c0 1.1045695-.8954305 2-2 2s-2-.8954305-2-2c0-4.418278-3.581722-8-8-8-1.1045695 0-2-.8954305-2-2s.8954305-2 2-2c6.627417 0 12 5.372583 12 12z"/><path d="m46 21c0 1.1045695-.8954305 2-2 2s-2-.8954305-2-2c0-7.1797017-5.8202983-13-13-13-1.1045695 0-2-.8954305-2-2s.8954305-2 2-2c9.3888407 0 17 7.6111593 17 17z"/></g></svg>