<?xml version="1.0" encoding="UTF-8"?>
<svg width="124px" height="124px" viewBox="0 0 124 124" version="1.1" xmlns="http://www.w3.org/2000/svg" xmlns:xlink="http://www.w3.org/1999/xlink">
    <!-- Generator: Sketch 55 (78076) - https://sketchapp.com -->
    <title>Artboard Copy 2</title>
    <desc>Created with Sketch.</desc>
    <g id="Artboard-Copy-2" stroke="none" stroke-width="1" fill="none" fill-rule="evenodd">
        <g id="060-corbeille" transform="translate(17.000000, 13.000000)" fill="#000000" fill-rule="nonzero">
            <path d="M81.1596403,13.6290631 L63.2526108,13.6290631 L63.2526108,8.82551039 C63.250572,3.95682477 59.2870897,0 54.4122511,0 L35.5897877,0 C30.7129103,0 26.7473892,3.95682477 26.7473892,8.82551039 L26.7473892,13.6290631 L8.84035974,13.6290631 C3.96552115,13.6290631 0,17.5879233 0,22.4545735 L0,31.8520323 C0,34.3820391 2.06329429,36.443903 4.59959677,36.443903 L10.8465668,36.443903 L10.8465668,90.1704188 C10.8465668,95.0391044 14.812088,99 19.6869266,99 L71.4323902,99 C76.3072288,99 80.2727499,95.0391044 80.2727499,90.1704188 L80.2727499,36.443903 L85.4004032,36.443903 C87.9367057,36.443903 90,34.3820391 90,31.8520323 L90,22.4545735 C90,17.5879233 86.03244,13.6290631 81.1596403,13.6290631 Z M80.8008065,22.8148399 L80.8008065,27.2601616 L9.19511587,27.2601616 L9.19511587,22.8148399 L80.8008065,22.8148399 Z M35.942505,13.6290631 L35.942505,9.18170604 L54.0513785,9.18170604 L54.0513785,13.6290631 L35.942505,13.6290631 Z M71.0715176,36.443903 L71.0715176,89.8142232 L20.0457604,89.8142232 L20.0457604,36.443903 L71.0715176,36.443903 Z" id="Shape"></path>
            <path d="M44,86 C46.2067065,86 48,84.0107227 48,81.5628517 L48,44.4391865 C48,41.9933537 46.2048691,40 44,40 C41.7951309,40 40,41.9933537 40,44.4391865 L40,81.5669281 C40,84.0127609 41.7951309,86 44,86 Z" id="Path"></path>
            <path d="M31.9990815,86 C34.2052813,86 36,84.0107227 36,81.5628517 L36,44.4391865 C36,41.9933537 34.2052813,40 31.9990815,40 C29.7928817,40 28,41.9933537 28,44.4391865 L28,81.5669281 C28,84.0127609 29.7928817,86 31.9990815,86 Z" id="Path"></path>
            <path d="M57.9990822,86 C60.2052816,86 62,84.0107227 62,81.5628517 L62,44.4391865 C62,41.9933537 60.2052816,40 57.9990822,40 C55.7928828,40 54.0000014,41.9933537 54.0000014,44.4391865 L54.0000014,81.5669281 C53.9981644,84.0127609 55.7928828,86 57.9990822,86 Z" id="Path"></path>
        </g>
    </g>
</svg>