<svg width="100" height="100" viewBox="0 0 100 100" fill="none" xmlns="http://www.w3.org/2000/svg">
<path d="M51.5025 10.0667C55.8692 10 60.2024 10.0333 64.5357 10C64.8024 15.0999 66.6357 20.2999 70.369 23.8998C74.1023 27.5998 79.3689 29.2998 84.5021 29.8664V43.2996C79.7022 43.1329 74.8689 42.1329 70.5023 40.0663C68.6023 39.1996 66.8357 38.0996 65.1024 36.9663C65.069 46.6995 65.1357 56.4328 65.0357 66.1326C64.769 70.7992 63.2357 75.4325 60.5358 79.2658C56.1692 85.6657 48.6026 89.8323 40.836 89.9657C36.0694 90.2323 31.3028 88.9323 27.2362 86.5324C20.5029 82.5658 15.7697 75.2992 15.0697 67.4993C15.003 65.8326 14.9697 64.166 15.0363 62.5327C15.6363 56.1994 18.7696 50.1328 23.6362 45.9995C29.1695 41.1996 36.9027 38.8996 44.136 40.2663C44.2026 45.1996 44.0026 50.1328 44.0026 55.0661C40.7027 53.9994 36.8361 54.2994 33.9361 56.2994C31.8361 57.6661 30.2361 59.766 29.4028 62.1327C28.7028 63.8327 28.9028 65.6993 28.9362 67.4993C29.7362 72.9659 35.0028 77.5658 40.6027 77.0658C44.336 77.0325 47.9026 74.8659 49.8359 71.6992C50.4692 70.5992 51.1692 69.4659 51.2025 68.1659C51.5359 62.1993 51.4025 56.2661 51.4359 50.2995C51.4692 36.8663 51.4025 23.4665 51.5025 10.0667Z" fill="black"/>
</svg>
