<?xml version="1.0" encoding="utf-8"?>
<!-- Generator: Adobe Illustrator 27.8.0, SVG Export Plug-In . SVG Version: 6.00 Build 0)  -->
<svg version="1.1" xmlns="http://www.w3.org/2000/svg" xmlns:xlink="http://www.w3.org/1999/xlink" x="0px" y="0px"
	 viewBox="0 0 100 100" enable-background="new 0 0 100 100" xml:space="preserve">
<g id="recherche_00000134934896178938384950000000318484627856393104_">
	<path fill-rule="evenodd" clip-rule="evenodd" d="M87.986,46.488L66.561,25.064c-0.969-0.966-2.24-1.452-3.512-1.452
		c-1.27,0-2.543,0.485-3.512,1.454l-1.992,1.99c-0.969,0.969-1.452,2.24-1.452,3.512c0,1.272,0.483,2.545,1.452,3.514l9.544,9.541
		l-8.522,0c-0.001,0-0.002,0-0.004,0l-8.564,0l-8.564,0c-0.001,0-0.002,0-0.004,0l-8.522,0l9.544-9.541
		c0.969-0.969,1.452-2.242,1.452-3.514c0-1.272-0.483-2.543-1.452-3.512l-1.992-1.99c-0.969-0.969-2.242-1.454-3.512-1.454
		c-1.272,0-2.543,0.485-3.512,1.452L12.014,46.488c-0.969,0.969-1.452,2.242-1.452,3.512c0,1.272,0.483,2.543,1.452,3.512
		l21.425,21.425c0.966,0.969,2.242,1.452,3.512,1.452c1.272,0,2.543-0.483,3.512-1.452l1.992-1.992
		c0.969-0.969,1.452-2.242,1.452-3.512c0-1.272-0.483-2.543-1.452-3.512l-9.544-9.544h8.525h17.127h8.525l-9.544,9.544
		c-0.969,0.969-1.452,2.24-1.452,3.512c0,1.27,0.483,2.543,1.452,3.512l1.992,1.992c0.969,0.969,2.24,1.452,3.512,1.452
		c1.27,0,2.545-0.483,3.512-1.452l21.425-21.425c0.969-0.969,1.452-2.24,1.452-3.512C89.438,48.73,88.954,47.457,87.986,46.488z"/>
</g>
<g id="Calque_3">
</g>
</svg>
