<?xml version="1.0" encoding="utf-8"?>
<!-- Generator: Adobe Illustrator 27.8.0, SVG Export Plug-In . SVG Version: 6.00 Build 0)  -->
<svg version="1.1" id="recherche_00000134934896178938384950000000318484627856393104_"
	 xmlns="http://www.w3.org/2000/svg" xmlns:xlink="http://www.w3.org/1999/xlink" x="0px" y="0px" viewBox="0 0 100 100"
	 enable-background="new 0 0 100 100" xml:space="preserve">
<g>
	<path fill-rule="evenodd" clip-rule="evenodd" d="M57.631,47.16l11.418-11.42c1.159-1.159,2.683-1.737,4.205-1.737
		s3.043,0.578,4.202,1.737l2.381,2.384c1.159,1.159,1.74,2.683,1.74,4.202c0,1.522-0.581,3.043-1.737,4.202L54.202,72.165
		c-1.159,1.159-2.683,1.737-4.202,1.737c-1.522,0-3.043-0.578-4.202-1.737L20.16,46.528c-1.159-1.156-1.737-2.683-1.737-4.202
		c0-1.522,0.578-3.043,1.737-4.202l2.384-2.384c1.159-1.159,2.683-1.737,4.202-1.737c1.522,0,3.043,0.578,4.202,1.737l11.42,11.42
		V16.463c0-1.638,0.667-3.124,1.742-4.202c1.078-1.078,2.564-1.742,4.202-1.742h3.37c1.638,0,3.124,0.667,4.202,1.742
		c1.078,1.078,1.745,2.564,1.745,4.202L57.631,47.16z"/>
	<path fill-rule="evenodd" clip-rule="evenodd" d="M81.239,86.34v-5.296c0-1.735-1.406-3.141-3.141-3.141H21.902
		c-1.735,0-3.141,1.406-3.141,3.141v5.296c0,1.735,1.406,3.141,3.141,3.141h56.196C79.833,89.482,81.239,88.075,81.239,86.34z"/>
</g>
</svg>
