<?xml version="1.0" encoding="utf-8"?>
<!-- Generator: Adobe Illustrator 27.8.0, SVG Export Plug-In . SVG Version: 6.00 Build 0)  -->
<svg version="1.1" id="recherche_00000134934896178938384950000000318484627856393104_"
	 xmlns="http://www.w3.org/2000/svg" xmlns:xlink="http://www.w3.org/1999/xlink" x="0px" y="0px" viewBox="0 0 100 100"
	 enable-background="new 0 0 100 100" xml:space="preserve">
<g>
	<path fill-rule="evenodd" clip-rule="evenodd" d="M57.631,83.537c0,1.638-0.667,3.124-1.745,4.202
		c-1.078,1.075-2.564,1.742-4.202,1.742h-3.37c-1.638,0-3.124-0.664-4.202-1.742c-1.075-1.078-1.742-2.564-1.742-4.202V52.84
		l-11.42,11.42c-1.159,1.159-2.681,1.737-4.202,1.737c-1.519,0-3.043-0.578-4.202-1.737l-2.384-2.384
		c-1.159-1.159-1.737-2.681-1.737-4.202c0-1.519,0.578-3.046,1.737-4.202l25.637-25.637c1.159-1.159,2.681-1.737,4.202-1.737
		c1.519,0,3.043,0.578,4.202,1.737L79.84,53.472c1.156,1.159,1.737,2.681,1.737,4.202c0,1.519-0.581,3.043-1.74,4.202l-2.381,2.384
		c-1.159,1.159-2.681,1.737-4.202,1.737s-3.046-0.578-4.205-1.737L57.631,52.84L57.631,83.537z"/>
	<path fill-rule="evenodd" clip-rule="evenodd" d="M81.239,13.66v5.296c0,1.735-1.406,3.141-3.141,3.141H21.902
		c-1.735,0-3.141-1.406-3.141-3.141V13.66c0-1.735,1.406-3.141,3.141-3.141h56.196C79.833,10.518,81.239,11.925,81.239,13.66z"/>
</g>
</svg>
